<svg width="12" height="12" viewBox="0 0 12 12" fill="none" xmlns="http://www.w3.org/2000/svg">
<path fill-rule="evenodd" clip-rule="evenodd" d="M0.26295 5.36257L5.36255 0.262958C5.71315 -0.0876424 6.28685 -0.0876424 6.63725 0.262958L11.737 5.36257C12.0874 5.71317 12.0874 6.28686 11.737 6.63756L6.63725 11.7371C6.28685 12.0878 5.71315 12.0878 5.36255 11.7371L0.26295 6.63756C-0.08765 6.28686 -0.08765 5.71317 0.26295 5.36257Z" fill="#FFEC00"/>
<path fill-rule="evenodd" clip-rule="evenodd" d="M0.365448 5.52056L5.52055 0.365364C5.65255 0.233464 5.82635 0.167473 6.00005 0.167473C6.17375 0.167473 6.34755 0.233464 6.47955 0.365364L11.6347 5.52056C11.7667 5.65256 11.8326 5.82637 11.8326 6.00007C11.8326 6.17377 11.7667 6.34758 11.6347 6.47958L6.47955 11.6347C6.34755 11.7667 6.17375 11.8327 6.00005 11.8327C5.82635 11.8327 5.65255 11.7667 5.52055 11.6347L0.365448 6.47958C0.233448 6.34758 0.16745 6.17377 0.16745 6.00007C0.16745 5.82637 0.233448 5.65256 0.365448 5.52056ZM5.71175 0.556664L0.556648 5.71177C0.477448 5.79097 0.437851 5.89547 0.437851 6.00007C0.437851 6.10467 0.477448 6.20916 0.556648 6.28826L5.71175 11.4435C5.79095 11.5226 5.89545 11.5622 6.00005 11.5622C6.10465 11.5622 6.20915 11.5226 6.28835 11.4435L11.4435 6.28826C11.5227 6.20916 11.5621 6.10467 11.5621 6.00007C11.5621 5.89547 11.5227 5.79097 11.4435 5.71177L6.28835 0.556664C6.20915 0.477464 6.10465 0.437874 6.00005 0.437874C5.89545 0.437874 5.79095 0.477464 5.71175 0.556664Z" fill="black"/>
<path fill-rule="evenodd" clip-rule="evenodd" d="M6.75395 4.48068C6.75395 4.97938 6.36785 5.38028 5.87855 5.38028C5.44535 5.38028 5.00325 4.98458 5.00325 4.57788V2.85158H6.75395V4.48068Z" fill="black"/>
<path fill-rule="evenodd" clip-rule="evenodd" d="M3.56995 6.98727L5.08805 9.14857L5.77335 8.66718L4.25525 6.50598L4.96985 6.17488L2.95355 5.38017L3.01615 7.54727L3.56995 6.98727Z" fill="black"/>
<path fill-rule="evenodd" clip-rule="evenodd" d="M8.43005 6.98727L6.91195 9.14857L6.22665 8.66718L7.74485 6.50598L7.03015 6.17488L9.04645 5.38017L8.98385 7.54727L8.43005 6.98727Z" fill="black"/>
</svg>
