<svg width="22" height="19" viewBox="0 0 22 19" fill="none" xmlns="http://www.w3.org/2000/svg">
<path fill-rule="evenodd" clip-rule="evenodd" d="M9.1513 7.59243C6.5008 7.59243 4.3514 9.74193 4.3514 12.3924C4.3514 15.0429 6.5008 17.1924 9.1513 17.1924C11.8018 17.1924 13.9513 15.0429 13.9513 12.3924C13.9513 9.74193 11.8018 7.59243 9.1513 7.59243ZM3.1514 12.3924C3.1514 9.07933 5.8382 6.39243 9.1513 6.39243C12.4645 6.39243 15.1513 9.07933 15.1513 12.3924C15.1513 15.7055 12.4645 18.3923 9.1513 18.3923C5.8382 18.3923 3.1514 15.7055 3.1514 12.3924Z" fill="#FF0000"/>
<path fill-rule="evenodd" clip-rule="evenodd" d="M8.6896 9.46422C9.0198 9.46422 9.28741 9.20632 9.28741 8.88852C9.28741 8.57042 9.0198 8.31282 8.6896 8.31282C8.3596 8.31282 8.09171 8.57042 8.09171 8.88852C8.09171 9.20632 8.3596 9.46422 8.6896 9.46422Z" fill="black"/>
<path fill-rule="evenodd" clip-rule="evenodd" d="M6.9398 11.8573C6.7898 12.2501 7.2053 12.5291 7.3887 12.3312L8.4861 11.1464L8.5859 11.8074L6.8649 15.3616C6.6343 15.9327 7.3479 16.3224 7.6506 15.7856L9.1596 12.5556L10.3336 15.6858C10.5138 16.2052 11.3401 16.1407 11.2547 15.6092L9.8455 11.7076L9.9826 10.8721L11.038 11.9599C11.2772 12.1418 11.6624 11.9208 11.5517 11.5971L9.5337 9.51282L9.3342 9.52522L8.7356 9.83702L6.9398 11.8573Z" fill="black"/>
<path fill-rule="evenodd" clip-rule="evenodd" d="M12.5252 16.5751L13.3328 15.7676L5.77489 8.20963L4.96979 9.01722L12.5252 16.5751Z" fill="#FF0000" stroke="#FF0000" stroke-width="0.0025"/>
</svg>
