<svg width="12" height="12" viewBox="0 0 12 12" fill="none" xmlns="http://www.w3.org/2000/svg">
<path fill-rule="evenodd" clip-rule="evenodd" d="M0.26295 5.36253L5.36255 0.263025C5.71315 -0.087675 6.28685 -0.087675 6.63725 0.263025L11.7371 5.36253C12.0875 5.71313 12.0875 6.28693 11.7371 6.63753L6.63725 11.7371C6.28685 12.0877 5.71315 12.0877 5.36255 11.7371L0.26295 6.63753C-0.08765 6.28693 -0.08765 5.71313 0.26295 5.36253Z" fill="#FFEC00"/>
<path fill-rule="evenodd" clip-rule="evenodd" d="M0.36545 5.52052L5.52055 0.365417C5.65255 0.233417 5.82635 0.167419 6.00005 0.167419C6.17375 0.167419 6.34755 0.233417 6.47955 0.365417L11.6347 5.52052C11.7667 5.65252 11.8327 5.82632 11.8327 6.00002C11.8327 6.17372 11.7667 6.34752 11.6347 6.47952L6.47955 11.6346C6.34755 11.7666 6.17375 11.8326 6.00005 11.8326C5.82635 11.8326 5.65255 11.7666 5.52055 11.6346L0.36545 6.47952C0.23345 6.34752 0.16745 6.17372 0.16745 6.00002C0.16745 5.82632 0.23345 5.65252 0.36545 5.52052ZM5.71175 0.556618L0.55665 5.71172C0.47745 5.79092 0.437851 5.89542 0.437851 6.00002C0.437851 6.10462 0.47745 6.20911 0.55665 6.28831L5.71175 11.4434C5.79095 11.5226 5.89545 11.5622 6.00005 11.5622C6.10465 11.5622 6.20915 11.5226 6.28825 11.4434L11.4435 6.28831C11.5227 6.20911 11.5622 6.10462 11.5622 6.00002C11.5622 5.89542 11.5227 5.79092 11.4435 5.71172L6.28825 0.556618C6.20915 0.477418 6.10465 0.43792 6.00005 0.43792C5.89545 0.43792 5.79095 0.477418 5.71175 0.556618Z" fill="black"/>
<path fill-rule="evenodd" clip-rule="evenodd" d="M5.82975 5.45682H3.71695V6.60702H5.82975V9.45502H6.87825V2.54512H5.82975V5.45682Z" fill="black"/>
</svg>
