<svg width="12" height="12" viewBox="0 0 12 12" fill="none" xmlns="http://www.w3.org/2000/svg">
<path fill-rule="evenodd" clip-rule="evenodd" d="M0.26295 5.36254L5.36245 0.26295C5.71315 -0.08765 6.28685 -0.08765 6.63725 0.26295L11.737 5.36254C12.0874 5.71314 12.0874 6.28685 11.737 6.63755L6.63725 11.737C6.28685 12.0877 5.71315 12.0877 5.36245 11.737L0.26295 6.63755C-0.08765 6.28685 -0.08765 5.71314 0.26295 5.36254Z" fill="#FFEC00"/>
<path fill-rule="evenodd" clip-rule="evenodd" d="M0.365356 5.52055L5.52055 0.365341C5.65255 0.233441 5.82635 0.167442 6.00005 0.167442C6.17375 0.167442 6.34755 0.233441 6.47945 0.365341L11.6347 5.52055C11.7667 5.65255 11.8327 5.82635 11.8327 6.00005C11.8327 6.17375 11.7667 6.34755 11.6347 6.47945L6.47945 11.6346C6.34755 11.7666 6.17375 11.8326 6.00005 11.8326C5.82635 11.8326 5.65255 11.7666 5.52055 11.6346L0.365356 6.47945C0.233456 6.34755 0.16745 6.17375 0.16745 6.00005C0.16745 5.82635 0.233456 5.65255 0.365356 5.52055ZM5.71175 0.556641L0.556557 5.71175C0.477457 5.79095 0.437851 5.89545 0.437851 6.00005C0.437851 6.10465 0.477457 6.20915 0.556557 6.28825L5.71175 11.4434C5.79095 11.5225 5.89545 11.5621 6.00005 11.5621C6.10465 11.5621 6.20915 11.5225 6.28825 11.4434L11.4435 6.28825C11.5226 6.20915 11.5622 6.10465 11.5622 6.00005C11.5622 5.89545 11.5226 5.79095 11.4435 5.71175L6.28825 0.556641C6.20915 0.477441 6.10465 0.437843 6.00005 0.437843C5.89545 0.437843 5.79095 0.477441 5.71175 0.556641Z" fill="black"/>
<path fill-rule="evenodd" clip-rule="evenodd" d="M4.89485 5.13864C4.58235 4.98194 4.56415 4.82114 4.05845 4.85804C3.79815 4.87694 3.35955 5.44045 3.16925 5.64095C3.07715 5.73795 2.93025 5.78424 2.95285 5.99024C2.96905 6.13684 3.13425 6.23355 3.28525 6.15025C3.34235 6.11875 3.50535 5.91764 3.57335 5.86624C3.52175 6.11514 3.29775 6.76195 3.33935 6.85835L3.61235 6.86634C3.57535 7.15324 3.48715 7.50025 3.42895 7.79105C3.37905 8.04045 3.18885 8.55314 3.56985 8.57044C3.90895 8.58584 3.89095 8.12755 3.95275 7.84795L4.13745 6.97274C4.16355 6.90124 4.14705 6.94304 4.16355 6.91724C4.23935 7.20964 4.29705 7.54574 4.35645 7.85244C4.41305 8.14434 4.42685 8.60774 4.77045 8.60014C5.28855 8.58874 4.78675 7.53795 4.67815 6.86835L5.09025 6.85934C5.10025 6.65794 4.83145 5.85345 4.78045 5.58485C4.91565 5.64875 5.04805 5.77104 5.15975 5.83974C5.12805 5.91314 5.12205 5.88434 5.11525 5.96794C5.18085 6.03244 5.39085 6.20604 5.45645 6.23654C5.52615 6.19094 5.96535 5.60715 5.98455 5.55135C5.90055 5.46225 5.69355 5.31064 5.57895 5.25874C5.46355 5.36234 5.51435 5.39425 5.40745 5.48415L4.96225 5.17784C5.18005 5.21624 5.26155 5.10054 5.37535 5.00484C5.95315 4.51904 5.83015 4.72025 6.16225 4.12605C6.16825 4.11535 6.18335 4.08944 6.19095 4.07914L6.24535 4.02024C6.27385 4.31374 6.45945 4.74375 6.47865 5.01765C6.48495 5.10835 5.77895 7.78255 5.72515 7.97775C5.59655 8.44495 5.83955 8.69764 6.15925 8.65564C6.47105 8.61464 6.52175 8.14384 6.61175 7.85794C6.71145 7.54164 6.80585 7.22114 6.89935 6.89514C6.95725 6.69304 7.10795 6.09844 7.18755 5.95134C7.42625 6.75694 7.63405 7.59004 7.84995 8.40084C7.90165 8.59464 7.94225 8.71884 8.08605 8.80294C8.38835 8.97964 8.75335 8.66714 8.65985 8.18124C8.59705 7.85524 8.49105 7.50314 8.41095 7.17764L7.66955 4.13535C7.79145 4.23525 8.23165 4.75884 8.31035 4.82954C8.41915 4.92714 8.51305 5.12114 8.70805 5.09904C8.82185 5.08614 9.18295 4.87394 8.82875 4.53104C8.74515 4.45004 8.73045 4.44075 8.66245 4.35455L7.52655 3.11434C7.47185 3.05114 7.44495 2.98075 7.31985 2.97005L6.08215 3.10764C5.84325 3.13344 5.88135 3.14254 5.75705 3.47524C5.69645 3.63734 5.63475 3.79375 5.57545 3.95515C5.44635 4.30735 5.41625 4.26074 5.11265 4.52194C5.03145 4.59194 5.02065 4.61765 4.93045 4.68275C4.70795 4.84355 4.78965 4.94944 4.89485 5.13864Z" fill="black"/>
<path fill-rule="evenodd" clip-rule="evenodd" d="M4.79946 6.95515C4.86436 7.61805 5.36986 8.50055 4.89886 8.66875C4.78106 8.71085 4.72246 8.67775 4.61546 8.67905L4.52296 10.125L5.42246 10.1254L5.42566 6.33115C5.29256 6.24365 5.07696 6.03354 4.99296 6.02114C5.01586 6.18774 5.09596 6.45314 5.14306 6.62184C5.24866 7.00014 5.15126 6.95725 4.79946 6.95515Z" fill="black"/>
<path fill-rule="evenodd" clip-rule="evenodd" d="M6.53066 10.1098C6.68806 10.1706 7.20506 10.123 7.42126 10.127L6.94946 7.09114C6.80436 7.30784 6.66006 8.17864 6.50816 8.48914C6.42096 8.66744 6.38226 8.55385 6.41156 8.83495C6.44086 9.11655 6.48106 9.96194 6.53066 10.1098Z" fill="black"/>
<path fill-rule="evenodd" clip-rule="evenodd" d="M1.82275 7.39664L2.31976 7.87524L2.39716 7.78465C2.42076 7.75015 2.43505 7.72444 2.46265 7.67844L2.86145 7.04765C2.95895 6.89625 3.04255 6.77334 3.12995 6.63044C3.19125 6.53014 3.36126 6.29124 3.38686 6.19944C3.15976 6.31254 3.13985 6.28625 2.92945 6.18655C2.87975 6.26405 2.74085 6.42074 2.66525 6.48464C2.50795 6.61774 2.38665 6.77434 2.24895 6.92614C2.16295 7.02094 1.89785 7.21584 1.82275 7.39664Z" fill="black"/>
<path fill-rule="evenodd" clip-rule="evenodd" d="M6.28486 1.88674C5.62936 2.11364 5.93516 3.12595 6.59856 2.91975C6.82346 2.84985 7.02815 2.56195 6.94165 2.25295C6.87395 2.01085 6.60106 1.77724 6.28486 1.88674Z" fill="black"/>
<path fill-rule="evenodd" clip-rule="evenodd" d="M9.74346 7.75314L10.1773 7.31494L9.53306 6.01944L9.02876 6.02045L9.74346 7.75314Z" fill="black"/>
<path fill-rule="evenodd" clip-rule="evenodd" d="M3.53536 9.09624L3.64776 8.66194C2.87996 8.66694 3.46696 7.69184 3.49506 6.95414C3.40216 6.95514 3.31226 6.94285 3.25096 6.92455L2.87636 8.19044C2.80986 8.43664 2.75656 8.32734 3.09086 8.67604C3.23736 8.82884 3.33886 8.95074 3.53536 9.09624Z" fill="black"/>
<path fill-rule="evenodd" clip-rule="evenodd" d="M4.08596 3.99854C3.58426 4.17644 3.84075 4.96044 4.34265 4.78124C4.51575 4.71944 4.66646 4.50534 4.59216 4.26004C4.53616 4.07514 4.32276 3.91454 4.08596 3.99854Z" fill="black"/>
<path fill-rule="evenodd" clip-rule="evenodd" d="M8.11116 8.91904L8.22206 9.29814C8.27146 9.27834 8.23146 9.30414 8.28496 9.26104C8.41296 9.15764 8.98846 8.52695 9.00946 8.47775C8.97636 8.42525 8.32556 6.42974 8.31066 6.34074C8.33346 6.54144 8.42436 6.83794 8.47936 7.06234C8.58546 7.49494 8.83656 8.26654 8.72186 8.59494C8.63506 8.84354 8.43836 8.97644 8.11116 8.91904Z" fill="black"/>
</svg>
