<svg width="9" height="12" viewBox="0 0 9 12" fill="none" xmlns="http://www.w3.org/2000/svg">
<path fill-rule="evenodd" clip-rule="evenodd" d="M3.5603 5.2739H5.0117V6.72521H3.5603V5.2739Z" fill="white"/>
<path fill-rule="evenodd" clip-rule="evenodd" d="M0.4283 7.62939e-06H8.1431C8.379 7.62939e-06 8.5714 0.192507 8.5714 0.428307V11.5716C8.5714 11.8075 8.379 11.9999 8.1431 11.9999H0.4283C0.1925 11.9999 0 11.8075 0 11.5716V0.428307C0 0.192507 0.1925 7.62939e-06 0.4283 7.62939e-06Z" fill="white"/>
<path fill-rule="evenodd" clip-rule="evenodd" d="M0.554196 0.299904H8.017C8.157 0.299904 8.2712 0.414207 8.2712 0.554207V11.4455C8.2712 11.5855 8.157 11.6997 8.017 11.6997H0.554196C0.414196 11.6997 0.299896 11.5855 0.299896 11.4455V0.554207C0.299896 0.414207 0.414196 0.299904 0.554196 0.299904Z" fill="white"/>
<path fill-rule="evenodd" clip-rule="evenodd" d="M0.554409 0.171303H8.01701C8.12251 0.171303 8.21831 0.214399 8.28761 0.283699C8.35701 0.353099 8.40001 0.448798 8.40001 0.554298V11.4454C8.40001 11.5508 8.35701 11.6466 8.28761 11.7159C8.21831 11.7853 8.12251 11.8283 8.01701 11.8283H0.554409C0.449009 11.8283 0.353209 11.7853 0.283909 11.7159C0.214509 11.6466 0.171509 11.5508 0.171509 11.4454V0.554298C0.171509 0.448798 0.214509 0.353099 0.283909 0.283699C0.353209 0.214399 0.449009 0.171303 0.554409 0.171303ZM8.01701 0.428505H0.554409C0.520009 0.428505 0.488509 0.442608 0.465709 0.465508C0.442809 0.488408 0.428608 0.519798 0.428608 0.554298V11.4454C0.428608 11.4798 0.442809 11.5113 0.465709 11.5341C0.488509 11.557 0.520009 11.5712 0.554409 11.5712H8.01701C8.05151 11.5712 8.08291 11.557 8.10581 11.5341C8.12871 11.5113 8.14291 11.4798 8.14291 11.4454V0.554298C8.14291 0.519798 8.12871 0.488408 8.10581 0.465508C8.08291 0.442608 8.05151 0.428505 8.01701 0.428505Z" fill="white"/>
<path fill-rule="evenodd" clip-rule="evenodd" d="M1.32581 1.33831H7.24571V7.43331H1.32581V1.33831Z" fill="white"/>
<path fill-rule="evenodd" clip-rule="evenodd" d="M2.33441 2.383L2.33451 3.83741C2.33451 4.07291 2.44591 4.0418 2.51711 4.0765C2.60951 4.1215 2.55621 4.07251 2.60491 4.14901C2.65911 4.25091 2.62971 5.82271 2.62861 6.15841C2.62771 6.41521 2.56081 6.62501 2.84641 6.62501L4.73411 6.62481C5.05221 6.62481 4.95611 6.2762 4.95611 5.6632C4.95611 5.3954 4.91691 4.70961 4.97141 4.50881C5.07091 4.48131 5.06071 4.4869 5.16171 4.5254C5.36841 5.0397 4.84051 6.5603 5.72451 6.5373C6.09811 6.5273 6.23691 6.26851 6.23701 5.87991C6.23721 5.53431 6.05981 3.49771 5.96401 3.10441C5.89081 2.80391 5.75491 2.6447 5.44451 2.6065C5.38711 3.1508 5.56621 2.80471 5.65371 3.16511C5.71191 3.40431 5.87201 5.19801 5.89711 5.52821C5.92211 5.85781 6.01521 6.2872 5.59001 6.1948C5.34551 5.72 5.79011 4.41591 5.25361 4.21691L5.00021 4.15481C4.99451 4.15281 4.98391 4.15081 4.97651 4.14681C5.07111 4.02221 5.09411 4.11171 5.22741 3.99201C5.25931 3.94441 5.27941 2.35851 5.21271 2.18551C4.81761 2.11611 3.06671 2.16021 2.53691 2.16081C2.35301 2.16081 2.33441 2.2097 2.33441 2.383ZM2.64811 2.5996V3.62081C2.64811 3.75261 2.61881 3.77111 2.75351 3.77111H4.79601C5.00031 3.77111 4.93661 3.6127 4.93661 3.1876C4.93661 3.0232 4.95991 2.61 4.91971 2.478C4.78401 2.407 3.47111 2.4496 3.12491 2.4495C3.02411 2.4494 2.90921 2.4425 2.81161 2.4455C2.65601 2.4495 2.64811 2.4383 2.64811 2.5996Z" fill="black"/>
</svg>
