<svg width="12" height="12" viewBox="0 0 12 12" fill="none" xmlns="http://www.w3.org/2000/svg">
<path fill-rule="evenodd" clip-rule="evenodd" d="M0.26295 5.36253L5.36245 0.263025C5.71315 -0.087675 6.28685 -0.087675 6.63725 0.263025L11.737 5.36253C12.0874 5.71313 12.0874 6.28693 11.737 6.63753L6.63725 11.737C6.28685 12.0877 5.71315 12.0877 5.36245 11.737L0.26295 6.63753C-0.08765 6.28693 -0.08765 5.71313 0.26295 5.36253Z" fill="#FFEC00"/>
<path fill-rule="evenodd" clip-rule="evenodd" d="M0.365349 5.52052L5.52055 0.365425C5.65255 0.233425 5.82635 0.167427 6.00005 0.167427C6.17375 0.167427 6.34755 0.233425 6.47955 0.365425L11.6347 5.52052C11.7667 5.65252 11.8326 5.82632 11.8326 6.00002C11.8326 6.17372 11.7667 6.34752 11.6347 6.47952L6.47955 11.6346C6.34755 11.7666 6.17375 11.8326 6.00005 11.8326C5.82635 11.8326 5.65255 11.7666 5.52055 11.6346L0.365349 6.47952C0.233449 6.34752 0.16745 6.17372 0.16745 6.00002C0.16745 5.82632 0.233449 5.65252 0.365349 5.52052ZM5.71175 0.556625L0.556648 5.71172C0.477448 5.79092 0.437851 5.89542 0.437851 6.00002C0.437851 6.10462 0.477448 6.20912 0.556648 6.28832L5.71175 11.4434C5.79095 11.5226 5.89545 11.5621 6.00005 11.5621C6.10465 11.5621 6.20915 11.5226 6.28825 11.4434L11.4435 6.28832C11.5226 6.20912 11.5621 6.10462 11.5621 6.00002C11.5621 5.89542 11.5226 5.79092 11.4435 5.71172L6.28825 0.556625C6.20915 0.477425 6.10465 0.437828 6.00005 0.437828C5.89545 0.437828 5.79095 0.477425 5.71175 0.556625Z" fill="black"/>
<path fill-rule="evenodd" clip-rule="evenodd" d="M6.25686 4.43833C6.28216 4.47573 6.47626 5.28493 6.49696 5.39333C6.51506 5.48833 6.30536 6.21112 6.26646 6.36022C6.10086 6.99512 5.94866 7.64933 5.77136 8.28063C5.72426 8.44833 5.68486 8.60833 5.78586 8.76323C5.85136 8.86373 6.00326 8.98433 6.19586 8.94933C6.36216 8.91913 6.44146 8.80083 6.48956 8.64413C6.53746 8.48773 6.58266 8.32873 6.62856 8.17393C6.72076 7.86263 6.80996 7.55043 6.90626 7.24333C7.00206 6.93783 7.08396 6.61193 7.18376 6.31453C7.21776 6.36573 7.75276 8.40643 7.83836 8.72263C7.89216 8.92143 7.92596 9.03123 8.08126 9.10303C8.45146 9.27433 8.69816 8.85203 8.62256 8.50093C8.55146 8.17053 8.45696 7.83723 8.37956 7.51213C8.30096 7.18163 8.21946 6.85323 8.13686 6.52293C8.05426 6.19233 7.97476 5.86513 7.89356 5.53353C7.81446 5.21113 7.71426 4.86613 7.65256 4.54663L8.43596 5.39313C8.65686 5.62073 8.87496 5.42333 8.92026 5.26913C8.97746 5.07483 8.83596 5.02253 8.72036 4.87703L7.45326 3.48493C7.35966 3.39113 7.26496 3.42173 7.12746 3.43893C6.77946 3.48263 6.34706 3.51753 6.02596 3.56773C5.88896 3.58923 5.89266 3.66513 5.84436 3.79083L5.61996 4.38363C5.55356 4.56373 5.55796 4.60853 5.43386 4.70963L5.05126 5.04663C4.99336 5.09783 4.88746 5.16073 4.86486 5.26343C4.82116 5.46143 5.07356 5.70133 5.28166 5.52133L5.72926 5.15173C6.00686 4.91953 5.91486 5.04483 6.10796 4.70073C6.14646 4.63223 6.21756 4.48883 6.25686 4.43833Z" fill="black"/>
<path fill-rule="evenodd" clip-rule="evenodd" d="M3.68036 6.22172C3.66096 6.36092 3.59076 6.56152 3.55216 6.70782C3.39896 7.28882 3.32146 7.21322 3.71096 7.20842C3.70996 7.30832 3.64836 7.54972 3.62646 7.65912L3.44476 8.56322C3.41336 8.73862 3.51776 8.86632 3.68386 8.86982C3.86676 8.87382 3.92306 8.75592 3.95466 8.59942C3.98566 8.44602 4.01676 8.29492 4.04886 8.14302C4.11216 7.84382 4.17836 7.54092 4.23346 7.23942C4.27776 7.30582 4.48316 8.38732 4.53266 8.62542C4.56636 8.78762 4.64806 8.89722 4.83076 8.89692C5.01326 8.89662 5.09676 8.77932 5.06566 8.59092C5.01476 8.28192 4.93686 7.96952 4.85906 7.66462C4.82326 7.52412 4.76816 7.34742 4.74656 7.20762C5.07126 7.20662 5.18546 7.26462 5.14886 7.11912C5.07636 6.83052 4.87386 6.13722 4.84416 5.95812C4.90566 5.99092 4.97666 6.04572 5.03416 6.08702C5.07746 6.11812 5.17846 6.19702 5.22046 6.21612C5.16736 6.33292 5.06196 6.26902 5.41336 6.53732C5.53636 6.63122 5.49416 6.65452 5.77486 6.27062C6.08256 5.84992 6.09356 5.96992 5.83026 5.77872C5.78746 5.74762 5.67196 5.65532 5.62366 5.64612C5.56616 5.67662 5.51126 5.82082 5.46546 5.87182C5.40976 5.84962 4.78596 5.42692 4.67896 5.35632C4.57416 5.28712 4.59216 5.28832 4.44076 5.27402C4.08096 5.24022 4.03386 5.22902 3.73006 5.53122L3.25856 6.03582C2.87296 6.35952 3.15716 6.58172 3.34256 6.53492C3.46226 6.50462 3.45806 6.44922 3.52446 6.38682L3.68036 6.22172Z" fill="black"/>
<path fill-rule="evenodd" clip-rule="evenodd" d="M6.34967 2.36092C5.68297 2.53522 5.93847 3.54642 6.58347 3.38273C6.81937 3.32282 7.02607 3.06242 6.95457 2.75072C6.89957 2.51092 6.65937 2.28002 6.34967 2.36092Z" fill="black"/>
<path fill-rule="evenodd" clip-rule="evenodd" d="M4.23027 4.40423C3.72437 4.49593 3.85827 5.29682 4.36437 5.19942C4.86557 5.10292 4.73427 4.31293 4.23027 4.40423Z" fill="black"/>
</svg>
