<svg width="26" height="17" viewBox="0 0 26 17" fill="none" xmlns="http://www.w3.org/2000/svg">
<path fill-rule="evenodd" clip-rule="evenodd" d="M0 7.62939e-06H25.5047V16.0662H0V7.62939e-06Z" fill="#4C4C4C"/>
<path fill-rule="evenodd" clip-rule="evenodd" d="M0.659599 0.325203H24.8451C24.9356 0.325203 25.0179 0.362305 25.0777 0.422005C25.1374 0.481805 25.1749 0.564506 25.1749 0.655006V15.4112C25.1749 15.5017 25.1378 15.5841 25.0781 15.6438C25.0183 15.7035 24.9356 15.741 24.8451 15.741H0.659599C0.569099 15.741 0.486702 15.7039 0.427002 15.6442C0.367302 15.5845 0.329803 15.5017 0.329803 15.4112V0.655006C0.329803 0.564506 0.366905 0.482201 0.426605 0.422401C0.486305 0.362701 0.569099 0.325203 0.659599 0.325203ZM24.8451 0.545113H0.659599C0.629199 0.545113 0.601702 0.557402 0.581802 0.577202C0.562002 0.597102 0.549706 0.624706 0.549706 0.655006V15.4112C0.549706 15.4415 0.562002 15.4691 0.581802 15.489C0.601702 15.5088 0.629199 15.5211 0.659599 15.5211H24.8451C24.8754 15.5211 24.9029 15.5088 24.9228 15.489C24.9427 15.4691 24.955 15.4415 24.955 15.4112V0.655006C24.955 0.624706 24.9427 0.597102 24.9228 0.577202C24.9029 0.557402 24.8754 0.545113 24.8451 0.545113Z" fill="white"/>
<path fill-rule="evenodd" clip-rule="evenodd" d="M10.1284 3.29081C10.2588 3.28881 10.353 3.22731 10.4111 3.10571L10.6727 3.23521C10.5653 3.45351 10.3839 3.56541 10.1284 3.57081C9.9207 3.57081 9.7608 3.49061 9.6488 3.33021C9.5371 3.17001 9.4813 2.9455 9.4813 2.6567C9.4813 2.3678 9.5371 2.1433 9.6488 1.9829C9.7608 1.8227 9.9207 1.7425 10.1284 1.7425C10.3839 1.7475 10.5653 1.8596 10.6727 2.0781L10.4111 2.20741C10.353 2.08601 10.2588 2.02421 10.1284 2.02251C10.0051 2.02251 9.9153 2.08121 9.8589 2.19831C9.8027 2.31541 9.77441 2.4682 9.77441 2.6567C9.77441 2.8452 9.8027 2.99801 9.8589 3.11501C9.9153 3.23211 10.0051 3.29081 10.1284 3.29081ZM11.2751 1.88511C11.2751 1.92561 11.2612 1.95961 11.2328 1.98681C11.2048 2.01401 11.1713 2.0279 11.1325 2.0279C11.0956 2.0279 11.0625 2.01321 11.0336 1.98431C11.0044 1.95511 10.9899 1.92221 10.9899 1.88511C10.9899 1.84821 11.0044 1.81511 11.0336 1.78611C11.0625 1.75691 11.0956 1.7425 11.1325 1.7425C11.1696 1.7425 11.2025 1.75691 11.2317 1.78611C11.2606 1.81511 11.2751 1.84821 11.2751 1.88511ZM11.2779 3.5416C11.2549 3.8447 11.137 4.05781 10.9239 4.18081L10.8102 3.92461C10.9176 3.83501 10.9774 3.7072 10.9899 3.5416V2.2499H11.2779V3.5416ZM11.8695 3.4175C11.8695 3.458 11.8553 3.4917 11.8273 3.5192C11.7989 3.5465 11.7655 3.56011 11.7269 3.56011C11.6898 3.56011 11.6569 3.54561 11.6277 3.51641C11.5988 3.48751 11.584 3.4543 11.584 3.4175C11.584 3.3803 11.5988 3.34751 11.6277 3.31831C11.6569 3.28941 11.6898 3.27491 11.7269 3.27491C11.7638 3.27491 11.7969 3.28941 11.8258 3.31831C11.855 3.34751 11.8695 3.3803 11.8695 3.4175ZM14.2211 3.5416H13.9252L13.7508 3.04501H13.1987L13.0243 3.5416H12.7256L13.3333 1.77171H13.6134L14.2211 3.5416ZM13.6502 2.75961L13.4759 2.2629L13.2964 2.75961H13.6502ZM15.1458 2.30801L15.0534 2.5642C15.0004 2.5112 14.9468 2.4857 14.8921 2.4874C14.7741 2.4914 14.7115 2.57391 14.7044 2.73571V3.5416H14.4193V2.22861H14.7019V2.3236C14.7495 2.2533 14.8181 2.2181 14.9079 2.2181C14.9978 2.2201 15.0772 2.24991 15.1458 2.30801ZM16.3213 3.5416H16.0492V3.49941C15.9806 3.54871 15.9038 3.5742 15.8193 3.5759C15.6784 3.5739 15.5616 3.53431 15.4692 3.45571C15.3768 3.37751 15.3306 3.26331 15.3306 3.11361C15.3306 2.98521 15.3734 2.87721 15.4587 2.78991C15.544 2.70291 15.66 2.66011 15.8062 2.66181C15.887 2.66181 15.963 2.6718 16.0333 2.691C16.0373 2.5623 15.9718 2.49202 15.8377 2.47952C15.7235 2.47652 15.6203 2.50781 15.5287 2.57471L15.3887 2.36071C15.5154 2.27091 15.6625 2.2232 15.8298 2.2181C15.9673 2.2181 16.0832 2.2573 16.1773 2.3355C16.2714 2.414 16.3196 2.528 16.3213 2.6776V3.5416ZM16.0254 3.24311V2.95261C15.948 2.93131 15.8703 2.92081 15.7929 2.92081C15.7314 2.92081 15.6801 2.94101 15.6396 2.98151C15.5993 3.02201 15.5798 3.06801 15.5815 3.11901C15.5815 3.17171 15.6021 3.22191 15.6435 3.26951C15.6849 3.31711 15.741 3.3409 15.8113 3.3409C15.887 3.3409 15.9585 3.30831 16.0254 3.24311ZM16.5512 2.88911C16.5512 2.70771 16.5855 2.56061 16.6541 2.44801C16.7456 2.29471 16.8911 2.2181 17.0901 2.2181C17.3455 2.2181 17.5093 2.32641 17.5816 2.54301L17.3199 2.6487C17.2811 2.5359 17.2037 2.48031 17.0875 2.48231C16.9923 2.48231 16.9237 2.53341 16.8814 2.63541C16.8514 2.70771 16.8364 2.79221 16.8364 2.88911C16.8364 2.98601 16.8514 3.07051 16.8814 3.14281C16.9237 3.24481 16.9923 3.29591 17.0875 3.29591C17.2037 3.29791 17.2811 3.24231 17.3199 3.12951L17.5816 3.23521C17.5093 3.45181 17.3455 3.56011 17.0901 3.56011C16.8911 3.56011 16.7456 3.48351 16.6541 3.33021C16.5855 3.21761 16.5512 3.07051 16.5512 2.88911ZM16.8497 4.00651V3.86391C16.9024 3.87981 16.9526 3.89171 17.0002 3.89971C17.0478 3.90771 17.0892 3.91161 17.1244 3.91161C17.1544 3.91161 17.1765 3.9046 17.1904 3.8917C17.2046 3.8784 17.2117 3.85771 17.2117 3.82961C17.2117 3.80841 17.2027 3.79251 17.1839 3.78201C17.1655 3.77151 17.134 3.76611 17.0901 3.76611C17.0759 3.76611 17.0651 3.76611 17.0572 3.76611C17.0492 3.76611 17.0416 3.76611 17.0345 3.76611V3.5416H17.1507V3.62611H17.172C17.246 3.62611 17.3041 3.6437 17.3463 3.6791C17.3885 3.7143 17.4098 3.76531 17.4098 3.83221C17.4098 3.90791 17.3868 3.96511 17.3412 4.00401C17.2953 4.04281 17.2292 4.06211 17.1431 4.06211C17.1042 4.06211 17.0606 4.05712 17.0121 4.04762C16.9636 4.03762 16.9095 4.02411 16.8497 4.00651ZM18.8047 3.5416H18.5326V3.49941C18.464 3.54871 18.3872 3.5742 18.3027 3.5759C18.1618 3.5739 18.045 3.53431 17.9526 3.45571C17.8602 3.37751 17.814 3.26331 17.814 3.11361C17.814 2.98521 17.8568 2.87721 17.9421 2.78991C18.0275 2.70291 18.1434 2.66011 18.2897 2.66181C18.3705 2.66181 18.4464 2.6718 18.5167 2.691C18.5207 2.5623 18.4552 2.49202 18.3211 2.47952C18.2069 2.47652 18.1037 2.50781 18.0122 2.57471L17.8721 2.36071C17.9988 2.27091 18.146 2.2232 18.3132 2.2181C18.4507 2.2181 18.5666 2.2573 18.6607 2.3355C18.7548 2.414 18.803 2.528 18.8047 2.6776V3.5416ZM18.5088 3.24311V2.95261C18.4314 2.93131 18.3537 2.92081 18.2764 2.92081C18.2148 2.92081 18.1635 2.94101 18.123 2.98151C18.0827 3.02201 18.0632 3.06801 18.0649 3.11901C18.0649 3.17171 18.0856 3.22191 18.127 3.26951C18.1684 3.31711 18.2245 3.3409 18.2948 3.3409C18.3705 3.3409 18.4419 3.30831 18.5088 3.24311ZM19.9803 3.193C19.9783 3.3055 19.9346 3.39681 19.8482 3.46621C19.762 3.53601 19.6432 3.5717 19.4916 3.5734C19.3189 3.5714 19.1605 3.50561 19.0162 3.37521L19.201 3.1901C19.3084 3.2749 19.4054 3.31801 19.4916 3.31971C19.5534 3.32171 19.6058 3.30861 19.6489 3.28141C19.692 3.25421 19.7127 3.22021 19.711 3.17971C19.713 3.13911 19.6934 3.1014 19.6529 3.066C19.6123 3.0308 19.5471 2.9957 19.4573 2.9605C19.3269 2.9163 19.2319 2.86191 19.1718 2.79671C19.112 2.73151 19.0822 2.6558 19.0822 2.5694C19.0772 2.4832 19.1126 2.40271 19.1891 2.32761C19.2656 2.25271 19.3666 2.21531 19.4916 2.21531C19.6818 2.21931 19.8394 2.2867 19.9644 2.4188L19.7875 2.59571C19.7013 2.51661 19.6044 2.47521 19.497 2.47161C19.453 2.47161 19.4181 2.48061 19.3926 2.49931C19.3671 2.51801 19.3532 2.54301 19.3515 2.57471C19.3495 2.60281 19.3595 2.6258 19.3819 2.6433C19.404 2.6609 19.459 2.6864 19.5471 2.7199C19.6721 2.7587 19.7756 2.81511 19.8575 2.88911C19.9394 2.96311 19.9803 3.0643 19.9803 3.193ZM8.5014 6.21531C8.6598 6.21131 8.7542 6.10251 8.784 5.88761H8.5119V5.59171H9.10371V5.66821C9.10201 5.94121 9.0479 6.1478 8.9413 6.2878C8.8347 6.4279 8.6907 6.4979 8.5093 6.4979C8.2961 6.4959 8.1337 6.41511 8.022 6.25471C7.9101 6.09451 7.8542 5.87001 7.8542 5.58121C7.8542 5.29231 7.9101 5.0678 8.022 4.9074C8.1337 4.7472 8.2936 4.66702 8.5014 4.66702C8.7568 4.67202 8.9382 4.7841 9.0456 5.0026L8.784 5.1319C8.7259 5.0105 8.6318 4.94881 8.5014 4.94711C8.3781 4.94711 8.2882 5.00571 8.2318 5.12281C8.1757 5.23991 8.1473 5.39271 8.1473 5.58121C8.1473 5.76971 8.1757 5.92251 8.2318 6.03951C8.2882 6.15661 8.3781 6.21531 8.5014 6.21531ZM10.3666 6.4661H10.0919V6.40011C10.0145 6.46531 9.91131 6.4979 9.78291 6.4979C9.63301 6.4979 9.5213 6.44691 9.4473 6.34451C9.3733 6.24251 9.3362 6.12371 9.3362 5.98791V5.1744H9.6083V5.98251C9.6049 6.04971 9.627 6.1098 9.6743 6.1637C9.722 6.2173 9.7818 6.24251 9.8541 6.23881C9.9297 6.23881 9.98761 6.21701 10.0273 6.17281C10.0667 6.12881 10.0865 6.06531 10.0865 5.98251V5.1744H10.3666V6.4661ZM11.603 6.4661H11.3309V6.42391C11.2623 6.47321 11.1855 6.4987 11.101 6.5004C10.9601 6.4984 10.8433 6.45881 10.7509 6.38021C10.6585 6.30201 10.6123 6.18781 10.6123 6.03811C10.6123 5.90971 10.6551 5.80171 10.7404 5.71441C10.8258 5.62741 10.9417 5.58461 11.088 5.58631C11.1688 5.58631 11.2447 5.5963 11.315 5.6155C11.3187 5.4868 11.2535 5.41651 11.1194 5.40401C11.0052 5.40101 10.902 5.43231 10.8105 5.49921L10.6704 5.28521C10.7971 5.19541 10.9443 5.1477 11.1115 5.1426C11.249 5.1426 11.3649 5.1818 11.459 5.26C11.5531 5.3385 11.6013 5.4525 11.603 5.6021V6.4661ZM11.3071 6.1677V5.87711C11.2297 5.85581 11.152 5.84541 11.0747 5.84541C11.0131 5.84541 10.9618 5.86551 10.9213 5.90601C10.881 5.94651 10.8615 5.99251 10.8632 6.04351C10.8632 6.09621 10.8839 6.14641 10.9253 6.19401C10.9667 6.24161 11.0228 6.2654 11.0931 6.2654C11.1688 6.2654 11.2402 6.2328 11.3071 6.1677ZM12.6096 5.23251L12.5172 5.48881C12.4642 5.43571 12.4106 5.4102 12.3559 5.4119C12.238 5.4159 12.1753 5.49841 12.1683 5.66021V6.4661H11.8831V5.15311H12.1657V5.2481C12.2133 5.1778 12.2819 5.1426 12.3718 5.1426C12.4616 5.1446 12.541 5.17441 12.6096 5.23251ZM13.7851 6.4661H13.513V6.42391C13.4444 6.47321 13.3676 6.4987 13.2831 6.5004C13.1422 6.4984 13.0255 6.45881 12.933 6.38021C12.8406 6.30201 12.7944 6.18781 12.7944 6.03811C12.7944 5.90971 12.8372 5.80171 12.9226 5.71441C13.0079 5.62741 13.1238 5.58461 13.2701 5.58631C13.3509 5.58631 13.4268 5.5963 13.4971 5.6155C13.5011 5.4868 13.4356 5.41651 13.3016 5.40401C13.1873 5.40101 13.0841 5.43231 12.9926 5.49921L12.8525 5.28521C12.9793 5.19541 13.1264 5.1477 13.2936 5.1426C13.4311 5.1426 13.547 5.1818 13.6411 5.26C13.7353 5.3385 13.7834 5.4525 13.7851 5.6021V6.4661ZM13.4892 6.1677V5.87711C13.4118 5.85581 13.3341 5.84541 13.2568 5.84541C13.1953 5.84541 13.1439 5.86551 13.1034 5.90601C13.0632 5.94651 13.0436 5.99251 13.0453 6.04351C13.0453 6.09621 13.066 6.14641 13.1074 6.19401C13.1488 6.24161 13.2049 6.2654 13.2752 6.2654C13.3509 6.2654 13.4223 6.2328 13.4892 6.1677ZM14.0281 5.1585H14.303V5.24041C14.3804 5.17521 14.4836 5.1426 14.612 5.1426C14.7617 5.1426 14.8736 5.19371 14.9476 5.29571C15.0216 5.39801 15.0585 5.51681 15.0585 5.65231V6.4661H14.7863V5.65771C14.7903 5.59081 14.7679 5.53041 14.7203 5.47681C14.673 5.42301 14.6129 5.39801 14.5409 5.40141C14.4649 5.40141 14.4073 5.42361 14.3677 5.46751C14.328 5.51141 14.3081 5.57491 14.3081 5.65771V6.4661H14.0281V5.1585ZM15.283 4.80451L15.5579 4.66702V5.24041C15.6353 5.17521 15.7385 5.1426 15.8669 5.1426C16.0166 5.1426 16.1285 5.19371 16.2025 5.29571C16.2765 5.39801 16.3134 5.51681 16.3134 5.65231V6.4661H16.0412V5.65771C16.0452 5.59081 16.0228 5.53041 15.9752 5.47681C15.9279 5.42301 15.8678 5.39801 15.7958 5.40141C15.7198 5.40141 15.6622 5.42361 15.6226 5.46751C15.5829 5.51141 15.563 5.57491 15.563 5.65771V6.4661H15.283V4.80451ZM17.5683 6.4661H17.2936V6.40011C17.2162 6.46531 17.113 6.4979 16.9846 6.4979C16.8347 6.4979 16.723 6.44691 16.649 6.34451C16.575 6.24251 16.5379 6.12371 16.5379 5.98791V5.1744H16.81V5.98251C16.807 6.04971 16.8287 6.1098 16.876 6.1637C16.9237 6.2173 16.9835 6.24251 17.0558 6.23881C17.1314 6.23881 17.1893 6.21701 17.229 6.17281C17.2684 6.12881 17.2882 6.06531 17.2882 5.98251V5.1744H17.5683V6.4661ZM17.7928 5.1585H18.0677V5.24041C18.1451 5.17521 18.2483 5.1426 18.3767 5.1426C18.5264 5.1426 18.6383 5.19371 18.7123 5.29571C18.7863 5.39801 18.8232 5.51681 18.8232 5.65231V6.4661H18.551V5.65771C18.555 5.59081 18.5326 5.53041 18.485 5.47681C18.4376 5.42301 18.3776 5.39801 18.3056 5.40141C18.2296 5.40141 18.172 5.42361 18.1324 5.46751C18.0927 5.51141 18.0728 5.57491 18.0728 5.65771V6.4661H17.7928V5.1585ZM19.9803 6.1175C19.9783 6.23 19.9346 6.32131 19.8482 6.39071C19.762 6.46051 19.6432 6.4962 19.4916 6.4979C19.3189 6.4959 19.1605 6.43011 19.0162 6.29971L19.201 6.1146C19.3084 6.1994 19.4054 6.24251 19.4916 6.24421C19.5534 6.24621 19.6058 6.23311 19.6489 6.20591C19.692 6.17871 19.7127 6.14471 19.711 6.10421C19.713 6.06361 19.6934 6.0259 19.6529 5.9905C19.6123 5.9553 19.5471 5.9202 19.4573 5.885C19.3269 5.8408 19.2319 5.78641 19.1718 5.72121C19.112 5.65601 19.0822 5.5803 19.0822 5.4939C19.0772 5.4077 19.1126 5.32721 19.1891 5.25211C19.2656 5.17721 19.3666 5.13981 19.4916 5.13981C19.6818 5.14381 19.8394 5.2112 19.9644 5.3433L19.7875 5.52021C19.7013 5.44111 19.6044 5.39971 19.497 5.39611C19.453 5.39611 19.4181 5.40511 19.3926 5.42381C19.3671 5.44251 19.3532 5.46751 19.3515 5.49921C19.3495 5.52731 19.3595 5.5503 19.3819 5.5678C19.404 5.5854 19.459 5.6109 19.5471 5.6444C19.6721 5.6832 19.7756 5.73961 19.8575 5.81361C19.9394 5.88761 19.9803 5.9888 19.9803 6.1175Z" fill="white"/>
<path fill-rule="evenodd" clip-rule="evenodd" d="M0.439804 7.9233H25.0649V8.1431H0.439804V7.9233Z" fill="white"/>
<path fill-rule="evenodd" clip-rule="evenodd" d="M23.5522 4.19321L23.1403 2.4838C23.1292 2.4278 23.0622 2.319 22.9224 2.3458L21.2182 2.8134C20.9848 2.9103 21.1299 3.14361 21.2372 3.14881L22.1147 3.3004L21.2623 4.57001L21.9905 5.0013L22.688 3.6368L23.2532 4.34391C23.3775 4.47821 23.5992 4.36201 23.5522 4.19321Z" fill="white"/>
<path fill-rule="evenodd" clip-rule="evenodd" d="M8.74771 9.59451L8.20091 11.3644H7.94461L7.40551 9.59451H7.69891L8.07671 10.7754L8.44921 9.59451H8.74771ZM9.93401 11.3644H9.66191V11.3222C9.59331 11.3715 9.51641 11.397 9.43201 11.3987C9.29111 11.3967 9.17431 11.357 9.08191 11.2785C8.98951 11.2003 8.94331 11.086 8.94331 10.9364C8.94331 10.808 8.98611 10.7 9.07141 10.6127C9.15671 10.5256 9.27271 10.4828 9.41891 10.4845C9.49971 10.4845 9.57571 10.4945 9.64601 10.5137C9.64971 10.385 9.58451 10.3147 9.45041 10.3023C9.33621 10.2993 9.23301 10.3306 9.14141 10.3975L9.00141 10.1835C9.12811 10.0936 9.27521 10.046 9.44251 10.0409C9.57991 10.0409 9.69591 10.08 9.79001 10.1583C9.88411 10.2368 9.93231 10.3507 9.93401 10.5004V11.3644ZM9.63811 11.0659V10.7754C9.56071 10.7541 9.48301 10.7436 9.40561 10.7436C9.34411 10.7436 9.29281 10.7637 9.25231 10.8043C9.21201 10.8448 9.19241 10.8907 9.19411 10.9418C9.19411 10.9945 9.21481 11.0447 9.25621 11.0923C9.29761 11.1399 9.35371 11.1637 9.42401 11.1637C9.49971 11.1637 9.57121 11.1311 9.63811 11.0659ZM10.531 11.3644H10.2458V9.7078L10.531 9.5653V11.3644ZM11.8678 10.836H11.107C11.107 10.9188 11.1288 10.9871 11.173 11.0407C11.217 11.0945 11.2742 11.1203 11.3445 11.1186C11.4432 11.1226 11.5191 11.079 11.5719 10.9894L11.8227 11.0923C11.7348 11.2896 11.5772 11.3908 11.3499 11.3962C11.1897 11.3962 11.0608 11.3372 10.963 11.219C10.8652 11.1011 10.8161 10.9321 10.8161 10.7119C10.8161 10.5305 10.8635 10.3731 10.9576 10.2402C11.052 10.1072 11.1827 10.0409 11.3499 10.0409C11.5067 10.0409 11.6322 10.1024 11.7263 10.2257C11.8207 10.349 11.8678 10.5526 11.8678 10.836ZM11.5852 10.5772C11.5869 10.5032 11.5662 10.4389 11.5231 10.3842C11.4797 10.3298 11.4222 10.3023 11.3499 10.3023C11.2725 10.3003 11.2107 10.3292 11.1651 10.3882C11.1192 10.4471 11.0982 10.5103 11.1016 10.5772H11.5852ZM13.873 11.3644H12.774V9.59451H13.8175V9.8745H13.0541V10.3102H13.5691V10.5957H13.0541V11.079H13.873V11.3644ZM14.1134 10.0568H14.3884V10.1387C14.4657 10.0735 14.5689 10.0409 14.6973 10.0409C14.847 10.0409 14.959 10.0919 15.033 10.194C15.1069 10.2963 15.1438 10.4151 15.1438 10.5506V11.3644H14.8717V10.556C14.8757 10.4891 14.8532 10.4287 14.8056 10.3751C14.7583 10.3213 14.6982 10.2963 14.6262 10.2997C14.5502 10.2997 14.4927 10.3218 14.453 10.3658C14.4133 10.4097 14.3935 10.4732 14.3935 10.556V11.3644H14.1134V10.0568ZM15.3553 10.7119C15.3553 10.5305 15.3896 10.3833 15.4581 10.2708C15.5497 10.1174 15.6951 10.0409 15.8941 10.0409C16.1495 10.0409 16.3134 10.1492 16.3856 10.3658L16.124 10.4715C16.0852 10.3587 16.0078 10.3031 15.8916 10.3051C15.7963 10.3051 15.7277 10.3561 15.6855 10.4582C15.6554 10.5305 15.6404 10.6149 15.6404 10.7119C15.6404 10.8088 15.6554 10.8933 15.6855 10.9656C15.7277 11.0676 15.7963 11.1186 15.8916 11.1186C16.0078 11.1206 16.0852 11.0651 16.124 10.9522L16.3856 11.058C16.3134 11.2745 16.1495 11.3828 15.8941 11.3828C15.6951 11.3828 15.5497 11.3063 15.4581 11.1529C15.3896 11.0404 15.3553 10.8933 15.3553 10.7119ZM17.6088 11.3644H17.3367V11.3222C17.2681 11.3715 17.1913 11.397 17.1068 11.3987C16.9659 11.3967 16.8491 11.357 16.7567 11.2785C16.6643 11.2003 16.6181 11.086 16.6181 10.9364C16.6181 10.808 16.6609 10.7 16.7462 10.6127C16.8315 10.5256 16.9475 10.4828 17.0937 10.4845C17.1745 10.4845 17.2505 10.4945 17.3208 10.5137C17.3248 10.385 17.2593 10.3147 17.1252 10.3023C17.011 10.2993 16.9078 10.3306 16.8162 10.3975L16.6762 10.1835C16.8029 10.0936 16.95 10.046 17.1173 10.0409C17.2547 10.0409 17.3707 10.08 17.4648 10.1583C17.5589 10.2368 17.6071 10.3507 17.6088 10.5004V11.3644ZM17.3129 11.0659V10.7754C17.2355 10.7541 17.1578 10.7436 17.0804 10.7436C17.0189 10.7436 16.9676 10.7637 16.9271 10.8043C16.8868 10.8448 16.8673 10.8907 16.869 10.9418C16.869 10.9945 16.8896 11.0447 16.931 11.0923C16.9724 11.1399 17.0285 11.1637 17.0988 11.1637C17.1745 11.1637 17.246 11.1311 17.3129 11.0659ZM17.8517 10.0568H18.1267V10.1387C18.2041 10.0735 18.3073 10.0409 18.4357 10.0409C18.5853 10.0409 18.6973 10.0919 18.7713 10.194C18.8453 10.2963 18.8821 10.4151 18.8821 10.5506V11.3644H18.61V10.556C18.614 10.4891 18.5916 10.4287 18.5439 10.3751C18.4966 10.3213 18.4365 10.2963 18.3645 10.2997C18.2885 10.2997 18.231 10.3218 18.1913 10.3658C18.1516 10.4097 18.1318 10.4732 18.1318 10.556V11.3644H17.8517V10.0568ZM19.7382 11.0818L19.6616 11.3619C19.6174 11.3845 19.5664 11.3962 19.5083 11.3962C19.4414 11.3962 19.3807 11.3653 19.326 11.3037C19.2713 11.242 19.2441 11.1592 19.2441 11.0554V10.334H19.0564V10.0727H19.2441V9.69991L19.5162 9.5653V10.0727H19.7407V10.3289H19.5162V11.0237C19.5162 11.094 19.5426 11.1311 19.5956 11.1345C19.6395 11.1365 19.6872 11.1186 19.7382 11.0818ZM20.9245 11.3644H20.6524V11.3222C20.5838 11.3715 20.5069 11.397 20.4225 11.3987C20.2816 11.3967 20.1648 11.357 20.0724 11.2785C19.98 11.2003 19.9338 11.086 19.9338 10.9364C19.9338 10.808 19.9766 10.7 20.0619 10.6127C20.1472 10.5256 20.2632 10.4828 20.4094 10.4845C20.4902 10.4845 20.5662 10.4945 20.6365 10.5137C20.6405 10.385 20.575 10.3147 20.4409 10.3023C20.3267 10.2993 20.2235 10.3306 20.1319 10.3975L19.9919 10.1835C20.1186 10.0936 20.2657 10.046 20.433 10.0409C20.5704 10.0409 20.6864 10.08 20.7805 10.1583C20.8746 10.2368 20.9228 10.3507 20.9245 10.5004V11.3644ZM20.6285 11.0659V10.7754C20.5512 10.7541 20.4735 10.7436 20.3961 10.7436C20.3346 10.7436 20.2833 10.7637 20.2427 10.8043C20.2025 10.8448 20.1829 10.8907 20.1846 10.9418C20.1846 10.9945 20.2053 11.0447 20.2467 11.0923C20.2881 11.1399 20.3442 11.1637 20.4145 11.1637C20.4902 11.1637 20.5616 11.1311 20.6285 11.0659ZM21.7224 11.3962C21.3701 11.3962 21.1941 11.1768 21.1941 10.7382C21.1941 10.2804 21.3718 10.048 21.7275 10.0409C21.8333 10.0429 21.9143 10.0735 21.9707 10.1333V9.70531L22.2508 9.5653V11.3644H21.9707V11.3196C21.8968 11.3706 21.814 11.3962 21.7224 11.3962ZM21.4687 10.7357C21.4707 11.0087 21.5541 11.1461 21.7196 11.1478C21.8182 11.1498 21.9002 11.1082 21.9654 11.0237V10.4423C21.9143 10.3561 21.835 10.313 21.7275 10.313C21.5549 10.3235 21.4687 10.4644 21.4687 10.7357ZM23.5584 10.7173C23.5564 10.895 23.5216 11.0404 23.453 11.1529C23.3614 11.3063 23.2169 11.3874 23.0196 11.3962C22.8223 11.3872 22.678 11.3063 22.5864 11.1529C22.5176 11.0404 22.4824 10.895 22.4807 10.7173C22.4827 10.5322 22.5176 10.3833 22.5864 10.2708C22.6797 10.1228 22.824 10.046 23.0196 10.0409C23.2152 10.0459 23.3594 10.1228 23.453 10.2708C23.5216 10.3833 23.5567 10.5322 23.5584 10.7173ZM23.017 11.1161C23.1191 11.1161 23.1939 11.0659 23.2415 10.9656C23.2733 10.895 23.2891 10.8131 23.2891 10.7198C23.2891 10.6212 23.2733 10.5367 23.2415 10.4661C23.1956 10.3658 23.1208 10.3156 23.017 10.3156C22.9167 10.3156 22.8435 10.3658 22.7976 10.4661C22.7659 10.5367 22.7503 10.6212 22.7503 10.7198C22.7503 10.8131 22.7659 10.895 22.7976 10.9656C22.8506 11.0659 22.9238 11.1161 23.017 11.1161ZM6.40661 14.2889H6.11061L5.93631 13.7923H5.38411L5.20981 14.2889H4.91101L5.51871 12.519H5.79881L6.40661 14.2889ZM5.83571 13.5068L5.66131 13.0102L5.48191 13.5068H5.83571ZM7.74591 12.9972L7.24391 14.2889H6.99561L6.49901 12.9972H6.79751L7.11981 13.8663L7.43161 12.9972H7.74591ZM8.20321 14.1648C8.20321 14.2053 8.18901 14.239 8.16091 14.2665C8.13261 14.2937 8.09911 14.3073 8.06061 14.3073C8.02341 14.3073 7.99061 14.2929 7.96141 14.2637C7.93241 14.2348 7.91771 14.2016 7.91771 14.1648C7.91771 14.1276 7.93241 14.0947 7.96141 14.0655C7.99061 14.0366 8.02341 14.0222 8.06061 14.0222C8.09741 14.0222 8.13061 14.0366 8.15951 14.0655C8.18871 14.0947 8.20321 14.1276 8.20321 14.1648ZM9.79111 14.038C9.92151 14.036 10.0156 13.9745 10.0737 13.8529L10.3354 13.9825C10.2279 14.2008 10.0465 14.3127 9.79111 14.3181C9.58331 14.3181 9.42351 14.2379 9.31151 14.0774C9.19981 13.9173 9.14401 13.6928 9.14401 13.4039C9.14401 13.1151 9.19981 12.8906 9.31151 12.7301C9.42351 12.57 9.58331 12.4898 9.79111 12.4898C10.0465 12.4948 10.2279 12.6068 10.3354 12.8254L10.0737 12.9546C10.0156 12.8333 9.92151 12.7715 9.79111 12.7698C9.66781 12.7698 9.57801 12.8285 9.52161 12.9456C9.46541 13.0626 9.43711 13.2154 9.43711 13.4039C9.43711 13.5924 9.46541 13.7452 9.52161 13.8623C9.57801 13.9794 9.66781 14.038 9.79111 14.038ZM10.885 14.1648C10.885 14.2053 10.8708 14.239 10.8428 14.2665C10.8144 14.2937 10.781 14.3073 10.7424 14.3073C10.7053 14.3073 10.6724 14.2929 10.6432 14.2637C10.6143 14.2348 10.5996 14.2016 10.5996 14.1648C10.5996 14.1276 10.6143 14.0947 10.6432 14.0655C10.6724 14.0366 10.7053 14.0222 10.7424 14.0222C10.7793 14.0222 10.8124 14.0366 10.8414 14.0655C10.8706 14.0947 10.885 14.1276 10.885 14.1648ZM12.9194 14.2889H11.8204V12.519H12.1005V14.0035H12.9194V14.2889ZM13.5139 12.6323C13.5139 12.6729 13.5 12.7069 13.4716 12.7341C13.4436 12.7613 13.4101 12.7752 13.3713 12.7752C13.3344 12.7752 13.3013 12.7605 13.2724 12.7316C13.2432 12.7024 13.2287 12.6695 13.2287 12.6323C13.2287 12.5955 13.2432 12.5623 13.2724 12.5334C13.3013 12.5042 13.3344 12.4898 13.3713 12.4898C13.4084 12.4898 13.4413 12.5042 13.4705 12.5334C13.4994 12.5623 13.5139 12.5955 13.5139 12.6323ZM13.5169 14.2889H13.2289V12.9972H13.5169V14.2889ZM13.8072 12.9813H14.0821V13.0632C14.1595 12.998 14.2627 12.9654 14.3911 12.9654C14.5408 12.9654 14.6527 13.0164 14.7267 13.1185C14.8007 13.2208 14.8376 13.3396 14.8376 13.4751V14.2889H14.5654V13.4805C14.5694 13.4136 14.547 13.3532 14.4994 13.2996C14.4521 13.2458 14.392 13.2208 14.32 13.2242C14.244 13.2242 14.1864 13.2463 14.1468 13.2903C14.1071 13.3342 14.0872 13.3977 14.0872 13.4805V14.2889H13.8072V12.9813ZM15.6171 14.3207C15.2647 14.3207 15.0887 14.1013 15.0887 13.6627C15.0887 13.2049 15.2664 12.9725 15.6222 12.9654C15.7279 12.9674 15.809 12.998 15.8654 13.0578V12.6298L16.1455 12.4898V14.2889H15.8654V14.2441C15.7914 14.2951 15.7086 14.3207 15.6171 14.3207ZM15.3634 13.6602C15.3654 13.9332 15.4487 14.0706 15.6143 14.0723C15.7129 14.0743 15.7948 14.0327 15.86 13.9482V13.3668C15.809 13.2806 15.7296 13.2375 15.6222 13.2375C15.4496 13.248 15.3634 13.3889 15.3634 13.6602ZM17.4401 13.7605H16.6792C16.6792 13.8433 16.7011 13.9116 16.7453 13.9652C16.7892 14.0191 16.8465 14.0448 16.9168 14.0431C17.0154 14.0471 17.0914 14.0035 17.1441 13.9139L17.395 14.0168C17.3071 14.2141 17.1495 14.3153 16.9222 14.3207C16.762 14.3207 16.633 14.2617 16.5352 14.1435C16.4374 14.0256 16.3884 13.8566 16.3884 13.6364C16.3884 13.455 16.4357 13.2976 16.5298 13.1647C16.6242 13.0317 16.7549 12.9654 16.9222 12.9654C17.0789 12.9654 17.2045 13.0269 17.2986 13.1502C17.393 13.2735 17.4401 13.4771 17.4401 13.7605ZM17.1574 13.5017C17.1594 13.4277 17.1384 13.3634 17.0954 13.3087C17.052 13.2543 16.9944 13.2268 16.9222 13.2268C16.8448 13.2248 16.783 13.2537 16.7373 13.3127C16.6914 13.3716 16.6704 13.4348 16.6738 13.5017H17.1574ZM17.6512 12.9813H17.9262V13.0632C18.0036 12.998 18.1068 12.9654 18.2352 12.9654C18.3848 12.9654 18.4968 13.0164 18.5708 13.1185C18.6448 13.2208 18.6816 13.3396 18.6816 13.4751V14.2889H18.4095V13.4805C18.4135 13.4136 18.3911 13.3532 18.3435 13.2996C18.2961 13.2458 18.236 13.2208 18.164 13.2242C18.0881 13.2242 18.0305 13.2463 17.9908 13.2903C17.9511 13.3342 17.9313 13.3977 17.9313 13.4805V14.2889H17.651L17.6512 12.9813ZM19.4612 14.3207C19.3696 14.3207 19.2868 14.2951 19.2128 14.2441V14.2889H18.9328V12.6298L19.2128 12.4898V13.0578C19.269 12.998 19.35 12.9671 19.4558 12.9654C19.8115 12.9724 19.9895 13.2049 19.9895 13.6627C19.9895 14.1013 19.8132 14.3207 19.4612 14.3207ZM19.7146 13.6602C19.7146 13.3889 19.6284 13.248 19.4558 13.2375C19.3483 13.2375 19.269 13.2806 19.2179 13.3668V13.9482C19.2831 14.0327 19.3651 14.074 19.4637 14.0723C19.6292 14.0703 19.7129 13.9332 19.7146 13.6602ZM21.2841 13.7605H20.5233C20.5233 13.8433 20.5451 13.9116 20.5893 13.9652C20.6333 14.0191 20.6905 14.0448 20.7608 14.0431C20.8595 14.0471 20.9355 14.0035 20.9882 13.9139L21.239 14.0168C21.1512 14.2141 20.9936 14.3153 20.7662 14.3207C20.6061 14.3207 20.4771 14.2617 20.3793 14.1435C20.2815 14.0256 20.2325 13.8566 20.2325 13.6364C20.2325 13.455 20.2798 13.2976 20.3739 13.1647C20.4683 13.0317 20.599 12.9654 20.7662 12.9654C20.923 12.9654 21.0486 13.0269 21.1427 13.1502C21.2371 13.2735 21.2841 13.4771 21.2841 13.7605ZM21.0015 13.5017C21.0035 13.4277 20.9825 13.3634 20.9394 13.3087C20.8961 13.2543 20.8385 13.2268 20.7662 13.2268C20.6888 13.2248 20.627 13.2537 20.5814 13.3127C20.5355 13.3716 20.5145 13.4348 20.5179 13.5017H21.0015ZM22.2589 13.0553L22.1665 13.3115C22.1135 13.2585 22.06 13.233 22.0052 13.2347C21.8873 13.2387 21.8247 13.3212 21.8176 13.483V14.2889H21.5324V12.9759H21.815V13.0709C21.8627 13.0006 21.9313 12.9654 22.0211 12.9654C22.111 12.9674 22.1903 12.9972 22.2589 13.0553ZM22.9775 14.3207C22.6252 14.3207 22.4492 14.1013 22.4492 13.6627C22.4492 13.2049 22.6269 12.9725 22.9826 12.9654C23.0884 12.9674 23.1694 12.998 23.2258 13.0578V12.9759H23.5059V14.2441C23.4934 14.5891 23.3358 14.8173 23.0328 14.9281L22.9166 14.6957C23.1281 14.6112 23.2309 14.4607 23.2258 14.2441C23.1519 14.2951 23.0691 14.3207 22.9775 14.3207ZM22.7238 13.6602C22.7258 13.9332 22.8092 14.0706 22.9747 14.0723C23.0733 14.0743 23.1553 14.0327 23.2205 13.9482V13.3668C23.1694 13.2806 23.0901 13.2375 22.9826 13.2375C22.81 13.248 22.7238 13.3889 22.7238 13.6602Z" fill="white"/>
<path fill-rule="evenodd" clip-rule="evenodd" d="M3.7939 11.4359L2.5825 10.1615C2.5449 10.1186 2.4325 10.0579 2.3248 10.151L1.0827 11.4079C0.929099 11.6086 1.1713 11.7381 1.2669 11.6889L2.1026 11.3815L1.9992 12.9072L2.8455 12.9162L2.7672 11.3858L3.6104 11.7155C3.7852 11.7697 3.919 11.5586 3.7939 11.4359Z" fill="white"/>
</svg>
