<svg width="12" height="12" viewBox="0 0 12 12" fill="none" xmlns="http://www.w3.org/2000/svg">
<path fill-rule="evenodd" clip-rule="evenodd" d="M0.26295 5.36245L5.36254 0.26295C5.71314 -0.08765 6.28685 -0.08765 6.63725 0.26295L11.737 5.36245C12.0874 5.71315 12.0874 6.28685 11.737 6.63755L6.63725 11.737C6.28685 12.0876 5.71314 12.0876 5.36254 11.737L0.26295 6.63755C-0.08765 6.28685 -0.08765 5.71315 0.26295 5.36245Z" fill="#FFEC00"/>
<path fill-rule="evenodd" clip-rule="evenodd" d="M0.365356 5.52055L5.52055 0.365349C5.65255 0.233349 5.82635 0.167351 6.00005 0.167351C6.17375 0.167351 6.34755 0.233349 6.47955 0.365349L11.6346 5.52055C11.7666 5.65245 11.8327 5.82625 11.8327 5.99995C11.8327 6.17365 11.7666 6.34745 11.6346 6.47945L6.47955 11.6347C6.34755 11.7666 6.17375 11.8326 6.00005 11.8326C5.82635 11.8326 5.65255 11.7666 5.52055 11.6347L0.365356 6.47945C0.233456 6.34745 0.16745 6.17365 0.16745 5.99995C0.16745 5.82625 0.233456 5.65245 0.365356 5.52055ZM5.71175 0.556549L0.556656 5.71175C0.477456 5.79085 0.437851 5.89535 0.437851 5.99995C0.437851 6.10455 0.477456 6.20915 0.556656 6.28825L5.71175 11.4435C5.79095 11.5226 5.89545 11.5621 6.00005 11.5621C6.10465 11.5621 6.20915 11.5226 6.28825 11.4435L11.4435 6.28825C11.5227 6.20915 11.5621 6.10455 11.5621 5.99995C11.5621 5.89535 11.5227 5.79085 11.4435 5.71175L6.28825 0.556549C6.20915 0.477449 6.10465 0.437851 6.00005 0.437851C5.89545 0.437851 5.79095 0.477449 5.71175 0.556549Z" fill="black"/>
<path fill-rule="evenodd" clip-rule="evenodd" d="M2.04875 7.17475L3.25945 5.96395L2.04875 4.75325V7.17475Z" fill="black"/>
<path fill-rule="evenodd" clip-rule="evenodd" d="M9.95125 7.14655L8.74055 5.93575L9.95125 4.72505V7.14655Z" fill="black"/>
<path fill-rule="evenodd" clip-rule="evenodd" d="M4.90955 7.95615H5.27005V8.15885C5.39935 8.00295 5.55325 7.92475 5.73215 7.92475C5.82715 7.92475 5.90955 7.94425 5.97935 7.98335C6.04935 8.02255 6.10665 8.08145 6.15085 8.16055C6.21635 8.08145 6.28684 8.02255 6.36224 7.98335C6.43764 7.94425 6.51815 7.92475 6.60405 7.92475C6.71265 7.92475 6.80475 7.94655 6.88075 7.99105C6.95585 8.03525 7.01225 8.10015 7.04945 8.18605C7.07665 8.24905 7.08995 8.35135 7.08995 8.49305V9.44125H6.69795V8.59365C6.69795 8.44625 6.68455 8.35135 6.65735 8.30915C6.62105 8.25325 6.56495 8.22515 6.48955 8.22515C6.43485 8.22515 6.38264 8.24195 6.33424 8.27505C6.28604 8.30915 6.25065 8.35815 6.22905 8.42245C6.20775 8.48735 6.19736 8.58945 6.19736 8.72915V9.44125H5.80525V8.62855C5.80525 8.48455 5.79825 8.39105 5.78435 8.34965C5.77045 8.30765 5.74885 8.27625 5.71935 8.25555C5.69015 8.23515 5.65025 8.22515 5.60005 8.22515C5.53935 8.22515 5.48524 8.24135 5.43704 8.27365C5.38834 8.30655 5.35405 8.35335 5.33305 8.41485C5.31205 8.47635 5.30154 8.57835 5.30154 8.72065V9.44125H4.90955V7.95615Z" fill="black"/>
<path fill-rule="evenodd" clip-rule="evenodd" d="M4.13686 6.46235L4.51724 6.41615C4.52914 6.51335 4.56146 6.58765 4.61446 6.63925C4.66716 6.69085 4.73096 6.71635 4.80576 6.71635C4.88626 6.71635 4.95405 6.68545 5.00935 6.62395C5.06405 6.56235 5.09175 6.47965 5.09175 6.37475C5.09175 6.27605 5.06576 6.19755 5.01276 6.13975C4.95976 6.08225 4.89535 6.05305 4.81915 6.05305C4.76925 6.05305 4.70965 6.06325 4.63995 6.08275L4.68335 5.76445C4.78935 5.76745 4.86985 5.74375 4.92545 5.69475C4.98125 5.64625 5.00874 5.58075 5.00874 5.49935C5.00874 5.43025 4.98836 5.37555 4.94756 5.33415C4.90646 5.29305 4.85195 5.27265 4.78395 5.27265C4.71675 5.27265 4.65956 5.29585 4.61246 5.34265C4.56486 5.38945 4.53626 5.45745 4.52576 5.54705L4.16545 5.48555C4.19065 5.36075 4.22834 5.26125 4.27934 5.18645C4.32984 5.11195 4.40096 5.05355 4.49146 5.01045C4.58186 4.96815 4.68385 4.94665 4.79645 4.94665C4.98885 4.94665 5.14334 5.00815 5.25964 5.13145C5.35544 5.23265 5.40335 5.34685 5.40335 5.47415C5.40335 5.65415 5.30525 5.79875 5.10855 5.90585C5.22555 5.93115 5.31916 5.98725 5.38976 6.07515C5.45976 6.16275 5.49484 6.26845 5.49484 6.39235C5.49484 6.57205 5.42916 6.72535 5.29816 6.85205C5.16716 6.97905 5.00425 7.04225 4.80865 7.04225C4.62375 7.04225 4.47045 6.98905 4.34885 6.88185C4.22695 6.77495 4.15636 6.63555 4.13686 6.46235ZM5.81265 6.61345H6.20435V6.89405C6.20435 7.00745 6.19436 7.09755 6.17516 7.16275C6.15566 7.22855 6.11856 7.28775 6.06406 7.33965C6.00996 7.39205 5.94075 7.43265 5.85745 7.46265L5.78114 7.29965C5.85974 7.27335 5.91554 7.23765 5.94894 7.19195C5.98184 7.14665 5.99945 7.08425 6.00145 7.00515H5.81265V6.61345ZM7.19736 4.94665C7.39556 4.94665 7.55025 5.01775 7.66225 5.15955C7.79515 5.32735 7.86205 5.60625 7.86205 5.99485C7.86205 6.38325 7.79494 6.66245 7.66084 6.83225C7.55004 6.97225 7.39556 7.04225 7.19736 7.04225C6.99806 7.04225 6.83735 6.96545 6.71545 6.81215C6.59355 6.65875 6.53265 6.38465 6.53265 5.99125C6.53265 5.60485 6.59984 5.32645 6.73364 5.15665C6.84474 5.01665 6.99896 4.94665 7.19736 4.94665ZM7.19736 5.27265C7.15066 5.27265 7.10866 5.28795 7.07236 5.31825C7.03576 5.34835 7.00715 5.40275 6.98705 5.48125C6.96035 5.58275 6.94705 5.75425 6.94705 5.99485C6.94705 6.23615 6.95894 6.40135 6.98274 6.49155C7.00664 6.58165 7.03665 6.64145 7.07295 6.67155C7.10925 6.70155 7.15066 6.71635 7.19736 6.71635C7.24386 6.71635 7.28585 6.70125 7.32265 6.67065C7.35865 6.64065 7.38726 6.58625 7.40746 6.50765C7.43406 6.40705 7.44736 6.23615 7.44736 5.99485C7.44736 5.75425 7.43545 5.58895 7.41165 5.49885C7.38785 5.40895 7.35785 5.34835 7.32155 5.31825C7.28555 5.28795 7.24386 5.27265 7.19736 5.27265Z" fill="black"/>
</svg>
