<svg width="12" height="12" viewBox="0 0 12 12" fill="none" xmlns="http://www.w3.org/2000/svg">
<path fill-rule="evenodd" clip-rule="evenodd" d="M0.26295 5.36254L5.36255 0.26295C5.71315 -0.08765 6.28685 -0.08765 6.63725 0.26295L11.737 5.36254C12.0874 5.71314 12.0874 6.28685 11.737 6.63755L6.63725 11.737C6.28685 12.0877 5.71315 12.0877 5.36255 11.737L0.26295 6.63755C-0.08765 6.28685 -0.08765 5.71314 0.26295 5.36254Z" fill="#FFEC00"/>
<path fill-rule="evenodd" clip-rule="evenodd" d="M0.365448 5.52055L5.52055 0.365341C5.65255 0.233441 5.82635 0.167442 6.00005 0.167442C6.17375 0.167442 6.34755 0.233441 6.47955 0.365341L11.6347 5.52055C11.7667 5.65255 11.8326 5.82635 11.8326 6.00005C11.8326 6.17375 11.7667 6.34755 11.6347 6.47945L6.47955 11.6346C6.34755 11.7666 6.17375 11.8326 6.00005 11.8326C5.82635 11.8326 5.65255 11.7666 5.52055 11.6346L0.365448 6.47945C0.233448 6.34755 0.16745 6.17375 0.16745 6.00005C0.16745 5.82635 0.233448 5.65255 0.365448 5.52055ZM5.71175 0.556541L0.556648 5.71175C0.477448 5.79095 0.437851 5.89545 0.437851 6.00005C0.437851 6.10465 0.477448 6.20915 0.556648 6.28825L5.71175 11.4434C5.79095 11.5225 5.89545 11.5621 6.00005 11.5621C6.10465 11.5621 6.20915 11.5225 6.28835 11.4434L11.4435 6.28825C11.5227 6.20915 11.5621 6.10465 11.5621 6.00005C11.5621 5.89545 11.5227 5.79095 11.4435 5.71175L6.28835 0.556541C6.20915 0.477441 6.10465 0.437843 6.00005 0.437843C5.89545 0.437843 5.79095 0.477441 5.71175 0.556541Z" fill="black"/>
<path fill-rule="evenodd" clip-rule="evenodd" d="M5.34775 4.35284C5.38795 4.42204 5.47365 4.79174 5.50265 4.90054C5.55105 5.08194 5.60105 5.26544 5.65135 5.44934C5.68995 5.59064 5.67835 5.57554 5.62915 5.70994C5.28765 6.64274 4.98635 7.62574 4.64675 8.56384C4.58085 8.74614 4.50545 8.92104 4.59885 9.11704C4.76615 9.46784 5.21635 9.42404 5.40025 8.99374C5.47065 8.82904 5.53285 8.65484 5.59495 8.49074C5.63475 8.38534 6.34235 6.52604 6.37995 6.47534C6.41865 6.67134 6.97825 8.97274 7.02365 9.08424C7.15515 9.40714 7.69085 9.42184 7.82085 9.07244C7.88225 8.90764 7.81505 8.68204 7.78175 8.51464C7.63895 7.79724 7.48305 7.07634 7.31995 6.37214C7.26755 6.14604 6.88095 4.44484 6.85455 4.23204C6.92555 4.25644 7.32665 4.50164 7.42575 4.55874C7.62305 4.67234 7.80325 4.78384 7.99965 4.89424C8.16615 4.98774 8.44315 5.20404 8.64175 5.02254C8.72515 4.94644 8.75215 4.81374 8.68835 4.69174C8.63145 4.58294 8.55135 4.54454 8.44635 4.47234L7.88485 4.12444C7.68885 4.00864 7.51485 3.88484 7.33465 3.76514C7.14785 3.64104 6.96275 3.53804 6.77795 3.41264C6.52655 3.24214 6.50165 3.16374 6.10685 3.22084C5.94355 3.24444 5.43085 3.29154 5.31645 3.34124C5.17445 3.40294 4.88945 3.78374 4.76865 3.92764L4.51115 4.23044C4.48085 4.27034 4.49325 4.26284 4.43555 4.27904C4.19685 4.34594 3.96055 4.40754 3.72265 4.47534C3.60095 4.50994 3.46705 4.53694 3.40975 4.61134C3.33345 4.71054 3.33475 4.86864 3.40365 4.96824C3.52205 5.13944 3.91955 4.99764 4.12255 4.95244C4.37455 4.89644 4.61805 4.84644 4.87005 4.78904C5.15185 4.72494 5.06465 4.69654 5.28475 4.41864L5.34775 4.35284Z" fill="black"/>
<path fill-rule="evenodd" clip-rule="evenodd" d="M8.45905 9.15324C8.49345 9.14224 8.46285 9.15624 8.48705 9.14044L9.11135 8.52174L8.20875 6.00784L7.58635 6.00704L8.45905 9.15324Z" fill="black"/>
<path fill-rule="evenodd" clip-rule="evenodd" d="M2.86055 8.43005L3.48035 9.05064C3.51365 9.00324 3.94885 7.10135 4.03135 6.76395C4.06255 6.63645 4.09055 6.51094 4.12115 6.38204C4.14705 6.27264 4.19545 6.11245 4.20625 6.00935L3.56155 6.00735L2.86055 8.43005Z" fill="black"/>
<path fill-rule="evenodd" clip-rule="evenodd" d="M6.51876 9.99214L7.48416 9.99155L7.41286 9.43214C7.11366 9.36204 6.98986 9.28055 6.91716 8.99045L6.44486 7.12115C6.42336 7.03645 6.35696 6.81815 6.35156 6.75445C6.33696 6.96595 6.37636 7.31955 6.38696 7.54585C6.39896 7.80325 6.49686 9.92884 6.51876 9.99214Z" fill="black"/>
<path fill-rule="evenodd" clip-rule="evenodd" d="M9.77525 7.84315L10.2984 7.32565L9.51735 6.00665L8.98065 6.00714L9.77525 7.84315Z" fill="black"/>
<path fill-rule="evenodd" clip-rule="evenodd" d="M1.70175 7.27194L2.22405 7.79395L2.91875 6.00925L2.32345 6.00725C2.27685 6.07515 2.20885 6.22984 2.16375 6.31834C2.11015 6.42344 2.06025 6.53215 2.00905 6.63715L1.70175 7.27194Z" fill="black"/>
<path fill-rule="evenodd" clip-rule="evenodd" d="M5.64346 2.02015C5.37046 2.07715 5.14246 2.33945 5.19906 2.67545C5.24636 2.95595 5.52506 3.19475 5.86656 3.13135C6.14276 3.08005 6.37366 2.80405 6.31316 2.46975C6.26296 2.19195 5.97976 1.94995 5.64346 2.02015Z" fill="black"/>
<path fill-rule="evenodd" clip-rule="evenodd" d="M4.72006 8.11034C4.73326 8.09764 4.72406 8.11535 4.73956 8.08475L4.91546 7.58704C4.97796 7.40954 5.03896 7.23754 5.10146 7.06264C5.15226 6.92024 5.45716 6.08075 5.46696 6.00745L4.87996 6.00694L4.72006 8.11034Z" fill="black"/>
<path fill-rule="evenodd" clip-rule="evenodd" d="M4.59526 9.27155L4.52786 9.97254L5.47176 9.98254L5.47266 9.05405C5.44076 9.08705 5.43016 9.12404 5.40616 9.16164C5.24076 9.42104 4.95416 9.52324 4.69586 9.34384C4.65946 9.31844 4.62516 9.28435 4.59526 9.27155Z" fill="black"/>
</svg>
