<svg width="9" height="12" viewBox="0 0 9 12" fill="none" xmlns="http://www.w3.org/2000/svg">
<path fill-rule="evenodd" clip-rule="evenodd" d="M0.428299 7.62939e-06H8.1431C8.3789 7.62939e-06 8.5714 0.192507 8.5714 0.428307V11.5716C8.5714 11.8074 8.3789 11.9999 8.1431 11.9999H0.428299C0.192499 11.9999 0 11.8074 0 11.5716V0.428307C0 0.192507 0.192499 7.62939e-06 0.428299 7.62939e-06Z" fill="white"/>
<path fill-rule="evenodd" clip-rule="evenodd" d="M0.554199 0.299904H8.01691C8.15701 0.299904 8.27119 0.414107 8.27119 0.554207V11.4454C8.27119 11.5855 8.15701 11.6997 8.01691 11.6997H0.554199C0.414099 11.6997 0.299896 11.5855 0.299896 11.4454V0.554207C0.299896 0.414107 0.414099 0.299904 0.554199 0.299904Z" fill="white"/>
<path fill-rule="evenodd" clip-rule="evenodd" d="M0.554398 0.171303H8.017C8.1224 0.171303 8.2182 0.214299 8.2876 0.283699C8.3569 0.352999 8.39999 0.448798 8.39999 0.554298V11.4453C8.39999 11.5508 8.3569 11.6466 8.2876 11.7159C8.2182 11.7853 8.1224 11.8283 8.017 11.8283H0.554398C0.448898 11.8283 0.353198 11.7853 0.283798 11.7159C0.214498 11.6466 0.171402 11.5508 0.171402 11.4453V0.554298C0.171402 0.448798 0.214498 0.352999 0.283798 0.283699C0.353198 0.214299 0.448898 0.171303 0.554398 0.171303ZM8.017 0.428398H0.554398C0.519898 0.428398 0.488507 0.442608 0.465607 0.465508C0.442707 0.488308 0.428497 0.519798 0.428497 0.554298V11.4453C0.428497 11.4798 0.442707 11.5112 0.465607 11.5341C0.488507 11.557 0.519898 11.5712 0.554398 11.5712H8.017C8.0514 11.5712 8.0829 11.557 8.1057 11.5341C8.1286 11.5112 8.14281 11.4798 8.14281 11.4453V0.554298C8.14281 0.519798 8.1286 0.488308 8.1057 0.465508C8.0829 0.442608 8.0514 0.428398 8.017 0.428398Z" fill="white"/>
<path fill-rule="evenodd" clip-rule="evenodd" d="M1.3257 1.3382H7.24561V7.4333H1.3257V1.3382Z" fill="white"/>
<path fill-rule="evenodd" clip-rule="evenodd" d="M2.1024 6.5735L2.6192 6.57751L2.8477 6.29301L5.7097 6.28271L5.92799 6.5711L6.4689 6.57611C6.357 6.34291 5.7596 5.7795 5.5531 5.5635C5.5062 5.5145 5.23889 5.2406 5.24809 5.1808C5.25409 5.1416 5.38479 5.0809 5.41949 5.0601C5.48219 5.0221 5.73349 4.87271 5.76959 4.83691C5.86209 4.74541 5.85011 4.534 5.85201 4.4098C5.85701 4.1033 5.846 3.7967 5.8371 3.4904L5.83659 3.4709C5.80909 2.5706 5.6259 2.32561 4.7643 2.22441C4.1435 2.15151 3.1587 2.1798 2.9012 2.6367C2.683 3.0389 2.7268 4.1019 2.7294 4.5773C2.7364 4.8543 2.8623 4.86241 3.0762 4.99481C3.1364 5.03211 3.3423 5.15021 3.3185 5.23491C3.3019 5.29391 3.13211 5.4565 3.08051 5.5124C2.87491 5.7355 2.66929 5.9586 2.46359 6.1817L2.4485 6.19801C2.3432 6.31231 2.23779 6.42661 2.13249 6.54091L2.1024 6.5735ZM3.6676 5.23941C3.5673 5.23991 3.58819 5.2374 3.53149 5.3202C3.49199 5.378 3.48169 5.4068 3.46179 5.4734C3.55429 5.4877 3.7682 5.47941 3.873 5.47941C4.2675 5.47941 4.6675 5.48441 5.0614 5.47951C5.143 5.47851 5.1302 5.48951 5.0936 5.41971C5.0807 5.39541 5.0004 5.2553 4.9852 5.2469C4.9664 5.2364 3.794 5.23941 3.6676 5.23941ZM3.0752 6.02261L5.51089 6.02461C5.46239 5.88541 5.37221 5.78541 5.28751 5.66771C5.26631 5.63841 5.2664 5.64981 5.231 5.64941C5.1209 5.64841 5.0104 5.64841 4.9003 5.64741C4.7606 5.64671 4.62089 5.6464 4.48129 5.6454C4.37859 5.6449 3.3169 5.63841 3.3127 5.64041C3.3004 5.64641 3.1513 5.8516 3.1368 5.876C3.1068 5.927 3.0909 5.96561 3.0752 6.02261ZM4.4055 3.04191L5.46179 3.3262C5.48699 2.9833 5.45781 2.72201 5.21291 2.61961C5.03451 2.54521 4.62469 2.4742 4.41119 2.4792L4.4055 3.04191ZM3.1098 3.2991C3.2845 3.2931 3.9928 3.12071 4.1568 3.04701L4.1754 2.48791C3.9377 2.47791 3.5718 2.5407 3.3813 2.6127C3.1056 2.7168 3.1106 2.9418 3.1098 3.2991ZM4.2921 3.4709C4.4081 3.4709 4.5022 3.56501 4.5022 3.68101C4.5022 3.79701 4.4081 3.891 4.2921 3.891C4.1761 3.891 4.082 3.79701 4.082 3.68101C4.082 3.56501 4.1761 3.4709 4.2921 3.4709ZM5.10519 4.3459C5.22119 4.3459 5.3152 4.43991 5.3152 4.55591C5.3152 4.67191 5.22119 4.766 5.10519 4.766C4.98909 4.766 4.8951 4.67191 4.8951 4.55591C4.8951 4.43991 4.98909 4.3459 5.10519 4.3459ZM3.46179 4.3459C3.57789 4.3459 3.67191 4.43991 3.67191 4.55591C3.67191 4.67191 3.57789 4.766 3.46179 4.766C3.34579 4.766 3.2518 4.67191 3.2518 4.55591C3.2518 4.43991 3.34579 4.3459 3.46179 4.3459Z" fill="black"/>
</svg>
