<svg width="12" height="12" viewBox="0 0 12 12" fill="none" xmlns="http://www.w3.org/2000/svg">
<path fill-rule="evenodd" clip-rule="evenodd" d="M0.26295 5.36245L5.36255 0.26295C5.71315 -0.08765 6.28686 -0.08765 6.63726 0.26295L11.7371 5.36245C12.0875 5.71315 12.0875 6.28685 11.7371 6.63755L6.63726 11.7371C6.28686 12.0877 5.71315 12.0877 5.36255 11.7371L0.26295 6.63755C-0.08765 6.28685 -0.08765 5.71315 0.26295 5.36245Z" fill="#FFEC00"/>
<path fill-rule="evenodd" clip-rule="evenodd" d="M0.365448 5.52055L5.52055 0.365349C5.65255 0.233349 5.82635 0.16745 6.00005 0.16745C6.17375 0.16745 6.34755 0.233349 6.47955 0.365349L11.6347 5.52055C11.7667 5.65255 11.8326 5.82635 11.8326 6.00005C11.8326 6.17375 11.7667 6.34755 11.6347 6.47945L6.47955 11.6346C6.34755 11.7666 6.17375 11.8325 6.00005 11.8325C5.82635 11.8325 5.65255 11.7666 5.52055 11.6346L0.365448 6.47945C0.233448 6.34755 0.16745 6.17375 0.16745 6.00005C0.16745 5.82635 0.233448 5.65255 0.365448 5.52055ZM5.71175 0.556549L0.556648 5.71175C0.477448 5.79085 0.437851 5.89545 0.437851 6.00005C0.437851 6.10465 0.477448 6.20915 0.556648 6.28825L5.71175 11.4434C5.79095 11.5225 5.89545 11.5621 6.00005 11.5621C6.10465 11.5621 6.20915 11.5225 6.28835 11.4434L11.4435 6.28825C11.5227 6.20915 11.5621 6.10465 11.5621 6.00005C11.5621 5.89545 11.5227 5.79085 11.4435 5.71175L6.28835 0.556549C6.20915 0.477449 6.10465 0.437847 6.00005 0.437847C5.89545 0.437847 5.79095 0.477449 5.71175 0.556549Z" fill="black"/>
<path fill-rule="evenodd" clip-rule="evenodd" d="M5.60206 9.93816C5.61026 9.20576 5.58156 8.81246 5.31486 8.54646C4.85906 8.09186 4.64856 8.00806 4.53756 7.35826C4.52596 6.50646 5.69886 6.32376 6.36896 5.99256C6.69176 5.83306 6.77756 5.74206 6.44596 5.48316C5.62886 4.84556 5.52746 4.61445 5.53606 3.71985C5.32966 3.80815 5.15506 3.93465 4.94876 4.02295C4.75086 4.08285 4.71836 3.95196 4.80666 3.79576C5.14566 3.25096 5.48476 2.70605 5.82376 2.16125C5.89546 2.07885 5.91536 2.00306 6.03236 2.12776C6.39346 2.67996 6.77036 3.26686 7.13146 3.81906C7.14746 3.90416 7.11686 4.00705 7.00296 3.99655C6.78186 3.89345 6.60546 3.81045 6.38436 3.70745C6.09416 4.74185 7.44046 4.79406 7.46256 5.78366C7.41076 6.63346 6.32256 6.81945 5.57036 7.17465C5.35796 7.23845 5.24136 7.43575 5.55056 7.65625C6.32666 8.20995 6.46486 9.22396 6.42696 9.93816C6.02646 9.93806 5.89826 9.93766 5.60206 9.93816Z" fill="black"/>
</svg>
