<svg width="12" height="12" viewBox="0 0 12 12" fill="none" xmlns="http://www.w3.org/2000/svg">
<path fill-rule="evenodd" clip-rule="evenodd" d="M0.263025 5.36246L5.36252 0.262958C5.71322 -0.0876424 6.28692 -0.0876424 6.63722 0.262958L11.7371 5.36246C12.0874 5.71316 12.0874 6.28686 11.7371 6.63756L6.63722 11.737C6.28692 12.0876 5.71322 12.0876 5.36252 11.737L0.263025 6.63756C-0.087675 6.28686 -0.087675 5.71316 0.263025 5.36246Z" fill="#FFEC00"/>
<path fill-rule="evenodd" clip-rule="evenodd" d="M0.365417 5.52056L5.52062 0.365364C5.65252 0.233364 5.82632 0.167458 6.00002 0.167458C6.17372 0.167458 6.34752 0.233364 6.47952 0.365364L11.6347 5.52056C11.7666 5.65246 11.8326 5.82626 11.8326 5.99996C11.8326 6.17366 11.7666 6.34745 11.6347 6.47945L6.47952 11.6347C6.34752 11.7667 6.17372 11.8326 6.00002 11.8326C5.82632 11.8326 5.65252 11.7666 5.52062 11.6347L0.365417 6.47945C0.233417 6.34745 0.167419 6.17366 0.167419 5.99996C0.167419 5.82626 0.233417 5.65246 0.365417 5.52056ZM5.71182 0.556557L0.556618 5.71175C0.477518 5.79085 0.43792 5.89536 0.43792 5.99996C0.43792 6.10466 0.477518 6.20916 0.556618 6.28826L5.71182 11.4435C5.79092 11.5226 5.89542 11.5622 6.00002 11.5622C6.10462 11.5622 6.20912 11.5226 6.28832 11.4435L11.4435 6.28826C11.5226 6.20916 11.5622 6.10466 11.5622 5.99996C11.5622 5.89536 11.5226 5.79085 11.4435 5.71175L6.28832 0.556557C6.20912 0.477457 6.10462 0.437859 6.00002 0.437859C5.89542 0.437859 5.79092 0.477457 5.71182 0.556557Z" fill="black"/>
<path fill-rule="evenodd" clip-rule="evenodd" d="M4.19893 4.03275L4.19863 2.58736H4.75453C4.89393 2.58736 4.99543 2.60046 5.05893 2.62626C5.12243 2.65226 5.17293 2.69826 5.21093 2.76456C5.24913 2.83116 5.26813 2.90685 5.26813 2.99245C5.26813 3.10105 5.23953 3.19056 5.18193 3.26116C5.12473 3.33176 5.03883 3.37626 4.92463 3.39466C4.98123 3.43156 5.02833 3.47176 5.06493 3.51606C5.10203 3.55996 5.15193 3.63846 5.21453 3.75076L5.37383 4.03275H5.05893L4.86933 3.71726C4.80183 3.60506 4.75503 3.53446 4.72983 3.50526C4.70493 3.47636 4.67853 3.45595 4.65043 3.44515C4.62213 3.43465 4.57793 3.42925 4.51693 3.42925H4.46342L4.46363 4.03275H4.19893ZM4.46342 3.19906H4.65873C4.78513 3.19906 4.86393 3.19307 4.89543 3.18127C4.92683 3.16937 4.95183 3.14896 4.96963 3.12006C4.98753 3.09106 4.99633 3.05456 4.99603 3.01116C4.99603 2.96236 4.98443 2.92326 4.96113 2.89326C4.93733 2.86316 4.90443 2.84446 4.86193 2.83656C4.84013 2.83356 4.77603 2.83157 4.66923 2.83157H4.46342V3.19906ZM5.51643 2.58736H5.78123V3.37057C5.78153 3.49507 5.78463 3.57555 5.79113 3.61205C5.80223 3.67135 5.82883 3.71927 5.87083 3.75497C5.91303 3.79097 5.97053 3.80856 6.04343 3.80856C6.11743 3.80856 6.17353 3.79186 6.21123 3.75776C6.24863 3.72376 6.27133 3.68236 6.27893 3.63306C6.28633 3.58346 6.29063 3.50187 6.29063 3.38737L6.29033 2.58736H6.55482L6.55503 3.34736C6.55503 3.52116 6.54803 3.64385 6.53383 3.71555C6.51933 3.78695 6.49322 3.84765 6.45502 3.89725C6.41702 3.94655 6.36603 3.98576 6.30223 4.01496C6.23783 4.04406 6.15453 4.05917 6.05163 4.05917C5.92693 4.05917 5.83283 4.04325 5.76873 4.01125C5.70443 3.97915 5.65363 3.93776 5.61623 3.88676C5.57883 3.83546 5.55443 3.78246 5.54253 3.72636C5.52523 3.64356 5.51673 3.52116 5.51673 3.35926L5.51643 2.58736ZM8.01183 4.03275H7.72663L7.61383 3.70367H7.08973L6.98112 4.03275H6.70132L7.20843 2.58736H7.48793L8.01183 4.03275ZM7.52793 3.45936L7.34653 2.92446L7.16993 3.45936H7.52793ZM4.12973 5.82006L4.38683 5.79166C4.40273 5.88696 4.43363 5.95667 4.48073 6.00117C4.52803 6.04597 4.59152 6.06837 4.67142 6.06837C4.75592 6.06837 4.82003 6.04847 4.86283 6.00877C4.90563 5.96917 4.92743 5.92266 4.92743 5.86936C4.92743 5.83506 4.91803 5.80617 4.90023 5.78207C4.88233 5.75797 4.85063 5.73726 4.80553 5.71966C4.77493 5.70746 4.70493 5.68676 4.59553 5.65646C4.45463 5.61736 4.35563 5.56976 4.29873 5.51276C4.21873 5.43306 4.17903 5.33586 4.17903 5.22106C4.17903 5.14736 4.19783 5.07786 4.23523 5.01386C4.27293 4.94946 4.32703 4.90077 4.39793 4.86697C4.46873 4.83327 4.55383 4.81657 4.65443 4.81657C4.81743 4.81657 4.94073 4.85657 5.02323 4.93707C5.10603 5.01757 5.14913 5.12437 5.15363 5.25877L4.88882 5.26876C4.87752 5.19426 4.85343 5.14066 4.81683 5.10806C4.78003 5.07546 4.72443 5.05906 4.65103 5.05906C4.57483 5.05906 4.51523 5.07626 4.47243 5.11146C4.44473 5.13386 4.43083 5.16386 4.43083 5.20156C4.43083 5.23586 4.44383 5.26507 4.47023 5.28947C4.50333 5.32067 4.58353 5.35297 4.71173 5.38667C4.83983 5.41987 4.93453 5.45506 4.99573 5.49076C5.05693 5.52676 5.10512 5.57547 5.13972 5.63757C5.17462 5.69997 5.19193 5.77676 5.19193 5.86776C5.19193 5.95046 5.17153 6.02816 5.12953 6.10076C5.08783 6.17306 5.02923 6.22686 4.95293 6.26176C4.87723 6.29716 4.78233 6.31477 4.66893 6.31477C4.50363 6.31477 4.37663 6.27256 4.28853 6.18806C4.19973 6.10416 4.14703 5.98106 4.12973 5.82006ZM5.41643 6.28826L5.41613 4.84296H6.38353V5.08695H5.68083V5.40816H6.33393L6.33423 5.65246H5.68083L5.68113 6.04395H6.40913V6.28826H5.41643ZM6.62993 6.28826L6.62963 4.84296H7.02592L7.26033 5.82876L7.49163 4.84296H7.88903V6.28826H7.64442L7.64353 5.15046L7.38623 6.28826H7.13163L6.87543 5.15046L6.87453 6.28826H6.62993ZM3.11583 8.07586L3.37323 8.04746C3.38873 8.14276 3.41963 8.21247 3.46673 8.25697C3.51403 8.30177 3.57753 8.32417 3.65753 8.32417C3.74193 8.32417 3.80603 8.30426 3.84883 8.26466C3.89163 8.22496 3.91343 8.17846 3.91343 8.12516C3.91343 8.09086 3.90413 8.06196 3.88623 8.03786C3.86843 8.01376 3.83663 7.99306 3.79183 7.97546C3.76093 7.96326 3.69093 7.94255 3.58153 7.91225C3.44063 7.87315 3.34173 7.82556 3.28473 7.76856C3.20483 7.68886 3.16513 7.59166 3.16513 7.47686C3.16513 7.40316 3.18383 7.33376 3.22123 7.26966C3.25893 7.20526 3.31313 7.15656 3.38393 7.12286C3.45483 7.08906 3.53983 7.07236 3.64053 7.07236C3.80373 7.07236 3.92683 7.11236 4.00953 7.19286C4.09233 7.27336 4.13543 7.38016 4.13963 7.51456L3.87493 7.52456C3.86353 7.45006 3.83953 7.39645 3.80293 7.36385C3.76603 7.33125 3.71083 7.31486 3.63713 7.31486C3.56113 7.31486 3.50133 7.33216 3.45853 7.36726C3.43073 7.38966 3.41683 7.41966 3.41683 7.45736C3.41683 7.49166 3.42983 7.52087 3.45623 7.54527C3.48943 7.57647 3.56993 7.60876 3.69803 7.64246C3.82613 7.67566 3.92053 7.71086 3.98183 7.74656C4.04303 7.78256 4.09123 7.83126 4.12583 7.89336C4.16063 7.95576 4.17793 8.03256 4.17793 8.12356C4.17793 8.20636 4.15753 8.28396 4.11553 8.35656C4.07393 8.42886 4.01523 8.48266 3.93923 8.51756C3.86333 8.55296 3.76833 8.57056 3.65493 8.57056C3.48973 8.57056 3.36293 8.52836 3.27453 8.44386C3.18583 8.35996 3.13333 8.23686 3.11583 8.07586ZM5.57963 8.54406H5.29453L5.18172 8.21496H4.65753L4.54903 8.54406H4.26923L4.77633 7.09876H5.05583L5.57963 8.54406ZM5.09583 7.97066L4.91443 7.43575L4.73783 7.97066H5.09583ZM5.71123 8.54406L5.71093 7.09876H5.97563V8.54406H5.71123ZM5.66893 6.96746L5.79313 6.67266H6.07203L5.82603 6.96746H5.66893ZM6.22713 7.09876H6.70843C6.81703 7.09876 6.89973 7.10776 6.95643 7.12626C7.03303 7.15116 7.09873 7.19565 7.15323 7.25945C7.20793 7.32295 7.24923 7.40115 7.27793 7.49355C7.30593 7.58575 7.32043 7.69997 7.32043 7.83517C7.32043 7.95427 7.30713 8.05655 7.28013 8.14275C7.24783 8.24785 7.20133 8.33316 7.14073 8.39816C7.09503 8.44746 7.03322 8.48597 6.95592 8.51347C6.89782 8.53387 6.82013 8.54406 6.72293 8.54406H6.22742L6.22713 7.09876ZM6.49183 7.34277L6.49213 8.29977H6.68803C6.76143 8.29977 6.81443 8.29576 6.84703 8.28616C6.88983 8.27426 6.92523 8.25416 6.95303 8.22576C6.98143 8.19746 7.00433 8.15126 7.02163 8.08656C7.03983 8.02196 7.04863 7.93356 7.04863 7.82186C7.04863 7.70986 7.03953 7.62457 7.02163 7.56477C7.00433 7.50467 6.97913 7.45846 6.94743 7.42466C6.91533 7.39126 6.87483 7.36857 6.82553 7.35667C6.78893 7.34767 6.71693 7.34277 6.60983 7.34277H6.49183ZM8.72243 8.54406H8.43723L8.32442 8.21496H7.80063L7.69173 8.54406H7.41203L7.91913 7.09876H8.19893L8.72243 8.54406ZM8.23853 7.97066L8.05713 7.43575L7.88053 7.97066H8.23853Z" fill="black"/>
</svg>
