<svg width="12" height="12" viewBox="0 0 12 12" fill="none" xmlns="http://www.w3.org/2000/svg">
<path fill-rule="evenodd" clip-rule="evenodd" d="M6 1.25C8.6228 1.25 10.7499 3.3771 10.7499 6C10.7499 8.6229 8.6228 10.7499 6 10.7499C3.3771 10.7499 1.25 8.6229 1.25 6C1.25 3.3771 3.3771 1.25 6 1.25ZM11.9999 6C11.9999 2.6869 9.3131 0 6 0C2.6868 0 0 2.6869 0 6C0 9.3131 2.6868 11.9999 6 11.9999C9.3131 11.9999 11.9999 9.3131 11.9999 6Z" fill="#FF0000"/>
<path fill-rule="evenodd" clip-rule="evenodd" d="M2.37891 6.5677V8.4999C2.37891 8.6427 2.49031 8.7541 2.63321 8.7541H3.3959C3.5215 8.7541 3.62471 8.6509 3.62471 8.5253V7.8643H5.32811C5.37231 8.03 5.68561 8.2965 5.88741 8.2965H6.03991C6.57721 8.2965 6.65651 7.8643 6.77721 7.8643H8.4297V8.5761C8.4297 8.6373 8.52111 8.7287 8.58231 8.7287H9.49751C9.57991 8.7287 9.6501 8.6182 9.6501 8.5253V6.4914C9.6501 6.4302 9.55871 6.3389 9.49751 6.3389H8.58231C8.52111 6.3389 8.4297 6.4302 8.4297 6.4914V7.2033H6.7009C6.6831 6.9887 6.32711 6.7711 6.06531 6.7711H5.96361C5.68771 6.7711 5.38351 6.9955 5.32811 7.2033H3.62471V6.5931C3.62471 6.4415 3.57281 6.3389 3.42131 6.3389H2.58231C2.45111 6.3389 2.37891 6.4447 2.37891 6.5677Z" fill="black"/>
<path fill-rule="evenodd" clip-rule="evenodd" d="M6.6335 4.927H5.4123H4.8029L6.0228 6.147L7.2429 4.9277L6.6335 4.927Z" fill="black" stroke="#1B1918" stroke-width="0.5669"/>
<path fill-rule="evenodd" clip-rule="evenodd" d="M4.83411 3.94739H5.6703C5.7539 3.94739 5.81711 3.96469 5.86081 3.99959C5.90471 4.03389 5.92651 4.08089 5.92651 4.14019C5.92651 4.19259 5.90901 4.23769 5.87471 4.27479C5.83951 4.31139 5.7874 4.32949 5.7168 4.32949H4.53731C4.45681 4.32949 4.39441 4.30739 4.34961 4.26259C4.30481 4.21759 4.28241 4.16509 4.28241 4.10419C4.28241 4.06529 4.29631 4.01399 4.32551 3.94969C4.35471 3.88529 4.3862 3.83519 4.4202 3.79799C4.5625 3.64889 4.6903 3.52109 4.8046 3.41419C4.9191 3.30789 5.00101 3.23759 5.04951 3.20419C5.13771 3.14179 5.21021 3.07859 5.26831 3.01479C5.32671 2.95189 5.3709 2.88699 5.4016 2.82059C5.4319 2.75399 5.4472 2.68879 5.4472 2.62499C5.4472 2.55589 5.43081 2.49379 5.39841 2.43909C5.36581 2.38409 5.32131 2.34219 5.26551 2.31149C5.20941 2.28119 5.14791 2.26619 5.08181 2.26619C4.94211 2.26619 4.83181 2.32829 4.75211 2.45299C4.74141 2.46889 4.72291 2.51339 4.69771 2.58559C4.67281 2.65819 4.645 2.71429 4.6132 2.75289C4.5821 2.79169 4.53561 2.81159 4.47461 2.81159C4.42131 2.81159 4.37711 2.79339 4.34201 2.75799C4.30651 2.72259 4.28901 2.67379 4.28901 2.61169C4.28901 2.53749 4.30541 2.45949 4.33891 2.37869C4.37151 2.29739 4.42131 2.22369 4.48681 2.15759C4.55261 2.09189 4.63561 2.03859 4.73681 1.99829C4.83721 1.95779 4.95601 1.93739 5.09171 1.93739C5.25471 1.93739 5.39391 1.96339 5.50931 2.01469C5.58441 2.04959 5.65041 2.09719 5.70691 2.15759C5.76381 2.21859 5.80811 2.28829 5.83891 2.36819C5.87101 2.44729 5.8866 2.52979 5.8866 2.61509C5.8866 2.74979 5.85401 2.87139 5.78851 2.98109C5.72271 3.09079 5.6555 3.17719 5.5872 3.23929C5.5189 3.30109 5.40441 3.39919 5.24371 3.53209C5.08291 3.66509 4.97241 3.76849 4.91291 3.84169C4.88711 3.87119 4.86071 3.90659 4.83411 3.94739ZM7.12191 2.60859H7.1701V2.34219C7.1701 2.27069 7.17111 2.21489 7.17511 2.17429C7.17911 2.13319 7.18931 2.09839 7.20601 2.06969C7.22301 2.03909 7.24771 2.01419 7.28001 1.99549C7.31171 1.97679 7.34711 1.96709 7.38711 1.96709C7.44241 1.96709 7.492 1.98839 7.5368 2.03029C7.5671 2.05869 7.58551 2.09299 7.59401 2.13379C7.60201 2.17429 7.6059 2.23189 7.6059 2.30669V2.60859H7.76611C7.82791 2.60859 7.87551 2.62329 7.90781 2.65279C7.94041 2.68259 7.95691 2.72089 7.95691 2.76679C7.95691 2.82659 7.9336 2.86829 7.8871 2.89209C7.8407 2.91589 7.77431 2.92749 7.68761 2.92749H7.6059V3.74129C7.6059 3.81079 7.6079 3.86439 7.6129 3.90149C7.6179 3.93859 7.63021 3.96899 7.65121 3.99219C7.67251 4.01539 7.70651 4.02709 7.75351 4.02709C7.77851 4.02709 7.8136 4.02279 7.8573 4.01349C7.9009 4.00439 7.9352 3.99959 7.9593 3.99959C7.995 3.99959 8.02681 4.01399 8.05511 4.04269C8.08381 4.07159 8.09741 4.10699 8.09741 4.14899C8.09741 4.22039 8.0591 4.27479 7.9823 4.31219C7.9055 4.35049 7.7949 4.36949 7.6506 4.36949C7.5137 4.36949 7.41051 4.34619 7.34051 4.29979C7.26991 4.25299 7.22401 4.18889 7.20221 4.10639C7.18041 4.02449 7.16961 3.91479 7.16961 3.77729V2.92749H7.11181C7.04861 2.92749 7.0004 2.91249 6.9678 2.88219C6.9343 2.85209 6.91791 2.81329 6.91791 2.76679C6.91791 2.72089 6.93551 2.68259 6.97001 2.65279C7.00491 2.62329 7.05561 2.60859 7.12191 2.60859Z" fill="black"/>
</svg>
