<svg width="12" height="12" viewBox="0 0 12 12" fill="none" xmlns="http://www.w3.org/2000/svg">
<path fill-rule="evenodd" clip-rule="evenodd" d="M0.263025 5.36253L5.36252 0.263025C5.71322 -0.087675 6.28692 -0.087675 6.63722 0.263025L11.7371 5.36253C12.0874 5.71313 12.0874 6.28693 11.7371 6.63753L6.63722 11.737C6.28692 12.0877 5.71322 12.0877 5.36252 11.737L0.263025 6.63753C-0.087675 6.28693 -0.087675 5.71313 0.263025 5.36253Z" fill="#FFEC00"/>
<path fill-rule="evenodd" clip-rule="evenodd" d="M0.365417 5.52052L5.52062 0.365425C5.65252 0.233425 5.82632 0.167427 6.00002 0.167427C6.17372 0.167427 6.34752 0.233425 6.47952 0.365425L11.6347 5.52052C11.7666 5.65252 11.8326 5.82632 11.8326 6.00002C11.8326 6.17372 11.7666 6.34752 11.6347 6.47952L6.47952 11.6346C6.34752 11.7666 6.17372 11.8326 6.00002 11.8326C5.82632 11.8326 5.65252 11.7666 5.52062 11.6346L0.365417 6.47952C0.233417 6.34752 0.167419 6.17372 0.167419 6.00002C0.167419 5.82632 0.233417 5.65252 0.365417 5.52052ZM5.71182 0.556625L0.556618 5.71172C0.477518 5.79092 0.43792 5.89542 0.43792 6.00002C0.43792 6.10462 0.477518 6.20912 0.556618 6.28832L5.71182 11.4434C5.79092 11.5226 5.89542 11.5621 6.00002 11.5621C6.10462 11.5621 6.20912 11.5226 6.28832 11.4434L11.4435 6.28832C11.5226 6.20912 11.5622 6.10462 11.5622 6.00002C11.5622 5.89542 11.5226 5.79092 11.4435 5.71172L6.28832 0.556625C6.20912 0.477425 6.10462 0.437927 6.00002 0.437927C5.89542 0.437927 5.79092 0.477425 5.71182 0.556625Z" fill="black"/>
<path fill-rule="evenodd" clip-rule="evenodd" d="M9.04203 7.34573H2.42813L9.05223 4.98862L9.04203 7.34573Z" fill="black" stroke="#1B1918" stroke-width="0.216"/>
<path fill-rule="evenodd" clip-rule="evenodd" d="M4.69193 6.51083C4.91123 6.51083 5.09013 6.33193 5.09013 6.11263C5.09013 5.89333 4.91123 5.71442 4.69193 5.71442C4.47263 5.71442 4.29373 5.89333 4.29373 6.11263C4.29373 6.33193 4.47263 6.51083 4.69193 6.51083ZM4.69483 6.25503C4.77483 6.25503 4.84013 6.18973 4.84013 6.10973C4.84013 6.02973 4.77483 5.96442 4.69483 5.96442C4.61483 5.96442 4.54953 6.02973 4.54953 6.10973C4.54953 6.18973 4.61483 6.25503 4.69483 6.25503Z" fill="black"/>
<path fill-rule="evenodd" clip-rule="evenodd" d="M7.48783 5.50533C7.70713 5.50533 7.88593 5.32642 7.88593 5.10712C7.88593 4.88782 7.70713 4.70892 7.48783 4.70892C7.26843 4.70892 7.08963 4.88782 7.08963 5.10712C7.08963 5.32642 7.26843 5.50533 7.48783 5.50533ZM7.49073 5.24953C7.57073 5.24953 7.63602 5.18423 7.63602 5.10423C7.63602 5.02423 7.57073 4.95892 7.49073 4.95892C7.41073 4.95892 7.34543 5.02423 7.34543 5.10423C7.34543 5.18423 7.41073 5.24953 7.49073 5.24953Z" fill="black"/>
<path fill-rule="evenodd" clip-rule="evenodd" d="M4.23713 6.26662C4.08723 5.66502 4.82693 5.38603 5.12063 5.94693L7.02733 5.26102C6.90903 4.62352 7.60473 4.40462 7.92833 4.93552L8.43983 4.74953L8.39333 4.61583L8.35843 4.63902L8.32933 4.26703L7.47493 3.47643L7.31792 3.45902L4.98693 4.26703L4.43473 5.15643L3.42332 5.64473L3.47563 5.97603L3.71973 6.23763L3.67323 6.25503L3.71973 6.38293L4.23713 6.26662ZM5.88793 4.71462L4.73703 5.10413L4.70213 4.98782L5.07993 4.37743L5.69613 4.15662L5.88793 4.71462ZM7.12613 4.29033L6.01003 4.67393L5.81823 4.12173L6.53323 3.87753L7.07383 4.16243L7.12613 4.29033ZM7.29473 3.62183L6.70763 3.82523L7.16683 4.05772L7.24823 4.23792L7.87593 4.03452L7.44583 3.63342L7.29473 3.62183Z" fill="black" stroke="#1B1918" stroke-width="0.216"/>
</svg>
