<svg width="12" height="12" viewBox="0 0 12 12" fill="none" xmlns="http://www.w3.org/2000/svg">
<path fill-rule="evenodd" clip-rule="evenodd" d="M0.26295 5.36253L5.36245 0.263025C5.71315 -0.087675 6.28685 -0.087675 6.63725 0.263025L11.737 5.36253C12.0873 5.71323 12.0873 6.28693 11.737 6.63753L6.63725 11.7371C6.28685 12.0877 5.71315 12.0877 5.36245 11.7371L0.26295 6.63753C-0.08765 6.28693 -0.08765 5.71323 0.26295 5.36253Z" fill="#FFEC00"/>
<path fill-rule="evenodd" clip-rule="evenodd" d="M0.365349 5.52052L5.52055 0.365425C5.65255 0.233425 5.82635 0.167427 6.00005 0.167427C6.17375 0.167427 6.34755 0.233425 6.47945 0.365425L11.6346 5.52052C11.7666 5.65252 11.8326 5.82632 11.8326 6.00002C11.8326 6.17372 11.7666 6.34752 11.6346 6.47952L6.47945 11.6347C6.34755 11.7666 6.17375 11.8326 6.00005 11.8326C5.82635 11.8326 5.65245 11.7666 5.52055 11.6347L0.365349 6.47952C0.233349 6.34752 0.16745 6.17372 0.16745 6.00002C0.16745 5.82632 0.233349 5.65252 0.365349 5.52052ZM5.71175 0.556625L0.556549 5.71182C0.477449 5.79092 0.437851 5.89542 0.437851 6.00002C0.437851 6.10462 0.477449 6.20912 0.556549 6.28832L5.71175 11.4434C5.79085 11.5226 5.89535 11.5622 6.00005 11.5622C6.10465 11.5622 6.20915 11.5226 6.28825 11.4434L11.4435 6.28832C11.5226 6.20912 11.5621 6.10462 11.5621 6.00002C11.5621 5.89542 11.5226 5.79092 11.4435 5.71182L6.28825 0.556625C6.20915 0.477425 6.10465 0.437927 6.00005 0.437927C5.89535 0.437927 5.79085 0.477425 5.71175 0.556625Z" fill="black"/>
<path fill-rule="evenodd" clip-rule="evenodd" d="M3.22655 6.80663V6.53832H2.50605C2.41545 6.53832 2.34735 6.51763 2.30185 6.47623C2.25625 6.43493 2.23375 6.37873 2.23375 6.30733C2.23375 6.28913 2.23675 6.27093 2.24375 6.25223C2.25075 6.23353 2.26035 6.21382 2.27415 6.19312C2.28735 6.17242 2.30105 6.15233 2.31575 6.13313C2.32995 6.11383 2.34754 6.09023 2.36864 6.06263L3.12925 5.04002C3.17875 4.97302 3.21985 4.92433 3.25175 4.89383C3.28405 4.86373 3.32225 4.84853 3.36735 4.84853C3.51275 4.84853 3.58525 4.93222 3.58525 5.09962V6.21632H3.64695C3.72045 6.21632 3.77975 6.22632 3.82425 6.24632C3.86885 6.26652 3.89085 6.31082 3.89085 6.37872C3.89085 6.43442 3.87275 6.47483 3.83655 6.50043C3.79975 6.52553 3.74545 6.53832 3.67295 6.53832H3.58525V6.80663C3.58525 6.88053 3.56915 6.93563 3.53625 6.97153C3.50395 7.00753 3.46034 7.02573 3.40604 7.02573C3.35264 7.02573 3.30905 7.00702 3.27625 6.97012C3.24335 6.93312 3.22655 6.87853 3.22655 6.80663ZM2.60945 6.21632H3.22655V5.37733L2.60945 6.21632ZM4.41135 7.02872C4.34815 7.02872 4.29375 7.00902 4.24775 6.97012C4.20225 6.93122 4.17915 6.87653 4.17915 6.80663C4.17915 6.74603 4.20175 6.69483 4.24675 6.65353C4.29135 6.61213 4.34475 6.59142 4.40545 6.59142C4.45155 6.59142 4.49315 6.60383 4.53035 6.62893C4.56755 6.65403 4.59695 6.69093 4.61805 6.73923C4.63905 6.78793 4.64935 6.84802 4.64935 6.91892C4.64935 7.01442 4.62935 7.10353 4.58915 7.18673C4.54895 7.26993 4.49995 7.33542 4.44225 7.38422C4.38445 7.43292 4.33205 7.45702 4.28545 7.45702C4.25555 7.45702 4.23154 7.44703 4.21294 7.42753C4.19434 7.40783 4.18505 7.38512 4.18505 7.35902C4.18505 7.31972 4.20465 7.28763 4.24385 7.26353C4.35555 7.20103 4.41135 7.12272 4.41135 7.02872ZM6.47145 5.95283C6.47145 6.11093 6.46145 6.24633 6.44255 6.35953C6.42345 6.47333 6.38815 6.57623 6.33625 6.66833C6.27105 6.78153 6.18735 6.86913 6.08395 6.93073C5.98065 6.99223 5.86555 7.02283 5.73915 7.02283C5.59415 7.02283 5.46345 6.98143 5.34835 6.89873C5.23325 6.81603 5.14655 6.70172 5.08775 6.55602C5.05835 6.47622 5.03684 6.38762 5.02264 6.29112C5.00884 6.19462 5.00204 6.09022 5.00204 5.97752C5.00204 5.83222 5.01005 5.70173 5.02505 5.58553C5.04025 5.46893 5.06425 5.36892 5.09655 5.28522C5.15285 5.14682 5.23515 5.04152 5.34245 4.96912C5.45015 4.89672 5.57855 4.86033 5.72795 4.86033C5.82635 4.86033 5.91595 4.87652 5.99635 4.90852C6.07665 4.94102 6.14715 4.98783 6.20795 5.04983C6.26865 5.11193 6.32004 5.18872 6.36214 5.27982C6.43514 5.43832 6.47145 5.66283 6.47145 5.95283ZM6.07764 5.92432C6.07764 5.74852 6.06735 5.60432 6.04625 5.49252C6.02525 5.38022 5.98945 5.29553 5.93995 5.23843C5.89005 5.18133 5.82095 5.15282 5.73325 5.15282C5.60695 5.15282 5.51925 5.21683 5.46975 5.34483C5.42035 5.47233 5.39585 5.66922 5.39585 5.93562C5.39585 6.11632 5.40615 6.26452 5.42715 6.37972C5.44825 6.49542 5.48395 6.58262 5.53345 6.64172C5.58345 6.70072 5.65104 6.73032 5.73624 6.73032C5.82394 6.73032 5.89295 6.69983 5.94295 6.63823C5.99235 6.57673 6.02715 6.48853 6.04725 6.37433C6.06735 6.25963 6.07764 6.10992 6.07764 5.92432ZM8.84935 6.25423V6.77763C8.84935 6.86033 8.83075 6.92233 8.79355 6.96373C8.75625 7.00503 8.70684 7.02573 8.64604 7.02573C8.58684 7.02573 8.53884 7.00503 8.50204 6.96373C8.46534 6.92233 8.44675 6.86033 8.44675 6.77763V6.15033C8.44675 6.05083 8.44375 5.97403 8.43645 5.91943C8.43045 5.86473 8.41195 5.81942 8.38205 5.78452C8.35225 5.74952 8.30564 5.73183 8.24104 5.73183C8.11264 5.73183 8.02845 5.77612 7.98775 5.86472C7.94715 5.95282 7.92654 6.07992 7.92654 6.24532V6.77763C7.92654 6.85933 7.90795 6.92133 7.87125 6.96323C7.83445 7.00503 7.78604 7.02573 7.72624 7.02573C7.66694 7.02573 7.61845 7.00503 7.58075 6.96323C7.54305 6.92133 7.52395 6.85933 7.52395 6.77763V5.65102C7.52395 5.57722 7.54115 5.52052 7.57495 5.48212C7.60865 5.44372 7.65325 5.42452 7.70865 5.42452C7.76245 5.42452 7.80705 5.44283 7.84285 5.47873C7.87855 5.51463 7.89665 5.56443 7.89665 5.62793V5.66533C7.96425 5.58363 8.03725 5.52352 8.11465 5.48512C8.19205 5.44672 8.27824 5.42753 8.37274 5.42753C8.47174 5.42753 8.55595 5.44723 8.62695 5.48663C8.69795 5.52603 8.75625 5.58553 8.80185 5.66533C8.86795 5.58463 8.93894 5.52503 9.01434 5.48613C9.08984 5.44723 9.17354 5.42753 9.26564 5.42753C9.37294 5.42753 9.46504 5.44873 9.54234 5.49103C9.61974 5.53343 9.67805 5.59393 9.71625 5.67273C9.74955 5.74363 9.76625 5.85583 9.76625 6.00853V6.77763C9.76625 6.86033 9.74764 6.92233 9.71034 6.96373C9.67314 7.00503 9.62364 7.02573 9.56294 7.02573C9.50374 7.02573 9.45525 7.00503 9.41745 6.96323C9.37975 6.92133 9.36064 6.85933 9.36064 6.77763V6.11533C9.36064 6.03063 9.35765 5.96323 9.34995 5.91203C9.34295 5.86133 9.32344 5.81842 9.29164 5.78352C9.26024 5.74902 9.21225 5.73183 9.14815 5.73183C9.09615 5.73183 9.04724 5.74703 9.00064 5.77813C8.95464 5.80863 8.91844 5.84992 8.89244 5.90212C8.86354 5.96812 8.84935 6.08583 8.84935 6.25423Z" fill="black"/>
<path fill-rule="evenodd" clip-rule="evenodd" d="M4.75655 2.43243L6.07255 3.74853L7.38865 2.43243H4.75655Z" fill="black"/>
<path fill-rule="evenodd" clip-rule="evenodd" d="M4.76555 9.56773L6.08165 8.25163L7.39775 9.56773H4.76555Z" fill="black"/>
</svg>
