<svg width="9" height="12" viewBox="0 0 9 12" fill="none" xmlns="http://www.w3.org/2000/svg">
<path fill-rule="evenodd" clip-rule="evenodd" d="M0.428299 7.62939e-06H8.1431C8.379 7.62939e-06 8.5714 0.192507 8.5714 0.428307V11.5716C8.5714 11.8074 8.379 11.9999 8.1431 11.9999H0.428299C0.192499 11.9999 0 11.8074 0 11.5716V0.428307C0 0.192507 0.192499 7.62939e-06 0.428299 7.62939e-06Z" fill="white"/>
<path fill-rule="evenodd" clip-rule="evenodd" d="M0.554207 0.299904H8.01701C8.15701 0.299904 8.27121 0.414207 8.27121 0.554207V11.4455C8.27121 11.5855 8.15701 11.6997 8.01701 11.6997H0.554207C0.414207 11.6997 0.299911 11.5855 0.299911 11.4455V0.554207C0.299911 0.414207 0.414207 0.299904 0.554207 0.299904Z" fill="white"/>
<path fill-rule="evenodd" clip-rule="evenodd" d="M0.554413 0.171318H8.01701C8.12251 0.171318 8.21821 0.214314 8.28761 0.283714C8.35691 0.353114 8.40001 0.448814 8.40001 0.554314V11.4454C8.40001 11.5508 8.35691 11.6466 8.28761 11.7159C8.21821 11.7853 8.12251 11.8283 8.01701 11.8283H0.554413C0.449013 11.8283 0.353213 11.7853 0.283813 11.7159C0.214513 11.6466 0.171509 11.5508 0.171509 11.4454V0.554314C0.171509 0.448814 0.214513 0.353114 0.283813 0.283714C0.353213 0.214314 0.449013 0.171318 0.554413 0.171318ZM8.01701 0.428413H0.554413C0.520013 0.428413 0.488514 0.442608 0.465714 0.465508C0.442814 0.488408 0.428612 0.519814 0.428612 0.554314V11.4454C0.428612 11.4798 0.442814 11.5113 0.465714 11.5341C0.488514 11.557 0.520013 11.5712 0.554413 11.5712H8.01701C8.05151 11.5712 8.08291 11.557 8.10581 11.5341C8.12871 11.5113 8.14291 11.4798 8.14291 11.4454V0.554314C8.14291 0.519814 8.12871 0.488408 8.10581 0.465508C8.08291 0.442608 8.05151 0.428413 8.01701 0.428413Z" fill="white"/>
<path fill-rule="evenodd" clip-rule="evenodd" d="M1.32581 1.33831H7.2457V7.43331H1.32581V1.33831Z" fill="white"/>
<path fill-rule="evenodd" clip-rule="evenodd" d="M3.89371 4.14972C3.93011 4.27482 3.97691 4.97142 3.99571 5.14772C4.02531 5.42612 4.12641 5.85722 4.12021 6.10452C4.04371 6.16342 3.97431 6.22772 3.88161 6.29472C3.66701 6.44972 3.68901 6.36402 3.62001 6.50552C3.80911 6.55042 3.92071 6.56032 4.12581 6.52812C4.23401 6.62672 4.14591 6.62342 4.29161 6.67552C4.39441 6.61802 4.35331 6.61092 4.42431 6.52812C4.56281 6.56232 4.74561 6.54332 4.94711 6.50172C4.91931 6.35822 4.79101 6.41672 4.71531 6.31422C4.62091 6.24732 4.53621 6.16871 4.45121 6.11511L4.68231 4.13621C4.80731 4.07181 5.50031 3.95832 5.71111 3.91772C5.94201 3.87332 6.57451 3.80942 6.69731 3.63682C6.82271 3.46062 6.64821 3.31202 6.53471 3.26832C6.34661 3.19592 5.04351 3.24432 4.68551 3.22642C4.65751 2.94142 4.64921 2.19142 4.30231 2.10432C4.10351 2.05452 4.01171 2.38681 3.97811 2.52781C3.96071 2.60421 3.94821 2.68191 3.93631 2.75941C3.84491 3.35671 4.20631 3.23202 2.46761 3.23042C2.26971 3.23012 1.88501 3.20341 1.85151 3.47831C1.82761 3.67451 2.01541 3.76171 2.17441 3.79571C2.36901 3.83731 2.58661 3.86862 2.78431 3.90422C3.09661 3.96022 3.44611 4.01901 3.75171 4.09861C3.78111 4.10661 3.87241 4.12882 3.89371 4.14972Z" fill="black"/>
</svg>
