<svg width="9" height="12" viewBox="0 0 9 12" fill="none" xmlns="http://www.w3.org/2000/svg">
<path fill-rule="evenodd" clip-rule="evenodd" d="M3.5603 5.27381H5.0116V6.72511H3.5603V5.27381Z" fill="white"/>
<path fill-rule="evenodd" clip-rule="evenodd" d="M0.428301 7.62939e-06H8.1431C8.3789 7.62939e-06 8.5714 0.192407 8.5714 0.428307V11.5715C8.5714 11.8074 8.3789 11.9999 8.1431 11.9999H0.428301C0.192401 11.9999 0 11.8074 0 11.5715V0.428307C0 0.192407 0.192401 7.62939e-06 0.428301 7.62939e-06Z" fill="white"/>
<path fill-rule="evenodd" clip-rule="evenodd" d="M0.554096 0.299904H8.0169C8.1569 0.299904 8.2712 0.414115 8.2712 0.554115V11.4454C8.2712 11.5854 8.1569 11.6997 8.0169 11.6997H0.554096C0.414096 11.6997 0.299896 11.5854 0.299896 11.4454V0.554115C0.299896 0.414115 0.414096 0.299904 0.554096 0.299904Z" fill="white"/>
<path fill-rule="evenodd" clip-rule="evenodd" d="M0.554403 0.171211H8.017C8.1224 0.171211 8.2182 0.214307 8.2875 0.283607C8.3569 0.353007 8.3999 0.448807 8.3999 0.554207V11.4453C8.3999 11.5508 8.3569 11.6465 8.2875 11.7159C8.2182 11.7852 8.1224 11.8283 8.017 11.8283H0.554403C0.448903 11.8283 0.353102 11.7852 0.283802 11.7159C0.214402 11.6465 0.171402 11.5508 0.171402 11.4453V0.554207C0.171402 0.448807 0.214402 0.353007 0.283802 0.283607C0.353102 0.214307 0.448903 0.171211 0.554403 0.171211ZM8.017 0.428413H0.554403C0.519903 0.428413 0.488503 0.442616 0.465603 0.465416C0.442703 0.488316 0.428503 0.519707 0.428503 0.554207V11.4453C0.428503 11.4798 0.442703 11.5112 0.465603 11.5341C0.488503 11.5569 0.519903 11.5711 0.554403 11.5711H8.017C8.0514 11.5711 8.0829 11.5569 8.1057 11.5341C8.1286 11.5112 8.1428 11.4798 8.1428 11.4453V0.554207C8.1428 0.519707 8.1286 0.488316 8.1057 0.465416C8.0829 0.442616 8.0514 0.428413 8.017 0.428413Z" fill="white"/>
<path fill-rule="evenodd" clip-rule="evenodd" d="M1.3257 1.3382H7.2456V7.4332H1.3257V1.3382Z" fill="white"/>
<path fill-rule="evenodd" clip-rule="evenodd" d="M1.9425 4.84042V3.93101H3.8309V2.04261H4.7404V3.93101H6.62881V4.84042H4.7404V6.72881H3.8309V4.84042H1.9425Z" fill="#FF0000"/>
</svg>
