<svg width="12" height="12" viewBox="0 0 12 12" fill="none" xmlns="http://www.w3.org/2000/svg">
<path fill-rule="evenodd" clip-rule="evenodd" d="M5.99989 1.25C8.62279 1.25 10.7499 3.3771 10.7499 6C10.7499 8.6229 8.62279 10.7499 5.99989 10.7499C3.37699 10.7499 1.25 8.6229 1.25 6C1.25 3.3771 3.37699 1.25 5.99989 1.25ZM11.9999 6C11.9999 2.6869 9.31299 0 5.99989 0C2.68679 0 0 2.6869 0 6C0 9.3131 2.68679 11.9999 5.99989 11.9999C9.31299 11.9999 11.9999 9.3131 11.9999 6Z" fill="#FF0000"/>
<path fill-rule="evenodd" clip-rule="evenodd" d="M5.3913 6.4028C5.3913 6.5989 5.35499 6.7798 5.28279 6.9456C5.21049 7.1112 5.1099 7.254 4.9803 7.3736C4.851 7.4936 4.6971 7.5874 4.5183 7.6548C4.3394 7.7226 4.1418 7.7563 3.9247 7.7563C3.6968 7.7563 3.48449 7.7149 3.28859 7.6322C3.09239 7.5491 2.91669 7.4315 2.76079 7.279C2.60459 7.1265 2.4898 6.9399 2.4155 6.72C2.3415 6.4997 2.3044 6.2395 2.3044 5.9387C2.3044 5.4767 2.3906 5.0538 2.5638 4.6702C2.737 4.2867 2.9853 3.9664 3.3084 3.7093C3.4187 3.622 3.53119 3.5469 3.64519 3.4837C3.75909 3.4205 3.8782 3.3691 4.0018 3.33C4.1254 3.2906 4.25659 3.2623 4.39549 3.245C4.53439 3.2274 4.6875 3.2189 4.855 3.2189V4.0033H4.78639C4.58119 4.0033 4.4043 4.0242 4.2558 4.0656C4.1072 4.107 3.96659 4.1733 3.83339 4.2649C3.65849 4.3783 3.5159 4.5078 3.4054 4.6538C3.2951 4.8001 3.19249 4.9886 3.09749 5.2196C3.18119 5.1932 3.258 5.1706 3.3286 5.1507C3.3989 5.1312 3.4675 5.117 3.5338 5.1082C3.6004 5.0997 3.6679 5.0932 3.7365 5.0886C3.8051 5.0844 3.87729 5.0821 3.95329 5.0821C4.16249 5.0821 4.35469 5.115 4.52959 5.1802C4.70449 5.2457 4.8559 5.3372 4.9834 5.4549C5.1107 5.5725 5.21049 5.712 5.28279 5.8733C5.35499 6.0346 5.3913 6.2112 5.3913 6.4028ZM4.7065 6.4158C4.7065 6.2503 4.63219 6.1173 4.48399 6.017C4.33569 5.9169 4.14179 5.8667 3.90199 5.8667C3.66219 5.8667 3.47029 5.9158 3.32539 6.0139C3.18119 6.1119 3.10889 6.2415 3.10889 6.4028C3.10889 6.5729 3.18119 6.7081 3.32539 6.8081C3.47029 6.9085 3.66219 6.9587 3.90199 6.9587C4.14179 6.9587 4.33569 6.9096 4.48399 6.8115C4.63219 6.7135 4.7065 6.5816 4.7065 6.4158ZM9.59059 5.4614C9.59059 5.7446 9.5611 6.0227 9.5024 6.2951C9.4432 6.5675 9.3502 6.8127 9.2224 7.0307C9.0951 7.2484 8.93069 7.4238 8.72879 7.5568C8.52729 7.6897 8.2821 7.7563 7.993 7.7563C7.7078 7.7563 7.4635 7.692 7.2596 7.5633C7.0561 7.4349 6.89 7.2637 6.7605 7.0502C6.6312 6.8365 6.5362 6.5936 6.4753 6.3211C6.4144 6.0487 6.38399 5.7687 6.38399 5.481C6.38399 5.1932 6.41549 4.9132 6.47809 4.6408C6.54079 4.3684 6.63769 4.1277 6.76929 3.9185C6.90019 3.7093 7.06689 3.5404 7.26839 3.4117C7.46999 3.283 7.7115 3.2189 7.993 3.2189C8.2781 3.2189 8.52159 3.2841 8.72319 3.4151C8.92499 3.5457 9.09029 3.7167 9.21979 3.9281C9.34909 4.1396 9.4432 4.3794 9.5024 4.6473C9.5611 4.9154 9.59059 5.1867 9.59059 5.4614ZM8.9057 5.481C8.9057 5.0189 8.82609 4.6572 8.66649 4.3956C8.50659 4.1342 8.2821 4.0033 7.993 4.0033C7.8218 4.0033 7.6772 4.0492 7.5593 4.1407C7.4413 4.2323 7.34639 4.3488 7.27409 4.4905C7.20179 4.6323 7.14939 4.789 7.11729 4.9611C7.08469 5.1334 7.06859 5.3001 7.06859 5.4614C7.06859 5.9495 7.1505 6.3234 7.3138 6.5828C7.4773 6.8422 7.7038 6.9717 7.993 6.9717C8.1339 6.9717 8.2603 6.9357 8.3725 6.8637C8.4845 6.792 8.5809 6.6894 8.6608 6.5564C8.7405 6.4235 8.8014 6.2645 8.8434 6.0793C8.885 5.894 8.9057 5.6882 8.9057 5.4614V5.481Z" fill="black"/>
<path fill-rule="evenodd" clip-rule="evenodd" d="M7.57329 9.5209V9.0983C7.57329 9.0658 7.56319 9.03849 7.54289 9.01639C7.52249 8.99439 7.49719 8.98339 7.46669 8.98339C7.45009 8.98339 7.4337 8.98619 7.4175 8.99199C7.4014 8.99769 7.3869 9.00559 7.3739 9.01569C7.361 9.02579 7.35039 9.03729 7.34209 9.05019C7.33409 9.06309 7.32959 9.07679 7.32959 9.09119V9.5209H7.14409V8.61549L7.32959 8.5407V8.85549C7.36839 8.83339 7.40119 8.81829 7.42789 8.81019C7.45469 8.80199 7.4838 8.79799 7.5152 8.79799C7.5484 8.79799 7.5795 8.80419 7.6086 8.81669C7.6377 8.82909 7.6633 8.84589 7.6855 8.86699C7.7076 8.88799 7.7249 8.91289 7.7374 8.94169C7.7499 8.97039 7.75609 9.0011 7.75609 9.0337V9.5209H7.57329Z" fill="black"/>
<path fill-rule="evenodd" clip-rule="evenodd" d="M6.91849 8.54221L6.5687 9.51881H6.37979L6.7296 8.54221H6.91849Z" fill="black"/>
<path fill-rule="evenodd" clip-rule="evenodd" d="M5.96159 9.5209V9.0983C5.96159 9.082 5.9586 9.067 5.9516 9.0531C5.9456 9.0392 5.93639 9.027 5.92529 9.0164C5.91429 9.0059 5.9016 8.9977 5.8873 8.992C5.8729 8.9862 5.8575 8.9834 5.8409 8.9834C5.8252 8.9834 5.8104 8.9865 5.7966 8.9927C5.7827 8.9989 5.77049 9.0071 5.75989 9.0171C5.74929 9.0272 5.7407 9.0387 5.7343 9.0516C5.7283 9.0646 5.72429 9.0777 5.72429 9.0912V9.5209H5.5484V9.0983C5.5484 9.0658 5.53689 9.0385 5.51379 9.0164C5.49069 8.9944 5.46299 8.9834 5.43069 8.9834C5.41409 8.9834 5.39859 8.9862 5.38429 8.992C5.36999 8.9977 5.3573 9.0056 5.3463 9.0157C5.3352 9.0258 5.32639 9.0377 5.31999 9.0516C5.31299 9.0655 5.31 9.0801 5.31 9.0955V9.5209H5.12439V8.8181H5.31V8.8555C5.3423 8.8353 5.37159 8.8212 5.39789 8.8131C5.42419 8.8049 5.45349 8.8009 5.48579 8.8009C5.55599 8.8009 5.6155 8.8282 5.6644 8.8828C5.6866 8.8665 5.7062 8.8531 5.7233 8.8425C5.7403 8.832 5.7567 8.8236 5.7724 8.8174C5.7881 8.8111 5.80399 8.8068 5.82019 8.8044C5.83629 8.802 5.85409 8.8009 5.87349 8.8009C5.90949 8.8009 5.9437 8.8068 5.976 8.8188C6.0083 8.8308 6.0369 8.8473 6.0618 8.8684C6.0867 8.8895 6.10659 8.9146 6.12129 8.9438C6.13609 8.9731 6.14349 9.0044 6.14349 9.038V9.5209H5.96159Z" fill="black"/>
<path fill-rule="evenodd" clip-rule="evenodd" d="M4.64349 9.0337L4.83179 9.5209H4.64349L4.52029 9.19609L4.41229 9.3082V9.5209H4.2267V8.61549L4.41229 8.5407V9.01789L4.6075 8.821H4.8387L4.64349 9.0337Z" fill="black"/>
</svg>
