<svg width="12" height="12" viewBox="0 0 12 12" fill="none" xmlns="http://www.w3.org/2000/svg">
<path fill-rule="evenodd" clip-rule="evenodd" d="M0.263025 5.36254L5.36252 0.26295C5.71322 -0.08765 6.28692 -0.08765 6.63722 0.26295L11.7371 5.36254C12.0874 5.71314 12.0874 6.28685 11.7371 6.63755L6.63722 11.737C6.28692 12.0877 5.71322 12.0877 5.36252 11.737L0.263025 6.63755C-0.087675 6.28685 -0.087675 5.71314 0.263025 5.36254Z" fill="#FFEC00"/>
<path fill-rule="evenodd" clip-rule="evenodd" d="M0.365417 5.52054L5.52062 0.365334C5.65252 0.233434 5.82632 0.167435 6.00002 0.167435C6.17372 0.167435 6.34752 0.233434 6.47952 0.365334L11.6347 5.52054C11.7666 5.65254 11.8326 5.82634 11.8326 6.00004C11.8326 6.17374 11.7666 6.34754 11.6347 6.47954L6.47952 11.6346C6.34752 11.7666 6.17372 11.8326 6.00002 11.8326C5.82632 11.8326 5.65252 11.7666 5.52062 11.6346L0.365417 6.47954C0.233417 6.34754 0.167419 6.17374 0.167419 6.00004C0.167419 5.82634 0.233417 5.65254 0.365417 5.52054ZM5.71182 0.556633L0.556618 5.71174C0.477518 5.79094 0.43792 5.89544 0.43792 6.00004C0.43792 6.10464 0.477518 6.20914 0.556618 6.28824L5.71182 11.4434C5.79092 11.5225 5.89542 11.5621 6.00002 11.5621C6.10462 11.5621 6.20912 11.5225 6.28832 11.4434L11.4435 6.28824C11.5226 6.20914 11.5622 6.10464 11.5622 6.00004C11.5622 5.89544 11.5226 5.79094 11.4435 5.71174L6.28832 0.556633C6.20912 0.477433 6.10462 0.437836 6.00002 0.437836C5.89542 0.437836 5.79092 0.477433 5.71182 0.556633Z" fill="black"/>
<path fill-rule="evenodd" clip-rule="evenodd" d="M5.89843 6.11864L3.73333 3.97754L3.07632 4.64834C3.33182 5.02994 5.89863 7.37464 5.89863 7.51774L5.89893 9.29623H6.80003C6.85473 9.29623 6.87123 9.27974 6.87123 9.22514L6.87023 2.70374H5.89803L5.89843 6.11864Z" fill="black"/>
</svg>
