<svg width="12" height="12" viewBox="0 0 12 12" fill="none" xmlns="http://www.w3.org/2000/svg">
<path fill-rule="evenodd" clip-rule="evenodd" d="M5.9999 1.25C8.6228 1.25 10.7499 3.3771 10.7499 6C10.7499 8.6229 8.6228 10.7499 5.9999 10.7499C3.377 10.7499 1.25 8.6229 1.25 6C1.25 3.3771 3.377 1.25 5.9999 1.25ZM11.9999 6C11.9999 2.6869 9.3131 0 5.9999 0C2.6868 0 0 2.6869 0 6C0 9.3131 2.6868 11.9999 5.9999 11.9999C9.3131 11.9999 11.9999 9.3131 11.9999 6Z" fill="#FF0000"/>
<path fill-rule="evenodd" clip-rule="evenodd" d="M3.22321 4.1888L3.2103 4.1779L3.2094 4.1768L3.2014 4.1619L3.201 4.1608L3.1981 4.1437V4.1424L3.201 4.1257L3.2014 4.1246L3.2094 4.1096L3.21021 4.1086L3.22311 4.0967L5.0966 2.8795L5.1237 2.8654L5.15311 2.8553L5.1836 2.8511L5.2149 2.851L5.24551 2.8571L5.2748 2.8681L5.3021 2.8834L5.32571 2.9036L5.346 2.9269L5.36221 2.9532L5.3735 2.9827L5.3796 3.0131L5.38071 3.0446L5.3767 3.0759L5.3666 3.1055L5.1518 3.6227L5.28561 3.6265L5.4259 3.6354L5.5652 3.6513L5.70361 3.6732L5.841 3.7011L5.9773 3.7359L6.1117 3.7757L6.2441 3.8225L6.3744 3.8743L6.50201 3.9331L6.6273 3.9967L6.7487 4.0654L6.8682 4.1399L6.9837 4.2206L7.0951 4.3052L7.20261 4.3948L7.30621 4.4904L7.4056 4.5889L7.50021 4.6923L7.58981 4.801L7.67541 4.9123L7.755 5.0278L7.8297 5.1462L7.8983 5.2687L7.9621 5.3931L8.02081 5.5215L8.0725 5.6519L8.1194 5.7843L8.1592 5.9186L8.194 6.0541L8.2219 6.1923L8.2438 6.3308L8.2598 6.4701L8.26871 6.6104L8.27171 6.7507V9.1776H8.26801V9.1813H7.236V9.1776H7.23231V6.7509L7.2293 6.6378L7.22041 6.5244L7.20451 6.4125L7.18381 6.3013L7.15591 6.1922L7.1231 6.084L7.0845 5.9777L7.0398 5.8736L6.9892 5.7724L6.9336 5.6742L6.87321 5.5789L6.8066 5.4876L6.73611 5.3993L6.6608 5.315L6.58031 5.2355L6.497 5.1591L6.40871 5.0887L6.31651 5.0231L6.22221 4.9616L6.123 4.906L6.02171 4.8563L5.9184 4.8118L5.8122 4.772L5.7041 4.7393L5.5948 4.7115L5.4838 4.6907L5.3717 4.6757L5.25851 4.6659L5.152 4.6631L5.3665 5.1806L5.3765 5.2097L5.3806 5.2412L5.37971 5.2717L5.3736 5.3031L5.3625 5.3315L5.34641 5.3589L5.326 5.3823L5.3027 5.4026L5.27531 5.4179L5.2461 5.4291L5.21561 5.4352L5.1841 5.4353L5.1537 5.4303L5.12431 5.4213L5.0968 5.406L3.22321 4.1888Z" fill="black"/>
</svg>
