<svg width="12" height="12" viewBox="0 0 12 12" fill="none" xmlns="http://www.w3.org/2000/svg">
<path fill-rule="evenodd" clip-rule="evenodd" d="M0.26295 5.36253L5.36255 0.263025C5.71315 -0.087675 6.28685 -0.087675 6.63725 0.263025L11.7371 5.36253C12.0875 5.71323 12.0875 6.28692 11.7371 6.63752L6.63725 11.7371C6.28685 12.0877 5.71315 12.0877 5.36255 11.7371L0.26295 6.63752C-0.08765 6.28692 -0.08765 5.71323 0.26295 5.36253Z" fill="#FFEC00"/>
<path fill-rule="evenodd" clip-rule="evenodd" d="M0.36545 5.52052L5.52055 0.365425C5.65255 0.233425 5.82635 0.167419 6.00005 0.167419C6.17375 0.167419 6.34755 0.233425 6.47955 0.365425L11.6347 5.52052C11.7667 5.65252 11.8327 5.82632 11.8327 6.00002C11.8327 6.17372 11.7667 6.34752 11.6347 6.47952L6.47955 11.6347C6.34755 11.7666 6.17375 11.8326 6.00005 11.8326C5.82635 11.8326 5.65255 11.7666 5.52055 11.6347L0.36545 6.47952C0.23345 6.34752 0.16745 6.17372 0.16745 6.00002C0.16745 5.82632 0.23345 5.65252 0.36545 5.52052ZM5.71175 0.556625L0.55665 5.71182C0.47745 5.79092 0.437851 5.89542 0.437851 6.00002C0.437851 6.10462 0.47745 6.20912 0.55665 6.28832L5.71175 11.4434C5.79095 11.5226 5.89545 11.5622 6.00005 11.5622C6.10465 11.5622 6.20915 11.5226 6.28825 11.4434L11.4435 6.28832C11.5227 6.20912 11.5622 6.10462 11.5622 6.00002C11.5622 5.89542 11.5227 5.79092 11.4435 5.71182L6.28825 0.556625C6.20915 0.477525 6.10465 0.43792 6.00005 0.43792C5.89545 0.43792 5.79095 0.477525 5.71175 0.556625Z" fill="black"/>
<path fill-rule="evenodd" clip-rule="evenodd" d="M7.60265 7.08202C7.42815 7.08202 7.28655 7.22362 7.28655 7.39812C7.28655 7.57272 7.42815 7.71423 7.60265 7.71423C7.77715 7.71423 7.91875 7.57272 7.91875 7.39812C7.91875 7.22362 7.77715 7.08202 7.60265 7.08202ZM5.14215 2.94743L5.95455 4.43412C5.95145 4.43442 5.94845 4.43462 5.94545 4.43482L5.86545 4.57212L5.34685 4.56722L5.18035 4.71893H3.76125C3.30865 4.71893 2.70735 4.62812 2.61125 4.98812H2.73355V7.21462H3.95695C4.13315 7.21462 4.17925 6.99442 4.37295 6.99442H5.25375C5.43615 6.99442 5.51165 7.21462 5.62075 7.21462H6.40375C6.51285 7.21462 6.58835 6.99442 6.77075 6.99442H7.65155C7.83395 6.99442 7.90945 7.21462 8.01855 7.21462H9.26645V4.96362H9.38875C9.20415 4.61462 8.75955 4.71893 8.23875 4.71893C7.77395 4.71893 7.30905 4.71892 6.83935 4.72392L6.67285 4.57212H6.15905C6.12835 4.51422 6.09485 4.46142 6.06035 4.40902C6.05945 4.40942 6.05855 4.40973 6.05765 4.41013L5.23165 2.89852C5.21825 2.87382 5.18705 2.86472 5.16245 2.87822C5.13785 2.89162 5.12875 2.92273 5.14215 2.94743ZM3.96115 4.99242C3.97035 4.99242 3.97795 5.00222 3.97795 5.01432V7.04163C3.97795 7.05373 3.97035 7.06352 3.96115 7.06352H3.65925C3.64995 7.06352 3.64245 7.05373 3.64245 7.04163V5.01432C3.64245 5.00222 3.64995 4.99242 3.65925 4.99242H3.96115ZM6.53655 4.99472H7.12725C7.14535 4.99472 7.16005 5.00082 7.16005 5.00832V6.26463C7.16005 6.27213 7.14535 6.27822 7.12725 6.27822H6.53655C6.51855 6.27822 6.50375 6.27213 6.50375 6.26463V5.00832C6.50375 5.00082 6.51855 4.99472 6.53655 4.99472ZM7.28675 6.26463V5.00832C7.28675 5.00082 7.30145 4.99472 7.31955 4.99472H7.91025C7.92825 4.99472 7.94305 5.00082 7.94305 5.00832V6.26463C7.94305 6.27213 7.92825 6.27822 7.91025 6.27822H7.31955C7.30145 6.27822 7.28675 6.27213 7.28675 6.26463ZM8.04665 7.04163V5.01432C8.04665 5.00222 8.05415 4.99242 8.06335 4.99242H8.36525C8.37455 4.99242 8.38205 5.00222 8.38205 5.01432V7.04163C8.38205 7.05373 8.37455 7.06352 8.36525 7.06352H8.06335C8.05415 7.06352 8.04665 7.05373 8.04665 7.04163ZM8.48705 7.04163V5.01432C8.48705 5.00222 8.49455 4.99242 8.50375 4.99242H8.80575C8.81495 4.99242 8.82245 5.00222 8.82245 5.01432V7.04163C8.82245 7.05373 8.81495 7.06352 8.80575 7.06352H8.50375C8.49455 7.06352 8.48705 7.05373 8.48705 7.04163ZM8.92955 6.19232V5.00732C8.92955 5.00022 8.93475 4.99452 8.94125 4.99452H9.15125C9.15765 4.99452 9.16295 5.00022 9.16295 5.00732V6.19232C9.16295 6.19932 9.15765 6.20512 9.15125 6.20512H8.94125C8.93475 6.20512 8.92955 6.19932 8.92955 6.19232ZM6.08155 4.99242H6.38345C6.39265 4.99242 6.40015 5.00222 6.40015 5.01432V7.04163C6.40015 7.05373 6.39265 7.06352 6.38345 7.06352H6.08155C6.07225 7.06352 6.06475 7.05373 6.06475 7.04163V5.01432C6.06475 5.00222 6.07225 4.99242 6.08155 4.99242ZM5.95975 5.01432V7.04163C5.95975 7.05373 5.95225 7.06352 5.94305 7.06352H5.64105C5.63185 7.06352 5.62435 7.05373 5.62435 7.04163V5.01432C5.62435 5.00222 5.63185 4.99242 5.64105 4.99242H5.94305C5.95225 4.99242 5.95975 5.00222 5.95975 5.01432ZM5.50855 5.00832V6.26463C5.50855 6.27213 5.49375 6.27822 5.47575 6.27822H4.88505C4.86695 6.27822 4.85215 6.27213 4.85215 6.26463V5.00832C4.85215 5.00082 4.86695 4.99472 4.88505 4.99472H5.47575C5.49375 4.99472 5.50855 5.00082 5.50855 5.00832ZM4.73775 5.00832V6.26463C4.73775 6.27213 4.72305 6.27822 4.70495 6.27822H4.11425C4.09625 6.27822 4.08145 6.27213 4.08145 6.26463V5.00832C4.08145 5.00082 4.09625 4.99472 4.11425 4.99472H4.70495C4.72305 4.99472 4.73775 5.00082 4.73775 5.00832ZM3.53365 5.01612V7.04353C3.53365 7.05553 3.52615 7.06542 3.51685 7.06542H3.21495C3.20575 7.06542 3.19825 7.05553 3.19825 7.04353V5.01612C3.19825 5.00412 3.20575 4.99422 3.21495 4.99422H3.51685C3.52615 4.99422 3.53365 5.00412 3.53365 5.01612ZM3.10385 5.01302V6.19802C3.10385 6.20512 3.09855 6.21082 3.09215 6.21082H2.88215C2.87565 6.21082 2.87045 6.20512 2.87045 6.19802V5.01302C2.87045 5.00602 2.87565 5.00022 2.88215 5.00022H3.09215C3.09855 5.00022 3.10385 5.00602 3.10385 5.01302ZM4.72575 7.39812C4.72575 7.22362 4.58415 7.08202 4.40965 7.08202C4.23505 7.08202 4.09355 7.22362 4.09355 7.39812C4.09355 7.57272 4.23505 7.71423 4.40965 7.71423C4.58415 7.71423 4.72575 7.57272 4.72575 7.39812ZM5.50875 7.41622C5.50875 7.24162 5.36725 7.10012 5.19265 7.10012C5.01815 7.10012 4.87655 7.24162 4.87655 7.41622C4.87655 7.59072 5.01815 7.73232 5.19265 7.73232C5.36725 7.73232 5.50875 7.59072 5.50875 7.41622ZM6.81965 7.08202C6.64515 7.08202 6.50355 7.22362 6.50355 7.39812C6.50355 7.57272 6.64515 7.71423 6.81965 7.71423C6.99425 7.71423 7.13575 7.57272 7.13575 7.39812C7.13575 7.22362 6.99425 7.08202 6.81965 7.08202Z" fill="black"/>
</svg>
