<svg width="12" height="12" viewBox="0 0 12 12" fill="none" xmlns="http://www.w3.org/2000/svg">
<path fill-rule="evenodd" clip-rule="evenodd" d="M0.263025 5.36244L5.36252 0.26295C5.71322 -0.08765 6.28692 -0.08765 6.63722 0.26295L11.7371 5.36244C12.0874 5.71314 12.0874 6.28685 11.7371 6.63755L6.63722 11.737C6.28692 12.0876 5.71322 12.0876 5.36252 11.737L0.263025 6.63755C-0.087675 6.28685 -0.087675 5.71314 0.263025 5.36244Z" fill="#FFEC00"/>
<path fill-rule="evenodd" clip-rule="evenodd" d="M0.365417 5.52055L5.52062 0.365341C5.65252 0.233341 5.82632 0.167343 6.00002 0.167343C6.17372 0.167343 6.34752 0.233341 6.47952 0.365341L11.6347 5.52055C11.7666 5.65245 11.8326 5.82625 11.8326 5.99995C11.8326 6.17365 11.7666 6.34745 11.6347 6.47945L6.47952 11.6346C6.34752 11.7665 6.17372 11.8325 6.00002 11.8325C5.82632 11.8325 5.65252 11.7665 5.52062 11.6346L0.365417 6.47945C0.233417 6.34745 0.167419 6.17365 0.167419 5.99995C0.167419 5.82625 0.233417 5.65245 0.365417 5.52055ZM5.71182 0.556541L0.556618 5.71175C0.477518 5.79085 0.43792 5.89535 0.43792 5.99995C0.43792 6.10455 0.477518 6.20915 0.556618 6.28825L5.71182 11.4434C5.79092 11.5225 5.89542 11.5621 6.00002 11.5621C6.10462 11.5621 6.20912 11.5225 6.28832 11.4434L11.4435 6.28825C11.5226 6.20915 11.5622 6.10455 11.5622 5.99995C11.5622 5.89535 11.5226 5.79085 11.4435 5.71175L6.28832 0.556541C6.20912 0.477441 6.10462 0.437843 6.00002 0.437843C5.89542 0.437843 5.79092 0.477441 5.71182 0.556541Z" fill="black"/>
<path fill-rule="evenodd" clip-rule="evenodd" d="M7.47904 9.17835L6.57494 9.17895L6.57454 4.41025L6.16154 4.61645C6.09924 4.64445 6.02724 4.62545 5.98394 4.56975C5.94064 4.51395 5.93614 4.43444 5.97294 4.37344L7.00974 2.83295C7.01784 2.82185 7.03184 2.81525 7.04664 2.81525C7.06144 2.81515 7.07524 2.82224 7.08334 2.83264L8.12174 4.37205C8.15854 4.43295 8.15424 4.51255 8.11094 4.56835C8.06774 4.62415 7.99574 4.64314 7.93334 4.61524L7.47634 4.41065L7.47904 9.17835Z" fill="black"/>
<path fill-rule="evenodd" clip-rule="evenodd" d="M5.38433 2.91454L4.48033 2.91395L4.47983 7.61295L4.06693 7.40984C4.00463 7.38224 3.93253 7.40084 3.88923 7.45584C3.84603 7.51084 3.84153 7.58925 3.87833 7.64925L4.91513 9.16724C4.92323 9.17814 4.93713 9.18475 4.95203 9.18475C4.96683 9.18475 4.98063 9.17874 4.98873 9.16754L6.02703 7.65064C6.06393 7.59064 6.05953 7.51224 6.01633 7.45724C5.97313 7.40224 5.90103 7.38344 5.83873 7.41094L5.38163 7.61265L5.38433 2.91454Z" fill="black"/>
</svg>
