<svg width="9" height="12" viewBox="0 0 9 12" fill="none" xmlns="http://www.w3.org/2000/svg">
<path fill-rule="evenodd" clip-rule="evenodd" d="M3.56039 5.27381H5.0117V6.7252H3.56039V5.27381Z" fill="white"/>
<path fill-rule="evenodd" clip-rule="evenodd" d="M0.428398 7.62939e-06H8.1431C8.379 7.62939e-06 8.5714 0.192407 8.5714 0.428307V11.5716C8.5714 11.8074 8.379 11.9999 8.1431 11.9999H0.428398C0.192498 11.9999 0 11.8074 0 11.5716V0.428307C0 0.192407 0.192498 7.62939e-06 0.428398 7.62939e-06Z" fill="white"/>
<path fill-rule="evenodd" clip-rule="evenodd" d="M0.554207 0.299904H8.01701C8.15701 0.299904 8.2713 0.4141 8.2713 0.5541V11.4454C8.2713 11.5855 8.15701 11.6997 8.01701 11.6997H0.554207C0.414207 11.6997 0.300003 11.5855 0.300003 11.4454V0.5541C0.300003 0.4141 0.414207 0.299904 0.554207 0.299904Z" fill="white"/>
<path fill-rule="evenodd" clip-rule="evenodd" d="M0.554497 0.171303H8.017C8.1225 0.171303 8.2183 0.214299 8.2876 0.283699C8.357 0.352999 8.39999 0.448807 8.39999 0.554207V11.4453C8.39999 11.5508 8.357 11.6465 8.2876 11.7159C8.2183 11.7853 8.1225 11.8283 8.017 11.8283H0.554497C0.448997 11.8283 0.353197 11.7853 0.283897 11.7159C0.214497 11.6465 0.171494 11.5508 0.171494 11.4453V0.554207C0.171494 0.448807 0.214497 0.352999 0.283897 0.283699C0.353197 0.214299 0.448997 0.171303 0.554497 0.171303ZM8.017 0.428398H0.554497C0.519997 0.428398 0.488498 0.442608 0.465698 0.465508C0.442798 0.488308 0.428596 0.519807 0.428596 0.554207V11.4453C0.428596 11.4798 0.442798 11.5112 0.465698 11.5341C0.488498 11.557 0.519997 11.5712 0.554497 11.5712H8.017C8.0515 11.5712 8.0829 11.557 8.1058 11.5341C8.1287 11.5112 8.1429 11.4798 8.1429 11.4453V0.554207C8.1429 0.519807 8.1287 0.488308 8.1058 0.465508C8.0829 0.442608 8.0515 0.428398 8.017 0.428398Z" fill="white"/>
<path fill-rule="evenodd" clip-rule="evenodd" d="M1.32581 1.3382H7.2457V7.43331H1.32581V1.3382Z" fill="white"/>
<path fill-rule="evenodd" clip-rule="evenodd" d="M3.37109 2.21231C3.39129 2.27931 3.39839 2.26971 3.48859 2.33771C3.49369 2.34171 3.5048 2.34771 3.5117 2.35351C3.1955 2.36251 2.9998 2.27211 2.8983 2.54521C2.97 2.65011 3.0904 2.653 3.1142 2.7577L2.668 2.78461C2.5976 2.88851 2.5255 2.9818 2.5092 3.1495C2.5724 3.2149 2.6977 3.26941 2.7839 3.33081L2.3884 3.38591C2.3193 3.50861 2.2909 3.65681 2.297 3.82561C2.4093 3.89141 2.5188 3.97091 2.6274 4.04501L2.2374 4.14311L2.2247 4.58072C2.3295 4.66032 2.51849 4.74411 2.62849 4.80791C2.50769 4.88771 2.4075 4.82391 2.2705 4.90901C2.2083 5.46291 2.52409 5.3236 2.79179 5.5415L2.4687 5.62741C2.481 6.06071 2.8128 5.9842 3.1196 6.13L2.7785 6.17671C2.8171 6.47911 3.2368 6.4718 3.5395 6.5153C3.4196 6.5728 3.3241 6.54502 3.2351 6.60692C3.4498 6.84132 4.2239 6.76132 4.5991 6.76012C4.7144 6.75982 4.8519 6.77022 4.9636 6.75992C5.1429 6.74322 5.0839 6.68821 5.2338 6.63711C5.3834 6.58611 5.3666 6.62811 5.5057 6.51491C5.6165 6.42451 5.5727 6.45891 5.6449 6.29141L5.7058 6.24501C5.7413 6.22861 5.7473 6.22971 5.7752 6.21321C5.8715 6.15621 5.96119 6.00821 5.98399 5.89661C6.02599 5.68971 5.9312 5.7923 6.0888 5.6318C6.2581 5.4593 6.2154 5.2087 6.2257 5.0415C6.2309 4.9581 6.4657 4.60452 6.2672 4.10332C6.2133 3.96722 6.2655 3.96532 6.2755 3.86832C6.306 3.57092 6.0921 3.34931 6.092 3.34911C6.0455 3.25981 6.0795 2.98791 5.8912 2.81711C5.7756 2.71221 5.77939 2.83252 5.71519 2.63582C5.66729 2.48892 5.6908 2.50101 5.5675 2.40971C5.4875 2.35041 5.4206 2.33 5.2802 2.3278C5.1887 2.0536 5.02959 2.17431 4.80569 2.10551C4.65789 2.06011 4.7988 2.10351 4.7185 2.05911C4.6443 2.01761 4.8037 2.04171 4.6324 2.01741C3.6506 1.94841 3.8567 2.07521 3.6372 2.11951C3.5017 2.14681 3.47849 2.10851 3.37109 2.21231ZM3.9608 2.32422L4.1236 2.36652C3.9549 2.61662 3.7228 2.58832 3.4465 2.73662L3.6906 2.75531C3.6671 3.09521 3.17399 3.27941 3.10149 3.34221C3.22089 3.34721 3.23769 3.32762 3.33829 3.37752C3.34139 3.81272 3.13249 3.89981 2.93259 4.03911L2.981 4.05571C2.9874 4.05671 2.99919 4.06071 3.00729 4.06271L3.1634 4.08292C3.2522 4.71832 3.033 4.67701 2.9337 4.83411C3.1383 4.83811 3.1679 4.79042 3.2174 4.99312C3.3219 5.42092 3.283 5.36762 3.0877 5.53812C3.2724 5.55792 3.3362 5.51191 3.4228 5.65251C3.672 6.05651 3.5202 5.94701 3.4217 6.14311C3.6758 6.14411 3.6851 6.10512 3.8236 6.25072C3.983 6.41812 3.9971 6.34441 3.9374 6.52881C4.2793 6.53181 4.2781 6.65661 4.5572 6.69981C4.1048 6.42971 4.3051 6.49701 4.1819 6.39111C4.1305 6.34691 3.9125 6.29641 3.8519 6.04811C3.7806 5.75601 3.8124 5.98801 3.671 5.80341C3.5889 5.69611 3.5708 5.58252 3.5752 5.45862C3.5828 5.24352 3.3808 5.25292 3.3951 4.87642C3.3982 4.79342 3.4031 4.81631 3.4193 4.76401C3.4967 4.51441 3.236 4.44311 3.4331 4.04111C3.5462 3.81061 3.36119 3.86121 3.50999 3.48801C3.60339 3.25371 3.65529 3.42032 3.68259 3.20792C3.69329 3.12422 3.64179 3.12151 3.78709 2.89891C3.87439 2.76501 3.865 2.80991 3.91 2.78671C4.0199 2.73001 3.97039 2.83982 4.03899 2.68892C4.08699 2.58342 4.0156 2.64981 4.078 2.55261C4.1684 2.41181 4.25059 2.46191 4.35889 2.37311C4.41859 2.32401 4.4307 2.23101 4.6251 2.16251C4.376 2.23091 4.2686 2.28282 3.9608 2.32422ZM4.7262 2.99731C4.2191 3.18281 3.973 3.94011 4.0281 4.64401C4.0733 5.22241 4.44909 6.13422 5.10699 5.88202C6.22489 5.45342 5.8387 2.59031 4.7262 2.99731Z" fill="black"/>
</svg>
