<svg width="23" height="22" viewBox="0 0 23 22" fill="none" xmlns="http://www.w3.org/2000/svg">
<path fill-rule="evenodd" clip-rule="evenodd" d="M5.99989 1.2C3.34939 1.2 1.2 3.3495 1.2 6C1.2 8.6505 3.34939 10.8 5.99989 10.8C8.65039 10.8 10.7999 8.6505 10.7999 6C10.7999 3.3495 8.65039 1.2 5.99989 1.2ZM0 6C0 2.6869 2.68679 0 5.99989 0C9.31299 0 11.9999 2.6869 11.9999 6C11.9999 9.3131 9.31299 11.9999 5.99989 11.9999C2.68679 11.9999 0 9.3131 0 6Z" fill="#FF0000"/>
<path fill-rule="evenodd" clip-rule="evenodd" d="M7.01599 4.17081C6.94049 4.10881 6.9798 4.06881 6.9261 3.97541C6.8894 4.03911 6.76739 4.0019 6.76129 3.9958C6.73199 3.939 6.73599 3.7893 6.74359 3.7206C6.75409 3.6265 6.8941 3.50381 6.9868 3.92231L7.03189 4.10191C7.03889 4.21911 7.04089 4.12921 7.01599 4.17081ZM7.7675 5.73331L7.6496 5.52691C7.6265 5.48451 7.6212 5.47711 7.6304 5.45961L7.6129 5.51151C7.6741 5.64761 7.74909 5.76541 7.80569 5.89331L7.6628 5.97551C7.4816 5.73141 7.44959 5.86881 7.33069 5.99891C7.05189 6.30391 7.15759 6.3011 7.01019 6.5387C7.07259 6.6876 7.36449 6.7534 6.91669 7.2033L6.60509 7.52151C6.52529 7.59331 6.107 7.70141 5.9673 7.71041C5.7579 7.72381 5.43489 7.63421 5.21249 7.61921L4.7506 7.72231C4.679 7.72231 4.72379 7.75341 4.69919 7.69461C4.65369 7.89701 4.44159 8.1248 4.32379 8.2219C3.76469 8.6827 2.8477 8.48021 2.545 7.78801C2.1603 6.90841 2.92869 5.986 3.84149 6.1776C3.94399 6.1991 4.13429 6.2877 4.17589 6.2919C4.21919 6.2422 4.23739 6.19481 4.26039 6.13411C4.27989 6.11391 4.2715 6.12571 4.2735 6.09171C4.0865 6.00701 4.12399 5.9913 3.86229 5.9011C3.72229 5.8528 3.52689 5.7912 3.38539 5.7602C3.37739 5.6655 3.33599 5.601 3.26579 5.5853C3.30579 5.6315 3.353 5.65361 3.3606 5.74771C3.0636 5.71301 2.8981 5.81961 2.6684 6.02761C2.6209 6.07051 2.5859 6.1091 2.5446 6.158C2.4492 6.271 2.2689 6.48271 2.1442 6.52291L2.70949 5.66441C2.69689 5.61801 2.68419 5.63751 2.69179 5.57141L2.73659 5.45681C2.67849 5.44881 2.6925 5.44451 2.6608 5.43151C2.6338 5.42041 2.6275 5.42571 2.5909 5.40441C2.4338 5.31301 2.44589 5.2519 2.37729 5.1538C2.34029 5.1011 2.30089 5.07491 2.28389 5.00991C2.44799 4.99451 2.8479 5.12761 3.0396 5.16171C3.0042 5.10581 2.93069 5.09911 2.88539 5.04341C2.96429 4.99411 3.11839 5.05181 3.21709 5.07571C3.34669 5.10711 3.4361 5.1136 3.5696 5.1277C3.9173 5.1644 3.91789 5.20211 4.16829 5.34021C4.28419 5.40411 4.3046 5.42121 4.4612 5.44621C5.1846 5.56161 5.08069 5.43111 5.46489 5.30301C5.49599 5.29111 5.51279 5.25511 5.53819 5.22591C5.56939 5.19001 5.59429 5.1667 5.62959 5.1371C5.86099 4.943 6.17379 4.92771 6.47299 4.91171C6.39769 4.92971 6.42499 4.8972 6.42259 4.8842C6.48659 4.8063 6.67939 4.81271 6.73849 4.89811L6.7556 4.9249C6.7566 4.9267 6.7596 4.931 6.7616 4.9337C7.1609 4.9869 7.00529 4.93341 7.12239 5.07021C7.15029 5.05761 7.17489 5.0445 7.20079 5.0293C7.20379 5.0274 7.2329 5.0094 7.2365 5.0064C7.2617 4.9856 7.2518 4.99921 7.2562 4.98251L7.16679 4.7079C7.13559 4.646 7.1769 4.70861 7.1207 4.66561C7.0891 4.64141 7.11869 4.6803 7.09129 4.6408L7.0199 4.5615C6.952 4.6174 7.03419 4.60971 6.85779 4.61071C6.81399 4.51851 6.8104 4.55501 6.7182 4.58031C6.5817 4.61771 6.6647 4.48001 6.6649 4.45911C6.6655 4.40151 6.64069 4.4248 6.66089 4.3558C6.71899 4.3245 6.74619 4.3572 6.82289 4.3236C6.90529 4.2874 6.866 4.27581 6.9834 4.27131L6.99759 4.16281C7.02869 4.19571 7.04179 4.25151 7.05049 4.29261C7.10289 4.21061 7.07029 4.2155 7.06659 4.1104C7.06359 4.0132 7.06629 3.90911 7.06659 3.81131C7.02909 3.74221 7.04889 3.81681 7.01509 3.74911C6.99039 3.69941 7.0003 3.47671 7.0002 3.41541L7.09639 3.423C7.16749 3.5808 7.05889 3.98641 7.11279 4.21001L7.2542 4.20021C7.2835 4.36221 7.2364 4.3338 7.3497 4.437C7.4304 4.5105 7.4115 4.5223 7.4554 4.5703C7.4884 4.6065 7.47139 4.59211 7.51079 4.61361C7.55429 4.57931 7.594 4.50881 7.6234 4.46301C7.6572 4.41031 7.6908 4.3508 7.7356 4.3218C7.8417 4.3479 8.0816 4.5763 8.1017 4.6804C8.0341 4.7376 7.9361 4.75631 7.8768 4.80231C7.9214 4.81961 8.03089 4.77421 8.10699 4.76471C8.11199 4.76401 8.1378 4.76181 8.1436 4.76271C8.1892 4.76931 8.1558 4.7543 8.1832 4.7812C8.2397 4.8925 8.16959 5.27271 8.15419 5.40441L7.75249 5.33961C7.77399 5.40571 7.8723 5.5887 7.9292 5.6398C8.0284 5.7291 7.98159 5.78021 8.05519 5.90511C8.08799 5.96091 8.13409 6.06701 8.17209 6.09801C8.55119 5.96611 8.9276 5.9286 9.2715 6.1711L9.3214 6.21721C9.3234 6.21931 9.32639 6.22351 9.32939 6.22681L9.1792 6.23801C9.505 6.39711 9.8067 6.70811 9.8508 7.18241C9.9418 8.16171 8.87099 8.77961 8.06189 8.26551C7.90899 8.16831 7.76339 8.02011 7.67369 7.84471C7.52189 7.54801 7.5607 7.48621 7.5347 7.14701L7.49379 7.30001C7.45889 7.35081 7.4998 7.31461 7.4467 7.33471C7.4241 6.77371 7.6763 6.3792 7.9935 6.1865C8.0134 6.1549 7.98549 6.1253 7.95959 6.0769C7.93849 6.0374 7.9193 6.00071 7.8978 5.95901C7.8579 5.88161 7.805 5.81821 7.7675 5.73331ZM8.0311 6.31171L7.9868 6.3413C8.02 6.3935 8.0042 6.3976 8.0643 6.3754C8.115 6.3985 8.08919 6.374 8.11449 6.4369L8.19919 6.58361C8.03419 6.73641 7.9335 6.80391 7.8566 7.05021C7.7236 7.47641 7.9301 7.93501 8.3459 8.11671C8.5579 8.20941 8.7987 8.2132 9.0134 8.1319C9.9122 7.7914 9.69269 6.39301 8.63249 6.43531L8.39049 6.4892C8.38949 6.4879 8.2516 6.32381 8.2977 6.24551C8.308 6.22801 8.3466 6.1858 8.2907 6.1734C8.2516 6.1648 8.28169 6.1864 8.23779 6.1786C8.18249 6.1688 8.25949 6.16571 8.17699 6.15471C8.13679 6.17161 8.06849 6.20441 8.05289 6.24211L8.0311 6.31171ZM8.49829 7.03571C8.52149 7.08821 8.60479 7.20831 8.60759 7.24421C8.61459 7.33931 8.58199 7.4319 8.75429 7.4113C8.77749 7.4035 8.91729 7.31001 8.76329 7.18901C8.73389 7.16581 8.7467 7.18291 8.722 7.14021L8.63919 6.96461C9.11149 6.95621 9.1529 7.48251 8.8344 7.62251C8.6363 7.70961 8.46129 7.59691 8.39639 7.48091C8.30779 7.32281 8.36319 7.09041 8.49829 7.03571ZM3.92599 6.9966L4.04179 6.8339L4.3416 6.82841C4.2512 6.65391 3.9709 6.47031 3.7005 6.44361C3.3025 6.40421 3.13849 6.60831 2.97279 6.72261C2.99819 6.73091 3.0038 6.73441 3.028 6.74041C3.067 6.75001 3.0385 6.74381 3.0788 6.74771C3.1374 6.75331 3.12839 6.7497 3.18669 6.7686C3.50669 6.8722 3.54649 6.81371 3.94119 6.82671C3.92819 6.87831 3.9138 6.92341 3.8821 6.95821C3.8964 6.97591 3.88809 6.96321 3.90489 6.97811C3.91189 6.98461 3.9173 6.994 3.9187 6.9902C3.9196 6.9877 3.92399 6.9942 3.92599 6.9966ZM2.7459 7.19241C2.7694 7.33531 2.7344 7.4195 2.7867 7.5788C2.8218 7.6858 2.87269 7.77381 2.93259 7.85031C3.04019 7.98791 3.2261 8.1292 3.4491 8.1688C3.9621 8.2598 4.4131 7.88651 4.4623 7.53271C4.4553 7.49771 4.4653 7.5143 4.4491 7.491C4.3561 7.4767 4.17459 7.42391 4.07449 7.42871L3.8241 7.3679L3.78239 7.44151C3.72939 7.51641 3.65029 7.5397 3.55859 7.5247C3.40889 7.5003 3.39829 7.41791 3.35959 7.28411L3.14349 7.2536C3.09879 7.2287 2.8188 7.18041 2.7459 7.19241Z" fill="black"/>
<path fill-rule="evenodd" clip-rule="evenodd" d="M3.14349 7.2536C3.09289 7.5169 3.2831 7.7384 3.5311 7.7779C3.9453 7.8439 4.04699 7.45501 4.07449 7.42871C4.17459 7.42391 4.3561 7.4767 4.4491 7.491C4.4651 7.5143 4.4551 7.49771 4.4623 7.53271C4.4131 7.88651 3.9621 8.2598 3.4491 8.1688C3.2261 8.1292 3.04019 7.98791 2.93259 7.85031C2.87269 7.77381 2.8218 7.6858 2.7867 7.5788C2.7344 7.4195 2.7694 7.3353 2.7459 7.1924C2.8188 7.1804 3.09879 7.2287 3.14349 7.2536Z" fill="#FDFDFD"/>
<path fill-rule="evenodd" clip-rule="evenodd" d="M3.92599 6.9966C3.92399 6.9942 3.91999 6.9877 3.91899 6.9902C3.91799 6.994 3.913 6.9846 3.9052 6.9781C3.8881 6.9632 3.8972 6.9759 3.8824 6.9582C3.9141 6.9234 3.9285 6.8783 3.9415 6.8267C3.5468 6.8137 3.507 6.8722 3.187 6.7686C3.1287 6.7497 3.1377 6.7533 3.0791 6.7477C3.0388 6.7438 3.06729 6.75 3.02829 6.7404C3.00409 6.7344 2.9985 6.7309 2.9731 6.7226C3.1388 6.6083 3.30279 6.4042 3.70079 6.4436C3.97119 6.4703 4.25149 6.6539 4.34189 6.8284L4.0421 6.8339L3.92599 6.9966Z" fill="white"/>
<path fill-rule="evenodd" clip-rule="evenodd" d="M9.2274 10.0012L9.99989 9.2286L2.7701 1.99879L2 2.77139L9.2274 10.0012Z" fill="#FF0000" stroke="#FF0000" stroke-width="0.0024"/>
</svg>
