<svg width="12" height="12" viewBox="0 0 12 12" fill="none" xmlns="http://www.w3.org/2000/svg">
<path fill-rule="evenodd" clip-rule="evenodd" d="M3.8218 7.06409C3.6937 7.17869 3.9948 7.15329 3.9948 7.15329C4.0448 7.16699 4.0264 7.18389 4.0438 7.30239C4.0918 7.62929 4.1955 8.08089 4.308 8.37119C4.3053 8.37359 4.3002 8.37269 4.2989 8.37709L4.2716 8.3946C4.2593 8.4027 4.254 8.40319 4.2374 8.41899L4.2507 8.46349C4.3255 8.52689 4.3279 8.44159 4.38 8.54289C4.5025 8.78139 4.5411 8.92359 4.7578 9.15949L4.9441 9.28559C4.992 9.31779 5.0447 9.3391 5.0683 9.3905C5.0533 9.4184 5.0609 9.41309 5.0062 9.43509C5.0035 9.43619 4.9978 9.43679 4.9938 9.43839C5.1361 9.47479 5.2291 9.4608 5.3529 9.4796C5.3286 9.5514 5.3583 9.50289 5.2976 9.54979C5.4354 9.49479 5.2809 9.4885 5.4973 9.501C5.313 9.4247 5.202 9.51299 5.1872 9.38089C5.3076 9.33769 5.5542 9.4675 5.6438 9.4199C5.7083 9.3856 5.8193 9.39859 5.8635 9.41489L5.8476 9.44419C5.8335 9.46199 5.8256 9.4598 5.8115 9.4861C5.8353 9.5537 5.8609 9.54989 5.8997 9.55149L6.0069 9.55259C6.182 9.50459 6.181 9.57369 6.1937 9.61459C6.1948 9.61199 6.1947 9.60439 6.1949 9.60619C6.1951 9.60809 6.1959 9.599 6.1962 9.5975C6.1965 9.5958 6.1973 9.59009 6.1977 9.58789L6.2086 9.54229C6.2295 9.54399 6.2999 9.5766 6.3362 9.5169C6.3752 9.4528 6.2944 9.45329 6.2977 9.41479C6.3549 9.39379 6.458 9.4022 6.5325 9.4054C6.4974 9.5094 6.5768 9.30889 6.4997 9.45799C6.4886 9.47939 6.484 9.44219 6.4837 9.51579C6.5429 9.39969 6.5395 9.46279 6.5634 9.40849C6.3356 9.34779 6.2701 9.43799 6.2086 9.44149C6.1856 9.41249 6.194 9.4708 6.1916 9.3905C6.2334 9.3407 6.2539 9.32599 6.3468 9.31519C6.202 9.19179 6.2088 9.2712 5.9815 8.981C5.9055 8.884 5.7862 8.66639 5.7404 8.52729C5.8039 8.52879 5.7881 8.53729 5.814 8.54269L5.8649 8.53629C5.9753 8.51939 5.8638 8.57339 6.0037 8.57389C5.9633 8.49669 6.0004 8.49669 5.9697 8.43909C5.9512 8.46579 5.973 8.423 5.9668 8.4599L5.9581 8.50399C5.8889 8.52849 5.7823 8.51549 5.699 8.51429C5.6022 8.51279 5.4907 8.54929 5.4676 8.46679C5.5093 8.40729 5.586 8.43759 5.6671 8.43699C5.7486 8.43639 5.8412 8.42759 5.9219 8.43959C5.9246 8.43629 5.9282 8.42649 5.9296 8.42929C5.934 8.43799 5.9326 8.40769 5.9857 8.38549L6.0369 8.46609C6.0675 8.55089 6.0725 8.5253 6.0132 8.5612C6.155 8.5451 6.1951 8.53159 6.2129 8.46679L6.1753 8.459C6.1375 8.449 6.1867 8.479 6.1354 8.4455C6.1422 8.3842 6.1705 8.36549 6.1927 8.30539C6.2402 8.25609 6.2772 8.17419 6.3156 8.11099C6.3334 8.08189 6.3559 8.03159 6.3928 8.04849C6.443 8.07139 6.3998 8.11379 6.3844 8.16249C6.4583 8.09719 6.4417 8.17179 6.5299 8.03959C6.6045 7.92789 6.5742 7.9842 6.592 7.8424L6.569 7.8713C6.5223 7.9328 6.532 7.93259 6.4835 7.93589C6.445 7.86359 6.5847 7.71689 6.6216 7.61829L6.5962 7.6587C6.5835 7.645 6.5856 7.64869 6.5732 7.62679C6.4865 7.47349 6.3831 6.78759 6.3721 6.62619L6.3053 6.66829C6.3077 6.66949 6.3122 6.66959 6.3133 6.66999C6.4148 6.70129 6.3617 6.80479 6.2635 6.88139C6.1877 6.94039 6.1107 7.04589 5.9957 6.95369C6.0403 6.88199 6.2789 6.90169 6.2905 6.69669C6.2141 6.73009 6.2648 6.74859 6.1811 6.74129C6.1661 6.67609 6.177 6.68749 6.211 6.65369L6.4147 6.48969C6.3799 6.47529 6.3679 6.5057 6.3567 6.4437C6.3277 6.283 6.3319 5.59639 6.3828 5.52139C6.3195 5.48929 6.3433 5.46989 6.2696 5.44339C6.2087 5.56759 6.0602 5.42929 6.0148 5.39569C5.8952 5.30709 5.8648 5.26469 5.9369 5.15509C5.8718 5.12359 5.8582 5.0759 5.7473 5.0122C5.776 5.0461 5.7727 5.02519 5.7903 5.07109C5.6769 5.12459 5.558 5.1231 5.4249 5.0891C5.4424 5.1449 5.3856 5.87129 5.3865 6.02999L5.4212 6.76899C5.4336 6.90289 5.4674 6.92599 5.3741 6.97289C5.3222 6.57629 5.3047 5.5784 5.3647 5.1386L5.4112 5.05939C5.376 5.02439 5.3782 5.0363 5.3784 4.9735L5.1976 4.97449L5.1446 6.01389C5.1445 6.37159 5.1749 6.70259 5.2063 7.05249L5.1755 7.03559C5.1524 7.03439 5.1705 6.99109 5.1585 7.05259C5.0364 7.05109 5.1156 7.00559 4.9509 7.00369C4.9155 7.00329 4.8626 7.00009 4.8301 7.00999C4.7407 7.03729 4.8433 7.04529 4.7274 7.05239C4.7053 7.02649 4.7098 7.04849 4.7116 6.99839C4.6976 7.02369 4.7008 7.0337 4.6637 7.0504C4.5533 6.8476 4.6017 5.2683 4.6595 4.9735L4.5045 4.9739L4.4755 5.03119C4.4652 5.04989 4.4507 5.07239 4.4348 5.08379C4.4022 5.10719 4.0397 5.1773 4.0406 4.9735C4.0158 4.9937 4.0058 4.97399 3.9968 5.07859C3.9683 5.40579 3.9502 5.66109 3.9503 5.99809C3.9503 6.36879 3.9771 6.6898 4.0087 7.0514C3.9491 7.0529 3.8621 7.04449 3.8218 7.06409Z" fill="#111111"/>
<path fill-rule="evenodd" clip-rule="evenodd" d="M6.8722 2.9189C6.8423 2.9604 6.5732 3.01679 6.3634 3.47089C6.3496 3.50079 6.3508 3.50559 6.3355 3.52409C6.3029 3.56369 6.3419 3.53759 6.2893 3.56129L6.275 3.641C6.2542 3.6518 6.296 3.68309 6.2399 3.63829L6.3567 3.8434C6.3598 3.8483 6.3726 3.86759 6.3764 3.87299C6.3912 3.89369 6.3896 3.89049 6.3988 3.90109L6.3753 3.8299C6.5169 3.8184 6.5288 3.868 6.5835 3.9507C6.6454 4.0445 6.6328 4.00929 6.6662 4.10559L6.6865 4.15599C6.7261 4.05439 6.8365 3.91389 6.9237 3.86209C6.9943 3.82019 7.0045 3.83699 7.0156 3.83849L7.04 3.848C7.0261 3.9236 6.9816 3.88969 6.9071 3.95689C6.7566 4.09289 6.7114 4.2683 6.6847 4.292C6.6427 4.3294 6.666 4.27849 6.6428 4.29399C6.675 4.34169 6.7367 4.41329 6.7236 4.47229C6.7197 4.47429 6.714 4.476 6.7113 4.4763C6.5995 4.491 6.7435 4.4988 6.6774 4.4782C6.6384 4.466 6.5581 4.29859 6.54 4.26199C6.4293 4.35319 6.3595 4.22969 6.3117 4.15919C6.2612 4.08489 6.2055 4.02899 6.2499 3.93789C6.2602 3.91679 6.2626 3.91949 6.2702 3.90849C6.2979 3.86849 6.271 3.91919 6.2904 3.87989C6.2628 3.83669 6.2225 3.77699 6.2075 3.73319L6.1597 3.7822C6.2078 3.7847 6.1847 3.77839 6.2054 3.80019C6.0459 4.21319 5.958 4.9948 5.9247 5.0537L5.9857 5.1041L6.0133 5.07069C6.1197 4.99049 6.4506 5.2369 6.336 5.3653C6.2547 5.3218 6.2959 5.168 6.0153 5.1199C6.0584 5.1776 6.0679 5.13959 6.0642 5.21769C6.0072 5.24539 6.0219 5.22609 5.9708 5.19859C6.0006 5.38849 6.2272 5.41259 6.2696 5.44339C6.2535 5.42179 6.2622 5.4324 6.2401 5.4091C6.1819 5.3479 6.1741 5.36519 6.1758 5.29749C6.2823 5.29369 6.3693 5.44209 6.4645 5.48949C6.4496 5.38409 6.5018 4.98659 6.5419 4.89709C6.6076 4.75019 6.7505 4.58989 6.9151 4.76609C7.1132 4.97819 7.174 5.45089 7.1906 5.79289C7.2101 6.19699 7.1846 6.62069 7.0675 6.98499C7.0192 7.13539 6.9324 7.34279 6.7808 7.34919C6.6124 7.35629 6.5081 7.0795 6.4959 6.9931C6.4949 6.9857 6.4918 6.98419 6.4889 6.98029C6.4961 7.13659 6.551 7.31939 6.5887 7.46339C6.6462 7.49199 6.5638 7.48139 6.6105 7.45599C6.6618 7.42799 6.5712 7.42579 6.6211 7.44749C6.6299 7.46919 6.651 7.50729 6.6507 7.52699C6.6497 7.59219 6.6218 7.49179 6.6216 7.61829C6.6879 7.55839 6.6237 7.5472 6.7183 7.5584C6.7409 7.6117 6.6699 7.7067 6.6408 7.7501C6.6702 7.7578 6.6129 7.76729 6.6549 7.74609L6.6875 7.72569C6.7061 7.81509 6.7845 7.93909 6.8314 8.00319C6.9642 8.18429 7.0265 8.0903 7.04 8.196C6.8931 8.268 6.6848 7.88749 6.6545 7.84449C6.686 7.98729 6.6399 8.0011 6.5753 8.1008C6.5497 8.1404 6.5358 8.17079 6.4927 8.19469C6.4479 8.21969 6.377 8.24109 6.3844 8.16249L6.24 8.3862C6.2435 8.3877 6.2474 8.3852 6.2479 8.3876C6.2566 8.4277 6.252 8.3552 6.2779 8.4115C6.2959 8.4505 6.29 8.47419 6.2877 8.51509C6.3331 8.50179 6.3391 8.57169 6.4097 8.69539C6.5513 8.94359 6.6408 9.01909 6.8818 9.13779C6.9547 9.06249 6.9474 9.05669 7.0242 9.01249C7.0276 9.01059 7.0322 9.008 7.0353 9.0061L7.058 8.99229C7.0569 8.89879 7.0299 8.76229 7.0687 8.69299C7.1629 8.70689 7.1331 8.79549 7.1312 8.88079C7.126 9.10579 7.1666 9.11679 7.1007 9.16929C7.0348 9.22189 6.9897 9.1941 6.938 9.1946C6.8708 9.1952 6.9123 9.24309 6.8133 9.31139L6.9571 9.2603L6.9731 9.33949C7.0335 9.28869 7.0229 9.31219 7.0711 9.30159C7.2237 9.26809 7.1333 9.1512 7.1516 9.0476C7.1806 9.0817 7.2042 9.08069 7.2269 9.12069C7.2573 9.17439 7.2379 9.19889 7.2545 9.24619C7.2688 9.02309 7.3125 9.1813 7.5412 8.8434C7.588 8.7741 7.6235 8.71089 7.6642 8.63189L7.7497 8.4628C7.774 8.4153 7.7738 8.49459 7.761 8.39869C7.7576 8.40189 7.7532 8.40259 7.7518 8.40919L7.5317 8.81889C7.4915 8.88049 7.3237 9.08959 7.2643 9.10629C7.2137 9.12059 7.202 9.08689 7.2576 9.03959C7.3575 8.95469 7.33 8.98819 7.4272 8.87289C7.5883 8.68179 7.7188 8.34509 7.7977 8.09629C7.8363 7.97449 7.856 8.0175 7.8279 7.9273C7.8022 7.9742 7.8013 7.9915 7.7222 7.9581C7.6705 7.9363 7.6636 7.90799 7.6324 7.85529C7.5711 7.75179 7.5202 7.73079 7.5635 7.59389C7.5212 7.64379 7.5431 7.7446 7.4145 7.953C7.3563 8.0474 7.2576 8.1876 7.1292 8.1992C7.1377 8.0801 7.1546 8.16259 7.2592 8.05199C7.387 7.91689 7.4864 7.66849 7.5368 7.48669L7.5751 7.47929C7.5474 7.42559 7.5269 7.40709 7.5274 7.33279L7.585 7.33809C7.5663 7.31449 7.5658 7.3078 7.5787 7.252C7.6319 7.0222 7.6545 6.75529 7.6717 6.67899C7.688 6.60619 7.6281 6.59549 7.7217 6.60999L7.6644 6.57729C7.6949 6.49449 7.6848 6.5677 7.703 6.5029C7.7336 6.3942 7.7158 5.76639 7.7083 5.61459C7.7029 5.50669 7.6931 5.5443 7.7502 5.5033C7.7896 5.5555 7.779 5.66259 7.7818 5.72709L7.771 6.50779L7.7217 6.53429L7.848 6.5738C7.801 6.5437 7.7934 6.5642 7.811 6.5182C7.8446 6.4303 8.0266 6.4883 8.0647 6.495L8.0574 5.6302C8.0574 5.5612 8.0492 5.57119 8.0901 5.53729C7.9626 5.55559 7.8731 5.61839 7.8008 5.50439C7.8692 5.44069 7.8573 5.5149 7.9864 5.4842C8.091 5.4594 8.0586 5.42849 8.1188 5.37809C8.0506 5.39169 8.0494 5.424 7.9956 5.377C8.01 5.3053 8.017 5.34189 8.0764 5.29729C7.8441 5.24679 7.8794 5.3651 7.7641 5.3928C7.7633 5.2143 7.9692 5.17949 8.1093 5.23689C8.0939 5.05829 8.073 4.87859 8.0443 4.70399C8.031 4.62289 8.0177 4.5441 8.0003 4.46C7.9716 4.3206 7.9932 4.31639 7.986 4.19939C7.9451 4.33449 8.0065 4.23259 7.8917 4.41639C7.8722 4.44769 7.8542 4.4863 7.8246 4.5084C7.7736 4.5466 7.7399 4.53109 7.7398 4.53109C7.7078 4.52639 7.7139 4.5252 7.701 4.5169C7.7459 4.4118 7.8519 4.4683 7.8944 4.1964C7.9022 4.1463 7.8772 4.16959 7.9179 4.14539C7.9637 4.11809 7.9288 4.15969 7.9584 4.15059C7.9033 4.09829 7.9262 4.12119 7.9436 4.03809C7.8985 4.10949 7.892 4.23769 7.8078 4.23869C7.7769 4.17949 7.831 4.08249 7.8613 4.02319C7.8595 4.02209 7.8553 4.02099 7.8548 4.02299C7.8542 4.02509 7.8482 4.0417 7.8215 4.0052L7.7348 3.75579C7.6334 3.47469 7.4984 3.18159 7.2591 3.00359C7.1958 2.95659 7.2224 2.98689 7.2164 2.94119L7.1451 2.99329C7.1451 2.89919 7.1835 2.8619 7.1558 2.8088C7.1386 2.7758 7.0811 2.7465 7.0527 2.7039C7.0519 2.7056 7.053 2.70729 7.053 2.70959C7.0531 2.71199 7.0533 2.71479 7.0533 2.71529C7.0552 2.76619 7.0769 2.71289 7.0527 2.74319L6.9859 2.70329L6.9572 2.76719L6.8582 2.74579C6.8688 2.77639 6.8755 2.79709 6.8919 2.81609C6.9625 2.89799 6.8919 2.7827 7.1313 2.8755L7.1323 3.27559C7.1241 3.33989 7.1269 3.3405 7.0773 3.3447C7.0222 3.2848 7.0576 3.1182 7.058 3.0229C6.9542 3.0192 6.9367 2.9483 6.8722 2.9189Z" fill="#111111"/>
<path fill-rule="evenodd" clip-rule="evenodd" d="M5.8752 2.6097C5.9009 2.5859 5.943 2.5899 5.9856 2.5899C5.9632 2.7631 5.8736 2.7462 5.6077 2.7266C5.4246 2.713 5.1841 2.9823 5.0911 3.11C5.0066 3.226 4.997 3.2686 4.9386 3.3701C4.906 3.4268 4.9347 3.3775 4.9185 3.402C4.9135 3.403 4.9072 3.4041 4.9034 3.4044L4.8758 3.4068L4.8377 3.4014C4.8979 3.4021 4.9302 3.4452 4.9376 3.5125C4.8228 3.5101 4.8906 3.467 4.7279 3.4638C4.5753 3.4608 4.6206 3.4729 4.5299 3.5273C4.6035 3.5293 4.5852 3.5123 4.6212 3.5613C4.5994 3.6017 4.6331 3.5869 4.5653 3.6069L4.2815 3.642C4.2632 3.6799 4.2653 3.608 4.2897 3.6523C4.3156 3.6992 4.2696 3.7663 4.2316 3.894C4.1627 4.1256 4.0272 4.6695 4.0299 4.878C3.9632 4.8838 3.8691 4.8706 3.8206 4.8982C3.8789 4.9005 3.9365 4.9006 3.9949 4.9002C4.0484 4.8997 4.1257 4.8876 4.1699 4.9184L4.1774 4.8935C4.1901 4.8717 4.1811 4.8546 4.2337 4.8482C4.2635 4.8968 4.2373 4.9783 4.2241 5.0319C4.3023 5.0318 4.3476 5.0402 4.41 5.014C4.3942 4.935 4.4455 5.0518 4.397 4.9925C4.326 4.9056 4.3573 5.0117 4.3441 4.9098C4.4199 4.8886 4.7935 4.8821 4.8485 4.9183C4.844 5.0327 4.7189 4.9321 4.7898 5.0092C4.8331 5.0563 5.0623 5.0209 5.079 5.014C5.0631 4.935 5.1145 5.0518 5.066 4.9925C4.9947 4.9055 5.0261 5.0121 5.013 4.9098C5.0905 4.888 5.4584 4.8817 5.5174 4.9183C5.5127 5.0318 5.3886 4.9327 5.4565 5.0111C5.4802 5.0384 5.4611 5.0234 5.5045 5.0308C5.562 5.0406 5.7083 5.0315 5.7473 5.0122C5.7166 4.9562 5.7053 4.9966 5.691 4.9151C5.7138 4.9021 5.6961 4.9017 5.7305 4.9028C5.7752 4.9044 5.7348 4.8925 5.7777 4.9194C5.7197 4.833 5.7381 4.8376 5.6035 4.8375C5.4299 4.8375 5.5016 4.8807 5.3729 4.8822C5.41 4.7407 5.5071 4.7593 5.6521 4.7634C5.784 4.7672 5.8723 4.838 5.8104 4.9618L5.8833 5.0105C5.8862 5.0124 5.8911 5.0159 5.8953 5.018C5.9081 4.6823 6.0508 4.0661 6.1597 3.7822L5.947 3.7343C5.9823 3.7903 5.9371 3.8535 5.9032 3.9728C5.844 4.1806 5.7793 4.4328 5.747 4.6458C5.7342 4.7299 5.75 4.7495 5.683 4.759L5.6724 4.7342C5.6602 4.6737 5.6867 4.5748 5.7025 4.4881C5.7323 4.3244 5.8349 3.7967 5.9305 3.7227C5.8547 3.6978 5.8364 3.6933 5.8265 3.606C5.9093 3.6073 5.8813 3.6109 5.9395 3.6457C5.96 3.5799 5.9465 3.638 5.9638 3.6045C5.9827 3.5678 5.9651 3.6187 5.9818 3.5585C5.9995 3.4949 5.9822 3.5048 6.0219 3.4689C5.8834 3.454 5.8889 3.5887 5.8328 3.4679C5.8126 3.5292 5.8346 3.5121 5.7509 3.5125C5.808 3.254 6.2058 2.6973 6.4591 2.7366C6.29 2.8377 6.2468 2.8395 6.1096 3.0166C6.0241 3.127 5.9269 3.2737 5.8699 3.4222C5.9655 3.3874 6.0065 3.3868 6.1109 3.4199C6.2291 3.4573 6.263 3.4479 6.2893 3.5613C6.3419 3.5376 6.3029 3.5637 6.3355 3.5241C6.3508 3.5056 6.3496 3.5008 6.3634 3.4709C6.5732 3.0168 6.8423 2.9604 6.8722 2.9189C6.8322 2.8495 6.7323 2.7848 6.8265 2.7226C6.4351 2.555 6.8091 2.722 6.3995 2.7211C6.2725 2.7208 6.2088 2.7153 6.1884 2.6026C6.3076 2.605 6.2795 2.6806 6.5485 2.6387C6.5445 2.6372 6.5382 2.6321 6.5359 2.6361L6.4952 2.6315C6.4798 2.631 6.4494 2.6329 6.4322 2.6333C6.3824 2.6343 6.3531 2.6345 6.3042 2.6264V2.5919L5.8752 2.6097Z" fill="#111111"/>
<path fill-rule="evenodd" clip-rule="evenodd" d="M4.71161 6.9984C4.78271 6.9371 4.76461 6.9327 4.88071 6.9298C4.83841 6.4012 4.81791 5.739 4.87131 5.2004C4.87951 5.1176 4.86351 5.1323 4.91861 5.1181C4.95751 5.137 4.95161 5.087 4.94611 5.1919C4.93031 5.4918 4.90321 5.6254 4.90261 5.9981C4.90211 6.3169 4.94441 6.6297 4.94661 6.9298C5.04151 6.9297 5.06311 6.9397 5.12861 6.9676C5.06581 6.3518 5.06071 5.6862 5.12961 5.0724C4.98851 5.1257 4.82971 5.1424 4.71161 5.0405C4.71301 5.2443 4.65971 5.6542 4.65981 6.014C4.65981 6.4153 4.70821 6.7196 4.71161 6.9984Z" fill="black"/>
<path fill-rule="evenodd" clip-rule="evenodd" d="M4.8377 3.4014C4.8379 3.4014 4.8747 3.4068 4.8758 3.4068L4.9034 3.4044C4.9072 3.4041 4.9135 3.403 4.9185 3.402C4.9347 3.3775 4.906 3.4268 4.9386 3.3701C4.997 3.2686 5.0066 3.226 5.0911 3.11C5.1841 2.9823 5.4246 2.713 5.6077 2.7266C5.8736 2.7462 5.9632 2.7631 5.9856 2.5899C5.943 2.5899 5.9009 2.5859 5.8752 2.6097C5.7999 2.6435 5.7287 2.6324 5.6449 2.6297L5.6747 2.5967C5.7168 2.5098 5.6322 2.5236 5.621 2.4816C5.6941 2.4604 5.7841 2.462 5.8582 2.4776C5.8631 2.5175 5.8541 2.446 5.8547 2.4947C5.8549 2.5089 5.8459 2.4909 5.8582 2.5159L6.3042 2.5141L6.3049 2.482C6.3048 2.4813 6.3038 2.4779 6.3042 2.4759L6.5272 2.4703C6.5317 2.5164 6.523 2.4489 6.5236 2.4947C6.5238 2.5069 6.5157 2.4925 6.5272 2.5168L6.6099 2.5294C6.5252 2.444 6.5528 2.4477 6.3993 2.4487C6.3077 2.4492 6.3374 2.4423 6.2672 2.4743C6.2479 2.4831 6.2378 2.5192 6.1839 2.4543C6.182 2.4521 6.1795 2.4466 6.1767 2.4432C6.1592 2.5196 6.1056 2.4909 6.0175 2.4909C5.9705 2.472 5.9881 2.4825 5.978 2.4147C5.9753 2.4186 5.9728 2.4207 5.972 2.4275L5.9538 2.4908C5.8322 2.4801 5.9564 2.4488 5.7303 2.4486C5.532 2.4484 5.6514 2.491 5.5511 2.5212C5.4679 2.4594 5.5664 2.5579 5.5294 2.4904L5.5129 2.4552C5.5116 2.4524 5.5104 2.4465 5.5077 2.443C5.4914 2.6062 5.4592 2.508 5.3364 2.5447C5.2146 2.5812 5.1227 2.5558 4.9834 2.5941C5.025 2.6287 5.036 2.6117 5.0643 2.6535C5.0288 2.697 4.8758 2.7967 4.8265 2.8292C4.7121 2.9046 4.7841 2.8628 4.7127 2.9269C4.5381 3.0836 4.3672 3.511 4.3445 3.5289C4.3119 3.5547 4.3481 3.5273 4.3123 3.5438L4.4956 3.5163C4.5402 3.3466 4.6496 3.4036 4.8377 3.4014Z" fill="black"/>
<path fill-rule="evenodd" clip-rule="evenodd" d="M7.72171 6.61C7.62811 6.5955 7.68801 6.6062 7.67171 6.679C7.65451 6.7553 7.63191 7.0222 7.57871 7.252C7.56581 7.3078 7.56631 7.3145 7.58501 7.3381C7.60871 7.3794 7.62581 7.4127 7.64711 7.4569C7.67661 7.5181 7.64441 7.4612 7.68011 7.5186L7.72221 7.5787L7.70631 7.512C7.86051 7.488 8.00001 7.7312 7.95671 7.88L7.97241 7.8599C8.02231 7.7614 7.95211 7.8127 7.99701 7.6096C8.04871 7.3757 8.07761 7.1243 8.10261 6.8878C8.11141 6.8052 8.10741 6.7924 8.16891 6.7799C8.10411 6.73 8.01021 6.7371 7.99871 6.6538L8.09431 6.6352C8.07001 6.5707 8.07721 6.5772 8.00531 6.5562C7.94881 6.5397 7.90711 6.5426 7.85861 6.5541C7.87431 6.6216 7.89921 6.5663 7.91261 6.6572C7.84901 6.6705 7.78391 6.634 7.72171 6.61Z" fill="black"/>
<path fill-rule="evenodd" clip-rule="evenodd" d="M4.2507 8.4635C4.3268 8.4897 4.3448 8.4825 4.4305 8.4926L4.5675 8.5063C4.6858 8.4863 4.4755 8.5423 4.5952 8.4976C4.5995 8.496 4.6045 8.4921 4.6079 8.4906C4.6113 8.489 4.6165 8.4859 4.6202 8.4827C4.5993 8.405 4.61 8.4553 4.5309 8.4199C4.5991 8.4038 4.6639 8.3312 4.7185 8.4117C4.7308 8.4299 4.7325 8.4445 4.7408 8.4698C4.776 8.5766 4.7827 8.5545 4.8071 8.5655C4.8284 8.5521 4.8297 8.5596 4.8272 8.5253C4.8272 8.5246 4.8254 8.5208 4.8253 8.5203C4.8252 8.5198 4.8226 8.5173 4.823 8.5155C4.8756 8.5159 5.2642 8.529 5.2898 8.502C5.3256 8.4641 5.2797 8.414 5.2519 8.3892C5.3028 8.3794 5.3832 8.3733 5.4435 8.378C5.5676 8.3876 5.4681 8.4239 5.6119 8.4264C5.5768 8.2758 5.4263 8.2861 5.2348 8.3119C5.2292 8.222 5.1254 7.9189 5.0963 7.7954L5.0153 7.397C5.0143 7.3898 5.0057 7.3307 5.0053 7.3296C4.9796 7.2611 5.0282 7.2947 4.9504 7.285C4.9253 7.3203 4.9246 7.2994 4.9492 7.4323L5.1723 8.311C5.18 8.3317 5.2094 8.3535 5.1415 8.4402H5.0354L4.7654 7.36C4.7476 7.2456 4.7582 7.2849 4.711 7.2069C4.6811 7.1576 4.718 7.1859 4.667 7.1555C4.6887 7.3647 4.7318 7.5798 4.7754 7.7826C4.8187 7.984 4.9227 8.2863 4.9389 8.3702C4.8873 8.3285 4.8476 8.3044 4.7438 8.3035C4.6445 8.3027 4.5896 8.3115 4.5172 8.3426C4.4951 8.1877 4.3335 7.7565 4.2852 7.3943C4.2842 7.3867 4.2758 7.3278 4.2754 7.3269C4.2492 7.261 4.3016 7.295 4.2178 7.285C4.1892 7.3331 4.2334 7.5109 4.246 7.579L4.3866 8.1552C4.4243 8.2774 4.4338 8.3356 4.4971 8.4233C4.4416 8.4186 4.395 8.4101 4.3425 8.4048C4.255 8.3959 4.2515 8.3852 4.2507 8.4635Z" fill="#FDFDFD"/>
<path fill-rule="evenodd" clip-rule="evenodd" d="M5.9395 3.6457C5.8813 3.6109 5.9093 3.6073 5.8265 3.606C5.8364 3.6933 5.8547 3.6978 5.9305 3.7227C5.8349 3.7967 5.7323 4.3244 5.7025 4.4881C5.6867 4.5748 5.6602 4.6737 5.6724 4.7342L5.683 4.759C5.75 4.7495 5.7342 4.7299 5.747 4.6458C5.7793 4.4328 5.844 4.1806 5.9032 3.9728C5.9371 3.8535 5.9823 3.7903 5.947 3.7343L6.1597 3.7822L6.2075 3.7332C6.2225 3.777 6.2628 3.8367 6.2904 3.8799C6.271 3.9192 6.2979 3.8685 6.2702 3.9085C6.2626 3.9195 6.2602 3.9168 6.2499 3.9379C6.2055 4.029 6.2612 4.0849 6.3117 4.1592C6.3595 4.2297 6.4293 4.3532 6.54 4.262C6.5581 4.2986 6.6384 4.466 6.6774 4.4782C6.7435 4.4988 6.5995 4.491 6.7113 4.4763C6.714 4.476 6.7197 4.4743 6.7236 4.4723C6.7367 4.4133 6.675 4.3417 6.6428 4.294C6.666 4.2785 6.6427 4.3294 6.6847 4.292C6.7114 4.2683 6.7566 4.0929 6.9071 3.9569C6.9816 3.8897 7.0261 3.9236 7.04 3.848L7.0156 3.8385C7.0045 3.837 6.9943 3.8202 6.9237 3.8621C6.8365 3.9139 6.7261 4.0544 6.6865 4.156L6.6662 4.1056C6.6328 4.0093 6.6454 4.0445 6.5835 3.9507C6.5288 3.868 6.5169 3.8184 6.3753 3.8299L6.3988 3.9011C6.3896 3.8905 6.3912 3.8937 6.3764 3.873C6.3726 3.8676 6.3598 3.8483 6.3567 3.8434L6.2399 3.6383C6.2046 3.594 6.2234 3.5901 6.1667 3.5692C6.1442 3.5836 6.1238 3.5744 6.1388 3.6297C6.1426 3.6434 6.1669 3.6838 6.1754 3.7118L5.9395 3.6457Z" fill="#FDFDFD"/>
<path fill-rule="evenodd" clip-rule="evenodd" d="M4.8013 3.5454C4.8179 3.6685 4.8274 3.55099 4.8584 3.61729C4.8885 3.68179 4.6394 3.6572 4.6331 3.6563C4.5343 3.6418 4.4998 3.51279 4.397 3.86739C4.3622 3.98729 4.1907 4.6179 4.2104 4.7347C4.211 4.7382 4.2132 4.7441 4.2138 4.7469C4.2144 4.7498 4.2159 4.7552 4.2178 4.759C4.3019 4.7489 4.2717 4.7099 4.3132 4.5029C4.3336 4.4013 4.3556 4.3022 4.3799 4.202L4.5006 3.79569C4.5379 3.68629 4.5237 3.73279 4.4895 3.65149C4.5514 3.72789 4.5815 3.741 4.7278 3.7393C4.7734 3.7388 4.8319 3.73579 4.8685 3.71819C4.8934 3.70629 4.8964 3.70079 4.9131 3.68359L4.9468 3.64489C4.949 3.64239 4.9526 3.63779 4.9559 3.63459L4.782 4.23719C4.7557 4.35079 4.6476 4.808 4.6797 4.8784C4.7037 4.8525 4.6784 4.88219 4.6977 4.85119C4.786 4.70909 4.7478 4.78139 4.7863 4.57629L4.9488 3.91039C4.9787 3.81019 5.032 3.693 5.0491 3.5995H5.1415C5.1812 3.6562 5.1588 3.67799 5.2136 3.71219C5.2317 3.72339 5.5893 3.817 5.6076 3.606C5.5206 3.6083 5.4961 3.69019 5.3008 3.65789C5.2448 3.63879 5.2754 3.65419 5.2843 3.61549L5.2976 3.53169C5.2173 3.52119 4.8569 3.5129 4.8013 3.5454Z" fill="#FDFDFD"/>
<path fill-rule="evenodd" clip-rule="evenodd" d="M5.52269 9.39051C5.58269 9.43461 5.74939 9.37481 5.83869 9.39651C5.88419 9.40761 5.88299 9.4206 5.89129 9.4249C5.90169 9.4303 5.8856 9.45961 5.9474 9.43541C5.9909 9.41841 5.9556 9.4518 5.9803 9.3917C5.996 9.477 5.96359 9.41771 6.01749 9.44151H6.14489C6.19999 9.41421 6.1608 9.44611 6.1916 9.39051C6.2097 9.32231 6.19749 9.35511 6.23829 9.31731C5.82159 9.19221 5.67299 8.66011 5.58649 8.60801C5.54359 8.65681 5.5293 8.64781 5.6461 8.83881C5.9117 9.27321 6.0186 9.22061 6.1981 9.34391C5.8141 9.37401 5.48009 8.9235 5.38879 8.6483C5.53009 8.6483 5.58439 8.65461 5.61309 8.52721L5.50809 8.53531C5.50199 8.55261 5.55979 8.54741 5.48639 8.56691C5.35729 8.60121 5.20669 8.52761 5.15849 8.52731C5.17039 8.58441 5.18459 8.60931 5.23209 8.63071C5.33039 8.67511 5.28479 8.6064 5.33809 8.7173C5.40659 8.8602 5.52829 9.04601 5.63809 9.14881C5.74819 9.25201 5.82229 9.27631 5.86149 9.31421C5.70999 9.32061 5.69119 9.32521 5.55429 9.21691C5.34859 9.05391 5.24219 8.861 5.12889 8.6226C5.08489 8.5299 5.11509 8.52861 5.01089 8.52721C5.07169 8.75611 5.34449 9.19031 5.62569 9.30231C5.59709 9.33151 5.56959 9.33471 5.52269 9.39051Z" fill="#FDFDFD"/>
<path fill-rule="evenodd" clip-rule="evenodd" d="M5.7473 5.0122C5.8582 5.0759 5.8718 5.12359 5.9369 5.15509C5.8648 5.26469 5.8952 5.30709 6.0148 5.39569C6.0602 5.42929 6.20869 5.56759 6.26959 5.44339C6.22719 5.41259 6.00059 5.38849 5.97079 5.19859C6.02189 5.22609 6.00719 5.24539 6.06419 5.21769C6.06789 5.13959 6.0584 5.1776 6.0153 5.1199C6.2959 5.168 6.25469 5.3218 6.33599 5.3653C6.45059 5.2369 6.11969 4.99049 6.01329 5.07069L5.98569 5.1041L5.92469 5.0537C5.95799 4.9948 6.04589 4.21319 6.20539 3.80019C6.18469 3.77839 6.20779 3.7847 6.15969 3.7822C6.05079 4.0661 5.90809 4.68229 5.89529 5.01799C5.89109 5.01589 5.8862 5.01239 5.8833 5.01049L5.81039 4.9618C5.87229 4.838 5.78399 4.76719 5.65209 4.76339C5.50709 4.75929 5.40999 4.74069 5.37289 4.88219C5.50159 4.88069 5.42989 4.83749 5.60349 4.83749C5.73809 4.83759 5.71969 4.833 5.77769 4.9194C5.73479 4.8925 5.7752 4.90439 5.7305 4.90279C5.6961 4.90169 5.71379 4.90209 5.69099 4.91509C5.70529 4.99659 5.7166 4.9562 5.7473 5.0122Z" fill="#FDFDFD"/>
<path fill-rule="evenodd" clip-rule="evenodd" d="M4.711 7.20689C4.765 7.25739 4.8214 7.27649 4.9346 7.27629C5.0851 7.27599 5.0725 7.27359 5.1564 7.19469C5.1887 7.40059 5.2183 7.58699 5.2636 7.78869L5.3739 8.2029C5.4013 8.2974 5.3793 8.29389 5.4781 8.29469C5.4322 8.10959 5.3699 7.93829 5.3261 7.74019C5.2834 7.54749 5.26 7.321 5.2116 7.1395L5.3783 7.13959C5.3767 7.28309 5.4833 7.27699 5.6198 7.27619C5.7654 7.27539 5.8304 7.2463 5.8284 7.0961C5.7544 7.1304 5.7686 7.12519 5.733 7.19159C5.664 7.18989 5.5006 7.22119 5.4588 7.17549C5.3872 7.09689 5.5032 7.19619 5.5174 7.08649C5.4608 7.05079 5.0892 7.05389 5.0132 7.07589C5.0251 7.18099 5.0638 7.10459 5.079 7.17989C5.03 7.20109 4.967 7.19379 4.9018 7.19549C4.7575 7.19919 4.8302 7.16649 4.7274 7.15329C4.7059 7.18419 4.7113 7.12109 4.711 7.20689Z" fill="#FDFDFD"/>
<path fill-rule="evenodd" clip-rule="evenodd" d="M6.8133 9.31141C6.7734 9.27081 6.7818 9.22791 6.8307 9.18641L6.7982 9.1679C6.5239 9.0257 6.2757 8.66631 6.2877 8.51511C6.2283 8.58731 6.1783 8.6156 6.0612 8.63C6.1522 8.6625 6.102 8.64431 6.2171 8.84011C6.3032 8.98651 6.4202 9.14421 6.5644 9.24171C6.6046 9.26891 6.6399 9.28371 6.6915 9.30721C6.7575 9.33741 6.7543 9.35361 6.8133 9.31141Z" fill="black"/>
<path fill-rule="evenodd" clip-rule="evenodd" d="M6.19271 8.30539C6.17751 8.19599 6.22451 8.29989 6.18931 8.18539C6.08631 7.85019 6.05061 7.72219 5.99171 7.36259C5.97621 7.26779 5.96211 7.08419 5.93791 7.00529C5.86451 7.03499 5.90061 7.11559 5.92931 7.29849C5.96611 7.53239 6.07301 8.09469 6.16951 8.25859L5.92251 8.31009C5.99071 8.25849 5.96381 8.29759 5.89631 8.06239C5.82851 7.82629 5.77891 7.6149 5.74241 7.3723C5.72831 7.2785 5.74461 7.27979 5.65761 7.29039C5.68381 7.46759 5.71471 7.645 5.75761 7.8205L5.87851 8.2552C5.91301 8.3282 5.88131 8.27689 5.91581 8.30529L5.85741 8.35419C5.81831 8.39909 5.83741 8.36599 5.82221 8.42659C5.84911 8.42599 6.17091 8.32889 6.19271 8.30539Z" fill="#FDFDFD"/>
<path fill-rule="evenodd" clip-rule="evenodd" d="M4.344 7.0693C4.3562 7.1811 4.3949 7.1046 4.41 7.18C4.2738 7.2381 4.0815 7.1549 4.0361 7.1533C4.0644 7.2963 4.16 7.2754 4.3133 7.2755C4.3646 7.2755 4.3965 7.2648 4.4408 7.252C4.447 7.5069 4.5699 7.946 4.6471 8.2131C4.6735 8.3042 4.6577 8.2932 4.7498 8.2948C4.6449 7.9405 4.5943 7.7724 4.5295 7.4054L4.4838 7.2095C4.4802 7.1987 4.4831 7.1743 4.481 7.1416C4.673 7.135 4.8363 7.1826 4.8484 7.0855C4.7809 7.0446 4.4435 7.0679 4.344 7.0693Z" fill="#FDFDFD"/>
<path fill-rule="evenodd" clip-rule="evenodd" d="M5.1628 3.5123C5.2675 3.5121 5.2011 3.5103 5.254 3.4849C5.3919 3.4186 5.5601 3.5103 5.5875 3.5125L5.6082 3.4538C5.6447 3.3463 5.7866 3.123 5.8469 3.0403C5.8959 2.973 5.9604 2.9112 6.025 2.8522C6.1031 2.7809 6.1821 2.773 6.2553 2.7183C5.9634 2.6982 5.5238 3.308 5.5726 3.4191L5.3996 3.3841C5.5144 3.1141 5.6927 2.8778 5.9525 2.7482L6.0133 2.7097C5.7506 2.7503 5.6357 2.9069 5.5188 3.0465C5.2614 3.3538 5.4241 3.3462 5.2513 3.4015C5.1885 3.4215 5.1663 3.4382 5.1628 3.5123Z" fill="#FDFDFD"/>
<path fill-rule="evenodd" clip-rule="evenodd" d="M6.8133 9.3114C6.9123 9.2431 6.87079 9.1952 6.93799 9.1946C6.98969 9.1941 7.03479 9.2219 7.10069 9.1693C7.16659 9.1168 7.126 9.1058 7.1312 8.8808C7.1331 8.7955 7.1629 8.7069 7.0687 8.693C7.0299 8.7623 7.0569 8.8988 7.058 8.9923L7.03529 9.0061C7.03219 9.008 7.0276 9.0106 7.0242 9.0125C6.9474 9.0567 6.95469 9.0625 6.88179 9.1378C6.64079 9.0191 6.55129 8.9436 6.40969 8.6954C6.33909 8.5717 6.3331 8.5018 6.2877 8.5151C6.2757 8.6663 6.5239 9.0257 6.7982 9.1679L6.83069 9.1864C6.78179 9.2279 6.7734 9.2708 6.8133 9.3114Z" fill="#FDFDFD"/>
<path fill-rule="evenodd" clip-rule="evenodd" d="M5.1608 4.8441L5.12269 4.8076C5.05829 4.7528 5.00949 4.763 4.91839 4.7634C4.78189 4.7641 4.73089 4.7633 4.70399 4.8822C4.86509 4.8804 4.7304 4.8186 4.9985 4.8382C5.1075 4.8461 5.05089 4.8686 5.11359 4.8764C5.22179 4.8897 5.09149 4.8503 5.18649 4.8707C5.19069 4.8716 5.17809 4.8776 5.22429 4.8822C5.26909 4.4661 5.38129 4.1302 5.48559 3.7493C5.38769 3.752 5.40079 3.7538 5.33879 3.9656C5.31259 4.0553 5.28789 4.1513 5.26709 4.2445C5.22549 4.4307 5.1791 4.6504 5.1608 4.8441Z" fill="#FDFDFD"/>
<path fill-rule="evenodd" clip-rule="evenodd" d="M6.62271 9.40339L6.70811 9.3629C6.72531 9.3534 6.73341 9.34809 6.74121 9.34269C6.66661 9.35619 6.72541 9.35149 6.68751 9.36039L6.63161 9.36169C6.63881 9.33809 6.63391 9.35589 6.68741 9.33289C6.32381 9.25819 6.02971 8.70799 6.05141 8.64299C5.92761 8.65139 5.90521 8.6466 5.84241 8.5743C5.90311 8.7644 6.04741 8.96349 6.14591 9.08709C6.21391 9.17259 6.27111 9.20429 6.37341 9.27419C6.46611 9.33749 6.42371 9.29929 6.53491 9.32109C6.57921 9.32979 6.60061 9.34259 6.61561 9.37449L6.62161 9.39669C6.62181 9.39759 6.62151 9.40149 6.62271 9.40339Z" fill="black"/>
<path fill-rule="evenodd" clip-rule="evenodd" d="M5.9395 3.6457L6.0195 3.6526C6.0521 3.4812 6.1106 3.5343 6.0315 3.4837C6.1853 3.4983 6.1902 3.5115 6.2399 3.6383C6.296 3.6831 6.2542 3.6518 6.275 3.641L6.2893 3.5613C6.263 3.4479 6.2291 3.4573 6.1109 3.4199C6.0065 3.3868 5.9655 3.3874 5.8699 3.4222C5.9269 3.2737 6.0241 3.12699 6.1096 3.01659C6.2468 2.83949 6.29 2.8377 6.4591 2.7366C6.2058 2.6973 5.808 3.25399 5.7509 3.51249C5.8346 3.51209 5.8126 3.5292 5.8328 3.4679C5.8889 3.5887 5.8834 3.454 6.0219 3.4689C5.9822 3.5048 5.9995 3.4949 5.9818 3.5585C5.9651 3.6187 5.9827 3.5678 5.9638 3.6045C5.9465 3.638 5.96 3.5799 5.9395 3.6457Z" fill="#FDFDFD"/>
<path fill-rule="evenodd" clip-rule="evenodd" d="M4.44609 4.7876C4.31149 4.7501 4.0713 4.7189 4.0351 4.8822C4.1714 4.8807 4.0825 4.83829 4.2492 4.83759C4.4825 4.83659 4.3369 4.8762 4.4726 4.8822C4.4743 4.8792 4.47499 4.8698 4.47529 4.8721L4.59279 4.3343C4.64009 4.1294 4.71199 3.9355 4.75509 3.7524C4.64019 3.7447 4.64709 3.8382 4.61589 3.9433C4.58919 4.0334 4.5698 4.116 4.5472 4.2077C4.5152 4.3375 4.43769 4.6646 4.44609 4.7876Z" fill="#FDFDFD"/>
<path fill-rule="evenodd" clip-rule="evenodd" d="M6.6216 7.61829C6.5847 7.71689 6.445 7.86359 6.4835 7.93589C6.532 7.93259 6.5223 7.9328 6.569 7.8713L6.592 7.8424C6.5742 7.9842 6.6045 7.92789 6.5299 8.03959C6.4417 8.17179 6.4583 8.09719 6.3844 8.16249C6.377 8.24109 6.4479 8.21969 6.4927 8.19469C6.5358 8.17079 6.5497 8.1404 6.5753 8.1008C6.6399 8.0011 6.686 7.98729 6.6545 7.84449C6.6848 7.88749 6.8931 8.26799 7.04 8.19599C7.0265 8.09029 6.9642 8.18429 6.8314 8.00319C6.7845 7.93909 6.7061 7.81509 6.6875 7.72569L6.6549 7.74609C6.6129 7.76729 6.6702 7.75779 6.6408 7.75009C6.6699 7.70669 6.7409 7.61169 6.7183 7.55839C6.6237 7.54719 6.6879 7.55839 6.6216 7.61829Z" fill="#FDFDFD"/>
<path fill-rule="evenodd" clip-rule="evenodd" d="M7.1898 3.3861C7.1898 3.4751 7.1994 3.5178 7.1716 3.5804C7.0931 3.5628 7.1597 3.5276 7.0687 3.5168C7.0422 3.582 7.0513 3.6704 7.0489 3.7525C7.0461 3.8451 7.0101 3.942 7.1047 3.9573C7.1382 3.8902 7.1206 3.7595 7.1281 3.6728C7.1318 3.6703 7.1382 3.6634 7.1403 3.667C7.1423 3.6705 7.1495 3.6626 7.1523 3.6613C7.2576 3.6139 7.269 3.5984 7.2653 3.4501C7.2617 3.3018 7.2752 3.2387 7.1408 3.2045C7.1451 3.328 7.1898 3.2629 7.1898 3.3861Z" fill="#FDFDFD"/>
<path fill-rule="evenodd" clip-rule="evenodd" d="M5.8105 6.9856L5.78319 6.9656C5.77339 6.9591 5.778 6.9579 5.7536 6.947C5.6921 6.9196 5.60859 6.9303 5.53969 6.9304C5.42469 6.9303 5.39459 6.9555 5.37289 7.0526C5.53829 7.0498 5.37129 6.9685 5.76329 7.0192C5.71229 7.0808 5.67569 7.0447 5.70219 7.1438C5.76749 7.1369 5.77409 7.1222 5.81279 7.0841C5.92399 6.9745 6.0705 6.9122 6.0652 6.8115C6.0036 6.8087 5.96429 6.8477 5.92739 6.8799L5.8105 6.9856Z" fill="#FDFDFD"/>
<path fill-rule="evenodd" clip-rule="evenodd" d="M5.5227 9.3905C5.535 9.3514 5.5385 9.3514 5.5589 9.3289C5.1476 9.2553 4.989 8.7677 4.8867 8.6431L4.8287 8.6603C4.8625 8.8249 5.1695 9.2703 5.4675 9.329L5.44 9.3382C5.3662 9.371 5.3967 9.338 5.3794 9.381C5.4401 9.3986 5.4864 9.4092 5.5227 9.3905Z" fill="#FDFDFD"/>
<path fill-rule="evenodd" clip-rule="evenodd" d="M5.02051 3.51141L5.09381 3.51261C5.16401 3.35941 5.24831 3.18521 5.34401 3.06321C5.46701 2.90651 5.52021 2.83851 5.72871 2.73641C5.45911 2.69751 5.08771 3.26821 5.02051 3.51141Z" fill="#FDFDFD"/>
<path fill-rule="evenodd" clip-rule="evenodd" d="M7.624 4.46919C7.5892 4.53049 7.5199 4.62619 7.5338 4.70379C7.6145 4.71229 7.5943 4.68299 7.6585 4.56619C7.6889 4.51099 7.7543 4.4392 7.7217 4.3741C7.6528 4.3732 7.6888 4.3812 7.6727 4.3887L7.6568 4.3984C7.6207 4.4181 7.67 4.41239 7.6399 4.40759C7.6005 4.33809 7.6584 4.2786 7.6948 4.2195C7.7654 4.1048 7.7963 4.187 7.8215 4.07C7.6747 4.0653 7.6587 4.14229 7.6003 4.23599C7.5765 4.27409 7.5443 4.3198 7.5454 4.3738C7.5462 4.4179 7.5567 4.4431 7.5938 4.461L7.624 4.46919Z" fill="#FDFDFD"/>
<path fill-rule="evenodd" clip-rule="evenodd" d="M6.06531 3.39259C6.13571 3.41809 6.11611 3.3928 6.21101 3.23C6.25651 3.1521 6.29701 3.08579 6.35131 3.01939C6.42251 2.93209 6.51831 2.8306 6.62081 2.7785C6.64251 2.7675 6.65721 2.76219 6.67461 2.75369C6.68911 2.74649 6.69571 2.74359 6.70891 2.73539C6.73141 2.72159 6.73151 2.72139 6.74491 2.70979C6.44481 2.75059 6.16201 3.10229 6.07201 3.33139L6.06531 3.39259Z" fill="#FDFDFD"/>
<path fill-rule="evenodd" clip-rule="evenodd" d="M7.7222 7.5787C7.7357 7.6318 7.743 7.60781 7.7277 7.65961C7.6638 7.68281 7.7028 7.66481 7.6664 7.64791C7.6086 7.62111 7.678 7.6244 7.639 7.6356C7.6011 7.7087 7.7113 7.8714 7.7854 7.8968C7.7872 7.8936 7.7883 7.884 7.7885 7.8861L7.7945 7.85371C7.7974 7.82821 7.7901 7.83221 7.7992 7.79781C7.9234 7.80241 7.8747 7.92471 7.9914 8.11541L7.9798 8.03111L8.0163 8.0232C8.0163 8.0232 8.0218 8.0236 8.0243 8.0228C7.9766 8.0076 7.9408 8.03201 7.9004 7.87201C7.893 7.84271 7.8658 7.5906 7.7222 7.5787Z" fill="black"/>
<path fill-rule="evenodd" clip-rule="evenodd" d="M5.0981 9.2493C4.9769 9.1059 4.887 9.0931 4.731 8.7971C4.6446 8.6333 4.6901 8.6541 4.5809 8.6557C4.6431 8.8273 4.7833 9.0194 4.9098 9.1445C4.9633 9.1975 4.995 9.25 5.0981 9.2493Z" fill="#FDFDFD"/>
<path fill-rule="evenodd" clip-rule="evenodd" d="M6.3988 3.90109L6.4167 3.98409C6.3347 3.99989 6.3733 3.99329 6.3202 3.94259C6.3034 4.06629 6.40951 4.20569 6.50131 4.21729C6.47441 4.15659 6.4574 4.16609 6.4744 4.10089C6.5775 4.10839 6.48001 4.0861 6.56051 4.1442C6.60071 4.1732 6.5435 4.1586 6.5779 4.1526C6.6106 4.0758 6.4906 3.90489 6.3988 3.90109Z" fill="black"/>
<path fill-rule="evenodd" clip-rule="evenodd" d="M3.82179 7.06411L3.80859 7.13591L4.13739 7.14181C4.20419 7.12641 4.1687 7.14301 4.1965 7.08331C4.1882 7.17871 4.13609 7.1708 4.23369 7.1842L4.2415 7.08871C4.2301 7.00711 4.24239 7.03401 4.20189 7.01421C4.19789 7.01581 4.19339 7.01661 4.19189 7.02221C4.19049 7.02761 4.1845 7.02861 4.1825 7.03041C4.1509 7.05821 4.18679 7.06731 4.04309 7.06351C3.96989 7.06151 3.89509 7.06061 3.82179 7.06411Z" fill="#FDFDFD"/>
<path fill-rule="evenodd" clip-rule="evenodd" d="M6.9179 3.3702C6.9176 3.5177 6.9026 3.6286 7.04 3.659C7.0339 3.5034 6.9964 3.65581 6.9943 3.43391C6.9928 3.27301 7.0348 3.32181 7.04 3.20461C6.95 3.22721 6.9181 3.2613 6.9179 3.3702Z" fill="#FDFDFD"/>
<path fill-rule="evenodd" clip-rule="evenodd" d="M6.2723 8.13071C6.2911 8.12271 6.28919 8.15561 6.31139 8.09391C6.33649 8.02371 6.2709 8.0757 6.3695 7.9276C6.3907 7.8958 6.40849 7.8603 6.43989 7.8384C6.49879 7.7973 6.50039 7.8466 6.52399 7.7531C6.39779 7.7347 6.35749 7.80781 6.30859 7.88121C6.25799 7.95731 6.1906 8.02581 6.2723 8.13071Z" fill="#FDFDFD"/>
<path fill-rule="evenodd" clip-rule="evenodd" d="M7.18971 8.5464C7.18971 8.8653 7.14221 8.6687 7.14091 8.8341C7.25391 8.809 7.26091 8.7326 7.26431 8.6102C7.26831 8.4686 7.26771 8.408 7.14081 8.3797C7.14381 8.5349 7.18981 8.4139 7.18971 8.5464Z" fill="#FDFDFD"/>
<path fill-rule="evenodd" clip-rule="evenodd" d="M5.9219 6.85969C6.0454 6.82059 5.8851 6.83579 6.0628 6.69659C6.2285 6.56669 6.1644 6.66379 6.2712 6.59159C6.1922 6.49869 6.1164 6.56689 6.0391 6.62489C5.9585 6.68529 5.8477 6.75269 5.9219 6.85969Z" fill="#FDFDFD"/>
<path fill-rule="evenodd" clip-rule="evenodd" d="M5.9395 3.6457L6.1754 3.7118C6.1669 3.6838 6.1426 3.6434 6.1388 3.6297C6.1238 3.5744 6.1442 3.5836 6.1667 3.5692C6.2234 3.5901 6.2046 3.594 6.2399 3.6383C6.1902 3.5115 6.1853 3.4983 6.0315 3.4837C6.1106 3.5343 6.0521 3.4812 6.0195 3.6526L5.9395 3.6457Z" fill="black"/>
<path fill-rule="evenodd" clip-rule="evenodd" d="M6 1.25C8.6229 1.25 10.7499 3.3771 10.7499 6C10.7499 8.6229 8.6229 10.7499 6 10.7499C3.3771 10.7499 1.25 8.6229 1.25 6C1.25 3.3771 3.3771 1.25 6 1.25ZM11.9999 6C11.9999 2.6869 9.3131 0 6 0C2.6869 0 0 2.6869 0 6C0 9.3131 2.6869 11.9999 6 11.9999C9.3131 11.9999 11.9999 9.3131 11.9999 6Z" fill="#FF0000"/>
</svg>
