<svg width="12" height="12" viewBox="0 0 12 12" fill="none" xmlns="http://www.w3.org/2000/svg">
<path fill-rule="evenodd" clip-rule="evenodd" d="M0.26295 5.36252L5.36255 0.263025C5.71315 -0.087675 6.28686 -0.087675 6.63726 0.263025L11.7371 5.36252C12.0875 5.71312 12.0875 6.28692 11.7371 6.63752L6.63726 11.7371C6.28686 12.0877 5.71315 12.0877 5.36255 11.7371L0.26295 6.63752C-0.08765 6.28692 -0.08765 5.71312 0.26295 5.36252Z" fill="#FFEC00"/>
<path fill-rule="evenodd" clip-rule="evenodd" d="M0.365448 5.52052L5.52055 0.365425C5.65255 0.233425 5.82635 0.167419 6.00005 0.167419C6.17375 0.167419 6.34755 0.233425 6.47955 0.365425L11.6347 5.52052C11.7667 5.65252 11.8326 5.82632 11.8326 6.00002C11.8326 6.17372 11.7667 6.34752 11.6347 6.47952L6.47955 11.6346C6.34755 11.7666 6.17375 11.8326 6.00005 11.8326C5.82635 11.8326 5.65255 11.7666 5.52055 11.6346L0.365448 6.47952C0.233448 6.34752 0.16745 6.17372 0.16745 6.00002C0.16745 5.82632 0.233448 5.65252 0.365448 5.52052ZM5.71175 0.556625L0.556648 5.71172C0.477448 5.79092 0.437851 5.89542 0.437851 6.00002C0.437851 6.10462 0.477448 6.20912 0.556648 6.28832L5.71175 11.4434C5.79095 11.5226 5.89545 11.5622 6.00005 11.5622C6.10465 11.5622 6.20915 11.5226 6.28835 11.4434L11.4435 6.28832C11.5227 6.20912 11.5621 6.10462 11.5621 6.00002C11.5621 5.89542 11.5227 5.79092 11.4435 5.71172L6.28835 0.556625C6.20915 0.477425 6.10465 0.43792 6.00005 0.43792C5.89545 0.43792 5.79095 0.477425 5.71175 0.556625Z" fill="black"/>
<path fill-rule="evenodd" clip-rule="evenodd" d="M2.69816 7.69412H9.31206L2.68796 5.33702L2.69816 7.69412Z" fill="black" stroke="#1B1918" stroke-width="0.216"/>
<path fill-rule="evenodd" clip-rule="evenodd" d="M4.15997 5.86002C4.33007 5.99842 4.58166 5.97262 4.72006 5.80252C4.85856 5.63242 4.83277 5.38082 4.66267 5.24232C4.49257 5.10392 4.24086 5.12972 4.10246 5.29982C3.96396 5.46992 3.98987 5.72152 4.15997 5.86002ZM4.32367 5.66342C4.38567 5.71392 4.47757 5.70452 4.52807 5.64242C4.57857 5.58042 4.56916 5.48852 4.50706 5.43802C4.44506 5.38752 4.35317 5.39692 4.30267 5.45902C4.25217 5.52102 4.26157 5.61292 4.32367 5.66342Z" fill="black"/>
<path fill-rule="evenodd" clip-rule="evenodd" d="M6.96307 6.84502C7.13317 6.98352 7.38476 6.95772 7.52316 6.78762C7.66166 6.61752 7.63587 6.36582 7.46577 6.22742C7.29567 6.08892 7.04396 6.11472 6.90556 6.28482C6.76706 6.45492 6.79297 6.70662 6.96307 6.84502ZM7.12676 6.64852C7.18876 6.69902 7.28067 6.68962 7.33117 6.62752C7.38167 6.56552 7.37227 6.47362 7.31017 6.42312C7.24817 6.37262 7.15627 6.38202 7.10577 6.44402C7.05527 6.50612 7.06466 6.59802 7.12676 6.64852Z" fill="black"/>
<path fill-rule="evenodd" clip-rule="evenodd" d="M3.96127 5.38352C4.22477 4.82222 4.97457 5.07282 4.84837 5.69332L6.76006 6.36492C7.07076 5.79582 7.74857 6.06512 7.66437 6.68122L8.17857 6.85983L8.22687 6.72672L8.18517 6.72282L8.39747 6.41592L8.23376 5.26332L8.12306 5.15072L5.80517 4.30602L4.81547 4.64713L3.72276 4.38742L3.55417 4.67742L3.57837 5.03442L3.53127 5.01852L3.48666 5.14713L3.96127 5.38352ZM6.22137 5.22192L5.08286 4.79742L5.12917 4.68522L5.80756 4.45033L6.42487 4.66802L6.22137 5.22192ZM7.44956 5.67432L6.34177 5.26743L6.54156 4.71803L7.25017 4.98002L7.48966 5.54212L7.44956 5.67432ZM8.00227 5.26232L7.41846 5.04952L7.62787 5.51972L7.57726 5.71082L8.19257 5.94933L8.11217 5.36672L8.00227 5.26232Z" fill="black" stroke="#1B1918" stroke-width="0.216"/>
</svg>
