<svg width="12" height="12" viewBox="0 0 12 12" fill="none" xmlns="http://www.w3.org/2000/svg">
<path fill-rule="evenodd" clip-rule="evenodd" d="M0.26295 5.36253L5.36245 0.263025C5.71315 -0.087675 6.28685 -0.087675 6.63725 0.263025L11.737 5.36253C12.0873 5.71313 12.0873 6.28692 11.737 6.63752L6.63725 11.737C6.28685 12.0877 5.71315 12.0877 5.36245 11.737L0.26295 6.63752C-0.08765 6.28692 -0.08765 5.71313 0.26295 5.36253Z" fill="#FFEC00"/>
<path fill-rule="evenodd" clip-rule="evenodd" d="M0.365349 5.52052L5.52055 0.365425C5.65255 0.233425 5.82635 0.167419 6.00005 0.167419C6.17365 0.167419 6.34755 0.233425 6.47945 0.365425L11.6346 5.52052C11.7666 5.65252 11.8326 5.82632 11.8326 6.00002C11.8326 6.17372 11.7666 6.34752 11.6346 6.47952L6.47945 11.6346C6.34755 11.7666 6.17375 11.8326 6.00005 11.8326C5.82635 11.8326 5.65245 11.7666 5.52055 11.6346L0.365349 6.47952C0.233349 6.34752 0.16745 6.17372 0.16745 6.00002C0.16745 5.82632 0.233349 5.65252 0.365349 5.52052ZM5.71175 0.556625L0.556549 5.71172C0.477449 5.79092 0.437851 5.89542 0.437851 6.00002C0.437851 6.10462 0.477449 6.20912 0.556549 6.28832L5.71175 11.4434C5.79085 11.5226 5.89535 11.5621 6.00005 11.5621C6.10465 11.5621 6.20915 11.5226 6.28825 11.4434L11.4435 6.28832C11.5226 6.20912 11.5621 6.10462 11.5621 6.00002C11.5621 5.89542 11.5226 5.79092 11.4435 5.71172L6.28825 0.556625C6.20915 0.477425 6.10465 0.43782 6.00005 0.43782C5.89535 0.43782 5.79085 0.477425 5.71175 0.556625Z" fill="black"/>
<path fill-rule="evenodd" clip-rule="evenodd" d="M5.98236 8.18182C5.98236 8.42212 6.01206 8.61102 6.01216 8.85132C7.11016 8.79672 7.89266 8.26302 8.43646 7.38542C8.63386 7.49822 8.90766 7.62572 9.10506 7.73852C9.17796 7.77722 9.27427 7.71682 9.27057 7.59522C9.01497 6.90522 8.89057 6.53432 8.54097 5.55972C8.42667 5.28642 8.37926 5.26232 8.21896 5.48832C7.81476 5.98472 7.39566 6.45902 6.99146 6.95542C6.88526 7.06622 6.88057 7.18892 7.02927 7.21502C7.28637 7.23372 7.27637 7.22952 7.70047 7.26292C7.30957 7.68682 6.72946 8.14982 5.98236 8.18182Z" fill="black"/>
<path fill-rule="evenodd" clip-rule="evenodd" d="M7.94426 4.61702C8.15236 4.49352 8.30076 4.37122 8.50896 4.24762C7.89706 3.34312 7.03226 2.95283 5.99246 2.94183C5.98846 2.71633 5.95836 2.41812 5.95456 2.19262C5.95056 2.11082 5.84876 2.06003 5.74536 2.12573C5.27896 2.69733 5.02156 2.99353 4.35706 3.79123C4.17906 4.02873 4.18256 4.08143 4.46076 4.10143C5.09866 4.18963 5.72496 4.30183 6.36286 4.39013C6.51346 4.42343 6.62216 4.36433 6.56836 4.22473C6.45236 3.99673 6.45387 4.00732 6.26467 3.62992C6.83297 3.74412 7.53236 3.99892 7.94426 4.61702Z" fill="black"/>
<path fill-rule="evenodd" clip-rule="evenodd" d="M3.91926 4.87592C3.70776 4.75782 3.52706 4.69063 3.31566 4.57253C2.82436 5.54633 2.90955 6.48342 3.41425 7.38372C3.21815 7.49852 2.97145 7.67202 2.77525 7.78672C2.70545 7.83062 2.71125 7.94332 2.82005 7.99992C3.55255 8.11862 3.93996 8.19372 4.96886 8.37122C5.26546 8.40702 5.30996 8.37792 5.18986 8.12862C4.95176 7.53612 4.74036 6.94152 4.50236 6.34902C4.45706 6.20292 4.35146 6.13852 4.25546 6.25392C4.11276 6.46642 4.12125 6.45993 3.88365 6.80933C3.70275 6.26383 3.58046 5.53592 3.91926 4.87592Z" fill="black"/>
</svg>
