<svg width="23" height="18" viewBox="0 0 23 18" fill="none" xmlns="http://www.w3.org/2000/svg">
<path fill-rule="evenodd" clip-rule="evenodd" d="M8.66629 13.644H13.9798C14.0384 13.644 14.0561 13.6263 14.0561 13.5677V9.09315C14.0561 9.03355 14.0139 8.99146 13.9544 8.99146H8.7171C8.6771 8.99146 8.6208 9.00485 8.59 9.01685C8.5767 9.07385 8.56459 9.07526 8.56459 9.14396V13.5423C8.56459 13.6018 8.60679 13.644 8.66629 13.644ZM9.3439 12.5917C9.5427 12.5917 9.7039 12.7529 9.7039 12.9517C9.7039 13.1505 9.5427 13.3117 9.3439 13.3117C9.1451 13.3117 8.9839 13.1505 8.9839 12.9517C8.9839 12.7529 9.1451 12.5917 9.3439 12.5917ZM12.9079 12.9448C12.9079 12.746 13.0691 12.5848 13.2679 12.5848C13.4667 12.5848 13.6279 12.746 13.6279 12.9448C13.6279 13.1436 13.4667 13.3048 13.2679 13.3048C13.0691 13.3048 12.9079 13.1436 12.9079 12.9448ZM13.6239 12.0169H11.5646C11.506 12.0169 11.4883 11.9992 11.4883 11.9406V9.80495C11.4883 9.74545 11.5305 9.70325 11.59 9.70325H13.6239C13.6824 9.70325 13.7001 9.72095 13.7001 9.77955V11.9406C13.7001 11.9992 13.6824 12.0169 13.6239 12.0169ZM11.0561 12.0169H8.9968C8.9382 12.0169 8.9205 11.9992 8.9205 11.9406V9.72865C8.9513 9.71675 9.00759 9.70325 9.04759 9.70325H11.0561C11.1147 9.70325 11.1324 9.72095 11.1324 9.77955V11.9406C11.1324 11.9992 11.1147 12.0169 11.0561 12.0169ZM10.0646 9.47445C10.005 9.47445 9.96289 9.43225 9.96289 9.37275V9.29646C9.96289 9.23696 10.005 9.19485 10.0646 9.19485H12.5815C12.6401 9.19485 12.6578 9.21245 12.6578 9.27105V9.39816C12.6578 9.45676 12.6401 9.47445 12.5815 9.47445H10.0646Z" fill="black"/>
<path fill-rule="evenodd" clip-rule="evenodd" d="M11.1324 7.14055C8.4819 7.14055 6.3324 9.29005 6.3324 11.9406C6.3324 14.5911 8.4819 16.7406 11.1324 16.7406C13.7828 16.7406 15.9323 14.5911 15.9323 11.9406C15.9323 9.29005 13.7828 7.14055 11.1324 7.14055ZM5.1324 11.9406C5.1324 8.62745 7.8192 5.94055 11.1324 5.94055C14.4455 5.94055 17.1323 8.62745 17.1323 11.9406C17.1323 15.2537 14.4455 17.9405 11.1324 17.9405C7.8192 17.9405 5.1324 15.2537 5.1324 11.9406Z" fill="#FF0000"/>
<path fill-rule="evenodd" clip-rule="evenodd" d="M8.59 13.7965V14.0507C8.59 14.1093 8.60769 14.127 8.66629 14.127H13.9544C14.0139 14.127 14.0561 14.0848 14.0561 14.0253V13.8219C14.0561 13.7624 14.0139 13.7202 13.9544 13.7202H8.66629C8.60769 13.7202 8.59 13.7379 8.59 13.7965Z" fill="#040404"/>
<path fill-rule="evenodd" clip-rule="evenodd" d="M9.3781 15.1947C9.3781 15.2542 9.4203 15.2964 9.4798 15.2964H9.7849C9.8444 15.2964 9.8866 15.2542 9.8866 15.1947V14.2032H9.3781V15.1947Z" fill="#040404"/>
<path fill-rule="evenodd" clip-rule="evenodd" d="M8.7934 15.1947C8.7934 15.2542 8.8356 15.2964 8.8951 15.2964H9.2002C9.2597 15.2964 9.3019 15.2542 9.3019 15.1947V14.2032H8.7934V15.1947Z" fill="#040404"/>
<path fill-rule="evenodd" clip-rule="evenodd" d="M12.7595 15.2201C12.7595 15.2787 12.7771 15.2964 12.8357 15.2964H13.1662C13.2248 15.2964 13.2425 15.2787 13.2425 15.2201V14.2032H12.7595V15.2201Z" fill="#040404"/>
<path fill-rule="evenodd" clip-rule="evenodd" d="M13.3442 15.2201C13.3442 15.2787 13.3619 15.2964 13.4205 15.2964H13.751C13.8096 15.2964 13.8272 15.2787 13.8272 15.2201V14.2032H13.3442V15.2201Z" fill="#040404"/>
<path fill-rule="evenodd" clip-rule="evenodd" d="M14.5062 16.1232L15.3138 15.3158L7.75589 7.75775L6.9509 8.56535L14.5062 16.1232Z" fill="#FF0000" stroke="#FF0000" stroke-width="0.0025"/>
</svg>
