<svg width="12" height="12" viewBox="0 0 12 12" fill="none" xmlns="http://www.w3.org/2000/svg">
<path fill-rule="evenodd" clip-rule="evenodd" d="M6 0C2.6868 0 0 2.6868 0 6C0 9.3131 2.6868 11.9999 6 11.9999C9.3131 11.9999 11.9999 9.3131 11.9999 6C11.9999 2.6868 9.3131 0 6 0ZM1.2 6C1.2 3.3495 3.3495 1.2 6 1.2C8.6504 1.2 10.7999 3.3495 10.7999 6C10.7999 8.6505 8.6504 10.7999 6 10.7999C3.3495 10.7999 1.2 8.6505 1.2 6Z" fill="#FF0000"/>
<path fill-rule="evenodd" clip-rule="evenodd" d="M8.1236 9.5406L7.04599 9.5412L7.04551 4.1509L6.5533 4.384C6.479 4.4156 6.3931 4.3942 6.3415 4.3312C6.2899 4.2681 6.2846 4.1782 6.3284 4.1093L7.56431 2.368C7.57431 2.3556 7.5906 2.3479 7.6083 2.3479C7.6259 2.3479 7.6423 2.3553 7.652 2.3677L8.8897 4.1078C8.9336 4.1766 8.92841 4.2665 8.87681 4.3296C8.82531 4.3927 8.7395 4.4142 8.6651 4.3827L8.1203 4.1513L8.1236 9.5406Z" fill="black"/>
<path fill-rule="evenodd" clip-rule="evenodd" d="M4.8855 2.5301L3.80789 2.5295L3.8074 7.84109L3.3152 7.6114C3.2409 7.5803 3.1551 7.6014 3.1035 7.6635C3.0519 7.7256 3.04659 7.8142 3.09039 7.8821L4.3262 9.5979C4.3362 9.6102 4.35249 9.6177 4.37019 9.6178C4.38779 9.6178 4.4043 9.6105 4.414 9.5983L5.65159 7.8836C5.69549 7.8158 5.69029 7.7272 5.63879 7.665C5.58729 7.6029 5.50139 7.5817 5.42709 7.6127L4.88229 7.8407L4.8855 2.5301Z" fill="black"/>
</svg>
