<svg width="12" height="12" viewBox="0 0 12 12" fill="none" xmlns="http://www.w3.org/2000/svg">
<path fill-rule="evenodd" clip-rule="evenodd" d="M6 1.25C8.6229 1.25 10.7499 3.3771 10.7499 6C10.7499 8.6229 8.6229 10.7499 6 10.7499C3.3771 10.7499 1.25 8.6229 1.25 6C1.25 3.3771 3.3771 1.25 6 1.25ZM11.9999 6C11.9999 2.6869 9.3131 0 6 0C2.6869 0 0 2.6869 0 6C0 9.3131 2.6869 11.9999 6 11.9999C9.3131 11.9999 11.9999 9.3131 11.9999 6Z" fill="#FF0000"/>
<path fill-rule="evenodd" clip-rule="evenodd" d="M4.96339 3.0238V5.5407C4.96339 5.6183 4.9879 5.6433 5.0143 5.6933H6.46339C6.37649 5.8231 6.2092 5.8818 6.2092 6.1509V6.2526C6.2092 6.5202 6.48199 6.7611 6.74309 6.7611H6.7939C7.0435 6.7611 7.32779 6.5045 7.32779 6.278V6.2018C7.32779 5.8718 7.19119 5.8689 7.07359 5.6933H7.8109C7.6702 5.8155 7.53119 5.9396 7.53119 6.2018C7.53119 6.4666 7.79109 6.7611 8.03969 6.7611H8.06509C8.39489 6.7611 8.67529 6.5116 8.67529 6.2018C8.67529 5.953 8.5289 5.8091 8.3956 5.6933H9.1075C9.1339 5.6433 9.15829 5.6183 9.15829 5.5407V3.0238C9.15829 2.9416 9.06599 2.8967 8.98039 2.8967H5.14139C5.05569 2.8967 4.96339 2.9416 4.96339 3.0238Z" fill="#020202"/>
<path fill-rule="evenodd" clip-rule="evenodd" d="M2.09059 4.6255V5.5916C2.09059 5.6511 2.13279 5.6933 2.19229 5.6933H2.57359C2.61319 5.5449 2.92769 5.4136 3.13289 5.4136H3.2092C3.5004 5.4136 3.73179 5.6933 3.79399 5.6933H4.7092C4.7687 5.6933 4.8109 5.6511 4.8109 5.5916V3.8882C4.8109 3.8296 4.79319 3.8119 4.73459 3.8119H3.87019C3.72579 3.8119 3.311 4.2566 3.2029 4.3649C3.0281 4.5402 3.07979 4.5241 2.75159 4.5238C2.54819 4.5236 2.34479 4.5238 2.14139 4.5238" fill="#020202"/>
<path fill-rule="evenodd" clip-rule="evenodd" d="M2.57359 6.2018C2.57359 6.4875 2.84199 6.7611 3.13289 6.7611C3.46759 6.7611 3.7177 6.5079 3.7177 6.1763C3.7177 5.8977 3.44519 5.617 3.18379 5.617C2.84659 5.617 2.57359 5.8724 2.57359 6.2018Z" fill="#020202"/>
<path fill-rule="evenodd" clip-rule="evenodd" d="M3.4384 8.7903L3.43779 7.9553L3.4375 7.5386L2.55229 8.3729L3.43829 9.207L3.4384 8.7903Z" fill="black"/>
<path fill-rule="evenodd" clip-rule="evenodd" d="M4.1297 9.0146V8.0457C3.9641 8.1838 3.85249 8.253 3.79489 8.253C3.76769 8.253 3.74299 8.241 3.72229 8.2172C3.70109 8.1937 3.6906 8.1662 3.6906 8.1347C3.6906 8.0985 3.7011 8.0718 3.7215 8.0548C3.7425 8.0381 3.7793 8.016 3.832 7.989C3.9114 7.9485 3.97429 7.906 4.02139 7.8612C4.06899 7.8164 4.11069 7.7662 4.14749 7.711C4.18409 7.6554 4.2079 7.6217 4.2193 7.6089C4.23 7.5962 4.25099 7.5896 4.28189 7.5896C4.31619 7.5896 4.34429 7.6041 4.36499 7.6333C4.38589 7.6622 4.39639 7.7025 4.39639 7.7535V8.973C4.39639 9.1158 4.3516 9.187 4.2621 9.187C4.2224 9.187 4.19029 9.1725 4.16629 9.1433C4.14189 9.1144 4.1297 9.0713 4.1297 9.0146ZM5.85199 8.3944C5.85199 8.5112 5.84599 8.6113 5.83249 8.6949C5.81939 8.7791 5.79529 8.855 5.75989 8.9231C5.71569 9.0067 5.6584 9.0713 5.5878 9.117C5.5175 9.1623 5.4387 9.185 5.3526 9.185C5.2536 9.185 5.16459 9.1544 5.08609 9.0931C5.00759 9.0322 4.9483 8.9477 4.9081 8.84C4.888 8.781 4.87349 8.7156 4.86389 8.6444C4.85489 8.573 4.8497 8.4959 4.8497 8.4128C4.8497 8.3054 4.8547 8.209 4.8653 8.1231C4.8758 8.037 4.89219 7.9633 4.91429 7.9012C4.95259 7.7991 5.00899 7.7212 5.08209 7.6679C5.15549 7.6143 5.2429 7.5874 5.3452 7.5874C5.4121 7.5874 5.473 7.5993 5.528 7.6231C5.5827 7.6469 5.63089 7.6815 5.67229 7.7274C5.71369 7.7733 5.7488 7.83 5.7775 7.8972C5.8274 8.0143 5.85199 8.1804 5.85199 8.3944ZM5.58359 8.3734C5.58359 8.2436 5.57659 8.137 5.56229 8.0545C5.54759 7.9715 5.52349 7.9088 5.48949 7.8666C5.45539 7.8246 5.40839 7.8034 5.34859 7.8034C5.26239 7.8034 5.2026 7.8507 5.1689 7.9454C5.1351 8.0395 5.11839 8.1849 5.11839 8.3816C5.11839 8.5152 5.1254 8.6249 5.14 8.7099C5.1541 8.7952 5.17849 8.8599 5.21219 8.9035C5.24629 8.9469 5.2925 8.9687 5.3506 8.9687C5.4104 8.9687 5.4574 8.9463 5.4917 8.901C5.5252 8.8553 5.54929 8.7901 5.56259 8.7059C5.57649 8.6212 5.58359 8.5106 5.58359 8.3734ZM7.47429 8.6172V9.0039C7.47429 9.0648 7.46149 9.1107 7.43629 9.1413C7.41079 9.1717 7.37679 9.187 7.33539 9.187C7.29509 9.187 7.26229 9.1717 7.23729 9.1413C7.21239 9.1107 7.1996 9.0648 7.1996 9.0039V8.5404C7.1996 8.467 7.1976 8.4103 7.1926 8.3697C7.1886 8.3295 7.17589 8.296 7.15579 8.2702C7.13509 8.2442 7.10359 8.2311 7.05939 8.2311C6.97179 8.2311 6.9143 8.264 6.8868 8.3295C6.8587 8.3944 6.84479 8.4882 6.84479 8.6107V9.0039C6.84479 9.0642 6.8323 9.1099 6.8071 9.1408C6.7819 9.1717 6.74899 9.187 6.70819 9.187C6.66759 9.187 6.63449 9.1717 6.60869 9.1408C6.58319 9.1099 6.57039 9.0642 6.57039 9.0039V8.1716C6.57039 8.1169 6.582 8.0752 6.605 8.0469C6.628 8.0185 6.6583 8.0044 6.696 8.0044C6.7331 8.0044 6.7632 8.0177 6.7878 8.0443C6.8122 8.0707 6.82439 8.1075 6.82439 8.1543V8.1821C6.87059 8.1217 6.92019 8.0772 6.97319 8.0489C7.02589 8.0205 7.0849 8.0063 7.1492 8.0063C7.2167 8.0063 7.27399 8.0211 7.32239 8.05C7.37089 8.0792 7.41089 8.1231 7.44179 8.1821C7.48709 8.1226 7.5356 8.0783 7.5869 8.0497C7.6385 8.0211 7.69549 8.0063 7.75839 8.0063C7.83149 8.0063 7.89449 8.0219 7.94719 8.0534C7.99989 8.0846 8.03959 8.1294 8.06569 8.1875C8.08839 8.2399 8.0997 8.323 8.0997 8.4355V9.0039C8.0997 9.0648 8.08699 9.1107 8.06169 9.1413C8.03619 9.1717 8.00279 9.187 7.96109 9.187C7.92059 9.187 7.88769 9.1717 7.86189 9.1408C7.83639 9.1099 7.82329 9.0642 7.82329 9.0039V8.5146C7.82329 8.4519 7.82129 8.4021 7.81529 8.3644C7.81029 8.3269 7.79739 8.2952 7.77589 8.2694C7.75399 8.2439 7.7214 8.2311 7.6778 8.2311C7.6424 8.2311 7.60889 8.2425 7.57719 8.2654C7.54569 8.2878 7.52099 8.3184 7.50349 8.357C7.48359 8.4057 7.47429 8.4928 7.47429 8.6172Z" fill="black"/>
<path fill-rule="evenodd" clip-rule="evenodd" d="M8.474 8.77039L8.4747 7.95089L8.47499 7.54199L9.3602 8.36079L8.4742 9.17929L8.474 8.77039Z" fill="black"/>
<path fill-rule="evenodd" clip-rule="evenodd" d="M3.79399 5.6933H4.7092C4.7687 5.6933 4.8109 5.6511 4.8109 5.5916V3.8882C4.8109 3.8296 4.79319 3.8119 4.73459 3.8119H3.87019C3.72579 3.8119 3.311 4.2566 3.2029 4.3649C3.0281 4.5402 3.07979 4.5241 2.75159 4.5238C2.54819 4.5236 2.34479 4.5238 2.14139 4.5238C2.11069 4.5697 2.09059 4.5685 2.09059 4.6255V5.5916C2.09059 5.6511 2.13279 5.6933 2.19229 5.6933H2.57359C2.61319 5.5449 2.9277 5.4136 3.133 5.4136H3.2092C3.5004 5.4136 3.73179 5.6933 3.79399 5.6933ZM4.55669 4.5492H3.48889C3.50719 4.4806 3.79829 4.0408 3.87019 4.0408H4.63289V4.473C4.63289 4.5315 4.61529 4.5492 4.55669 4.5492Z" fill="black"/>
</svg>
