<svg width="12" height="12" viewBox="0 0 12 12" fill="none" xmlns="http://www.w3.org/2000/svg">
<path fill-rule="evenodd" clip-rule="evenodd" d="M3.5147 0L0 3.5147V8.4852L3.5147 11.9999H8.4852L11.9999 8.4852V3.5147L8.4852 0H3.5147Z" fill="#FF0000"/>
<path fill-rule="evenodd" clip-rule="evenodd" d="M0.600012 3.7632L3.76321 0.599997H8.23671L11.3999 3.7632V8.2367L8.23671 11.3999H3.76321L0.600012 8.2367V3.7632ZM0.200012 3.5975V8.4024L3.59751 11.7999H8.40231L11.7999 8.4024V3.5975L8.40231 0.199997H3.59751L0.200012 3.5975Z" fill="white"/>
<path fill-rule="evenodd" clip-rule="evenodd" d="M3.22251 5.342C3.22251 5.4228 3.21041 5.5011 3.18651 5.577C3.16271 5.6533 3.12961 5.725 3.08791 5.7922C3.04591 5.8591 2.99721 5.918 2.94161 5.9688C2.88661 6.0195 2.82571 6.0601 2.76021 6.0898C2.69131 6.1227 2.61111 6.1479 2.51981 6.1658C2.42861 6.1839 2.32452 6.1927 2.20772 6.1927H1.65131V7.5001H1.17542V4.5004H2.20772C2.33052 4.5004 2.43451 4.5072 2.51981 4.5206C2.60521 4.5339 2.68541 4.5585 2.76021 4.5945C2.82571 4.6274 2.88661 4.6699 2.94161 4.7221C2.99721 4.7743 3.04591 4.8341 3.08791 4.9013C3.12961 4.9682 3.16271 5.0399 3.18651 5.1161C3.21041 5.1921 3.22251 5.2675 3.22251 5.342ZM2.73751 5.342C2.73751 5.2794 2.72021 5.2199 2.68591 5.1632C2.65161 5.1062 2.60882 5.0617 2.55812 5.0288C2.51612 5.0047 2.47651 4.99 2.43931 4.984C2.40161 4.9781 2.34551 4.975 2.27071 4.975H1.65131V5.7091H2.27071C2.34551 5.7091 2.40161 5.7063 2.43931 5.7003C2.47651 5.6944 2.51612 5.6808 2.55812 5.6601C2.60882 5.6332 2.65161 5.5892 2.68591 5.528C2.72021 5.4668 2.73751 5.4047 2.73751 5.342ZM5.44041 7.5001L5.14411 6.6585H4.20591L3.90941 7.5001H3.40231L4.43921 4.5004H4.91061L5.94781 7.5001H5.44041ZM4.68181 5.3333L4.37201 6.1749H4.97381L4.68181 5.3333ZM7.93231 7.5001L7.44761 6.1927H6.87731V7.5001H6.40162V4.5004H7.39341C7.51051 4.5004 7.61061 4.5072 7.69421 4.5206C7.77811 4.5339 7.85751 4.5585 7.93231 4.5945C7.99811 4.6274 8.05871 4.6699 8.11401 4.7221C8.16961 4.7743 8.21752 4.8341 8.25772 4.9013C8.29802 4.9682 8.32971 5.0399 8.35211 5.1161C8.37451 5.1921 8.38561 5.2675 8.38561 5.342C8.38561 5.4228 8.37451 5.5011 8.35211 5.577C8.32971 5.6533 8.29802 5.725 8.25772 5.7922C8.21752 5.8591 8.16792 5.9197 8.10952 5.9733C8.05142 6.0272 7.98761 6.0688 7.91901 6.0986L8.44881 7.5001H7.93231ZM7.90961 5.342C7.90961 5.2794 7.89321 5.2199 7.86061 5.1632C7.82771 5.1062 7.78121 5.0617 7.72141 5.0288C7.68231 5.0078 7.64662 4.9937 7.61372 4.9863C7.58052 4.9786 7.52531 4.975 7.44761 4.975H6.87731V5.7091H7.44761C7.52241 5.7091 7.57681 5.7063 7.61141 5.7003C7.64571 5.6944 7.68231 5.6808 7.72141 5.6601C7.78121 5.6272 7.82771 5.5816 7.86061 5.5235C7.89321 5.4654 7.90961 5.4047 7.90961 5.342ZM8.95621 7.5001V4.5004H10.7293V4.975H9.43182V5.7091H10.3075V6.1927H9.43182V7.0165H10.8236V7.5001H8.95621Z" fill="white"/>
</svg>
