<svg width="12" height="12" viewBox="0 0 12 12" fill="none" xmlns="http://www.w3.org/2000/svg">
<path fill-rule="evenodd" clip-rule="evenodd" d="M5.9999 1.25C8.6228 1.25 10.7499 3.3771 10.7499 6C10.7499 8.6229 8.6228 10.7499 5.9999 10.7499C3.377 10.7499 1.25 8.6229 1.25 6C1.25 3.3771 3.377 1.25 5.9999 1.25ZM11.9999 6C11.9999 2.6868 9.313 0 5.9999 0C2.6868 0 0 2.6868 0 6C0 9.3131 2.6868 11.9999 5.9999 11.9999C9.313 11.9999 11.9999 9.3131 11.9999 6Z" fill="#FF0000"/>
<path fill-rule="evenodd" clip-rule="evenodd" d="M10.095 5.2291L10.094 6.7505L10.0938 6.7515L10.0934 7.5098L8.5546 5.9887L10.095 4.4698L10.0946 5.2281L10.095 5.2291Z" fill="black"/>
<path fill-rule="evenodd" clip-rule="evenodd" d="M1.8498 5.22729L1.8639 6.74879L1.87109 7.50799L3.3969 5.97379L1.8436 4.46809L1.8506 5.22639L1.8498 5.22729Z" fill="black"/>
<path fill-rule="evenodd" clip-rule="evenodd" d="M4.26481 5.8736V4.2793C3.96811 4.5067 3.76821 4.6206 3.66531 4.6206C3.61631 4.6206 3.57231 4.6008 3.53461 4.562C3.49641 4.5228 3.47791 4.4775 3.47791 4.4259C3.47791 4.3661 3.49641 4.3224 3.53351 4.2944C3.57121 4.2669 3.63701 4.2303 3.73161 4.1861C3.87341 4.1195 3.98651 4.0495 4.07101 3.976C4.15601 3.9023 4.23081 3.8199 4.29661 3.7289C4.36181 3.6373 4.40491 3.5817 4.42471 3.5608C4.44431 3.5398 4.48201 3.529 4.53731 3.529C4.59881 3.529 4.6489 3.5528 4.6861 3.6007C4.7238 3.6486 4.74251 3.7144 4.74251 3.7989V5.805C4.74251 6.0399 4.66231 6.1573 4.50181 6.1573C4.43071 6.1573 4.3731 6.1335 4.33 6.0856C4.2864 6.0377 4.26481 5.9671 4.26481 5.8736ZM5.9566 6.161C5.8795 6.161 5.81281 6.1369 5.75671 6.0896C5.70121 6.0425 5.67281 5.9759 5.67281 5.8911C5.67281 5.8174 5.70031 5.7551 5.75561 5.7049C5.81001 5.6547 5.87521 5.6295 5.94951 5.6295C6.00561 5.6295 6.05661 5.6445 6.10201 5.6748C6.14761 5.7055 6.18331 5.7502 6.20911 5.8089C6.23491 5.8682 6.24741 5.9413 6.24741 6.0275C6.24741 6.1434 6.22301 6.252 6.17371 6.3529C6.12471 6.4541 6.06481 6.5337 5.99431 6.593C5.92371 6.6522 5.8596 6.6814 5.8026 6.6814C5.7664 6.6814 5.7369 6.6695 5.7142 6.6457C5.6915 6.6216 5.68021 6.5941 5.68021 6.5624C5.68021 6.5145 5.70401 6.4756 5.75191 6.4464C5.88821 6.3705 5.9566 6.2752 5.9566 6.161ZM6.75031 4.1969C6.75031 4.0801 6.782 3.9701 6.8458 3.8663C6.9093 3.7629 7.00281 3.6804 7.12611 3.618C7.24921 3.5565 7.39341 3.5253 7.55871 3.5253C7.69761 3.5253 7.8195 3.5432 7.9249 3.5798C8.0301 3.6158 8.11771 3.6659 8.18831 3.7294C8.25831 3.7935 8.3104 3.8652 8.3439 3.9449C8.3779 4.0251 8.39461 4.1101 8.39461 4.2003C8.39461 4.3148 8.36541 4.4171 8.30621 4.5067C8.24751 4.5965 8.1588 4.6702 8.0423 4.7275C8.1415 4.7661 8.22401 4.8168 8.28951 4.8792C8.35521 4.9418 8.40481 5.0144 8.43771 5.0963C8.47121 5.1788 8.4882 5.2703 8.4882 5.3704C8.4882 5.5175 8.4522 5.651 8.381 5.7707C8.3096 5.8903 8.20501 5.9844 8.06721 6.0519C7.92921 6.1196 7.7662 6.1536 7.5797 6.1536C7.3858 6.1536 7.2194 6.1196 7.0816 6.0519C6.9436 5.9844 6.8393 5.8911 6.7693 5.7726C6.6992 5.6542 6.66411 5.5212 6.66411 5.3738C6.66411 5.0597 6.81231 4.8443 7.11001 4.7275C6.86991 4.6158 6.75031 4.4387 6.75031 4.1969ZM8.0069 5.3565C8.0069 5.2655 7.98841 5.1862 7.95071 5.1184C7.91361 5.0501 7.86091 4.9982 7.79311 4.9622C7.72571 4.9256 7.64971 4.9078 7.56521 4.9078C7.44621 4.9078 7.347 4.9472 7.2662 5.0268C7.1854 5.1065 7.1451 5.2176 7.1451 5.3602C7.1451 5.4518 7.1644 5.532 7.2021 5.6014C7.2404 5.6709 7.2917 5.7247 7.3569 5.763C7.4224 5.8007 7.4952 5.8197 7.576 5.8197C7.6579 5.8197 7.73101 5.8007 7.79681 5.7619C7.86201 5.7233 7.91361 5.6689 7.95071 5.5989C7.98841 5.5283 8.0069 5.4481 8.0069 5.3565ZM7.56891 3.8593C7.45921 3.8593 7.3708 3.8933 7.3039 3.9622C7.2367 4.0305 7.20321 4.1183 7.20321 4.2261C7.20321 4.3256 7.23731 4.4086 7.30611 4.4744C7.37501 4.541 7.464 4.5739 7.5723 4.5739C7.6276 4.5739 7.67721 4.5648 7.72201 4.5475C7.76701 4.5302 7.80591 4.5056 7.83761 4.4744C7.86991 4.4435 7.89491 4.4069 7.91251 4.3638C7.92981 4.3213 7.93851 4.274 7.93851 4.2227C7.93851 4.1538 7.92321 4.0914 7.89211 4.0364C7.86141 3.9814 7.8178 3.9383 7.7617 3.9066C7.7058 3.8748 7.64121 3.8593 7.56891 3.8593Z" fill="black"/>
<path fill-rule="evenodd" clip-rule="evenodd" d="M6.3313 8.52V9.1561C6.3313 9.2567 6.3083 9.3321 6.263 9.3823C6.2173 9.4325 6.157 9.4577 6.0827 9.4577C6.0104 9.4577 5.9517 9.4325 5.907 9.3823C5.8619 9.3321 5.8392 9.2567 5.8392 9.1561V8.3936C5.8392 8.2728 5.8352 8.1795 5.8267 8.1129C5.8187 8.0466 5.7967 7.9916 5.7601 7.9491C5.7238 7.9066 5.6669 7.885 5.5878 7.885C5.431 7.885 5.3281 7.9389 5.2785 8.0466C5.2289 8.1537 5.2037 8.3079 5.2037 8.5092V9.1561C5.2037 9.2553 5.181 9.3307 5.1362 9.3817C5.0911 9.4325 5.0319 9.4577 4.959 9.4577C4.8865 9.4577 4.8272 9.4325 4.7813 9.3817C4.7351 9.3307 4.7119 9.2553 4.7119 9.1561V7.7869C4.7119 7.6971 4.7328 7.6282 4.7739 7.5814C4.8153 7.5349 4.8698 7.5114 4.9375 7.5114C5.0033 7.5114 5.0577 7.5338 5.1013 7.5775C5.145 7.6211 5.1671 7.6815 5.1671 7.7586V7.8042C5.2499 7.7047 5.33889 7.6319 5.43359 7.5851C5.52799 7.5383 5.63339 7.5151 5.74879 7.5151C5.86979 7.5151 5.97269 7.5392 6.05949 7.5868C6.14619 7.6347 6.2173 7.7073 6.2732 7.8042C6.354 7.7062 6.4407 7.6336 6.5328 7.5862C6.625 7.5392 6.7273 7.5151 6.8398 7.5151C6.9708 7.5151 7.08329 7.5409 7.17799 7.5922C7.27239 7.6438 7.3438 7.7175 7.3903 7.8133C7.4311 7.8995 7.4515 8.0358 7.4515 8.2212V9.1561C7.4515 9.2567 7.42859 9.3321 7.38319 9.3823C7.33759 9.4325 7.2772 9.4577 7.203 9.4577C7.1307 9.4577 7.0714 9.4325 7.0252 9.3817C6.9793 9.3307 6.9561 9.2553 6.9561 9.1561V8.351C6.9561 8.2481 6.9521 8.1662 6.9427 8.1041C6.9337 8.0423 6.9104 7.9902 6.8716 7.9479C6.8333 7.906 6.7746 7.885 6.6961 7.885C6.6329 7.885 6.5728 7.9034 6.5161 7.9411C6.4597 7.9783 6.4155 8.0287 6.3837 8.0919C6.3486 8.1722 6.3313 8.3153 6.3313 8.52Z" fill="black"/>
</svg>
