<svg width="26" height="16" viewBox="0 0 26 16" fill="none" xmlns="http://www.w3.org/2000/svg">
<path fill-rule="evenodd" clip-rule="evenodd" d="M0 7.62939e-06H25.0226V15.7623H0V7.62939e-06Z" fill="white"/>
<path fill-rule="evenodd" clip-rule="evenodd" d="M0.646896 0.426918H24.3757C24.4942 0.426918 24.5911 0.523811 24.5911 0.642311V15.12C24.5911 15.2385 24.4942 15.3354 24.3757 15.3354H0.646896C0.528396 15.3354 0.431503 15.2385 0.431503 15.12V0.642311C0.431503 0.523811 0.528396 0.426918 0.646896 0.426918Z" fill="white"/>
<path fill-rule="evenodd" clip-rule="evenodd" d="M0.647202 0.318916H24.3754C24.4642 0.318916 24.545 0.355318 24.6035 0.413918C24.662 0.472518 24.6989 0.553709 24.6989 0.642509V15.1197C24.6989 15.2084 24.6625 15.2892 24.604 15.3478C24.5455 15.4063 24.4642 15.4432 24.3754 15.4432H0.647202C0.558402 15.4432 0.477591 15.4068 0.418991 15.3483C0.360391 15.2897 0.323593 15.2084 0.323593 15.1197V0.642509C0.323593 0.553709 0.359994 0.472914 0.418594 0.414314C0.477194 0.355714 0.558402 0.318916 0.647202 0.318916ZM24.3754 0.534615H0.647202C0.617402 0.534615 0.590392 0.546716 0.570892 0.566216C0.551392 0.585716 0.539291 0.612709 0.539291 0.642509V15.1197C0.539291 15.1494 0.551392 15.1764 0.570892 15.196C0.590392 15.2154 0.617402 15.2275 0.647202 15.2275H24.3754C24.4051 15.2275 24.4321 15.2154 24.4517 15.196C24.4711 15.1764 24.4832 15.1494 24.4832 15.1197V0.642509C24.4832 0.612709 24.4711 0.585716 24.4517 0.566216C24.4321 0.546716 24.4051 0.534615 24.3754 0.534615Z" fill="white"/>
<path fill-rule="evenodd" clip-rule="evenodd" d="M3.53259 1.66361H3.155V3.06712H2.8968V1.66361H2.524V1.43461H3.53259V1.66361ZM5.0845 3.06712H4.8116L4.6508 2.60902H4.1414L3.9807 3.06712H3.70551L4.2659 1.43461H4.52409L5.0845 3.06712ZM4.55811 2.34591L4.3974 1.88781L4.2316 2.34591H4.55811ZM6.36349 3.06712H6.0835L5.8201 2.35812H5.51089V3.06712H5.25259V1.43461H5.8981C6.0313 1.43661 6.13649 1.48482 6.21359 1.57972C6.29099 1.67472 6.3295 1.77901 6.3295 1.89271C6.3295 1.97881 6.30599 2.06051 6.25859 2.13761C6.21159 2.21471 6.1506 2.27021 6.0761 2.30451L6.36349 3.06712ZM6.0735 1.90002C6.0735 1.83682 6.0545 1.78811 6.0163 1.75381C5.9783 1.71971 5.9355 1.70192 5.8884 1.70022H5.51089V2.10212H5.8981C5.9468 2.10212 5.98819 2.08432 6.02249 2.04862C6.05649 2.01282 6.0735 1.96322 6.0735 1.90002ZM6.9483 3.06712H6.685V1.43461H6.9483V3.06712ZM8.28819 1.69282H7.5331V2.09512H8.00819V2.35812H7.5331V3.06712H7.2749V1.43461H8.28819V1.69282ZM9.8354 3.06712H9.56239L9.4017 2.60902H8.8923L8.7316 3.06712H8.4563L9.0168 1.43461H9.27499L9.8354 3.06712ZM9.30899 2.34591L9.1483 1.88781L8.9825 2.34591H9.30899ZM11.7357 2.25101C11.7337 2.53501 11.6754 2.74222 11.5591 2.87202C11.4429 3.00212 11.3003 3.06712 11.1317 3.06712H10.6223V1.43461H11.1317C11.3003 1.43461 11.4429 1.49982 11.5591 1.62962C11.6754 1.75942 11.734 1.96661 11.7357 2.25101ZM10.8805 2.25101V2.80882H11.1317C11.2402 2.80582 11.3253 2.75352 11.3862 2.65292C11.4472 2.55232 11.4784 2.41821 11.4801 2.25101C11.4801 2.07211 11.4492 1.93552 11.3874 1.84022C11.3256 1.74532 11.2402 1.69622 11.1317 1.69282H10.8805V2.25101ZM12.9904 3.06712H11.977V1.43461H12.9393V1.69282H12.2352V2.09512H12.7103V2.35812H12.2352V2.80401H12.9904V3.06712ZM14.4377 2.35812H14.1282V3.06712H13.8699V1.43461H14.4082C14.5284 1.43461 14.6251 1.45221 14.6982 1.48701C14.7714 1.52191 14.8312 1.57771 14.8774 1.65401C14.9236 1.73021 14.9468 1.80991 14.9468 1.89271C14.9468 1.97881 14.9281 2.05682 14.8907 2.12652C14.8533 2.19652 14.7969 2.25291 14.7215 2.29601C14.6458 2.33911 14.5514 2.35982 14.4377 2.35812ZM14.686 1.89751C14.686 1.83431 14.6671 1.78552 14.6288 1.75152C14.5908 1.71722 14.548 1.69931 14.5009 1.69791H14.1234V2.09992H14.5106C14.5593 2.09992 14.6007 2.08202 14.635 2.04632C14.669 2.01062 14.686 1.96101 14.686 1.89751ZM16.2185 3.06712H15.2051V1.43461H16.1674V1.69282H15.4633V2.09512H15.9384V2.35812H15.4633V2.80401H16.2185V3.06712ZM17.5706 2.25101C17.5686 2.53501 17.5102 2.74222 17.394 2.87202C17.2778 3.00212 17.1352 3.06712 16.9665 3.06712H16.4571V1.43461H16.9665C17.1352 1.43461 17.2778 1.49982 17.394 1.62962C17.5102 1.75942 17.5689 1.96661 17.5706 2.25101ZM16.7154 2.25101V2.80882H16.9665C17.0751 2.80582 17.1601 2.75352 17.2211 2.65292C17.282 2.55232 17.3132 2.41821 17.3149 2.25101C17.3149 2.07211 17.284 1.93552 17.2222 1.84022C17.1604 1.74532 17.0751 1.69622 16.9665 1.69282H16.7154V2.25101ZM18.2064 1.36651L18.3648 1.03262H18.6475L18.3844 1.36651H18.2064ZM19.1177 3.06712H18.8448L18.684 2.60902H18.1746L18.0139 3.06712H17.7387L18.2991 1.43461H18.5573L19.1177 3.06712ZM18.5913 2.34591L18.4306 1.88781L18.2648 2.34591H18.5913ZM19.8729 2.83552C20.0191 2.83252 20.1059 2.73171 20.1337 2.53361H19.8828V2.26061H20.4285V2.33121C20.4265 2.58291 20.3769 2.77341 20.2785 2.90261C20.1804 3.03161 20.0475 3.09621 19.8802 3.09621C19.6838 3.09421 19.5339 3.02002 19.4307 2.87202C19.3275 2.72432 19.2759 2.51711 19.2759 2.25101C19.2759 1.98451 19.3275 1.77732 19.4307 1.62962C19.5339 1.48192 19.6813 1.40792 19.8729 1.40792C20.1084 1.41292 20.2757 1.51592 20.3749 1.71722L20.1337 1.83681C20.0801 1.72461 19.9931 1.66792 19.8729 1.66622C19.7592 1.66622 19.6764 1.72001 19.6243 1.82801C19.5724 1.93601 19.5463 2.07721 19.5463 2.25101C19.5463 2.42471 19.5724 2.56562 19.6243 2.67362C19.6764 2.78162 19.7592 2.83552 19.8729 2.83552ZM21.0059 3.06712H20.7425V1.43461H21.0059V3.06712ZM21.8977 3.09621C21.706 3.09621 21.5586 3.02372 21.4555 2.87832C21.3523 2.73282 21.3007 2.52371 21.3007 2.25101C21.3007 1.98451 21.3523 1.77732 21.4555 1.62962C21.5586 1.48192 21.706 1.40792 21.8977 1.40792C22.0924 1.40792 22.2407 1.48192 22.3421 1.62962C22.4439 1.77732 22.4946 1.98451 22.4946 2.25101C22.4946 2.52371 22.4439 2.73282 22.3421 2.87832C22.2407 3.02372 22.0924 3.09621 21.8977 3.09621ZM21.8977 1.66622C21.784 1.66622 21.7009 1.72001 21.6491 1.82801C21.5972 1.93601 21.5703 2.07552 21.5686 2.24592C21.5686 2.43782 21.5944 2.58292 21.6454 2.68212C21.6967 2.78132 21.7806 2.82981 21.8977 2.82841C22.021 2.82541 22.1063 2.77402 22.1534 2.67472C22.2004 2.57582 22.2256 2.43272 22.229 2.24592C22.226 2.06422 22.1984 1.92361 22.1474 1.82461C22.0961 1.72541 22.013 1.67272 21.8977 1.66622Z" fill="white"/>
<path fill-rule="evenodd" clip-rule="evenodd" d="M0.431396 3.97321H24.5911V4.18891H0.431396V3.97321Z" fill="white"/>
<path fill-rule="evenodd" clip-rule="evenodd" d="M2.3091 6.10862H2.147V5.51452L1.9097 6.10862L1.6722 5.51452V6.10862H1.50999V5.08282H1.6722L1.9097 5.65852L2.147 5.08282H2.3091V6.10862ZM2.8114 6.12711C2.691 6.12711 2.5983 6.08142 2.5336 5.98992C2.4687 5.89862 2.4364 5.76732 2.4364 5.59582C2.4364 5.42832 2.4687 5.29821 2.5336 5.20521C2.5983 5.11251 2.691 5.06602 2.8114 5.06602C2.9339 5.06602 3.0271 5.11251 3.0909 5.20521C3.1547 5.29821 3.18649 5.42832 3.18649 5.59582C3.18649 5.76732 3.1547 5.89862 3.0909 5.98992C3.0271 6.08142 2.9339 6.12711 2.8114 6.12711ZM2.8114 5.22822C2.74 5.22822 2.6878 5.26221 2.6552 5.33021C2.6226 5.39801 2.6059 5.48562 2.6048 5.59272C2.6048 5.71322 2.6209 5.80451 2.653 5.86681C2.685 5.92891 2.738 5.95952 2.8114 5.95872C2.8891 5.95672 2.9427 5.92441 2.9722 5.86201C3.0019 5.79991 3.01749 5.71012 3.01979 5.59272C3.01779 5.47852 3.00049 5.39002 2.96849 5.32772C2.93619 5.26562 2.884 5.23242 2.8114 5.22822ZM3.9552 5.22721H3.7179V6.10902H3.5555V5.22721H3.3214V5.08321H3.9552V5.22721ZM4.46519 6.12751C4.34469 6.12751 4.25199 6.08182 4.18739 5.99032C4.12249 5.89902 4.0901 5.76771 4.0901 5.59621C4.0901 5.42871 4.12249 5.29862 4.18739 5.20562C4.25199 5.11292 4.34469 5.06641 4.46519 5.06641C4.58759 5.06641 4.68091 5.11292 4.74471 5.20562C4.80841 5.29862 4.84019 5.42871 4.84019 5.59621C4.84019 5.76771 4.80841 5.89902 4.74471 5.99032C4.68091 6.08182 4.58759 6.12751 4.46519 6.12751ZM4.46519 5.22861C4.39369 5.22861 4.34159 5.26262 4.30899 5.33062C4.27639 5.39842 4.2597 5.48602 4.2585 5.59312C4.2585 5.71362 4.2747 5.80491 4.3067 5.86721C4.3387 5.92931 4.39169 5.95991 4.46519 5.95911C4.54279 5.95711 4.5964 5.92482 4.6259 5.86242C4.6557 5.80032 4.67119 5.71052 4.67349 5.59312C4.67149 5.47892 4.65419 5.39042 4.62219 5.32812C4.58989 5.26602 4.53769 5.23281 4.46519 5.22861ZM5.3533 5.96362C5.4289 5.96262 5.48341 5.92681 5.51711 5.85651L5.66879 5.93131C5.60639 6.05801 5.5012 6.12292 5.3533 6.12582C5.2328 6.12582 5.1401 6.07951 5.0755 5.98661C5.0105 5.89361 4.9782 5.76351 4.9782 5.59621C4.9782 5.42871 5.0105 5.29862 5.0755 5.20562C5.1401 5.11292 5.2328 5.06641 5.3533 5.06641C5.5012 5.06941 5.60639 5.13422 5.66879 5.26092L5.51711 5.33572C5.48341 5.26542 5.4289 5.22971 5.3533 5.22861C5.2818 5.22861 5.2297 5.26262 5.1971 5.33062C5.1645 5.39842 5.14799 5.48681 5.14799 5.59621C5.14799 5.70541 5.1645 5.79381 5.1971 5.86181C5.2297 5.92961 5.2818 5.96362 5.3533 5.96362ZM6.04089 6.10902H5.8754V5.08321H6.04089V6.10902ZM6.62399 5.96362C6.69969 5.96262 6.7541 5.92681 6.7879 5.85651L6.9395 5.93131C6.8772 6.05801 6.77199 6.12292 6.62399 6.12582C6.50359 6.12582 6.41089 6.07951 6.34619 5.98661C6.28129 5.89361 6.24899 5.76351 6.24899 5.59621C6.24899 5.42871 6.28129 5.29862 6.34619 5.20562C6.41089 5.11292 6.50359 5.06641 6.62399 5.06641C6.77199 5.06941 6.8772 5.13422 6.9395 5.26092L6.7879 5.33572C6.7541 5.26542 6.69969 5.22971 6.62399 5.22861C6.55259 5.22861 6.5004 5.26262 6.4678 5.33062C6.4352 5.39842 6.41879 5.48681 6.41879 5.59621C6.41879 5.70541 6.4352 5.79381 6.4678 5.86181C6.5004 5.92961 6.55259 5.96362 6.62399 5.96362ZM7.7327 6.10902H7.0957V5.08321H7.2581V5.94381H7.7327V6.10902ZM8.5213 6.10902H7.88429V5.08321H8.48889V5.24561H8.04669V5.49821H8.3452V5.66341H8.04669V5.94381H8.5213V6.10902ZM9.3067 5.22721H9.0695V6.10902H8.9071V5.22721H8.6729V5.08321H9.3067V5.22721ZM10.2821 6.10902H10.1106L10.0097 5.82131H9.6897L9.5885 6.10902H9.4156L9.7677 5.08321H9.9301L10.2821 6.10902ZM9.95129 5.65582L9.8504 5.36811L9.7464 5.65582H9.95129Z" fill="white"/>
<path fill-rule="evenodd" clip-rule="evenodd" d="M2.3766 8.59602H2.20509L2.1042 8.30831H1.78419L1.683 8.59602H1.50999L1.86209 7.57021H2.02449L2.3766 8.59602ZM2.04579 8.14281L1.9449 7.85511L1.84081 8.14281H2.04579ZM3.1805 8.22872C3.1805 8.30922 3.1646 8.38001 3.1329 8.44131C3.1074 8.49261 3.06649 8.53401 3.01039 8.56631C2.95429 8.59831 2.8948 8.61451 2.8313 8.61451C2.7681 8.61451 2.7085 8.59831 2.6524 8.56631C2.5963 8.53401 2.5549 8.49261 2.5282 8.44131C2.4976 8.38001 2.4823 8.30922 2.4823 8.22872V7.57021H2.64479V8.22872C2.64479 8.29502 2.6618 8.34831 2.6958 8.38851C2.7301 8.42881 2.7751 8.44921 2.8313 8.44921C2.8877 8.44921 2.9328 8.42881 2.9668 8.38851C3.0011 8.34831 3.0181 8.29502 3.0181 8.22872V7.57021H3.1805V8.22872ZM3.966 7.71421H3.7287V8.59602H3.5663V7.71421H3.3322V7.57021H3.966V7.71421ZM4.47589 8.61451C4.35549 8.61451 4.2628 8.56882 4.1981 8.47732C4.1332 8.38602 4.10089 8.25471 4.10089 8.08321C4.10089 7.91571 4.1332 7.78562 4.1981 7.69262C4.2628 7.59992 4.35549 7.55341 4.47589 7.55341C4.59839 7.55341 4.6917 7.59992 4.7554 7.69262C4.8192 7.78562 4.851 7.91571 4.851 8.08321C4.851 8.25471 4.8192 8.38602 4.7554 8.47732C4.6917 8.56882 4.59839 8.61451 4.47589 8.61451ZM4.47589 7.71561C4.40449 7.71561 4.3523 7.74962 4.3197 7.81762C4.2871 7.88542 4.2704 7.97302 4.2693 8.08012C4.2693 8.20062 4.2854 8.29191 4.3175 8.35421C4.3495 8.41631 4.40249 8.44691 4.47589 8.44611C4.55359 8.44411 4.6072 8.41182 4.6367 8.34942C4.6664 8.28732 4.682 8.19752 4.6843 8.08012C4.6823 7.96592 4.665 7.87742 4.633 7.81512C4.6007 7.75302 4.54849 7.71981 4.47589 7.71561ZM5.7804 8.59602H5.6183V8.00191L5.381 8.59602L5.14349 8.00191V8.59602H4.9814V7.57021H5.14349L5.381 8.14591L5.6183 7.57021H5.7804V8.59602ZM6.2827 8.61451C6.1623 8.61451 6.0696 8.56882 6.0049 8.47732C5.94 8.38602 5.9077 8.25471 5.9077 8.08321C5.9077 7.91571 5.94 7.78562 6.0049 7.69262C6.0696 7.59992 6.1623 7.55341 6.2827 7.55341C6.4052 7.55341 6.49849 7.59992 6.56219 7.69262C6.62599 7.78562 6.65779 7.91571 6.65779 8.08321C6.65779 8.25471 6.62599 8.38602 6.56219 8.47732C6.49849 8.56882 6.4052 8.61451 6.2827 8.61451ZM6.2827 7.71561C6.2113 7.71561 6.1591 7.74962 6.1265 7.81762C6.0939 7.88542 6.0772 7.97302 6.0761 8.08012C6.0761 8.20062 6.0922 8.29191 6.1243 8.35421C6.1563 8.41631 6.2093 8.44691 6.2827 8.44611C6.3604 8.44411 6.414 8.41182 6.4435 8.34942C6.4732 8.28732 6.4888 8.19752 6.4911 8.08012C6.4891 7.96592 6.4718 7.87742 6.4398 7.81512C6.4075 7.75302 6.3553 7.71981 6.2827 7.71561ZM6.145 7.52741L6.24449 7.31762H6.4222L6.2567 7.52741H6.145ZM7.5291 7.57021L7.2122 8.59602H7.06371L6.7513 7.57021H6.9214L7.1402 8.25471L7.3562 7.57021H7.5291ZM8.2795 8.59602H7.6425V7.57021H8.2471V7.73261H7.8049V7.98522H8.10339V8.15041H7.8049V8.43081H8.2795V8.59602ZM9.0681 8.59602H8.43109V7.57021H8.59349V8.43081H9.0681V8.59602ZM2.2541 9.92352C2.2541 10.004 2.2383 10.0749 2.2065 10.1361C2.181 10.1874 2.14019 10.2288 2.08409 10.2611C2.02789 10.2931 1.96839 10.3093 1.90489 10.3093C1.84169 10.3093 1.7822 10.2931 1.726 10.2611C1.6699 10.2288 1.6285 10.1874 1.6019 10.1361C1.5713 10.0749 1.556 10.004 1.556 9.92352V9.26502H1.7184V9.92352C1.7184 9.98982 1.73539 10.0431 1.76939 10.0834C1.80369 10.1236 1.84879 10.144 1.90489 10.144C1.96129 10.144 2.00641 10.1236 2.04041 10.0834C2.07471 10.0431 2.09171 9.98982 2.09171 9.92352V9.26502H2.2541V9.92352ZM3.0396 9.40902H2.8024V10.2909H2.63989V9.40902H2.40579V9.26502H3.0396V9.40902ZM3.4104 10.2909H3.2448V9.26502H3.4104V10.2909ZM4.2523 10.2909H3.6153V9.26502H3.7778V10.1256H4.2523V10.2909ZM4.6199 10.2909H4.45439V9.26502H4.6199V10.2909ZM5.45869 9.40902H5.22141V10.2909H5.05899V9.40902H4.82491V9.26502H5.45869V9.40902ZM5.8615 9.22222L5.961 9.01241H6.1387L5.97319 9.22222H5.8615ZM6.4341 10.2909H6.2626L6.1617 10.0031H5.84171L5.74049 10.2909H5.5676L5.9196 9.26502H6.082L6.4341 10.2909ZM6.1033 9.83761L6.0024 9.54992L5.89839 9.83761H6.1033ZM7.23799 10.2909H7.062L6.89639 9.84531H6.7023V10.2909H6.53979V9.26502H6.9455C7.0294 9.26602 7.09539 9.29652 7.14389 9.35632C7.19239 9.41582 7.21649 9.48162 7.21649 9.55302C7.21649 9.60712 7.2017 9.65822 7.1722 9.70692C7.1425 9.75542 7.1042 9.79032 7.0574 9.81152L7.23799 10.2909ZM7.05569 9.55752C7.05569 9.51762 7.0438 9.48702 7.0197 9.46572C6.9959 9.44422 6.969 9.43311 6.9395 9.43201H6.7023V9.68452H6.9455C6.9761 9.68452 7.0022 9.67351 7.0237 9.65081C7.045 9.62841 7.05569 9.59722 7.05569 9.55752ZM7.6057 10.2909H7.44009V9.26502H7.6057V10.2909ZM8.1658 10.3093C8.0453 10.3093 7.9526 10.2637 7.888 10.1721C7.8231 10.0808 7.7908 9.94961 7.7908 9.77811C7.7908 9.61051 7.8231 9.48042 7.888 9.38752C7.9526 9.29482 8.0453 9.24831 8.1658 9.24831C8.2882 9.24831 8.3815 9.29482 8.4453 9.38752C8.5091 9.48042 8.5408 9.61051 8.5408 9.77811C8.5408 9.94961 8.5091 10.0808 8.4453 10.1721C8.3815 10.2637 8.2882 10.3093 8.1658 10.3093ZM8.1658 9.41041C8.0944 9.41041 8.0422 9.44442 8.0096 9.51252C7.977 9.58022 7.96029 9.66782 7.95909 9.77502C7.95909 9.89542 7.97529 9.98671 8.00729 10.0491C8.03939 10.1111 8.0924 10.1418 8.1658 10.1409C8.2435 10.1389 8.29699 10.1066 8.32649 10.0442C8.35629 9.98221 8.3719 9.89232 8.3741 9.77502C8.3721 9.66072 8.3549 9.57231 8.3228 9.50991C8.2905 9.44781 8.2384 9.41471 8.1658 9.41041Z" fill="white"/>
<path fill-rule="evenodd" clip-rule="evenodd" d="M1.8851 12.3973C1.9608 12.3963 2.0152 12.3604 2.0489 12.2901L2.20059 12.365C2.13819 12.4917 2.033 12.5566 1.8851 12.5594C1.7646 12.5594 1.6719 12.5132 1.6073 12.4202C1.5424 12.3273 1.50999 12.1972 1.50999 12.0299C1.50999 11.8624 1.5424 11.7323 1.6073 11.6393C1.6719 11.5466 1.7646 11.5001 1.8851 11.5001C2.033 11.5031 2.13819 11.5679 2.20059 11.6946L2.0489 11.7694C2.0152 11.6991 1.9608 11.6634 1.8851 11.6623C1.8136 11.6623 1.7615 11.6963 1.7289 11.7643C1.6963 11.8321 1.67979 11.9205 1.67979 12.0299C1.67979 12.1391 1.6963 12.2275 1.7289 12.2955C1.7615 12.3633 1.8136 12.3973 1.8851 12.3973ZM2.7119 12.5611C2.5915 12.5611 2.4988 12.5155 2.4341 12.4239C2.3692 12.3327 2.3369 12.2014 2.3369 12.0299C2.3369 11.8624 2.3692 11.7323 2.4341 11.6393C2.4988 11.5466 2.5915 11.5001 2.7119 11.5001C2.8344 11.5001 2.92769 11.5466 2.99139 11.6393C3.05519 11.7323 3.08699 11.8624 3.08699 12.0299C3.08699 12.2014 3.05519 12.3327 2.99139 12.4239C2.92769 12.5155 2.8344 12.5611 2.7119 12.5611ZM2.7119 11.6623C2.6405 11.6623 2.58829 11.6963 2.55569 11.7643C2.52309 11.8321 2.50639 11.9197 2.50529 12.0268C2.50529 12.1473 2.5214 12.2385 2.5535 12.3009C2.5855 12.363 2.6385 12.3936 2.7119 12.3928C2.7896 12.3908 2.8432 12.3585 2.8727 12.2961C2.9024 12.234 2.918 12.1442 2.9203 12.0268C2.9183 11.9126 2.901 11.8241 2.869 11.7618C2.8367 11.6997 2.7845 11.6665 2.7119 11.6623ZM4.0164 12.5427H3.85429V11.9486L3.617 12.5427L3.3795 11.9486V12.5427H3.21739V11.5168H3.3795L3.617 12.0926L3.85429 11.5168H4.0164V12.5427ZM4.80049 12.5427H4.1636V11.5168H4.7682V11.6793H4.326V11.9318H4.6245V12.0971H4.326V12.3774H4.80049V12.5427ZM5.6503 12.5427H5.4743L5.30879 12.0971H5.11459V12.5427H4.95219V11.5168H5.3578C5.4417 11.5178 5.5077 11.5483 5.5562 11.6081C5.6047 11.6677 5.6288 11.7334 5.6288 11.8048C5.6288 11.859 5.61399 11.91 5.58459 11.9588C5.55479 12.0072 5.5165 12.0421 5.4698 12.0634L5.6503 12.5427ZM5.46809 11.8094C5.46809 11.7694 5.4562 11.7388 5.4321 11.7175C5.4082 11.696 5.38129 11.6849 5.35179 11.6838H5.11459V11.9364H5.3578C5.3884 11.9364 5.4145 11.9253 5.436 11.9026C5.4573 11.8802 5.46809 11.8491 5.46809 11.8094ZM6.1801 12.3973C6.2558 12.3963 6.31019 12.3604 6.34399 12.2901L6.49561 12.365C6.43331 12.4917 6.3281 12.5566 6.1801 12.5594C6.0597 12.5594 5.967 12.5132 5.9023 12.4202C5.8374 12.3273 5.8051 12.1972 5.8051 12.0299C5.8051 11.8624 5.8374 11.7323 5.9023 11.6393C5.967 11.5466 6.0597 11.5001 6.1801 11.5001C6.3281 11.5031 6.43331 11.5679 6.49561 11.6946L6.34399 11.7694C6.31019 11.6991 6.2558 11.6634 6.1801 11.6623C6.1087 11.6623 6.0565 11.6963 6.0239 11.7643C5.9913 11.8321 5.9749 11.9205 5.9749 12.0299C5.9749 12.1391 5.9913 12.2275 6.0239 12.2955C6.0565 12.3633 6.1087 12.3973 6.1801 12.3973ZM6.8678 12.5427H6.7023V11.5168H6.8678V12.5427ZM7.8934 12.5427H7.72189L7.621 12.255H7.3009L7.19969 12.5427H7.02679L7.37889 11.5168H7.54129L7.8934 12.5427ZM7.56259 12.0894L7.4617 11.8017L7.3576 12.0894H7.56259ZM8.63609 12.5427H7.9991V11.5168H8.1615V12.3774H8.63609V12.5427ZM1.8743 13.7919H1.67979V14.2375H1.5177V13.2117H1.8559C1.9316 13.2117 1.9922 13.2227 2.0381 13.2446C2.0841 13.2667 2.1218 13.3015 2.1507 13.3494C2.1799 13.3976 2.19431 13.4475 2.19431 13.4997C2.19431 13.5538 2.18269 13.6026 2.15919 13.6465C2.13569 13.6905 2.1002 13.7259 2.0529 13.7531C2.0053 13.78 1.9457 13.7931 1.8743 13.7919ZM2.0305 13.5028C2.0305 13.4628 2.01859 13.4322 1.99449 13.4107C1.97069 13.3894 1.94369 13.3781 1.91429 13.3772H1.677V13.6298H1.9202C1.9508 13.6298 1.9769 13.6185 1.9985 13.5961C2.0197 13.5737 2.0305 13.5425 2.0305 13.5028ZM2.7119 14.256C2.5915 14.256 2.4988 14.2103 2.4341 14.1188C2.3692 14.0275 2.3369 13.8962 2.3369 13.7248C2.3369 13.5572 2.3692 13.4271 2.4341 13.3341C2.4988 13.2414 2.5915 13.195 2.7119 13.195C2.8344 13.195 2.92769 13.2414 2.99139 13.3341C3.05519 13.4271 3.08699 13.5572 3.08699 13.7248C3.08699 13.8962 3.05519 14.0275 2.99139 14.1188C2.92769 14.2103 2.8344 14.256 2.7119 14.256ZM2.7119 13.3571C2.6405 13.3571 2.58829 13.3911 2.55569 13.4591C2.52309 13.5269 2.50639 13.6145 2.50529 13.7216C2.50529 13.8421 2.5214 13.9334 2.5535 13.9957C2.5855 14.0578 2.6385 14.0884 2.7119 14.0876C2.7896 14.0856 2.8432 14.0533 2.8727 13.9909C2.9024 13.9288 2.918 13.839 2.9203 13.7216C2.9183 13.6074 2.901 13.519 2.869 13.4566C2.8367 13.3945 2.7845 13.3614 2.7119 13.3571ZM3.9201 14.2375H3.744L3.57849 13.7919H3.38429V14.2375H3.22189V13.2117H3.6275C3.7114 13.2127 3.7775 13.2431 3.8259 13.303C3.8744 13.3625 3.8985 13.4282 3.8985 13.4997C3.8985 13.5538 3.88379 13.6048 3.85429 13.6536C3.82449 13.7021 3.7863 13.7369 3.7395 13.7582L3.9201 14.2375ZM3.73779 13.5042C3.73779 13.4642 3.7259 13.4336 3.7018 13.4124C3.678 13.3908 3.6511 13.3798 3.6216 13.3786H3.38429V13.6312H3.6275C3.6581 13.6312 3.6842 13.6202 3.7058 13.5975C3.727 13.5751 3.73779 13.5439 3.73779 13.5042ZM5.099 14.2375H4.46199V13.2117H5.0667V13.3741H4.6245V13.6267H4.923V13.7919H4.6245V14.0723H5.099V14.2375ZM5.4666 14.2375H5.3011V13.2117H5.4666V14.2375ZM6.3391 14.2375H6.1555L5.9899 13.8962L5.82469 14.2375H5.64099L5.8967 13.7094L5.65939 13.2117H5.84171L5.9899 13.5181L6.13699 13.2117H6.32069L6.08029 13.7094L6.3391 14.2375ZM6.8154 14.256C6.6949 14.256 6.6022 14.2103 6.5376 14.1188C6.4727 14.0275 6.44029 13.8962 6.44029 13.7248C6.44029 13.5572 6.4727 13.4271 6.5376 13.3341C6.6022 13.2414 6.6949 13.195 6.8154 13.195C6.9378 13.195 7.03109 13.2414 7.09489 13.3341C7.15859 13.4271 7.1904 13.5572 7.1904 13.7248C7.1904 13.8962 7.15859 14.0275 7.09489 14.1188C7.03109 14.2103 6.9378 14.256 6.8154 14.256ZM6.8154 13.3571C6.7439 13.3571 6.69179 13.3911 6.65919 13.4591C6.62659 13.5269 6.6099 13.6145 6.6087 13.7216C6.6087 13.8421 6.62489 13.9334 6.65689 13.9957C6.68889 14.0578 6.7419 14.0884 6.8154 14.0876C6.893 14.0856 6.9466 14.0533 6.9761 13.9909C7.0059 13.9288 7.0214 13.839 7.0237 13.7216C7.0217 13.6074 7.0044 13.519 6.9724 13.4566C6.9401 13.3945 6.8879 13.3614 6.8154 13.3571Z" fill="white"/>
<path fill-rule="evenodd" clip-rule="evenodd" d="M15.2093 5.82232H15.0333L14.8677 5.37672H14.6736V5.82232H14.5111V4.79652H14.9168C15.0007 4.79752 15.0667 4.82792 15.1152 4.88772C15.1637 4.94732 15.1878 5.01301 15.1878 5.08451C15.1878 5.13861 15.173 5.18961 15.1436 5.23841C15.1138 5.28691 15.0755 5.32171 15.0288 5.34301L15.2093 5.82232ZM15.0271 5.08901C15.0271 5.04901 15.0151 5.01842 14.9911 4.99722C14.9672 4.97562 14.9403 4.96462 14.9108 4.96342H14.6736V5.21601H14.9168C14.9474 5.21601 14.9735 5.20492 14.995 5.18232C15.0163 5.15992 15.0271 5.12871 15.0271 5.08901ZM15.7561 4.67092V4.84551H15.6167V4.67092H15.7561ZM15.7561 5.82371V5.99842H15.6167V5.82371H15.7561ZM15.8219 5.02921C15.7893 4.96911 15.7385 4.93852 15.6702 4.93742C15.6305 4.93742 15.5974 4.94952 15.5707 4.97422C15.5441 4.99862 15.5313 5.02782 15.5325 5.06152C15.5325 5.08592 15.5444 5.10801 15.5685 5.12731C15.5926 5.14651 15.6305 5.16041 15.6824 5.16871C15.806 5.18991 15.8956 5.23162 15.9511 5.29342C16.0067 5.35522 16.0345 5.42581 16.0345 5.50541C16.0345 5.59331 16.0013 5.67102 15.935 5.73902C15.8687 5.80672 15.7862 5.84081 15.687 5.84081C15.5299 5.83881 15.4131 5.75911 15.3366 5.60181L15.4911 5.52381C15.539 5.62281 15.6053 5.67242 15.6901 5.67242C15.7391 5.67322 15.7816 5.65622 15.8174 5.62112C15.8531 5.58592 15.8709 5.54481 15.8709 5.49781C15.8718 5.46601 15.8582 5.43481 15.8295 5.40371C15.8009 5.37251 15.7505 5.35041 15.6779 5.33701C15.5798 5.32261 15.505 5.29282 15.4528 5.24752C15.4007 5.20212 15.3749 5.14771 15.3749 5.08451C15.3729 5.00881 15.3992 4.93931 15.4545 4.87531C15.5095 4.81151 15.5824 4.77972 15.6734 4.77972C15.8009 4.78272 15.8959 4.84302 15.9579 4.96032L15.8219 5.02921ZM16.4557 6.12711V6.02901H17.3466V6.12711H16.4557ZM17.307 6.12711V6.02901H18.1979V6.12711H17.307ZM18.4201 5.75031C18.4201 5.80651 18.4068 5.85241 18.3802 5.88811C18.3538 5.92381 18.3144 5.94851 18.2622 5.96151V5.93711C18.3113 5.90851 18.3393 5.87392 18.3464 5.83312H18.3374C18.3158 5.83312 18.2968 5.82511 18.2798 5.80791C18.2631 5.79091 18.2546 5.77191 18.2546 5.75031C18.2546 5.72911 18.2626 5.70981 18.2798 5.69311C18.2968 5.67611 18.3158 5.66761 18.3374 5.66761C18.3589 5.66761 18.3779 5.67561 18.3946 5.69311C18.4116 5.70981 18.4201 5.72911 18.4201 5.75031ZM18.8623 6.12711V6.02901H19.7533V6.12711H18.8623ZM19.7136 6.12711V6.02901H20.6045V6.12711H19.7136Z" fill="white"/>
<path fill-rule="evenodd" clip-rule="evenodd" d="M15.2093 9.23692H15.0333L14.8677 8.79131H14.6736V9.23692H14.5111V8.21111H14.9168C15.0007 8.21211 15.0667 8.24252 15.1152 8.30242C15.1637 8.36192 15.1878 8.42771 15.1878 8.49911C15.1878 8.55321 15.173 8.60421 15.1436 8.65301C15.1138 8.70151 15.0755 8.73632 15.0288 8.75762L15.2093 9.23692ZM15.0271 8.50361C15.0271 8.46371 15.0151 8.43301 14.9911 8.41181C14.9672 8.39021 14.9403 8.37921 14.9108 8.37801H14.6736V8.63061H14.9168C14.9474 8.63061 14.9735 8.61962 14.995 8.59692C15.0163 8.57452 15.0271 8.54331 15.0271 8.50361ZM15.7561 8.08552V8.26011H15.6167V8.08552H15.7561ZM15.7561 9.23841V9.41302H15.6167V9.23841H15.7561ZM15.8219 8.44381C15.7893 8.38371 15.7385 8.35311 15.6702 8.35201C15.6305 8.35201 15.5974 8.36422 15.5707 8.38882C15.5441 8.41322 15.5313 8.44241 15.5325 8.47611C15.5325 8.50051 15.5444 8.52261 15.5685 8.54191C15.5926 8.56121 15.6305 8.57512 15.6824 8.58332C15.806 8.60452 15.8956 8.64622 15.9511 8.70802C16.0067 8.76982 16.0345 8.84042 16.0345 8.92002C16.0345 9.00792 16.0013 9.08562 15.935 9.15362C15.8687 9.22142 15.7862 9.25541 15.687 9.25541C15.5299 9.25341 15.4131 9.17371 15.3366 9.01641L15.4911 8.93851C15.539 9.03741 15.6053 9.08701 15.6901 9.08701C15.7391 9.08781 15.7816 9.07081 15.8174 9.03571C15.8531 9.00051 15.8709 8.95942 15.8709 8.91242C15.8718 8.88062 15.8582 8.84942 15.8295 8.81832C15.8009 8.78712 15.7505 8.76502 15.6779 8.75172C15.5798 8.73722 15.505 8.70742 15.4528 8.66212C15.4007 8.61672 15.3749 8.56231 15.3749 8.49911C15.3729 8.42341 15.3992 8.35401 15.4545 8.28991C15.5095 8.22611 15.5824 8.19442 15.6734 8.19442C15.8009 8.19742 15.8959 8.25762 15.9579 8.37492L15.8219 8.44381ZM16.4557 9.54171V9.44361H17.3466V9.54171H16.4557ZM17.307 9.54171V9.44361H18.1979V9.54171H17.307ZM18.4201 9.16491C18.4201 9.22111 18.4068 9.26701 18.3802 9.30271C18.3538 9.33841 18.3144 9.36312 18.2622 9.37612V9.35171C18.3113 9.32311 18.3393 9.28852 18.3464 9.24772H18.3374C18.3158 9.24772 18.2968 9.23971 18.2798 9.22251C18.2631 9.20551 18.2546 9.18651 18.2546 9.16491C18.2546 9.14371 18.2626 9.12442 18.2798 9.10772C18.2968 9.09072 18.3158 9.08222 18.3374 9.08222C18.3589 9.08222 18.3779 9.09022 18.3946 9.10772C18.4116 9.12442 18.4201 9.14371 18.4201 9.16491ZM18.8623 9.54171V9.44361H19.7533V9.54171H18.8623ZM19.7136 9.54171V9.44361H20.6045V9.54171H19.7136Z" fill="white"/>
<path fill-rule="evenodd" clip-rule="evenodd" d="M15.2093 13.3015H15.0333L14.8677 12.8559H14.6736V13.3015H14.5111V12.2757H14.9168C15.0007 12.2767 15.0667 12.3071 15.1152 12.367C15.1637 12.4265 15.1878 12.4922 15.1878 12.5637C15.1878 12.6178 15.173 12.6688 15.1436 12.7176C15.1138 12.7661 15.0755 12.8009 15.0288 12.8222L15.2093 13.3015ZM15.0271 12.5682C15.0271 12.5282 15.0151 12.4976 14.9911 12.4764C14.9672 12.4548 14.9403 12.4438 14.9108 12.4426H14.6736V12.6952H14.9168C14.9474 12.6952 14.9735 12.6842 14.995 12.6615C15.0163 12.6391 15.0271 12.6079 15.0271 12.5682ZM15.7561 12.1501V12.3247H15.6167V12.1501H15.7561ZM15.7561 13.303V13.4776H15.6167V13.303H15.7561ZM15.8219 12.5084C15.7893 12.4483 15.7385 12.4177 15.6702 12.4166C15.6305 12.4166 15.5974 12.4288 15.5707 12.4534C15.5441 12.4778 15.5313 12.507 15.5325 12.5407C15.5325 12.5651 15.5444 12.5872 15.5685 12.6065C15.5926 12.6258 15.6305 12.6397 15.6824 12.6479C15.806 12.6691 15.8956 12.7108 15.9511 12.7726C16.0067 12.8344 16.0345 12.905 16.0345 12.9846C16.0345 13.0725 16.0013 13.1502 15.935 13.2182C15.8687 13.286 15.7862 13.32 15.687 13.32C15.5299 13.318 15.4131 13.2383 15.3366 13.081L15.4911 13.0031C15.539 13.102 15.6053 13.1516 15.6901 13.1516C15.7391 13.1524 15.7816 13.1354 15.8174 13.1003C15.8531 13.0651 15.8709 13.024 15.8709 12.977C15.8718 12.9452 15.8582 12.914 15.8295 12.8829C15.8009 12.8517 15.7505 12.8296 15.6779 12.8162C15.5798 12.8018 15.505 12.772 15.4528 12.7267C15.4007 12.6813 15.3749 12.6269 15.3749 12.5637C15.3729 12.488 15.3992 12.4185 15.4545 12.3545C15.5095 12.2907 15.5824 12.259 15.6734 12.259C15.8009 12.262 15.8959 12.3222 15.9579 12.4395L15.8219 12.5084ZM16.4557 13.6063V13.5082H17.3466V13.6063H16.4557ZM17.307 13.6063V13.5082H18.1979V13.6063H17.307ZM18.4201 13.2295C18.4201 13.2857 18.4068 13.3316 18.3802 13.3673C18.3538 13.403 18.3144 13.4277 18.2622 13.4407V13.4163C18.3113 13.3877 18.3393 13.3531 18.3464 13.3123H18.3374C18.3158 13.3123 18.2968 13.3043 18.2798 13.2871C18.2631 13.2701 18.2546 13.2511 18.2546 13.2295C18.2546 13.2083 18.2626 13.189 18.2798 13.1723C18.2968 13.1553 18.3158 13.1468 18.3374 13.1468C18.3589 13.1468 18.3779 13.1548 18.3946 13.1723C18.4116 13.189 18.4201 13.2083 18.4201 13.2295ZM18.8623 13.6063V13.5082H19.7533V13.6063H18.8623ZM19.7136 13.6063V13.5082H20.6045V13.6063H19.7136Z" fill="white"/>
</svg>
