<svg width="12" height="12" viewBox="0 0 12 12" fill="none" xmlns="http://www.w3.org/2000/svg">
<path fill-rule="evenodd" clip-rule="evenodd" d="M0.26295 5.36252L5.36245 0.263025C5.71315 -0.087675 6.28685 -0.087675 6.63725 0.263025L11.737 5.36252C12.0873 5.71312 12.0873 6.28692 11.737 6.63752L6.63725 11.737C6.28685 12.0877 5.71315 12.0877 5.36245 11.737L0.26295 6.63752C-0.08765 6.28692 -0.08765 5.71312 0.26295 5.36252Z" fill="#FFEC00"/>
<path fill-rule="evenodd" clip-rule="evenodd" d="M0.365356 5.52052L5.52055 0.365417C5.65255 0.233417 5.82635 0.167419 6.00005 0.167419C6.17375 0.167419 6.34755 0.233417 6.47945 0.365417L11.6347 5.52052C11.7667 5.65252 11.8326 5.82632 11.8326 6.00002C11.8326 6.17372 11.7667 6.34752 11.6347 6.47952L6.47945 11.6346C6.34755 11.7666 6.17375 11.8326 6.00005 11.8326C5.82635 11.8326 5.65245 11.7666 5.52055 11.6346L0.365356 6.47952C0.233356 6.34752 0.16745 6.17372 0.16745 6.00002C0.16745 5.82632 0.233356 5.65252 0.365356 5.52052ZM5.71175 0.556618L0.556549 5.71172C0.477449 5.79092 0.437851 5.89542 0.437851 6.00002C0.437851 6.10462 0.477449 6.20912 0.556549 6.28832L5.71175 11.4434C5.79085 11.5226 5.89535 11.5621 6.00005 11.5621C6.10465 11.5621 6.20915 11.5226 6.28825 11.4434L11.4435 6.28832C11.5226 6.20912 11.5621 6.10462 11.5621 6.00002C11.5621 5.89542 11.5226 5.79092 11.4435 5.71172L6.28825 0.556618C6.20915 0.477418 6.10465 0.43782 6.00005 0.43782C5.89535 0.43782 5.79085 0.477418 5.71175 0.556618Z" fill="black"/>
<path fill-rule="evenodd" clip-rule="evenodd" d="M5.12295 8.91712H4.22184V3.08432H5.12295V8.91712Z" fill="black"/>
<path fill-rule="evenodd" clip-rule="evenodd" d="M7.35374 6.05852L7.77804 5.63422V3.08292H6.87704V5.26542L6.20205 5.94042L6.07134 6.07102V8.91592H6.97234V6.43982L7.35374 6.05852Z" fill="black"/>
</svg>
