<svg width="12" height="12" viewBox="0 0 12 12" fill="none" xmlns="http://www.w3.org/2000/svg">
<path fill-rule="evenodd" clip-rule="evenodd" d="M0.263025 5.36245L5.36252 0.26295C5.71322 -0.08765 6.28692 -0.08765 6.63722 0.26295L11.7371 5.36245C12.0874 5.71315 12.0874 6.28685 11.7371 6.63755L6.63722 11.7371C6.28692 12.0877 5.71322 12.0877 5.36252 11.7371L0.263025 6.63755C-0.087675 6.28685 -0.087675 5.71315 0.263025 5.36245Z" fill="#FFEC00"/>
<path fill-rule="evenodd" clip-rule="evenodd" d="M0.365417 5.52055L5.52062 0.365349C5.65252 0.233349 5.82632 0.16745 6.00002 0.16745C6.17372 0.16745 6.34752 0.233349 6.47952 0.365349L11.6347 5.52055C11.7666 5.65255 11.8326 5.82635 11.8326 6.00005C11.8326 6.17375 11.7666 6.34755 11.6347 6.47945L6.47952 11.6346C6.34752 11.7666 6.17372 11.8325 6.00002 11.8325C5.82632 11.8325 5.65252 11.7666 5.52062 11.6346L0.365417 6.47945C0.233417 6.34755 0.167419 6.17375 0.167419 6.00005C0.167419 5.82635 0.233417 5.65255 0.365417 5.52055ZM5.71182 0.556549L0.556618 5.71175C0.477518 5.79085 0.43792 5.89545 0.43792 6.00005C0.43792 6.10465 0.477518 6.20915 0.556618 6.28825L5.71182 11.4434C5.79092 11.5225 5.89542 11.5621 6.00002 11.5621C6.10462 11.5621 6.20912 11.5225 6.28832 11.4434L11.4435 6.28825C11.5226 6.20915 11.5622 6.10465 11.5622 6.00005C11.5622 5.89545 11.5226 5.79085 11.4435 5.71175L6.28832 0.556549C6.20912 0.477449 6.10462 0.437847 6.00002 0.437847C5.89542 0.437847 5.79092 0.477449 5.71182 0.556549Z" fill="black"/>
<path fill-rule="evenodd" clip-rule="evenodd" d="M6.44193 3.96725L5.82573 4.27195C5.21633 4.59355 4.65063 4.97595 4.23503 5.48415C3.61373 6.24385 3.68563 6.82075 3.66803 7.72875C3.66213 8.03315 3.64683 8.35275 3.65203 8.65945L4.58703 8.66165C4.59323 8.19925 4.57993 7.59235 4.58523 7.11315C4.58873 6.79845 4.57633 6.72265 4.71553 6.47755C4.95523 6.05535 5.49483 5.60295 5.89233 5.31145C5.97973 5.24735 6.85673 4.62975 6.92863 4.83555C6.93693 4.85945 6.93643 4.86175 6.94083 4.88995C6.98623 5.17555 6.95433 5.50615 7.18063 5.51055C7.33353 5.51355 7.37213 5.37065 7.43183 5.26125C7.71943 4.73495 7.99103 4.18775 8.28763 3.65545C8.45303 3.35845 8.29483 3.40715 7.69343 3.38885L6.27423 3.34055C6.13603 3.33565 5.93373 3.32475 5.92883 3.48845C5.92313 3.68155 6.32973 3.83165 6.44193 3.96725Z" fill="black"/>
</svg>
