<svg width="12" height="12" viewBox="0 0 12 12" fill="none" xmlns="http://www.w3.org/2000/svg">
<path fill-rule="evenodd" clip-rule="evenodd" d="M0.26295 5.36223L5.36255 0.262725C5.71315 -0.087575 6.28685 -0.087575 6.63725 0.262725L11.737 5.36223C12.0874 5.71293 12.0874 6.28663 11.737 6.63733L6.63725 11.7368C6.28685 12.0874 5.71315 12.0874 5.36255 11.7368L0.26295 6.63733C-0.08765 6.28663 -0.08765 5.71293 0.26295 5.36223Z" fill="#FFEC00"/>
<path fill-rule="evenodd" clip-rule="evenodd" d="M0.365448 5.52032L5.52055 0.36512C5.65255 0.23322 5.82635 0.167221 6.00005 0.167221C6.17375 0.167221 6.34755 0.23322 6.47955 0.36512L11.6347 5.52032C11.7667 5.65232 11.8326 5.82612 11.8326 5.99982C11.8326 6.17352 11.7667 6.34732 11.6347 6.47922L6.47955 11.6344C6.34755 11.7664 6.17375 11.8324 6.00005 11.8324C5.82635 11.8324 5.65255 11.7664 5.52055 11.6344L0.365448 6.47922C0.233448 6.34732 0.16745 6.17352 0.16745 5.99982C0.16745 5.82612 0.233448 5.65232 0.365448 5.52032ZM5.71175 0.556419L0.556648 5.71152C0.477448 5.79072 0.437851 5.89522 0.437851 5.99982C0.437851 6.10442 0.477448 6.20892 0.556648 6.28802L5.71175 11.4432C5.79095 11.5223 5.89545 11.5619 6.00005 11.5619C6.10465 11.5619 6.20915 11.5223 6.28835 11.4432L11.4435 6.28802C11.5227 6.20892 11.5621 6.10442 11.5621 5.99982C11.5621 5.89522 11.5227 5.79072 11.4435 5.71152L6.28835 0.556419C6.20915 0.477219 6.10465 0.437618 6.00005 0.437618C5.89545 0.437618 5.79095 0.477219 5.71175 0.556419Z" fill="black"/>
<path fill-rule="evenodd" clip-rule="evenodd" d="M8.17795 8.81102C8.17775 7.53012 8.17765 6.25012 8.17745 4.96922C8.16805 4.54852 7.89155 4.14932 7.37005 4.12772C6.82235 4.12772 6.26945 4.12772 5.72165 4.12772C5.83735 3.86832 5.95305 3.61962 6.06875 3.36022C6.12215 3.24222 6.02905 3.14712 5.91115 3.20392C5.23305 3.63762 4.55495 4.07132 3.87695 4.50502C3.80385 4.55562 3.80385 4.60622 3.87695 4.65672C4.54245 5.08092 5.20286 5.50502 5.86836 5.92912C6.00886 6.03372 6.11975 5.93992 6.06915 5.80672C5.94985 5.54782 5.84595 5.29952 5.72665 5.04062C6.23485 5.04062 6.72755 5.04062 7.23575 5.04062C7.29105 5.03852 7.30086 5.06062 7.30026 5.11932C7.30036 6.34462 7.30055 7.58572 7.30065 8.81102C7.59315 8.81652 7.88555 8.80542 8.17795 8.81102Z" fill="black"/>
</svg>
