<svg width="26" height="16" viewBox="0 0 26 16" fill="none" xmlns="http://www.w3.org/2000/svg">
<path fill-rule="evenodd" clip-rule="evenodd" d="M0 7.62939e-06H25.0223V15.7623H0V7.62939e-06Z" fill="#4C4C4C"/>
<path fill-rule="evenodd" clip-rule="evenodd" d="M0 15.7623H25.0223V8.59211H0V15.7623Z" fill="white"/>
<path fill-rule="evenodd" clip-rule="evenodd" d="M0.431396 8.48432H24.5909V8.70002H0.431396V8.48432Z" fill="white"/>
<path fill-rule="evenodd" clip-rule="evenodd" d="M0.647102 0.319008H24.3752C24.464 0.319008 24.5448 0.355409 24.6034 0.414009C24.6619 0.472609 24.6987 0.553816 24.6987 0.642616V15.1197C24.6987 15.2084 24.6623 15.2892 24.6038 15.3478C24.5452 15.4063 24.464 15.4432 24.3752 15.4432H0.647102C0.558402 15.4432 0.477507 15.4068 0.418907 15.3483C0.360407 15.2897 0.323608 15.2084 0.323608 15.1197V0.642616C0.323608 0.553816 0.360003 0.473021 0.418503 0.414421C0.477103 0.355821 0.558402 0.319008 0.647102 0.319008ZM24.3752 0.534721H0.647102C0.617402 0.534721 0.590308 0.546807 0.570808 0.566307C0.551408 0.585807 0.539307 0.612816 0.539307 0.642616V15.1197C0.539307 15.1494 0.551408 15.1764 0.570808 15.196C0.590308 15.2154 0.617402 15.2275 0.647102 15.2275H24.3752C24.4049 15.2275 24.432 15.2154 24.4515 15.196C24.4709 15.1764 24.483 15.1494 24.483 15.1197V0.642616C24.483 0.612816 24.4709 0.585807 24.4515 0.566307C24.432 0.546807 24.4049 0.534721 24.3752 0.534721Z" fill="white"/>
<path fill-rule="evenodd" clip-rule="evenodd" d="M10.0123 12.5455H9.714L9.4343 11.7912H9.1049V12.5455H8.8302V10.809H9.517C9.6588 10.811 9.7707 10.862 9.8529 10.9632C9.9349 11.0642 9.976 11.1753 9.976 11.2963C9.976 11.3879 9.95069 11.4746 9.90089 11.5568C9.85069 11.6387 9.7858 11.698 9.7064 11.7343L10.0123 12.5455ZM9.7038 11.304C9.7038 11.2365 9.6834 11.1846 9.6429 11.1483C9.6024 11.1121 9.557 11.0931 9.5068 11.0914H9.1049V11.5191H9.517C9.5689 11.5191 9.6131 11.5001 9.6494 11.4621C9.6857 11.4242 9.7038 11.3714 9.7038 11.304ZM10.5435 12.4237C10.5435 12.4633 10.5299 12.4968 10.5021 12.5234C10.4746 12.5504 10.4417 12.5637 10.4037 12.5637C10.3674 12.5637 10.3348 12.5495 10.3065 12.5209C10.2779 12.4925 10.2637 12.4599 10.2637 12.4237C10.2637 12.3874 10.2779 12.3551 10.3065 12.3264C10.3348 12.2981 10.3674 12.2836 10.4037 12.2836C10.44 12.2836 10.4723 12.2981 10.5009 12.3264C10.5293 12.3551 10.5435 12.3874 10.5435 12.4237ZM12.5345 11.0525H12.1326V12.5455H11.8579V11.0525H11.4613V10.809H12.5345V11.0525ZM13.7682 12.5455H13.5011V12.5042C13.434 12.5523 13.3586 12.5776 13.2758 12.5793C13.1374 12.5773 13.0229 12.5382 12.9322 12.4614C12.8415 12.3845 12.7962 12.2726 12.7962 12.1257C12.7962 11.9996 12.8381 11.8936 12.922 11.8082C13.0056 11.7226 13.1193 11.6807 13.2627 11.6824C13.3424 11.6824 13.4167 11.6924 13.4858 11.711C13.4888 11.5849 13.4252 11.5157 13.2939 11.5035C13.1817 11.5005 13.0805 11.5313 12.9906 11.5968L12.8531 11.387C12.9776 11.2989 13.1219 11.2521 13.286 11.247C13.4209 11.247 13.5346 11.2853 13.627 11.3624C13.7194 11.4392 13.7665 11.5511 13.7682 11.698V12.5455ZM13.4779 12.2527V11.9676C13.4019 11.9469 13.326 11.9364 13.2497 11.9364C13.1893 11.9364 13.1391 11.9562 13.0995 11.9959C13.0598 12.0359 13.0408 12.0807 13.0425 12.1308C13.0425 12.1827 13.0629 12.232 13.1034 12.2785C13.144 12.3253 13.199 12.3485 13.2678 12.3485C13.3424 12.3485 13.4121 12.3165 13.4779 12.2527ZM15.1625 11.2782L14.6701 12.5455H14.4264L13.9391 11.2782H14.2322L14.5483 12.1308L14.8541 11.2782H15.1625ZM16.3083 12.5455H16.0413V12.5042C15.9741 12.5523 15.8987 12.5776 15.8159 12.5793C15.6776 12.5773 15.5631 12.5382 15.4723 12.4614C15.3816 12.3845 15.3363 12.2726 15.3363 12.1257C15.3363 11.9996 15.3782 11.8936 15.4621 11.8082C15.5458 11.7226 15.6594 11.6807 15.8029 11.6824C15.8825 11.6824 15.9568 11.6924 16.026 11.711C16.029 11.5849 15.9653 11.5157 15.834 11.5035C15.7218 11.5005 15.6206 11.5313 15.5307 11.5968L15.3933 11.387C15.5177 11.2989 15.662 11.2521 15.8261 11.247C15.961 11.247 16.0747 11.2853 16.1671 11.3624C16.2595 11.4392 16.3066 11.5511 16.3083 11.698V12.5455ZM16.018 12.2527V11.9676C15.942 11.9469 15.8661 11.9364 15.7898 11.9364C15.7294 11.9364 15.6793 11.9562 15.6396 11.9959C15.5999 12.0359 15.5809 12.0807 15.5826 12.1308C15.5826 12.1827 15.603 12.232 15.6436 12.2785C15.6841 12.3253 15.7391 12.3485 15.808 12.3485C15.8825 12.3485 15.9523 12.3165 16.018 12.2527ZM17.2959 11.3351L17.2052 11.5866C17.1533 11.5347 17.1006 11.5095 17.047 11.5115C16.9311 11.5145 16.8698 11.5959 16.863 11.755V12.5455H16.583V11.2572H16.8602V11.3507C16.907 11.2816 16.9744 11.247 17.0626 11.247C17.1507 11.249 17.2284 11.2782 17.2959 11.3351ZM18.4805 12.0271H17.7338C17.7338 12.1084 17.7557 12.1753 17.7987 12.2281C17.8418 12.2808 17.8982 12.3063 17.9671 12.3046C18.0641 12.3076 18.1383 12.2655 18.1902 12.1776L18.4363 12.2785C18.3501 12.4721 18.1953 12.5713 17.9725 12.5767C17.8152 12.5767 17.6885 12.5189 17.5927 12.403C17.4969 12.2873 17.4489 12.1212 17.4489 11.9052C17.4489 11.7275 17.4951 11.573 17.5876 11.4426C17.68 11.3122 17.8084 11.247 17.9725 11.247C18.1261 11.247 18.2494 11.3074 18.3419 11.4284C18.4343 11.5494 18.4805 11.749 18.4805 12.0271ZM18.2032 11.7731C18.2052 11.7005 18.1845 11.6376 18.1423 11.584C18.0998 11.5305 18.0434 11.5035 17.9725 11.5035C17.8963 11.5015 17.8359 11.5299 17.7911 11.5877C17.746 11.6458 17.7253 11.7073 17.7287 11.7731H18.2032ZM19.6027 12.2034C19.6007 12.314 19.5576 12.4035 19.4732 12.4716C19.3884 12.5399 19.2716 12.575 19.1231 12.5767C18.9539 12.5747 18.7982 12.5101 18.6565 12.3823L18.8379 12.2008C18.9434 12.2836 19.0386 12.3261 19.1231 12.3278C19.1837 12.3298 19.2351 12.3171 19.2773 12.2901C19.3198 12.2635 19.3399 12.23 19.3382 12.1904C19.3402 12.1507 19.3209 12.1135 19.2813 12.079C19.2416 12.0444 19.1775 12.0098 19.0894 11.9752C18.9615 11.9321 18.8683 11.8785 18.8096 11.8145C18.7509 11.7507 18.7214 11.6764 18.7214 11.5917C18.7164 11.5069 18.7512 11.4278 18.8263 11.3544C18.9014 11.281 19.0003 11.2444 19.1231 11.2444C19.3099 11.2474 19.4644 11.3145 19.5871 11.444L19.4134 11.6175C19.3289 11.5398 19.2336 11.4993 19.1285 11.4959C19.0851 11.4959 19.0511 11.5049 19.0259 11.5231C19.0009 11.5412 18.9876 11.5659 18.9859 11.5968C18.9839 11.6246 18.9939 11.647 19.0157 11.6642C19.0372 11.6815 19.0911 11.7065 19.1775 11.7394C19.3003 11.7774 19.4017 11.8326 19.4822 11.9052C19.5625 11.9778 19.6027 12.0773 19.6027 12.2034Z" fill="white"/>
<path fill-rule="evenodd" clip-rule="evenodd" d="M23.1067 12.2059L22.7026 10.5288C22.6918 10.4739 22.626 10.3672 22.4888 10.3934L20.817 10.8521C20.5879 10.9472 20.7302 11.1761 20.8355 11.1812L21.6964 11.3299L20.8601 12.5755L21.5746 12.9987L22.2589 11.66L22.8134 12.3538C22.9354 12.4855 23.1529 12.3715 23.1067 12.2059Z" fill="white"/>
<path fill-rule="evenodd" clip-rule="evenodd" d="M2.06699 13.5907L1.476 11.385L4.226 9.79723L7.08369 11.4471L6.5108 13.5852L2.06699 13.5907Z" fill="white"/>
<path fill-rule="evenodd" clip-rule="evenodd" d="M4.2799 10.0325L1.7434 11.4969L2.2465 13.3745H6.2959L6.8022 11.4851L4.2799 10.0325ZM1.6968 11.4592L4.2798 9.96793C5.1425 10.4644 6.0052 10.961 6.8675 11.4581C6.6917 12.1157 6.5153 12.7732 6.339 13.4307H2.2034C2.029 12.777 1.8538 12.1234 1.6781 11.47L1.6968 11.4592Z" fill="#1B1918"/>
<path fill-rule="evenodd" clip-rule="evenodd" d="M4.0584 10.7396C4.0326 10.6922 3.9929 10.6682 3.9393 10.6673C3.9081 10.6673 3.882 10.6773 3.8614 10.6962C3.8404 10.7155 3.8305 10.7382 3.8313 10.7648C3.8313 10.7841 3.8403 10.8011 3.8594 10.8164C3.8784 10.8317 3.9081 10.8425 3.9489 10.8487C4.0459 10.8657 4.1162 10.8983 4.1598 10.9468C4.2035 10.9953 4.2253 11.0505 4.2253 11.1132C4.2253 11.1821 4.19919 11.243 4.14709 11.2963C4.09519 11.3496 4.0303 11.3762 3.9526 11.3762C3.829 11.3742 3.7375 11.3122 3.6774 11.1889L3.7987 11.1277C3.8364 11.2053 3.8886 11.2442 3.9549 11.2442C3.9934 11.245 4.0266 11.2314 4.0547 11.2039C4.0827 11.1761 4.0966 11.1441 4.0966 11.1072C4.0975 11.0823 4.0866 11.0576 4.0643 11.0333C4.0419 11.0089 4.0022 10.9913 3.9453 10.9811C3.8684 10.9698 3.8095 10.9462 3.7687 10.9108C3.7278 10.8751 3.7074 10.8323 3.7074 10.7827C3.7054 10.7234 3.7267 10.6687 3.7698 10.6188C3.8132 10.5687 3.8704 10.5437 3.9416 10.5437C4.0419 10.5457 4.1162 10.5933 4.1652 10.6854L4.0584 10.7396ZM4.6157 11.0123H4.4631V11.3618H4.3359V10.557H4.6012C4.6604 10.557 4.70809 10.565 4.74409 10.5828C4.78029 10.5998 4.8095 10.6273 4.8325 10.665C4.8555 10.7027 4.8668 10.7419 4.8668 10.7827C4.8668 10.8252 4.8578 10.8637 4.839 10.898C4.8206 10.9326 4.7928 10.9604 4.7557 10.9817C4.7183 11.0029 4.6718 11.0131 4.6157 11.0123ZM4.7381 10.7852C4.7381 10.754 4.7291 10.73 4.71 10.7129C4.6911 10.6962 4.6701 10.6874 4.6468 10.6866H4.46059V10.885H4.6517C4.6757 10.885 4.6962 10.876 4.7129 10.8584C4.7299 10.8408 4.7381 10.8164 4.7381 10.7852Z" fill="#1B1918"/>
<path fill-rule="evenodd" clip-rule="evenodd" d="M3.5229 13.1451H2.524C2.5342 12.7961 2.7094 12.5251 3.0498 12.3324C3.2162 12.2448 3.2964 12.1623 3.2907 12.0849C3.2907 12.0294 3.2669 11.9834 3.2196 11.9469C3.172 11.9103 3.11051 11.8905 3.03451 11.8876C2.89701 11.8978 2.8043 11.9673 2.7561 12.0957L2.524 12.0279C2.562 11.9228 2.62521 11.834 2.71361 11.7618C2.80181 11.6895 2.90521 11.6532 3.02341 11.6532C3.16201 11.6532 3.28 11.6957 3.3772 11.7802C3.4744 11.8649 3.5229 11.9636 3.5229 12.0761C3.5189 12.2615 3.40611 12.4112 3.18561 12.5251C2.97671 12.6465 2.85191 12.774 2.81081 12.9084H3.5229V13.1451ZM4.7693 11.9094C4.5108 12.2981 4.3662 12.71 4.3356 13.1451H4.09891C4.13261 12.704 4.2582 12.2921 4.4756 11.9094H3.7746V11.6773H4.7693V11.9094ZM5.4986 13.1714C5.3263 13.1714 5.1939 13.106 5.1012 12.9753C5.0085 12.8446 4.96201 12.6567 4.96201 12.4112C4.96201 12.1717 5.0085 11.9854 5.1012 11.8525C5.1939 11.7198 5.3263 11.6532 5.4986 11.6532C5.6741 11.6532 5.80731 11.7198 5.89861 11.8525C5.98991 11.9854 6.03551 12.1717 6.03551 12.4112C6.03551 12.6567 5.98991 12.8446 5.89861 12.9753C5.80731 13.106 5.6741 13.1714 5.4986 13.1714ZM5.4986 11.8854C5.3966 11.8854 5.32201 11.9341 5.27531 12.0311C5.22851 12.1283 5.2044 12.2536 5.203 12.4069C5.203 12.5793 5.226 12.71 5.2719 12.799C5.3181 12.888 5.3935 12.9319 5.4986 12.9305C5.6098 12.9275 5.68631 12.8814 5.72881 12.7924C5.77111 12.7034 5.79371 12.5747 5.79661 12.4069C5.79361 12.2434 5.76941 12.1169 5.72311 12.0279C5.67721 11.9386 5.6024 11.8913 5.4986 11.8854Z" fill="#1B1918"/>
<path fill-rule="evenodd" clip-rule="evenodd" d="M8.6834 3.81622C8.8112 3.81422 8.90359 3.75422 8.96059 3.63482L9.21709 3.76182C9.11199 3.97612 8.934 4.08581 8.6834 4.09121C8.4793 4.09121 8.3225 4.01241 8.2128 3.85511C8.1031 3.69801 8.0481 3.47781 8.0481 3.19431C8.0481 2.91091 8.1031 2.69062 8.2128 2.53332C8.3225 2.37602 8.4793 2.29742 8.6834 2.29742C8.934 2.30242 9.11199 2.41222 9.21709 2.62652L8.96059 2.75352C8.90359 2.63452 8.8112 2.57382 8.6834 2.57212C8.5623 2.57212 8.4742 2.62971 8.4189 2.74451C8.3636 2.85961 8.3358 3.00921 8.3358 3.19431C8.3358 3.37911 8.3636 3.52911 8.4189 3.64391C8.4742 3.75901 8.5623 3.81622 8.6834 3.81622ZM10.4978 3.42762C10.4958 3.60202 10.4615 3.74451 10.3941 3.85511C10.3042 4.00561 10.1625 4.08502 9.9689 4.09382C9.7756 4.08482 9.6338 4.00561 9.544 3.85511C9.4765 3.74451 9.4419 3.60202 9.4402 3.42762C9.4422 3.24622 9.4765 3.10022 9.544 2.98942C9.6355 2.84422 9.7773 2.76912 9.9689 2.76402C10.1608 2.76902 10.3025 2.84422 10.3941 2.98942C10.4615 3.10022 10.4961 3.24622 10.4978 3.42762ZM9.96629 3.81881C10.0667 3.81881 10.1401 3.76982 10.1866 3.67112C10.2178 3.60202 10.2334 3.52171 10.2334 3.43021C10.2334 3.33321 10.2178 3.25051 10.1866 3.18131C10.1418 3.08291 10.0684 3.03361 9.96629 3.03361C9.86799 3.03361 9.7963 3.08291 9.7512 3.18131C9.72 3.25051 9.7047 3.33321 9.7047 3.43021C9.7047 3.52171 9.72 3.60202 9.7512 3.67112C9.8031 3.76982 9.87479 3.81881 9.96629 3.81881ZM10.692 2.77961H10.9616V2.85981C11.0375 2.79611 11.1387 2.76402 11.2649 2.76402C11.4117 2.76402 11.5214 2.81421 11.594 2.91431C11.6666 3.01461 11.7028 3.13112 11.7028 3.26432V4.06261H11.4358V3.26942C11.4398 3.20372 11.4177 3.14472 11.3712 3.09202C11.3244 3.03932 11.2657 3.01461 11.1949 3.01801C11.1206 3.01801 11.0639 3.03961 11.0251 3.08291C10.9862 3.12601 10.9667 3.18812 10.9667 3.26942V4.06261H10.692V2.77961ZM12.8381 3.72042C12.8361 3.83102 12.793 3.92061 12.7086 3.98861C12.6238 4.05691 12.507 4.09212 12.3585 4.09382C12.1893 4.09182 12.0336 4.02711 11.8919 3.89931L12.0733 3.71792C12.1788 3.80072 12.274 3.84322 12.3585 3.84492C12.4191 3.84692 12.4705 3.83411 12.5127 3.80721C12.5552 3.78051 12.5753 3.74712 12.5736 3.70742C12.5756 3.66772 12.5563 3.63062 12.5167 3.59602C12.477 3.56142 12.4129 3.52681 12.3248 3.49221C12.1969 3.44921 12.1037 3.39562 12.045 3.33152C11.9863 3.26772 11.9568 3.19351 11.9568 3.10871C11.9518 3.02401 11.9866 2.94491 12.0617 2.87151C12.1368 2.79801 12.2357 2.76151 12.3585 2.76151C12.5453 2.76451 12.6998 2.83152 12.8225 2.96102L12.6488 3.13451C12.5643 3.05681 12.469 3.01632 12.3639 3.01292C12.3205 3.01292 12.2865 3.02191 12.2613 3.04011C12.2363 3.05831 12.223 3.08291 12.2213 3.11381C12.2193 3.14161 12.2293 3.16401 12.2511 3.18131C12.2726 3.19861 12.3265 3.22352 12.4129 3.25642C12.5357 3.29442 12.6371 3.34972 12.7176 3.42222C12.7979 3.49482 12.8381 3.59432 12.8381 3.72042ZM14.0615 3.42762C14.0595 3.60202 14.0253 3.74451 13.9578 3.85511C13.8679 4.00561 13.7262 4.08502 13.5326 4.09382C13.3393 4.08482 13.1975 4.00561 13.1077 3.85511C13.0402 3.74451 13.0056 3.60202 13.0039 3.42762C13.0059 3.24622 13.0402 3.10022 13.1077 2.98942C13.1992 2.84422 13.341 2.76912 13.5326 2.76402C13.7245 2.76902 13.8662 2.84422 13.9578 2.98942C14.0253 3.10022 14.0598 3.24622 14.0615 3.42762ZM13.53 3.81881C13.6304 3.81881 13.7038 3.76982 13.7503 3.67112C13.7815 3.60202 13.7971 3.52171 13.7971 3.43021C13.7971 3.33321 13.7815 3.25051 13.7503 3.18131C13.7055 3.08291 13.6321 3.03361 13.53 3.03361C13.4317 3.03361 13.36 3.08291 13.3149 3.18131C13.2837 3.25051 13.2684 3.33321 13.2684 3.43021C13.2684 3.52171 13.2837 3.60202 13.3149 3.67112C13.3668 3.76982 13.4385 3.81881 13.53 3.81881ZM14.603 4.06261H14.3232V2.43751L14.603 2.29742V4.06261ZM15.8834 4.06261H15.6163V4.02122C15.5492 4.06942 15.4738 4.09462 15.391 4.09632C15.2527 4.09432 15.1381 4.05522 15.0474 3.97842C14.9567 3.90162 14.9114 3.78961 14.9114 3.64281C14.9114 3.51661 14.9533 3.41061 15.0372 3.32531C15.1209 3.23971 15.2345 3.19771 15.378 3.19941C15.4576 3.19941 15.5319 3.20941 15.601 3.22811C15.604 3.10191 15.5404 3.03282 15.4091 3.02062C15.2969 3.01762 15.1957 3.04831 15.1058 3.11381L14.9683 2.90412C15.0928 2.81592 15.2371 2.76912 15.4012 2.76402C15.5361 2.76402 15.6498 2.80232 15.7422 2.87942C15.8346 2.95622 15.8817 3.06822 15.8834 3.21502V4.06261ZM15.5931 3.76981V3.48461C15.5171 3.46391 15.4412 3.45341 15.3649 3.45341C15.3045 3.45341 15.2544 3.47332 15.2147 3.51292C15.175 3.55292 15.156 3.59771 15.1577 3.64791C15.1577 3.69971 15.1781 3.74912 15.2186 3.79562C15.2592 3.84232 15.3142 3.86561 15.3831 3.86561C15.4576 3.86561 15.5273 3.83351 15.5931 3.76981ZM16.1087 3.42222C16.1087 3.24452 16.1425 3.10022 16.2099 2.98942C16.2998 2.83912 16.4424 2.76402 16.6377 2.76402C16.8883 2.76402 17.049 2.87031 17.1196 3.08291L16.863 3.18641C16.825 3.07581 16.7491 3.02141 16.6351 3.02311C16.5416 3.02311 16.4744 3.07332 16.4327 3.17362C16.4035 3.24452 16.3888 3.32732 16.3888 3.42222C16.3888 3.51752 16.4035 3.60022 16.4327 3.67112C16.4744 3.77152 16.5416 3.82162 16.6351 3.82162C16.7491 3.82362 16.825 3.76891 16.863 3.65841L17.1196 3.76182C17.049 3.97442 16.8883 4.08071 16.6377 4.08071C16.4424 4.08071 16.2998 4.00561 16.2099 3.85511C16.1425 3.74451 16.1087 3.60022 16.1087 3.42222ZM16.4018 4.51871V4.37891C16.4534 4.39421 16.5027 4.40611 16.5495 4.41381C16.596 4.42181 16.6368 4.42541 16.6714 4.42541C16.7006 4.42541 16.7221 4.41842 16.736 4.40612C16.7499 4.39312 16.7567 4.37271 16.7567 4.34521C16.7567 4.32451 16.7477 4.30891 16.7295 4.29841C16.7114 4.28821 16.6808 4.28281 16.6377 4.28281C16.6238 4.28281 16.613 4.28281 16.6051 4.28281C16.5971 4.28281 16.59 4.28281 16.5832 4.28281V4.06261H16.6972V4.14562H16.7179C16.7905 4.14562 16.8474 4.16291 16.8891 4.19721C16.9305 4.23181 16.9512 4.28201 16.9512 4.34771C16.9512 4.42201 16.9288 4.47812 16.8837 4.51612C16.8389 4.55412 16.774 4.57311 16.6895 4.57311C16.6513 4.57311 16.6088 4.56912 16.5611 4.55892C16.5135 4.54992 16.4605 4.53601 16.4018 4.51871ZM18.3197 4.06261H18.0527V4.02122C17.9855 4.06942 17.9101 4.09462 17.8274 4.09632C17.689 4.09432 17.5745 4.05522 17.4838 3.97842C17.3931 3.90162 17.3477 3.78961 17.3477 3.64281C17.3477 3.51661 17.3897 3.41061 17.4736 3.32531C17.5572 3.23971 17.6709 3.19771 17.8143 3.19941C17.894 3.19941 17.9683 3.20941 18.0374 3.22811C18.0404 3.10191 17.9768 3.03282 17.8455 3.02062C17.7333 3.01762 17.6321 3.04831 17.5422 3.11381L17.4047 2.90412C17.5292 2.81592 17.6734 2.76912 17.8376 2.76402C17.9725 2.76402 18.0862 2.80232 18.1786 2.87942C18.271 2.95622 18.318 3.06822 18.3197 3.21502V4.06261ZM18.0295 3.76981V3.48461C17.9535 3.46391 17.8775 3.45341 17.8013 3.45341C17.7409 3.45341 17.6907 3.47332 17.6511 3.51292C17.6114 3.55292 17.5924 3.59771 17.5941 3.64791C17.5941 3.69971 17.6145 3.74912 17.655 3.79562C17.6956 3.84232 17.7506 3.86561 17.8194 3.86561C17.894 3.86561 17.9637 3.83351 18.0295 3.76981ZM18.2032 2.32612C18.1806 2.42442 18.1491 2.49702 18.1086 2.54382C18.068 2.59032 18.0164 2.61381 17.9544 2.61381C17.9337 2.61381 17.9189 2.61182 17.9101 2.60882C17.9021 2.60582 17.8877 2.60082 17.8688 2.59582L17.7574 2.56231C17.7401 2.55831 17.7267 2.55631 17.7171 2.55431C17.7081 2.55231 17.6978 2.55131 17.6873 2.55131C17.6615 2.55131 17.6406 2.55831 17.6253 2.57201C17.6097 2.58591 17.5966 2.60922 17.5861 2.64202H17.462C17.4739 2.54372 17.5003 2.47202 17.5408 2.42692C17.5816 2.38212 17.6321 2.35941 17.6924 2.35941C17.708 2.36141 17.7245 2.36341 17.7418 2.36541C17.7591 2.36841 17.778 2.37241 17.7987 2.37711L17.905 2.40571C17.9172 2.40871 17.9274 2.41271 17.9362 2.41471C17.9442 2.41671 17.9561 2.41871 17.97 2.41871C17.994 2.41871 18.0139 2.41071 18.0295 2.39411C18.0451 2.37761 18.0556 2.35471 18.0607 2.32551L18.2032 2.32612ZM19.5951 3.42762C19.5931 3.60202 19.5588 3.74451 19.4913 3.85511C19.4014 4.00561 19.2597 4.08502 19.0661 4.09382C18.8728 4.08482 18.7311 4.00561 18.6412 3.85511C18.5737 3.74451 18.5391 3.60202 18.5374 3.42762C18.5394 3.24622 18.5737 3.10022 18.6412 2.98942C18.7328 2.84422 18.8745 2.76912 19.0661 2.76402C19.258 2.76902 19.3997 2.84422 19.4913 2.98942C19.5588 3.10022 19.5934 3.24622 19.5951 3.42762ZM19.0636 3.81881C19.1639 3.81881 19.2373 3.76982 19.2838 3.67112C19.315 3.60202 19.3306 3.52171 19.3306 3.43021C19.3306 3.33321 19.315 3.25051 19.2838 3.18131C19.239 3.08291 19.1656 3.03361 19.0636 3.03361C18.9652 3.03361 18.8935 3.08291 18.8484 3.18131C18.8172 3.25051 18.8019 3.33321 18.8019 3.43021C18.8019 3.52171 18.8172 3.60202 18.8484 3.67112C18.9003 3.76982 18.972 3.81881 19.0636 3.81881ZM10.7878 6.17782H10.4584V6.93212H10.1837V5.19561H10.7566C10.8845 5.19561 10.9874 5.21402 11.065 5.25112C11.1427 5.28832 11.2065 5.34751 11.2555 5.42861C11.3049 5.51001 11.3295 5.59471 11.3295 5.68291C11.3295 5.77441 11.3097 5.85721 11.27 5.93151C11.23 6.00601 11.1699 6.06582 11.0897 6.11172C11.0095 6.15742 10.9086 6.17952 10.7878 6.17782ZM11.052 5.68801C11.052 5.62051 11.0319 5.56861 10.9913 5.53231C10.9505 5.49611 10.9052 5.47711 10.8553 5.47541H10.4533V5.90311H10.8655C10.9174 5.90311 10.9613 5.88411 10.9976 5.84611C11.0339 5.80821 11.052 5.75541 11.052 5.68801ZM11.9307 5.30701C11.9307 5.34671 11.9171 5.37982 11.8894 5.40682C11.8619 5.43342 11.829 5.44671 11.791 5.44671C11.7547 5.44671 11.7221 5.43261 11.6938 5.40421C11.6651 5.37561 11.651 5.34331 11.651 5.30701C11.651 5.27071 11.6651 5.23812 11.6938 5.20982C11.7221 5.18112 11.7547 5.16702 11.791 5.16702C11.8273 5.16702 11.8596 5.18112 11.8879 5.20982C11.9166 5.23812 11.9307 5.27071 11.9307 5.30701ZM11.9337 6.93212H11.6514V5.66471H11.9337V6.93212ZM12.2189 5.64912H12.4884V5.72941C12.5644 5.66561 12.6656 5.63352 12.7917 5.63352C12.9386 5.63352 13.0483 5.68372 13.1208 5.78382C13.1934 5.88412 13.2297 6.00062 13.2297 6.13392V6.93212H12.9627V6.13902C12.9667 6.07322 12.9445 6.01421 12.898 5.96151C12.8513 5.90881 12.7926 5.88412 12.7217 5.88752C12.6475 5.88752 12.5908 5.90912 12.5519 5.95242C12.5131 5.99552 12.4935 6.05762 12.4935 6.13902V6.93212H12.2189V5.64912ZM13.4499 5.30161L13.7195 5.16702V5.72941C13.7955 5.66561 13.8967 5.63352 14.0228 5.63352C14.1697 5.63352 14.2794 5.68372 14.3519 5.78382C14.4245 5.88412 14.4608 6.00062 14.4608 6.13392V6.93212H14.1938V6.13902C14.1978 6.07322 14.1756 6.01421 14.1291 5.96151C14.0824 5.90881 14.0237 5.88412 13.9528 5.88752C13.8785 5.88752 13.8218 5.90912 13.783 5.95242C13.7442 5.99552 13.7246 6.05762 13.7246 6.13902V6.93212H13.4499V5.30161ZM15.7049 6.41361H14.9583C14.9583 6.49501 14.9801 6.56192 15.0232 6.61462C15.0663 6.66732 15.1227 6.69281 15.1915 6.69111C15.2885 6.69411 15.3628 6.65202 15.4146 6.56422L15.6607 6.66511C15.5745 6.85871 15.4197 6.95791 15.1969 6.96331C15.0396 6.96331 14.9129 6.90541 14.8171 6.78951C14.7213 6.67391 14.6734 6.50771 14.6734 6.29171C14.6734 6.11401 14.7196 5.95951 14.812 5.82911C14.9044 5.69871 15.0328 5.63352 15.1969 5.63352C15.3506 5.63352 15.4739 5.69391 15.5663 5.81501C15.6587 5.93601 15.7049 6.13561 15.7049 6.41361ZM15.4277 6.15972C15.4297 6.08712 15.409 6.02422 15.3667 5.97062C15.3242 5.91702 15.2678 5.89011 15.1969 5.89011C15.1207 5.88811 15.0603 5.91641 15.0155 5.97431C14.9704 6.03241 14.9498 6.09392 14.9532 6.15972H15.4277ZM16.2594 5.30701C16.2594 5.34671 16.2458 5.37982 16.218 5.40682C16.1905 5.43342 16.1576 5.44671 16.1196 5.44671C16.0833 5.44671 16.0507 5.43261 16.0224 5.40421C15.9938 5.37561 15.9796 5.34331 15.9796 5.30701C15.9796 5.27071 15.9938 5.23812 16.0224 5.20982C16.0507 5.18112 16.0833 5.16702 16.1196 5.16702C16.1559 5.16702 16.1882 5.18112 16.2166 5.20982C16.2452 5.23812 16.2594 5.27071 16.2594 5.30701ZM16.2614 6.93212H15.9791V5.66471H16.2614V6.93212ZM17.2958 5.72172L17.2051 5.97312C17.1532 5.92132 17.1005 5.89602 17.0469 5.89802C16.931 5.90102 16.8697 5.98252 16.8629 6.14152V6.93212H16.5829V5.64371H16.8601V5.73731C16.9069 5.66811 16.9743 5.63352 17.0625 5.63352C17.1506 5.63552 17.2283 5.66472 17.2958 5.72172ZM18.4934 6.29711C18.4914 6.47151 18.4571 6.61402 18.3897 6.72462C18.2998 6.87512 18.1581 6.95451 17.9645 6.96331C17.7711 6.95431 17.6294 6.87512 17.5396 6.72462C17.4721 6.61402 17.4375 6.47151 17.4358 6.29711C17.4378 6.11571 17.4721 5.96971 17.5396 5.85891C17.6311 5.71381 17.7728 5.63862 17.9645 5.63352C18.1564 5.63852 18.2981 5.71381 18.3897 5.85891C18.4571 5.96971 18.4917 6.11571 18.4934 6.29711ZM17.9619 6.68832C18.0623 6.68832 18.1357 6.63931 18.1822 6.54061C18.2133 6.47151 18.2289 6.39122 18.2289 6.29972C18.2289 6.20272 18.2133 6.12002 18.1822 6.05082C18.1374 5.95242 18.064 5.90311 17.9619 5.90311C17.8636 5.90311 17.7918 5.95242 17.7468 6.05082C17.7156 6.12002 17.7003 6.20272 17.7003 6.29972C17.7003 6.39122 17.7156 6.47151 17.7468 6.54061C17.7986 6.63931 17.8704 6.68832 17.9619 6.68832ZM19.6026 6.59002C19.6006 6.70052 19.5575 6.79012 19.4731 6.85812C19.3883 6.92642 19.2715 6.96161 19.123 6.96331C18.9538 6.96131 18.7981 6.89672 18.6564 6.76882L18.8378 6.58741C18.9433 6.67021 19.0385 6.71271 19.123 6.71441C19.1836 6.71641 19.235 6.70362 19.2772 6.67672C19.3197 6.65002 19.3398 6.61661 19.3381 6.57691C19.3401 6.53721 19.3208 6.50011 19.2812 6.46551C19.2415 6.43091 19.1774 6.39631 19.0893 6.36181C18.9614 6.31871 18.8682 6.26511 18.8095 6.20101C18.7508 6.13731 18.7213 6.06302 18.7213 5.97822C18.7163 5.89352 18.7511 5.81442 18.8262 5.74102C18.9013 5.66762 19.0002 5.63102 19.123 5.63102C19.3098 5.63402 19.4643 5.70101 19.587 5.83051L19.4133 6.00402C19.3288 5.92642 19.2335 5.88581 19.1284 5.88241C19.085 5.88241 19.051 5.89141 19.0258 5.90961C19.0008 5.92781 18.9875 5.95241 18.9858 5.98331C18.9838 6.01111 18.9938 6.03352 19.0156 6.05082C19.0371 6.06812 19.091 6.09301 19.1774 6.12591C19.3002 6.16391 19.4016 6.21921 19.4821 6.29171C19.5624 6.36431 19.6026 6.46382 19.6026 6.59002Z" fill="white"/>
<path fill-rule="evenodd" clip-rule="evenodd" d="M23.1067 5.14231L22.7026 3.46531C22.6918 3.41031 22.626 3.30361 22.4888 3.32991L20.817 3.78861C20.5879 3.88371 20.7302 4.11261 20.8355 4.11771L21.6964 4.26641L20.8601 5.51201L21.5746 5.93511L22.2589 4.59641L22.8134 5.29021C22.9354 5.42201 23.1529 5.30791 23.1067 5.14231Z" fill="white"/>
</svg>
