<svg width="12" height="12" viewBox="0 0 12 12" fill="none" xmlns="http://www.w3.org/2000/svg">
<path fill-rule="evenodd" clip-rule="evenodd" d="M0.26295 5.36254L5.36255 0.26295C5.71315 -0.08765 6.28685 -0.08765 6.63725 0.26295L11.737 5.36254C12.0874 5.71314 12.0874 6.28685 11.737 6.63755L6.63725 11.737C6.28685 12.0877 5.71315 12.0877 5.36255 11.737L0.26295 6.63755C-0.08765 6.28685 -0.08765 5.71314 0.26295 5.36254Z" fill="#FF6600"/>
<path fill-rule="evenodd" clip-rule="evenodd" d="M0.365448 5.52055L5.52055 0.365341C5.65255 0.233441 5.82635 0.167442 6.00005 0.167442C6.17375 0.167442 6.34755 0.233441 6.47955 0.365341L11.6347 5.52055C11.7667 5.65255 11.8326 5.82635 11.8326 6.00005C11.8326 6.17375 11.7667 6.34755 11.6347 6.47945L6.47955 11.6346C6.34755 11.7666 6.17375 11.8326 6.00005 11.8326C5.82635 11.8326 5.65255 11.7666 5.52055 11.6346L0.365448 6.47945C0.233448 6.34755 0.16745 6.17375 0.16745 6.00005C0.16745 5.82635 0.233448 5.65255 0.365448 5.52055ZM5.71175 0.556541L0.556648 5.71175C0.477448 5.79095 0.437851 5.89545 0.437851 6.00005C0.437851 6.10465 0.477448 6.20915 0.556648 6.28825L5.71175 11.4434C5.79095 11.5225 5.89545 11.5621 6.00005 11.5621C6.10465 11.5621 6.20915 11.5225 6.28835 11.4434L11.4435 6.28825C11.5227 6.20915 11.5621 6.10465 11.5621 6.00005C11.5621 5.89545 11.5227 5.79085 11.4435 5.71175L6.28835 0.556541C6.20915 0.477441 6.10465 0.437843 6.00005 0.437843C5.89545 0.437843 5.79095 0.477441 5.71175 0.556541Z" fill="black"/>
<path fill-rule="evenodd" clip-rule="evenodd" d="M5.36927 3.41364V3.54634C5.32417 3.55684 5.23666 3.58844 5.23666 3.63474C5.23666 3.66854 5.25126 3.70515 5.28146 3.70515L5.50196 3.67894C5.53956 3.84064 5.70126 4.01054 5.89986 4.01054H5.96616C6.22156 4.01054 6.40826 3.84085 6.40826 3.59055V3.47994C6.40826 3.40374 6.39187 3.39444 6.38617 3.32524C6.43537 3.31214 6.45247 3.32024 6.45247 3.25894C6.45247 3.23934 6.27516 3.06844 6.24516 3.04624C6.17416 2.99394 6.03136 2.92735 5.92196 2.92735C5.64146 2.92735 5.36927 3.14634 5.36927 3.41364Z" fill="black"/>
<path fill-rule="evenodd" clip-rule="evenodd" d="M5.45776 6.28735C5.49666 6.14165 5.68916 5.98154 5.74546 5.77934C5.78166 5.64954 5.87456 5.28045 5.87776 5.13795C5.95816 5.19175 6.16176 5.87164 6.16506 6.02214L5.45776 6.28735ZM7.55376 5.44704C7.51366 5.47074 7.32426 5.55795 7.27036 5.55795C7.23826 5.55795 7.00796 4.60135 7.00506 4.47475L7.57666 4.72514L7.57986 5.07154L7.55376 5.44704ZM4.50716 6.66315C4.37836 6.59505 4.25726 6.50845 4.06506 6.50845H3.97666C3.73066 6.50845 3.57876 6.75464 3.57906 7.03974L3.46436 7.08454L3.51526 7.22285L5.01566 6.61894C5.05076 6.63754 5.11546 6.68524 5.14826 6.68524H5.21456C5.34876 6.68524 5.39136 6.60224 5.39466 6.47224L6.20926 6.15475C6.14826 6.41665 5.74506 7.29234 5.74506 7.48104C5.74506 7.81554 5.68196 9.07265 5.96616 9.07265H6.12086C6.36106 9.07265 6.32036 8.06284 6.31986 7.79054C6.31916 7.48054 6.37886 7.43234 6.49216 7.23344C6.57786 7.08314 6.65846 6.87074 6.76196 6.75164C6.78736 7.05704 7.00226 7.77915 7.10646 8.04285C7.17936 8.22735 7.54436 9.07265 7.71246 9.07265H7.77876C7.93016 9.07265 7.99986 8.96184 7.99986 8.80744C7.99986 8.73254 7.75236 8.11335 7.70836 8.01575C7.57446 7.71845 7.56726 7.48214 7.50476 7.11404C7.44916 6.78634 7.43196 6.46524 7.36726 6.14624C7.34856 6.05374 7.26886 5.73495 7.32276 5.69975C7.51856 5.57205 7.59796 5.64635 7.73456 5.64635C7.84726 5.64635 7.87856 5.60584 7.90596 5.53034C7.95226 5.40264 7.96126 5.46104 8.08836 5.40324C8.19376 5.35524 8.42076 5.25184 8.53566 5.22524L8.50256 5.07904L7.93356 5.29264V4.98315C7.93356 4.39275 8.05226 4.50115 7.57236 4.26115C7.46446 4.20715 6.87666 3.89994 6.80616 3.89994C6.58846 3.89994 6.04726 4.14734 5.87766 4.23154C5.57076 4.38394 5.56436 4.73084 5.50636 5.12014C5.44096 5.55854 5.33896 5.71125 5.17756 6.05145C5.14806 6.11375 4.99766 6.46904 4.96986 6.48484C4.86446 6.54494 4.62756 6.60545 4.50716 6.66315Z" fill="black"/>
</svg>
