<svg width="9" height="12" viewBox="0 0 9 12" fill="none" xmlns="http://www.w3.org/2000/svg">
<path fill-rule="evenodd" clip-rule="evenodd" d="M0.428299 7.62939e-06H8.1431C8.3789 7.62939e-06 8.5714 0.192507 8.5714 0.428307V11.5716C8.5714 11.8074 8.3789 11.9999 8.1431 11.9999H0.428299C0.192499 11.9999 0 11.8074 0 11.5716V0.428307C0 0.192507 0.192499 7.62939e-06 0.428299 7.62939e-06Z" fill="white"/>
<path fill-rule="evenodd" clip-rule="evenodd" d="M0.554207 0.299904H8.01691C8.15701 0.299904 8.27121 0.414207 8.27121 0.554207V11.4455C8.27121 11.5855 8.15701 11.6997 8.01691 11.6997H0.554207C0.414107 11.6997 0.299911 11.5855 0.299911 11.4455V0.554207C0.299911 0.414207 0.414107 0.299904 0.554207 0.299904Z" fill="white"/>
<path fill-rule="evenodd" clip-rule="evenodd" d="M0.554398 0.171303H8.017C8.1224 0.171303 8.2182 0.214299 8.2876 0.283699C8.3569 0.353099 8.4 0.448798 8.4 0.554298V11.4454C8.4 11.5508 8.3569 11.6466 8.2876 11.7159C8.2182 11.7853 8.1224 11.8283 8.017 11.8283H0.554398C0.448998 11.8283 0.353198 11.7853 0.283798 11.7159C0.214498 11.6466 0.171402 11.5508 0.171402 11.4454V0.554298C0.171402 0.448798 0.214498 0.353099 0.283798 0.283699C0.353198 0.214299 0.448998 0.171303 0.554398 0.171303ZM8.017 0.428398H0.554398C0.519898 0.428398 0.488499 0.442608 0.465599 0.465508C0.442799 0.488408 0.428596 0.519798 0.428596 0.554298V11.4454C0.428596 11.4798 0.442799 11.5113 0.465599 11.5341C0.488499 11.557 0.519898 11.5712 0.554398 11.5712H8.017C8.0515 11.5712 8.0829 11.557 8.1058 11.5341C8.1286 11.5113 8.1428 11.4798 8.1428 11.4454V0.554298C8.1428 0.519798 8.1286 0.488408 8.1058 0.465508C8.0829 0.442608 8.0515 0.428398 8.017 0.428398Z" fill="white"/>
<path fill-rule="evenodd" clip-rule="evenodd" d="M1.32581 1.33829H7.24561V7.4333H1.32581V1.33829Z" fill="white"/>
<path fill-rule="evenodd" clip-rule="evenodd" d="M2.26561 6.1034C2.01061 6.1074 1.97591 6.03161 1.97011 6.26501H6.60131C6.60161 6.04331 6.59931 6.105 6.35981 6.105C6.23171 6.0361 6.14391 5.82371 6.06171 5.69871L5.24501 4.41111C5.11101 4.20951 4.3578 3.1212 4.353 2.8818C4.3484 2.6589 4.4588 2.75201 4.4397 2.50651L4.09571 2.51051C4.09441 2.59201 4.08511 2.5847 4.11021 2.65C4.11021 2.65 4.26491 2.79201 4.14441 3.04771C3.98621 3.38361 2.35511 5.8457 2.26561 6.1034ZM3.83771 6.1134L4.81501 6.11941C4.78171 6.01591 4.35671 5.3351 4.29001 5.2776C4.20421 5.3873 3.85601 5.9992 3.83771 6.1134Z" fill="black"/>
</svg>
