<svg width="12" height="12" viewBox="0 0 12 12" fill="none" xmlns="http://www.w3.org/2000/svg">
<path fill-rule="evenodd" clip-rule="evenodd" d="M5.9999 1.25C3.377 1.25 1.25 3.3771 1.25 6C1.25 8.6229 3.377 10.75 5.9999 10.75C8.6228 10.75 10.7499 8.6229 10.7499 6C10.7499 3.3771 8.6228 1.25 5.9999 1.25ZM0 6C0 2.6869 2.6868 0 5.9999 0C9.313 0 11.9999 2.6869 11.9999 6C11.9999 9.3131 9.313 11.9999 5.9999 11.9999C2.6868 11.9999 0 9.3131 0 6Z" fill="#FF0000"/>
<path fill-rule="evenodd" clip-rule="evenodd" d="M2.47871 5.72631V5.7298H1.88251V6.6814H2.47871V6.68481L2.4817 6.6861L2.27981 7.17001L2.2681 7.25261L2.2979 7.32941L2.36111 7.38271L2.44231 7.39801L2.52041 7.3716L4.25841 6.24321L4.2758 6.2196V6.19061L4.25841 6.16801L2.52041 5.03851L2.44231 5.01311L2.36111 5.0284L2.2979 5.08081L2.2681 5.15751L2.27981 5.2401L2.4817 5.72501L2.47871 5.72631Z" fill="black"/>
<path fill-rule="evenodd" clip-rule="evenodd" d="M6.1369 3.04741H7.16891C7.57601 3.23391 7.9044 3.5545 7.9279 4.2457V4.66571C7.9279 4.76471 7.8469 4.84571 7.7479 4.84571C7.6489 4.84571 7.5679 4.76471 7.5679 4.66571V4.2457C7.5686 4.0074 7.4937 3.81451 7.3431 3.66701V4.8469H7.9279V4.99691H7.3431V5.3049C7.3835 5.274 7.4339 5.2556 7.4884 5.2556C7.6204 5.2556 7.72841 5.36361 7.72841 5.49561V6.9356C7.72841 7.0591 7.6338 7.1616 7.5134 7.1743H7.7246V7.32421H7.24461V7.1743H7.4633C7.343 7.1616 7.24841 7.0591 7.24841 6.9356V6.0625C7.24801 6.0582 7.24341 6.0474 7.23501 6.055L6.79591 6.30421C6.75201 6.33381 6.75211 6.38101 6.79581 6.40161C6.79881 6.40321 7.14431 6.4863 7.24281 6.7523V7.9234C7.24281 7.9646 7.20911 7.99841 7.16781 7.99841C7.12661 7.99841 7.0928 7.9646 7.0928 7.9234V6.7523C6.8072 6.4209 6.5022 6.4736 6.2609 6.7448V8.29671C6.2609 8.36881 6.2286 8.43381 6.1778 8.47791L6.32091 8.55201V8.74731H5.7209V8.55201L5.86201 8.4761C5.81231 8.432 5.78091 8.36791 5.78091 8.29671V6.17321C5.78091 6.06121 5.85861 5.96651 5.96281 5.94041V4.99691H5.37801V4.8469H5.96281V3.91061C5.85331 3.99491 5.8126 4.0909 5.8074 4.2457V4.63641C5.8074 4.73541 5.70081 4.84571 5.60181 4.84571C5.50281 4.84571 5.37801 4.73541 5.37801 4.63641V4.1972C5.38881 3.6646 5.8166 3.19371 6.1369 3.04741ZM6.6742 6.52731C6.7732 6.52731 6.8542 6.60831 6.8542 6.70731V9.4673C6.8542 9.5663 6.7732 9.6473 6.6742 9.6473C6.5752 9.6473 6.4942 9.5663 6.4942 9.4673V6.70731C6.4942 6.60831 6.5752 6.52731 6.6742 6.52731ZM6.6403 2.08321C6.8882 2.08321 7.0903 2.28531 7.0903 2.53321C7.0903 2.78101 6.8882 2.9832 6.6403 2.9832C6.3925 2.9832 6.19031 2.78101 6.19031 2.53321C6.19031 2.28531 6.3925 2.08321 6.6403 2.08321ZM6.2842 6.48911C6.3373 6.44381 6.39721 6.4107 6.43871 6.4001V6.30191C6.38621 6.33291 6.3404 6.37091 6.2842 6.48911Z" fill="black" stroke="#1B1918" stroke-width="0.216"/>
</svg>
