<svg width="12" height="12" viewBox="0 0 12 12" fill="none" xmlns="http://www.w3.org/2000/svg">
<path fill-rule="evenodd" clip-rule="evenodd" d="M0.263025 5.36246L5.36252 0.262958C5.71322 -0.0876424 6.28692 -0.0876424 6.63732 0.262958L11.7371 5.36246C12.0874 5.71316 12.0874 6.28686 11.7371 6.63756L6.63732 11.7371C6.28692 12.0877 5.71322 12.0877 5.36252 11.7371L0.263025 6.63756C-0.087675 6.28686 -0.087675 5.71316 0.263025 5.36246Z" fill="#FFEC00"/>
<path fill-rule="evenodd" clip-rule="evenodd" d="M0.365411 5.52056L5.52061 0.365364C5.65251 0.233364 5.82631 0.167458 6.00001 0.167458C6.17371 0.167458 6.34751 0.233364 6.47951 0.365364L11.6347 5.52056C11.7666 5.65246 11.8326 5.82626 11.8326 5.99996C11.8326 6.17366 11.7666 6.34745 11.6347 6.47945L6.47951 11.6347C6.34751 11.7667 6.17371 11.8326 6.00001 11.8326C5.82631 11.8326 5.65251 11.7666 5.52061 11.6347L0.365411 6.47945C0.233411 6.34745 0.167511 6.17366 0.167511 5.99996C0.167511 5.82626 0.233411 5.65246 0.365411 5.52056ZM5.71181 0.556557L0.556611 5.71175C0.477511 5.79085 0.437911 5.89536 0.437911 5.99996C0.437911 6.10466 0.477511 6.20916 0.556611 6.28826L5.71181 11.4435C5.79091 11.5226 5.89541 11.5622 6.00001 11.5622C6.10461 11.5622 6.20921 11.5226 6.28831 11.4435L11.4435 6.28826C11.5226 6.20916 11.5622 6.10466 11.5622 5.99996C11.5622 5.89536 11.5226 5.79085 11.4435 5.71175L6.28831 0.556557C6.20921 0.477457 6.10461 0.437859 6.00001 0.437859C5.89541 0.437859 5.79091 0.477457 5.71181 0.556557Z" fill="black"/>
<path fill-rule="evenodd" clip-rule="evenodd" d="M5.23291 4.35347C5.23291 4.79217 5.57241 5.14467 6.00271 5.14467C6.38371 5.14467 6.77241 4.79667 6.77241 4.43907V2.92087H5.23291V4.35347Z" fill="black"/>
<path fill-rule="evenodd" clip-rule="evenodd" d="M7.47742 6.11717C7.46582 6.75667 7.30222 7.05337 7.00382 7.42877C6.68092 7.83517 6.58002 8.17207 6.58002 8.88667V9.07916H7.32842V8.63007C7.32842 8.05187 7.68212 7.85526 7.89582 7.48686C8.08072 7.16796 8.22152 6.62546 8.22642 6.13316L8.23222 6.13367L8.32652 6.13167L8.32662 6.12767L9.09182 6.14816L7.94352 4.40387L6.70342 6.08417L7.34572 6.10136L7.34532 6.11327C7.38912 6.11427 7.43362 6.11367 7.47742 6.11717Z" fill="black"/>
<path fill-rule="evenodd" clip-rule="evenodd" d="M4.63461 7.34756C4.62301 6.70806 4.45941 6.41137 4.16101 6.03587C3.83801 5.62957 3.73721 5.29267 3.73721 4.57797V4.38557H4.48561V4.83456C4.48561 5.41286 4.83921 5.60947 5.05301 5.97787C5.23791 6.29667 5.37871 6.83927 5.38351 7.33157L5.38941 7.33107L5.48371 7.33307L5.48381 7.33807L6.24901 7.31757L5.10071 9.06187L3.86061 7.38156L4.50281 7.36436L4.50251 7.35237C4.54631 7.35137 4.59081 7.35116 4.63461 7.34756Z" fill="black"/>
</svg>
