<svg width="12" height="12" viewBox="0 0 12 12" fill="none" xmlns="http://www.w3.org/2000/svg">
<path fill-rule="evenodd" clip-rule="evenodd" d="M0.26295 5.36252L5.36254 0.263025C5.71314 -0.087675 6.28685 -0.087675 6.63725 0.263025L11.737 5.36252C12.0874 5.71312 12.0874 6.28692 11.737 6.63752L6.63725 11.737C6.28685 12.0877 5.71314 12.0877 5.36254 11.737L0.26295 6.63752C-0.08765 6.28692 -0.08765 5.71312 0.26295 5.36252Z" fill="#FFEC00"/>
<path fill-rule="evenodd" clip-rule="evenodd" d="M0.365356 5.52052L5.52055 0.365417C5.65255 0.233417 5.82635 0.167419 6.00005 0.167419C6.17375 0.167419 6.34755 0.233417 6.47955 0.365417L11.6346 5.52052C11.7666 5.65252 11.8327 5.82632 11.8327 6.00002C11.8327 6.17372 11.7666 6.34752 11.6346 6.47952L6.47955 11.6346C6.34755 11.7666 6.17375 11.8326 6.00005 11.8326C5.82635 11.8326 5.65255 11.7666 5.52055 11.6346L0.365356 6.47952C0.233456 6.34752 0.16745 6.17372 0.16745 6.00002C0.16745 5.82632 0.233456 5.65252 0.365356 5.52052ZM5.71175 0.556618L0.556656 5.71172C0.477456 5.79092 0.437851 5.89542 0.437851 6.00002C0.437851 6.10462 0.477456 6.20912 0.556656 6.28832L5.71175 11.4434C5.79095 11.5226 5.89545 11.5621 6.00005 11.5621C6.10465 11.5621 6.20915 11.5226 6.28825 11.4434L11.4435 6.28832C11.5227 6.20912 11.5621 6.10462 11.5621 6.00002C11.5621 5.89542 11.5227 5.79092 11.4435 5.71172L6.28825 0.556618C6.20915 0.477418 6.10465 0.43782 6.00005 0.43782C5.89545 0.43782 5.79095 0.477418 5.71175 0.556618Z" fill="black"/>
<path fill-rule="evenodd" clip-rule="evenodd" d="M7.04875 5.65512C7.08295 5.54202 7.09755 5.45692 7.06335 5.34382C6.86405 4.86062 6.62065 4.44762 6.33325 3.90352C6.24075 3.74432 6.04074 3.70683 5.85534 3.89453C5.48874 4.34633 5.11245 4.79813 4.74585 5.25003C4.73985 5.45193 4.84604 5.60222 5.11364 5.46212C5.36894 5.17342 5.51185 4.95502 5.76715 4.66642C5.86535 4.89232 5.98305 5.11823 6.08125 5.34413C6.15445 5.47103 6.04685 5.52283 6.00285 5.57003C5.69515 5.69563 5.37775 5.84923 5.09935 5.98873C5.04725 6.10173 5.05865 6.19123 5.13365 6.29483C5.32345 6.62743 5.46934 6.91322 5.65914 7.24582C5.74904 7.29742 5.80965 7.26473 5.87515 7.28353C5.82275 7.42163 5.80454 7.53623 5.75224 7.67433C5.80014 7.98533 6.02405 7.97782 6.22345 7.84852C6.53115 7.09562 6.74595 6.45952 7.04875 5.65512ZM5.67924 6.27993C5.84294 6.19763 5.97975 6.13853 6.27925 6.01773C6.32915 5.99763 6.36055 6.00763 6.34945 6.03623C6.30865 6.14113 6.12705 6.63183 6.02545 6.92253C5.85415 6.60873 5.81664 6.53033 5.67924 6.27993Z" fill="black"/>
<path fill-rule="evenodd" clip-rule="evenodd" d="M5.51614 3.82032C5.78764 3.82032 6.00916 3.60802 6.00916 3.34772C6.00916 3.08742 5.78764 2.87512 5.51614 2.87512C5.24464 2.87512 5.02325 3.08742 5.02325 3.34772C5.02325 3.60802 5.24464 3.82032 5.51614 3.82032Z" fill="black"/>
<path fill-rule="evenodd" clip-rule="evenodd" d="M5.11894 6.44652C4.98204 6.32262 4.98335 6.32212 4.53355 5.91142C4.73875 5.91442 4.77604 5.91102 5.03944 5.90942C5.09164 5.87762 5.14455 5.83302 5.19145 5.79192C4.99725 5.79492 4.86494 5.79242 4.61134 5.79592C4.67044 5.70962 4.69655 5.67202 4.77525 5.55582C4.77225 5.55382 4.68905 5.50522 4.67455 5.49782C4.61385 5.58432 4.48985 5.76722 4.38695 5.91742C4.31105 6.02832 4.25124 6.11062 4.23634 6.13442C4.05964 6.03172 3.88385 5.98552 3.67525 5.98212C3.09275 5.97212 2.63605 6.42962 2.63605 6.97832C2.63605 7.52702 3.10285 7.97462 3.67525 7.97462C4.24765 7.97462 4.70885 7.52162 4.71445 6.97832C4.71745 6.67382 4.59164 6.40822 4.33444 6.19702C4.38524 6.12822 4.38965 6.11932 4.46425 6.01082C4.73665 6.25122 4.80355 6.31762 5.20885 6.67712C5.15425 6.53072 5.17614 6.58652 5.11894 6.44652ZM4.26115 6.30832C4.46185 6.46822 4.58385 6.71022 4.58385 6.97902C4.58385 7.45882 4.17565 7.85002 3.67525 7.85002C3.17485 7.85002 2.76665 7.45882 2.76665 6.97902C2.76665 6.49932 3.17485 6.10802 3.67525 6.10802C3.84335 6.10802 4.02706 6.16992 4.16666 6.23932C3.97156 6.52242 3.94115 6.57272 3.75835 6.83682C3.68975 6.83182 3.60576 6.82982 3.54456 6.91542C3.42436 7.08392 3.71246 7.30072 3.85036 7.11592C3.90016 7.04922 3.87825 6.95262 3.85535 6.89792C4.03765 6.63322 4.09775 6.53812 4.26115 6.30832Z" fill="black"/>
<path fill-rule="evenodd" clip-rule="evenodd" d="M7.94824 6.05302C7.72864 6.05302 7.55684 6.09962 7.35864 6.23332C7.24534 6.09122 7.24315 6.08792 7.10425 5.91122C7.08985 5.96432 7.08514 6.00652 7.06854 6.07532C7.15044 6.18382 7.17776 6.21542 7.25246 6.31682C7.05066 6.50342 6.95884 6.71722 6.95364 6.98242C6.85854 6.98312 6.83036 6.98262 6.70496 6.98212C6.69286 7.02922 6.69285 7.03912 6.67685 7.10292C6.79565 7.10492 6.82615 7.10492 6.95255 7.10492C6.99015 7.60392 7.42444 7.99092 7.94824 7.99042C8.50234 7.99002 8.95345 7.55522 8.95345 7.02162C8.95345 6.48802 8.49954 6.05302 7.94824 6.05302ZM7.44275 6.34912C7.58875 6.24492 7.76045 6.18702 7.95615 6.18562C8.43785 6.18162 8.83075 6.55952 8.83075 7.01792C8.83075 7.47632 8.43785 7.85022 7.95615 7.85022C7.50465 7.85022 7.13105 7.51952 7.08615 7.10242C7.30035 7.10162 7.54315 7.10442 7.71805 7.10302C7.83955 7.26532 7.99025 7.19332 8.03455 7.11002C8.07475 7.03412 8.05646 6.89292 7.85976 6.88802C7.68916 6.64892 7.64875 6.60962 7.44275 6.34912ZM7.33435 6.42432C7.51295 6.64842 7.54625 6.69282 7.77075 6.98582C7.53815 6.98482 7.42314 6.98482 7.08624 6.98382C7.06824 6.83802 7.17105 6.56412 7.33435 6.42432Z" fill="black"/>
</svg>
