<svg width="12" height="12" viewBox="0 0 12 12" fill="none" xmlns="http://www.w3.org/2000/svg">
<path fill-rule="evenodd" clip-rule="evenodd" d="M0.263025 5.36246L5.36252 0.262958C5.71312 -0.0876424 6.28692 -0.0876424 6.63722 0.262958L11.7371 5.36246C12.0874 5.71316 12.0874 6.28686 11.7371 6.63756L6.63722 11.7371C6.28692 12.0877 5.71312 12.0877 5.36252 11.7371L0.263025 6.63756C-0.087675 6.28686 -0.087675 5.71316 0.263025 5.36246Z" fill="#FFEC00"/>
<path fill-rule="evenodd" clip-rule="evenodd" d="M0.365425 5.52056L5.52052 0.365364C5.65252 0.233364 5.82632 0.167366 6.00002 0.167366C6.17372 0.167366 6.34752 0.233364 6.47952 0.365364L11.6347 5.52056C11.7666 5.65246 11.8326 5.82626 11.8326 5.99996C11.8326 6.17366 11.7666 6.34747 11.6347 6.47947L6.47952 11.6347C6.34752 11.7666 6.17372 11.8326 6.00002 11.8326C5.82632 11.8326 5.65252 11.7666 5.52052 11.6347L0.365425 6.47947C0.233425 6.34747 0.167419 6.17366 0.167419 5.99996C0.167419 5.82626 0.233425 5.65246 0.365425 5.52056ZM5.71182 0.556557L0.556625 5.71177C0.477525 5.79087 0.43792 5.89536 0.43792 5.99996C0.43792 6.10456 0.477525 6.20916 0.556625 6.28826L5.71182 11.4435C5.79092 11.5226 5.89542 11.5622 6.00002 11.5622C6.10462 11.5622 6.20912 11.5226 6.28832 11.4435L11.4434 6.28826C11.5226 6.20916 11.5622 6.10456 11.5622 5.99996C11.5622 5.89536 11.5226 5.79087 11.4434 5.71177L6.28832 0.556557C6.20912 0.477457 6.10462 0.437859 6.00002 0.437859C5.89542 0.437859 5.79092 0.477457 5.71182 0.556557Z" fill="black"/>
<path fill-rule="evenodd" clip-rule="evenodd" d="M5.79514 4.75417V5.06517H4.61734C4.63004 4.94667 4.66834 4.83498 4.73214 4.72928C4.79564 4.62348 4.92174 4.48317 5.10944 4.30797C5.26104 4.16687 5.35344 4.07107 5.38774 4.02057C5.43394 3.95137 5.45724 3.88287 5.45724 3.81447C5.45724 3.73937 5.43734 3.68187 5.39684 3.64157C5.35684 3.60107 5.30134 3.58118 5.23074 3.58118C5.16044 3.58118 5.10514 3.60247 5.06344 3.64467C5.02214 3.68697 4.99853 3.75698 4.99203 3.85538L4.65644 3.82187C4.67654 3.63677 4.73894 3.50358 4.84434 3.42278C4.94954 3.34228 5.08104 3.30197 5.23894 3.30197C5.41184 3.30197 5.54794 3.34908 5.64714 3.44228C5.74574 3.53588 5.79514 3.65208 5.79514 3.79128C5.79514 3.87068 5.78094 3.94577 5.75284 4.01747C5.72454 4.08887 5.67974 4.16347 5.61794 4.24197C5.57764 4.29417 5.50374 4.36898 5.39764 4.46648C5.29114 4.56398 5.22393 4.62838 5.19553 4.66068C5.16693 4.69238 5.14424 4.72387 5.12674 4.75417H5.79514ZM7.35503 3.79407V4.06117H7.12484V4.57587C7.12484 4.68017 7.12684 4.74118 7.13184 4.75818C7.13684 4.77548 7.14634 4.78966 7.16214 4.80096C7.17774 4.81196 7.19643 4.81767 7.21883 4.81767C7.25033 4.81767 7.29514 4.80718 7.35434 4.78568L7.38244 5.04677C7.30444 5.08017 7.21634 5.09688 7.11764 5.09688C7.05734 5.09688 7.00284 5.08667 6.95444 5.06627C6.90594 5.04587 6.87024 5.01947 6.84784 4.98717C6.82514 4.95457 6.80954 4.91098 6.80044 4.85538C6.79344 4.81628 6.79004 4.73687 6.79004 4.61757V4.06117H6.63583V3.79407H6.79004V3.54207L7.12534 3.34367V3.79407H7.35503Z" fill="black"/>
<path fill-rule="evenodd" clip-rule="evenodd" d="M4.69414 5.45498L6.00004 6.76087L7.30604 5.45498H4.69414Z" fill="black"/>
<path fill-rule="evenodd" clip-rule="evenodd" d="M3.54883 6.98348H4.15673C4.23463 6.98348 4.29833 7.04718 4.29833 7.12498V7.59388H5.48353C5.57603 7.39908 5.77453 7.26438 6.00453 7.26438C6.23443 7.26438 6.43293 7.39908 6.52543 7.59388H7.70183V7.12518C7.70183 7.04738 7.76543 6.98368 7.84333 6.98368H8.45123C8.52903 6.98368 8.59273 7.04738 8.59273 7.12518V8.55679C8.59273 8.63469 8.52903 8.69828 8.45123 8.69828H7.84333C7.76543 8.69828 7.70183 8.63469 7.70183 8.55679V8.06777H6.53443C6.44633 8.27327 6.24223 8.41727 6.00453 8.41727C5.76673 8.41727 5.56263 8.27327 5.47453 8.06777H4.29833V8.55657C4.29833 8.63447 4.23463 8.69817 4.15673 8.69817H3.54883C3.47103 8.69817 3.40733 8.63447 3.40733 8.55657V7.12498C3.40733 7.04718 3.47103 6.98348 3.54883 6.98348Z" fill="black"/>
</svg>
