<svg width="12" height="12" viewBox="0 0 12 12" fill="none" xmlns="http://www.w3.org/2000/svg">
<path fill-rule="evenodd" clip-rule="evenodd" d="M0.263025 5.36245L5.36252 0.26295C5.71322 -0.08765 6.28692 -0.08765 6.63732 0.26295L11.7371 5.36245C12.0874 5.71315 12.0874 6.28685 11.7371 6.63755L6.63732 11.7371C6.28692 12.0877 5.71322 12.0877 5.36252 11.7371L0.263025 6.63755C-0.087675 6.28685 -0.087675 5.71315 0.263025 5.36245Z" fill="#FFEC00"/>
<path fill-rule="evenodd" clip-rule="evenodd" d="M0.365411 5.52055L5.52061 0.365349C5.65251 0.233349 5.82631 0.16745 6.00001 0.16745C6.17371 0.16745 6.34751 0.233349 6.47951 0.365349L11.6347 5.52055C11.7666 5.65245 11.8326 5.82635 11.8326 6.00005C11.8326 6.17365 11.7666 6.34755 11.6347 6.47945L6.47951 11.6347C6.34751 11.7667 6.17371 11.8326 6.00001 11.8326C5.82631 11.8326 5.65251 11.7667 5.52061 11.6347L0.365411 6.47945C0.233411 6.34755 0.167511 6.17365 0.167511 6.00005C0.167511 5.82635 0.233411 5.65245 0.365411 5.52055ZM5.71181 0.556549L0.556611 5.71175C0.477511 5.79085 0.437911 5.89535 0.437911 6.00005C0.437911 6.10465 0.477511 6.20915 0.556611 6.28825L5.71181 11.4435C5.79091 11.5226 5.89541 11.5621 6.00001 11.5621C6.10461 11.5621 6.20921 11.5226 6.28831 11.4435L11.4435 6.28825C11.5226 6.20915 11.5622 6.10465 11.5622 6.00005C11.5622 5.89535 11.5226 5.79085 11.4435 5.71175L6.28831 0.556549C6.20921 0.477449 6.10461 0.437851 6.00001 0.437851C5.89541 0.437851 5.79091 0.477449 5.71181 0.556549Z" fill="black"/>
<path fill-rule="evenodd" clip-rule="evenodd" d="M3.98491 5.58655C3.98491 5.71245 3.95981 5.82905 3.90941 5.93655C3.85901 6.04395 3.79071 6.12585 3.70441 6.18235C3.67741 6.19965 3.65181 6.21435 3.62751 6.22625C3.60321 6.23825 3.57801 6.24745 3.55201 6.25395C3.52591 6.26045 3.49711 6.26535 3.46561 6.26855C3.43421 6.27185 3.39781 6.27345 3.35641 6.27345H2.88161V7.09395H2.52551V4.90615H3.37531C3.45081 4.90615 3.51201 4.91265 3.55871 4.92565C3.60551 4.93865 3.65401 4.96255 3.70441 4.99725C3.79071 5.05805 3.85901 5.14055 3.90941 5.24465C3.95981 5.34885 3.98491 5.46285 3.98491 5.58655ZM3.62881 5.58655C3.62881 5.51705 3.60771 5.45905 3.56551 5.41235C3.52321 5.36565 3.46791 5.34235 3.39961 5.34235H2.88161V5.83725H3.39961C3.46971 5.83725 3.52541 5.81445 3.56681 5.76885C3.60821 5.72325 3.62881 5.66255 3.62881 5.58655ZM5.57651 7.09395L5.40391 6.57955H4.68901L4.51641 7.09395H4.13061L4.85891 4.90615H5.23391L5.96231 7.09395H5.57651ZM5.05591 5.53115L4.83471 6.14325H5.25821L5.05591 5.53115ZM7.37041 7.09395L7.12221 6.27345H6.64741V7.09395H6.29141V4.90615H7.10871C7.14651 4.90615 7.18021 4.90775 7.20991 4.91095C7.23961 4.91425 7.26741 4.91915 7.29351 4.92565C7.31961 4.93215 7.34431 4.94135 7.36771 4.95335C7.39111 4.96525 7.41541 4.97995 7.44051 4.99725C7.52871 5.05805 7.59791 5.14055 7.64831 5.24465C7.69861 5.34885 7.72381 5.46285 7.72381 5.58655C7.72381 5.70595 7.70131 5.81665 7.65631 5.91865C7.61141 6.02065 7.54751 6.10415 7.46481 6.16925L7.75081 7.09395H7.37041ZM7.37041 5.58655C7.37041 5.51705 7.34881 5.45905 7.30571 5.41235C7.26251 5.36565 7.20761 5.34235 7.14111 5.34235H6.64741V5.83725H7.14111C7.20761 5.83725 7.26251 5.81445 7.30571 5.76885C7.34881 5.72325 7.37041 5.66255 7.37041 5.58655ZM8.13111 7.09395V4.90615H9.45021V5.34235H8.48721V5.70045H9.03211V6.13675H8.48721V6.65765H9.47451V7.09395H8.13111Z" fill="black"/>
</svg>
