<svg width="116" height="163" viewBox="0 0 116 163" fill="none" xmlns="http://www.w3.org/2000/svg">
<path fill-rule="evenodd" clip-rule="evenodd" d="M5.9999 1.2C3.3494 1.2 1.2 3.3495 1.2 6C1.2 8.6505 3.3494 10.7999 5.9999 10.7999C8.6504 10.7999 10.7999 8.6505 10.7999 6C10.7999 3.3495 8.6504 1.2 5.9999 1.2ZM0 6C0 2.6869 2.6868 0 5.9999 0C9.3131 0 11.9999 2.6869 11.9999 6C11.9999 9.3131 9.3131 11.9999 5.9999 11.9999C2.6868 11.9999 0 9.3131 0 6Z" fill="#FF0000"/>
<path fill-rule="evenodd" clip-rule="evenodd" d="M8.4125 4.9276L8.412 4.931L8.1294 4.8867L7.8433 4.8848L7.5599 4.9264L7.5594 4.923H7.5559V4.3022L7.0155 4.7832L7.0132 4.7806L7.0138 4.784L6.8844 4.809L6.883 4.8089L6.7554 4.7803L6.7542 4.7797L6.6488 4.7021L6.6478 4.701L6.5822 4.5873L6.5818 4.5859L6.5688 4.4547L6.569 4.4533L6.6087 4.3285L6.612 4.3296L6.6097 4.327L8.0109 3.0811L8.0132 3.0836L8.0118 3.0805L8.1347 3.0223L8.1366 3.022L8.2716 3.0405L8.2726 3.0406L8.2734 3.0413L8.3759 3.13L8.3767 3.1307L8.4158 3.262L8.416 4.9276H8.4125Z" fill="black"/>
<path fill-rule="evenodd" clip-rule="evenodd" d="M6.0672 7.29949L6.005 6.94679L6.0069 6.58379L6.0763 6.22739L6.2086 5.89029L6.4011 5.58199L6.6441 5.31599L6.2419 4.33299H2.7839L2.635 4.35689L2.5011 4.42569L2.3956 4.53309L2.3285 4.66709L2.3065 4.81659L2.3323 4.96469L2.9876 6.87969L3.2132 6.86509L3.4396 6.90299L3.6511 6.99199L3.8375 7.12729L3.9868 7.29949H6.0672Z" fill="black"/>
<path fill-rule="evenodd" clip-rule="evenodd" d="M7.9955 2.1687C8.2135 2.1687 8.3898 2.345 8.3898 2.5627C8.3898 2.7807 8.2135 2.957 7.9955 2.957C7.7778 2.957 7.6015 2.7807 7.6015 2.5627C7.6015 2.345 7.7778 2.1687 7.9955 2.1687Z" fill="black"/>
<path fill-rule="evenodd" clip-rule="evenodd" d="M3.91581 7.8649C3.91581 7.4482 3.57791 7.1104 3.16121 7.1104C2.74451 7.1104 2.40671 7.4482 2.40671 7.8649C2.40671 8.2816 2.74451 8.6195 3.16121 8.6195C3.57791 8.6195 3.91581 8.2816 3.91581 7.8649ZM3.16121 7.6308C3.29051 7.6308 3.39541 7.7356 3.39541 7.8649C3.39541 7.9942 3.29051 8.0991 3.16121 8.0991C3.03191 8.0991 2.92711 7.9942 2.92711 7.8649C2.92711 7.7356 3.03191 7.6308 3.16121 7.6308Z" fill="black"/>
<path fill-rule="evenodd" clip-rule="evenodd" d="M9.01211 6.7754C9.01211 6.2026 8.54771 5.7382 7.97491 5.7382C7.40211 5.7382 6.93781 6.2026 6.93781 6.7754C6.93781 7.3482 7.40211 7.8126 7.97491 7.8126C8.54771 7.8126 9.01211 7.3482 9.01211 6.7754Z" fill="black"/>
<path fill-rule="evenodd" clip-rule="evenodd" d="M7.9749 5.57949C8.6354 5.57949 9.1708 6.11489 9.1708 6.77539C9.1708 7.43589 8.6354 7.97129 7.9749 7.97129C7.3144 7.97129 6.779 7.43589 6.779 6.77539C6.779 6.11489 7.3144 5.57949 7.9749 5.57949ZM9.7952 6.77539C9.7952 5.77009 8.9803 4.95509 7.9749 4.95509C6.9696 4.95509 6.1546 5.77009 6.1546 6.77539C6.1546 7.78069 6.9696 8.59569 7.9749 8.59569C8.9803 8.59569 9.7952 7.78069 9.7952 6.77539Z" fill="black"/>
<path fill-rule="evenodd" clip-rule="evenodd" d="M9.3738 10.1827L10.1814 9.3751L2.6235 1.8172L1.8185 2.6248L9.3738 10.1827Z" fill="#FF0000" stroke="#FF0000" stroke-width="0.0025"/>
</svg>
