<svg width="12" height="12" viewBox="0 0 12 12" fill="none" xmlns="http://www.w3.org/2000/svg">
<path fill-rule="evenodd" clip-rule="evenodd" d="M8.66161 5.0997H8.66411V9.4037H7.62101V5.9237V5.361C7.62211 5.3523 7.62261 5.3434 7.62261 5.3345C7.62261 5.3255 7.62211 5.3166 7.62101 5.3079C7.60791 5.1979 7.51411 5.1107 7.39631 5.0997C7.38801 5.0989 7.37951 5.0985 7.37091 5.0985C7.36241 5.0985 7.35391 5.0989 7.34561 5.0997H6.73991H3.77771L4.02901 5.6159C4.08651 5.7662 3.85171 5.8796 3.71801 5.7713L2.32811 4.7232C2.28121 4.6906 2.21561 4.5937 2.31961 4.502L3.72051 3.4456C3.94361 3.3152 4.08341 3.5239 4.02801 3.6055L3.77581 4.1217H7.61941H7.62101H7.78211C8.26241 4.1593 8.64271 4.5271 8.66411 4.9823V5.063C8.66351 5.0753 8.66271 5.0875 8.66161 5.0997Z" fill="black"/>
<path fill-rule="evenodd" clip-rule="evenodd" d="M6 1.2C8.6505 1.2 10.7999 3.3495 10.7999 6C10.7999 7.1198 10.4162 8.1502 9.7731 8.9668L3.0331 2.2268C3.8498 1.5837 4.8801 1.2 6 1.2ZM8.9655 9.7742C8.149 10.4166 7.1192 10.7999 6 10.7999C3.3495 10.7999 1.2 8.6505 1.2 6C1.2 4.8802 1.5837 3.8498 2.2267 3.0332L8.9655 9.7742ZM11.9999 6C11.9999 2.6868 9.3131 0 6 0C2.6868 0 0 2.6868 0 6C0 9.3131 2.6868 11.9999 6 11.9999C9.3131 11.9999 11.9999 9.3131 11.9999 6Z" fill="#FF0000"/>
</svg>
