<svg width="9" height="12" viewBox="0 0 9 12" fill="none" xmlns="http://www.w3.org/2000/svg">
<path fill-rule="evenodd" clip-rule="evenodd" d="M0.428307 7.62939e-06H8.1431C8.3789 7.62939e-06 8.5714 0.192407 8.5714 0.428307V11.5716C8.5714 11.8074 8.3789 11.9999 8.1431 11.9999H0.428307C0.192507 11.9999 0 11.8074 0 11.5716V0.428307C0 0.192407 0.192507 7.62939e-06 0.428307 7.62939e-06Z" fill="white"/>
<path fill-rule="evenodd" clip-rule="evenodd" d="M0.554214 0.299904H8.01701C8.15701 0.299904 8.27121 0.4141 8.27121 0.5541V11.4454C8.27121 11.5854 8.15701 11.6997 8.01701 11.6997H0.554214C0.414214 11.6997 0.299911 11.5854 0.299911 11.4454V0.5541C0.299911 0.4141 0.414214 0.299904 0.554214 0.299904Z" fill="white"/>
<path fill-rule="evenodd" clip-rule="evenodd" d="M0.554405 0.171303H8.01701C8.12251 0.171303 8.21821 0.214299 8.28761 0.283699C8.35691 0.352999 8.4 0.448807 8.4 0.554207V11.4453C8.4 11.5508 8.35691 11.6465 8.28761 11.7159C8.21821 11.7852 8.12251 11.8283 8.01701 11.8283H0.554405C0.449005 11.8283 0.353206 11.7852 0.283806 11.7159C0.214506 11.6465 0.171402 11.5508 0.171402 11.4453V0.554207C0.171402 0.448807 0.214506 0.352999 0.283806 0.283699C0.353206 0.214299 0.449005 0.171303 0.554405 0.171303ZM8.01701 0.428398H0.554405C0.519905 0.428398 0.488507 0.442608 0.465607 0.465508C0.442807 0.488308 0.428604 0.519807 0.428604 0.554207V11.4453C0.428604 11.4798 0.442807 11.5112 0.465607 11.5341C0.488507 11.557 0.519905 11.5712 0.554405 11.5712H8.01701C8.05151 11.5712 8.0829 11.557 8.1058 11.5341C8.1287 11.5112 8.14281 11.4798 8.14281 11.4453V0.554207C8.14281 0.519807 8.1287 0.488308 8.1058 0.465508C8.0829 0.442608 8.05151 0.428398 8.01701 0.428398Z" fill="white"/>
<path fill-rule="evenodd" clip-rule="evenodd" d="M1.32581 1.3382H7.2457V7.4333H1.32581V1.3382Z" fill="white"/>
<path fill-rule="evenodd" clip-rule="evenodd" d="M3.5603 5.2738H5.0117V6.7252H3.5603V5.2738Z" fill="white"/>
<path fill-rule="evenodd" clip-rule="evenodd" d="M1.8804 4.63372C1.9908 4.27662 1.7602 4.21092 2.606 4.61402L4.3849 5.46511C5.8226 6.16411 5.099 5.73542 5.3787 6.27712L5.5615 6.28712C5.7263 5.94192 5.42351 6.11191 6.02061 5.79041C6.16511 5.71261 6.497 5.51131 6.6559 5.46941C6.7352 5.62011 6.6722 5.65022 6.8947 5.59702C6.9135 5.54622 7.0071 4.28232 6.884 4.16952C6.7501 4.04602 6.0842 4.29102 5.9142 4.37292C5.6942 4.47892 5.6803 4.42392 5.4551 4.32452L4.101 3.72312C3.0386 3.22992 3.2491 3.45762 3.2322 2.69172C3.227 2.45682 3.1216 2.45922 2.8827 2.51672C2.5505 2.59662 2.2996 2.71611 2.0136 2.85001C1.5032 3.08911 1.6475 3.31402 1.6338 4.29482C1.6302 4.55242 1.5947 4.71022 1.8804 4.63372ZM2.642 4.22102L2.1091 3.97242L2.0737 3.86582L2.0381 4.15002L2.5966 4.38572L2.642 4.22102ZM2.1068 3.79691C2.1636 3.93041 2.2679 3.97692 2.399 4.04212C2.606 4.14522 2.6739 4.10451 2.8681 4.02561C3.1037 3.92981 3.4259 3.77712 3.5741 3.61932C3.5484 3.58762 3.5571 3.59492 3.5198 3.55962C3.2455 3.29922 3.0918 3.32391 2.7945 3.41471C2.5086 3.50211 2.2202 3.60851 2.1068 3.79691ZM5.3172 5.59121C5.3205 5.35461 5.2897 5.38772 5.1074 5.30782C4.6631 5.11342 2.9328 4.26091 2.7489 4.25281C2.7752 4.45221 2.7706 4.42181 2.9603 4.50681L3.9456 4.97802C4.1679 5.08532 5.1076 5.56841 5.3172 5.59121ZM2.847 4.19192C3.207 4.34672 5.1398 5.29862 5.335 5.31402C5.3367 5.19662 5.3219 4.88921 5.3451 4.79711C5.3808 4.65521 5.5083 4.62902 5.6231 4.50732C5.5245 4.39222 4.4521 3.95021 4.247 3.85921C3.8494 3.68261 3.9298 3.63091 3.5245 3.82221C3.3712 3.89451 2.9486 4.05382 2.847 4.19192Z" fill="#060606"/>
</svg>
