<svg width="178" height="30" viewBox="0 0 178 30" fill="none" xmlns="http://www.w3.org/2000/svg">
<path fill-rule="evenodd" clip-rule="evenodd" d="M169.018 18.7503C166.368 18.7503 164.218 20.8998 164.218 23.5503C164.218 26.2008 166.368 28.3502 169.018 28.3502C171.669 28.3502 173.818 26.2008 173.818 23.5503C173.818 20.8998 171.669 18.7503 169.018 18.7503ZM163.018 23.5503C163.018 20.2372 165.705 17.5503 169.018 17.5503C172.331 17.5503 175.018 20.2372 175.018 23.5503C175.018 26.8634 172.331 29.5502 169.018 29.5502C165.705 29.5502 163.018 26.8634 163.018 23.5503Z" fill="#FF0000"/>
<path fill-rule="evenodd" clip-rule="evenodd" d="M171.601 24.0636L171.57 24.0238L171.535 23.9855L171.496 23.9534L171.453 23.9242L171.408 23.9007L171.361 23.8816L171.311 23.8685L171.261 23.8597L171.209 23.8568H169.043L168.824 23.8818L168.605 23.913L168.389 23.9515L168.172 23.9944L167.958 24.0447L167.744 24.1012L167.532 24.1632L167.323 24.2314L167.115 24.3055L166.91 24.3855L166.707 24.4713L166.506 24.5631L166.309 24.6608L166.113 24.7645L165.922 24.8727L165.733 24.9868L165.547 25.1053L165.365 25.2296L165.188 25.3602L165.185 25.3557L165.18 25.358L165.113 25.2098L165.053 25.0597L164.999 24.907L164.95 24.7512L164.908 24.5952L164.871 24.4364L164.84 24.2777L164.816 24.1173L164.797 23.9555L164.785 23.7938L164.779 23.632V23.4689L164.785 23.307L164.797 23.1453L164.816 22.9834L164.84 22.8232L164.871 22.6644L164.908 22.5055L164.949 22.3496L164.999 22.1953L165.053 22.0424L165.113 21.891L165.18 21.7426L165.185 21.7448L165.188 21.7404L165.365 21.8708L165.547 21.9952L165.733 22.1137L165.922 22.2279L166.113 22.3374L166.309 22.4396L166.506 22.5374L166.707 22.6292L166.91 22.715L167.115 22.7951L167.323 22.8691L167.532 22.9373L167.744 22.9993L167.957 23.0558L168.172 23.1062L168.389 23.149L168.605 23.1876L168.824 23.2187L169.043 23.2438H171.209L171.261 23.2409L171.311 23.2336L171.36 23.219L171.408 23.1998L171.453 23.1764L171.495 23.1474L171.535 23.115L171.57 23.0782L171.601 23.0371L171.647 22.9763L171.696 22.9197L171.751 22.8675L171.811 22.8196L171.874 22.7779L171.939 22.7405L172.008 22.7092L172.08 22.6839L172.153 22.6645L172.226 22.651L172.302 22.6435L172.378 22.642L172.452 22.648L172.527 22.66L172.601 22.6777L172.673 22.7018L172.742 22.7315L172.809 22.7656L172.873 22.8075L172.933 22.8537L172.988 22.9043L173.04 22.9594L173.086 23.0193L173.128 23.0818L173.165 23.149L173.195 23.2176L173.221 23.289L173.239 23.3623L173.252 23.4366L173.258 23.5128V23.5873L173.252 23.6634L173.239 23.738L173.221 23.811L173.195 23.8827L173.166 23.9511L173.128 24.0184L173.086 24.0811L173.04 24.1407L172.988 24.196L172.933 24.2466L172.873 24.2928L172.809 24.3346L172.742 24.3689L172.674 24.3986L172.602 24.4226L172.527 24.4405L172.453 24.4525L172.378 24.4585L172.302 24.4571L172.226 24.4496L172.153 24.4361L172.08 24.4168L172.008 24.3915L171.94 24.3603L171.874 24.3228L171.811 24.2812L171.752 24.2333L171.697 24.1813L171.647 24.1245L171.601 24.0636Z" fill="black"/>
<path fill-rule="evenodd" clip-rule="evenodd" d="M172.392 27.733L173.2 26.9254L165.642 19.3675L164.837 20.1751L172.392 27.733Z" fill="#FF0000" stroke="#FF0000" stroke-width="0.0025"/>
</svg>
