<svg width="12" height="12" viewBox="0 0 12 12" fill="none" xmlns="http://www.w3.org/2000/svg">
<path fill-rule="evenodd" clip-rule="evenodd" d="M0.26295 5.36254L5.36254 0.26295C5.71314 -0.08765 6.28685 -0.08765 6.63725 0.26295L11.737 5.36254C12.0874 5.71314 12.0874 6.28685 11.737 6.63755L6.63725 11.737C6.28685 12.0877 5.71314 12.0877 5.36254 11.737L0.26295 6.63755C-0.08765 6.28685 -0.08765 5.71314 0.26295 5.36254Z" fill="#FFEC00"/>
<path fill-rule="evenodd" clip-rule="evenodd" d="M0.365356 5.52054L5.52055 0.365334C5.65255 0.233434 5.82635 0.167435 6.00005 0.167435C6.17375 0.167435 6.34755 0.233434 6.47955 0.365334L11.6346 5.52054C11.7666 5.65254 11.8327 5.82634 11.8327 6.00004C11.8327 6.17374 11.7666 6.34754 11.6346 6.47954L6.47955 11.6346C6.34755 11.7666 6.17375 11.8326 6.00005 11.8326C5.82635 11.8326 5.65255 11.7666 5.52055 11.6346L0.365356 6.47954C0.233456 6.34754 0.16745 6.17374 0.16745 6.00004C0.16745 5.82634 0.233456 5.65254 0.365356 5.52054ZM5.71175 0.556633L0.556656 5.71174C0.477456 5.79094 0.437851 5.89544 0.437851 6.00004C0.437851 6.10464 0.477456 6.20914 0.556656 6.28824L5.71175 11.4434C5.79095 11.5225 5.89545 11.5621 6.00005 11.5621C6.10465 11.5621 6.20915 11.5225 6.28825 11.4434L11.4435 6.28824C11.5227 6.20914 11.5621 6.10464 11.5621 6.00004C11.5621 5.89544 11.5227 5.79094 11.4435 5.71174L6.28825 0.556633C6.20915 0.477433 6.10465 0.437836 6.00005 0.437836C5.89545 0.437836 5.79095 0.477433 5.71175 0.556633Z" fill="black"/>
<path fill-rule="evenodd" clip-rule="evenodd" d="M6.20065 5.88144L4.03555 8.02254L3.37856 7.35174C3.63406 6.97014 6.20085 4.62534 6.20085 4.48234L6.20116 2.70374H7.10225C7.15685 2.70374 7.17336 2.72024 7.17336 2.77494L7.17245 9.29623H6.20015L6.20065 5.88144Z" fill="black"/>
</svg>
