<svg width="9" height="12" viewBox="0 0 9 12" fill="none" xmlns="http://www.w3.org/2000/svg">
<path fill-rule="evenodd" clip-rule="evenodd" d="M3.56039 5.27381H5.0117V6.72512H3.56039V5.27381Z" fill="white"/>
<path fill-rule="evenodd" clip-rule="evenodd" d="M0.428391 7.62939e-06H8.1431C8.379 7.62939e-06 8.5714 0.192407 8.5714 0.428307V11.5715C8.5714 11.8074 8.379 11.9999 8.1431 11.9999H0.428391C0.192491 11.9999 0 11.8074 0 11.5715V0.428307C0 0.192407 0.192491 7.62939e-06 0.428391 7.62939e-06Z" fill="white"/>
<path fill-rule="evenodd" clip-rule="evenodd" d="M0.554199 0.299919H8.017C8.157 0.299919 8.2713 0.414115 8.2713 0.554115V11.4454C8.2713 11.5854 8.157 11.6997 8.017 11.6997H0.554199C0.414199 11.6997 0.300003 11.5854 0.300003 11.4454V0.554115C0.300003 0.414115 0.414199 0.299919 0.554199 0.299919Z" fill="white"/>
<path fill-rule="evenodd" clip-rule="evenodd" d="M0.554398 0.171211H8.017C8.1225 0.171211 8.2183 0.214307 8.2876 0.283607C8.357 0.353007 8.39999 0.448807 8.39999 0.554207V11.4453C8.39999 11.5508 8.357 11.6465 8.2876 11.7159C8.2183 11.7852 8.1225 11.8283 8.017 11.8283H0.554398C0.448998 11.8283 0.35319 11.7852 0.28389 11.7159C0.21449 11.6465 0.171494 11.5508 0.171494 11.4453V0.554207C0.171494 0.448807 0.21449 0.353007 0.28389 0.283607C0.35319 0.214307 0.448998 0.171211 0.554398 0.171211ZM8.017 0.428413H0.554398C0.519998 0.428413 0.488498 0.442616 0.465698 0.465416C0.442798 0.488316 0.428604 0.519707 0.428604 0.554207V11.4453C0.428604 11.4798 0.442798 11.5112 0.465698 11.5341C0.488498 11.5569 0.519998 11.5711 0.554398 11.5711H8.017C8.0515 11.5711 8.08289 11.5569 8.10579 11.5341C8.12869 11.5112 8.1429 11.4798 8.1429 11.4453V0.554207C8.1429 0.519707 8.12869 0.488316 8.10579 0.465416C8.08289 0.442616 8.0515 0.428413 8.017 0.428413Z" fill="white"/>
<path fill-rule="evenodd" clip-rule="evenodd" d="M1.32579 1.33822H7.2457V7.43322H1.32579V1.33822Z" fill="white"/>
<path fill-rule="evenodd" clip-rule="evenodd" d="M2.30759 3.40293C2.08999 3.02503 2.11199 3.10662 2.28649 2.71442C2.33339 2.60902 2.37938 2.50353 2.42418 2.39733C2.50698 2.20043 2.53658 2.24663 2.61638 2.41573C2.87298 2.95993 3.29228 3.58763 3.66388 4.06273C4.32538 4.90643 5.19878 5.74402 6.07738 6.35892C6.21668 6.45642 6.15619 6.46423 6.01249 6.49793C5.82769 6.54163 5.65358 6.58902 5.47118 6.64012C5.35718 6.67202 5.30749 6.61853 5.21369 6.55153C4.60139 6.11373 4.09629 5.69953 3.58309 5.14533C3.08809 4.61063 2.67179 4.03353 2.30759 3.40293Z" fill="black"/>
<path fill-rule="evenodd" clip-rule="evenodd" d="M6.412 5.65803C6.4369 5.50703 6.417 5.49453 6.2993 5.40093C6.1526 5.28443 6.00839 5.16142 5.86349 5.04212C5.83159 5.01592 5.78559 4.97283 5.74179 4.97973C5.62999 5.00413 5.37129 5.13113 5.24819 5.18273C5.20529 5.20073 5.05159 5.26283 5.02369 5.29983C4.97039 5.37063 6.0227 6.14152 6.177 6.21372C6.3568 6.29802 6.32789 6.24052 6.34739 6.08202C6.36449 5.94152 6.389 5.79793 6.412 5.65803Z" fill="black"/>
<path fill-rule="evenodd" clip-rule="evenodd" d="M3.86908 2.99641C3.94518 2.86371 3.93108 2.84511 3.85338 2.71621C3.75658 2.55581 3.66449 2.39012 3.57039 2.22772C3.54959 2.19202 3.52158 2.13562 3.47818 2.12672C3.36488 2.11062 3.07809 2.13921 2.94469 2.14451C2.89829 2.14651 2.73249 2.15052 2.69349 2.17582C2.61879 2.22342 3.33549 3.31341 3.45479 3.43511C3.59379 3.57681 3.58679 3.51292 3.66039 3.37112C3.72559 3.24552 3.79868 3.11951 3.86908 2.99641Z" fill="black"/>
</svg>
