<svg width="12" height="12" viewBox="0 0 12 12" fill="none" xmlns="http://www.w3.org/2000/svg">
<path fill-rule="evenodd" clip-rule="evenodd" d="M0.26295 5.36255L5.36245 0.262958C5.71315 -0.0876424 6.28685 -0.0876424 6.63725 0.262958L11.737 5.36255C12.0874 5.71315 12.0874 6.28686 11.737 6.63756L6.63725 11.737C6.28685 12.0877 5.71315 12.0877 5.36245 11.737L0.26295 6.63756C-0.08765 6.28686 -0.08765 5.71315 0.26295 5.36255Z" fill="#FFEC00"/>
<path fill-rule="evenodd" clip-rule="evenodd" d="M0.365356 5.52056L5.52055 0.365364C5.65255 0.233464 5.82635 0.167458 6.00005 0.167458C6.17375 0.167458 6.34755 0.233464 6.47945 0.365364L11.6347 5.52056C11.7667 5.65256 11.8327 5.82635 11.8327 6.00005C11.8327 6.17375 11.7667 6.34755 11.6347 6.47945L6.47945 11.6347C6.34755 11.7667 6.17375 11.8327 6.00005 11.8327C5.82635 11.8327 5.65255 11.7667 5.52055 11.6347L0.365356 6.47945C0.233456 6.34755 0.16745 6.17375 0.16745 6.00005C0.16745 5.82635 0.233456 5.65256 0.365356 5.52056ZM5.71175 0.556557L0.556557 5.71175C0.477457 5.79085 0.437851 5.89545 0.437851 6.00005C0.437851 6.10465 0.477457 6.20916 0.556557 6.28826L5.71175 11.4435C5.79095 11.5226 5.89545 11.5622 6.00005 11.5622C6.10465 11.5622 6.20915 11.5226 6.28825 11.4435L11.4435 6.28826C11.5226 6.20916 11.5622 6.10465 11.5622 6.00005C11.5622 5.89545 11.5226 5.79085 11.4435 5.71175L6.28825 0.556557C6.20915 0.477457 6.10465 0.437859 6.00005 0.437859C5.89545 0.437859 5.79095 0.477457 5.71175 0.556557Z" fill="black"/>
<path fill-rule="evenodd" clip-rule="evenodd" d="M3.05206 4.62077C3.05206 4.46437 3.15056 4.29137 3.29916 4.29137H3.36086C3.35076 4.41257 3.31966 4.33427 3.31966 4.41487C3.31966 4.46307 3.32586 4.46816 3.34026 4.49716C3.28446 4.60266 3.23735 4.63877 3.23735 4.80597C3.23735 4.86157 3.24715 4.86277 3.25795 4.90897C3.13795 4.87687 3.05206 4.77427 3.05206 4.62077ZM3.56676 4.04427C3.56676 3.47297 3.82155 3.28256 4.39025 3.28256H4.55486L5.41925 3.34767C5.23785 3.18647 4.78855 2.99437 4.45195 2.99437H4.14315C3.72295 2.99437 3.36086 3.35857 3.36086 3.77667V4.16786H3.23735C3.04465 4.16786 2.84625 4.39817 2.84625 4.60017V4.64127C2.84625 4.91247 3.03845 5.12546 3.25795 5.17656V6.24707C3.25795 7.24867 3.46606 7.87017 3.64906 8.65567C3.57686 8.76357 3.46385 8.80166 3.46385 8.98506C3.50995 8.99586 3.51116 9.00566 3.56676 9.00566H5.79005C5.84705 9.00566 5.83965 8.98976 5.85185 8.94386C5.73435 8.91656 5.60755 8.82496 5.45645 8.78346C5.30675 8.74236 5.18105 8.69026 5.00845 8.67566C4.67165 8.64706 4.37845 8.59396 3.97845 8.59396C3.94035 8.43036 3.82335 8.17426 3.76075 7.98816C3.68775 7.77086 3.65135 7.58376 3.60295 7.34306C3.52915 6.97606 3.44305 6.33416 3.46385 5.87646L3.48965 5.21797L3.62846 5.21777C3.83926 5.21777 3.95425 5.09416 4.06085 5.09416H4.10195C4.33125 5.09416 4.45865 5.23837 4.74015 5.23837H4.82256C5.08586 5.23837 5.51855 5.01617 5.56365 4.84717H4.80196C4.42016 4.84717 3.75965 4.73867 3.75205 4.39427C3.82575 4.37707 3.84876 4.35307 3.93726 4.35307H4.06085C4.30665 4.35307 4.76966 4.60876 5.11076 4.55896L5.87625 4.46147L5.87245 4.43547C5.20875 4.43547 4.97865 4.12666 4.26665 4.12666H4.14315L3.79346 4.15086C3.87606 4.02356 4.09845 3.79727 4.28725 3.79727H4.39025C4.60925 3.79727 4.81826 3.92816 4.99976 3.99066C5.23916 4.07306 5.39996 4.06487 5.70776 4.06487C5.67086 4.01447 5.50016 3.93567 5.42776 3.89197C5.31756 3.82557 5.28126 3.75727 5.17236 3.69447C5.04906 3.62327 4.66266 3.48846 4.47256 3.48846H4.39025C3.95335 3.48846 3.76446 3.81677 3.56676 4.04427Z" fill="black"/>
<path fill-rule="evenodd" clip-rule="evenodd" d="M5.66016 3.33057H6.88385C6.90605 3.33057 6.92426 3.31917 6.92426 3.30527V3.25476C6.92426 3.24086 6.90605 3.22946 6.88385 3.22946H5.66016C5.63786 3.22946 5.61975 3.24086 5.61975 3.25476V3.30527C5.61975 3.31917 5.63786 3.33057 5.66016 3.33057Z" fill="black" stroke="#1B1918" stroke-width="0.5669"/>
<path fill-rule="evenodd" clip-rule="evenodd" d="M5.89305 3.95686H7.66096C7.69306 3.95686 7.71935 3.94546 7.71935 3.93156V3.88107C7.71935 3.86717 7.69306 3.85577 7.66096 3.85577H5.89305C5.86095 3.85577 5.83466 3.86717 5.83466 3.88107V3.93156C5.83466 3.94546 5.86095 3.95686 5.89305 3.95686Z" fill="black" stroke="#1B1918" stroke-width="0.5669"/>
<path fill-rule="evenodd" clip-rule="evenodd" d="M6.08476 4.56297H8.37116C8.41266 4.56297 8.44666 4.55157 8.44666 4.53767V4.48717C8.44666 4.47327 8.41266 4.46196 8.37116 4.46196H6.08476C6.04326 4.46196 6.00926 4.47327 6.00926 4.48717V4.53767C6.00926 4.55157 6.04326 4.56297 6.08476 4.56297Z" fill="black" stroke="#1B1918" stroke-width="0.5669"/>
<path fill-rule="evenodd" clip-rule="evenodd" d="M5.88776 4.96696H9.04935C9.10685 4.96696 9.15376 4.95567 9.15376 4.94177V4.89127C9.15376 4.87737 9.10685 4.86597 9.04935 4.86597H5.88776C5.83036 4.86597 5.78336 4.87737 5.78336 4.89127V4.94177C5.78336 4.95567 5.83036 4.96696 5.88776 4.96696Z" fill="black" stroke="#1B1918" stroke-width="0.5669"/>
</svg>
