<svg width="12" height="12" viewBox="0 0 12 12" fill="none" xmlns="http://www.w3.org/2000/svg">
<path fill-rule="evenodd" clip-rule="evenodd" d="M6 1.25C3.3771 1.25 1.25 3.3771 1.25 6C1.25 8.6229 3.3771 10.75 6 10.75C8.6229 10.75 10.7499 8.6229 10.7499 6C10.7499 3.3771 8.6229 1.25 6 1.25ZM0 6C0 2.6869 2.6869 0 6 0C9.3131 0 11.9999 2.6869 11.9999 6C11.9999 9.3131 9.3131 11.9999 6 11.9999C2.6869 11.9999 0 9.3131 0 6Z" fill="#FF0000"/>
<path fill-rule="evenodd" clip-rule="evenodd" d="M8.05849 3.9282H8.84439C9.15429 4.0703 9.40439 4.3144 9.42229 4.8407V5.1605C9.42229 5.2359 9.36069 5.2976 9.28529 5.2976C9.20989 5.2976 9.14819 5.2359 9.14819 5.1605V4.8407C9.14869 4.6592 9.09169 4.5124 8.97699 4.4V5.2985H9.42229V5.4127H8.97699V5.6473C9.00769 5.6237 9.0461 5.6097 9.0876 5.6097C9.1881 5.6097 9.2704 5.692 9.2704 5.7925V6.889C9.2704 6.9831 9.19839 7.0611 9.10669 7.0708H9.26749V7.185H8.90199V7.0708H9.0685C8.9769 7.0611 8.90489 6.9831 8.90489 6.889V6.2241C8.90459 6.2209 8.9009 6.2126 8.8947 6.2184L8.56029 6.4082C8.52689 6.4308 8.527 6.4667 8.5602 6.4824C8.5632 6.4836 8.8257 6.5469 8.9007 6.7494V7.6412C8.9007 7.6726 8.875 7.6983 8.8436 7.6983C8.8121 7.6983 8.78639 7.6726 8.78639 7.6412V6.7494C8.56889 6.4971 8.33669 6.5373 8.15289 6.7437V7.9255C8.15289 7.9804 8.1283 8.0299 8.0896 8.0635L8.19859 8.1199V8.2686H7.7417V8.1199L7.84909 8.0621C7.81129 8.0285 7.7874 7.9797 7.7874 7.9255V6.3085C7.7874 6.2232 7.84659 6.1511 7.92589 6.1312V5.4127H7.48059V5.2985H7.92589V4.5855C7.84249 4.6497 7.81149 4.7228 7.80759 4.8407V5.1382C7.80759 5.2136 7.7264 5.2976 7.651 5.2976C7.5757 5.2976 7.48059 5.2136 7.48059 5.1382V4.8038C7.48859 4.3982 7.81459 4.0396 8.05849 3.9282ZM8.46759 6.5781C8.54299 6.5781 8.60469 6.6398 8.60469 6.7152V8.8169C8.60469 8.8923 8.54299 8.954 8.46759 8.954C8.39219 8.954 8.3306 8.8923 8.3306 8.8169V6.7152C8.3306 6.6398 8.39219 6.5781 8.46759 6.5781ZM8.44189 3.194C8.63059 3.194 8.7845 3.3479 8.7845 3.5366C8.7845 3.7254 8.63059 3.8793 8.44189 3.8793C8.25309 3.8793 8.0992 3.7254 8.0992 3.5366C8.0992 3.3479 8.25309 3.194 8.44189 3.194ZM8.1707 6.549C8.2111 6.5145 8.2567 6.4893 8.2883 6.4812V6.4065C8.2484 6.4301 8.2134 6.459 8.1707 6.549Z" fill="black"/>
<path fill-rule="evenodd" clip-rule="evenodd" d="M4.0148 5.4449L3.80559 4.96231L3.80359 6.14561L3.9868 8.01871L3.98479 8.019C3.99179 8.2519 3.59219 8.40661 3.50989 8.07421L3.30209 6.27921L3.2016 8.36411C3.1392 8.59451 2.8385 8.58601 2.7946 8.35131V4.99751L2.6599 5.6749L2.66789 6.1166C2.62509 6.326 2.3714 6.33201 2.304 6.13491L2.306 6.1165L2.30299 6.1161C2.40019 5.21 2.41919 4.5972 2.61169 4.4249C3.13879 4.0391 3.9007 4.22881 3.9765 4.41111L3.97549 4.41311L3.97749 4.4123L4.3335 5.28321L4.33749 6.09241L4.32849 6.17691L4.32809 6.17801C4.22099 6.32781 4.0866 6.3132 4.0105 6.1464L4.0103 6.14521L4.0105 6.14391L4.0148 5.4449Z" fill="black"/>
<path fill-rule="evenodd" clip-rule="evenodd" d="M3.67969 3.7491C3.63969 3.9996 3.51849 4.08709 3.30939 4.12069C3.06469 4.08169 2.97499 3.97919 2.93849 3.74979C2.97869 3.49849 3.0994 3.4121 3.3087 3.3788C3.5175 3.4123 3.63949 3.4988 3.67969 3.7491Z" fill="black"/>
<path fill-rule="evenodd" clip-rule="evenodd" d="M6.0587 3.3788H5.72389V8.4457H6.0587V3.3788Z" fill="black"/>
</svg>
