<svg width="12" height="12" viewBox="0 0 12 12" fill="none" xmlns="http://www.w3.org/2000/svg">
<path fill-rule="evenodd" clip-rule="evenodd" d="M6 1.25C8.6228 1.25 10.7499 3.3771 10.7499 6C10.7499 8.6229 8.6228 10.7499 6 10.7499C3.3771 10.7499 1.25 8.6229 1.25 6C1.25 3.3771 3.3771 1.25 6 1.25ZM11.9999 6C11.9999 2.6869 9.3131 0 6 0C2.6868 0 0 2.6869 0 6C0 9.3131 2.6868 11.9999 6 11.9999C9.3131 11.9999 11.9999 9.3131 11.9999 6Z" fill="#FF0000"/>
<path fill-rule="evenodd" clip-rule="evenodd" d="M4.72851 9.53419H5.71611V8.04939L5.71911 7.95049L5.72921 7.85259L5.74471 7.7556L5.76561 7.6586L5.79351 7.5644L5.82711 7.4712L5.86651 7.38089L5.91061 7.2925L5.96071 7.2071L6.01641 7.12539L6.0769 7.0476L6.1422 6.97359L6.21231 6.9045L6.28621 6.8392L6.36401 6.77869L6.44561 6.72289L6.5302 6.67199L6.61871 6.62779L6.70891 6.58839L6.80201 6.5547L6.89721 6.528L6.99311 6.50579L7.09021 6.49039L7.18921 6.48079L7.28711 6.47789H7.8345V6.48149L7.83751 6.48289L7.62761 6.98679L7.61961 7.01419L7.6156 7.04319L7.61661 7.07159L7.6226 7.09969L7.63301 7.127L7.647 7.15219L7.6658 7.17369L7.6884 7.19259L7.71361 7.20659L7.73991 7.2169L7.76891 7.2226H7.7973L7.82631 7.2179L7.85341 7.2095L7.8791 7.19529L9.6842 6.0225L9.69601 6.01249L9.703 5.9992L9.70601 5.98409L9.703 5.96889L9.69601 5.95559L9.68431 5.94469L7.8791 4.772L7.85371 4.75879L7.8262 4.74929L7.7975 4.74469L7.76901 4.74559L7.73991 4.75119L7.71391 4.76059L7.68861 4.77559L7.6658 4.79459L7.6472 4.8159L7.63301 4.8405L7.62271 4.86749L7.61671 4.89569L7.61571 4.925L7.61971 4.95319L7.6277 4.98129L7.8376 5.48439L7.83461 5.48569V5.4893H7.21651L7.10551 5.49129L6.99431 5.49889L6.88451 5.5132L6.77451 5.5323L6.66621 5.55819L6.5602 5.58979L6.45591 5.62709L6.35361 5.67009L6.25301 5.7188L6.15641 5.7734L6.06171 5.8327L5.97181 5.89679L5.88461 5.96669L5.80151 6.04029L5.72301 6.11889L5.72001 6.11639H5.716V3.939H5.72001L5.72101 3.9357L6.22401 4.14549L6.2523 4.15389L6.2803 4.15759H6.30961L6.33791 4.15199L6.36491 4.1409L6.38931 4.12669L6.4108 4.10799L6.42971 4.08549L6.44471 4.05999L6.4537 4.03389L6.45971 4.0047L6.46051 3.9763L6.45551 3.94749L6.44551 3.92019L6.4324 3.8947L5.25961 2.0887L5.2495 2.07759L5.23631 2.06969L5.22121 2.06799L5.20601 2.06969L5.19281 2.07759L5.18181 2.08879L4.01001 3.8947L3.99601 3.9203L3.98701 3.94749L3.98201 3.9763L3.98301 4.00489L3.98801 4.0337L3.99841 4.0602L4.01241 4.08549L4.0313 4.10799L4.05281 4.12669L4.07821 4.14079L4.10531 4.15199L4.13341 4.15759H4.16171L4.1908 4.15389L4.21831 4.14539L4.72211 3.9357L4.72311 3.939H4.7271L4.72851 9.53419Z" fill="black"/>
</svg>
