<svg width="9" height="12" viewBox="0 0 9 12" fill="none" xmlns="http://www.w3.org/2000/svg">
<path fill-rule="evenodd" clip-rule="evenodd" d="M0.428299 7.62939e-06H8.14299C8.37889 7.62939e-06 8.5714 0.192407 8.5714 0.428307V11.5715C8.5714 11.8074 8.37889 11.9999 8.14299 11.9999H0.428299C0.192399 11.9999 0 11.8074 0 11.5715V0.428307C0 0.192407 0.192399 7.62939e-06 0.428299 7.62939e-06Z" fill="white"/>
<path fill-rule="evenodd" clip-rule="evenodd" d="M0.5541 0.299904H8.01689C8.15689 0.299904 8.27119 0.4141 8.27119 0.5541V11.4454C8.27119 11.5854 8.15689 11.6997 8.01689 11.6997H0.5541C0.4141 11.6997 0.299896 11.5854 0.299896 11.4454V0.5541C0.299896 0.4141 0.4141 0.299904 0.5541 0.299904Z" fill="white"/>
<path fill-rule="evenodd" clip-rule="evenodd" d="M0.554405 0.171196H8.0169C8.1224 0.171196 8.2182 0.214307 8.2875 0.283607C8.3569 0.353007 8.39991 0.448807 8.39991 0.554207V11.4453C8.39991 11.5508 8.3569 11.6465 8.2875 11.7159C8.2182 11.7852 8.1224 11.8283 8.0169 11.8283H0.554405C0.448905 11.8283 0.353106 11.7852 0.283806 11.7159C0.214406 11.6465 0.171402 11.5508 0.171402 11.4453V0.554207C0.171402 0.448807 0.214406 0.353007 0.283806 0.283607C0.353106 0.214307 0.448905 0.171196 0.554405 0.171196ZM8.0169 0.428398H0.554405C0.519905 0.428398 0.488507 0.442601 0.465607 0.465401C0.442707 0.488301 0.428505 0.519707 0.428505 0.554207V11.4453C0.428505 11.4798 0.442707 11.5112 0.465607 11.5341C0.488507 11.5569 0.519905 11.5711 0.554405 11.5711H8.0169C8.0514 11.5711 8.08291 11.5569 8.10571 11.5341C8.12861 11.5112 8.1428 11.4798 8.1428 11.4453V0.554207C8.1428 0.519707 8.12861 0.488301 8.10571 0.465401C8.08291 0.442601 8.0514 0.428398 8.0169 0.428398Z" fill="white"/>
<path fill-rule="evenodd" clip-rule="evenodd" d="M1.3257 1.3382H7.24559V7.4332H1.3257V1.3382Z" fill="white"/>
<path fill-rule="evenodd" clip-rule="evenodd" d="M3.39091 3.17791C2.91061 3.17841 2.3918 3.07991 2.301 3.57231C2.174 3.61351 2.1284 3.59041 2.1748 3.75511C2.2925 3.79181 2.50401 3.77031 2.64651 3.77041C2.62101 3.95041 2.66951 3.99251 2.76781 4.07551L2.0527 4.0845C2.03 4.2065 2.24871 4.4331 2.30431 4.5395C2.25791 4.5753 2.2037 4.62991 2.1136 4.59001C2.0755 4.57311 2.02981 4.5153 1.97941 4.5113C1.88161 4.5033 1.96261 4.4999 1.92351 4.5247C1.94401 4.5527 2.10681 4.64841 2.14361 4.65381C2.30821 4.67781 2.29581 4.56641 2.40951 4.55601C2.53841 4.54411 2.52391 4.65111 2.66031 4.65571C2.80811 4.66071 2.76771 4.5607 2.92841 4.5547C3.04891 4.5951 3.09831 4.74111 3.27611 4.60321C3.46841 4.45411 3.47111 4.67491 3.65591 4.65451C3.81821 4.63651 3.78561 4.459 3.99621 4.6134C4.17511 4.7446 4.2201 4.56311 4.3736 4.55421C4.4723 4.58661 4.5183 4.7019 4.663 4.6403C4.7862 4.5879 4.75641 4.47631 4.95341 4.62031C5.08861 4.71911 5.1628 4.6049 5.2461 4.5668C5.3742 4.508 5.3935 4.6505 5.5312 4.6551C5.6909 4.6601 5.6731 4.4853 5.8381 4.5803C5.9514 4.6455 5.9766 4.71231 6.1247 4.59851C6.2764 4.48211 6.2847 4.6139 6.3899 4.6475C6.4779 4.6755 6.5285 4.63271 6.5985 4.57251C6.6631 4.51691 6.62601 4.58631 6.64701 4.50451C6.48901 4.51451 6.47841 4.72241 6.28771 4.50541C6.38531 4.33621 6.54111 4.2012 6.51531 4.0971C6.35851 4.0503 5.6679 4.09111 5.4323 4.07911C5.5256 3.98991 5.5806 3.93831 5.55 3.77211C5.7286 3.76511 6.28081 3.7976 6.39291 3.7503C6.43271 3.5945 6.39591 3.59302 6.26501 3.58182L6.1955 3.18861L5.3371 3.1768C5.2799 3.1528 5.29261 3.14831 5.25401 3.08551C5.02321 2.70941 4.9141 2.66971 4.3736 2.66351C3.3474 2.65171 3.62711 3.04991 3.39091 3.17791Z" fill="black"/>
<path fill-rule="evenodd" clip-rule="evenodd" d="M3.00272 4.07971L5.19741 4.08171C5.09521 3.98651 5.05051 3.96021 5.07561 3.77061L3.12111 3.77081C3.15341 3.96031 3.09302 3.98901 3.00272 4.07971Z" fill="white"/>
<path fill-rule="evenodd" clip-rule="evenodd" d="M1.923 5.39201C1.9526 5.43541 2.0176 5.4596 2.0492 5.4813C2.2917 5.6477 2.3165 5.3192 2.5146 5.4584C2.6382 5.5453 2.6704 5.56241 2.8084 5.46441C2.9845 5.33981 2.9774 5.5139 3.1228 5.5254C3.2887 5.5384 3.2891 5.3786 3.4409 5.4338C3.5328 5.4672 3.58911 5.60221 3.75311 5.48411C3.93861 5.35041 3.90631 5.4541 4.04291 5.5111C4.20451 5.5785 4.222 5.4329 4.3736 5.423C4.4846 5.4635 4.54751 5.6095 4.70921 5.4772C4.89731 5.3232 4.90001 5.5308 5.06651 5.5258C5.24381 5.5208 5.20111 5.32981 5.41981 5.48271C5.60341 5.61091 5.6217 5.44121 5.7804 5.42221C5.8819 5.45581 5.88271 5.52441 5.99281 5.52591C6.10431 5.52791 6.10451 5.45871 6.20431 5.42181C6.33721 5.44251 6.32901 5.5212 6.43661 5.5252C6.50521 5.5272 6.618 5.44041 6.648 5.39161C6.641 5.38761 6.6653 5.31911 6.5331 5.43081C6.3384 5.59541 6.3263 5.2271 6.0897 5.4311C5.9496 5.552 5.91281 5.4033 5.81241 5.3771C5.63561 5.3309 5.6491 5.50631 5.4986 5.46591C5.4153 5.44361 5.35411 5.3079 5.20611 5.3952C5.06371 5.4794 5.11711 5.5277 4.92191 5.4022C4.76361 5.3002 4.7043 5.45011 4.6199 5.46931C4.4677 5.50381 4.4891 5.32981 4.303 5.37771C4.1995 5.40431 4.1751 5.54351 4.0192 5.43841C3.8754 5.34131 3.8769 5.33731 3.7281 5.44041C3.5746 5.54671 3.53881 5.3935 3.42551 5.374C3.25131 5.3442 3.25471 5.5046 3.10621 5.4694C3.02471 5.45 2.9718 5.308 2.8158 5.3948C2.6538 5.4849 2.71661 5.52511 2.53181 5.40281C2.31351 5.25821 2.2866 5.59081 2.0632 5.42811C2.05 5.41811 2.0239 5.39561 2.0051 5.38821C1.9032 5.34831 1.9365 5.38401 1.923 5.39201Z" fill="black"/>
<path fill-rule="evenodd" clip-rule="evenodd" d="M1.92351 5.68111C1.95501 5.73331 1.9584 5.70841 2.0274 5.75371C2.0646 5.77811 2.0963 5.81032 2.1592 5.81562C2.3158 5.82882 2.3108 5.69901 2.4447 5.71631C2.5392 5.72861 2.56131 5.84502 2.71001 5.81232C2.81631 5.78892 2.8489 5.65061 2.9845 5.73941C2.9949 5.74641 3.0936 5.88112 3.2451 5.78612C3.3717 5.70672 3.3622 5.66671 3.511 5.77321C3.6221 5.85271 3.6872 5.82092 3.7749 5.75672C3.9257 5.64612 3.9453 5.76071 4.0426 5.80211C4.1864 5.86361 4.22781 5.75062 4.30441 5.72362C4.45041 5.67202 4.43801 5.81281 4.58601 5.81581C4.73221 5.81881 4.71221 5.69112 4.85081 5.71912C4.94651 5.73842 4.97911 5.86321 5.12971 5.80371C5.22151 5.76741 5.2483 5.65302 5.3868 5.74642C5.4762 5.80672 5.52931 5.86712 5.65471 5.76792C5.81141 5.64392 5.8069 5.74431 5.9159 5.79811C6.052 5.86521 6.10271 5.75691 6.18501 5.71561C6.34201 5.71631 6.3135 5.81112 6.4367 5.81652C6.5108 5.81952 6.6208 5.73031 6.6471 5.68111C6.6371 5.67511 6.6491 5.62011 6.5333 5.72071C6.3416 5.88771 6.3267 5.52031 6.0897 5.72071C5.9412 5.84631 5.9228 5.69141 5.813 5.66651C5.6351 5.62611 5.64801 5.79641 5.49721 5.75691C5.41941 5.73651 5.35561 5.59601 5.20611 5.68491C5.06551 5.76851 5.12191 5.81951 4.92101 5.69191C4.76341 5.59191 4.7082 5.73881 4.6198 5.75911C4.4634 5.79501 4.4937 5.61901 4.3035 5.66751C4.2022 5.69341 4.1695 5.83561 4.0193 5.72711C3.8718 5.62071 3.8554 5.64132 3.7289 5.73012C3.5758 5.83732 3.53711 5.68312 3.42561 5.66422C3.25871 5.63602 3.24521 5.79382 3.10661 5.75832C3.02941 5.73852 2.97031 5.59821 2.81611 5.68451C2.65101 5.77681 2.7157 5.81531 2.5321 5.69251C2.3243 5.55321 2.2743 5.87341 2.0642 5.71651C2.0137 5.67881 1.98581 5.64691 1.92351 5.68111Z" fill="black"/>
<path fill-rule="evenodd" clip-rule="evenodd" d="M1.92342 5.97011C1.95142 6.01451 2.08041 6.08812 2.12601 6.09952C2.26651 6.13462 2.29561 6.03791 2.37761 6.01251C2.50921 5.97171 2.50381 6.06901 2.60881 6.09781C2.76121 6.13961 2.77771 6.04081 2.85931 6.01261C2.98671 5.96851 2.98861 6.07371 3.08971 6.09911C3.22901 6.13421 3.26012 6.03851 3.34132 6.01271C3.47302 5.97101 3.47701 6.07781 3.58891 6.10111C3.74121 6.13261 3.75742 6.03011 3.83942 6.00911C3.95132 5.98041 3.97642 6.08062 4.07082 6.10102C4.21792 6.13282 4.23561 6.02841 4.32051 6.00841C4.45271 5.97711 4.43201 6.08312 4.55081 6.10282C4.70701 6.12872 4.69831 6.02191 4.80071 6.00681C4.91341 5.99011 4.92541 6.08881 5.03191 6.10391C5.18161 6.12521 5.18161 6.01681 5.28141 6.00511C5.40111 5.99111 5.39572 6.10101 5.53072 6.10541C5.66492 6.10941 5.62901 6.02172 5.78041 6.00182C5.87591 6.03502 5.87531 6.09571 5.97481 6.10471C6.09481 6.11561 6.10411 6.04811 6.18501 6.00551C6.33371 6.00351 6.31141 6.10152 6.43611 6.10512C6.50781 6.10712 6.61781 6.02261 6.64781 5.97011C6.62081 5.95551 6.65482 5.95681 6.61052 5.96111C6.53702 5.96811 6.53271 6.03641 6.47411 6.05161C6.33271 6.05361 6.35381 5.98072 6.25511 5.95722C6.12881 5.92712 6.10521 6.01362 6.03091 6.05022C5.85641 6.06162 5.91762 5.96322 5.77882 5.95252C5.64632 5.94232 5.63291 6.05901 5.53311 6.05551C5.42091 6.05151 5.42261 5.94241 5.28141 5.95241C5.15731 5.96141 5.15591 6.08842 5.01651 6.04552C4.93671 6.02092 4.90381 5.90492 4.75521 5.96442C4.66321 6.00122 4.63821 6.11981 4.49981 6.01811C4.19401 5.79361 4.26912 6.20231 3.98692 5.99021C3.94492 5.95861 3.91932 5.94661 3.85532 5.95291C3.77912 5.96091 3.77201 5.98661 3.72811 6.01851C3.59271 6.11671 3.55291 6.00951 3.46891 5.96971C3.33131 5.90421 3.27561 6.00722 3.20461 6.03812C3.06091 6.10072 3.06241 5.97992 2.94241 5.95612C2.79711 5.92742 2.79421 6.03462 2.68731 6.05382C2.56951 6.07492 2.57082 5.96312 2.44402 5.95272C2.30132 5.94082 2.29301 6.05252 2.17681 6.05312C2.11201 6.05352 2.08652 6.02281 2.05222 5.99761C1.92382 5.90301 1.92362 5.97001 1.92342 5.97011Z" fill="black"/>
<path fill-rule="evenodd" clip-rule="evenodd" d="M1.92331 5.10302L2.14291 5.23502C2.29451 5.25862 2.29431 5.14662 2.41001 5.13642C2.53951 5.12502 2.52401 5.23211 2.65971 5.23671C2.79221 5.24171 2.78011 5.14221 2.92841 5.13491C3.02021 5.16691 3.01441 5.22662 3.12371 5.23632C3.24251 5.24692 3.25162 5.17891 3.32462 5.14911C3.51232 5.07261 3.53691 5.34912 3.75141 5.19422C3.82801 5.13902 3.85411 5.09841 3.96291 5.16611C4.02171 5.20271 4.06122 5.26282 4.16982 5.22892C4.25362 5.20282 4.27041 5.12462 4.37191 5.13732C4.45871 5.14822 4.45621 5.22452 4.56931 5.23592C4.69421 5.24862 4.69222 5.17442 4.76772 5.14632C4.88552 5.10242 4.90751 5.18001 4.97421 5.21671C5.17941 5.32961 5.19612 5.02552 5.40022 5.17492C5.65612 5.36232 5.63041 5.08091 5.80991 5.14571C5.86891 5.16701 5.90091 5.24532 6.00961 5.23572C6.10341 5.22772 6.11302 5.16491 6.20432 5.13411C6.32212 5.12281 6.37851 5.33622 6.55731 5.18662C6.58751 5.16132 6.62811 5.13642 6.64731 5.10302C6.64231 5.10002 6.64931 5.03442 6.53091 5.14042C6.48121 5.18482 6.46321 5.20851 6.37871 5.16211C6.26231 5.09811 6.24892 5.01531 6.08942 5.14241C5.94162 5.26021 5.91801 5.11481 5.81261 5.08791C5.63611 5.04301 5.64621 5.21722 5.49851 5.17702C5.41881 5.15532 5.35531 5.01952 5.20531 5.10592C5.15071 5.13732 5.14561 5.18042 5.06671 5.18302C4.99401 5.18502 4.96501 5.13871 4.92271 5.11231C4.76041 5.01081 4.70452 5.15991 4.61942 5.17971C4.46962 5.21451 4.48151 5.04312 4.30271 5.08802C4.19381 5.11542 4.17581 5.25451 4.02021 5.14821C3.86271 5.04061 3.84711 5.06671 3.72721 5.15021C3.57361 5.25741 3.54111 5.10532 3.42581 5.08512C3.24581 5.05362 3.25431 5.21572 3.10651 5.17992C3.02481 5.16012 2.97621 5.01602 2.81481 5.10482C2.65541 5.19242 2.71871 5.24121 2.53061 5.11521C2.31051 4.96781 2.29111 5.29572 2.06481 5.13712C1.92521 5.03942 1.93211 5.09782 1.92331 5.10302Z" fill="black"/>
<path fill-rule="evenodd" clip-rule="evenodd" d="M1.92281 4.81391L2.0398 4.89332C2.2804 5.05962 2.28631 4.80372 2.46091 4.85062C2.54101 4.87222 2.5945 4.99152 2.7377 4.93192C2.8335 4.89212 2.86471 4.78222 2.99451 4.88172C3.07781 4.94552 3.14841 4.98842 3.26431 4.89992C3.41261 4.78662 3.42061 4.85391 3.53671 4.91921C3.67131 4.99501 3.73281 4.90762 3.80901 4.86442C3.93201 4.79472 3.97741 4.91981 4.07281 4.94181C4.21291 4.97401 4.2445 4.85532 4.3409 4.84362C4.4516 4.83022 4.4518 4.95482 4.6032 4.94622C4.7459 4.93822 4.73001 4.79262 4.88371 4.85862C4.96311 4.89282 5.00831 5.01261 5.16521 4.91211C5.28021 4.83831 5.27561 4.80242 5.40961 4.89542C5.53021 4.97912 5.5704 4.96372 5.675 4.88122C5.797 4.78492 5.8309 4.88521 5.9175 4.92771C6.0597 4.99671 6.10261 4.88012 6.20431 4.84162C6.35101 4.86582 6.3154 4.94422 6.4363 4.94672C6.5103 4.94872 6.54551 4.90792 6.61881 4.84322C6.64491 4.82012 6.62881 4.84021 6.64851 4.81391C6.63441 4.80491 6.6763 4.77261 6.5832 4.80591C6.5151 4.83001 6.50741 4.94522 6.37771 4.87382C6.26011 4.80902 6.24871 4.72382 6.08961 4.85352C5.94781 4.96912 5.91081 4.82542 5.81261 4.79882C5.63721 4.75142 5.6477 4.92981 5.4994 4.88721C5.4194 4.86431 5.35731 4.72821 5.20641 4.81821C5.03901 4.91801 5.1023 4.93772 4.9229 4.82322C4.7632 4.72172 4.705 4.86911 4.6191 4.88921C4.4725 4.92351 4.4759 4.75192 4.3028 4.79842C4.2042 4.82492 4.1659 4.96261 4.0203 4.85901C3.8563 4.74231 3.83481 4.78482 3.72601 4.86002C3.57731 4.96302 3.5442 4.81621 3.426 4.79491C3.2472 4.76281 3.2566 4.92292 3.107 4.88952C3.0174 4.86952 2.97391 4.72662 2.81561 4.81632C2.66291 4.90282 2.71801 4.95042 2.53181 4.82532C2.30821 4.67462 2.2893 5.01281 2.0651 4.84841C1.9186 4.74091 1.92641 4.81171 1.92281 4.81391Z" fill="black"/>
<path fill-rule="evenodd" clip-rule="evenodd" d="M3.6515 3.17821L4.3119 3.17722L4.3129 2.78731C4.2031 2.77151 3.91391 2.77721 3.82171 2.81581C3.74031 2.84991 3.6688 3.06531 3.6515 3.17821Z" fill="white"/>
<path fill-rule="evenodd" clip-rule="evenodd" d="M4.4101 3.17821L5.107 3.17792C5.081 3.08862 4.95891 2.87511 4.90211 2.83841C4.81921 2.78481 4.52771 2.78801 4.40981 2.77931L4.4101 3.17821Z" fill="white"/>
</svg>
