<svg width="17" height="28" viewBox="0 0 17 28" fill="none" xmlns="http://www.w3.org/2000/svg">
<path fill-rule="evenodd" clip-rule="evenodd" d="M6 4.2374C2.6868 4.2374 0 6.9242 0 10.2374C0 13.5505 2.6868 16.2373 6 16.2373C9.3131 16.2373 11.9999 13.5505 11.9999 10.2374C11.9999 6.9242 9.3131 4.2374 6 4.2374ZM1.2 10.2374C1.2 7.5869 3.3495 5.4374 6 5.4374C8.6504 5.4374 10.7999 7.5869 10.7999 10.2374C10.7999 12.8879 8.6504 15.0373 6 15.0373C3.3495 15.0373 1.2 12.8879 1.2 10.2374Z" fill="#FF0000"/>
<path fill-rule="evenodd" clip-rule="evenodd" d="M5.44049 9.1322L7.04669 10.808C7.78669 10.4065 8.5966 9.7407 8.5966 8.5832C8.7798 8.6269 9.02239 8.8432 9.16029 8.8432H9.1884C9.2965 8.8432 9.3857 8.7599 9.3857 8.6699V8.5832C9.3857 8.4569 8.84129 7.6081 8.74359 7.4502C8.65179 7.3018 8.14739 6.3873 8.03299 6.3873C7.91649 6.3873 7.40459 7.2944 7.31929 7.4469C7.22029 7.6239 6.68039 8.4239 6.68039 8.5543V8.641C6.68039 8.7384 6.73019 8.8432 6.82129 8.8432H6.93399C6.97869 8.8432 7.34429 8.6131 7.46939 8.5832V8.7277C7.46939 9.19 6.63509 9.8289 6.28589 9.9123V6.3873H5.44049V9.1322Z" fill="black"/>
<path fill-rule="evenodd" clip-rule="evenodd" d="M6.2274 11.4789L4.9875 10.1498C4.2876 10.5295 3.52209 11.6803 3.52209 12.808V13.9637H4.62109V12.9236C4.62109 12.2661 5.0052 11.5353 5.382 11.2766V13.9926H6.2274V11.4789Z" fill="black"/>
<path fill-rule="evenodd" clip-rule="evenodd" d="M9.328 14.7446L10.1968 13.9168L2.4503 5.7856L1.58139 6.6133L9.328 14.7446Z" fill="#FF0000" stroke="#FF0000" stroke-width="0.0027"/>
</svg>
