<svg width="12" height="12" viewBox="0 0 12 12" fill="none" xmlns="http://www.w3.org/2000/svg">
<path fill-rule="evenodd" clip-rule="evenodd" d="M0.263025 5.36255L5.36252 0.26295C5.71322 -0.08765 6.28692 -0.08765 6.63732 0.26295L11.7371 5.36255C12.0874 5.71315 12.0874 6.28685 11.7371 6.63755L6.63732 11.7371C6.28692 12.0878 5.71322 12.0878 5.36252 11.7371L0.263025 6.63755C-0.087675 6.28685 -0.087675 5.71315 0.263025 5.36255Z" fill="#FFEC00"/>
<path fill-rule="evenodd" clip-rule="evenodd" d="M0.365411 5.52055L5.52061 0.365349C5.65251 0.233449 5.82631 0.16745 6.00001 0.16745C6.17371 0.16745 6.34751 0.233449 6.47951 0.365349L11.6347 5.52055C11.7666 5.65255 11.8326 5.82635 11.8326 6.00005C11.8326 6.17375 11.7666 6.34755 11.6347 6.47945L6.47951 11.6347C6.34751 11.7667 6.17371 11.8326 6.00001 11.8326C5.82631 11.8326 5.65251 11.7667 5.52061 11.6347L0.365411 6.47945C0.233411 6.34755 0.167511 6.17375 0.167511 6.00005C0.167511 5.82635 0.233411 5.65255 0.365411 5.52055ZM5.71181 0.556549L0.556611 5.71175C0.477511 5.79085 0.437911 5.89545 0.437911 6.00005C0.437911 6.10465 0.477511 6.20915 0.556611 6.28825L5.71181 11.4435C5.79091 11.5226 5.89541 11.5621 6.00001 11.5621C6.10461 11.5621 6.20921 11.5226 6.28831 11.4435L11.4435 6.28825C11.5226 6.20915 11.5622 6.10465 11.5622 6.00005C11.5622 5.89545 11.5226 5.79085 11.4435 5.71175L6.28831 0.556549C6.20921 0.477449 6.10461 0.437851 6.00001 0.437851C5.89541 0.437851 5.79091 0.477449 5.71181 0.556549Z" fill="black"/>
<path fill-rule="evenodd" clip-rule="evenodd" d="M5.17902 8.41845L5.50082 7.80145V4.21325L5.20412 3.64445L4.86732 2.99865L4.01862 3.44985L4.53772 4.44505V7.56955L4.02522 8.55205L4.87392 9.00325L5.17902 8.41845Z" fill="black"/>
<path fill-rule="evenodd" clip-rule="evenodd" d="M6.82113 8.41655L6.49933 7.79955V4.21135L6.79593 3.64265L7.13283 2.99675L7.98153 3.44795L7.46243 4.44315V7.56775L7.97483 8.55025L7.12613 9.00145L6.82113 8.41655Z" fill="black"/>
</svg>
