<svg width="28" height="31" viewBox="0 0 28 31" fill="none" xmlns="http://www.w3.org/2000/svg">
<path fill-rule="evenodd" clip-rule="evenodd" d="M5.9999 4.2374C2.6868 4.2374 0 6.9242 0 10.2374C0 13.5505 2.6868 16.2373 5.9999 16.2373C9.313 16.2373 11.9999 13.5505 11.9999 10.2374C11.9999 6.9242 9.313 4.2374 5.9999 4.2374ZM1.2 10.2374C1.2 7.5869 3.3494 5.4374 5.9999 5.4374C8.6504 5.4374 10.7999 7.5869 10.7999 10.2374C10.7999 12.8879 8.6504 15.0373 5.9999 15.0373C3.3494 15.0373 1.2 12.8879 1.2 10.2374Z" fill="#FF0000"/>
<path fill-rule="evenodd" clip-rule="evenodd" d="M3.8999 13.5373H8.09991V12.4244H5.0144V10.6236H7.7905V9.51069H5.0144V8.05029H7.9968V6.93739H3.8999V13.5373Z" fill="black"/>
<path fill-rule="evenodd" clip-rule="evenodd" d="M9.5463 14.6323L10.3948 13.7837L2.4536 5.8425L1.605 6.691L9.5463 14.6323Z" fill="#FF0000" stroke="#FF0000" stroke-width="0.0027"/>
</svg>
