<svg width="12" height="12" viewBox="0 0 12 12" fill="none" xmlns="http://www.w3.org/2000/svg">
<path fill-rule="evenodd" clip-rule="evenodd" d="M0.263025 5.36253L5.36253 0.263025C5.71323 -0.087675 6.28692 -0.087675 6.63732 0.263025L11.7371 5.36253C12.0874 5.71313 12.0874 6.28692 11.7371 6.63752L6.63732 11.737C6.28692 12.0877 5.71323 12.0877 5.36253 11.737L0.263025 6.63752C-0.087675 6.28692 -0.087675 5.71313 0.263025 5.36253Z" fill="#FFEC00"/>
<path fill-rule="evenodd" clip-rule="evenodd" d="M0.365433 5.52052L5.52063 0.365425C5.65253 0.233425 5.82633 0.167427 6.00003 0.167427C6.17373 0.167427 6.34754 0.233425 6.47954 0.365425L11.6347 5.52052C11.7666 5.65252 11.8326 5.82632 11.8326 6.00002C11.8326 6.17372 11.7666 6.34752 11.6347 6.47952L6.47954 11.6346C6.34754 11.7666 6.17373 11.8326 6.00003 11.8326C5.82633 11.8326 5.65253 11.7666 5.52063 11.6346L0.365433 6.47952C0.233433 6.34752 0.167435 6.17372 0.167435 6.00002C0.167435 5.82632 0.233433 5.65252 0.365433 5.52052ZM5.71184 0.556625L0.556625 5.71172C0.477525 5.79092 0.437927 5.89542 0.437927 6.00002C0.437927 6.10462 0.477525 6.20912 0.556625 6.28832L5.71184 11.4434C5.79094 11.5226 5.89543 11.5622 6.00003 11.5622C6.10463 11.5622 6.20923 11.5226 6.28833 11.4434L11.4435 6.28832C11.5226 6.20912 11.5622 6.10462 11.5622 6.00002C11.5622 5.89542 11.5226 5.79092 11.4435 5.71172L6.28833 0.556625C6.20923 0.477425 6.10463 0.43792 6.00003 0.43792C5.89543 0.43792 5.79094 0.477425 5.71184 0.556625Z" fill="black"/>
<path fill-rule="evenodd" clip-rule="evenodd" d="M7.27861 5.11592C7.31281 5.00272 7.32742 4.91772 7.29322 4.80462C7.09382 4.32142 6.85051 3.90842 6.56311 3.36432C6.47061 3.20502 6.27062 3.16752 6.08522 3.35532C5.71862 3.80722 5.34223 4.25902 4.97573 4.71082C4.96973 4.91272 5.07592 5.06312 5.34352 4.92302C5.59872 4.63432 5.74171 4.41592 5.99701 4.12722C6.09521 4.35312 6.21291 4.57902 6.31111 4.80502C6.38431 4.93182 6.27672 4.98372 6.23262 5.03092C5.92502 5.15642 5.60753 5.31002 5.32923 5.44962C5.27713 5.56252 5.28851 5.65212 5.36351 5.75572C5.55331 6.08832 5.69923 6.37402 5.88903 6.70662C5.97893 6.75822 6.03952 6.72552 6.10492 6.74442C6.05252 6.88242 6.03441 6.99712 5.98201 7.13512C6.03001 7.44622 6.25383 7.43872 6.45333 7.30942C6.76093 6.55652 6.97581 5.92032 7.27861 5.11592ZM5.90902 5.74072C6.07272 5.65832 6.20952 5.59922 6.50902 5.47852C6.55892 5.45832 6.59043 5.46842 6.57923 5.49702C6.53853 5.60182 6.35682 6.09262 6.25522 6.38332C6.08392 6.06942 6.04652 5.99112 5.90902 5.74072Z" fill="black"/>
<path fill-rule="evenodd" clip-rule="evenodd" d="M5.74603 3.28102C6.01753 3.28102 6.23893 3.06873 6.23893 2.80843C6.23893 2.54823 6.01753 2.33592 5.74603 2.33592C5.47453 2.33592 5.25303 2.54823 5.25303 2.80843C5.25303 3.06873 5.47453 3.28102 5.74603 3.28102Z" fill="black"/>
<path fill-rule="evenodd" clip-rule="evenodd" d="M5.34882 5.90733C5.21192 5.78343 5.21313 5.78292 4.76333 5.37212C4.96863 5.37512 5.00583 5.37182 5.26933 5.37012C5.32153 5.33832 5.37433 5.29373 5.42123 5.25253C5.22713 5.25553 5.09482 5.25312 4.84122 5.25652C4.90032 5.17022 4.92632 5.13263 5.00512 5.01653C5.00212 5.01453 4.91893 4.96593 4.90443 4.95853C4.84373 5.04503 4.71973 5.22792 4.61683 5.37812C4.54083 5.48902 4.48112 5.57132 4.46612 5.59512C4.28952 5.49242 4.11373 5.44623 3.90513 5.44273C3.32263 5.43273 2.86593 5.89033 2.86593 6.43903C2.86593 6.98773 3.33273 7.43523 3.90513 7.43523C4.47743 7.43523 4.93863 6.98233 4.94433 6.43903C4.94733 6.13443 4.82152 5.86892 4.56422 5.65762C4.61502 5.58882 4.61952 5.57993 4.69402 5.47153C4.96652 5.71193 5.03343 5.77823 5.43873 6.13773C5.38413 5.99143 5.40602 6.04733 5.34882 5.90733ZM4.49093 5.76902C4.69163 5.92902 4.81362 6.17103 4.81362 6.43983C4.81362 6.91953 4.40553 7.31082 3.90513 7.31082C3.40463 7.31082 2.99653 6.91953 2.99653 6.43983C2.99653 5.96003 3.40463 5.56882 3.90513 5.56882C4.07323 5.56882 4.25692 5.63073 4.39652 5.70013C4.20142 5.98323 4.17093 6.03352 3.98823 6.29762C3.91953 6.29262 3.83562 6.29062 3.77442 6.37612C3.65422 6.54462 3.94232 6.76142 4.08022 6.57672C4.13002 6.50992 4.10802 6.41343 4.08422 6.35873C4.26662 6.09393 4.32753 5.99882 4.49093 5.76902Z" fill="black"/>
<path fill-rule="evenodd" clip-rule="evenodd" d="M8.17812 5.51373C7.95842 5.51373 7.78672 5.56032 7.58852 5.69412C7.47512 5.55192 7.47293 5.54872 7.33413 5.37202C7.31963 5.42512 7.31502 5.46723 7.29842 5.53603C7.38032 5.64463 7.40763 5.67623 7.48223 5.77763C7.28053 5.96423 7.18862 6.17802 7.18342 6.44322C7.08832 6.44382 7.06022 6.44343 6.93482 6.44283C6.92272 6.49003 6.92262 6.49982 6.90662 6.56362C7.02542 6.56562 7.05602 6.56562 7.18232 6.56562C7.21992 7.06472 7.65422 7.45163 8.17812 7.45123C8.73222 7.45073 9.18333 7.01602 9.18333 6.48242C9.18333 5.94882 8.72942 5.51373 8.17812 5.51373ZM7.67263 5.80982C7.81863 5.70572 7.99033 5.64772 8.18603 5.64632C8.66773 5.64332 9.06052 6.02022 9.06052 6.47872C9.06052 6.93712 8.66773 7.31102 8.18603 7.31102C7.73443 7.31102 7.36092 6.98032 7.31602 6.56322C7.53022 6.56232 7.77293 6.56522 7.94793 6.56372C8.06943 6.72612 8.22013 6.65412 8.26443 6.57072C8.30463 6.49482 8.28622 6.35353 8.08962 6.34863C7.91892 6.10963 7.87863 6.07032 7.67263 5.80982ZM7.56422 5.88503C7.74272 6.10913 7.77602 6.15352 8.00062 6.44662C7.76802 6.44562 7.65292 6.44463 7.31602 6.44463C7.29802 6.29873 7.40092 6.02483 7.56422 5.88503Z" fill="black"/>
<path fill-rule="evenodd" clip-rule="evenodd" d="M1.97703 6.33872V5.82122H1.53072V6.33872H1.97703Z" fill="black"/>
<path fill-rule="evenodd" clip-rule="evenodd" d="M2.41582 5.82122V6.33872H2.68832C2.67242 6.14142 2.68633 6.00512 2.86213 5.82122H2.41582Z" fill="black"/>
<path fill-rule="evenodd" clip-rule="evenodd" d="M9.13802 5.82122C9.31412 6.00512 9.32772 6.14142 9.31182 6.33872H9.58433V5.82122H9.13802Z" fill="black"/>
<path fill-rule="evenodd" clip-rule="evenodd" d="M10.0231 5.82122V6.33872H10.4694V5.82122H10.0231Z" fill="black"/>
<path fill-rule="evenodd" clip-rule="evenodd" d="M4.26742 8.65363V8.13612H3.82113V8.65363H4.26742Z" fill="black"/>
<path fill-rule="evenodd" clip-rule="evenodd" d="M4.66253 8.13612V8.65363H5.10882V8.13612H4.66253Z" fill="black"/>
<path fill-rule="evenodd" clip-rule="evenodd" d="M5.47863 8.13612V8.65363H5.92492V8.13612H5.47863Z" fill="black"/>
<path fill-rule="evenodd" clip-rule="evenodd" d="M6.29932 8.13612V8.65363H6.74563V8.13612H6.29932Z" fill="black"/>
<path fill-rule="evenodd" clip-rule="evenodd" d="M7.14072 8.13612V8.65363H7.58703V8.13612H7.14072Z" fill="black"/>
<path fill-rule="evenodd" clip-rule="evenodd" d="M7.95683 8.13612V8.65363H8.40313V8.13612H7.95683Z" fill="black"/>
</svg>
