<svg width="12" height="12" viewBox="0 0 12 12" fill="none" xmlns="http://www.w3.org/2000/svg">
<path fill-rule="evenodd" clip-rule="evenodd" d="M7.654 6.05849C7.7262 6.05349 7.7466 6.01159 7.7909 5.96919C7.8312 5.93079 7.8663 5.89939 7.8981 5.85379C7.9408 5.82489 7.9662 5.79099 7.9925 5.75409C8.027 5.71199 8.0752 5.66739 8.1136 5.62559C8.183 5.55029 8.192 5.52129 8.2597 5.51629C8.2929 5.54939 8.2911 5.55569 8.3176 5.60939C8.3587 5.69259 8.3345 5.65369 8.4062 5.68459C8.4057 5.74929 8.4019 5.76989 8.4257 5.82139C8.4622 5.90699 8.5484 6.00129 8.5209 6.10629C8.5071 6.15739 8.3561 6.27839 8.302 6.32429L8.0986 6.50369C8.0728 6.53059 8.0885 6.51019 8.0699 6.54139C8.0335 6.55179 7.8918 6.67169 7.8857 6.78969C7.8787 6.92299 7.9504 7.01969 8.001 7.11779C8.104 7.31749 8.2082 7.50549 8.3082 7.70329C8.3587 7.80309 8.3987 7.9189 8.5573 7.87C8.6522 7.8408 8.7602 7.74059 8.7137 7.61049C8.6957 7.56009 8.4274 7.05049 8.4083 7.03069C8.367 6.88869 8.3622 6.84079 8.4614 6.75259C8.5326 6.68909 8.5891 6.64129 8.6597 6.58259C8.8501 6.42459 8.8318 6.47269 8.991 6.82169C9.0664 6.98699 9.4037 7.76609 9.4553 7.84529C9.559 8.00409 9.89 7.86749 9.8023 7.61109L9.3333 6.57829C9.2513 6.39799 9.1799 6.27419 9.1111 6.08249C9.0684 5.98429 9.0865 5.69439 9.0349 5.61079C9.0386 5.47219 8.9699 4.96999 8.92 4.86609C8.8276 4.67359 8.5469 4.58329 8.3216 4.71409C8.2562 4.75209 8.1682 4.88089 8.1139 4.94579L7.7166 5.42679C7.5613 5.62959 7.6902 5.57259 7.5856 5.61809C7.5254 5.64429 7.5669 5.60909 7.5205 5.66019C7.4613 5.71499 7.3715 5.81559 7.4169 5.94319C7.4343 5.99219 7.4676 6.02499 7.5124 6.04639C7.5537 6.06609 7.6175 6.09399 7.654 6.05849ZM8.2939 3.92749C7.8541 4.03799 8.0265 4.68469 8.4613 4.57079C8.8626 4.46569 8.7285 3.81829 8.2939 3.92749Z" fill="black"/>
<path fill-rule="evenodd" clip-rule="evenodd" d="M6 1.25C8.6229 1.25 10.7499 3.3771 10.7499 6C10.7499 8.6228 8.6229 10.7499 6 10.7499C3.3771 10.7499 1.25 8.6228 1.25 6C1.25 3.3771 3.3771 1.25 6 1.25ZM11.9999 6C11.9999 2.6868 9.3131 0 6 0C2.6869 0 0 2.6868 0 6C0 9.3131 2.6869 11.9999 6 11.9999C9.3131 11.9999 11.9999 9.3131 11.9999 6Z" fill="#FF0000"/>
<path fill-rule="evenodd" clip-rule="evenodd" d="M2.94931 6.4128C2.94161 6.3802 2.92361 6.3655 2.95461 6.3559L2.92361 6.35939L2.89641 6.41199L2.94931 6.4128Z" fill="black"/>
<path fill-rule="evenodd" clip-rule="evenodd" d="M3.6503 6.2628C3.7838 6.1127 3.9784 6.0182 4.195 6.0182C4.3537 6.0182 4.5005 6.0689 4.6202 6.1551L3.6503 6.2628ZM5.1395 6.4421L5.7605 6.3731L6.397 6.8876L6.471 7.4949H6.6254L6.5683 7.0261L6.5417 6.8074L6.479 6.2933L7.31 6.2009V5.8563L4.9618 6.1171C4.7798 5.8958 4.5039 5.7547 4.195 5.7547C3.8075 5.7547 3.4718 5.9769 3.3085 6.3008L2.0307 6.4427V6.7874L3.2068 6.6568C3.2042 6.6864 3.2028 6.7165 3.2028 6.7469C3.2028 7.2948 3.647 7.739 4.195 7.739C4.743 7.739 5.1872 7.2948 5.1872 6.7469C5.1872 6.6405 5.1704 6.5381 5.1395 6.4421ZM5.9749 6.3493L6.3266 6.3102L6.3704 6.6689L5.9749 6.3493ZM4.0034 6.5683C3.9597 6.6151 3.9331 6.6778 3.9331 6.7469C3.9331 6.8915 4.0503 7.0088 4.195 7.0088C4.3397 7.0088 4.4569 6.8915 4.4569 6.7469C4.4569 6.657 4.4117 6.5778 4.3428 6.5306L4.87 6.472C4.9046 6.5568 4.9236 6.6496 4.9236 6.7469C4.9236 7.1493 4.5974 7.4755 4.195 7.4755C3.7926 7.4755 3.4663 7.1493 3.4663 6.7469C3.4663 6.706 3.4697 6.6659 3.4762 6.6268L4.0034 6.5683Z" fill="black"/>
<path fill-rule="evenodd" clip-rule="evenodd" d="M2.09669 2.9453L2.94539 2.09669L9.90329 9.05459L9.05459 9.90329L2.09669 2.9453Z" fill="#FF0000"/>
</svg>
