<svg width="12" height="12" viewBox="0 0 12 12" fill="none" xmlns="http://www.w3.org/2000/svg">
<path fill-rule="evenodd" clip-rule="evenodd" d="M5.70279 5.5964L5.5134 4.6864H5.36659V4.6091H2.55939V4.6598H2.38069L2.17789 5.6284L1.88969 5.8312L2.1245 6.6584H1.89499V6.8105V7.016H2.21519V7.1174V7.2215V7.3229L2.2182 7.4243V7.5096V7.5123V7.5176V7.5203V7.523V7.5283L2.22319 7.547L2.23659 7.5657L2.24989 7.5764L2.2686 7.5844V7.587H2.4847H2.4877H2.49069V7.5844L2.5067 7.5764L2.52269 7.5657L2.5334 7.5497L2.5414 7.531V7.5257H2.54439V7.5203V7.5096V7.2108V7.2028V7.024L2.54739 7.016H3.5L3.55609 7.0907L3.6281 7.2001H3.63879V7.2028H4.31119L4.40729 7.0587L4.4366 7.016L5.39189 7.0187L5.3949 7.0267V7.2054V7.2134V7.5123V7.523V7.5283H5.39789V7.5337L5.4059 7.5523L5.4166 7.5683L5.43259 7.579L5.44859 7.587V7.5897H5.4516H5.45459H5.67079V7.587L5.68939 7.579L5.7054 7.5657L5.71609 7.547L5.7211 7.5257V7.523L5.72409 7.5123V7.507V7.4269V7.3255V7.2215V7.1174V7.016H6.04169V7.0133H6.04469V6.8078V6.6611H5.81529L6.05009 5.8339L5.7112 5.5964L5.70819 5.5991V5.5964H5.70279ZM5.31329 4.8332L5.47339 5.5964H4.9744L4.97139 5.5937H2.41769L2.5752 4.8332H5.31329Z" fill="black"/>
<path fill-rule="evenodd" clip-rule="evenodd" d="M10.047 5.6151L9.85489 4.7051H9.70819V4.6277H6.901V4.6784H6.7249L6.51939 5.6498L6.2312 5.8499L6.46599 6.6771H6.2392V6.8292H6.23619L6.2392 7.0347L6.5567 7.0373V7.1387L6.55969 7.2401V7.3415V7.4429V7.5283V7.531V7.5363V7.539V7.5417V7.547L6.56769 7.5657L6.5784 7.5844L6.59439 7.595L6.6104 7.603V7.6057H6.8266H6.82959H6.8326H6.8356L6.85159 7.5977L6.8676 7.5844L6.8783 7.5683L6.8833 7.5497L6.88629 7.5443V7.539V7.5283V7.2295V7.2215V7.0427L6.8893 7.0373L7.842 7.0347L7.89799 7.1094L7.97 7.2188H7.9807V7.2215H8.65579L8.74919 7.0774L8.78119 7.0347L9.73389 7.0373L9.73689 7.0453V7.2241V7.2321V7.531L9.7399 7.5417V7.547V7.5523L9.74789 7.571L9.75859 7.587L9.7746 7.5977L9.79059 7.6057V7.6084H9.79359H9.7966H10.0128L10.0158 7.6057L10.0318 7.5977L10.0478 7.5844L10.0584 7.5657L10.0634 7.5443L10.0664 7.5417V7.539V7.5337V7.531V7.5283V7.4456V7.3442V7.2401V7.1387V7.0347H10.3866V6.8265V6.6798H10.1571L10.3919 5.8526L10.053 5.6151H10.047ZM9.6548 4.8519L9.8149 5.6151H9.31589L9.3129 5.6124H6.7592L6.9193 4.8519H9.6548Z" fill="black"/>
<path fill-rule="evenodd" clip-rule="evenodd" d="M1.2 6C1.2 3.349 3.34899 1.2 5.99989 1.2C8.65089 1.2 10.7999 3.349 10.7999 6C10.7999 8.6509 8.65089 10.7999 5.99989 10.7999C3.34899 10.7999 1.2 8.6509 1.2 6ZM11.9999 6C11.9999 2.6863 9.31359 0 5.99989 0C2.68619 0 0 2.6863 0 6C0 9.3136 2.68619 11.9999 5.99989 11.9999C9.31359 11.9999 11.9999 9.3136 11.9999 6Z" fill="#FF0000"/>
<path fill-rule="evenodd" clip-rule="evenodd" d="M1.9693 2.81811L2.81799 1.96941L10.0305 9.18191L9.18179 10.0305L1.9693 2.81811Z" fill="#FF0000"/>
</svg>
