<svg width="180" height="30" viewBox="0 0 180 30" fill="none" xmlns="http://www.w3.org/2000/svg">
<path fill-rule="evenodd" clip-rule="evenodd" d="M25.6144 17.5503C22.3013 17.5503 19.6144 20.2372 19.6144 23.5503C19.6144 26.8634 22.3013 29.5502 25.6144 29.5502C28.9275 29.5502 31.6143 26.8634 31.6143 23.5503C31.6143 20.2372 28.9275 17.5503 25.6144 17.5503ZM20.8144 23.5503C20.8144 20.8998 22.9639 18.7503 25.6144 18.7503C28.2649 18.7503 30.4143 20.8998 30.4143 23.5503C30.4143 26.2008 28.2649 28.3502 25.6144 28.3502C22.9639 28.3502 20.8144 26.2008 20.8144 23.5503Z" fill="#FF0000"/>
<path fill-rule="evenodd" clip-rule="evenodd" d="M29.4412 21.3426H24.8878V24.3437H29.4412V21.3426Z" fill="black"/>
<path fill-rule="evenodd" clip-rule="evenodd" d="M28.841 24.9439L28.838 24.8848L28.8306 24.8271L28.8158 24.7695L28.7951 24.7148L28.77 24.6616L28.7404 24.6113L28.705 24.564L28.665 24.5196L28.6222 24.4797L28.5749 24.4457L28.5246 24.4147L28.4714 24.3895L28.4152 24.3703L28.359 24.3555L28.2999 24.3467L28.2408 24.3437L28.1831 24.3467L28.124 24.3555L28.0678 24.3703L28.0116 24.3895L27.9584 24.4147L27.9081 24.4457L27.8608 24.4797L27.8165 24.5196L27.778 24.564L27.7425 24.6113L27.713 24.6616L27.6878 24.7148L27.6672 24.7695L27.6524 24.8271L27.645 24.8848L27.642 24.9439L27.645 25.0031L27.6524 25.0607L27.6672 25.1184L27.6878 25.1731L27.713 25.2263L27.7425 25.278L27.778 25.3253L27.8165 25.3682L27.8608 25.4081L27.9081 25.4436L27.9584 25.4732L28.0116 25.4983L28.0678 25.519L28.124 25.5323L28.1831 25.5412L28.2408 25.5442L28.2999 25.5412L28.359 25.5323L28.4152 25.519L28.4714 25.4983L28.5246 25.4732L28.5749 25.4436L28.6222 25.4081L28.665 25.3682L28.705 25.3253L28.7404 25.278L28.77 25.2263L28.7951 25.1731L28.8158 25.1184L28.8306 25.0607L28.838 25.0031L28.841 24.9439Z" fill="black"/>
<path fill-rule="evenodd" clip-rule="evenodd" d="M27.5001 24.9439L27.4971 24.8848L27.4883 24.8271L27.475 24.7695L27.4543 24.7148L27.4291 24.6616L27.3996 24.6113L27.3641 24.564L27.3242 24.5196L27.2813 24.4797L27.234 24.4457L27.1837 24.4147L27.1305 24.3895L27.0743 24.3703L27.0182 24.3555L26.959 24.3467L26.8999 24.3437L26.8422 24.3467L26.7831 24.3555L26.7269 24.3703L26.6707 24.3895L26.6175 24.4147L26.5672 24.4457L26.5199 24.4797L26.4756 24.5196L26.4372 24.564L26.4017 24.6113L26.3706 24.6616L26.3455 24.7148L26.3263 24.7695L26.3115 24.8271L26.3026 24.8848L26.3011 24.9439L26.3026 25.0031L26.3115 25.0607L26.3263 25.1184L26.3455 25.1731L26.3706 25.2263L26.4017 25.278L26.4372 25.3253L26.4756 25.3682L26.5199 25.4081L26.5672 25.4436L26.6175 25.4732L26.6707 25.4983L26.7269 25.519L26.7831 25.5323L26.8422 25.5412L26.8999 25.5442L26.959 25.5412L27.0182 25.5323L27.0743 25.519L27.1305 25.4983L27.1837 25.4732L27.234 25.4436L27.2813 25.4081L27.3242 25.3682L27.3641 25.3253L27.3996 25.278L27.4291 25.2263L27.4543 25.1731L27.475 25.1184L27.4883 25.0607L27.4971 25.0031L27.5001 24.9439Z" fill="black"/>
<path fill-rule="evenodd" clip-rule="evenodd" d="M23.442 24.9439L23.439 24.8848L23.4302 24.8271L23.4154 24.7695L23.3962 24.7148L23.371 24.6616L23.34 24.6113L23.306 24.564L23.2661 24.5196L23.2217 24.4797L23.1744 24.4457L23.1241 24.4147L23.0709 24.3895L23.0162 24.3703L22.9586 24.3555L22.9009 24.3467L22.8418 24.3437L22.7826 24.3467L22.725 24.3555L22.6673 24.3703L22.6126 24.3895L22.5594 24.4147L22.5077 24.4457L22.4604 24.4797L22.4175 24.5196L22.3776 24.564L22.3421 24.6113L22.3125 24.6616L22.2874 24.7148L22.2682 24.7695L22.2534 24.8271L22.2445 24.8848L22.2416 24.9439L22.2445 25.0031L22.2534 25.0607L22.2682 25.1184L22.2874 25.1731L22.3125 25.2263L22.3421 25.278L22.3776 25.3253L22.4175 25.3682L22.4604 25.4081L22.5077 25.4436L22.5594 25.4732L22.6126 25.4983L22.6673 25.519L22.725 25.5323L22.7826 25.5412L22.8418 25.5442L22.9009 25.5412L22.9586 25.5323L23.0162 25.519L23.0709 25.4983L23.1241 25.4732L23.1744 25.4436L23.2217 25.4081L23.2661 25.3682L23.306 25.3253L23.34 25.278L23.371 25.2263L23.3962 25.1731L23.4154 25.1184L23.4302 25.0607L23.439 25.0031L23.442 24.9439Z" fill="black"/>
<path fill-rule="evenodd" clip-rule="evenodd" d="M23.4834 24.3437L23.4316 24.2935L23.3769 24.2476L23.3178 24.2062L23.2557 24.1693L23.1921 24.1382L23.1241 24.1116L23.0547 24.0909L22.9852 24.0776L22.9142 24.0687L22.8418 24.0658L22.7693 24.0687L22.6984 24.0776L22.6274 24.0909L22.5594 24.1116L22.4914 24.1382L22.4278 24.1693L22.3657 24.2062L22.3066 24.2476L22.2504 24.2935L22.2002 24.3437" fill="black"/>
<path fill-rule="evenodd" clip-rule="evenodd" d="M22.6289 23.1433L23.442 22.3391Z" fill="black"/>
<path fill-rule="evenodd" clip-rule="evenodd" d="M22.9896 23.1433L23.442 22.5431Z" fill="black"/>
<path fill-rule="evenodd" clip-rule="evenodd" d="M23.4446 24.8845L23.4475 24.9437L23.4446 25.0033L23.4356 25.0615L23.4207 25.1197L23.4014 25.1749L23.376 25.2287L23.3447 25.2809L23.3104 25.3286L23.2701 25.372L23.2254 25.4123L23.1777 25.448L23.1269 25.4779L23.0733 25.5033L23.0182 25.5242L22.9598 25.5377L22.9017 25.5467L22.842 25.5497L22.7824 25.5467L22.7242 25.5378L22.6661 25.5244L22.6107 25.5035L22.557 25.4782L22.5049 25.4484L22.457 25.4126L22.4137 25.3722L22.3735 25.3291L22.3377 25.2814L22.3077 25.229L22.2824 25.1754L22.263 25.1202L22.248 25.0621L22.239 25.0039L22.236 24.9442L22.239 24.8845L22.2479 24.8263L22.2628 24.7681L22.2822 24.713L22.3075 24.6592L22.3373 24.6085L22.3732 24.5607L22.4134 24.5159L22.4566 24.4757L22.5044 24.4412L22.5566 24.41L22.6103 24.3846L22.6655 24.3651L22.7236 24.3502L22.7818 24.3412L22.8415 24.3382L22.9012 24.3411L22.9594 24.3501L23.0176 24.365L23.0727 24.3843L23.1265 24.4097L23.1773 24.441L23.2249 24.4753L23.2697 24.5155L23.3101 24.5603L23.3444 24.6081L23.3757 24.6587L23.4011 24.7124L23.4206 24.7677L23.4355 24.8258L23.4446 24.8845Z" fill="black" stroke="#1B1918" stroke-width="0.216"/>
<path fill-rule="evenodd" clip-rule="evenodd" d="M24.8878 21.3371H29.4412H29.4467V21.3426V24.3437V24.3493H29.4412H28.3544L28.3598 24.3501L28.4166 24.365L28.4732 24.3843L28.5269 24.4097L28.5778 24.441L28.6254 24.4753L28.6688 24.5156L28.7091 24.5603L28.7449 24.608L28.7748 24.6588L28.8001 24.7124L28.821 24.7675L28.836 24.8258L28.8435 24.8841L28.8465 24.9437L28.8436 25.0033L28.8361 25.0614L28.8212 25.1197L28.8003 25.175L28.775 25.2287L28.7452 25.2808L28.7094 25.3287L28.6691 25.372L28.6259 25.4122L28.5782 25.448L28.5274 25.4779L28.4737 25.5033L28.4171 25.5242L28.3603 25.5377L28.3007 25.5467L28.241 25.5497L28.1828 25.5467L28.1232 25.5378L28.0665 25.5244L28.0097 25.5035L27.956 25.4782L27.9053 25.4484L27.8575 25.4126L27.8128 25.3723L27.7739 25.329L27.7381 25.2814L27.7082 25.229L27.6828 25.1754L27.662 25.1203L27.647 25.0621L27.6395 25.0038L27.6365 24.9442L27.6394 24.8845L27.6469 24.8264L27.6618 24.7681L27.6827 24.7129L27.708 24.6592L27.7378 24.6085L27.7736 24.5607L27.8123 24.516L27.8571 24.4756L27.9049 24.4412L27.9555 24.41L28.0093 24.3846L28.066 24.3651L28.1225 24.3502L28.1286 24.3493H27.0135L27.019 24.3501L27.0757 24.365L27.1323 24.3843L27.1861 24.4097L27.2369 24.441L27.2845 24.4753L27.3279 24.5156L27.3682 24.5603L27.404 24.608L27.4339 24.6588L27.4593 24.7124L27.4801 24.7675L27.4937 24.8259L27.5026 24.884L27.5056 24.9437L27.5027 25.0033L27.4938 25.0615L27.4803 25.1196L27.4594 25.175L27.4341 25.2287L27.4044 25.2808L27.3685 25.3287L27.3282 25.372L27.2851 25.4122L27.2373 25.448L27.1865 25.4779L27.1328 25.5033L27.0762 25.5242L27.0194 25.5377L26.9598 25.5467L26.9001 25.5497L26.8419 25.5467L26.7823 25.5378L26.7257 25.5244L26.6689 25.5035L26.6152 25.4782L26.5645 25.4484L26.5166 25.4126L26.4719 25.3723L26.433 25.329L26.3973 25.2814L26.3659 25.2291L26.3405 25.1754L26.3211 25.1202L26.3061 25.0621L26.2971 25.0039L26.2956 24.9441L26.2971 24.8847L26.306 24.8263L26.3209 24.7681L26.3403 24.713L26.3656 24.6592L26.397 24.6084L26.4327 24.5607L26.4714 24.516L26.5162 24.4756L26.564 24.4412L26.6146 24.41L26.6684 24.3846L26.7251 24.3651L26.7817 24.3502L26.7877 24.3493H24.8878H24.8823V24.3437V21.3426V21.3371H24.8878Z" fill="black" stroke="#1B1918" stroke-width="0.216"/>
<path fill-rule="evenodd" clip-rule="evenodd" d="M24.6409 24.3437V22.3391H23.442L23.4381 22.3351L22.6266 23.1377H21.6413V23.1433H21.6358V24.3437H21.6413V24.3493H22.2002V24.3437L22.2504 24.2935L22.3066 24.2476L22.3657 24.2062L22.4278 24.1693L22.4914 24.1382L22.5594 24.1116L22.6274 24.0909L22.6984 24.0776L22.7693 24.0687L22.8418 24.0658L22.9142 24.0687L22.9852 24.0776L23.0547 24.0909L23.1241 24.1116L23.1921 24.1382L23.2557 24.1693L23.3178 24.2062L23.3769 24.2476L23.4316 24.2935L23.4834 24.3437H24.6409ZM24.3733 23.1488H22.9896V23.1433L22.9852 23.14L23.4376 22.5397L23.442 22.5431V22.5375H24.3733V22.5431H24.3789V23.1433H24.3733V23.1488Z" fill="black"/>
<path fill-rule="evenodd" clip-rule="evenodd" d="M29.1607 27.9452L30.0093 27.0966L22.068 19.1554L21.2195 20.0039L29.1607 27.9452Z" fill="#FF0000" stroke="#FF0000" stroke-width="0.0027"/>
</svg>
