<svg width="12" height="12" viewBox="0 0 12 12" fill="none" xmlns="http://www.w3.org/2000/svg">
<path fill-rule="evenodd" clip-rule="evenodd" d="M0.263025 5.36255L5.36253 0.26295C5.71323 -0.08765 6.28692 -0.08765 6.63732 0.26295L11.7371 5.36255C12.0874 5.71315 12.0874 6.28685 11.7371 6.63755L6.63732 11.7371C6.28692 12.0877 5.71323 12.0877 5.36253 11.7371L0.263025 6.63755C-0.087675 6.28685 -0.087675 5.71315 0.263025 5.36255Z" fill="#FFEC00"/>
<path fill-rule="evenodd" clip-rule="evenodd" d="M0.365433 5.52055L5.52063 0.365349C5.65253 0.233449 5.82633 0.16745 6.00003 0.16745C6.17373 0.16745 6.34754 0.233449 6.47954 0.365349L11.6347 5.52055C11.7666 5.65255 11.8326 5.82635 11.8326 6.00005C11.8326 6.17375 11.7666 6.34755 11.6347 6.47945L6.47954 11.6347C6.34754 11.7667 6.17373 11.8326 6.00003 11.8326C5.82633 11.8326 5.65253 11.7667 5.52063 11.6347L0.365433 6.47945C0.233433 6.34755 0.167435 6.17375 0.167435 6.00005C0.167435 5.82635 0.233433 5.65255 0.365433 5.52055ZM5.71184 0.556549L0.556625 5.71175C0.477525 5.79085 0.437927 5.89545 0.437927 6.00005C0.437927 6.10465 0.477525 6.20915 0.556625 6.28825L5.71184 11.4435C5.79094 11.5226 5.89543 11.5621 6.00003 11.5621C6.10463 11.5621 6.20923 11.5226 6.28833 11.4435L11.4435 6.28825C11.5226 6.20915 11.5622 6.10465 11.5622 6.00005C11.5622 5.89545 11.5226 5.79085 11.4435 5.71175L6.28833 0.556549C6.20923 0.477449 6.10463 0.437851 6.00003 0.437851C5.89543 0.437851 5.79094 0.477449 5.71184 0.556549Z" fill="black"/>
<path fill-rule="evenodd" clip-rule="evenodd" d="M5.34112 5.56225H5.79642V5.86455H6.21722V5.56105H6.67252V5.86455H7.12783V5.56225H7.58312V5.86455H8.01162V5.56105H8.46693V5.86455H8.92233V5.56225H9.37762V5.86455H9.79412V6.11755H9.37762V6.42225H8.92233V6.11755H8.46693V6.42105H8.01162V6.11755H7.58312V6.42225H7.12783V6.11755H6.67252V6.42105H6.21722V6.11755H5.79642V6.42225H5.34112V6.11755H4.88572V6.42105H4.43043V6.11755H4.00193V6.42225H3.54662V6.11755H3.09133V6.42105H2.63602V6.11755H2.20602V5.86455H2.63602V5.56105H3.09133V5.86455H3.54662V5.56225H4.00193V5.86455H4.43043V5.56105H4.88572V5.86455H5.34112V5.56225Z" fill="black"/>
<path fill-rule="evenodd" clip-rule="evenodd" d="M6.01063 5.03455L3.89742 3.00425L2.97872 3.93325L4.33633 5.23755H5.79932H6.22182H7.68493L9.04243 3.93325L8.12382 3.00425L6.01063 5.03455Z" fill="black"/>
<path fill-rule="evenodd" clip-rule="evenodd" d="M6.00002 6.96545L3.88682 8.99575L2.96822 8.06675L4.32572 6.76245H5.78883H6.21133H7.67443L9.03193 8.06675L8.11323 8.99575L6.00002 6.96545Z" fill="black"/>
</svg>
