<svg width="12" height="12" viewBox="0 0 12 12" fill="none" xmlns="http://www.w3.org/2000/svg">
<path fill-rule="evenodd" clip-rule="evenodd" d="M0.263025 5.36253L5.36252 0.263025C5.71312 -0.087675 6.28692 -0.087675 6.63722 0.263025L11.7371 5.36253C12.0874 5.71323 12.0874 6.28693 11.7371 6.63753L6.63722 11.7371C6.28692 12.0877 5.71312 12.0877 5.36252 11.7371L0.263025 6.63753C-0.087675 6.28693 -0.087675 5.71323 0.263025 5.36253Z" fill="#FFEC00"/>
<path fill-rule="evenodd" clip-rule="evenodd" d="M0.365425 5.52052L5.52052 0.365425C5.65252 0.233425 5.82632 0.167427 6.00002 0.167427C6.17372 0.167427 6.34752 0.233425 6.47952 0.365425L11.6347 5.52052C11.7666 5.65252 11.8326 5.82632 11.8326 6.00002C11.8326 6.17372 11.7666 6.34752 11.6347 6.47952L6.47952 11.6346C6.34752 11.7666 6.17372 11.8326 6.00002 11.8326C5.82632 11.8326 5.65252 11.7666 5.52052 11.6346L0.365425 6.47952C0.233425 6.34752 0.167419 6.17372 0.167419 6.00002C0.167419 5.82632 0.233425 5.65252 0.365425 5.52052ZM5.71182 0.556625L0.556625 5.71172C0.477525 5.79092 0.43792 5.89542 0.43792 6.00002C0.43792 6.10462 0.477525 6.20912 0.556625 6.28832L5.71182 11.4434C5.79092 11.5226 5.89542 11.5622 6.00002 11.5622C6.10462 11.5622 6.20912 11.5226 6.28832 11.4434L11.4434 6.28832C11.5226 6.20912 11.5622 6.10462 11.5622 6.00002C11.5622 5.89542 11.5226 5.79092 11.4434 5.71172L6.28832 0.556625C6.20912 0.477425 6.10462 0.437927 6.00002 0.437927C5.89542 0.437927 5.79092 0.477425 5.71182 0.556625Z" fill="black"/>
<path fill-rule="evenodd" clip-rule="evenodd" d="M7.02173 4.77992L7.32313 4.77693C7.35223 4.79793 7.34652 4.92713 7.33822 4.96793C7.33322 4.99093 7.32823 4.99213 7.32533 4.99673L7.01912 4.99272C7.00432 4.96122 7.01013 4.93622 7.01013 4.89182C7.01023 4.87272 7.00813 4.84552 7.00943 4.82772C7.01243 4.77862 7.00703 4.80342 7.02173 4.77992ZM4.42293 4.78393L4.73272 4.77793L4.73343 4.82833L4.73333 4.99593L4.42283 4.99493L4.42293 4.78393ZM4.04593 4.91722C4.05393 5.10012 4.09343 5.27843 4.24363 5.31853C4.33833 5.34383 6.94603 5.32752 7.24703 5.32752C7.47443 5.32752 7.58393 5.32732 7.65593 5.13622C7.70833 4.99712 7.69892 4.73492 7.68702 4.57672C7.67172 4.37302 7.61302 4.27223 7.43062 4.22743C6.99142 4.11943 4.99382 4.14613 4.50792 4.18633C4.04202 4.22483 4.02663 4.46132 4.04593 4.91722Z" fill="black"/>
<path fill-rule="evenodd" clip-rule="evenodd" d="M3.71733 8.99683H4.75503C4.78523 8.93023 4.82853 8.88433 4.86653 8.82703C5.07863 8.50683 5.50333 8.05762 5.64173 7.68212C5.91153 6.95042 4.62873 6.98833 4.39113 6.80383C4.38613 6.72173 4.49663 6.63103 4.55433 6.58263C4.61683 6.53023 4.69403 6.47213 4.74143 6.40743C4.67853 6.39843 4.45703 6.39673 4.39103 6.40243C4.29793 6.41043 4.05623 6.66333 4.01233 6.73453C3.93873 6.85363 3.97623 6.90542 4.06303 6.96392C4.34283 7.15242 4.95693 7.28382 4.98933 7.44342C5.01973 7.59312 4.81443 7.78023 4.73003 7.89423C4.65063 8.00153 4.23793 8.42362 4.12983 8.53192C4.06523 8.59662 3.73623 8.94793 3.71733 8.99683Z" fill="black"/>
<path fill-rule="evenodd" clip-rule="evenodd" d="M6.88153 8.99683H7.91753C7.94143 8.79443 8.02973 8.55972 8.09523 8.37982C8.13003 8.28402 8.16274 8.18723 8.19464 8.08763C8.21674 8.01843 8.26033 7.81593 8.28283 7.77183C8.34203 7.58993 8.36343 7.47702 8.28283 7.32472C8.19253 7.21682 8.21063 7.20413 8.03443 7.11053C7.93433 7.05733 7.81633 7.01503 7.69793 6.97943C7.58283 6.94483 7.01803 6.82242 6.97073 6.78652C7.02873 6.74002 7.32783 6.45922 7.35163 6.40862C7.13393 6.40662 6.99963 6.36842 6.89863 6.45062C6.80373 6.52802 6.72953 6.59623 6.64873 6.69353C6.60513 6.74613 6.53813 6.83773 6.60413 6.91133C6.72843 7.04993 7.26853 7.20573 7.48813 7.31593C7.57093 7.35743 7.64393 7.38653 7.64483 7.49323C7.64683 7.77413 6.99123 8.63673 6.88153 8.99683Z" fill="black"/>
<path fill-rule="evenodd" clip-rule="evenodd" d="M4.45812 3.90782C4.46612 3.76952 4.52082 3.60642 4.55382 3.47482C4.59872 3.29562 4.65892 3.28222 4.85652 3.25732C5.21752 3.21202 6.52202 3.21422 6.88992 3.25432C7.07272 3.27412 7.11852 3.32932 7.18092 3.47992C7.23122 3.60142 7.26752 3.76752 7.27772 3.91132C6.95432 3.90132 6.10602 3.84232 5.86042 3.86022C5.69442 3.87222 4.56812 3.91702 4.45812 3.90782ZM4.21802 4.13022C5.04572 4.08522 5.88072 4.02192 6.71222 4.07732C6.87212 4.08802 7.40552 4.14212 7.51592 4.08532C7.54422 3.98082 7.43883 3.63412 7.40453 3.52112C7.35913 3.37192 7.28722 3.11212 7.15942 3.07132C6.90282 2.98932 6.15322 3.00612 5.84492 3.00612C5.52812 3.00612 4.80142 2.97732 4.54892 3.08972C4.44622 3.13532 4.43882 3.18272 4.40142 3.29602C4.33992 3.48212 4.20552 3.97012 4.21802 4.13022Z" fill="black"/>
<path fill-rule="evenodd" clip-rule="evenodd" d="M7.52233 5.66872C7.67443 5.65022 7.68493 5.44892 7.55253 5.40772C7.48763 5.38752 4.98153 5.40072 4.68283 5.40072C4.52963 5.40072 4.35303 5.39272 4.20283 5.40042C4.04413 5.40842 4.08044 5.64212 4.16494 5.66992L7.52233 5.66872Z" fill="black"/>
<path fill-rule="evenodd" clip-rule="evenodd" d="M4.34382 6.12653C4.36052 6.20863 4.42122 6.23312 4.51812 6.23302C4.89942 6.23262 4.81223 6.27802 4.82343 5.72402L4.33932 5.72302L4.34382 6.12653Z" fill="black"/>
<path fill-rule="evenodd" clip-rule="evenodd" d="M6.92062 6.15182C6.93352 6.24892 7.00032 6.23313 7.10802 6.23263C7.17852 6.23233 7.29202 6.24583 7.34152 6.21133C7.43472 6.14633 7.39662 5.88123 7.40332 5.74773H6.92172L6.92062 6.15182Z" fill="black"/>
</svg>
