<svg width="12" height="12" viewBox="0 0 12 12" fill="none" xmlns="http://www.w3.org/2000/svg">
<path fill-rule="evenodd" clip-rule="evenodd" d="M5.9999 1.25C8.6228 1.25 10.7499 3.3771 10.7499 6C10.7499 8.6229 8.6228 10.7499 5.9999 10.7499C3.377 10.7499 1.25 8.6229 1.25 6C1.25 3.3771 3.377 1.25 5.9999 1.25ZM11.9999 6C11.9999 2.6869 9.313 0 5.9999 0C2.6868 0 0 2.6869 0 6C0 9.3131 2.6868 11.9999 5.9999 11.9999C9.313 11.9999 11.9999 9.3131 11.9999 6Z" fill="#FF0000"/>
<path fill-rule="evenodd" clip-rule="evenodd" d="M7.4866 9.708H6.49889V8.2232L6.4959 8.1243L6.4859 8.0264L6.4704 7.9294L6.4495 7.8324L6.4217 7.7382L6.3881 7.645L6.34859 7.5547L6.3045 7.4663L6.25449 7.3809L6.1988 7.2992L6.1383 7.2214L6.073 7.1474L6.0029 7.0782L5.92889 7.0129L5.8511 6.9524L5.7695 6.8966L5.685 6.8457L5.5965 6.8016L5.50629 6.7622L5.4131 6.7285L5.318 6.7017L5.222 6.6796L5.1249 6.6642L5.026 6.6546L4.92799 6.6517H4.3807V6.6553L4.3777 6.6567L4.58749 7.1605L4.5955 7.188L4.59949 7.217L4.5985 7.2453L4.5935 7.2734L4.5831 7.3007L4.5691 7.326L4.5503 7.3475L4.52769 7.3664L4.5024 7.3804L4.4761 7.3907L4.4471 7.3964H4.4187L4.38969 7.3917L4.36259 7.3833L4.3369 7.369L2.5318 6.1962L2.5201 6.1863L2.5131 6.173L2.5101 6.1579L2.5131 6.1427L2.5201 6.1294L2.5318 6.1185L4.3369 4.9458L4.3624 4.9326L4.3898 4.9231L4.41859 4.9185L4.447 4.9194L4.4761 4.925L4.5022 4.9344L4.5275 4.9494L4.55019 4.9684L4.5689 4.9897L4.583 5.0143L4.5934 5.0413L4.5984 5.0695L4.5994 5.0988L4.5954 5.127L4.58739 5.1551L4.37759 5.6582L4.3806 5.6595V5.6631H4.9987L5.1097 5.6651L5.22089 5.6726L5.3307 5.6869L5.4407 5.7061L5.549 5.732L5.6549 5.7636L5.7592 5.8008L5.8616 5.8439L5.9621 5.8926L6.0587 5.9472L6.1535 6.0065L6.24329 6.0706L6.3305 6.1405L6.4136 6.2141L6.4922 6.2927L6.49419 6.2902H6.4982V4.1128H6.49419L6.49319 4.1095L5.9902 4.3193L5.9619 4.3277L5.9338 4.3314H5.9045L5.8763 4.3258L5.8493 4.3146L5.8248 4.3005L5.8033 4.2817L5.7845 4.2593L5.76939 4.2338L5.7604 4.2076L5.75439 4.1785L5.75349 4.1501L5.7585 4.1213L5.7685 4.0939L5.7817 4.0685L6.9544 2.2625L6.9645 2.2514L6.9778 2.2435L6.9928 2.2417L7.008 2.2435L7.0213 2.2514L7.0323 2.2625L8.20399 4.0684L8.21809 4.0941L8.2261 4.1213L8.23109 4.1501L8.23019 4.1787L8.2252 4.2075L8.2148 4.234L8.2008 4.2592L8.1818 4.2817L8.1603 4.3005L8.13499 4.3146L8.1078 4.3258L8.0797 4.3314H8.0514L8.0223 4.3277L7.9948 4.3192L7.491 4.1095L7.49 4.1128H7.486L7.4866 9.708Z" fill="black"/>
</svg>
