<svg width="12" height="12" viewBox="0 0 12 12" fill="none" xmlns="http://www.w3.org/2000/svg">
<path fill-rule="evenodd" clip-rule="evenodd" d="M5.9999 0C2.6868 0 0 2.6868 0 6C0 9.3131 2.6868 11.9999 5.9999 11.9999C9.313 11.9999 11.9999 9.3131 11.9999 6C11.9999 2.6868 9.313 0 5.9999 0ZM1.2 6C1.2 3.3495 3.3494 1.2 5.9999 1.2C8.6504 1.2 10.7999 3.3495 10.7999 6C10.7999 8.6505 8.6504 10.7999 5.9999 10.7999C3.3494 10.7999 1.2 8.6505 1.2 6Z" fill="#FF0000"/>
<path fill-rule="evenodd" clip-rule="evenodd" d="M3.80989 7.5055L3.81279 7.5647L3.80989 7.6243L3.80089 7.6826L3.78599 7.7408L3.76669 7.7959L3.74129 7.8497L3.70999 7.9019L3.67569 7.9496L3.63539 7.993L3.59069 8.0333L3.54299 8.0691L3.49219 8.099L3.43849 8.1243L3.38339 8.1452L3.32509 8.1587L3.26699 8.1677L3.20729 8.1707L3.14759 8.1678L3.08939 8.1588L3.03139 8.1454L2.97599 8.1245L2.92229 8.0992L2.87019 8.0694L2.82229 8.0336L2.77899 7.9933L2.73879 7.9501L2.70299 7.9024L2.67299 7.8501L2.64769 7.7965L2.62819 7.7412L2.61329 7.6831L2.60429 7.6249L2.60129 7.5652L2.60419 7.5055L2.61319 7.4473L2.62809 7.3892L2.64749 7.334L2.67279 7.2802L2.70259 7.2296L2.73849 7.1817L2.77869 7.137L2.82189 7.0967L2.86969 7.0623L2.92189 7.031L2.97559 7.0056L3.03079 6.9861L3.08889 6.9712L3.14709 6.9622L3.20679 6.9592L3.26649 6.9621L3.32469 6.9711L3.38289 6.986L3.43799 7.0054L3.49179 7.0307L3.54259 7.0621L3.59019 7.0963L3.63499 7.1366L3.67539 7.1813L3.70969 7.2291L3.74099 7.2797L3.76639 7.3335L3.78589 7.3887L3.80079 7.4468L3.80989 7.5055Z" fill="black" stroke="#1B1918" stroke-width="0.216"/>
<path fill-rule="evenodd" clip-rule="evenodd" d="M5.25309 3.9581H9.80649H9.81199V3.9637V6.9647V6.9703H9.80649H8.71969L8.72509 6.9711L8.78189 6.986L8.83839 7.0053L8.89219 7.0307L8.94309 7.0621L8.99069 7.0963L9.03409 7.1366L9.07439 7.1813L9.11019 7.229L9.14009 7.2798L9.16539 7.3335L9.18629 7.3886L9.20129 7.4468L9.20879 7.5051L9.21179 7.5647L9.20889 7.6243L9.20139 7.6825L9.18649 7.7408L9.16559 7.796L9.14029 7.8497L9.11049 7.9018L9.07469 7.9497L9.03439 7.993L8.99119 8.0332L8.94349 8.0691L8.89269 8.099L8.83899 8.1243L8.78239 8.1452L8.72559 8.1587L8.66599 8.1677L8.60629 8.1707L8.54809 8.1678L8.48849 8.1588L8.43179 8.1454L8.37499 8.1245L8.32129 8.0992L8.27059 8.0694L8.22279 8.0336L8.17809 7.9933L8.13919 7.9501L8.10339 7.9024L8.07349 7.85L8.04809 7.7965L8.02729 7.7413L8.01229 7.6831L8.00479 7.6248L8.00179 7.5652L8.00469 7.5055L8.01219 7.4475L8.02709 7.3892L8.04799 7.3339L8.07329 7.2802L8.10309 7.2296L8.13889 7.1817L8.17759 7.1371L8.22239 7.0967L8.27019 7.0623L8.32079 7.031L8.37459 7.0056L8.43129 6.9861L8.48779 6.9712L8.49389 6.9703H7.37879L7.38429 6.9711L7.44099 6.986L7.49759 7.0053L7.55139 7.0307L7.60219 7.0621L7.64979 7.0963L7.69319 7.1366L7.73349 7.1813L7.76929 7.229L7.79919 7.2798L7.82459 7.3335L7.84539 7.3886L7.85889 7.4469L7.86789 7.505L7.87089 7.5647L7.86799 7.6243L7.85899 7.6826L7.84559 7.7406L7.82469 7.796L7.79939 7.8497L7.76959 7.9018L7.73379 7.9497L7.69349 7.993L7.65039 8.0332L7.60259 8.0691L7.55179 8.099L7.49809 8.1243L7.44149 8.1452L7.38469 8.1587L7.32509 8.1677L7.26539 8.1707L7.20719 8.1678L7.14759 8.1588L7.09099 8.1454L7.03409 8.1245L6.98049 8.0992L6.92969 8.0694L6.88189 8.0336L6.83719 7.9933L6.79829 7.9501L6.76259 7.9024L6.73119 7.8502L6.70579 7.7965L6.68639 7.7412L6.67139 7.6831L6.66239 7.6249L6.66089 7.5651L6.66239 7.5057L6.67129 7.4473L6.68619 7.3892L6.70559 7.334L6.73089 7.2802L6.76229 7.2294L6.79799 7.1817L6.83669 7.1371L6.88149 7.0967L6.92929 7.0623L6.97989 7.031L7.03369 7.0056L7.09039 6.9861L7.14699 6.9712L7.15299 6.9703H5.25309H5.24759V6.9647V3.9637V3.9581H5.25309Z" fill="black" stroke="#1B1918" stroke-width="0.216"/>
<path fill-rule="evenodd" clip-rule="evenodd" d="M5.0118 6.9647V4.9601H5.0062V4.9545H3.8073V4.9601L3.8034 4.9561L2.9919 5.7588H2.0066V5.7643H2.0011V6.9647H2.0066V6.9703H2.5655V6.9647L2.5694 6.9686L2.6196 6.9184L2.6751 6.8732L2.7339 6.832L2.7955 6.7953L2.859 6.7643L2.9263 6.7379L2.9942 6.7173L3.0643 6.7041L3.135 6.6953L3.2069 6.6923L3.2792 6.6953L3.3498 6.7041L3.4185 6.7173L3.4878 6.7379L3.5551 6.7643L3.6182 6.795L3.6799 6.8318L3.739 6.8732L3.7931 6.9184L3.8448 6.9687L3.8487 6.9647V6.9703H5.0062V6.9647H5.0118ZM4.7331 5.7588H3.366L3.81 5.1696H4.7331V5.7588Z" fill="black"/>
</svg>
