<svg width="12" height="12" viewBox="0 0 12 12" fill="none" xmlns="http://www.w3.org/2000/svg">
<path fill-rule="evenodd" clip-rule="evenodd" d="M0.26295 5.36245L5.36245 0.26295C5.71315 -0.08765 6.28685 -0.08765 6.63725 0.26295L11.737 5.36245C12.0874 5.71315 12.0874 6.28685 11.737 6.63755L6.63725 11.7371C6.28685 12.0877 5.71315 12.0877 5.36245 11.7371L0.26295 6.63755C-0.08765 6.28685 -0.08765 5.71315 0.26295 5.36245Z" fill="#FFEC00"/>
<path fill-rule="evenodd" clip-rule="evenodd" d="M0.365349 5.52055L5.52055 0.365349C5.65255 0.233349 5.82635 0.16745 6.00005 0.16745C6.17375 0.16745 6.34755 0.233349 6.47955 0.365349L11.6347 5.52055C11.7667 5.65255 11.8326 5.82635 11.8326 6.00005C11.8326 6.17375 11.7667 6.34755 11.6347 6.47945L6.47955 11.6346C6.34755 11.7666 6.17375 11.8325 6.00005 11.8325C5.82635 11.8325 5.65255 11.7666 5.52055 11.6346L0.365349 6.47945C0.233449 6.34755 0.16745 6.17375 0.16745 6.00005C0.16745 5.82635 0.233449 5.65255 0.365349 5.52055ZM5.71175 0.556549L0.556648 5.71175C0.477448 5.79085 0.437851 5.89545 0.437851 6.00005C0.437851 6.10465 0.477448 6.20915 0.556648 6.28825L5.71175 11.4434C5.79095 11.5225 5.89545 11.5621 6.00005 11.5621C6.10465 11.5621 6.20915 11.5225 6.28825 11.4434L11.4435 6.28825C11.5226 6.20915 11.5621 6.10465 11.5621 6.00005C11.5621 5.89545 11.5226 5.79085 11.4435 5.71175L6.28825 0.556549C6.20915 0.477449 6.10465 0.437847 6.00005 0.437847C5.89545 0.437847 5.79095 0.477449 5.71175 0.556549Z" fill="black"/>
<path fill-rule="evenodd" clip-rule="evenodd" d="M3.82205 8.81115C3.82225 7.53035 3.82246 6.25035 3.82256 4.96945C3.83196 4.54875 4.10846 4.14955 4.62996 4.12795C5.17766 4.12795 5.73055 4.12795 6.27835 4.12795C6.16265 3.86855 6.04696 3.61985 5.93126 3.36045C5.87786 3.24245 5.97105 3.14735 6.08885 3.20405C6.76695 3.63785 7.44505 4.07155 8.12315 4.50525C8.19625 4.55585 8.19615 4.60645 8.12315 4.65695C7.45755 5.08115 6.79715 5.50525 6.13165 5.92935C5.99115 6.03395 5.88025 5.94015 5.93085 5.80695C6.05015 5.54805 6.15405 5.29975 6.27335 5.04075C5.76515 5.04075 5.27246 5.04075 4.76426 5.04075C4.70906 5.03875 4.69915 5.06085 4.69975 5.11955C4.69965 6.34485 4.69945 7.58595 4.69935 8.81115C4.40695 8.81675 4.11455 8.80565 3.82205 8.81115Z" fill="black"/>
</svg>
