<svg width="12" height="12" viewBox="0 0 12 12" fill="none" xmlns="http://www.w3.org/2000/svg">
<path fill-rule="evenodd" clip-rule="evenodd" d="M6 1.25C8.6229 1.25 10.7499 3.3771 10.7499 6C10.7499 8.6229 8.6229 10.75 6 10.75C3.3771 10.75 1.25 8.6229 1.25 6C1.25 3.3771 3.3771 1.25 6 1.25ZM11.9999 6C11.9999 2.6869 9.3131 0 6 0C2.6869 0 0 2.6869 0 6C0 9.3131 2.6869 11.9999 6 11.9999C9.3131 11.9999 11.9999 9.3131 11.9999 6Z" fill="#FF0000"/>
<path fill-rule="evenodd" clip-rule="evenodd" d="M8.73581 5.67551V5.67891H9.33201V6.6305H8.73581V6.63401L8.73261 6.63531L8.93451 7.11921L8.94631 7.20181L8.91651 7.27861L8.85321 7.33191L8.77211 7.34721L8.69391 7.3208L6.95601 6.19231L6.93851 6.1688V6.13971L6.95601 6.11711L8.69391 4.98771L8.77201 4.9622L8.85321 4.9776L8.91651 5.03001L8.94631 5.1067L8.93451 5.1893L8.73261 5.67421L8.73581 5.67551Z" fill="black"/>
<path fill-rule="evenodd" clip-rule="evenodd" d="M3.984 5.3772L4.28849 4.6748L4.29199 6.3968L4.0253 9.1227L4.0288 9.1231C4.0181 9.4621 4.60009 9.6873 4.71999 9.2035L5.02239 6.5912L5.1687 9.6255C5.2596 9.9607 5.6972 9.9482 5.7611 9.6067V4.726L5.9572 5.7118L5.94589 6.3547C6.00809 6.6594 6.37739 6.6682 6.47549 6.3812L6.47299 6.3545L6.47729 6.3539C6.33589 5.0353 6.30809 4.1435 6.02799 3.8927C5.26089 3.3313 4.15209 3.6074 4.04189 3.8727L4.0437 3.8756L4.04039 3.8743L3.5225 5.1417L3.51649 6.3195L3.52919 6.4425L3.52989 6.4441C3.68569 6.662 3.88139 6.6406 3.99199 6.398L3.99229 6.3962L3.99209 6.3944L3.984 5.3772ZM4.47169 2.9092C4.52999 3.2739 4.7063 3.4012 5.0106 3.4499H5.01169C5.36769 3.3932 5.4972 3.2441 5.5505 2.9102C5.4919 2.5446 5.31619 2.4189 5.01169 2.3703H5.0106C4.7067 2.419 4.53029 2.545 4.47169 2.9092Z" fill="black"/>
</svg>
