<svg width="15" height="15" viewBox="0 0 15 15" fill="none" xmlns="http://www.w3.org/2000/svg">
<path fill-rule="evenodd" clip-rule="evenodd" d="M6.98707 14.2791C7.03007 14.2588 6.99027 14.2841 7.02677 14.2511C7.16357 14.1276 7.22747 13.935 7.63437 13.6152C8.66087 12.8086 9.43967 12.8497 10.6206 12.6164C12.0658 12.3309 13.0898 11.7666 13.6573 10.3284C13.9842 9.49981 13.9807 8.94992 13.9807 7.99032C13.9807 7.09932 13.9807 6.20831 13.9807 5.31731C13.9807 4.43971 13.999 3.54201 13.9761 2.66721C13.9615 2.11091 14.0093 0.333708 13.9678 7.62939e-06H0.0148696C-0.0159304 0.389308 0.0106696 2.11392 0.0106696 2.64422V7.94431C0.0106696 8.88941 -0.00202852 9.47432 0.322471 10.2997C0.578071 10.9499 1.00317 11.5202 1.43247 11.8401C3.07187 13.0616 4.62407 12.3093 6.33347 13.598C6.81707 13.9627 6.72127 14.0172 6.98707 14.2791Z" fill="white"/>
<path fill-rule="evenodd" clip-rule="evenodd" d="M6.98707 14.0257C7.03027 14.0055 6.99037 14.0307 7.02697 13.9978C7.17967 13.8608 7.11477 13.7959 7.65107 13.4014C9.27257 12.2087 10.9847 12.8347 12.4371 11.7348C12.8785 11.4005 13.2642 10.8803 13.5273 10.2211C13.8405 9.43641 13.8196 8.81871 13.8196 7.92121C13.8196 7.32241 13.8376 0.41531 13.8067 0.16111L0.176074 0.161217C0.145874 0.539217 0.171771 2.21891 0.171771 2.73641V7.89822C0.171771 8.80052 0.146772 9.40801 0.459072 10.2091C1.01097 11.6249 1.94667 12.1687 3.37677 12.4523C4.73657 12.722 5.55918 12.6826 6.67218 13.6743C6.83258 13.8172 6.87887 13.9155 6.98707 14.0257Z" fill="black"/>
<path fill-rule="evenodd" clip-rule="evenodd" d="M11.569 11.8343C11.6543 11.7875 11.5781 11.7941 11.6758 11.7539L11.9036 11.6769C11.9295 11.6618 11.9863 11.6293 11.9989 11.6175C12.0576 11.5623 12.0571 11.5986 12.0232 11.5285C12.113 11.5688 12.1248 11.5511 12.2936 11.406C12.3497 11.3579 12.4991 11.2062 12.5432 11.1933C12.6554 10.9685 12.699 11.0813 12.6882 10.9073L12.7667 10.8882C12.7768 10.874 12.777 10.872 12.7866 10.8613C12.8363 10.8058 12.8153 10.8325 12.8562 10.8129C12.8832 10.6959 13.185 10.3379 13.3667 9.59841C13.5004 9.05421 13.4797 8.56871 13.4797 7.99031C13.4797 6.83391 13.4745 5.67651 13.4739 4.51941C13.3159 4.47591 7.33807 4.50511 7.01007 4.50511C4.84397 4.50511 2.67786 4.50511 0.511765 4.50511C0.512265 5.79741 0.511765 7.08971 0.511765 8.38211C0.511765 9.49011 0.746366 10.477 1.51677 11.2485C2.17027 11.9029 3.21107 12.0998 4.36817 12.2671C4.92877 12.3482 5.41007 12.4874 5.85887 12.7124C6.08907 12.8278 6.27956 12.9308 6.47236 13.068L7.01867 13.5035C7.16387 13.303 7.62217 12.9796 7.90667 12.8271C9.11197 12.181 9.84866 12.3137 11.1561 11.9787C11.3135 11.9384 11.2459 11.9221 11.348 11.9027C11.4992 11.8741 11.4544 11.868 11.569 11.8343Z" fill="white"/>
<path fill-rule="evenodd" clip-rule="evenodd" d="M0.511765 4.16511H13.4736L13.4738 0.501122H14.0385H2.90837H0.511765V4.16511Z" fill="white"/>
<path fill-rule="evenodd" clip-rule="evenodd" d="M12.5432 11.1933C12.6376 11.2003 12.5268 11.2479 12.7249 11.2394L12.7162 11.1019C12.7651 11.12 12.7762 11.1465 12.8293 11.0899C12.89 11.0253 12.8493 11.03 12.8182 10.985C13.0926 11.0117 12.8566 10.8133 12.8562 10.8129C12.8153 10.8325 12.8363 10.8059 12.7866 10.8613C12.777 10.872 12.7768 10.874 12.7667 10.8882L12.6882 10.9073C12.699 11.0813 12.6554 10.9685 12.5432 11.1933Z" fill="#424242"/>
<path fill-rule="evenodd" clip-rule="evenodd" d="M11.569 11.8343L11.577 11.9727L11.73 11.9545C11.7328 11.875 11.7395 11.9197 11.7172 11.8559C11.6821 11.7557 11.6929 11.8164 11.6879 11.8155C11.7069 11.8215 11.6869 11.8095 11.7176 11.8515L11.7366 11.8791C11.7664 11.9136 11.7506 11.8961 11.7802 11.9182C11.7948 11.8904 11.7893 11.9174 11.7936 11.8721C11.7949 11.8585 11.7886 11.8484 11.7915 11.817C11.8252 11.8673 11.7758 11.8379 11.8333 11.8594C11.8654 11.8714 11.8923 11.8644 11.9156 11.8614L11.9311 11.8165C11.9387 11.6789 11.9173 11.7609 11.9036 11.6767L11.6758 11.7537C11.5781 11.7939 11.6543 11.7875 11.569 11.8343Z" fill="#424242"/>
<path fill-rule="evenodd" clip-rule="evenodd" d="M7.07128 3.44201H5.69228V1.22082H7.00158V1.57232H6.04348V2.11941H6.69008V2.47741H6.04348V3.08401H7.07128V3.44201ZM8.39738 1.72482C8.32648 1.59442 8.21738 1.52811 8.06908 1.52581C7.98288 1.52581 7.91118 1.55242 7.85368 1.60542C7.79608 1.65852 7.76857 1.72142 7.77087 1.79452C7.77087 1.84752 7.79668 1.89492 7.84858 1.93682C7.90068 1.97912 7.98288 2.00882 8.09578 2.02642C8.36308 2.07292 8.55698 2.16302 8.67738 2.29652C8.79788 2.43032 8.85828 2.58341 8.85828 2.75571C8.85828 2.94601 8.78628 3.11432 8.64258 3.26142C8.49908 3.40832 8.31997 3.48171 8.10567 3.48171C7.76517 3.47771 7.51208 3.30511 7.34658 2.96471L7.68127 2.79542C7.78507 3.01002 7.92877 3.11721 8.11217 3.11721C8.21817 3.11921 8.31007 3.08232 8.38747 3.00602C8.46477 2.92982 8.50338 2.84081 8.50338 2.73931C8.50568 2.67071 8.47588 2.60271 8.41378 2.53521C8.35198 2.46801 8.24258 2.41981 8.08578 2.39121C7.87348 2.36031 7.71107 2.29542 7.59827 2.19732C7.48577 2.09902 7.42928 1.98101 7.42928 1.84411C7.42478 1.68061 7.48228 1.52982 7.60168 1.39172C7.72098 1.25342 7.87917 1.18452 8.07587 1.18452C8.35197 1.19052 8.55747 1.32141 8.69247 1.57571L8.39738 1.72482Z" fill="black"/>
<path fill-rule="evenodd" clip-rule="evenodd" d="M3.97617 8.48461C3.97617 8.69771 3.91207 8.88281 3.78457 9.03931C3.65697 9.19611 3.47077 9.27431 3.22577 9.27431H2.18327V6.62872H3.18637C3.39417 6.62872 3.56797 6.69252 3.70747 6.82032C3.84717 6.94792 3.91687 7.12622 3.91687 7.35522C3.91407 7.62112 3.82877 7.80541 3.66007 7.90801C3.87067 8.02651 3.97617 8.21871 3.97617 8.48461ZM3.51407 7.38671C3.51407 7.28951 3.48827 7.21042 3.43697 7.15002C3.38567 7.08942 3.31147 7.05901 3.21387 7.05901H2.60187V7.70281H3.20997C3.29947 7.70281 3.37177 7.66902 3.42707 7.60212C3.48237 7.53502 3.51157 7.46321 3.51407 7.38671ZM3.54557 8.49651C3.54297 8.39901 3.51407 8.31681 3.45887 8.24961C3.40357 8.18241 3.33097 8.14751 3.24167 8.14501H2.59797V8.85561H3.22577C3.32337 8.85561 3.40097 8.81881 3.45887 8.74511C3.51667 8.67141 3.54557 8.58861 3.54557 8.49651ZM6.17157 9.27431H5.71747L5.29087 8.12511H4.78937V9.27431H4.37077V6.62872H5.41727C5.63297 6.63172 5.80367 6.70952 5.92867 6.86372C6.05367 7.01762 6.11627 7.18692 6.11627 7.37112C6.11627 7.51062 6.07807 7.64301 6.00177 7.76801C5.92527 7.89301 5.82657 7.98311 5.70557 8.03841L6.17157 9.27431ZM5.70157 7.38302C5.70157 7.28012 5.67067 7.20132 5.60887 7.14602C5.54687 7.09082 5.47797 7.06191 5.40137 7.05901H4.78937V7.71072H5.41727C5.49637 7.71072 5.56327 7.68181 5.61857 7.62371C5.67377 7.56591 5.70157 7.48562 5.70157 7.38302ZM8.32737 9.27431H7.90497V7.15002H7.66007V6.81042C7.81537 6.80242 7.92847 6.74182 7.99967 6.62872H8.32737V9.27431ZM9.72907 9.32162C9.41837 9.32162 9.17967 9.20401 9.01247 8.96821C8.84517 8.73261 8.76157 8.39391 8.76157 7.95141C8.76157 7.51971 8.84517 7.18401 9.01247 6.94451C9.17967 6.70501 9.41837 6.58541 9.72907 6.58541C10.0452 6.58541 10.2852 6.70501 10.4497 6.94451C10.6143 7.18401 10.6966 7.51971 10.6966 7.95141C10.6966 8.39391 10.6143 8.73261 10.4497 8.96821C10.2852 9.20401 10.0452 9.32162 9.72907 9.32162ZM9.72907 7.00372C9.54477 7.00372 9.41077 7.09132 9.32627 7.26652C9.24207 7.44142 9.19867 7.66712 9.19617 7.94372C9.19617 8.25412 9.23757 8.49001 9.32057 8.65041C9.40337 8.81111 9.53967 8.88991 9.72907 8.88741C9.92917 8.88241 10.0675 8.79921 10.1438 8.63851C10.2201 8.47801 10.2609 8.24652 10.2663 7.94372C10.2609 7.64862 10.2169 7.42101 10.1339 7.26061C10.0511 7.09981 9.91617 7.01422 9.72907 7.00372ZM11.8021 9.27431H11.3797V7.15002H11.1348V6.81042C11.2901 6.80242 11.4032 6.74182 11.4744 6.62872H11.8021V9.27431Z" fill="black"/>
</svg>
