<svg width="12" height="12" viewBox="0 0 12 12" fill="none" xmlns="http://www.w3.org/2000/svg">
<path fill-rule="evenodd" clip-rule="evenodd" d="M6 1.25C8.6229 1.25 10.7499 3.3771 10.7499 6C10.7499 8.6229 8.6229 10.7499 6 10.7499C3.3771 10.7499 1.25 8.6229 1.25 6C1.25 3.3771 3.3771 1.25 6 1.25ZM11.9999 6C11.9999 2.6868 9.3131 0 6 0C2.6868 0 0 2.6868 0 6C0 9.3131 2.6868 11.9999 6 11.9999C9.3131 11.9999 11.9999 9.3131 11.9999 6Z" fill="#FF0000"/>
<path fill-rule="evenodd" clip-rule="evenodd" d="M1.9852 6.14839H1.9809V5.20279H1.9852V5.19849H2.569L2.3721 4.72669L2.3639 4.69869L2.36029 4.67049V4.64249L2.3661 4.61399L2.37659 4.58699L2.39059 4.56239L2.4095 4.54099L2.4317 4.52229L2.4565 4.50799L2.48339 4.49749L2.5116 4.49259L2.5397 4.49149L2.56919 4.49609L2.59629 4.50549L2.62099 4.51829L4.3358 5.63249L4.3479 5.64309L4.3487 5.64419L4.3567 5.65789L4.3573 5.65949L4.3596 5.67559V5.67679L4.3573 5.69179L4.3567 5.69329L4.3487 5.70689L4.3479 5.70799L4.3364 5.71829L2.6213 6.83279L2.597 6.84659L2.5698 6.85499L2.5406 6.85979L2.51229 6.85989L2.4841 6.85389L2.4572 6.84469L2.4322 6.82929L2.41 6.81189L2.391 6.78949L2.3769 6.76479L2.36629 6.73779L2.3604 6.70969L2.36029 6.68129L2.3637 6.65329L2.372 6.62609L2.569 6.15259H1.9852V6.14839Z" fill="black"/>
<path fill-rule="evenodd" clip-rule="evenodd" d="M8.854 7.61079L8.8575 7.63829L8.86551 7.66459L8.87811 7.68979L8.8964 7.71159L8.9171 7.72879L8.9423 7.74139L8.96861 7.74939L8.9962 7.75289" fill="black"/>
<path fill-rule="evenodd" clip-rule="evenodd" d="M8.854 7.6108V7.0434H9.4878V7.6108" fill="black"/>
<path fill-rule="evenodd" clip-rule="evenodd" d="M9.3457 7.75289L9.3732 7.74939L9.3996 7.74139L9.4248 7.72879L9.4466 7.71159L9.4638 7.68979L9.4764 7.66459L9.4844 7.63829L9.4878 7.61079" fill="black"/>
<path fill-rule="evenodd" clip-rule="evenodd" d="M5.47771 6.8371L5.48111 6.8624L5.48911 6.8864L5.50291 6.9082L5.52011 6.9265L5.54191 6.9403L5.56591 6.9483L5.59111 6.9506" fill="black"/>
<path fill-rule="evenodd" clip-rule="evenodd" d="M5.59111 6.6973L5.56591 6.6996L5.54191 6.7088L5.52011 6.7225L5.50291 6.7397L5.48911 6.7615L5.48111 6.78559L5.47771 6.81079" fill="black"/>
<path fill-rule="evenodd" clip-rule="evenodd" d="M9.7308 6.81079L9.72739 6.78559L9.7193 6.7615L9.7056 6.7397L9.6873 6.7225L9.6666 6.7088L9.64249 6.6996L9.61729 6.6973" fill="black"/>
<path fill-rule="evenodd" clip-rule="evenodd" d="M9.61729 6.9506L9.64249 6.9483L9.6666 6.9403L9.6873 6.9265L9.7056 6.9082L9.7193 6.8864L9.72739 6.8624L9.7308 6.8371" fill="black"/>
<path fill-rule="evenodd" clip-rule="evenodd" d="M6.2123 7.75289L6.2398 7.74939L6.2662 7.74139L6.2914 7.72879L6.312 7.71159L6.33039 7.68979L6.34299 7.66459L6.35099 7.63829L6.35329 7.61079" fill="black"/>
<path fill-rule="evenodd" clip-rule="evenodd" d="M6.35329 7.6108V7.0434H5.7206V7.6108" fill="black"/>
<path fill-rule="evenodd" clip-rule="evenodd" d="M5.7206 7.61079L5.7229 7.63829L5.731 7.66459L5.7447 7.68979L5.76189 7.71159L5.7837 7.72879L5.8077 7.74139L5.8353 7.74939L5.8628 7.75289" fill="black"/>
<path fill-rule="evenodd" clip-rule="evenodd" d="M9.80991 6.4544L9.84311 6.3546L9.87181 6.2515L9.89351 6.1483L9.91071 6.0429L9.92221 5.9375L9.92791 5.832V5.7254L9.92221 5.62L9.91071 5.5146L9.89351 5.4091L9.87181 5.306L9.84311 5.20401L9.80991 5.1031" fill="black"/>
<path fill-rule="evenodd" clip-rule="evenodd" d="M9.8099 5.1031L9.7938 5.0676L9.7732 5.0355L9.7491 5.0057L9.7216 4.97931L9.6895 4.9576L9.6552 4.93921L9.6196 4.92661L9.5818 4.91861L9.5428 4.91631" fill="black"/>
<path fill-rule="evenodd" clip-rule="evenodd" d="M9.5428 6.64119L9.5818 6.63889L9.6196 6.63079L9.6552 6.61819L9.6895 6.59989L9.7216 6.57809L9.7491 6.55179L9.7732 6.52309L9.7938 6.48989L9.8099 6.45439" fill="black"/>
<path fill-rule="evenodd" clip-rule="evenodd" d="M5.39861 5.1031L5.3654 5.20401L5.3367 5.306L5.3138 5.4091L5.2977 5.5146L5.2863 5.62L5.2805 5.7254V5.832L5.2863 5.9375L5.2977 6.0429L5.3138 6.1483L5.3367 6.2515L5.3654 6.3546L5.39861 6.4544" fill="black"/>
<path fill-rule="evenodd" clip-rule="evenodd" d="M5.39861 6.45439L5.4146 6.48989L5.4341 6.52309L5.4593 6.55179L5.4868 6.57809L5.5189 6.59989L5.5533 6.61819L5.5888 6.63079L5.62671 6.63889L5.6656 6.64119" fill="black"/>
<path fill-rule="evenodd" clip-rule="evenodd" d="M5.6656 4.91631L5.62671 4.91861L5.5888 4.92661L5.5533 4.93921L5.5189 4.9576L5.4868 4.97931L5.4593 5.0057L5.4341 5.0355L5.4146 5.0676L5.39861 5.1031" fill="black"/>
<path fill-rule="evenodd" clip-rule="evenodd" d="M9.5428 4.91631L9.2678 4.8796L8.9916 4.84871L8.7142 4.82351L8.438 4.804L8.1595 4.7891L7.8822 4.78111L7.6037 4.7776L7.32631 4.78111L7.049 4.7891L6.7705 4.804L6.4931 4.82351L6.2169 4.84871L5.9407 4.8796L5.6656 4.91631" fill="black"/>
<path fill-rule="evenodd" clip-rule="evenodd" d="M9.55091 4.8601L9.27471 4.8235L8.99731 4.7925L8.71881 4.7662L8.44141 4.7467L8.16181 4.73289L7.88331 4.7238L7.60371 4.7215L7.32521 4.7238L7.04671 4.73289L6.76701 4.7467L6.48851 4.7662L6.21121 4.7925L5.93381 4.8235L5.65761 4.8601" fill="black"/>
<path fill-rule="evenodd" clip-rule="evenodd" d="M9.55091 4.8601L9.02141 3.4986Z" fill="black"/>
<path fill-rule="evenodd" clip-rule="evenodd" d="M5.65761 4.8601L6.18711 3.4986Z" fill="black"/>
<path fill-rule="evenodd" clip-rule="evenodd" d="M4.3327 5.7587L4.3442 5.7484L4.3522 5.7346L4.3545 5.7197L4.3522 5.7037L4.3442 5.6899L4.3327 5.6796" fill="black"/>
<path fill-rule="evenodd" clip-rule="evenodd" d="M6.3576 7.61109L6.3553 7.63859L6.3471 7.66579L6.3342 7.69169L6.3336 7.69259L6.3152 7.71429L6.2941 7.73209L6.2682 7.74529L6.2411 7.75349L6.2129 7.75709L5.8628 7.75719L5.8347 7.75359L5.8066 7.74559L5.7817 7.73259L5.7592 7.71489L5.7414 7.69249L5.7272 7.66659L5.7189 7.63949L5.7164 7.61109V7.04339V7.03909H5.7207H6.3533H6.3576V7.04339V7.61109Z" fill="black"/>
<path fill-rule="evenodd" clip-rule="evenodd" d="M5.59081 6.95489L5.56561 6.95269L5.5646 6.95249L5.5406 6.94429L5.5397 6.94379L5.5178 6.93009L5.517 6.92939L5.4997 6.91119L5.4855 6.88869L5.47701 6.86369L5.4735 6.83779L5.4734 6.81069L5.4769 6.78499L5.4851 6.76009L5.4992 6.73739L5.49981 6.73659L5.51711 6.71949L5.5397 6.70509L5.5644 6.69559L5.56561 6.69529L5.59081 6.69299H9.6173L9.64301 6.69529L9.6441 6.69559L9.6681 6.70469L9.669 6.70519L9.6897 6.71899L9.7085 6.73649L9.7092 6.73739L9.7229 6.75919L9.7314 6.78419L9.735 6.81019V6.83719L9.7316 6.86289L9.7233 6.88779L9.7092 6.91049L9.7086 6.91129L9.6903 6.92949L9.669 6.94379L9.668 6.94429L9.6439 6.95249L9.6429 6.95269L9.6177 6.95489H5.59081Z" fill="black"/>
<path fill-rule="evenodd" clip-rule="evenodd" d="M8.99571 7.75709L8.96801 7.75359L8.94111 7.74559L8.91521 7.73259L8.91431 7.73209L8.89381 7.71479L8.87491 7.69259L8.87431 7.69169L8.86161 7.66649L8.85331 7.63949L8.84981 7.61129V7.04339V7.03909H8.85411H9.48781H9.49211V7.04339V7.61079L9.48871 7.63879L9.48051 7.66579L9.46761 7.69169L9.45001 7.71419L9.42751 7.73219L9.40151 7.74529L9.37451 7.75349L9.34621 7.75709H8.99571Z" fill="black"/>
<path fill-rule="evenodd" clip-rule="evenodd" d="M9.0214 3.4986L8.7383 3.4745L8.4552 3.455L8.1721 3.4424L7.88791 3.4333L7.6037 3.431L7.3206 3.4333L7.0364 3.4424L6.7533 3.455L6.469 3.4745L6.1871 3.4986" fill="black"/>
<path fill-rule="evenodd" clip-rule="evenodd" d="M9.34571 4.718L9.05691 4.6848L8.76691 4.6573L8.47701 4.6355L8.18591 4.6195L7.89481 4.6103L7.60371 4.608L7.31371 4.6103L7.02261 4.6195L6.73151 4.6355L6.44151 4.6573L6.15161 4.6848L5.86281 4.718" fill="black"/>
<path fill-rule="evenodd" clip-rule="evenodd" d="M8.9366 3.66589L8.6409 3.64299L8.3452 3.62469L8.04829 3.61319L7.7527 3.60629H7.4558L7.159 3.61319L6.8633 3.62469L6.5676 3.64299L6.2719 3.66589" fill="black"/>
<path fill-rule="evenodd" clip-rule="evenodd" d="M9.3457 4.71799L8.9366 3.66589Z" fill="black"/>
<path fill-rule="evenodd" clip-rule="evenodd" d="M5.86281 4.71799L6.27191 3.66589Z" fill="black"/>
<path fill-rule="evenodd" clip-rule="evenodd" d="M7.75271 3.6063L8.04831 3.6132L8.34521 3.6247L8.64091 3.643L8.93661 3.6659L9.34571 4.718L9.05691 4.6848L8.76691 4.6573L8.47701 4.6355L8.18591 4.6195L7.89481 4.6103L7.60371 4.608L7.31371 4.6103L7.02261 4.6195L6.73151 4.6355L6.44151 4.6573L6.15161 4.6848L5.86281 4.718L6.27191 3.6659L6.56761 3.643L6.86331 3.6247L7.15901 3.6132L7.45581 3.6063H7.75271ZM8.44141 4.7467L8.71881 4.7662L8.99731 4.7925L9.27471 4.8235L9.55091 4.8601L9.02141 3.4986L8.73831 3.4745L8.45521 3.455L8.17211 3.4424L7.88791 3.4333L7.60371 3.431L7.32061 3.4333L7.03641 3.4424L6.75331 3.455L6.46901 3.4745L6.18711 3.4986L5.65761 4.8601L5.93381 4.8235L6.21121 4.7925L6.48851 4.7662L6.76701 4.7467L7.04671 4.7329L7.32521 4.7238L7.60371 4.7215L7.88331 4.7238L8.16181 4.7329L8.44141 4.7467Z" fill="black"/>
<path fill-rule="evenodd" clip-rule="evenodd" d="M8.9919 4.8445L8.7145 4.8192L8.4382 4.7997L8.1597 4.7849L7.8823 4.7767L7.6038 4.7733L7.3263 4.7767L7.0489 4.7849L6.7702 4.7997L6.4928 4.8192L6.2165 4.8445L5.9402 4.8754L5.6654 4.9121L5.6264 4.9143L5.588 4.9225L5.552 4.9351L5.5169 4.9539L5.4845 4.9758L5.4564 5.0025L5.4308 5.0328L5.411 5.0653L5.3947 5.1014L5.3613 5.2026L5.3326 5.3048L5.3096 5.4082L5.2934 5.5139L5.282 5.6195L5.2762 5.7251V5.832L5.2819 5.9376L5.2934 6.0434L5.3095 6.149L5.3326 6.2524L5.3612 6.3558L5.3945 6.4556L5.4108 6.4916L5.4304 6.5253L5.4561 6.5547L5.4839 6.5812L5.5165 6.6034L5.5514 6.622L5.5875 6.6349L5.6258 6.6431L5.6654 6.6454H9.5429L9.582 6.6432L9.6204 6.6351L9.6565 6.6223L9.6916 6.6037L9.724 6.5817L9.7521 6.5549L9.7764 6.5259L9.7975 6.4921L9.8139 6.456L9.8472 6.356L9.8759 6.2526L9.8977 6.1492L9.915 6.0437L9.9264 5.9379L9.9322 5.8323V5.7254L9.9265 5.6197L9.915 5.5141L9.8977 5.4084L9.8759 5.3051L9.8472 5.2028L9.814 5.1018L9.7978 5.0658L9.7767 5.0332L9.7524 5.0029L9.7245 4.9762L9.692 4.9541L9.6571 4.9354L9.621 4.9226L9.5826 4.9144L9.5431 4.9121L9.2683 4.8754L8.9919 4.8445ZM9.0058 6H9.4214V6.3324H9.0058V6ZM6.2077 6V6.3324H5.7922V6H6.2077Z" fill="black"/>
</svg>
