<svg width="12" height="12" viewBox="0 0 12 12" fill="none" xmlns="http://www.w3.org/2000/svg">
<path fill-rule="evenodd" clip-rule="evenodd" d="M0.26295 5.36252L5.36255 0.263025C5.71315 -0.087675 6.28686 -0.087675 6.63726 0.263025L11.7371 5.36252C12.0875 5.71322 12.0875 6.28692 11.7371 6.63752L6.63726 11.7371C6.28686 12.0877 5.71315 12.0877 5.36255 11.7371L0.26295 6.63752C-0.08765 6.28692 -0.08765 5.71322 0.26295 5.36252Z" fill="#FFEC00"/>
<path fill-rule="evenodd" clip-rule="evenodd" d="M0.365448 5.52052L5.52055 0.365417C5.65255 0.233417 5.82635 0.167419 6.00005 0.167419C6.17375 0.167419 6.34755 0.233417 6.47955 0.365417L11.6347 5.52052C11.7667 5.65252 11.8326 5.82632 11.8326 6.00002C11.8326 6.17372 11.7667 6.34752 11.6347 6.47952L6.47955 11.6347C6.34755 11.7666 6.17375 11.8326 6.00005 11.8326C5.82635 11.8326 5.65255 11.7666 5.52055 11.6347L0.365448 6.47952C0.233448 6.34752 0.16745 6.17372 0.16745 6.00002C0.16745 5.82632 0.233448 5.65252 0.365448 5.52052ZM5.71175 0.556618L0.556648 5.71182C0.477448 5.79092 0.437851 5.89542 0.437851 6.00002C0.437851 6.10462 0.477448 6.20912 0.556648 6.28832L5.71175 11.4434C5.79095 11.5226 5.89545 11.5622 6.00005 11.5622C6.10465 11.5622 6.20915 11.5226 6.28835 11.4434L11.4435 6.28832C11.5227 6.20912 11.5621 6.10462 11.5621 6.00002C11.5621 5.89542 11.5227 5.79092 11.4435 5.71182L6.28835 0.556618C6.20915 0.477518 6.10465 0.43792 6.00005 0.43792C5.89545 0.43792 5.79095 0.477518 5.71175 0.556618Z" fill="black"/>
<path fill-rule="evenodd" clip-rule="evenodd" d="M7.62065 2.93012C7.62065 3.01962 7.68295 3.22172 7.74375 3.22172C7.88665 3.22172 7.93155 3.09152 7.98975 2.98842C7.96785 2.87672 7.89585 2.72602 7.79295 2.72602C7.72875 2.72602 7.62065 2.88082 7.62065 2.93012ZM5.11095 5.23362H3.51165C3.31815 5.23362 3.01255 5.26202 2.83155 5.30232C2.57855 5.35872 2.52745 5.50552 2.52745 5.84592V6.05002C2.52745 6.29092 2.57535 6.60402 2.77345 6.60402H5.92295C6.09335 6.60402 6.16895 6.35852 6.16895 6.16662V5.75842C6.16895 5.45992 6.06955 5.30102 5.82495 5.29142C5.57825 5.28142 5.38365 5.23362 5.11095 5.23362ZM5.42605 6.26002V5.96162H5.82965V6.26002H5.42605ZM3.23665 5.96162V6.26002H2.83305V5.96162H3.23665ZM5.38165 7.53702C5.38165 7.63132 5.47095 7.68282 5.55385 7.68282H5.75065C5.80805 7.68282 5.87375 7.60502 5.87375 7.53702V7.07052H5.38165V7.53702ZM2.82265 7.53702C2.82265 7.63132 2.91205 7.68282 2.99495 7.68282H3.19175C3.24915 7.68282 3.31475 7.60502 3.31475 7.53702V7.07052H2.82265V7.53702ZM7.07935 7.21632C7.17975 7.21632 7.27625 7.04472 7.27625 6.92472C7.27625 6.83672 7.17585 6.69142 7.10395 6.69142C7.03595 6.69142 6.94915 6.98202 6.93175 7.07052C6.96045 7.12132 7.01135 7.21632 7.07935 7.21632ZM8.23585 3.68822C8.23585 3.79322 8.38345 3.95882 8.38345 4.12562C8.38345 4.27852 8.25535 4.40882 8.20965 4.53192C8.16015 4.66522 8.21165 4.89172 8.21165 5.08782C8.21165 5.19742 8.08855 5.26212 8.08855 5.49602V5.61262C8.08855 5.88912 8.16595 5.92612 8.03285 6.12982C7.94405 6.26582 7.91745 6.39962 7.86425 6.57132C7.74925 6.94252 7.49805 7.01572 7.49805 7.39122L7.28215 7.66072L7.30125 7.68282H9.74335L11.3196 6.04242L8.45205 2.98822C8.43895 2.98822 8.43195 3.03652 8.41215 3.05282C8.41215 3.48232 8.23585 3.36482 8.23585 3.68822ZM6.11975 6.80812C6.11975 6.73982 6.07895 6.69142 6.02135 6.69142H2.72425C2.65785 6.69142 2.65645 6.70542 2.60125 6.72062C2.59285 6.84042 2.57665 6.78572 2.57665 6.89552C2.57665 6.92692 2.64865 7.01222 2.69965 7.01222H6.07055C6.09845 6.88842 6.11975 6.96122 6.11975 6.86642V6.80812ZM7.52225 5.96252V5.99172C7.52225 6.13912 7.56445 6.09232 7.59605 6.19582C7.71165 6.19282 7.86675 6.03092 7.86675 5.96252C7.86675 5.89652 7.80165 5.70012 7.71915 5.70012C7.64815 5.70012 7.52225 5.89172 7.52225 5.96252ZM6.73495 5.64182V5.81672C6.73495 5.88692 6.82325 5.99172 6.88255 5.99172H6.93175C7.06255 5.99172 7.15545 5.86362 7.20245 5.75842C7.14645 5.62032 7.15515 5.29192 6.95635 5.29192C6.80035 5.29192 6.73495 5.45852 6.73495 5.64182ZM7.42385 5.05862V5.08782C7.42385 5.23922 7.48925 5.29862 7.57145 5.35022C7.83015 5.27882 7.86745 5.19562 7.89135 4.85452H7.62065C7.56555 4.85452 7.42385 4.97532 7.42385 5.05862ZM6.98095 4.09642V4.12562C6.98095 4.26972 7.31585 4.44632 7.47305 4.44632C7.69315 4.44632 7.84215 4.13182 7.84215 3.86322C7.84215 3.79492 7.80135 3.74652 7.74375 3.74652H7.62065C7.34285 3.74652 6.98095 3.78912 6.98095 4.09642ZM2.94615 4.94932C2.94575 4.72822 3.00915 4.59992 3.04915 4.42312C3.10215 4.18862 3.14385 4.18632 3.36575 4.15682C3.66705 4.11662 4.10315 4.12562 4.42205 4.12562H4.79105C4.94105 4.12562 5.44355 4.15732 5.53905 4.20142C5.65115 4.25322 5.75065 4.76522 5.75065 4.94402L4.56965 4.88372L3.83085 4.87322L2.94615 4.94932ZM2.69965 5.17522L3.95455 5.11692L4.93925 5.10622L6.02135 5.17522C6.02135 5.08052 5.91215 4.60432 5.88125 4.49562C5.81545 4.26372 5.82545 4.00672 5.61375 3.93792C5.40325 3.86952 4.51565 3.86322 4.22515 3.86322C3.96195 3.86322 3.15395 3.87572 3.01435 3.97372C2.89425 4.05792 2.69965 4.91172 2.69965 5.17522Z" fill="black"/>
</svg>
