<svg width="27" height="41" viewBox="0 0 27 41" fill="none" xmlns="http://www.w3.org/2000/svg">
<path fill-rule="evenodd" clip-rule="evenodd" d="M4.86989 16.753L3.93309 18.1958L3.73999 18.4931L3.73899 18.4947L3.72519 18.5204L3.71709 18.5464L3.71259 18.5737L3.71349 18.6019L3.71799 18.629L3.72799 18.6553L3.74149 18.6796L3.75969 18.7005L3.78129 18.7185L3.80499 18.7331L3.83109 18.743L3.85829 18.7484L3.88649 18.7494L3.91339 18.7458L3.93899 18.737L3.93999 18.7366L4.42599 18.5343L4.42729 18.5375H4.43069V18.5412V19.9139V20.1447L4.43349 20.2248L4.44269 20.305L4.45739 20.3842L4.47859 20.4616L4.50529 20.5381L4.53759 20.6118L4.57439 20.6827L4.61769 20.7509L4.66559 20.8163L4.71809 20.8771L4.77519 20.9343L4.83599 20.9868L4.90049 21.0347L4.96869 21.0771L5.03959 21.1149L5.11329 21.1471L5.18979 21.1738L5.26719 21.1941L5.34639 21.2098L5.42649 21.219L5.50329 21.2217L5.50679 21.2218H6.16429H6.27489V21.2253H6.27839V21.2287V23.8535V24.295H6.91179H7.01548V21.2253H7.01889V21.2218H7.02239H7.22219H7.25928V21.2253H7.26268V23.8559V24.2746V24.295H8.13969H8.28728V21.2734L8.28629 21.2455L8.28448 21.1923L8.27538 21.1131L8.26058 21.0339L8.23939 20.9555L8.21358 20.88L8.18139 20.8063L8.14359 20.7345L8.10019 20.6661L8.05239 20.6018L7.99989 20.5409L7.94369 20.4838L7.88199 20.4313L7.81748 20.3834L7.74938 20.3401L7.67839 20.3032L7.60468 20.271L7.52818 20.2442L7.45059 20.223L7.37158 20.2083L7.29148 20.1991L7.21489 20.1964L7.21119 20.1963H7.01889V20.1928H7.01548V16.7145H6.27839V19.6764V20.1753H6.27489L6.27419 20.1787L6.19748 20.162L6.12139 20.1398L6.04718 20.111L5.97488 20.0777L5.90539 20.0387L5.83949 19.9952L5.77649 19.9469L5.71708 19.8941L5.66149 19.8376L5.61139 19.7763L5.56499 19.7114L5.52328 19.6438L5.48709 19.5733L5.45559 19.501L5.42959 19.4259L5.41009 19.3489L5.39529 19.271L5.38689 19.1913L5.38418 19.1125V18.5375H5.38759L5.38889 18.5343L5.39659 18.5375L5.70018 18.6641L5.87399 18.7366L5.88339 18.7399L5.90049 18.7458L5.92829 18.7494L5.95658 18.7484L5.98379 18.743L6.00988 18.7331L6.03339 18.7186L6.05439 18.7003L6.07248 18.6796L6.08599 18.6553L6.09599 18.629L6.10139 18.6018V18.5736L6.09778 18.5466L6.08869 18.5203L6.07658 18.4962L6.07588 18.4946L4.94499 16.753L4.93439 16.7416L4.92159 16.7347L4.90699 16.7321L4.89239 16.7347L4.87959 16.7416L4.87329 16.749L4.86989 16.753Z" fill="black"/>
<path fill-rule="evenodd" clip-rule="evenodd" d="M5.9999 14.5048C2.6868 14.5048 0 17.1917 0 20.5048C0 23.8179 2.6868 26.5047 5.9999 26.5047C9.313 26.5047 11.9999 23.8179 11.9999 20.5048C11.9999 17.1917 9.313 14.5048 5.9999 14.5048ZM1.2 20.5048C1.2 17.8543 3.3494 15.7048 5.9999 15.7048C8.6504 15.7048 10.7999 17.8543 10.7999 20.5048C10.7999 23.1553 8.6504 25.3047 5.9999 25.3047C3.3494 25.3047 1.2 23.1553 1.2 20.5048Z" fill="#FF0000"/>
<path fill-rule="evenodd" clip-rule="evenodd" d="M9.54631 24.8997L10.3948 24.0511L2.45361 16.1099L1.60501 16.9584L9.54631 24.8997Z" fill="#FF0000" stroke="#FF0000" stroke-width="0.0027"/>
</svg>
