<svg width="9" height="12" viewBox="0 0 9 12" fill="none" xmlns="http://www.w3.org/2000/svg">
<path fill-rule="evenodd" clip-rule="evenodd" d="M0.428299 7.62939e-06H8.14301C8.37891 7.62939e-06 8.5714 0.192507 8.5714 0.428307V11.5716C8.5714 11.8074 8.37891 11.9999 8.14301 11.9999H0.428299C0.192399 11.9999 0 11.8074 0 11.5716V0.428307C0 0.192507 0.192399 7.62939e-06 0.428299 7.62939e-06Z" fill="white"/>
<path fill-rule="evenodd" clip-rule="evenodd" d="M0.554108 0.299904H8.01691C8.15691 0.299904 8.27119 0.414107 8.27119 0.554207V11.4454C8.27119 11.5855 8.15691 11.6997 8.01691 11.6997H0.554108C0.414108 11.6997 0.299896 11.5855 0.299896 11.4454V0.554207C0.299896 0.414107 0.414108 0.299904 0.554108 0.299904Z" fill="white"/>
<path fill-rule="evenodd" clip-rule="evenodd" d="M0.554398 0.171303H8.01691C8.12241 0.171303 8.21821 0.214314 8.28751 0.283714C8.35691 0.353014 8.3999 0.448807 8.3999 0.554207V11.4453C8.3999 11.5508 8.35691 11.6466 8.28751 11.7159C8.21821 11.7853 8.12241 11.8283 8.01691 11.8283H0.554398C0.448898 11.8283 0.353098 11.7853 0.283798 11.7159C0.214398 11.6466 0.171402 11.5508 0.171402 11.4453V0.554207C0.171402 0.448807 0.214398 0.353014 0.283798 0.283714C0.353098 0.214314 0.448898 0.171303 0.554398 0.171303ZM8.01691 0.428413H0.554398C0.519898 0.428413 0.488507 0.442608 0.465607 0.465508C0.442707 0.488308 0.428497 0.519807 0.428497 0.554207V11.4453C0.428497 11.4798 0.442707 11.5112 0.465607 11.5341C0.488507 11.557 0.519898 11.5712 0.554398 11.5712H8.01691C8.05141 11.5712 8.0829 11.557 8.1057 11.5341C8.1286 11.5112 8.14281 11.4798 8.14281 11.4453V0.554207C8.14281 0.519807 8.1286 0.488308 8.1057 0.465508C8.0829 0.442608 8.05141 0.428413 8.01691 0.428413Z" fill="white"/>
<path fill-rule="evenodd" clip-rule="evenodd" d="M1.3257 1.3382H7.24561V7.43331H1.3257V1.3382Z" fill="white"/>
<path fill-rule="evenodd" clip-rule="evenodd" d="M3.64829 6.0566C3.52249 6.1397 3.07489 6.027 3.19239 6.3803C3.22289 6.4721 3.31489 6.52461 3.43019 6.52461L4.99289 6.52371C5.20469 6.52351 5.36649 6.46781 5.39839 6.39001C5.42609 5.98461 5.13449 6.21551 4.94849 6.05241C4.88829 6.00491 4.84609 6.08241 4.84119 5.69341V4.35011C4.84219 3.63891 4.87888 3.7644 3.73628 3.7598C3.52118 3.7589 3.0472 3.73281 3.2013 4.06211C3.3235 4.32291 3.69478 4.00502 3.74878 4.40312L3.75879 5.73071C3.75679 5.91201 3.76229 5.977 3.64829 6.0566Z" fill="black"/>
<path fill-rule="evenodd" clip-rule="evenodd" d="M4.0884 2.27613C3.3344 2.48973 3.58719 3.63322 4.40409 3.45832C5.15319 3.29802 4.9174 2.04113 4.0884 2.27613Z" fill="black"/>
</svg>
