<svg width="180" height="30" viewBox="0 0 180 30" fill="none" xmlns="http://www.w3.org/2000/svg">
<path fill-rule="evenodd" clip-rule="evenodd" d="M41.1358 17.5503C37.8226 17.5503 35.1358 20.2372 35.1358 23.5503C35.1358 26.8634 37.8226 29.5502 41.1358 29.5502C44.4489 29.5502 47.1357 26.8634 47.1357 23.5503C47.1357 20.2372 44.4489 17.5503 41.1358 17.5503ZM36.3358 23.5503C36.3358 20.8998 38.4853 18.7503 41.1358 18.7503C43.7863 18.7503 45.9357 20.8998 45.9357 23.5503C45.9357 26.2008 43.7863 28.3502 41.1358 28.3502C38.4853 28.3502 36.3358 26.2008 36.3358 23.5503Z" fill="#FF0000"/>
<path fill-rule="evenodd" clip-rule="evenodd" d="M43.2703 20.9969C43.2984 20.998 43.3199 21.0117 43.3348 21.0378L44.0149 22.6864C44.0319 22.7302 44.0238 22.7549 43.9812 22.7542C42.0854 22.7542 40.1896 22.7542 38.2937 22.7542C38.2511 22.7549 38.2431 22.7302 38.2601 22.6864L38.9402 21.0378C38.955 21.0117 38.9765 20.998 39.0047 20.9969C40.4265 20.9969 41.8484 20.9969 43.2703 20.9969ZM38.0103 22.8941H44.2613C44.3536 22.8941 44.4291 22.9696 44.4291 23.062V24.6335H37.8844C37.8613 24.6335 37.8424 24.6146 37.8424 24.5915V23.062C37.8424 22.9696 37.918 22.8941 38.0103 22.8941ZM43.2499 25.1554H44.1704V25.967C44.1704 26.0422 44.1089 26.1037 44.0337 26.1037H43.3866C43.3114 26.1037 43.2499 26.0422 43.2499 25.967V25.1554ZM38.1358 25.1554H39.0563V25.967C39.0563 26.0422 38.9948 26.1037 38.9196 26.1037H38.2725C38.1973 26.1037 38.1358 26.0422 38.1358 25.967V25.1554ZM37.6558 24.7208H44.6157V25.0245C44.6157 25.0673 44.5807 25.1024 44.5378 25.1024H37.7337C37.6909 25.1024 37.6558 25.0673 37.6558 25.0245V24.7208ZM42.9957 24.3037H44.0757C44.1087 24.3037 44.1357 24.2767 44.1357 24.2437V23.7637C44.1357 23.7307 44.1087 23.7037 44.0757 23.7037H42.9957C42.9628 23.7037 42.9358 23.7307 42.9358 23.7637V24.2437C42.9358 24.2767 42.9628 24.3037 42.9957 24.3037ZM38.1958 24.3037H39.2758C39.3088 24.3037 39.3358 24.2767 39.3358 24.2437V23.7637C39.3358 23.7307 39.3088 23.7037 39.2758 23.7037H38.1958C38.1628 23.7037 38.1358 23.7307 38.1358 23.7637V24.2437C38.1358 24.2767 38.1628 24.3037 38.1958 24.3037ZM43.5983 22.5012C43.6187 22.5007 43.6291 22.4841 43.6233 22.4656L43.1675 21.3198C43.1618 21.3097 43.1528 21.3037 43.1388 21.3037C41.8046 21.3037 40.4704 21.3037 39.1362 21.3037C39.1222 21.3037 39.1132 21.3097 39.1075 21.3198L38.6517 22.4656C38.6458 22.4841 38.6562 22.5007 38.6767 22.5012C40.3172 22.5012 41.9578 22.5012 43.5983 22.5012Z" fill="black" stroke="#1B1918" stroke-width="0.216"/>
<path fill-rule="evenodd" clip-rule="evenodd" d="M44.6821 27.9452L45.5307 27.0966L37.5894 19.1554L36.7409 20.0039L44.6821 27.9452Z" fill="#FF0000" stroke="#FF0000" stroke-width="0.0027"/>
</svg>
