<svg width="8" height="12" viewBox="0 0 8 12" fill="none" xmlns="http://www.w3.org/2000/svg">
<path fill-rule="evenodd" clip-rule="evenodd" d="M3.11531 4.61451H4.38521V5.88471H3.11531V4.61451Z" fill="white"/>
<path fill-rule="evenodd" clip-rule="evenodd" d="M0.374802 7.62939e-06H7.12491C7.33131 7.62939e-06 7.4996 0.168302 7.4996 0.374702V11.6248C7.4996 11.8312 7.33131 11.9996 7.12491 11.9996H0.374802C0.168402 11.9996 0 11.8312 0 11.6248V0.374702C0 0.168302 0.168402 7.62939e-06 0.374802 7.62939e-06Z" fill="white"/>
<path fill-rule="evenodd" clip-rule="evenodd" d="M1.1602 1.17091H6.33971V6.50411H1.1602V1.17091Z" fill="white"/>
<path fill-rule="evenodd" clip-rule="evenodd" d="M2.4538 5.94381H5.0461V5.23341H3.14171V4.08401H4.8551V3.37371H3.14171V2.44161H4.9825V1.73121H2.4538V5.94381Z" fill="black"/>
<path fill-rule="evenodd" clip-rule="evenodd" d="M0.487305 0.14991H7.01201C7.10501 0.14991 7.1894 0.187809 7.2505 0.248909C7.3116 0.310109 7.3495 0.394504 7.3495 0.487404V11.5121C7.3495 11.6051 7.3116 11.6895 7.2505 11.7506C7.1894 11.8117 7.10501 11.8496 7.01201 11.8496H0.487305C0.394305 11.8496 0.30991 11.8117 0.24881 11.7506C0.18771 11.6895 0.149811 11.6051 0.149811 11.5121V0.487404C0.149811 0.394504 0.18771 0.310109 0.24881 0.248909C0.30991 0.187809 0.394305 0.14991 0.487305 0.14991ZM7.01201 0.374916H0.487305C0.456505 0.374916 0.428398 0.387612 0.407898 0.408012C0.387498 0.428512 0.374802 0.456604 0.374802 0.487404V11.5121C0.374802 11.543 0.387498 11.5711 0.407898 11.5915C0.428398 11.6119 0.456505 11.6246 0.487305 11.6246H7.01201C7.04291 11.6246 7.071 11.6119 7.0914 11.5915C7.1118 11.5711 7.1245 11.543 7.1245 11.5121V0.487404C7.1245 0.456604 7.1118 0.428512 7.0914 0.408012C7.071 0.387612 7.04291 0.374916 7.01201 0.374916Z" fill="white"/>
</svg>
