<svg width="12" height="12" viewBox="0 0 12 12" fill="none" xmlns="http://www.w3.org/2000/svg">
<path fill-rule="evenodd" clip-rule="evenodd" d="M6 1.25C8.6229 1.25 10.75 3.3771 10.75 6C10.75 8.6229 8.6229 10.7499 6 10.7499C3.3771 10.7499 1.25 8.6229 1.25 6C1.25 3.3771 3.3771 1.25 6 1.25ZM11.9999 6C11.9999 2.6868 9.3131 0 6 0C2.6869 0 0 2.6868 0 6C0 9.3131 2.6869 11.9999 6 11.9999C9.3131 11.9999 11.9999 9.3131 11.9999 6Z" fill="#FF0000"/>
<path fill-rule="evenodd" clip-rule="evenodd" d="M6.80591 10.0957H5.26691L5.26591 10.0955L4.49881 10.0957L6.03631 8.55569L7.57401 10.0949L6.80691 10.0951L6.80591 10.0957Z" fill="black"/>
<path fill-rule="evenodd" clip-rule="evenodd" d="M6.78881 1.89529H5.26731L5.26631 1.89549L4.50801 1.89529L6.02791 3.4353L7.54801 1.89619L6.78971 1.89599L6.78881 1.89529Z" fill="black"/>
<path fill-rule="evenodd" clip-rule="evenodd" d="M3.55091 6.32059C3.55091 6.42489 3.52991 6.52099 3.48851 6.60969C3.44661 6.69839 3.38991 6.77579 3.31791 6.84239C3.24591 6.90879 3.16051 6.96089 3.06221 6.99829C2.96351 7.03599 2.85641 7.05499 2.74071 7.05499C2.61491 7.05499 2.49301 7.03239 2.37531 6.98669C2.25741 6.94139 2.15281 6.87219 2.06131 6.77919C2.03521 6.75479 2.01141 6.73099 1.98981 6.70779C1.96861 6.68449 1.93971 6.64849 1.90311 6.59979L2.19531 6.36049C2.26681 6.46229 2.34931 6.53599 2.44371 6.58139C2.53831 6.62699 2.64431 6.64969 2.76201 6.64969C2.88781 6.64969 2.98991 6.62079 3.06811 6.56319C3.14641 6.50569 3.18521 6.42909 3.18521 6.33389C3.18521 6.28089 3.17071 6.22649 3.14101 6.17119C3.11181 6.11589 3.07381 6.07369 3.02701 6.04479C2.99871 6.02949 2.96811 6.01779 2.93551 6.00989C2.90311 6.00219 2.86661 5.99829 2.82581 5.99829H2.72541V5.59969H2.81361C2.89071 5.59969 2.95531 5.57929 3.00721 5.53819C3.05911 5.49709 3.08481 5.44579 3.08481 5.38369C3.08481 5.31739 3.05251 5.26129 2.98731 5.21589C2.92241 5.17059 2.83511 5.14789 2.72541 5.14789C2.64011 5.14789 2.55901 5.16659 2.48191 5.20429C2.40451 5.24199 2.33571 5.29609 2.27471 5.36699L2.00371 5.09459C2.20871 4.86439 2.45641 4.74899 2.74701 4.74899C2.84821 4.74899 2.94281 4.76459 3.03011 4.79549C3.11741 4.82669 3.19261 4.87039 3.25551 4.92679C3.31811 4.98349 3.36771 5.04979 3.40291 5.12629C3.43861 5.20259 3.45651 5.28509 3.45651 5.37379C3.45651 5.44919 3.44431 5.51719 3.41991 5.57819C3.39551 5.63909 3.35271 5.71139 3.29211 5.79559C3.34281 5.84439 3.38421 5.88939 3.41681 5.93019C3.44911 5.97129 3.47571 6.01159 3.49591 6.05159C3.51631 6.09149 3.53051 6.13289 3.53871 6.17599C3.54661 6.21939 3.55091 6.26759 3.55091 6.32059ZM4.15071 6.91219C4.15071 6.98299 4.13761 7.05049 4.11131 7.11479C4.08461 7.17889 4.04641 7.23449 3.99531 7.28099L3.87971 7.21769C3.90211 7.19339 3.92251 7.16669 3.94061 7.13809C3.95911 7.10919 3.97241 7.08139 3.98031 7.05499H3.95911C3.90631 7.05499 3.86211 7.03599 3.82641 6.99829C3.79101 6.96089 3.77311 6.91639 3.77311 6.86569C3.77311 6.80789 3.78871 6.75769 3.82021 6.71429C3.85191 6.67119 3.89301 6.64969 3.94371 6.64969C4.00471 6.64969 4.05431 6.67289 4.09281 6.71939C4.13141 6.76589 4.15071 6.83019 4.15071 6.91219ZM6.20661 5.88889C6.20661 6.03259 6.19081 6.17399 6.15931 6.31239C6.12781 6.45069 6.07821 6.57539 6.01021 6.68619C5.94221 6.79679 5.85431 6.88609 5.74661 6.95359C5.63911 7.02099 5.50821 7.05499 5.35371 7.05499C5.20151 7.05499 5.07111 7.02219 4.96251 6.95699C4.85401 6.89149 4.76491 6.80469 4.69581 6.69619C4.62721 6.58759 4.57621 6.46399 4.54361 6.32569C4.51121 6.18729 4.49511 6.04479 4.49511 5.89879C4.49511 5.75249 4.51181 5.61019 4.54531 5.47189C4.57871 5.33329 4.63031 5.21079 4.70061 5.10449C4.77061 4.99819 4.85931 4.91259 4.96711 4.84709C5.07481 4.78189 5.20371 4.74899 5.35371 4.74899C5.50621 4.74899 5.63601 4.78219 5.74351 4.84879C5.85121 4.91519 5.93961 5.00219 6.00851 5.10959C6.07771 5.21699 6.12781 5.33889 6.15931 5.47499C6.19081 5.61129 6.20661 5.74909 6.20661 5.88889ZM5.84101 5.89879C5.84101 5.66379 5.79851 5.48009 5.71311 5.34719C5.62781 5.21419 5.50821 5.14789 5.35371 5.14789C5.26241 5.14789 5.18531 5.17109 5.12241 5.21759C5.05951 5.26409 5.00871 5.32329 4.97021 5.39529C4.93161 5.46729 4.90361 5.54699 4.88631 5.63459C4.86901 5.72219 4.86051 5.80669 4.86051 5.88889C4.86051 6.13689 4.90411 6.32679 4.99141 6.45859C5.07871 6.59039 5.19951 6.65619 5.35371 6.65619C5.42881 6.65619 5.49661 6.63809 5.55611 6.60149C5.61621 6.56489 5.66751 6.51279 5.71001 6.44529C5.75251 6.37779 5.78541 6.29679 5.80751 6.20269C5.82991 6.10849 5.84101 6.00389 5.84101 5.88889V5.89879ZM9.10931 7.01509V6.04479C9.10931 5.95409 9.08581 5.88209 9.03901 5.82899C8.99251 5.77579 8.92931 5.74909 8.85051 5.74909C8.81401 5.74909 8.77991 5.75699 8.74851 5.77239C8.71701 5.78789 8.68951 5.80839 8.66601 5.83389C8.64271 5.85939 8.62431 5.88939 8.61131 5.92369C8.59821 5.95799 8.59141 5.99399 8.59141 6.03169V7.01509H8.24111V6.04479C8.24111 6.00279 8.23411 5.96339 8.21981 5.92679C8.20591 5.89029 8.18641 5.85879 8.16231 5.83219C8.13761 5.80579 8.10871 5.78509 8.07521 5.77069C8.04181 5.75649 8.00661 5.74909 7.97011 5.74909C7.89921 5.74909 7.84081 5.77689 7.79491 5.83219C7.74931 5.88769 7.72661 5.95629 7.72661 6.03819V7.01509H7.36121V5.39019H7.72661V5.52319C7.76941 5.47669 7.82211 5.43649 7.88501 5.40189C7.94771 5.36759 8.01681 5.35059 8.09201 5.35059C8.24421 5.35059 8.37321 5.41579 8.47891 5.54639C8.52141 5.50869 8.56111 5.47729 8.59771 5.45179C8.63401 5.42619 8.67021 5.40639 8.70571 5.39189C8.74141 5.37779 8.77711 5.36699 8.81401 5.36049C8.85051 5.35399 8.88911 5.35059 8.92931 5.35059C9.00871 5.35059 9.08131 5.36449 9.14731 5.39189C9.21311 5.41969 9.27061 5.45799 9.31941 5.50669C9.36811 5.55549 9.40641 5.61359 9.43361 5.68109C9.46111 5.74849 9.47471 5.82109 9.47471 5.89879V7.01509H9.10931Z" fill="black"/>
</svg>
