<svg width="12" height="12" viewBox="0 0 12 12" fill="none" xmlns="http://www.w3.org/2000/svg">
<path fill-rule="evenodd" clip-rule="evenodd" d="M0.26295 5.36244L5.36245 0.26295C5.71315 -0.08765 6.28685 -0.08765 6.63725 0.26295L11.737 5.36244C12.0873 5.71314 12.0873 6.28685 11.737 6.63755L6.63725 11.737C6.28685 12.0876 5.71315 12.0876 5.36245 11.737L0.26295 6.63755C-0.08765 6.28685 -0.08765 5.71314 0.26295 5.36244Z" fill="#FFEC00"/>
<path fill-rule="evenodd" clip-rule="evenodd" d="M0.365356 5.52055L5.52055 0.365341C5.65255 0.233441 5.82635 0.167442 6.00005 0.167442C6.17375 0.167442 6.34755 0.233441 6.47945 0.365341L11.6347 5.52055C11.7667 5.65255 11.8326 5.82635 11.8326 6.00005C11.8326 6.17375 11.7667 6.34755 11.6347 6.47945L6.47945 11.6346C6.34755 11.7666 6.17375 11.8326 6.00005 11.8326C5.82635 11.8326 5.65245 11.7666 5.52055 11.6346L0.365356 6.47945C0.233356 6.34755 0.16745 6.17375 0.16745 6.00005C0.16745 5.82635 0.233356 5.65255 0.365356 5.52055ZM5.71175 0.556541L0.556549 5.71175C0.477449 5.79085 0.437851 5.89545 0.437851 6.00005C0.437851 6.10465 0.477449 6.20915 0.556549 6.28825L5.71175 11.4434C5.79085 11.5225 5.89535 11.5621 6.00005 11.5621C6.10465 11.5621 6.20915 11.5225 6.28825 11.4434L11.4435 6.28825C11.5226 6.20915 11.5621 6.10465 11.5621 6.00005C11.5621 5.89545 11.5226 5.79085 11.4435 5.71175L6.28825 0.556541C6.20915 0.477441 6.10465 0.437843 6.00005 0.437843C5.89535 0.437843 5.79085 0.477441 5.71175 0.556541Z" fill="black"/>
<path fill-rule="evenodd" clip-rule="evenodd" d="M7.17374 4.42684C7.47784 4.42684 7.78185 4.42684 8.08605 4.42684C8.21505 4.46314 8.22924 4.58834 8.25434 4.66914C8.33924 5.17384 8.41285 5.67854 8.49775 6.18324C8.49725 6.34174 8.20454 6.35624 8.16724 6.18324C8.16024 6.00964 8.15115 5.83604 8.14375 5.66244C8.09525 5.48474 8.04674 5.30705 7.99824 5.12945C8.02244 6.17115 8.04264 7.21285 8.06684 8.25455C8.04674 8.43495 7.75654 8.44575 7.70704 8.25455C7.65044 7.60455 7.59394 6.95444 7.53744 6.30434C7.49704 6.88174 7.45664 7.45914 7.41624 8.03654C7.34954 8.18434 7.13374 8.19264 7.07664 8.02444C7.10904 7.34204 7.14134 6.65964 7.17374 5.97734C7.14944 5.66644 7.12524 5.35555 7.10094 5.04465C7.04434 5.17785 6.98774 5.31114 6.93114 5.44434C6.93114 5.66644 6.93114 5.88854 6.93114 6.11054C6.93214 6.27104 6.71324 6.27394 6.70084 6.11054C6.70084 5.88444 6.67295 5.65834 6.67295 5.43224C6.76995 5.14964 6.86695 4.86694 6.96395 4.58434C7.02465 4.46724 7.11304 4.41474 7.17374 4.42684Z" fill="black"/>
<path fill-rule="evenodd" clip-rule="evenodd" d="M7.54354 3.56684C7.74054 3.56684 7.90124 3.72734 7.90124 3.92414C7.90124 4.12104 7.74054 4.28155 7.54354 4.28155C7.34654 4.28155 7.18584 4.12104 7.18584 3.92414C7.18584 3.72734 7.34654 3.56684 7.54354 3.56684Z" fill="black"/>
<path fill-rule="evenodd" clip-rule="evenodd" d="M3.92966 4.36694C4.13456 4.36694 4.33946 4.36694 4.54436 4.36694C4.93906 4.59894 5.05405 4.96495 4.97755 5.39175C4.93005 5.44045 4.87855 5.44045 4.79855 5.39175C4.79555 5.25085 4.79155 5.10995 4.78845 4.96905C4.74145 4.90865 4.68205 4.84824 4.63505 4.78784C4.63505 5.00264 4.63505 5.21335 4.63505 5.42815C4.75255 5.42815 4.87015 5.42815 4.98765 5.42815C4.98765 5.47515 4.98765 5.52164 4.98765 5.56864C4.87015 5.56864 4.75255 5.56864 4.63505 5.56864C4.63505 5.76654 4.63505 5.96924 4.63505 6.16714C4.71565 6.26434 4.79625 6.36155 4.87685 6.45875C4.87685 6.88155 4.87685 7.30424 4.87685 7.72704C4.88805 7.85084 4.56375 7.87664 4.55295 7.72704C4.55295 7.38464 4.55295 7.04224 4.55295 6.69984C4.51755 6.58544 4.44454 6.53195 4.31254 6.53925C4.31254 6.56615 4.31305 6.64475 4.31305 6.67165C4.34005 6.67175 4.36675 6.67155 4.39375 6.67165C4.39375 7.20175 4.39375 7.76114 4.39375 8.29124C4.38475 8.48044 4.14915 8.48044 4.13045 8.29124C4.13045 7.75414 4.13095 7.20865 4.13095 6.67165C4.15125 6.67215 4.18095 6.67115 4.20135 6.67165C4.20135 6.64475 4.20096 6.56615 4.20096 6.53925C4.11326 6.55375 4.05695 6.60075 4.05055 6.68015C4.05055 6.90495 4.05055 7.12974 4.05055 7.35464C4.04855 7.46994 3.90495 7.46504 3.90915 7.35664C3.91515 7.25664 3.91915 7.15684 3.91955 7.05464C3.82765 7.05404 3.74605 7.05434 3.59265 7.05464C3.59255 7.01134 3.59315 7.00184 3.59265 6.95074C3.73315 6.95094 3.80935 6.95085 3.91875 6.95135C3.91785 6.85785 3.91475 6.76324 3.90875 6.66944C3.92305 6.50444 4.04175 6.42065 4.20235 6.41805C4.20325 6.40355 4.20305 6.39274 4.20235 6.37174C4.11265 6.32404 3.95855 6.30484 3.86885 6.25704C3.86885 6.43484 3.87485 6.61264 3.87485 6.79054C3.85045 6.97924 3.57025 6.96094 3.57635 6.79054C3.57635 6.49174 3.57635 6.19294 3.57635 5.89414C3.59145 5.76044 3.70695 5.80224 3.84215 5.87844C3.86025 5.88984 3.86935 5.87744 3.86935 5.86604C3.86935 5.77374 3.86935 5.66574 3.86935 5.56824C3.72495 5.56804 3.66236 5.56884 3.52736 5.56824C3.52796 5.52344 3.52716 5.49065 3.52736 5.42895C3.57116 5.43095 3.73356 5.42995 3.87056 5.43095C3.87056 5.20305 3.86955 4.97225 3.86955 4.74445C3.80425 4.81125 3.76525 4.87284 3.71435 4.93044C3.69945 4.98104 3.68785 5.03455 3.67425 5.08375C3.68885 5.15325 3.69355 5.22064 3.70395 5.27924C3.71535 5.41504 3.52915 5.43445 3.50535 5.27895C3.47455 4.85405 3.65176 4.49954 3.92966 4.36694Z" fill="black"/>
<path fill-rule="evenodd" clip-rule="evenodd" d="M4.57224 7.85085H4.86704C4.87104 7.85085 4.87504 7.85384 4.87504 7.85784V7.93655C4.87504 7.94055 4.87104 7.94454 4.86704 7.94454H4.57224C4.56824 7.94454 4.56425 7.94155 4.56425 7.93655V7.85784C4.56425 7.85384 4.56824 7.85085 4.57224 7.85085Z" fill="black"/>
<path fill-rule="evenodd" clip-rule="evenodd" d="M4.20304 3.77995C4.34264 3.77995 4.45644 3.89364 4.45644 4.03304C4.45644 4.17244 4.34264 4.28604 4.20304 4.28604C4.06354 4.28604 3.94975 4.17244 3.94975 4.03304C3.94975 3.89364 4.06354 3.77995 4.20304 3.77995Z" fill="black"/>
</svg>
