<svg width="12" height="12" viewBox="0 0 12 12" fill="none" xmlns="http://www.w3.org/2000/svg">
<path fill-rule="evenodd" clip-rule="evenodd" d="M5.9999 1.2C3.3494 1.2 1.2 3.3495 1.2 6C1.2 8.6505 3.3494 10.8 5.9999 10.8C8.6504 10.8 10.7999 8.6505 10.7999 6C10.7999 3.3495 8.6504 1.2 5.9999 1.2ZM0 6C0 2.6869 2.6868 0 5.9999 0C9.3131 0 11.9999 2.6869 11.9999 6C11.9999 9.3131 9.3131 11.9999 5.9999 11.9999C2.6868 11.9999 0 9.3131 0 6Z" fill="#FF0000"/>
<path fill-rule="evenodd" clip-rule="evenodd" d="M5.9512 7.1589L6.10931 7.4936C6.23511 7.4263 6.3208 7.2952 6.3208 7.145C6.3208 6.9266 6.1396 6.7484 5.9175 6.7484C5.6954 6.7484 5.51431 6.9266 5.51431 7.145C5.51431 7.3634 5.6954 7.5415 5.9175 7.5415C5.9683 7.5415 6.01691 7.5321 6.06181 7.5152L5.9019 7.1783C5.8894 7.1726 5.88081 7.1602 5.88081 7.1458C5.88081 7.1261 5.89711 7.11 5.91721 7.11C5.93731 7.11 5.9537 7.1261 5.9537 7.1458C5.9537 7.1504 5.9528 7.1548 5.9512 7.1589ZM3.52731 7.1847C3.34121 7.1847 3.1903 7.0363 3.1903 6.8533C3.1903 6.7003 3.2957 6.5716 3.4389 6.5334L3.7554 5.8289C3.6678 5.8073 3.5763 5.7958 3.4821 5.7958C2.8597 5.7958 2.3521 6.295 2.3521 6.907C2.3521 7.5189 2.8597 8.018 3.4821 8.018C4.1044 8.018 4.61201 7.5189 4.61201 6.907C4.61201 6.4779 4.3625 6.1044 3.9989 5.9194L3.70451 6.5713C3.80041 6.6297 3.8644 6.7342 3.8644 6.8533C3.8644 7.0363 3.71351 7.1847 3.52731 7.1847ZM3.4821 5.5181C2.7041 5.5181 2.0697 6.142 2.0697 6.907C2.0697 7.6719 2.7041 8.2958 3.4821 8.2958C4.26 8.2958 4.8945 7.6719 4.8945 6.907C4.8945 6.365 4.576 5.8939 4.1137 5.6653L4.2404 5.3847L5.5434 6.7548C5.4378 6.8527 5.3717 6.9915 5.3717 7.145C5.3717 7.4406 5.6169 7.6817 5.9175 7.6817C5.9899 7.6817 6.0589 7.6677 6.1222 7.6424L6.19241 7.7904L6.076 7.8405C6.0488 7.8545 6.06651 7.8982 6.09731 7.8883L6.2369 7.8281C6.2523 7.8227 6.25521 7.8019 6.24831 7.7878L6.1694 7.6209C6.1711 7.62 6.1728 7.6192 6.1744 7.6183L7.3446 7.4193C7.5527 7.932 8.0631 8.2958 8.6572 8.2958C9.4351 8.2958 10.0696 7.6719 10.0696 6.907C10.0696 6.142 9.4351 5.5181 8.6572 5.5181C8.5121 5.5181 8.372 5.5398 8.2401 5.5801L7.81911 4.4343L8.0175 4.1481H8.3122C8.4927 4.145 8.46241 3.8101 8.26611 3.8337L7.5326 3.8823C7.3612 3.909 7.3729 4.145 7.524 4.1481H7.73511L7.6145 4.3219H4.7162L5.0512 3.5736H5.56921C5.69191 3.5736 5.7405 3.5111 5.7405 3.4348C5.7405 3.3584 5.69191 3.2959 5.56921 3.2959H5.17551H4.8931L3.8709 5.5717C3.7473 5.5368 3.6168 5.5181 3.4821 5.5181ZM7.9585 5.7007C7.6174 5.8927 7.3649 6.2205 7.2779 6.6082H6.3112L7.575 4.7861L7.9585 5.7007ZM7.2541 6.7484C7.248 6.8005 7.2448 6.8533 7.2448 6.907C7.2448 7.0381 7.2634 7.1651 7.2983 7.2855L6.3777 7.4331C6.4319 7.3498 6.4634 7.2509 6.4634 7.145C6.4634 6.9882 6.39441 6.8467 6.28481 6.7484H7.2541ZM8.6572 5.7958C8.5458 5.7958 8.438 5.8119 8.3362 5.8417L8.6229 6.6218C8.6328 6.6208 8.5664 6.6203 8.653 6.6203C8.7396 6.6203 8.9491 6.7511 8.9491 6.9114C8.9491 7.0717 8.8161 7.2025 8.653 7.2025C8.6417 7.2025 8.63051 7.2019 8.61951 7.2006V7.2025L7.63071 7.3707C7.81001 7.7522 8.203 8.018 8.6572 8.018C9.2795 8.018 9.7871 7.5189 9.7871 6.907C9.7871 6.295 9.2795 5.7958 8.6572 5.7958ZM8.06721 5.9601C7.82751 6.1052 7.6465 6.3358 7.5689 6.6082H8.33891L8.06721 5.9601ZM7.5388 6.7484C7.5312 6.8002 7.52731 6.8531 7.52731 6.907C7.52731 7.0231 7.54551 7.1351 7.57941 7.2405L8.4313 7.1039C8.3851 7.0525 8.357 6.9784 8.357 6.9114C8.357 6.8444 8.37581 6.795 8.40791 6.7484H7.5388ZM4.33051 5.1834L5.7208 6.6444C5.7819 6.621 5.8482 6.6082 5.9175 6.6082H6.0288L7.42191 4.5996H4.5919L4.33051 5.1834ZM8.6198 6.6221C8.6197 6.6221 8.6199 6.6221 8.6198 6.6221Z" fill="black"/>
</svg>
