<svg width="12" height="12" viewBox="0 0 12 12" fill="none" xmlns="http://www.w3.org/2000/svg">
<path fill-rule="evenodd" clip-rule="evenodd" d="M0.263025 5.36244L5.36252 0.26295C5.71322 -0.08765 6.28692 -0.08765 6.63732 0.26295L11.7371 5.36244C12.0874 5.71314 12.0874 6.28685 11.7371 6.63755L6.63732 11.737C6.28692 12.0876 5.71322 12.0876 5.36252 11.737L0.263025 6.63755C-0.087675 6.28685 -0.087675 5.71314 0.263025 5.36244Z" fill="#FFEC00"/>
<path fill-rule="evenodd" clip-rule="evenodd" d="M0.365411 5.52055L5.52061 0.365349C5.65251 0.233349 5.82631 0.167442 6.00001 0.167442C6.17371 0.167442 6.34751 0.233349 6.47951 0.365349L11.6347 5.52055C11.7666 5.65245 11.8326 5.82625 11.8326 5.99995C11.8326 6.17365 11.7666 6.34745 11.6347 6.47945L6.47951 11.6346C6.34751 11.7665 6.17371 11.8326 6.00001 11.8326C5.82631 11.8326 5.65251 11.7665 5.52061 11.6346L0.365411 6.47945C0.233411 6.34745 0.167511 6.17365 0.167511 5.99995C0.167511 5.82625 0.233411 5.65245 0.365411 5.52055ZM5.71181 0.556549L0.556611 5.71175C0.477511 5.79085 0.437911 5.89535 0.437911 5.99995C0.437911 6.10455 0.477511 6.20915 0.556611 6.28825L5.71181 11.4435C5.79091 11.5226 5.89541 11.5621 6.00001 11.5621C6.10461 11.5621 6.20921 11.5226 6.28831 11.4435L11.4435 6.28825C11.5226 6.20915 11.5622 6.10455 11.5622 5.99995C11.5622 5.89535 11.5226 5.79085 11.4435 5.71175L6.28831 0.556549C6.20921 0.477449 6.10461 0.437843 6.00001 0.437843C5.89541 0.437843 5.79091 0.477449 5.71181 0.556549Z" fill="black"/>
<path fill-rule="evenodd" clip-rule="evenodd" d="M7.46011 6.03384C7.94741 6.03384 8.34261 6.42894 8.34261 6.91624C8.34261 7.40354 7.94741 7.79865 7.46011 7.79865C6.97291 7.79865 6.57771 7.40354 6.57771 6.91624C6.57771 6.42894 6.97291 6.03384 7.46011 6.03384ZM6.12561 6.91624C6.12561 7.65314 6.72321 8.25085 7.46011 8.25085C8.19711 8.25085 8.79471 7.65314 8.79471 6.91624C8.79471 6.17934 8.19711 5.58164 7.46011 5.58164C6.72321 5.58164 6.12561 6.17934 6.12561 6.91624Z" fill="black"/>
<path fill-rule="evenodd" clip-rule="evenodd" d="M6.68951 6.91624C6.68951 7.34374 7.03461 7.69035 7.46011 7.69035C7.88571 7.69035 8.23081 7.34374 8.23081 6.91624C8.23081 6.48874 7.88571 6.14214 7.46011 6.14214C7.03461 6.14214 6.68951 6.48874 6.68951 6.91624Z" fill="black"/>
<path fill-rule="evenodd" clip-rule="evenodd" d="M6.37412 5.69665L6.19612 5.89145L6.05592 6.11584L5.95952 6.36124L5.90902 6.62074L5.90762 6.88495L5.95352 7.14515" fill="black"/>
<path fill-rule="evenodd" clip-rule="evenodd" d="M6.3741 5.69665L6.0795 4.97675Z" fill="black"/>
<path fill-rule="evenodd" clip-rule="evenodd" d="M3.22421 5.44044L3.70281 6.83914Z" fill="black"/>
<path fill-rule="evenodd" clip-rule="evenodd" d="M3.55591 4.97675L3.44671 4.99425L3.34831 5.04485L3.27071 5.12364L3.22151 5.22205L3.20541 5.33195L3.22421 5.44044" fill="black"/>
<path fill-rule="evenodd" clip-rule="evenodd" d="M4.43212 7.14515L4.32292 7.01914L4.18752 6.92065L4.03382 6.85595L3.86932 6.82835L3.70282 6.83914" fill="black"/>
<path fill-rule="evenodd" clip-rule="evenodd" d="M7.36971 4.06815L6.34781 4.97675Z" fill="black"/>
<path fill-rule="evenodd" clip-rule="evenodd" d="M7.03872 4.95115L6.64032 5.30565Z" fill="black"/>
<path fill-rule="evenodd" clip-rule="evenodd" d="M7.66082 4.19884L7.63252 4.10384L7.55772 4.03915L7.45932 4.02564L7.36972 4.06815" fill="black"/>
<path fill-rule="evenodd" clip-rule="evenodd" d="M7.66083 5.41285L7.45463 5.38045L7.24563 5.37945L7.03873 5.40974" fill="black"/>
<path fill-rule="evenodd" clip-rule="evenodd" d="M6.34782 4.97675L6.31882 5.06775L6.32822 5.16344L6.37612 5.24635L6.45292 5.30295L6.54602 5.32384L6.64032 5.30565" fill="black"/>
<path fill-rule="evenodd" clip-rule="evenodd" d="M7.66082 5.41285L7.66051 5.41485L7.45442 5.38255L7.24582 5.38155L7.03911 5.41184L7.03872 5.40984H7.03621V4.95715L6.64201 5.30795L6.64032 5.30595L6.64081 5.30795L6.54642 5.32615H6.54541L6.45241 5.30524L6.45152 5.30475L6.37461 5.24815L6.32611 5.16444L6.32572 5.16344L6.31631 5.06775L6.31641 5.06674L6.34542 4.97575L6.34781 4.97655L6.34612 4.97455L7.36802 4.06595L7.45821 4.02345L7.45961 4.02325L7.55812 4.03674L7.55941 4.03735L7.63422 4.10204L7.63492 4.10325L7.66331 4.19824L7.66341 5.41295L7.66082 5.41285Z" fill="black"/>
<path fill-rule="evenodd" clip-rule="evenodd" d="M5.95052 7.14265L5.90512 6.88535L5.90652 6.62074L5.95712 6.36075L6.05362 6.11494L6.19402 5.89005L6.37122 5.69604L6.07782 4.97925H3.55612L3.44742 4.99664L3.34982 5.04684L3.27282 5.12514L3.22402 5.22285L3.20792 5.33185L3.22672 5.43984L3.70462 6.83645L3.86922 6.82584L4.03422 6.85345L4.18842 6.91834L4.32442 7.01704L4.43332 7.14265H5.95052Z" fill="black"/>
<path fill-rule="evenodd" clip-rule="evenodd" d="M3.66512 7.55495C3.66512 7.46285 3.73952 7.38805 3.83122 7.38805C3.92302 7.38805 3.99732 7.46285 3.99732 7.55495C3.99732 7.64715 3.92302 7.72185 3.83122 7.72185C3.73952 7.72185 3.66512 7.64715 3.66512 7.55495ZM4.37552 7.55495C4.37552 7.25305 4.13182 7.00825 3.83122 7.00825C3.53072 7.00825 3.28702 7.25305 3.28702 7.55495C3.28702 7.85685 3.53072 8.10165 3.83122 8.10165C4.13182 8.10165 4.37552 7.85685 4.37552 7.55495Z" fill="black"/>
<path fill-rule="evenodd" clip-rule="evenodd" d="M7.26653 3.35445C7.43123 3.35445 7.56453 3.48794 7.56453 3.65234C7.56453 3.81674 7.43123 3.95025 7.26653 3.95025C7.10213 3.95025 6.96863 3.81674 6.96863 3.65234C6.96863 3.48794 7.10213 3.35445 7.26653 3.35445Z" fill="black" stroke="#1B1918" stroke-width="0.5669"/>
</svg>
