<svg width="180" height="25" viewBox="0 0 180 25" fill="none" xmlns="http://www.w3.org/2000/svg">
<path fill-rule="evenodd" clip-rule="evenodd" d="M97.9724 4.2374C94.6593 4.2374 91.9724 6.9242 91.9724 10.2374C91.9724 13.5505 94.6593 16.2373 97.9724 16.2373C101.285 16.2373 103.972 13.5505 103.972 10.2374C103.972 6.9242 101.285 4.2374 97.9724 4.2374ZM93.1724 10.2374C93.1724 7.5869 95.3219 5.4374 97.9724 5.4374C100.623 5.4374 102.772 7.5869 102.772 10.2374C102.772 12.8879 100.623 15.0373 97.9724 15.0373C95.3219 15.0373 93.1724 12.8879 93.1724 10.2374Z" fill="#FF0000"/>
<path fill-rule="evenodd" clip-rule="evenodd" d="M99.9626 13.8027L98.8317 12.0184L98.8189 11.9931L98.8099 11.9662L98.8053 11.9384L98.8063 11.9097L98.8117 11.8819L98.8207 11.855L98.8352 11.83L98.8524 11.8086L98.8741 11.7901L98.8978 11.7752L98.9239 11.7651L98.951 11.7595L98.9793 11.7586L99.0062 11.7622L99.0335 11.7716L99.5427 11.9883L99.5441 11.985H99.5475V8.5163L99.5448 8.4244L99.5355 8.3314L99.5216 8.2403L99.5003 8.1502L99.4744 8.061L99.4428 7.9747L99.4049 7.8902L99.3623 7.8086L99.315 7.7299L99.2622 7.6539L99.2047 7.5828L99.1427 7.5145L99.0769 7.4509L99.0065 7.392L98.9333 7.3389L98.8564 7.2895L98.7767 7.2459L98.6942 7.2079L98.609 7.1748L98.5228 7.1481L98.4338 7.1273L98.3449 7.1121L98.2551 7.1026L98.1642 7.0997L98.0744 7.1025L97.9835 7.1121L97.8946 7.1272L97.8066 7.1481L97.7195 7.1747L97.6351 7.2079L97.5527 7.2458L97.473 7.2894L97.3961 7.3388L97.322 7.3919L97.2524 7.4507L97.1857 7.5143L97.1245 7.5826L97.0671 7.6537L97.0143 7.7297L96.9661 7.8084L96.9235 7.89L96.8864 7.9744L96.854 8.0608L96.828 8.15L96.8076 8.2401L96.7928 8.3311L96.7835 8.4241L96.7807 8.5162V13.8233H95.8754V8.5164L95.8791 8.3982L95.8874 8.279L95.9021 8.162L95.9224 8.0448L95.9492 7.9295L95.9805 7.8152L96.0184 7.7027L96.0608 7.5921L96.1098 7.4844L96.1633 7.3795L96.2223 7.2765L96.286 7.1773L96.3543 7.0818L96.4281 6.9901L96.5057 6.9013L96.5878 6.8172L96.6738 6.7377L96.7631 6.6632L96.8573 6.5923L96.9541 6.5271L97.0538 6.4666L97.1562 6.4118L97.2616 6.3626L97.3695 6.3182L97.4793 6.2795L97.5909 6.2473L97.7035 6.2209L97.818 6.1991L97.9324 6.184L98.0487 6.1755L98.1641 6.1727L98.2803 6.1755L98.3959 6.184L98.511 6.1991L98.6246 6.2208L98.7381 6.2473L98.8497 6.2794L98.9587 6.3181L99.0666 6.3626L99.1718 6.4117L99.2752 6.4665L99.3749 6.527L99.4718 6.5922L99.565 6.663L99.6545 6.7377L99.7413 6.8171L99.8225 6.9012L99.9011 6.9902L99.9738 7.0817L100.042 7.1772L100.107 7.2765L100.165 7.3794L100.219 7.4843L100.267 7.5921L100.311 7.7025L100.348 7.815L100.38 7.9293L100.406 8.0446L100.426 8.162L100.441 8.279L100.45 8.3981L100.453 8.5164V11.985H100.456L100.457 11.9883L100.966 11.7716L100.993 11.7622L101.02 11.7586L101.049 11.7595L101.076 11.7651L101.102 11.7752L101.125 11.7901L101.147 11.8086L101.164 11.83L101.179 11.8551L101.189 11.8818L101.194 11.9096L101.195 11.9384L101.19 11.9662L101.181 11.9931L101.168 12.0184L100.037 13.8028L100.027 13.8135L100.013 13.8206L99.9996 13.8232L99.985 13.8206L99.9721 13.8135L99.9626 13.8027Z" fill="black"/>
<path fill-rule="evenodd" clip-rule="evenodd" d="M101.519 14.6323L102.367 13.7837L94.4261 5.8425L93.5775 6.691L101.519 14.6323Z" fill="#FF0000" stroke="#FF0000" stroke-width="0.0027"/>
</svg>
