<svg width="12" height="12" viewBox="0 0 12 12" fill="none" xmlns="http://www.w3.org/2000/svg">
<path fill-rule="evenodd" clip-rule="evenodd" d="M0.26295 5.36253L5.36245 0.263025C5.71315 -0.087675 6.28685 -0.087675 6.63725 0.263025L11.737 5.36253C12.0873 5.71323 12.0873 6.28693 11.737 6.63753L6.63725 11.7371C6.28685 12.0877 5.71315 12.0877 5.36245 11.7371L0.26295 6.63753C-0.08765 6.28693 -0.08765 5.71323 0.26295 5.36253Z" fill="#FFEC00"/>
<path fill-rule="evenodd" clip-rule="evenodd" d="M0.365349 5.52052L5.52055 0.365425C5.65255 0.233425 5.82635 0.167427 6.00005 0.167427C6.17365 0.167427 6.34755 0.233425 6.47945 0.365425L11.6346 5.52052C11.7666 5.65252 11.8326 5.82632 11.8326 6.00002C11.8326 6.17372 11.7666 6.34752 11.6346 6.47952L6.47945 11.6346C6.34755 11.7666 6.17375 11.8326 6.00005 11.8326C5.82635 11.8326 5.65245 11.7666 5.52055 11.6346L0.365349 6.47952C0.233349 6.34752 0.16745 6.17372 0.16745 6.00002C0.16745 5.82632 0.233349 5.65252 0.365349 5.52052ZM5.71175 0.556625L0.556549 5.71172C0.477449 5.79092 0.437851 5.89542 0.437851 6.00002C0.437851 6.10462 0.477449 6.20912 0.556549 6.28832L5.71175 11.4434C5.79085 11.5226 5.89535 11.5622 6.00005 11.5622C6.10465 11.5622 6.20915 11.5226 6.28825 11.4434L11.4435 6.28832C11.5226 6.20912 11.5621 6.10462 11.5621 6.00002C11.5621 5.89542 11.5226 5.79092 11.4435 5.71172L6.28825 0.556625C6.20915 0.477425 6.10465 0.437927 6.00005 0.437927C5.89535 0.437927 5.79085 0.477425 5.71175 0.556625Z" fill="black"/>
<path fill-rule="evenodd" clip-rule="evenodd" d="M8.84235 5.21252C8.84235 5.26242 8.94175 5.39622 8.99985 5.39622H9.02615C9.15245 5.39622 9.31494 5.32422 9.31494 5.21252C9.31494 5.11322 9.19344 4.92372 9.10484 4.92372H9.07864C8.99024 4.92372 8.84235 5.11912 8.84235 5.21252Z" fill="black"/>
<path fill-rule="evenodd" clip-rule="evenodd" d="M2.90925 5.26502C2.90925 5.12602 3.12944 4.73812 3.17184 4.55612H5.56084C5.64934 4.55612 5.87585 5.13472 5.87585 5.26502C5.87585 5.30172 5.84005 5.31753 5.79705 5.31753H2.98804C2.94504 5.31753 2.90925 5.30172 2.90925 5.26502ZM2.62054 5.44872C2.62054 5.48552 2.65625 5.50123 2.69925 5.50123H6.16465C6.16465 5.30123 5.80725 4.34612 5.66585 4.34612H3.14555C2.97735 4.34612 2.89175 4.70613 2.83855 4.85293C2.78955 4.98793 2.62054 5.33272 2.62054 5.44872Z" fill="black"/>
<path fill-rule="evenodd" clip-rule="evenodd" d="M8.97365 5.76382V5.81632C8.97365 5.92452 9.06184 6.05253 9.15744 6.05253H9.28865C9.30235 5.99373 9.31494 5.99223 9.31494 5.92133V5.89503C9.31494 5.75963 9.20564 5.68503 9.07864 5.68503H9.05235C8.99185 5.68503 8.97365 5.70332 8.97365 5.76382Z" fill="black"/>
<path fill-rule="evenodd" clip-rule="evenodd" d="M9.73495 6.10503V6.26263C9.73495 6.33503 9.86515 6.42013 9.91875 6.42013H9.94495C10.0747 6.42013 10.1812 6.31362 10.1812 6.18382V6.10503C10.1812 6.01663 10.1348 5.92133 10.0499 5.92133H9.97125C9.86875 5.92133 9.73495 6.02143 9.73495 6.10503Z" fill="black"/>
<path fill-rule="evenodd" clip-rule="evenodd" d="M6.53215 6.99763C6.54115 6.97693 6.55835 6.89992 6.55835 6.86642C6.55835 6.78572 6.48145 6.76142 6.40085 6.76142H2.35795C2.29655 6.76142 2.25294 6.80492 2.25294 6.86642V6.91892C2.25294 6.99962 2.32985 7.02393 2.41045 7.02393H6.40085C6.47175 7.02393 6.47325 7.01133 6.53215 6.99763Z" fill="black"/>
<path fill-rule="evenodd" clip-rule="evenodd" d="M9.94495 7.02393C9.94495 6.90133 9.88375 6.84013 9.76125 6.84013H9.57745C9.51595 6.84013 9.47244 6.88372 9.47244 6.94512V6.97143C9.47244 7.09773 9.60344 7.26022 9.70874 7.26022H9.78745C9.85065 7.26022 9.94495 7.16582 9.94495 7.10262V7.02393Z" fill="black"/>
<path fill-rule="evenodd" clip-rule="evenodd" d="M6.21715 7.65392C6.22615 7.63332 6.24335 7.55623 6.24335 7.52273V7.10262H5.66585V7.57523C5.66585 7.63573 5.68404 7.65392 5.74454 7.65392H6.21715Z" fill="black"/>
<path fill-rule="evenodd" clip-rule="evenodd" d="M3.04055 7.65392C3.12125 7.65392 3.14555 7.57702 3.14555 7.49642V7.10262H2.54175V7.54893C2.54175 7.61043 2.58535 7.65392 2.64675 7.65392H3.04055Z" fill="black"/>
<path fill-rule="evenodd" clip-rule="evenodd" d="M6.37045 7.58362C6.49865 7.61942 9.12246 7.20652 9.14086 7.17532C9.16286 7.13802 9.11915 7.06362 9.10375 7.03152C8.83865 7.01932 8.05085 7.22662 7.73005 7.28032C7.52675 7.31442 6.45495 7.46422 6.37045 7.58362Z" fill="black"/>
<path fill-rule="evenodd" clip-rule="evenodd" d="M6.53815 7.16062C6.68955 7.18052 9.60335 6.28893 9.61925 6.25053C9.63825 6.20453 9.57666 6.12712 9.55396 6.09322C9.25086 6.12202 8.38935 6.48442 8.03365 6.59712C7.80815 6.66852 6.61485 7.01142 6.53815 7.16062Z" fill="black"/>
<path fill-rule="evenodd" clip-rule="evenodd" d="M6.29875 5.57722H2.50865C2.45595 5.57722 2.41286 5.60183 2.41286 5.63193V6.61642C2.41286 6.64652 2.45595 6.67113 2.50865 6.67113H6.29875C6.35155 6.67113 6.39465 6.64652 6.39465 6.61642V5.63193C6.39465 5.60183 6.35155 5.57722 6.29875 5.57722ZM5.64635 6.19482C5.64635 6.04992 5.76396 5.93233 5.90896 5.93233C6.05386 5.93233 6.17146 6.04992 6.17146 6.19482C6.17146 6.33982 6.05386 6.45743 5.90896 6.45743C5.76396 6.45743 5.64635 6.33982 5.64635 6.19482ZM2.88846 5.94243C3.03346 5.94243 3.15096 6.06003 3.15096 6.20493C3.15096 6.34993 3.03346 6.46752 2.88846 6.46752C2.74346 6.46752 2.62595 6.34993 2.62595 6.20493C2.62595 6.06003 2.74346 5.94243 2.88846 5.94243Z" fill="black"/>
<path fill-rule="evenodd" clip-rule="evenodd" d="M6.63205 6.49503C6.74305 6.49003 8.71915 5.48443 8.72565 5.45483C8.73365 5.41953 8.67954 5.37183 8.65904 5.35033C8.44544 5.40913 7.87365 5.77732 7.63295 5.90292C7.48035 5.98242 6.66825 6.37843 6.63205 6.49503Z" fill="black"/>
<path fill-rule="evenodd" clip-rule="evenodd" d="M6.67705 6.75713C6.77185 6.76313 8.54105 6.08183 8.54915 6.05733C8.55915 6.02793 8.51735 5.98262 8.50175 5.96252C8.31495 5.99372 7.79624 6.25633 7.58044 6.34193C7.44364 6.39603 6.71815 6.66113 6.67705 6.75713Z" fill="black"/>
</svg>
