<svg width="12" height="12" viewBox="0 0 12 12" fill="none" xmlns="http://www.w3.org/2000/svg">
<path fill-rule="evenodd" clip-rule="evenodd" d="M0.263025 5.36253L5.36252 0.263025C5.71322 -0.087675 6.28692 -0.087675 6.63732 0.263025L11.7371 5.36253C12.0874 5.71323 12.0874 6.28692 11.7371 6.63752L6.63732 11.7371C6.28692 12.0877 5.71322 12.0877 5.36252 11.7371L0.263025 6.63752C-0.087675 6.28692 -0.087675 5.71323 0.263025 5.36253Z" fill="#FFEC00"/>
<path fill-rule="evenodd" clip-rule="evenodd" d="M0.365411 5.52052L5.52061 0.365417C5.65251 0.233417 5.82631 0.167419 6.00001 0.167419C6.17371 0.167419 6.34751 0.233417 6.47951 0.365417L11.6347 5.52052C11.7666 5.65252 11.8326 5.82632 11.8326 6.00002C11.8326 6.17372 11.7666 6.34752 11.6347 6.47952L6.47951 11.6347C6.34751 11.7666 6.17371 11.8326 6.00001 11.8326C5.82631 11.8326 5.65251 11.7666 5.52061 11.6347L0.365411 6.47952C0.233411 6.34752 0.167511 6.17372 0.167511 6.00002C0.167511 5.82632 0.233411 5.65252 0.365411 5.52052ZM5.71181 0.556618L0.556611 5.71181C0.477511 5.79091 0.437911 5.89542 0.437911 6.00002C0.437911 6.10462 0.477511 6.20911 0.556611 6.28831L5.71181 11.4434C5.79091 11.5226 5.89541 11.5622 6.00001 11.5622C6.10461 11.5622 6.20921 11.5226 6.28831 11.4434L11.4435 6.28831C11.5226 6.20911 11.5622 6.10462 11.5622 6.00002C11.5622 5.89542 11.5226 5.79091 11.4435 5.71181L6.28831 0.556618C6.20921 0.477418 6.10461 0.43792 6.00001 0.43792C5.89541 0.43792 5.79091 0.477418 5.71181 0.556618Z" fill="black"/>
<path fill-rule="evenodd" clip-rule="evenodd" d="M5.46283 5.41752H2.82083V6.47591H5.46283V9.17931H6.52393V6.47591H9.17933V5.41752H6.52393V2.82082H5.46283V5.41752Z" fill="black"/>
</svg>
