<svg width="12" height="12" viewBox="0 0 12 12" fill="none" xmlns="http://www.w3.org/2000/svg">
<path fill-rule="evenodd" clip-rule="evenodd" d="M0.263025 5.36252L5.36253 0.263025C5.71323 -0.087675 6.28692 -0.087675 6.63732 0.263025L11.7371 5.36252C12.0874 5.71322 12.0874 6.28693 11.7371 6.63753L6.63732 11.7371C6.28692 12.0877 5.71323 12.0877 5.36253 11.7371L0.263025 6.63753C-0.087675 6.28693 -0.087675 5.71322 0.263025 5.36252Z" fill="#FFEC00"/>
<path fill-rule="evenodd" clip-rule="evenodd" d="M0.365433 5.52052L5.52063 0.365421C5.65253 0.233421 5.82633 0.167419 6.00003 0.167419C6.17373 0.167419 6.34754 0.233421 6.47954 0.365421L11.6347 5.52052C11.7666 5.65252 11.8326 5.82632 11.8326 6.00002C11.8326 6.17372 11.7666 6.34752 11.6347 6.47952L6.47954 11.6347C6.34754 11.7666 6.17373 11.8326 6.00003 11.8326C5.82633 11.8326 5.65253 11.7666 5.52063 11.6347L0.365433 6.47952C0.233433 6.34752 0.167435 6.17372 0.167435 6.00002C0.167435 5.82632 0.233433 5.65252 0.365433 5.52052ZM5.71184 0.556622L0.556625 5.71182C0.477525 5.79092 0.437927 5.89542 0.437927 6.00002C0.437927 6.10462 0.477525 6.20912 0.556625 6.28832L5.71184 11.4434C5.79094 11.5226 5.89543 11.5622 6.00003 11.5622C6.10463 11.5622 6.20923 11.5226 6.28833 11.4434L11.4435 6.28832C11.5226 6.20912 11.5622 6.10462 11.5622 6.00002C11.5622 5.89542 11.5226 5.79092 11.4435 5.71182L6.28833 0.556622C6.20923 0.477522 6.10463 0.43792 6.00003 0.43792C5.89543 0.43792 5.79094 0.477522 5.71184 0.556622Z" fill="black"/>
<path fill-rule="evenodd" clip-rule="evenodd" d="M7.10263 9.07672C7.09173 8.34422 6.45633 7.34182 5.84383 6.92892C5.14783 6.37682 4.92463 5.53282 4.94653 4.75412C4.69883 4.88032 4.45234 5.00762 4.20464 5.13372C4.06014 5.14582 4.02813 5.02412 4.07353 4.92882C4.45233 4.30292 4.82992 3.67712 5.20872 3.05132C5.31082 2.88072 5.41293 2.88072 5.51503 3.05132C5.88883 3.66742 6.26263 4.28362 6.63643 4.89972C6.65753 5.05172 6.58963 5.11482 6.43253 5.08892C6.19943 4.96762 5.96633 4.84632 5.73323 4.72502C5.73023 5.64382 6.50802 6.36072 7.08372 6.89622C7.54782 7.34182 7.88752 8.32722 7.94572 9.07672C7.64952 9.07672 7.39893 9.07672 7.10263 9.07672Z" fill="black"/>
</svg>
