<svg width="12" height="12" viewBox="0 0 12 12" fill="none" xmlns="http://www.w3.org/2000/svg">
<path fill-rule="evenodd" clip-rule="evenodd" d="M0.26295 5.36246L5.36245 0.262958C5.71315 -0.0876424 6.28685 -0.0876424 6.63725 0.262958L11.737 5.36246C12.0874 5.71316 12.0874 6.28686 11.737 6.63756L6.63725 11.7371C6.28685 12.0877 5.71315 12.0877 5.36245 11.7371L0.26295 6.63756C-0.08765 6.28686 -0.08765 5.71316 0.26295 5.36246Z" fill="#FFEC00"/>
<path fill-rule="evenodd" clip-rule="evenodd" d="M0.365349 5.52056L5.52055 0.365364C5.65255 0.233364 5.82635 0.167458 6.00005 0.167458C6.17375 0.167458 6.34755 0.233364 6.47955 0.365364L11.6347 5.52056C11.7667 5.65246 11.8326 5.82626 11.8326 5.99996C11.8326 6.17366 11.7667 6.34745 11.6347 6.47945L6.47955 11.6347C6.34755 11.7667 6.17375 11.8326 6.00005 11.8326C5.82635 11.8326 5.65255 11.7666 5.52055 11.6347L0.365349 6.47945C0.233449 6.34745 0.16745 6.17366 0.16745 5.99996C0.16745 5.82626 0.233449 5.65246 0.365349 5.52056ZM5.71175 0.556557L0.556648 5.71175C0.477448 5.79085 0.437851 5.89536 0.437851 5.99996C0.437851 6.10466 0.477448 6.20916 0.556648 6.28826L5.71175 11.4435C5.79095 11.5226 5.89545 11.5622 6.00005 11.5622C6.10465 11.5622 6.20915 11.5226 6.28825 11.4435L11.4435 6.28826C11.5226 6.20916 11.5621 6.10466 11.5621 5.99996C11.5621 5.89536 11.5226 5.79085 11.4435 5.71175L6.28825 0.556557C6.20915 0.477457 6.10465 0.437859 6.00005 0.437859C5.89545 0.437859 5.79095 0.477457 5.71175 0.556557Z" fill="black"/>
<path fill-rule="evenodd" clip-rule="evenodd" d="M5.52025 6.22807L5.52035 6.46886L5.63065 8.45306C5.52125 8.51036 4.84445 8.84775 4.84445 8.93285V9.19447L5.73825 9.08407L5.73845 9.28165H6.23995V9.08546L7.15625 9.19076L7.15575 8.88926L6.37235 8.45036L6.49625 6.22987L9.22715 6.73136L9.22735 6.16357C9.22735 6.07347 8.07245 5.59267 7.91195 5.51637C7.61915 5.37717 6.81395 4.98326 6.54525 4.92066V4.68076C6.54525 4.38546 6.46635 3.82326 6.40945 3.55186C6.35365 3.28506 6.32255 2.71825 6.00015 2.71825C5.66035 2.71825 5.63155 3.35286 5.56935 3.66126C5.49235 4.04316 5.45495 4.44886 5.45495 4.89886L2.77845 6.11036L2.77275 6.72936L5.52025 6.22807Z" fill="black"/>
</svg>
