<svg width="12" height="12" viewBox="0 0 12 12" fill="none" xmlns="http://www.w3.org/2000/svg">
<path fill-rule="evenodd" clip-rule="evenodd" d="M6 1.25C8.6229 1.25 10.75 3.3771 10.75 6C10.75 8.6229 8.6229 10.75 6 10.75C3.3771 10.75 1.25 8.6229 1.25 6C1.25 3.3771 3.3771 1.25 6 1.25ZM11.9999 6C11.9999 2.6869 9.3131 0 6 0C2.6869 0 0 2.6869 0 6C0 9.3131 2.6869 11.9999 6 11.9999C9.3131 11.9999 11.9999 9.3131 11.9999 6Z" fill="#FF0000"/>
<path fill-rule="evenodd" clip-rule="evenodd" d="M9.3686 5.78189V5.78539H9.96481V6.737H9.3686V6.74039L9.3656 6.7417L9.56741 7.22559L9.5792 7.30819L9.5494 7.38499L9.48621 7.43829L9.405 7.45359L9.32681 7.42719L7.58891 6.29879L7.5715 6.2752V6.24619L7.58891 6.22359L9.32681 5.09409L9.405 5.0687L9.48621 5.084L9.5494 5.13639L9.5792 5.21309L9.56741 5.29569L9.3656 5.78059L9.3686 5.78189Z" fill="black"/>
<path fill-rule="evenodd" clip-rule="evenodd" d="M5.7104 3.10299H4.67841C4.27141 3.28949 3.943 3.61009 3.9194 4.30129V4.72129C3.9194 4.82029 4.0004 4.90129 4.0994 4.90129C4.1984 4.90129 4.2794 4.82029 4.2794 4.72129V4.30129C4.2787 4.06299 4.3537 3.8701 4.5043 3.7226V4.90249H3.9194V5.05249H4.5043V5.36049C4.4639 5.32959 4.4135 5.3112 4.359 5.3112C4.227 5.3112 4.119 5.41919 4.119 5.55119V6.9912C4.119 7.1147 4.2136 7.21719 4.3339 7.22979H4.1228V7.3798H4.60281V7.22979H4.3841C4.5044 7.21719 4.599 7.1147 4.599 6.9912V6.1181C4.5993 6.1138 4.6038 6.103 4.6124 6.1106L5.05151 6.35979C5.09531 6.38939 5.09521 6.4366 5.05161 6.4572C5.04821 6.4588 4.703 6.5419 4.6045 6.8079V7.97899C4.6045 8.02019 4.6383 8.05399 4.6795 8.05399C4.7208 8.05399 4.7545 8.02019 4.7545 7.97899V6.8079C5.0402 6.4765 5.3451 6.5292 5.5865 6.8004V8.35229C5.5865 8.42439 5.6187 8.48939 5.6696 8.53349L5.5265 8.60759V8.80289H6.1265V8.60759L5.9854 8.53169C6.035 8.48759 6.06651 8.42339 6.06651 8.35229V6.22879C6.06651 6.11679 5.9887 6.02209 5.8845 5.99599V5.05249H6.46941V4.90249H5.8845V3.96619C5.9941 4.05049 6.0348 4.14649 6.04 4.30129V4.69199C6.04 4.79099 6.1465 4.90129 6.2455 4.90129C6.3445 4.90129 6.46941 4.79099 6.46941 4.69199V4.25279C6.45861 3.72019 6.0308 3.24929 5.7104 3.10299ZM5.1732 6.58289C5.0742 6.58289 4.9932 6.66389 4.9932 6.76289V9.5229C4.9932 9.6219 5.0742 9.7029 5.1732 9.7029C5.2722 9.7029 5.3532 9.6219 5.3532 9.5229V6.76289C5.3532 6.66389 5.2722 6.58289 5.1732 6.58289ZM5.207 2.13879C4.9592 2.13879 4.757 2.34089 4.757 2.58879C4.757 2.83659 4.9592 3.0388 5.207 3.0388C5.4549 3.0388 5.65701 2.83659 5.65701 2.58879C5.65701 2.34089 5.4549 2.13879 5.207 2.13879ZM5.5632 6.54469C5.51 6.49929 5.4501 6.4663 5.4086 6.4557V6.35749C5.4611 6.38849 5.507 6.42649 5.5632 6.54469Z" fill="black" stroke="#1B1918" stroke-width="0.216"/>
</svg>
