<svg width="12" height="12" viewBox="0 0 12 12" fill="none" xmlns="http://www.w3.org/2000/svg">
<path fill-rule="evenodd" clip-rule="evenodd" d="M6 1.25C8.6229 1.25 10.75 3.3771 10.75 6C10.75 8.6229 8.6229 10.7499 6 10.7499C3.3771 10.7499 1.25 8.6229 1.25 6C1.25 3.3771 3.3771 1.25 6 1.25ZM11.9999 6C11.9999 2.6868 9.3131 0 6 0C2.6869 0 0 2.6868 0 6C0 9.3131 2.6869 11.9999 6 11.9999C9.3131 11.9999 11.9999 9.3131 11.9999 6Z" fill="#FF0000"/>
<path fill-rule="evenodd" clip-rule="evenodd" d="M8.9155 4.0808L8.92841 4.0699L8.92931 4.06881L8.9373 4.05391L8.93771 4.0528L8.9407 4.0358V4.0345L8.93771 4.0178L8.9373 4.0167L8.92931 4.00171L8.9285 4.00071L8.9156 3.9888L7.0426 2.7716L7.0155 2.7574L6.9861 2.7473L6.9556 2.7431H6.9243L6.8937 2.7492L6.8644 2.7602L6.8371 2.77551L6.8135 2.7957L6.79321 2.8189L6.777 2.8453L6.7657 2.8747L6.75961 2.9052L6.7585 2.9367L6.7625 2.96801L6.77261 2.9976L6.9874 3.51471L6.8536 3.5186L6.7133 3.5275L6.57401 3.5434L6.4356 3.5653L6.2982 3.5932L6.1619 3.62801L6.0275 3.6678L5.8951 3.7146L5.7648 3.7663L5.6372 3.8251L5.5119 3.88881L5.3905 3.95741L5.271 4.03201L5.1555 4.11271L5.04411 4.1972L4.9366 4.2869L4.833 4.3824L4.7336 4.4809L4.639 4.5844L4.5494 4.6931L4.4638 4.80441L4.3842 4.9199L4.3095 5.0383L4.24091 5.1608L4.1771 5.28521L4.1184 5.41351L4.0667 5.5439L4.01981 5.6764L3.98 5.8107L3.94521 5.94611L3.9173 6.0843L3.8954 6.22281L3.8794 6.36221L3.8705 6.5025L3.8675 6.6428L3.8674 9.0696H3.8711V9.07341H4.9031V9.0696H4.9068V6.64291L4.90981 6.5299L4.9187 6.4164L4.9346 6.3046L4.9553 6.19341L4.9832 6.08421L5.016 5.9761L5.0546 5.8698L5.0993 5.76561L5.1499 5.66451L5.20551 5.5662L5.2659 5.47091L5.3325 5.3796L5.403 5.29131L5.4783 5.207L5.5588 5.1275L5.64211 5.05111L5.7304 4.98071L5.8226 4.9152L5.9169 4.8537L6.01611 4.7981L6.1174 4.74841L6.2207 4.7038L6.3269 4.6641L6.43501 4.6314L6.5443 4.6036L6.6553 4.5827L6.7674 4.56781L6.8806 4.5579L6.9871 4.5551L6.77261 5.0727L6.7626 5.1017L6.7585 5.1333L6.7594 5.1637L6.7655 5.1951L6.7766 5.22361L6.7927 5.251L6.8131 5.2744L6.8363 5.29461L6.8638 5.31001L6.89301 5.32111L6.9235 5.3273L6.955 5.3274L6.9854 5.3224L7.0148 5.3133L7.0423 5.2981L8.9155 4.0808Z" fill="black"/>
</svg>
