<svg width="12" height="12" viewBox="0 0 12 12" fill="none" xmlns="http://www.w3.org/2000/svg">
<path fill-rule="evenodd" clip-rule="evenodd" d="M0.26295 5.36245L5.36245 0.26295C5.71315 -0.08765 6.28685 -0.08765 6.63725 0.26295L11.737 5.36245C12.0874 5.71315 12.0874 6.28685 11.737 6.63755L6.63725 11.7371C6.28685 12.0877 5.71315 12.0877 5.36245 11.7371L0.26295 6.63755C-0.08765 6.28685 -0.08765 5.71315 0.26295 5.36245Z" fill="#FFEC00"/>
<path fill-rule="evenodd" clip-rule="evenodd" d="M0.365349 5.52055L5.52055 0.365349C5.65255 0.233349 5.82635 0.167351 6.00005 0.167351C6.17375 0.167351 6.34755 0.233349 6.47955 0.365349L11.6347 5.52055C11.7667 5.65245 11.8326 5.82625 11.8326 5.99995C11.8326 6.17365 11.7667 6.34745 11.6347 6.47945L6.47955 11.6347C6.34755 11.7666 6.17375 11.8326 6.00005 11.8326C5.82635 11.8326 5.65255 11.7666 5.52055 11.6347L0.365349 6.47945C0.233449 6.34745 0.16745 6.17365 0.16745 5.99995C0.16745 5.82625 0.233449 5.65245 0.365349 5.52055ZM5.71175 0.556549L0.556648 5.71175C0.477448 5.79085 0.437851 5.89535 0.437851 5.99995C0.437851 6.10455 0.477448 6.20905 0.556648 6.28825L5.71175 11.4435C5.79095 11.5226 5.89545 11.5621 6.00005 11.5621C6.10465 11.5621 6.20915 11.5226 6.28825 11.4435L11.4435 6.28825C11.5226 6.20915 11.5621 6.10455 11.5621 5.99995C11.5621 5.89535 11.5226 5.79085 11.4435 5.71175L6.28825 0.556549C6.20915 0.477449 6.10465 0.437851 6.00005 0.437851C5.89545 0.437851 5.79095 0.477449 5.71175 0.556549Z" fill="black"/>
<path fill-rule="evenodd" clip-rule="evenodd" d="M7.47895 9.17835L6.57495 9.17895L6.57445 4.41025L6.16155 4.61645C6.09915 4.64445 6.02715 4.62545 5.98385 4.56975C5.94055 4.51395 5.93615 4.43445 5.97285 4.37345L7.00975 2.83295C7.01795 2.82185 7.03175 2.81526 7.04665 2.81526C7.06145 2.81516 7.07515 2.82225 7.08335 2.83265L8.12165 4.37205C8.15855 4.43295 8.15415 4.51255 8.11095 4.56835C8.06765 4.62415 7.99565 4.64315 7.93335 4.61525L7.47625 4.41065L7.47895 9.17835Z" fill="black"/>
<path fill-rule="evenodd" clip-rule="evenodd" d="M5.38436 2.91455L4.48026 2.91395L4.47986 7.61295L4.06686 7.40985C4.00456 7.38225 3.93256 7.40085 3.88926 7.45585C3.84596 7.51085 3.84146 7.58925 3.87826 7.64925L4.91506 9.16725C4.92316 9.17815 4.93716 9.18475 4.95196 9.18475C4.96676 9.18475 4.98056 9.17875 4.98866 9.16755L6.02706 7.65065C6.06386 7.59065 6.05956 7.51225 6.01626 7.45725C5.97306 7.40225 5.90106 7.38345 5.83866 7.41095L5.38166 7.61265L5.38436 2.91455Z" fill="black"/>
</svg>
