<svg width="9" height="12" viewBox="0 0 9 12" fill="none" xmlns="http://www.w3.org/2000/svg">
<path fill-rule="evenodd" clip-rule="evenodd" d="M0.428391 7.62939e-06H8.1431C8.379 7.62939e-06 8.5714 0.192513 8.5714 0.428413V11.5716C8.5714 11.8075 8.379 11.9999 8.1431 11.9999H0.428391C0.192491 11.9999 0 11.8075 0 11.5716V0.428413C0 0.192513 0.192491 7.62939e-06 0.428391 7.62939e-06Z" fill="white"/>
<path fill-rule="evenodd" clip-rule="evenodd" d="M0.554199 0.299904H8.017C8.157 0.299904 8.2713 0.414207 8.2713 0.554207V11.4455C8.2713 11.5855 8.157 11.6998 8.017 11.6998H0.554199C0.414199 11.6998 0.300003 11.5855 0.300003 11.4455V0.554207C0.300003 0.414207 0.414199 0.299904 0.554199 0.299904Z" fill="white"/>
<path fill-rule="evenodd" clip-rule="evenodd" d="M0.554398 0.171303H8.017C8.1225 0.171303 8.2183 0.214399 8.2876 0.283699C8.357 0.353099 8.39999 0.448898 8.39999 0.554298V11.4454C8.39999 11.5508 8.357 11.6466 8.2876 11.716C8.2183 11.7853 8.1225 11.8284 8.017 11.8284H0.554398C0.448998 11.8284 0.35319 11.7853 0.28389 11.716C0.21449 11.6466 0.171494 11.5508 0.171494 11.4454V0.554298C0.171494 0.448898 0.21449 0.353099 0.28389 0.283699C0.35319 0.214399 0.448998 0.171303 0.554398 0.171303ZM8.017 0.428505H0.554398C0.519998 0.428505 0.488498 0.442708 0.465698 0.465508C0.442798 0.488408 0.428604 0.519798 0.428604 0.554298V11.4454C0.428604 11.4799 0.442798 11.5113 0.465698 11.5342C0.488498 11.557 0.519998 11.5712 0.554398 11.5712H8.017C8.0515 11.5712 8.08289 11.557 8.10579 11.5342C8.12869 11.5113 8.1429 11.4799 8.1429 11.4454V0.554298C8.1429 0.519798 8.12869 0.488408 8.10579 0.465508C8.08289 0.442708 8.0515 0.428505 8.017 0.428505Z" fill="white"/>
<path fill-rule="evenodd" clip-rule="evenodd" d="M1.32579 1.33831H7.2457V7.43331H1.32579V1.33831Z" fill="white"/>
<path fill-rule="evenodd" clip-rule="evenodd" d="M1.96668 3.57622C1.93558 3.77702 1.93958 4.12972 1.93218 4.35262C1.90678 5.11902 1.77318 5.00511 2.55988 5.00331C2.57258 4.76961 2.65889 4.60172 2.89309 4.59122C3.14799 4.57972 3.23629 4.76111 3.24999 4.99921C3.46229 5.01721 5.20939 5.00622 5.55439 5.00322C5.55339 4.78192 5.6299 4.57791 5.8934 4.58641C6.1493 4.59441 6.21939 4.78901 6.23409 5.00101L6.66358 5.00301C6.63798 4.45431 6.59838 4.31972 6.47408 3.84082C6.43808 3.70232 6.44739 3.55342 6.29609 3.55342H2.06989C2.02859 3.55342 1.98858 3.56012 1.96668 3.57622ZM6.06709 4.27901L6.42579 4.28201C6.43789 4.18281 6.33978 3.82761 6.31548 3.71381L6.0612 3.71422C6.0507 3.82082 6.04329 4.18801 6.06709 4.27901ZM2.08338 4.27501L2.65839 4.28302C2.77919 4.27502 2.74949 4.25362 2.74949 3.99982C2.74949 3.74802 2.77979 3.72812 2.67419 3.71312L2.09019 3.72011C2.06919 3.80761 2.06859 3.88991 2.06689 3.98271L2.06759 4.23282C2.07899 4.28272 2.07158 4.25601 2.08338 4.27501ZM3.6602 4.27301L4.31159 4.28101C4.34059 4.19311 4.33528 3.81292 4.31658 3.71712L3.65229 3.71312C3.63449 3.80122 3.64429 4.01791 3.64329 4.13321C3.64319 4.15051 3.6423 4.18491 3.6434 4.20061C3.6464 4.23751 3.64039 4.19661 3.64739 4.23141C3.65439 4.27041 3.6494 4.25231 3.6602 4.27301ZM4.43688 3.79842C4.43688 4.30572 4.39989 4.28421 4.55039 4.28291L4.98888 4.28241C5.12678 4.28441 5.14289 4.36622 5.12269 3.79842L5.11768 3.72542C4.95248 3.69582 4.69509 3.71282 4.51859 3.71312C4.43499 3.71312 4.43688 3.71712 4.43688 3.79842ZM5.91259 4.27151C5.94929 4.18981 5.94019 3.83171 5.91859 3.72281C5.83929 3.70281 5.32248 3.70191 5.25008 3.72581C5.23648 3.81361 5.24509 3.92551 5.24409 4.01671C5.24409 4.19401 5.21528 4.26671 5.28948 4.28191C5.36228 4.29681 5.86349 4.28861 5.91259 4.27151ZM2.86259 4.26152C2.91639 4.30692 3.1037 4.28151 3.1768 4.28151C3.286 4.28151 3.41789 4.29382 3.51699 4.27652C3.55429 4.12972 3.53799 3.87942 3.52699 3.71962C3.45159 3.70842 2.97878 3.70292 2.90688 3.71262C2.81788 3.72492 2.84718 3.76642 2.84728 3.96622C2.84738 4.04782 2.82429 4.20662 2.86259 4.26152Z" fill="black"/>
<path fill-rule="evenodd" clip-rule="evenodd" d="M5.83689 4.66132C5.46939 4.73862 5.58889 5.29062 5.95949 5.20972C6.28569 5.13842 6.21179 4.58252 5.83689 4.66132Z" fill="black"/>
<path fill-rule="evenodd" clip-rule="evenodd" d="M2.85538 4.66281C2.47798 4.74161 2.61589 5.30181 2.98989 5.20801C3.29909 5.13041 3.22398 4.58601 2.85538 4.66281Z" fill="black"/>
</svg>
