<svg width="12" height="12" viewBox="0 0 12 12" fill="none" xmlns="http://www.w3.org/2000/svg">
<path fill-rule="evenodd" clip-rule="evenodd" d="M6 1.25C8.6228 1.25 10.7499 3.3771 10.7499 6C10.7499 8.6229 8.6228 10.75 6 10.75C3.3771 10.75 1.25 8.6229 1.25 6C1.25 3.3771 3.3771 1.25 6 1.25ZM11.9999 6C11.9999 2.6869 9.3131 0 6 0C2.6868 0 0 2.6869 0 6C0 9.3131 2.6868 11.9999 6 11.9999C9.3131 11.9999 11.9999 9.3131 11.9999 6Z" fill="#FF0000"/>
<path fill-rule="evenodd" clip-rule="evenodd" d="M3.53391 7.7796V8.0339C3.53391 8.0925 3.5516 8.1101 3.6101 8.1101H8.8982C8.9578 8.1101 8.9999 8.068 8.9999 8.0085V7.8051C8.9999 7.7456 8.9578 7.7034 8.8982 7.7034H3.6101C3.5516 7.7034 3.53391 7.7211 3.53391 7.7796Z" fill="black"/>
<path fill-rule="evenodd" clip-rule="evenodd" d="M4.32201 9.1779C4.32201 9.2375 4.36421 9.2796 4.42371 9.2796H4.72881C4.78831 9.2796 4.83051 9.2375 4.83051 9.1779V8.1864H4.32201V9.1779Z" fill="black"/>
<path fill-rule="evenodd" clip-rule="evenodd" d="M3.7373 9.1779C3.7373 9.2375 3.7794 9.2796 3.839 9.2796H4.144C4.2036 9.2796 4.2457 9.2375 4.2457 9.1779V8.1864H3.7373V9.1779Z" fill="black"/>
<path fill-rule="evenodd" clip-rule="evenodd" d="M7.70331 9.2034C7.70331 9.2619 7.72101 9.2796 7.77961 9.2796H8.11011C8.16871 9.2796 8.18641 9.2619 8.18641 9.2034V8.1864H7.70331V9.2034Z" fill="black"/>
<path fill-rule="evenodd" clip-rule="evenodd" d="M8.2881 9.2034C8.2881 9.2619 8.3058 9.2796 8.3643 9.2796H8.6949C8.7534 9.2796 8.7711 9.2619 8.7711 9.2034V8.1864H8.2881V9.2034Z" fill="black"/>
<path fill-rule="evenodd" clip-rule="evenodd" d="M6.5339 3.68649H8.5677C8.6263 3.68649 8.644 3.7041 8.644 3.7627V5.92369C8.644 5.98229 8.6263 5.99999 8.5677 5.99999H6.5084C6.4498 5.99999 6.4322 5.98229 6.4322 5.92369V3.78809C6.4322 3.72859 6.4743 3.68649 6.5339 3.68649ZM8.2118 6.56799C8.4106 6.56799 8.5718 6.72919 8.5718 6.92799C8.5718 7.12669 8.4106 7.28799 8.2118 7.28799C8.013 7.28799 7.8518 7.12669 7.8518 6.92799C7.8518 6.72919 8.013 6.56799 8.2118 6.56799ZM7.5254 3.17799C7.584 3.17799 7.6016 3.1957 7.6016 3.2543V3.38139C7.6016 3.43999 7.584 3.4576 7.5254 3.4576H5.0084C4.9489 3.4576 4.9067 3.4155 4.9067 3.3559V3.27969C4.9067 3.22019 4.9489 3.17799 5.0084 3.17799H7.5254ZM3.5339 2.99999C3.5206 3.05699 3.5085 3.05849 3.5085 3.12709V7.52539C3.5085 7.58489 3.5506 7.62709 3.6101 7.62709H8.9237C8.9822 7.62709 8.9999 7.60939 8.9999 7.55079V3.07629C8.9999 3.01679 8.9578 2.97459 8.8982 2.97459H3.661C3.6209 2.97459 3.5647 2.98809 3.5339 2.99999ZM6.0762 3.7627V5.92369C6.0762 5.98229 6.0585 5.99999 6 5.99999H3.9407C3.8821 5.99999 3.8644 5.98229 3.8644 5.92369V3.71189C3.8952 3.69989 3.9514 3.68649 3.9915 3.68649H6C6.0585 3.68649 6.0762 3.7041 6.0762 3.7627ZM4.2878 6.57479C4.4866 6.57479 4.6478 6.736 4.6478 6.9348C4.6478 7.1336 4.4866 7.2948 4.2878 7.2948C4.089 7.2948 3.9278 7.1336 3.9278 6.9348C3.9278 6.736 4.089 6.57479 4.2878 6.57479Z" fill="black"/>
</svg>
