<svg width="156" height="180" viewBox="0 0 156 180" fill="none" xmlns="http://www.w3.org/2000/svg">
<path fill-rule="evenodd" clip-rule="evenodd" d="M115.975 4.2374C112.662 4.2374 109.975 6.9242 109.975 10.2374C109.975 13.5505 112.662 16.2373 115.975 16.2373C119.288 16.2373 121.975 13.5505 121.975 10.2374C121.975 6.9242 119.288 4.2374 115.975 4.2374ZM111.175 10.2374C111.175 7.5869 113.325 5.4374 115.975 5.4374C118.626 5.4374 120.775 7.5869 120.775 10.2374C120.775 12.8879 118.626 15.0373 115.975 15.0373C113.325 15.0373 111.175 12.8879 111.175 10.2374Z" fill="#FF0000"/>
<path fill-rule="evenodd" clip-rule="evenodd" d="M113.875 13.5373H118.075V12.4244H114.99V10.6236H117.766V9.51069H114.99V8.05029H117.972V6.93739H113.875V13.5373Z" fill="black"/>
<path fill-rule="evenodd" clip-rule="evenodd" d="M119.522 14.6323L120.37 13.7837L112.429 5.8425L111.58 6.691L119.522 14.6323Z" fill="#FF0000" stroke="#FF0000" stroke-width="0.0027"/>
<path fill-rule="evenodd" clip-rule="evenodd" d="M112.429 14.6323L111.58 13.7837L119.522 5.8425L120.37 6.691L112.429 14.6323Z" fill="#FF0000" stroke="#FF0000" stroke-width="0.0027"/>
</svg>
