<svg width="12" height="12" viewBox="0 0 12 12" fill="none" xmlns="http://www.w3.org/2000/svg">
<path fill-rule="evenodd" clip-rule="evenodd" d="M4.34701 9.4946L5.47791 7.7521L5.49072 7.7274L5.49981 7.7011L5.50431 7.674L5.50341 7.6459L5.49801 7.6188L5.48891 7.5925L5.47451 7.5681L5.45721 7.5473L5.43551 7.5292L5.41191 7.5146L5.38581 7.5047L5.35861 7.4993L5.33031 7.4984L5.30341 7.502L5.27621 7.5111L4.76691 7.7227L4.76561 7.7195H4.76211V4.3321L4.76491 4.2423L4.77421 4.1515L4.78801 4.0626L4.80931 3.9745L4.83531 3.8874L4.86681 3.8031L4.90481 3.7206L4.94741 3.6409L4.99461 3.564L5.04741 3.4899L5.10491 3.4204L5.16702 3.3537L5.23281 3.2916L5.30322 3.2341L5.37641 3.1822L5.45321 3.134L5.53301 3.0914L5.61541 3.0543L5.70061 3.0219L5.78681 2.9959L5.87581 2.9756L5.96471 2.9607L6.05461 2.9515L6.14541 2.9487L6.23531 2.9514L6.32611 2.9607L6.41501 2.9755L6.50301 2.9959L6.59011 3.0218L6.67451 3.0543L6.75691 3.0913L6.83661 3.1339L6.91361 3.1821L6.98771 3.234L7.05721 3.2914L7.12391 3.3535L7.18511 3.4203L7.24251 3.4897L7.29541 3.5639L7.34351 3.6407L7.38621 3.7204L7.42321 3.8029L7.45561 3.8872L7.48161 3.9743L7.50201 4.0623L7.51681 4.1512L7.52611 4.2421L7.52891 4.332V9.5147H8.43431V4.3322L8.43061 4.2168L8.42221 4.1003L8.40751 3.9861L8.38721 3.8716L8.36051 3.759L8.32911 3.6474L8.29121 3.5375L8.24881 3.4296L8.19991 3.3243L8.14641 3.2219L8.08731 3.1213L8.02361 3.0244L7.95531 2.9312L7.88151 2.8417L7.80401 2.7549L7.72191 2.6728L7.63591 2.5952L7.54651 2.5223L7.45241 2.4531L7.35551 2.3894L7.25581 2.3304L7.15341 2.2768L7.04801 2.2288L6.94021 2.1855L6.83041 2.1476L6.71871 2.1162L6.60611 2.0904L6.49171 2.0691L6.37731 2.0544L6.26101 2.0461L6.14561 2.0433L6.02931 2.0461L5.91381 2.0544L5.79861 2.0691L5.68511 2.0904L5.57151 2.1162L5.45991 2.1476L5.35101 2.1854L5.24301 2.2288L5.13781 2.2768L5.03441 2.3303L4.93481 2.3894L4.83791 2.453L4.74471 2.5222L4.65511 2.5952L4.56841 2.6726L4.48711 2.7548L4.40861 2.8417L4.33581 2.9311L4.26751 3.0243L4.20281 3.1213L4.14471 3.2218L4.09031 3.3242L4.04221 3.4296L3.99891 3.5374L3.96201 3.6472L3.92971 3.7589L3.90381 3.8715L3.88351 3.9861L3.86881 4.1003L3.85951 4.2166L3.85681 4.3321V7.7195H3.85331L3.85201 7.7227L3.34291 7.5111L3.31551 7.502L3.28851 7.4984L3.26031 7.4993L3.23311 7.5047L3.20701 7.5146L3.18341 7.5292L3.16171 7.5473L3.14441 7.5681L3.12991 7.5926L3.12001 7.6187L3.11551 7.6459L3.11461 7.674L3.11911 7.7011L3.12821 7.7274L3.14101 7.7521L4.27191 9.4947L4.28151 9.5052L4.29531 9.5121L4.30891 9.5147L4.32361 9.5121L4.33651 9.5052L4.34701 9.4946Z" fill="black"/>
<path fill-rule="evenodd" clip-rule="evenodd" d="M5.9999 0C2.6868 0 0 2.6868 0 6C0 9.3131 2.6868 11.9999 5.9999 11.9999C9.3131 11.9999 11.9999 9.3131 11.9999 6C11.9999 2.6868 9.3131 0 5.9999 0ZM9.7915 8.943L3.0569 2.2084C3.8698 1.5765 4.8909 1.2 5.9999 1.2C8.6504 1.2 10.7999 3.3495 10.7999 6C10.7999 7.109 10.4234 8.1301 9.7915 8.943ZM2.2084 3.057L8.9429 9.7915C8.1302 10.4235 7.109 10.7999 5.9999 10.7999C3.3494 10.7999 1.2 8.6505 1.2 6C1.2 4.8909 1.5764 3.8697 2.2084 3.057Z" fill="#FF0000"/>
</svg>
