<svg width="12" height="12" viewBox="0 0 12 12" fill="none" xmlns="http://www.w3.org/2000/svg">
<path fill-rule="evenodd" clip-rule="evenodd" d="M0.26295 5.36253L5.36245 0.263033C5.71315 -0.0876674 6.28685 -0.0876674 6.63725 0.263033L11.737 5.36253C12.0873 5.71314 12.0873 6.28693 11.737 6.63753L6.63725 11.737C6.28685 12.0877 5.71315 12.0877 5.36245 11.737L0.26295 6.63753C-0.08765 6.28693 -0.08765 5.71314 0.26295 5.36253Z" fill="#FFEC00"/>
<path fill-rule="evenodd" clip-rule="evenodd" d="M0.365349 5.52053L5.52055 0.36544C5.65255 0.23344 5.82635 0.167442 6.00005 0.167442C6.17375 0.167442 6.34755 0.23344 6.47945 0.36544L11.6346 5.52053C11.7666 5.65253 11.8326 5.82634 11.8326 6.00004C11.8326 6.17374 11.7666 6.34753 11.6346 6.47953L6.47945 11.6346C6.34755 11.7666 6.17375 11.8326 6.00005 11.8326C5.82635 11.8326 5.65245 11.7666 5.52055 11.6346L0.365349 6.47953C0.233349 6.34753 0.16745 6.17374 0.16745 6.00004C0.16745 5.82634 0.233349 5.65253 0.365349 5.52053ZM5.71175 0.556633L0.556549 5.71174C0.477449 5.79094 0.437851 5.89544 0.437851 6.00004C0.437851 6.10464 0.477449 6.20914 0.556549 6.28834L5.71175 11.4434C5.79085 11.5226 5.89535 11.5622 6.00005 11.5622C6.10465 11.5622 6.20915 11.5226 6.28825 11.4434L11.4435 6.28834C11.5226 6.20914 11.5621 6.10464 11.5621 6.00004C11.5621 5.89544 11.5226 5.79094 11.4435 5.71174L6.28825 0.556633C6.20915 0.477433 6.10465 0.437935 6.00005 0.437935C5.89535 0.437935 5.79085 0.477433 5.71175 0.556633Z" fill="black"/>
<path fill-rule="evenodd" clip-rule="evenodd" d="M4.78225 8.31733H4.55175V7.42733C4.46755 7.50803 4.36835 7.56794 4.25385 7.60644V7.39184C4.31425 7.37174 4.37945 7.33374 4.44975 7.27734C4.52055 7.22124 4.56845 7.15574 4.59485 7.08094H4.78225V8.31733ZM5.51895 7.08094C5.63545 7.08094 5.72675 7.12374 5.79245 7.20904C5.87075 7.30964 5.91015 7.47713 5.91015 7.71073C5.91015 7.94373 5.87045 8.11154 5.79165 8.21334C5.72645 8.29754 5.63545 8.33973 5.51895 8.33973C5.40155 8.33973 5.30724 8.29354 5.23524 8.20144C5.16344 8.10934 5.12725 7.94463 5.12725 7.70823C5.12725 7.47633 5.16715 7.30903 5.24595 7.20733C5.31115 7.12313 5.40215 7.08094 5.51895 7.08094ZM5.51895 7.27674C5.49145 7.27674 5.46655 7.28574 5.44525 7.30424C5.42375 7.32214 5.40695 7.35473 5.39505 7.40203C5.37945 7.46303 5.37155 7.56623 5.37155 7.71073C5.37155 7.85533 5.37855 7.95483 5.39285 8.00893C5.40665 8.06283 5.42425 8.09914 5.44555 8.11694C5.46675 8.13514 5.49145 8.14393 5.51895 8.14393C5.54645 8.14393 5.57115 8.13493 5.59235 8.11643C5.61395 8.09853 5.63095 8.06594 5.64255 8.01864C5.65845 7.95824 5.66605 7.85533 5.66605 7.71073C5.66605 7.56623 5.65905 7.46673 5.64505 7.41253C5.63125 7.35873 5.61335 7.32214 5.59185 7.30424C5.57085 7.28584 5.54645 7.27674 5.51895 7.27674ZM6.56495 7.42614H6.77695V7.54774C6.85295 7.45424 6.94365 7.40714 7.04855 7.40714C7.10435 7.40714 7.15315 7.41903 7.19395 7.44233C7.23535 7.46583 7.26905 7.50124 7.29515 7.54894C7.33345 7.50124 7.37505 7.46583 7.41925 7.44233C7.46385 7.41903 7.51085 7.40714 7.56155 7.40714C7.62535 7.40714 7.67955 7.42054 7.72435 7.44714C7.76855 7.47374 7.80165 7.51263 7.82355 7.56423C7.83965 7.60193 7.84735 7.66344 7.84735 7.74844V8.31733H7.61685V7.80883C7.61685 7.72043 7.60885 7.66343 7.59305 7.63793C7.57155 7.60443 7.53835 7.58744 7.49445 7.58744C7.46205 7.58744 7.43125 7.59763 7.40255 7.61753C7.37425 7.63793 7.35385 7.66734 7.34105 7.70594C7.32835 7.74504 7.32235 7.80624 7.32235 7.89024V8.31733H7.09164V7.82984C7.09164 7.74334 7.08765 7.68724 7.07915 7.66224C7.07115 7.63704 7.05875 7.61804 7.04115 7.60584C7.02385 7.59364 7.00065 7.58744 6.97115 7.58744C6.93515 7.58744 6.90335 7.59743 6.87505 7.61663C6.84645 7.63653 6.82625 7.66454 6.81385 7.70144C6.80165 7.73824 6.79535 7.79973 6.79535 7.88483V8.31733H6.56495V7.42614Z" fill="black"/>
<path fill-rule="evenodd" clip-rule="evenodd" d="M5.60155 3.60784V5.34353C5.60155 5.40233 5.61935 5.42004 5.67815 5.42004H8.46025C8.51915 5.42004 8.53685 5.40233 8.53685 5.34353V3.60784C8.47965 3.59454 8.47814 3.58233 8.40924 3.58233H5.72915C5.68895 3.58233 5.63245 3.59584 5.60155 3.60784Z" fill="black"/>
<path fill-rule="evenodd" clip-rule="evenodd" d="M3.12575 4.67983V5.52213C3.18295 5.53553 3.18435 5.54774 3.25335 5.54774H3.43195C3.54115 5.54774 3.56175 5.34353 3.84035 5.34353H4.01905C4.20825 5.34353 4.32395 5.54774 4.40195 5.54774H5.26974C5.34824 5.54774 5.37185 5.47294 5.37185 5.39454V4.24593C5.37185 4.18623 5.32944 4.14384 5.26974 4.14384H4.42744C4.18014 4.14384 4.06164 4.42784 3.93864 4.57394C3.81024 4.72644 3.34115 4.62963 3.12575 4.67983ZM4.23994 4.72184H5.17315V4.36294H4.47925C4.39565 4.36294 4.24774 4.62874 4.23994 4.72184Z" fill="black"/>
<path fill-rule="evenodd" clip-rule="evenodd" d="M4.23994 4.72184H5.17315V4.36294H4.47925C4.39565 4.36294 4.24774 4.62874 4.23994 4.72184Z" fill="#FEE901"/>
<path fill-rule="evenodd" clip-rule="evenodd" d="M3.91695 6.29343C4.14555 6.29343 4.33086 6.10804 4.33086 5.87954C4.33086 5.65094 4.14555 5.46554 3.91695 5.46554C3.68835 5.46554 3.50305 5.65094 3.50305 5.87954C3.50305 6.10804 3.68835 6.29343 3.91695 6.29343Z" fill="black"/>
<path fill-rule="evenodd" clip-rule="evenodd" d="M6.86505 6.29343C7.09355 6.29343 7.27895 6.10804 7.27895 5.87954C7.27895 5.65094 7.09355 5.46554 6.86505 5.46554C6.63645 5.46554 6.45105 5.65094 6.45105 5.87954C6.45105 6.10804 6.63645 6.29343 6.86505 6.29343Z" fill="black"/>
<path fill-rule="evenodd" clip-rule="evenodd" d="M7.89874 6.29343C8.12734 6.29343 8.31265 6.10804 8.31265 5.87954C8.31265 5.65094 8.12734 5.46554 7.89874 5.46554C7.67014 5.46554 7.48485 5.65094 7.48485 5.87954C7.48485 6.10804 7.67014 6.29343 7.89874 6.29343Z" fill="black"/>
<path fill-rule="evenodd" clip-rule="evenodd" d="M3.86015 8.41774L3.15265 7.71025L3.86015 7.00275V8.41774Z" fill="black"/>
<path fill-rule="evenodd" clip-rule="evenodd" d="M8.16675 8.41774L8.87425 7.71025L8.16675 7.00275V8.41774Z" fill="black"/>
</svg>
