<svg width="12" height="12" viewBox="0 0 12 12" fill="none" xmlns="http://www.w3.org/2000/svg">
<path fill-rule="evenodd" clip-rule="evenodd" d="M0.26295 5.36253L5.36255 0.263025C5.71315 -0.087675 6.28685 -0.087675 6.63725 0.263025L11.7371 5.36253C12.0875 5.71313 12.0875 6.28693 11.7371 6.63753L6.63725 11.737C6.28685 12.0877 5.71315 12.0877 5.36255 11.737L0.26295 6.63753C-0.08765 6.28693 -0.08765 5.71313 0.26295 5.36253Z" fill="#FFEC00"/>
<path fill-rule="evenodd" clip-rule="evenodd" d="M0.36545 5.52052L5.52055 0.365425C5.65255 0.233425 5.82635 0.167427 6.00005 0.167427C6.17375 0.167427 6.34755 0.233425 6.47955 0.365425L11.6347 5.52052C11.7667 5.65252 11.8327 5.82632 11.8327 6.00002C11.8327 6.17372 11.7667 6.34752 11.6347 6.47952L6.47955 11.6346C6.34755 11.7666 6.17375 11.8326 6.00005 11.8326C5.82635 11.8326 5.65255 11.7666 5.52055 11.6346L0.36545 6.47952C0.23345 6.34752 0.16745 6.17372 0.16745 6.00002C0.16745 5.82632 0.23345 5.65252 0.36545 5.52052ZM5.71175 0.556625L0.55665 5.71172C0.47745 5.79092 0.437851 5.89542 0.437851 6.00002C0.437851 6.10462 0.47745 6.20912 0.55665 6.28832L5.71175 11.4434C5.79095 11.5226 5.89545 11.5621 6.00005 11.5621C6.10465 11.5621 6.20915 11.5226 6.28825 11.4434L11.4435 6.28832C11.5227 6.20912 11.5622 6.10462 11.5622 6.00002C11.5622 5.89542 11.5227 5.79092 11.4435 5.71172L6.28825 0.556625C6.20915 0.477425 6.10465 0.43782 6.00005 0.43782C5.89545 0.43782 5.79095 0.477425 5.71175 0.556625Z" fill="black"/>
<path fill-rule="evenodd" clip-rule="evenodd" d="M4.09146 4.84023L4.56676 4.85133L4.58596 5.33482L5.52916 4.38042L5.03586 3.90042L4.09146 4.84023Z" fill="black"/>
<path fill-rule="evenodd" clip-rule="evenodd" d="M6.49896 4.38042L7.46136 5.31552V4.85133L7.93216 4.84432L6.99046 3.88842L6.49896 4.38042Z" fill="black"/>
<path fill-rule="evenodd" clip-rule="evenodd" d="M7.70715 6.51712L10.1103 6.51702L9.18176 5.09712H7.70715V6.51712Z" fill="black"/>
<path fill-rule="evenodd" clip-rule="evenodd" d="M4.29296 6.51562H1.88976L2.81826 5.09563H4.29296V6.51562Z" fill="black"/>
<path fill-rule="evenodd" clip-rule="evenodd" d="M4.29785 6.95262C4.31275 6.96262 4.33065 6.97232 4.34095 6.97772C4.51525 7.06962 4.74795 7.04822 4.89965 6.91212C4.91115 6.90182 4.91475 6.89302 4.92885 6.88272L4.94285 6.89772C4.94855 6.90372 4.95325 6.90882 4.95965 6.91412C4.99225 6.94112 5.03365 6.97072 5.07435 6.98802C5.14125 7.01652 5.20245 7.03222 5.28025 7.03262C5.42115 7.03322 5.50745 6.99502 5.60505 6.91822C5.61895 6.90732 5.62595 6.89443 5.63855 6.88403C5.65195 6.89003 5.72885 6.99612 5.90455 7.02522C5.93305 7.03022 5.96205 7.03323 5.99005 7.03423C6.23755 7.03823 6.34055 6.89243 6.35625 6.88573C6.36885 6.89613 6.37575 6.90902 6.38965 6.91992C6.48705 6.99682 6.57315 7.03502 6.71365 7.03432C6.79135 7.03392 6.85235 7.01822 6.91915 6.98972C6.95965 6.97242 7.00095 6.94282 7.03355 6.91582C7.03985 6.91082 7.04465 6.90582 7.05025 6.89952L7.06425 6.88442C7.07825 6.89472 7.08195 6.90363 7.09335 6.91383C7.24465 7.05003 7.47685 7.07132 7.65075 6.97952C7.66485 6.97152 7.69365 6.95592 7.70885 6.94342V6.76802C7.69395 6.78272 7.67145 6.79932 7.65715 6.80862C7.63485 6.82322 7.60475 6.83963 7.57705 6.85033C7.51365 6.87483 7.44105 6.88603 7.36695 6.87943C7.24615 6.86863 7.15935 6.82323 7.08295 6.74323L7.05315 6.71092C7.02555 6.75582 6.95875 6.80573 6.91335 6.82893C6.75025 6.91243 6.54955 6.89502 6.41455 6.78062C6.40065 6.76882 6.39165 6.76312 6.37935 6.74932L6.35125 6.71413L6.34985 6.70812C6.34885 6.71012 6.34765 6.71213 6.34635 6.71413C6.31825 6.74463 6.29765 6.76872 6.26845 6.79132C6.26265 6.79532 6.25675 6.80032 6.25085 6.80412C6.23805 6.81312 6.22355 6.82123 6.20635 6.82983C6.16845 6.84893 6.12865 6.86272 6.08805 6.87112C5.98745 6.89042 5.88235 6.87512 5.78875 6.82852C5.71875 6.79332 5.69295 6.76092 5.64865 6.71302C5.64795 6.71202 5.64725 6.71102 5.64665 6.70902L5.61535 6.74722C5.60315 6.76102 5.59405 6.76663 5.58015 6.77843C5.44475 6.89293 5.24355 6.91032 5.08015 6.82682C5.03465 6.80352 4.96765 6.75372 4.93995 6.70882L4.91015 6.74102C4.83345 6.82102 4.74645 6.86642 4.62545 6.87722C4.55115 6.88422 4.47835 6.87222 4.41485 6.84812C4.38705 6.83742 4.35685 6.82113 4.33445 6.80653C4.32545 6.80053 4.31295 6.79173 4.30125 6.78223V6.90923C4.30125 6.92383 4.30005 6.93862 4.29785 6.95262Z" fill="black"/>
<path fill-rule="evenodd" clip-rule="evenodd" d="M4.28125 7.48273C4.29615 7.49273 4.31405 7.50242 4.32435 7.50782C4.49865 7.59972 4.73135 7.57832 4.88305 7.44222C4.89455 7.43192 4.89815 7.42303 4.91225 7.41273L4.92625 7.42783C4.93185 7.43383 4.93665 7.43892 4.94305 7.44412C4.97565 7.47112 5.01705 7.50083 5.05775 7.51813C5.12465 7.54653 5.18585 7.56232 5.26365 7.56262C5.40455 7.56332 5.49085 7.52513 5.58845 7.44823C5.60235 7.43733 5.60935 7.42442 5.62195 7.41412C5.63535 7.42012 5.71225 7.52612 5.88795 7.55522C5.91645 7.56022 5.94545 7.56322 5.97345 7.56422C6.22095 7.56822 6.32395 7.42243 6.33965 7.41573C6.35215 7.42613 6.35915 7.43902 6.37305 7.44992C6.47045 7.52672 6.55655 7.56492 6.69705 7.56432C6.77475 7.56392 6.83575 7.54822 6.90255 7.51972C6.94305 7.50242 6.98435 7.47282 7.01695 7.44582C7.02325 7.44082 7.02805 7.43582 7.03365 7.42942L7.04765 7.41442C7.06165 7.42472 7.06535 7.43352 7.07675 7.44382C7.22805 7.57992 7.46025 7.60132 7.63415 7.50942C7.64825 7.50142 7.67705 7.48583 7.69225 7.47343V7.29803C7.67735 7.31263 7.65485 7.32922 7.64055 7.33852C7.61825 7.35322 7.58815 7.36953 7.56045 7.38023C7.49705 7.40483 7.42445 7.41602 7.35035 7.40932C7.22955 7.39852 7.14275 7.35312 7.06635 7.27312L7.03655 7.24092C7.00895 7.28582 6.94215 7.33562 6.89675 7.35892C6.73365 7.44242 6.53295 7.42502 6.39795 7.31052C6.38405 7.29872 6.37505 7.29313 6.36275 7.27933L6.33465 7.24413L6.33325 7.23812C6.33225 7.24012 6.33105 7.24213 6.32975 7.24413C6.30165 7.27463 6.28105 7.29883 6.25185 7.32143C6.24605 7.32543 6.24015 7.33042 6.23425 7.33412C6.22145 7.34312 6.20695 7.35122 6.18975 7.35992C6.15185 7.37902 6.11205 7.39282 6.07145 7.40122C5.97085 7.42052 5.86575 7.40522 5.77215 7.35852C5.70215 7.32332 5.67635 7.29103 5.63205 7.24303C5.63135 7.24203 5.63065 7.24102 5.63005 7.23902L5.59875 7.27722C5.58655 7.29092 5.57745 7.29663 5.56355 7.30843C5.42815 7.42283 5.22695 7.44023 5.06355 7.35683C5.01805 7.33353 4.95105 7.28372 4.92335 7.23872L4.89355 7.27103C4.81685 7.35103 4.72985 7.39643 4.60885 7.40723C4.53455 7.41423 4.46175 7.40222 4.39825 7.37812C4.37045 7.36742 4.34025 7.35103 4.31785 7.33643C4.30885 7.33043 4.29635 7.32163 4.28465 7.31223V7.43913C4.28465 7.45383 4.28345 7.46873 4.28125 7.48273Z" fill="black"/>
<path fill-rule="evenodd" clip-rule="evenodd" d="M4.29486 8.02882C4.30976 8.03882 4.32776 8.04852 4.33806 8.05402C4.51226 8.14582 4.74506 8.12443 4.89676 7.98833C4.90816 7.97813 4.91186 7.96922 4.92596 7.95892L4.93996 7.97392C4.94556 7.97992 4.95036 7.98503 4.95666 7.99033C4.98936 8.01733 5.03066 8.04692 5.07136 8.06422C5.13826 8.09272 5.19946 8.10843 5.27736 8.10883C5.41816 8.10953 5.50456 8.07122 5.60216 7.99442C5.61606 7.98352 5.62306 7.97062 5.63556 7.96022C5.64896 7.96622 5.72586 8.07233 5.90166 8.10143C5.93006 8.10643 5.95916 8.10942 5.98706 8.11042C6.23456 8.11442 6.33766 7.96862 6.35336 7.96202C6.36586 7.97232 6.37286 7.98522 6.38666 7.99612C6.48406 8.07302 6.57026 8.11123 6.71076 8.11053C6.78836 8.11023 6.84946 8.09442 6.91616 8.06602C6.95676 8.04872 6.99796 8.01903 7.03056 7.99203C7.03696 7.98703 7.04166 7.98202 7.04736 7.97572L7.06126 7.96062C7.07536 7.97092 7.07896 7.97983 7.09036 7.99013C7.24176 8.12623 7.47396 8.14763 7.64776 8.05573C7.66196 8.04773 7.69076 8.03212 7.70596 8.01962V7.84432C7.69106 7.85892 7.66846 7.87553 7.65426 7.88483C7.63186 7.89943 7.60176 7.91582 7.57406 7.92652C7.51066 7.95102 7.43806 7.96223 7.36396 7.95563C7.24326 7.94483 7.15646 7.89943 7.07996 7.81943L7.05026 7.78712C7.02266 7.83202 6.95576 7.88192 6.91036 7.90522C6.74736 7.98862 6.54656 7.97123 6.41156 7.85683C6.39766 7.84503 6.38866 7.83932 6.37646 7.82562L6.34836 7.79042L6.34696 7.78442C6.34586 7.78642 6.34476 7.78842 6.34346 7.79042C6.31526 7.82092 6.29476 7.84512 6.26556 7.86772C6.25966 7.87172 6.25376 7.87672 6.24796 7.88042C6.23516 7.88942 6.22066 7.89752 6.20346 7.90612C6.16556 7.92522 6.12566 7.93903 6.08506 7.94743C5.98456 7.96683 5.87946 7.95142 5.78586 7.90482C5.71576 7.86962 5.69006 7.83732 5.64576 7.78932C5.64496 7.78832 5.64436 7.78732 5.64366 7.78532L5.61246 7.82343C5.60016 7.83723 5.59116 7.84292 5.57716 7.85462C5.44186 7.96912 5.24066 7.98652 5.07716 7.90302C5.03166 7.87982 4.96466 7.82993 4.93696 7.78503L4.90716 7.81732C4.83056 7.89732 4.74356 7.94272 4.62246 7.95352C4.54816 7.96052 4.47536 7.94852 4.41186 7.92432C4.38416 7.91362 4.35396 7.89732 4.33156 7.88272C4.32246 7.87672 4.31006 7.86792 4.29836 7.85842V7.98542C4.29836 8.00002 4.29716 8.01482 4.29486 8.02882Z" fill="black"/>
</svg>
