<svg width="12" height="12" viewBox="0 0 12 12" fill="none" xmlns="http://www.w3.org/2000/svg">
<path fill-rule="evenodd" clip-rule="evenodd" d="M0.263025 5.36254L5.36252 0.26295C5.71312 -0.08765 6.28692 -0.08765 6.63722 0.26295L11.7371 5.36254C12.0874 5.71314 12.0874 6.28685 11.7371 6.63755L6.63722 11.737C6.28692 12.0877 5.71312 12.0877 5.36252 11.737L0.263025 6.63755C-0.087675 6.28685 -0.087675 5.71314 0.263025 5.36254Z" fill="#FFEC00"/>
<path fill-rule="evenodd" clip-rule="evenodd" d="M0.365425 5.52055L5.52052 0.365341C5.65252 0.233441 5.82632 0.167442 6.00002 0.167442C6.17372 0.167442 6.34752 0.233441 6.47952 0.365341L11.6347 5.52055C11.7666 5.65255 11.8326 5.82635 11.8326 6.00005C11.8326 6.17375 11.7666 6.34755 11.6347 6.47945L6.47952 11.6346C6.34752 11.7666 6.17372 11.8326 6.00002 11.8326C5.82632 11.8326 5.65252 11.7666 5.52052 11.6346L0.365425 6.47945C0.233425 6.34755 0.167419 6.17375 0.167419 6.00005C0.167419 5.82635 0.233425 5.65255 0.365425 5.52055ZM5.71182 0.556541L0.556625 5.71175C0.477525 5.79095 0.43792 5.89545 0.43792 6.00005C0.43792 6.10465 0.477525 6.20915 0.556625 6.28825L5.71182 11.4434C5.79092 11.5225 5.89542 11.5621 6.00002 11.5621C6.10462 11.5621 6.20912 11.5225 6.28832 11.4434L11.4434 6.28825C11.5226 6.20915 11.5622 6.10465 11.5622 6.00005C11.5622 5.89545 11.5226 5.79095 11.4434 5.71175L6.28832 0.556541C6.20912 0.477441 6.10462 0.437843 6.00002 0.437843C5.89542 0.437843 5.79092 0.477441 5.71182 0.556541Z" fill="black"/>
<path fill-rule="evenodd" clip-rule="evenodd" d="M6.71552 6.13725C6.53942 6.08875 6.19962 5.89734 6.06662 5.79124C5.53152 5.36434 5.57372 5.18364 5.57372 4.27094C5.58172 4.25824 5.90782 3.98664 5.73952 3.98664C5.67732 3.98664 5.67812 4.02534 5.57372 4.03404C5.57872 3.79954 5.81052 3.57684 5.81052 3.44184V3.39455C5.81052 3.32255 5.76942 3.31414 5.71582 3.29974L5.68702 3.46494L5.63652 3.55524C5.34172 3.55324 5.63852 3.12454 5.40782 3.06294C5.39112 3.13494 5.37432 3.25244 5.28942 3.25244C5.16742 3.25244 5.34092 2.93885 5.12362 2.92075C5.11122 2.97395 5.09992 2.97525 5.09992 3.03925V3.22874C4.93952 3.21114 5.04262 3.05415 4.86312 3.03925C4.86312 3.59455 5.43152 3.35845 5.43152 3.86825C5.43152 3.96245 5.37143 4.01875 5.31313 4.05775H4.98152C4.78652 4.18835 4.67942 4.09594 4.43672 4.15244C4.43672 4.43144 4.70152 4.50445 4.88672 4.60255C4.88672 4.72355 4.90982 5.18894 4.89572 5.22724C4.84322 5.37074 4.64982 5.48874 4.64982 5.64474V5.85784L3.99242 5.69254L3.98642 5.71574C3.97402 5.76894 3.96272 5.77024 3.96272 5.83424V5.92895C3.96272 6.05995 4.05292 6.04715 4.05842 6.23585C4.06242 6.38025 4.04552 6.46585 4.09972 6.57355C4.14642 6.66635 4.37253 6.93824 4.48383 6.94744C4.49623 6.89434 4.50752 6.89305 4.50752 6.82905V6.78165C4.50752 6.57335 4.31802 6.63934 4.31802 6.52114V6.18954C4.42712 6.19854 4.63442 6.41614 4.81522 6.49754C5.00232 6.58184 5.17542 6.66764 5.37642 6.74174C5.86382 6.92154 6.14322 6.87604 6.56822 7.16064C6.56822 7.89804 7.63412 7.47155 7.63412 8.77135C7.67072 8.82615 7.92933 9.07925 7.98943 9.07925C8.02263 9.07925 8.03672 9.04695 8.03672 9.00815V8.86604L7.90032 8.78654L7.89433 8.15544C7.89433 8.12484 7.46803 7.60604 7.46803 7.39754V7.35014C7.46803 7.18684 7.58643 7.05534 7.58643 6.87644V6.82905C7.58643 6.71445 7.52622 6.72285 7.51532 6.59215C7.70422 6.58815 7.91802 6.49925 7.91802 6.30795V6.26054C7.91802 6.14614 7.84572 6.05005 7.72852 6.04735V6.11845L7.70202 6.33125L7.42323 6.45605C7.26293 6.36665 7.29972 6.30945 7.10412 6.24545C6.97702 6.20385 6.84202 6.17215 6.71552 6.13725Z" fill="black"/>
</svg>
