<svg width="12" height="12" viewBox="0 0 12 12" fill="none" xmlns="http://www.w3.org/2000/svg">
<path fill-rule="evenodd" clip-rule="evenodd" d="M0.26295 5.36253L5.36245 0.263025C5.71315 -0.087675 6.28685 -0.087675 6.63725 0.263025L11.737 5.36253C12.0873 5.71313 12.0873 6.28693 11.737 6.63753L6.63725 11.7371C6.28685 12.0877 5.71315 12.0877 5.36245 11.7371L0.26295 6.63753C-0.08765 6.28693 -0.08765 5.71313 0.26295 5.36253Z" fill="#FFEC00"/>
<path fill-rule="evenodd" clip-rule="evenodd" d="M0.365356 5.52052L5.52055 0.365417C5.65255 0.233417 5.82635 0.167419 6.00005 0.167419C6.17375 0.167419 6.34755 0.233417 6.47945 0.365417L11.6347 5.52052C11.7667 5.65252 11.8326 5.82632 11.8326 6.00002C11.8326 6.17372 11.7667 6.34752 11.6347 6.47952L6.47945 11.6346C6.34755 11.7666 6.17375 11.8326 6.00005 11.8326C5.82635 11.8326 5.65245 11.7666 5.52055 11.6346L0.365356 6.47952C0.233356 6.34752 0.16745 6.17372 0.16745 6.00002C0.16745 5.82632 0.233356 5.65252 0.365356 5.52052ZM5.71175 0.556618L0.556549 5.71172C0.477449 5.79092 0.437851 5.89542 0.437851 6.00002C0.437851 6.10462 0.477449 6.20911 0.556549 6.28831L5.71175 11.4434C5.79085 11.5226 5.89535 11.5622 6.00005 11.5622C6.10465 11.5622 6.20915 11.5226 6.28825 11.4434L11.4435 6.28831C11.5226 6.20911 11.5621 6.10462 11.5621 6.00002C11.5621 5.89542 11.5226 5.79092 11.4435 5.71172L6.28825 0.556618C6.20915 0.477418 6.10465 0.43792 6.00005 0.43792C5.89535 0.43792 5.79085 0.477418 5.71175 0.556618Z" fill="black"/>
<path fill-rule="evenodd" clip-rule="evenodd" d="M5.12484 4.02001C5.12484 4.50321 5.51675 4.89511 5.99995 4.89511C6.48325 4.89511 6.87514 4.50321 6.87514 4.02001C6.87514 3.53671 6.48325 3.14491 5.99995 3.14491C5.51675 3.14491 5.12484 3.53671 5.12484 4.02001Z" fill="#FF0000"/>
<path fill-rule="evenodd" clip-rule="evenodd" d="M5.12484 7.93962C5.12484 8.42292 5.51675 8.81482 5.99995 8.81482C6.48325 8.81482 6.87514 8.42292 6.87514 7.93962C6.87514 7.45642 6.48325 7.06451 5.99995 7.06451C5.51675 7.06451 5.12484 7.45642 5.12484 7.93962Z" fill="#009933"/>
<path d="M5.19775 2.93721H6.80215C6.96265 2.93721 7.09385 3.06841 7.09385 3.22891V8.77141C7.09385 8.93191 6.96265 9.06311 6.80215 9.06311H5.19775C5.03735 9.06311 4.90615 8.93191 4.90615 8.77141V3.22891C4.90615 3.06841 5.03735 2.93721 5.19775 2.93721Z" stroke="#1B1918" stroke-width="0.5669"/>
<path fill-rule="evenodd" clip-rule="evenodd" d="M5.99995 3.14492C6.48325 3.14492 6.87514 3.53672 6.87514 4.02002C6.87514 4.50322 6.48325 4.89512 5.99995 4.89512C5.51675 4.89512 5.12484 4.50322 5.12484 4.02002C5.12484 3.53672 5.51675 3.14492 5.99995 3.14492ZM5.99995 5.12492C6.48325 5.12492 6.87514 5.51682 6.87514 6.00002C6.87514 6.48322 6.48325 6.87511 5.99995 6.87511C5.51675 6.87511 5.12484 6.48322 5.12484 6.00002C5.12484 5.51682 5.51675 5.12492 5.99995 5.12492ZM6.80215 2.93712H5.19784C5.03734 2.93712 4.90604 3.06832 4.90604 3.22882V8.77122C4.90604 8.93172 5.03734 9.06292 5.19784 9.06292H6.80215C6.96265 9.06292 7.09394 8.93172 7.09394 8.77122V3.22882C7.09394 3.06832 6.96265 2.93712 6.80215 2.93712ZM5.99995 7.06451C6.48325 7.06451 6.87514 7.45642 6.87514 7.93962C6.87514 8.42292 6.48325 8.81482 5.99995 8.81482C5.51675 8.81482 5.12484 8.42292 5.12484 7.93962C5.12484 7.45642 5.51675 7.06451 5.99995 7.06451Z" fill="black"/>
</svg>
