<svg width="12" height="12" viewBox="0 0 12 12" fill="none" xmlns="http://www.w3.org/2000/svg">
<path fill-rule="evenodd" clip-rule="evenodd" d="M6 1.25C8.6229 1.25 10.7499 3.3771 10.7499 6C10.7499 8.6229 8.6229 10.75 6 10.75C3.3771 10.75 1.25 8.6229 1.25 6C1.25 3.3771 3.3771 1.25 6 1.25ZM11.9999 6C11.9999 2.6869 9.3131 0 6 0C2.6868 0 0 2.6869 0 6C0 9.3131 2.6868 11.9999 6 11.9999C9.3131 11.9999 11.9999 9.3131 11.9999 6Z" fill="#FF0000"/>
<path fill-rule="evenodd" clip-rule="evenodd" d="M3.47691 5.8019V5.80529H2.88071V6.75689H3.47691V6.7603L3.48011 6.7617L3.27821 7.24559L3.26641 7.32809L3.29631 7.4049L3.35951 7.45819L3.44071 7.4735L3.51881 7.44709L5.25681 6.3187L5.27421 6.29509V6.26609L5.25681 6.2435L3.51881 5.11399L3.44071 5.08859L3.35951 5.10399L3.29631 5.15639L3.26641 5.23309L3.27821 5.31559L3.48011 5.8005L3.47691 5.8019Z" fill="black"/>
<path fill-rule="evenodd" clip-rule="evenodd" d="M8.2287 5.5036L7.9242 4.8012L7.9207 6.5232L8.1874 9.2491L8.184 9.2495C8.1946 9.5884 7.61271 9.8136 7.49281 9.3298L7.1903 6.7176L7.044 9.7519C6.953 10.0871 6.5155 10.0746 6.4516 9.7331V4.8524L6.2555 5.8382L6.2668 6.481C6.2047 6.7858 5.8353 6.7945 5.7372 6.5076L5.7397 6.4809L5.7355 6.4802C5.8769 5.1616 5.9046 4.2699 6.1847 4.0191C6.9519 3.4577 8.0606 3.7338 8.1709 3.9991L8.1691 4.0019L8.1723 4.0007L8.6902 5.2681L8.6963 6.4458L8.6835 6.5688L8.6829 6.5704C8.527 6.7883 8.3314 6.767 8.2207 6.5244L8.2204 6.5226L8.2206 6.5207L8.2287 5.5036ZM7.741 3.0356C7.6827 3.4003 7.5064 3.5276 7.2022 3.5763H7.2011C6.845 3.5196 6.7155 3.3705 6.6622 3.0366C6.7208 2.6709 6.8965 2.5452 7.2011 2.4967H7.2022C7.506 2.5454 7.6825 2.6714 7.741 3.0356Z" fill="black"/>
</svg>
