<svg width="180" height="30" viewBox="0 0 180 30" fill="none" xmlns="http://www.w3.org/2000/svg">
<path fill-rule="evenodd" clip-rule="evenodd" d="M55.8411 28.3502C58.4916 28.3502 60.641 26.2008 60.641 23.5503C60.641 20.8998 58.4916 18.7503 55.8411 18.7503C53.1906 18.7503 51.0411 20.8998 51.0411 23.5503C51.0411 26.2008 53.1906 28.3502 55.8411 28.3502Z" fill="white"/>
<path fill-rule="evenodd" clip-rule="evenodd" d="M55.8411 17.5503C52.5279 17.5503 49.8411 20.2372 49.8411 23.5503C49.8411 26.8634 52.5279 29.5502 55.8411 29.5502C59.1542 29.5502 61.841 26.8634 61.841 23.5503C61.841 20.2372 59.1542 17.5503 55.8411 17.5503ZM51.0411 23.5503C51.0411 20.8998 53.1906 18.7503 55.8411 18.7503C58.4916 18.7503 60.641 20.8998 60.641 23.5503C60.641 26.2008 58.4916 28.3502 55.8411 28.3502C53.1906 28.3502 51.0411 26.2008 51.0411 23.5503Z" fill="#FF0000"/>
<path fill-rule="evenodd" clip-rule="evenodd" d="M52.3789 22.2673L52.3761 22.2692L52.3366 22.2096L52.2567 22.1499L52.186 22.0699L52.1258 21.9996L52.0759 21.9395L52.0078 21.8415L51.9725 21.8503L51.9923 21.9673L51.9936 21.9752L51.987 21.9707L51.841 21.8725L51.8226 21.9267L51.9114 22.0658L51.9129 22.0681L51.9109 22.0701L51.8314 22.1496L51.83 22.1504L51.7012 22.1906L51.6621 22.2789L51.6615 22.2798L51.5711 22.3794L51.4815 22.5096L51.4804 22.5106L51.3715 22.5701L51.3428 22.6481L51.3817 22.7558L51.4597 22.8048L51.5478 22.8246L51.6066 22.7658L51.6075 22.7652L51.7073 22.7144L51.7087 22.714L51.8786 22.7048L51.9879 22.6946L52.0474 22.6644L52.0506 22.6628L52.0521 22.6661L52.1122 22.7964L52.1419 22.9668L52.212 23.1068L52.262 23.2272L52.2724 23.3076L52.2826 23.4075L52.2724 23.5583L52.312 23.7274L52.3616 23.8166L52.3924 23.918L52.3929 23.9196L52.3919 23.921L52.2616 24.1002L52.172 24.2306L52.0816 24.3505L52.0218 24.5097L51.982 24.64L51.9425 24.72L51.9526 24.8189L51.9523 24.8205L51.8924 24.9699L51.8824 25.0393V25.1196L51.8821 25.121L51.8518 25.1898L51.8426 25.3193L51.8514 25.4058L51.9569 25.3863L52.026 25.3271L52.0657 25.2684L52.0558 25.1604L52.0155 25.0908L52.0144 25.089L52.0156 25.0872L52.0557 25.028V24.9588L52.0752 24.8785L52.1251 24.7083L52.176 24.5382L52.177 24.5366L52.2768 24.4461L52.4064 24.346L52.5371 24.2857L52.677 24.1762L52.7767 24.0764L52.7776 24.0756L52.7788 24.0755L52.8684 24.0653L52.8722 24.0648V24.0687V24.1584V24.2987L52.8925 24.4386L52.9526 24.6686L52.9627 24.7781L53.0313 24.8668L53.1614 24.9868L53.2919 25.1265L53.371 25.2166L53.5106 25.2865L53.6488 25.3359L53.7349 25.2981L53.6466 25.1025L53.5394 25.0926L53.4606 25.1228L53.4571 25.1242L53.4561 25.1206L53.4359 25.0507L53.3967 24.9815L53.3069 24.922L53.1673 24.8323L53.1661 24.8308L53.1161 24.7208L53.1158 24.7196L53.1056 24.5792L53.1158 24.4585L53.126 24.3383V24.1491V24.1457H53.1295H53.2089L53.2889 24.1356L53.428 24.1153L53.5783 24.0553L53.708 24.0257L53.8879 23.9759L54.0476 23.9057L54.1974 23.8355L54.2023 23.8332V23.8386V23.988L54.2225 24.1075L54.2723 24.2476L54.3222 24.3678L54.363 24.5179L54.3631 24.6094V24.6107L54.3623 24.6116L54.2819 24.7114L54.2116 24.791L54.0821 24.9112L53.9816 25.021L53.9324 25.1003V25.1889L53.932 25.1905L53.8823 25.2909L53.844 25.4354L53.9177 25.4259L54.0946 25.328L54.0561 25.2412L54.0457 25.1803L54.0453 25.178L54.0473 25.1768L54.1269 25.1264L54.1865 25.0081L54.1874 25.007L54.2973 24.9165L54.3869 24.837L54.5367 24.726L54.6454 24.6174L54.6363 24.5093L54.6059 24.4098L54.5864 24.279L54.5956 24.1387L54.5959 24.1339L54.6004 24.1358L54.6706 24.1654L54.6717 24.1661L54.8019 24.2963L54.9615 24.4365L55.0916 24.5159L55.0928 24.5171L55.1825 24.6677L55.3424 24.9376L55.4518 25.2456H55.5196L55.5212 25.246L55.5813 25.2764L55.5826 25.2777L55.632 25.3563L55.845 25.4538L55.8259 25.3504L55.8258 25.2607L55.7481 25.192L55.6799 25.1732L55.621 25.2022L55.6181 25.2036L55.6165 25.2009L55.5869 25.1509L55.5864 25.1492V25.0509L55.5072 24.9817L55.5065 24.9809L55.4464 24.8811L55.4064 24.7808L55.3666 24.6605L55.3158 24.52L55.2963 24.3999L55.2372 24.3016L55.1679 24.2715L55.0883 24.2317L55.087 24.2306L55.0168 24.1308L55.0161 24.1299V24.1288V23.9883L55.0263 23.8081V23.7184V23.6787V23.6752H55.0298H55.1592H55.1626V23.6787V23.7283L55.1727 23.878L55.1828 23.9868L55.2716 24.0765L55.2724 24.0777L55.3324 24.2376L55.3528 24.378L55.4418 24.5064L55.5119 24.5765L55.5127 24.5777L55.5692 24.7186L55.5958 24.6379L55.5962 24.6367L55.5973 24.6361L55.6769 24.5867L55.7158 24.508L55.7066 24.3496L55.6367 24.1905L55.5665 24.0602L55.5661 24.0586V23.9287L55.5575 23.9014L55.5538 23.9051L54.5297 22.881L54.5336 22.8771L54.4781 22.8512L54.2994 22.841L54.1486 22.8013L53.9698 22.8115H53.7497L53.5894 22.8317L53.4794 22.8512H53.3494L53.2394 22.841H53.1387L53.1375 22.8408L52.998 22.7909L52.9968 22.7902L52.9076 22.7111L52.7676 22.6513L52.7665 22.6505L52.6667 22.5498L52.5762 22.4601L52.4866 22.3402L52.3771 22.2702L52.3789 22.2673Z" fill="black"/>
<path fill-rule="evenodd" clip-rule="evenodd" d="M58.0112 24.8784L58.0088 24.8808L57.7685 24.6405L57.7709 24.6381L57.7692 24.6351L57.774 24.6323L57.845 24.5907L57.8467 24.5902H57.9345L57.9362 24.5907L58.013 24.6351L58.0142 24.6363L58.0586 24.7121L58.0591 24.7139V24.8026L58.0586 24.8043L58.0222 24.8665L58.0189 24.872L58.0152 24.8784L58.0142 24.8801L58.0112 24.8784Z" fill="#1B1918"/>
<path fill-rule="evenodd" clip-rule="evenodd" d="M57.7765 24.6388L57.8248 24.6871L57.9671 24.8293L58.0105 24.8728L58.0138 24.8671L58.0169 24.8618L58.0521 24.8017V24.7148L58.0087 24.6406L57.9336 24.5971H57.8476L57.7797 24.637L57.7778 24.6381L57.7765 24.6388Z" fill="black"/>
<path fill-rule="evenodd" clip-rule="evenodd" d="M58.441 25.3042L58.5444 25.4068L58.5655 25.4278L58.5739 25.4173L58.696 25.2647L58.788 25.0722L58.8359 24.8651V24.6514L58.788 24.4442L58.6959 24.2526L58.5634 24.086L58.3966 23.9533L58.2051 23.8603L57.997 23.8134H57.7842L57.577 23.8603L57.3856 23.9533L57.2219 24.0835L57.3235 24.1858L57.3452 24.2074L57.5026 24.0872L57.6901 24.0091L57.8906 23.983L58.0912 24.0089L58.2778 24.0868L58.4385 24.2092L58.5621 24.3697L58.6393 24.5572L58.6663 24.7578L58.6395 24.9583L58.5625 25.1459L58.4492 25.2935L58.441 25.3042Z" fill="black"/>
<path fill-rule="evenodd" clip-rule="evenodd" d="M59.4783 23.5504V23.5299V23.2366H57.8446V23.2793V23.5504H57.8649H58.0774H59.4783Z" fill="white"/>
<path fill-rule="evenodd" clip-rule="evenodd" d="M59.3874 27.9452L60.236 27.0966L52.2947 19.1554L51.4462 20.0039L59.3874 27.9452Z" fill="#FF0000" stroke="#FF0000" stroke-width="0.0027"/>
<path fill-rule="evenodd" clip-rule="evenodd" d="M57.8446 23.2366H59.4783V23.5299V23.5504H58.0774H57.8649H57.8446V23.2793V23.2366ZM57.5377 23.8H59.662H59.8156L59.8152 23.7794L59.812 23.6267L59.662 23.6294V23.626H59.6585V22.3763H59.662V22.3729H59.6846H59.8156L59.8152 22.3529L59.812 22.1996L59.662 22.2023V22.1989H59.6585V22.0498H59.5052H59.4852V22.1777V22.1998H59.4818V22.2033H56.0009V22.1998H55.9975V22.0498H55.8241V22.1387V22.6848L56.369 23.2297H57.4746H57.6609V23.2331H57.6644V23.5077V23.5539H57.6609V23.5573H56.7139H56.6967L56.9393 23.8H57.1803H57.3514H57.5377ZM58.0774 22.6936H57.8649H57.8446V22.4225V22.3798H59.4783V22.6731V22.6936H58.0774ZM57.6644 22.3763V22.6509V22.6971H57.6609V22.7005H56.0009V22.6971H55.9975V22.3763H56.0009V22.3729H56.24H57.4219H57.6609V22.3763H57.6644Z" fill="black"/>
</svg>
