<svg width="12" height="12" viewBox="0 0 12 12" fill="none" xmlns="http://www.w3.org/2000/svg">
<path fill-rule="evenodd" clip-rule="evenodd" d="M0.26295 5.36252L5.36255 0.263033C5.71315 -0.0876674 6.28685 -0.0876674 6.63725 0.263033L11.7371 5.36252C12.0875 5.71322 12.0875 6.28693 11.7371 6.63753L6.63725 11.7371C6.28685 12.0877 5.71315 12.0877 5.36255 11.7371L0.26295 6.63753C-0.08765 6.28693 -0.08765 5.71322 0.26295 5.36252Z" fill="#FFEC00"/>
<path fill-rule="evenodd" clip-rule="evenodd" d="M0.36545 5.52064L5.52055 0.365425C5.65255 0.233425 5.82635 0.167427 6.00005 0.167427C6.17375 0.167427 6.34755 0.233425 6.47955 0.365425L11.6347 5.52064C11.7667 5.65254 11.8327 5.82634 11.8327 6.00004C11.8327 6.17374 11.7667 6.34753 11.6347 6.47953L6.47955 11.6347C6.34755 11.7666 6.17375 11.8326 6.00005 11.8326C5.82635 11.8326 5.65255 11.7666 5.52055 11.6347L0.36545 6.47953C0.23345 6.34753 0.16745 6.17374 0.16745 6.00004C0.16745 5.82634 0.23345 5.65254 0.36545 5.52064ZM5.71175 0.556633L0.55665 5.71183C0.47745 5.79093 0.437851 5.89544 0.437851 6.00004C0.437851 6.10464 0.47745 6.20914 0.55665 6.28834L5.71175 11.4434C5.79095 11.5226 5.89545 11.5622 6.00005 11.5622C6.10465 11.5622 6.20915 11.5226 6.28825 11.4434L11.4435 6.28834C11.5227 6.20914 11.5622 6.10464 11.5622 6.00004C11.5622 5.89544 11.5227 5.79093 11.4435 5.71183L6.28825 0.556633C6.20915 0.477533 6.10465 0.437935 6.00005 0.437935C5.89545 0.437935 5.79095 0.477533 5.71175 0.556633Z" fill="black"/>
<path fill-rule="evenodd" clip-rule="evenodd" d="M5.11505 7.87444C5.11505 7.37574 5.50115 6.97484 5.99035 6.97484C6.42365 6.97484 6.86575 7.37054 6.86575 7.77724V9.50354H5.11505V7.87444Z" fill="black"/>
<path fill-rule="evenodd" clip-rule="evenodd" d="M4.30785 5.86464C4.32105 5.13754 4.50705 4.80015 4.84635 4.37325C5.21365 3.91115 5.32825 3.52804 5.32825 2.71544V2.49664H4.47725V3.00723C4.47725 3.66473 4.07515 3.88824 3.83215 4.30724C3.62185 4.66984 3.46175 5.28674 3.45625 5.84654L3.44955 5.84604L3.34235 5.84804L3.34215 5.85304L2.47205 5.82974L3.77785 7.81323L5.18795 5.90254L4.45765 5.88293L4.45805 5.86934C4.40825 5.86834 4.35765 5.86914 4.30785 5.86464Z" fill="black"/>
<path fill-rule="evenodd" clip-rule="evenodd" d="M7.54045 4.46564C7.55365 5.19284 7.73965 5.53024 8.07895 5.95714C8.44615 6.41914 8.56085 6.80224 8.56085 7.61494V7.83374H7.70985V7.32314C7.70985 6.66564 7.30775 6.44203 7.06475 6.02313C6.85445 5.66053 6.69435 5.04364 6.68875 4.48384L6.68215 4.48434L6.57495 4.48235L6.57475 4.47734L5.70465 4.50064L7.01045 2.51714L8.42055 4.42784L7.69025 4.44743L7.69065 4.46094C7.64085 4.46194 7.59025 4.46124 7.54045 4.46564Z" fill="black"/>
</svg>
