<svg width="12" height="12" viewBox="0 0 12 12" fill="none" xmlns="http://www.w3.org/2000/svg">
<path fill-rule="evenodd" clip-rule="evenodd" d="M5.9999 1.25C8.6228 1.25 10.7499 3.3771 10.7499 6C10.7499 8.6229 8.6228 10.7499 5.9999 10.7499C3.377 10.7499 1.25 8.6229 1.25 6C1.25 3.3771 3.377 1.25 5.9999 1.25ZM11.9999 6C11.9999 2.6868 9.3131 0 5.9999 0C2.6868 0 0 2.6868 0 6C0 9.3131 2.6868 11.9999 5.9999 11.9999C9.3131 11.9999 11.9999 9.3131 11.9999 6Z" fill="#FF0000"/>
<path fill-rule="evenodd" clip-rule="evenodd" d="M7.81901 7.44341H4.31791L4.31571 7.44371L2.57091 7.44341L6.06821 9.62271L9.56611 7.44451L7.82121 7.44431L7.81901 7.44341Z" fill="black"/>
<path fill-rule="evenodd" clip-rule="evenodd" d="M3.43401 5.8086V4.1135C3.10121 4.3553 2.877 4.4761 2.7616 4.4761C2.7066 4.4761 2.6576 4.4551 2.6151 4.4137C2.5723 4.3723 2.5513 4.3241 2.5513 4.2694C2.5513 4.2056 2.57231 4.1592 2.61401 4.1294C2.65591 4.1002 2.7299 4.0614 2.8362 4.0143C2.9952 3.9437 3.1219 3.8692 3.2169 3.7909C3.3118 3.7127 3.3957 3.6248 3.4697 3.5282C3.5429 3.4307 3.5911 3.3717 3.6132 3.3493C3.6353 3.3269 3.6778 3.3156 3.7396 3.3156C3.8088 3.3156 3.8652 3.3411 3.9066 3.3918C3.9491 3.4428 3.9698 3.5129 3.9698 3.6024V5.7355C3.9698 5.9855 3.87961 6.1102 3.69991 6.1102C3.62031 6.1102 3.5556 6.0847 3.5074 6.0337C3.4584 5.983 3.43401 5.9079 3.43401 5.8086ZM6.8943 4.7235C6.8943 4.9279 6.8809 5.1028 6.8549 5.2494C6.8285 5.3962 6.78 5.5291 6.7089 5.6482C6.6199 5.7945 6.5051 5.9079 6.3633 5.9872C6.2219 6.0669 6.064 6.1063 5.8908 6.1063C5.6921 6.1063 5.5127 6.053 5.3551 5.9458C5.1972 5.839 5.07871 5.6916 4.99821 5.5031C4.95761 5.4002 4.9282 5.2856 4.9086 5.1609C4.8899 5.0362 4.8805 4.9013 4.8805 4.7556C4.8805 4.5679 4.8913 4.3993 4.912 4.249C4.933 4.0982 4.9659 3.969 5.0101 3.861C5.0872 3.6821 5.20001 3.546 5.34711 3.4525C5.49481 3.3589 5.6706 3.3119 5.8755 3.3119C6.0104 3.3119 6.1332 3.3329 6.2434 3.3742C6.3534 3.4162 6.4501 3.4766 6.5331 3.5568C6.6165 3.637 6.68681 3.7362 6.74461 3.8539C6.84471 4.0588 6.8943 4.3488 6.8943 4.7235ZM6.35461 4.6867C6.35461 4.4596 6.34041 4.2731 6.31171 4.1288C6.28281 3.9837 6.2338 3.8743 6.166 3.8003C6.0977 3.7266 6.00281 3.6897 5.88261 3.6897C5.70941 3.6897 5.58921 3.7725 5.52171 3.9378C5.45401 4.1027 5.4203 4.3573 5.4203 4.7014C5.4203 4.935 5.4344 5.1263 5.4631 5.2754C5.4923 5.4248 5.5413 5.5374 5.6088 5.6139C5.6774 5.6902 5.77 5.7284 5.8868 5.7284C6.007 5.7284 6.10171 5.689 6.17001 5.6094C6.23801 5.5297 6.2854 5.416 6.3129 5.2684C6.3404 5.1201 6.35461 4.9268 6.35461 4.6867ZM8.39861 4.0869H8.4576V3.7807C8.4576 3.6985 8.4596 3.6345 8.4644 3.588C8.4689 3.5409 8.4817 3.5007 8.5026 3.4678C8.5233 3.4326 8.5537 3.404 8.5931 3.3825C8.6319 3.3606 8.6756 3.3499 8.7246 3.3499C8.7926 3.3499 8.8536 3.3742 8.9086 3.4224C8.9454 3.455 8.9684 3.4944 8.9783 3.5415C8.9885 3.588 8.9933 3.654 8.9933 3.7399V4.0869H9.19C9.2657 4.0869 9.3241 4.1039 9.3638 4.1376C9.4041 4.1719 9.4242 4.2159 9.4242 4.2689C9.4242 4.3375 9.3953 4.3851 9.3383 4.4126C9.2813 4.4398 9.2 4.4534 9.0931 4.4534H8.9933V5.3885C8.9933 5.4682 8.9959 5.5297 9.0018 5.5725C9.0078 5.615 9.0234 5.6502 9.0489 5.6768C9.0752 5.7035 9.11661 5.7168 9.17451 5.7168C9.20541 5.7168 9.2484 5.7117 9.3017 5.7009C9.3556 5.6907 9.3978 5.685 9.4276 5.685C9.4712 5.685 9.51011 5.7018 9.54491 5.7347C9.58011 5.7678 9.5968 5.8086 9.5968 5.8568C9.5968 5.939 9.5498 6.0014 9.4557 6.0445C9.361 6.0884 9.2252 6.1102 9.0483 6.1102C8.8805 6.1102 8.7535 6.0833 8.6676 6.03C8.5812 5.9765 8.5248 5.9027 8.4978 5.8078C8.4709 5.7137 8.4576 5.5878 8.4576 5.4299V4.4534H8.387C8.3093 4.4534 8.2501 4.4361 8.2098 4.401C8.1687 4.3667 8.1489 4.3222 8.1489 4.2689C8.1489 4.2159 8.1704 4.1719 8.2124 4.1376C8.2555 4.1039 8.31731 4.0869 8.39861 4.0869Z" fill="black"/>
</svg>
