<svg width="12" height="12" viewBox="0 0 12 12" fill="none" xmlns="http://www.w3.org/2000/svg">
<path fill-rule="evenodd" clip-rule="evenodd" d="M0.26295 5.36254L5.36255 0.26295C5.71315 -0.08765 6.28686 -0.08765 6.63726 0.26295L11.7371 5.36254C12.0875 5.71314 12.0875 6.28685 11.7371 6.63755L6.63726 11.737C6.28686 12.0877 5.71315 12.0877 5.36255 11.737L0.26295 6.63755C-0.08765 6.28685 -0.08765 5.71314 0.26295 5.36254Z" fill="#FFEC00"/>
<path fill-rule="evenodd" clip-rule="evenodd" d="M0.365448 5.52055L5.52055 0.365341C5.65255 0.233441 5.82635 0.167442 6.00005 0.167442C6.17375 0.167442 6.34755 0.233441 6.47955 0.365341L11.6347 5.52055C11.7667 5.65255 11.8326 5.82635 11.8326 6.00005C11.8326 6.17375 11.7667 6.34755 11.6347 6.47945L6.47955 11.6346C6.34755 11.7666 6.17375 11.8326 6.00005 11.8326C5.82635 11.8326 5.65255 11.7666 5.52055 11.6346L0.365448 6.47945C0.233448 6.34755 0.16745 6.17375 0.16745 6.00005C0.16745 5.82635 0.233448 5.65255 0.365448 5.52055ZM5.71175 0.556641L0.556648 5.71175C0.477448 5.79095 0.437851 5.89545 0.437851 6.00005C0.437851 6.10465 0.477448 6.20915 0.556648 6.28825L5.71175 11.4434C5.79095 11.5225 5.89545 11.5621 6.00005 11.5621C6.10465 11.5621 6.20915 11.5225 6.28835 11.4434L11.4435 6.28825C11.5227 6.20915 11.5621 6.10465 11.5621 6.00005C11.5621 5.89545 11.5227 5.79095 11.4435 5.71175L6.28835 0.556641C6.20915 0.477441 6.10465 0.437843 6.00005 0.437843C5.89545 0.437843 5.79095 0.477441 5.71175 0.556641Z" fill="black"/>
<path fill-rule="evenodd" clip-rule="evenodd" d="M4.37506 4.47184C4.24636 4.47684 4.23646 4.32344 3.88616 4.32344L3.48586 4.05215L3.49236 4.13694L3.63246 4.39214L3.61846 4.41685L3.23016 4.21794C3.31786 4.56024 3.40676 4.47654 3.53766 4.67194C3.52156 4.86474 3.44066 4.97254 3.42146 5.20634C3.41126 5.33004 3.25226 5.52865 3.11946 5.53165V5.71745C3.11946 5.80165 3.36316 5.94984 3.44476 5.94984C3.50896 5.94984 3.91136 5.71745 4.11846 5.71745C4.40006 5.71745 4.36836 5.99045 4.42136 6.22775C4.48096 6.49475 4.60226 6.54394 4.81346 6.64884C4.97896 6.73104 4.93156 7.06234 4.93166 7.29734C4.93166 7.41414 4.95166 7.59194 4.90976 7.67034C4.85976 7.76364 4.78256 7.76164 4.76896 7.92464H5.11745V7.76194C5.11745 7.66514 5.17946 7.62854 5.18766 7.50684C5.19406 7.41154 5.18286 7.30045 5.18626 7.20345C5.19016 7.09225 5.26586 6.78425 5.32656 6.73975L5.38576 7.71624L5.26326 7.93814L5.60536 7.94814L5.63026 7.53004C5.65006 7.24554 5.51666 6.63974 5.88396 6.62364C6.22836 6.60844 6.68036 6.53094 6.97616 6.53094C7.05826 6.53094 6.98566 6.74004 7.30146 6.74004V6.90264C7.40176 6.89464 7.39206 6.88955 7.39436 6.78645C7.48356 6.88915 7.38726 6.91374 7.53376 6.92594L7.56276 6.74094C7.67776 6.80394 7.74286 6.98014 7.74286 7.15824C7.74286 7.38004 7.60765 7.45464 7.60345 7.64614C7.50745 7.67174 7.44066 7.80264 7.41756 7.90164H7.76606C7.76606 7.49164 8.06806 7.26685 8.06806 7.08855V6.97234L8.04156 6.71725C8.19026 6.81415 8.43986 7.37684 8.43986 7.66934C8.43986 7.72244 8.36576 7.82064 8.34686 7.90164H8.67216L8.69816 7.69305C8.70516 7.63045 8.61556 7.01924 8.60056 6.90464C8.57816 6.73374 8.34686 6.39255 8.34686 6.29865V6.18244C8.34686 5.94304 8.53276 5.70484 8.53276 5.50864C8.60606 5.56234 8.74186 6.24734 8.74186 6.41474V6.62384C8.74186 6.77234 8.69536 6.80064 8.69536 6.94914V7.04205L8.72146 7.25074C9.06716 7.15804 8.75176 5.80064 8.68606 5.54124C8.59196 5.16924 8.67326 5.01414 8.41166 4.77014C8.28266 4.64974 7.86535 4.53444 7.60345 4.55614L6.93046 4.61185L6.46506 4.60284C6.31576 4.60284 5.96286 4.56854 5.85756 4.53654C5.75596 4.50574 5.42706 4.39375 5.34986 4.39375H5.16396L4.37506 4.47184Z" fill="black"/>
</svg>
