<svg width="12" height="12" viewBox="0 0 12 12" fill="none" xmlns="http://www.w3.org/2000/svg">
<path fill-rule="evenodd" clip-rule="evenodd" d="M0.263025 5.36253L5.36252 0.263025C5.71312 -0.087675 6.28692 -0.087675 6.63722 0.263025L11.7371 5.36253C12.0874 5.71323 12.0874 6.28692 11.7371 6.63752L6.63722 11.7371C6.28692 12.0877 5.71312 12.0877 5.36252 11.7371L0.263025 6.63752C-0.087675 6.28692 -0.087675 5.71323 0.263025 5.36253Z" fill="#FFEC00"/>
<path fill-rule="evenodd" clip-rule="evenodd" d="M0.365425 5.52052L5.52052 0.365417C5.65252 0.233417 5.82632 0.167419 6.00002 0.167419C6.17372 0.167419 6.34752 0.233417 6.47952 0.365417L11.6347 5.52052C11.7666 5.65252 11.8326 5.82632 11.8326 6.00002C11.8326 6.17372 11.7666 6.34752 11.6347 6.47952L6.47952 11.6347C6.34752 11.7666 6.17372 11.8326 6.00002 11.8326C5.82632 11.8326 5.65252 11.7666 5.52052 11.6347L0.365425 6.47952C0.233425 6.34752 0.167419 6.17372 0.167419 6.00002C0.167419 5.82632 0.233425 5.65252 0.365425 5.52052ZM5.71182 0.556618L0.556625 5.71181C0.477525 5.79091 0.43792 5.89542 0.43792 6.00002C0.43792 6.10462 0.477525 6.20911 0.556625 6.28831L5.71182 11.4434C5.79092 11.5226 5.89542 11.5622 6.00002 11.5622C6.10462 11.5622 6.20912 11.5226 6.28832 11.4434L11.4434 6.28831C11.5226 6.20911 11.5622 6.10462 11.5622 6.00002C11.5622 5.89542 11.5226 5.79091 11.4434 5.71181L6.28832 0.556618C6.20912 0.477418 6.10462 0.43792 6.00002 0.43792C5.89542 0.43792 5.79092 0.477418 5.71182 0.556618Z" fill="black"/>
<path fill-rule="evenodd" clip-rule="evenodd" d="M5.50023 5.22401H3.82593V4.10761H5.50023V2.20161H6.49983V6.80331H8.17413V7.91972H6.49983V9.79852H5.50023V5.22401Z" fill="black"/>
</svg>
