<svg width="12" height="12" viewBox="0 0 12 12" fill="none" xmlns="http://www.w3.org/2000/svg">
<path fill-rule="evenodd" clip-rule="evenodd" d="M6 1.25C8.6228 1.25 10.7499 3.3771 10.7499 6C10.7499 8.6229 8.6228 10.75 6 10.75C3.3771 10.75 1.25 8.6229 1.25 6C1.25 3.3771 3.3771 1.25 6 1.25ZM11.9999 6C11.9999 2.6869 9.3131 0 6 0C2.6868 0 0 2.6869 0 6C0 9.3131 2.6868 11.9999 6 11.9999C9.3131 11.9999 11.9999 9.3131 11.9999 6Z" fill="#FF0000"/>
<path fill-rule="evenodd" clip-rule="evenodd" d="M3.94141 3.9282H3.15551C2.84561 4.0703 2.59551 4.3144 2.57761 4.8407V5.1605C2.57761 5.2359 2.63931 5.2976 2.71461 5.2976C2.79001 5.2976 2.85171 5.2359 2.85171 5.1605V4.8407C2.85121 4.6592 2.90831 4.5124 3.02301 4.4V5.2985H2.57761V5.4127H3.02301V5.6473C2.99221 5.6237 2.95381 5.6097 2.91231 5.6097C2.81181 5.6097 2.72951 5.692 2.72951 5.7925V6.889C2.72951 6.9831 2.8016 7.0611 2.8932 7.0708H2.73241V7.185H3.09801V7.0708H2.9314C3.023 7.0611 3.09511 6.9831 3.09511 6.889V6.2241C3.09531 6.2209 3.09911 6.2126 3.10521 6.2184L3.43961 6.4082C3.47301 6.4308 3.4729 6.4667 3.4397 6.4824C3.4367 6.4836 3.1743 6.5469 3.0993 6.7494V7.6412C3.0993 7.6726 3.12501 7.6983 3.15641 7.6983C3.18781 7.6983 3.21351 7.6726 3.21351 7.6412V6.7494C3.43101 6.4971 3.66321 6.5373 3.84701 6.7437V7.9255C3.84701 7.9804 3.87161 8.0299 3.91031 8.0635L3.80131 8.1199V8.2686H4.25821V8.1199L4.15081 8.0621C4.18861 8.0285 4.21251 7.9797 4.21251 7.9255V6.3085C4.21251 6.2232 4.15331 6.1511 4.07401 6.1312V5.4127H4.51941V5.2985H4.07401V4.5855C4.15741 4.6497 4.18841 4.7228 4.19231 4.8407V5.1382C4.19231 5.2136 4.27351 5.2976 4.34891 5.2976C4.42431 5.2976 4.51941 5.2136 4.51941 5.1382V4.8038C4.51141 4.3982 4.18541 4.0396 3.94141 3.9282ZM3.53231 6.5781C3.45691 6.5781 3.39521 6.6398 3.39521 6.7152V8.8169C3.39521 8.8923 3.45691 8.954 3.53231 8.954C3.60771 8.954 3.66941 8.8923 3.66941 8.8169V6.7152C3.66941 6.6398 3.60771 6.5781 3.53231 6.5781ZM3.55811 3.194C3.36931 3.194 3.21541 3.3479 3.21541 3.5366C3.21541 3.7254 3.36931 3.8793 3.55811 3.8793C3.74681 3.8793 3.9007 3.7254 3.9007 3.5366C3.9007 3.3479 3.74681 3.194 3.55811 3.194ZM3.82931 6.549C3.78881 6.5145 3.74321 6.4893 3.71161 6.4812V6.4065C3.75161 6.4301 3.78651 6.459 3.82931 6.549Z" fill="black"/>
<path fill-rule="evenodd" clip-rule="evenodd" d="M7.98511 5.4449L8.19431 4.96231L8.1963 6.14561L8.013 8.01871L8.01501 8.019C8.00801 8.2519 8.40751 8.40661 8.48981 8.07421L8.6976 6.27921L8.7982 8.36411C8.8607 8.59451 9.1613 8.58601 9.2052 8.35131V4.99751L9.34001 5.6749L9.332 6.1166C9.3747 6.326 9.6284 6.33201 9.6958 6.13491L9.6938 6.1165L9.69681 6.1161C9.59971 5.21 9.58061 4.5972 9.38821 4.4249C8.86101 4.0391 8.0991 4.22881 8.0233 4.41111L8.02431 4.41311L8.02231 4.4123L7.66641 5.28321L7.66241 6.09241L7.6714 6.17691L7.67181 6.17801C7.77891 6.32781 7.91341 6.3132 7.98941 6.1464L7.98961 6.14521L7.9895 6.14391L7.98511 5.4449Z" fill="black"/>
<path fill-rule="evenodd" clip-rule="evenodd" d="M8.32021 3.7491C8.36031 3.9996 8.48141 4.08709 8.69051 4.12069C8.93521 4.08169 9.02491 3.97919 9.06151 3.74979C9.02121 3.49849 8.90051 3.4121 8.69121 3.3788C8.48241 3.4123 8.36041 3.4988 8.32021 3.7491Z" fill="black"/>
<path fill-rule="evenodd" clip-rule="evenodd" d="M5.9413 3.3788H6.2761V8.4457H5.9413V3.3788Z" fill="black"/>
</svg>
