<svg width="9" height="12" viewBox="0 0 9 12" fill="none" xmlns="http://www.w3.org/2000/svg">
<path fill-rule="evenodd" clip-rule="evenodd" d="M0.4283 7.62939e-06H8.1431C8.379 7.62939e-06 8.5714 0.192507 8.5714 0.428307V11.5716C8.5714 11.8074 8.379 11.9999 8.1431 11.9999H0.4283C0.1925 11.9999 0 11.8074 0 11.5716V0.428307C0 0.192507 0.1925 7.62939e-06 0.4283 7.62939e-06Z" fill="white"/>
<path fill-rule="evenodd" clip-rule="evenodd" d="M0.554196 0.299904H8.017C8.157 0.299904 8.2712 0.414107 8.2712 0.554207V11.4454C8.2712 11.5855 8.157 11.6997 8.017 11.6997H0.554196C0.414196 11.6997 0.299896 11.5855 0.299896 11.4454V0.554207C0.299896 0.414107 0.414196 0.299904 0.554196 0.299904Z" fill="white"/>
<path fill-rule="evenodd" clip-rule="evenodd" d="M0.554409 0.171303H8.01701C8.12251 0.171303 8.21831 0.214314 8.28761 0.283714C8.35701 0.353014 8.40001 0.448814 8.40001 0.554314V11.4453C8.40001 11.5508 8.35701 11.6466 8.28761 11.7159C8.21831 11.7853 8.12251 11.8283 8.01701 11.8283H0.554409C0.449009 11.8283 0.353209 11.7853 0.283909 11.7159C0.214509 11.6466 0.171509 11.5508 0.171509 11.4453V0.554314C0.171509 0.448814 0.214509 0.353014 0.283909 0.283714C0.353209 0.214314 0.449009 0.171303 0.554409 0.171303ZM8.01701 0.428413H0.554409C0.520009 0.428413 0.488509 0.442608 0.465709 0.465508C0.442809 0.488308 0.428608 0.519814 0.428608 0.554314V11.4453C0.428608 11.4798 0.442809 11.5112 0.465709 11.5341C0.488509 11.557 0.520009 11.5712 0.554409 11.5712H8.01701C8.05151 11.5712 8.08291 11.557 8.10581 11.5341C8.12871 11.5112 8.14291 11.4798 8.14291 11.4453V0.554314C8.14291 0.519814 8.12871 0.488308 8.10581 0.465508C8.08291 0.442608 8.05151 0.428413 8.01701 0.428413Z" fill="white"/>
<path fill-rule="evenodd" clip-rule="evenodd" d="M1.32581 1.3382H7.24571V7.43331H1.32581V1.3382Z" fill="white"/>
<path fill-rule="evenodd" clip-rule="evenodd" d="M2.02369 6.26141H4.11169C4.14989 6.26141 4.18109 6.23032 4.18109 6.19202V2.57951C4.18109 2.54131 4.14989 2.51012 4.11169 2.51012H2.02369C1.98539 2.51012 1.95419 2.54131 1.95419 2.57951V6.19202C1.95419 6.23032 1.98539 6.26141 2.02369 6.26141Z" fill="black"/>
<path fill-rule="evenodd" clip-rule="evenodd" d="M3.9728 4.66072H2.9285C2.8902 4.66072 2.8591 4.62951 2.8591 4.59131V2.74681C2.8591 2.70851 2.8902 2.67732 2.9285 2.67732H3.9728C4.0111 2.67732 4.0422 2.70851 4.0422 2.74681V4.59131C4.0422 4.62951 4.0111 4.66072 3.9728 4.66072Z" fill="white"/>
<path fill-rule="evenodd" clip-rule="evenodd" d="M3.57219 2.95572C3.71649 2.95572 3.83329 3.07252 3.83329 3.21672C3.83329 3.36072 3.71649 3.47781 3.57219 3.47781C3.42819 3.47781 3.31149 3.36072 3.31149 3.21672C3.31149 3.07252 3.42819 2.95572 3.57219 2.95572Z" fill="black"/>
<path fill-rule="evenodd" clip-rule="evenodd" d="M2.96338 4.59122L3.15478 3.66911C3.15478 3.66911 3.17218 3.55182 3.31138 3.55182C3.45058 3.55182 3.78748 3.55182 3.78748 3.55182C3.78748 3.55182 3.90288 3.72131 4.00728 3.82571C4.13038 3.94101 4.31248 4.01762 4.46578 4.08612C4.53338 4.11642 4.61928 4.17422 4.59798 4.26152C4.57628 4.35052 4.41388 4.26652 4.36598 4.24492C4.21978 4.18042 4.04448 4.06771 3.90298 3.98521L3.86818 3.96492L3.78118 4.59122H2.96338Z" fill="black"/>
<path fill-rule="evenodd" clip-rule="evenodd" d="M5.29489 5.77422H5.70329V6.05731C5.70329 6.16961 5.61149 6.26141 5.49919 6.26141C5.38689 6.26141 5.29489 6.16961 5.29489 6.05731V5.77422Z" fill="black"/>
<path fill-rule="evenodd" clip-rule="evenodd" d="M6.61709 5.73952H4.98169C4.98169 5.73952 4.91209 5.73951 4.91209 5.60031C4.91209 5.49751 4.90709 4.60801 4.91459 4.59761C4.91939 4.59061 5.02869 4.58762 5.04439 4.58672C5.07079 4.53432 5.10239 4.48711 5.10379 4.42741C5.00969 4.38151 4.91649 4.38782 4.85249 4.35332C4.74819 4.29692 4.78269 4.18881 4.94789 4.20781C5.02439 4.21681 5.07069 4.23112 5.15239 4.23152C5.19979 4.23052 5.19069 4.24151 5.21769 4.18251C5.27429 4.05921 5.32929 3.91551 5.38249 3.78851C5.41129 3.71971 5.44009 3.65092 5.46879 3.58212C5.46879 3.58212 5.60799 3.51251 5.71239 3.51251C5.81679 3.51251 6.61709 3.51251 6.61709 3.51251V3.69101L5.61869 3.66911C5.59129 3.72351 5.32679 4.23752 5.33049 4.24692C5.34229 4.27662 5.40979 4.27702 5.43409 4.27812C5.53839 4.27812 6.02559 4.27812 6.02559 4.27812C6.02559 4.27812 6.14949 4.31282 6.14949 4.41722L6.15369 4.58832L6.61709 4.57932V5.26012H6.16029V5.56541H6.61709V5.74881V5.73952Z" fill="black"/>
<path fill-rule="evenodd" clip-rule="evenodd" d="M5.15541 5.28722H5.32971C5.36801 5.28722 5.39921 5.31841 5.39921 5.35661V5.42662C5.39921 5.46492 5.36801 5.49611 5.32971 5.49611H5.15541C5.11711 5.49611 5.08591 5.46492 5.08591 5.42662V5.35661C5.08591 5.31841 5.11711 5.28722 5.15541 5.28722Z" fill="white"/>
<path fill-rule="evenodd" clip-rule="evenodd" d="M5.77218 3.79811C5.89298 3.79811 5.99078 3.89592 5.99078 4.01642C5.99078 4.13722 5.89298 4.23502 5.77218 4.23502C5.65148 4.23502 5.55368 4.13722 5.55368 4.01642C5.55368 3.89592 5.65148 3.79811 5.77218 3.79811Z" fill="black"/>
<path fill-rule="evenodd" clip-rule="evenodd" d="M5.2374 4.55731C5.2191 4.42721 5.256 4.45861 5.3992 4.46731C5.4999 4.47331 5.6012 4.45331 5.5534 4.56521C5.4882 4.57221 5.275 4.60841 5.2374 4.55731Z" fill="white"/>
</svg>
