<svg width="12" height="12" viewBox="0 0 12 12" fill="none" xmlns="http://www.w3.org/2000/svg">
<path fill-rule="evenodd" clip-rule="evenodd" d="M5.99989 1.25C8.62279 1.25 10.7499 3.3771 10.7499 6C10.7499 8.6229 8.62279 10.7499 5.99989 10.7499C3.37699 10.7499 1.25 8.6229 1.25 6C1.25 3.3771 3.37699 1.25 5.99989 1.25ZM11.9999 6C11.9999 2.6868 9.31299 0 5.99989 0C2.68679 0 0 2.6868 0 6C0 9.3131 2.68679 11.9999 5.99989 11.9999C9.31299 11.9999 11.9999 9.3131 11.9999 6Z" fill="#FF0000"/>
<path fill-rule="evenodd" clip-rule="evenodd" d="M6.1194 7.5854H5.7415V8.6288" fill="black"/>
<path fill-rule="evenodd" clip-rule="evenodd" d="M8.23979 7.5854H8.6192V8.6288" fill="black"/>
<path fill-rule="evenodd" clip-rule="evenodd" d="M8.7549 8.72361L8.7529 8.7286L8.6857 8.7009L8.6837 8.7L8.6828 8.6979L8.65509 8.63081L8.6601 8.6287H8.65509V7.6802H8.6601L8.65509 7.6781L8.6828 7.6109L8.6837 7.6088L8.6857 7.60801L8.7529 7.5802L8.7549 7.5853V7.5798H9.03799V7.5853L9.03999 7.5802L9.1071 7.60801L9.1091 7.6088L9.11 7.6109L9.1377 7.6781L9.13269 7.6802H9.1377V8.6287H9.13269L9.1377 8.63081L9.11 8.6979L9.1091 8.7L9.1071 8.7009L9.03999 8.7286L9.03799 8.72361V8.7291H8.7549V8.72361Z" fill="black"/>
<path fill-rule="evenodd" clip-rule="evenodd" d="M5.74139 8.6287H5.73639V7.5853V7.5798H5.74139H6.1194H8.23979H8.4296H8.61929H8.6243V7.5853V8.6287H8.61929L8.6243 8.63081L8.5965 8.6979L8.5956 8.7L8.5936 8.7009L8.5266 8.7286L8.5246 8.72361V8.7291H8.23999V8.72361L8.23799 8.7286L8.1707 8.7009L8.1687 8.7L8.1678 8.6979L8.14009 8.63081L8.1451 8.6287H8.1391V7.7338H7.50339L7.4016 7.84591L7.40079 7.84681L7.3998 7.84721L7.2583 7.9099L7.25729 7.9104H7.103H7.10199L7.101 7.9099L6.95949 7.84721L6.9585 7.84681L6.95769 7.84591L6.8557 7.7338H6.22V8.6287H6.215L6.22 8.63081L6.1922 8.6979L6.1913 8.7L6.1893 8.7009L6.1223 8.7286L6.1203 8.72361V8.7291H5.8358V8.72361L5.8338 8.7286L5.7681 8.7009L5.7661 8.7L5.76529 8.6979L5.73749 8.63081L5.74139 8.6287Z" fill="black"/>
<path fill-rule="evenodd" clip-rule="evenodd" d="M5.69919 8.6287L5.70419 8.63081L5.6765 8.6979L5.6756 8.7L5.6736 8.7009L5.60649 8.7286L5.60449 8.72361V8.7291H5.32149V8.72361L5.31949 8.7286L5.2522 8.7009L5.2502 8.7L5.2493 8.6979L5.22169 8.63081L5.2267 8.6287H5.22069V7.6802H5.2267L5.22169 7.6781L5.2493 7.6109L5.2502 7.6088L5.2522 7.60801L5.31949 7.5802L5.32149 7.5853V7.5798H5.60449V7.5853L5.60649 7.5802L5.6736 7.60801L5.6756 7.6088L5.6765 7.6109L5.70419 7.6781L5.69919 7.6802H5.7052V8.6287H5.69919Z" fill="black"/>
<path fill-rule="evenodd" clip-rule="evenodd" d="M9.2511 7.44389L9.25609 7.44589L9.22839 7.51299L9.22749 7.51509L9.22549 7.51599L9.15829 7.54379L9.1563 7.53869V7.54419H5.20309V7.53869L5.2011 7.54379L5.13399 7.51599L5.13199 7.51509L5.13109 7.51299L5.10339 7.44589L5.1084 7.44389H5.1024V7.25999H5.1084L5.10339 7.25789L5.13109 7.19069L5.13199 7.18859L5.13399 7.18779L5.2011 7.15999L5.20309 7.16499V7.15959H9.1563V7.16499L9.15829 7.15999L9.22549 7.18779L9.22749 7.18859L9.22839 7.19069L9.25609 7.25789L9.2511 7.25999H9.25609V7.44389H9.2511Z" fill="black"/>
<path fill-rule="evenodd" clip-rule="evenodd" d="M3.2914 7.2208L4.36819 6.1772C4.40459 6.1448 4.4553 6.0483 4.3752 5.957L3.2899 4.9051C3.1171 4.7753 3.00869 4.9831 3.05159 5.0643L3.32219 5.7759L2.01819 5.6984V6.4213L3.32449 6.3436L3.05089 7.066C3.00629 7.2157 3.1878 7.3285 3.2914 7.2208Z" fill="black"/>
<path fill-rule="evenodd" clip-rule="evenodd" d="M5.0546 3.4877V6.9696H5.06059L5.05559 6.9716L5.08319 7.0387L5.08409 7.0407L5.08609 7.0416L5.15329 7.0694L5.15529 7.0644V7.0698H9.20479V7.0644L9.20679 7.0694L9.2739 7.0416L9.27589 7.0407L9.27679 7.0387L9.3044 6.9716L9.29939 6.9696H9.3044V3.4877H9.29939L9.3044 3.4856L9.27679 3.4184L9.27589 3.4163L9.2739 3.4154L9.20679 3.3877L9.20479 3.3928V3.3873H5.15529V3.3928L5.15329 3.3877L5.08609 3.4154L5.08409 3.4163L5.08319 3.4184L5.05559 3.4856L5.06059 3.4877H5.0546ZM5.38779 6.4961H5.80029V6.7361H5.38779V6.4961ZM8.63959 6.4891H9.0486V6.7291H8.63959V6.4891Z" fill="black"/>
</svg>
