<svg width="12" height="12" viewBox="0 0 12 12" fill="none" xmlns="http://www.w3.org/2000/svg">
<path fill-rule="evenodd" clip-rule="evenodd" d="M5.9999 1.2C8.6504 1.2 10.7999 3.3495 10.7999 6C10.7999 8.6505 8.6504 10.8 5.9999 10.8C3.3494 10.8 1.2 8.6505 1.2 6C1.2 3.3495 3.3494 1.2 5.9999 1.2ZM11.9999 6C11.9999 2.6869 9.3131 0 5.9999 0C2.6868 0 0 2.6869 0 6C0 9.3131 2.6868 11.9999 5.9999 11.9999C9.3131 11.9999 11.9999 9.3131 11.9999 6Z" fill="#FF0000"/>
<path fill-rule="evenodd" clip-rule="evenodd" d="M8.146 3.9514L8.1432 3.9496L8.159 3.92281L8.1596 3.92171L8.1607 3.92131L8.1877 3.9113L8.1887 3.9109L8.1898 3.91121L8.2178 3.92041L8.2168 3.92371L8.2188 3.92091L9.7976 5.1534L9.8489 5.22031L9.8495 5.2219L9.8627 5.30481L9.8625 5.30651L9.8363 5.3857L9.8354 5.3871L9.775 5.44331L9.7735 5.44411L9.6957 5.46161L9.0684 5.437L9.1419 5.8334L9.1673 6.24191L9.1437 6.65041L9.0719 7.05241L8.9538 7.44151L8.7892 7.81221L8.5817 8.15791L8.3356 8.4733L8.0538 8.7546L7.7402 8.9962L7.7383 8.9934L7.7365 8.99631L7.0482 8.50071L7.05 8.49791L7.0482 8.49501L7.3777 8.25941L7.673 7.97771L7.9273 7.6548L8.1352 7.2971L8.2943 6.91241L8.3999 6.50861L8.4505 6.09191L8.4454 5.67971L7.9847 6.13321L7.914 6.17421L7.9124 6.17471L7.8328 6.17371L7.8312 6.17321L7.7613 6.13181L7.7601 6.1306L7.7189 6.0587L7.7184 6.05701L7.7158 5.97231L8.1428 3.95071L8.146 3.9514Z" fill="black"/>
<path fill-rule="evenodd" clip-rule="evenodd" d="M5.2719 4.5386L3.39741 5.1594L3.39641 5.1561L3.39631 5.1596L3.36661 5.1587L3.36551 5.1586L3.36461 5.1578L3.34191 5.1376L3.34101 5.1368L3.34081 5.1357L3.33461 5.1053L3.33781 5.1046L3.33461 5.1042L3.55851 3.0473L3.58761 2.9682L3.58851 2.9668L3.64981 2.9134L3.65131 2.9127L3.7299 2.897L3.73161 2.8971L3.80761 2.9238L3.80901 2.9247L3.86241 2.9865L4.15581 3.571L4.44561 3.3067L4.76781 3.0789L5.11551 2.8963L5.48151 2.7608L5.8614 2.6741L6.2476 2.6389L6.63551 2.6547L7.019 2.7219L7.3903 2.839L7.7457 3.004L7.74441 3.0072L7.74771 3.0074L7.68471 3.8825L7.68151 3.8823L7.68001 3.8854L7.32161 3.7021L6.94181 3.5743L6.54941 3.5043L6.15191 3.4923L5.756 3.5403L5.37081 3.6461L5.00291 3.808L4.66751 4.0185L5.27011 4.2115L5.33911 4.256L5.34021 4.2573L5.37961 4.3309L5.38 4.3326L5.38081 4.4164L5.38041 4.4181L5.34111 4.4919L5.34 4.4931L5.2719 4.5386Z" fill="black"/>
<path fill-rule="evenodd" clip-rule="evenodd" d="M5.1612 7.5171L6.6088 8.9172L6.6066 8.9198L6.6094 8.9181L6.6233 8.9459L6.6238 8.9469L6.6237 8.948L6.6195 8.9783L6.6193 8.9795L6.6184 8.9803L6.5965 9.0015L6.5943 8.999L6.5956 9.0021L4.7929 9.8255L4.7125 9.8387L4.7109 9.8385L4.6365 9.81L4.6351 9.809L4.5826 9.7445L4.5819 9.743L4.5662 9.661L4.5663 9.6593L4.5908 9.5782L4.9248 9.0193L4.5613 8.8871L4.2137 8.7063L3.8897 8.4805L3.5946 8.215L3.3345 7.9116L3.1121 7.5761L2.9309 7.2146L2.7942 6.8319L2.7048 6.4335L2.6629 6.0269L2.6661 6.0266L2.6647 6.0235L3.416 5.644L3.4174 5.6471L3.4207 5.6468L3.4495 6.0657L3.5334 6.4752L3.6722 6.8688L3.8619 7.2378L4.0986 7.5746L4.3782 7.8736L4.6946 8.1275L5.036 8.3281L4.8934 7.6816L4.8958 7.5969L4.8963 7.5952L4.9366 7.5226L4.9377 7.5214L5.0069 7.479L5.0084 7.4785L5.0879 7.4766L5.0895 7.477L5.1612 7.5171Z" fill="black"/>
</svg>
