<svg width="12" height="12" viewBox="0 0 12 12" fill="none" xmlns="http://www.w3.org/2000/svg">
<path fill-rule="evenodd" clip-rule="evenodd" d="M0.26295 5.36244L5.36255 0.262958C5.71315 -0.0876424 6.28686 -0.0876424 6.63726 0.262958L11.7371 5.36244C12.0875 5.71314 12.0875 6.28685 11.7371 6.63755L6.63726 11.737C6.28686 12.0876 5.71315 12.0876 5.36255 11.737L0.26295 6.63755C-0.08765 6.28685 -0.08765 5.71314 0.26295 5.36244Z" fill="#FFEC00"/>
<path fill-rule="evenodd" clip-rule="evenodd" d="M0.365448 5.52056L5.52055 0.365364C5.65255 0.233364 5.82635 0.167351 6.00005 0.167351C6.17375 0.167351 6.34755 0.233364 6.47955 0.365364L11.6347 5.52056C11.7667 5.65246 11.8326 5.82626 11.8326 5.99996C11.8326 6.17366 11.7667 6.34745 11.6347 6.47945L6.47955 11.6347C6.34755 11.7666 6.17375 11.8326 6.00005 11.8326C5.82635 11.8326 5.65255 11.7666 5.52055 11.6347L0.365448 6.47945C0.233448 6.34745 0.16745 6.17366 0.16745 5.99996C0.16745 5.82626 0.233448 5.65246 0.365448 5.52056ZM5.71175 0.556557L0.556648 5.71175C0.477448 5.79085 0.437851 5.89536 0.437851 5.99996C0.437851 6.10456 0.477448 6.20916 0.556648 6.28826L5.71175 11.4435C5.79095 11.5226 5.89545 11.5622 6.00005 11.5622C6.10465 11.5622 6.20915 11.5226 6.28835 11.4435L11.4435 6.28826C11.5227 6.20916 11.5621 6.10456 11.5621 5.99996C11.5621 5.89536 11.5227 5.79085 11.4435 5.71175L6.28835 0.556557C6.20915 0.477457 6.10465 0.437859 6.00005 0.437859C5.89545 0.437859 5.79095 0.477457 5.71175 0.556557Z" fill="black"/>
<path fill-rule="evenodd" clip-rule="evenodd" d="M4.34035 6.80585H3.88705V5.09095C3.72155 5.24655 3.52655 5.36165 3.30145 5.43615V5.02265C3.41995 4.98405 3.54865 4.91066 3.68695 4.80206C3.82585 4.69376 3.92085 4.56765 3.97265 4.42365H4.34035V6.80585ZM5.78855 4.42365C6.01785 4.42365 6.19705 4.50585 6.32685 4.67025C6.48055 4.86415 6.55785 5.18706 6.55785 5.63686C6.55785 6.08616 6.47995 6.40935 6.32515 6.60575C6.19675 6.76795 6.01785 6.84896 5.78855 6.84896C5.55815 6.84896 5.37215 6.76026 5.23095 6.58256C5.08985 6.40506 5.01925 6.08786 5.01925 5.63236C5.01925 5.18536 5.09715 4.86336 5.25195 4.66686C5.38035 4.50476 5.55925 4.42365 5.78855 4.42365ZM5.78855 4.80096C5.73445 4.80096 5.68595 4.81855 5.64405 4.85395C5.60145 4.88855 5.56855 4.95146 5.54535 5.04246C5.51445 5.15986 5.49915 5.35856 5.49915 5.63686C5.49915 5.91586 5.51275 6.10716 5.54055 6.21146C5.56805 6.31576 5.60265 6.38525 5.64455 6.41985C5.68655 6.45465 5.73445 6.47166 5.78855 6.47166C5.84275 6.47166 5.89115 6.45416 5.93375 6.41866C5.97535 6.38406 6.00855 6.32116 6.03175 6.23016C6.06265 6.11396 6.07795 5.91586 6.07795 5.63686C6.07795 5.35856 6.06435 5.16686 6.03655 5.06286C6.00915 4.95856 5.97455 4.88855 5.93255 4.85395C5.89065 4.81855 5.84275 4.80096 5.78855 4.80096ZM8.66235 5.08866V5.44926H8.35105V6.14486C8.35105 6.28606 8.35405 6.36795 8.36005 6.39115C8.36605 6.41445 8.37935 6.43366 8.40085 6.44906C8.42155 6.46406 8.44705 6.47166 8.47745 6.47166C8.51995 6.47166 8.58055 6.45756 8.66055 6.42806L8.69855 6.78095C8.59305 6.82625 8.47405 6.84896 8.34075 6.84896C8.25915 6.84896 8.18575 6.83506 8.11995 6.80756C8.05445 6.78006 8.00655 6.74406 7.97625 6.70046C7.94535 6.65656 7.92435 6.59755 7.91215 6.52245C7.90285 6.46945 7.89775 6.36255 7.89775 6.20095V5.44926H7.68945V5.08866H7.89785V4.74796L8.35105 4.48006V5.08866H8.66235Z" fill="black"/>
<path fill-rule="evenodd" clip-rule="evenodd" d="M4.09575 7.42876L6.00005 9.33306L7.90435 7.42876H4.09575Z" fill="black"/>
</svg>
