<svg width="26" height="15" viewBox="0 0 26 15" fill="none" xmlns="http://www.w3.org/2000/svg">
<path fill-rule="evenodd" clip-rule="evenodd" d="M0 7.62939e-06H25.2684V14.3436H0V7.62939e-06Z" fill="#90502C"/>
<path fill-rule="evenodd" clip-rule="evenodd" d="M8.7913 2.62661C8.8856 2.62561 8.9539 2.58061 8.9959 2.49261L9.1853 2.5864C9.1075 2.7445 8.9762 2.82551 8.7913 2.82931C8.6408 2.82931 8.525 2.7713 8.4441 2.6552C8.3631 2.5392 8.3226 2.3766 8.3226 2.1675C8.3226 1.9583 8.3631 1.79571 8.4441 1.67971C8.525 1.56371 8.6408 1.50561 8.7913 1.50561C8.9762 1.50961 9.1075 1.59041 9.1853 1.74851L8.9959 1.84231C8.9539 1.75431 8.8856 1.70961 8.7913 1.70841C8.702 1.70841 8.6369 1.75081 8.5961 1.83561C8.5553 1.92041 8.5349 2.031 8.5349 2.1675C8.5349 2.3039 8.5553 2.41451 8.5961 2.49931C8.6369 2.58421 8.702 2.62661 8.7913 2.62661ZM9.6214 1.60891C9.6214 1.63821 9.6112 1.66281 9.5908 1.68261C9.5704 1.70231 9.5462 1.71221 9.5181 1.71221C9.4914 1.71221 9.4674 1.70171 9.4464 1.68061C9.4253 1.65961 9.4148 1.63571 9.4148 1.60891C9.4148 1.58211 9.4253 1.55821 9.4464 1.53721C9.4674 1.51611 9.4914 1.50561 9.5181 1.50561C9.5449 1.50561 9.5688 1.51611 9.5899 1.53721C9.6109 1.55821 9.6214 1.58211 9.6214 1.60891ZM9.6233 2.80831H9.4148V1.8729H9.6233V2.80831ZM10.2355 2.83121C9.9804 2.83121 9.8529 2.67251 9.8529 2.35491C9.8529 2.02341 9.9817 1.85501 10.2393 1.84991C10.3158 1.85091 10.3745 1.87351 10.4153 1.91691V1.607L10.618 1.50561V2.80831H10.4153V2.77581C10.3617 2.81271 10.3018 2.83121 10.2355 2.83121ZM10.0518 2.353C10.0531 2.5507 10.1137 2.65021 10.2335 2.65141C10.3049 2.65241 10.3643 2.6227 10.4114 2.5615V2.14071C10.3745 2.07821 10.3171 2.047 10.2393 2.047C10.1143 2.055 10.0518 2.1566 10.0518 2.353ZM11.5324 2.80831H11.3353V2.7777C11.2856 2.8134 11.2301 2.83191 11.1689 2.83321C11.0669 2.83221 10.9824 2.8028 10.9155 2.7461C10.8485 2.6894 10.815 2.60681 10.815 2.49841C10.815 2.40531 10.846 2.32721 10.9078 2.26411C10.9697 2.20091 11.0535 2.17 11.1593 2.1713C11.218 2.1713 11.2728 2.17831 11.3239 2.19231C11.3264 2.09921 11.2792 2.04821 11.1823 2.03931C11.0994 2.03631 11.0248 2.05971 10.9585 2.10821L10.8571 1.95321C10.949 1.88821 11.0554 1.85371 11.1766 1.84991C11.2761 1.84991 11.3599 1.87831 11.4281 1.93511C11.4963 1.99181 11.5311 2.07441 11.5324 2.18281V2.80831ZM11.3181 2.59211V2.38171C11.262 2.36641 11.2059 2.35871 11.1498 2.35871C11.1052 2.35871 11.0682 2.37341 11.0388 2.40281C11.0095 2.43211 10.9955 2.4652 10.9968 2.5022C10.9968 2.5405 11.0118 2.57681 11.0417 2.61121C11.0717 2.64571 11.1122 2.66291 11.1632 2.66291C11.218 2.66291 11.2697 2.63931 11.3181 2.59211ZM12.11 2.83121C11.855 2.83121 11.7275 2.67251 11.7275 2.35491C11.7275 2.02341 11.8563 1.85501 12.1139 1.84991C12.1904 1.85091 12.249 1.87351 12.2899 1.91691V1.607L12.4926 1.50561V2.80831H12.2899V2.77581C12.2363 2.81271 12.1764 2.83121 12.11 2.83121ZM11.9264 2.353C11.9277 2.5507 11.9882 2.65021 12.1081 2.65141C12.1795 2.65241 12.2388 2.6227 12.286 2.5615V2.14071C12.249 2.07821 12.1917 2.047 12.1139 2.047C11.9889 2.055 11.9264 2.1566 11.9264 2.353ZM13.4299 2.42571H12.879C12.879 2.48561 12.8949 2.53511 12.9268 2.57391C12.9587 2.61281 13.0002 2.63171 13.0511 2.63041C13.1226 2.63241 13.1774 2.60171 13.2157 2.53671L13.3974 2.61121C13.3336 2.75411 13.2195 2.82741 13.055 2.83121C12.9389 2.83121 12.8455 2.7885 12.7748 2.7031C12.704 2.6176 12.6686 2.49521 12.6686 2.33581C12.6686 2.20441 12.7027 2.09061 12.7709 1.99441C12.8392 1.89811 12.9338 1.84991 13.055 1.84991C13.1685 1.84991 13.2593 1.8946 13.3276 1.9838C13.3958 2.0731 13.4299 2.22041 13.4299 2.42571ZM13.2252 2.23821C13.2265 2.18471 13.2115 2.13811 13.1803 2.09861C13.149 2.05911 13.1073 2.03931 13.055 2.03931C12.9989 2.03831 12.9542 2.05881 12.9211 2.10151C12.8879 2.14421 12.8726 2.18981 12.8752 2.23821H13.2252ZM14.4724 2.83121C14.2173 2.83121 14.0898 2.67251 14.0898 2.35491C14.0898 2.02341 14.2186 1.85501 14.4762 1.84991C14.5527 1.85091 14.6114 1.87351 14.6522 1.91691V1.607L14.855 1.50561V2.80831H14.6522V2.77581C14.5987 2.81271 14.5387 2.83121 14.4724 2.83121ZM14.2888 2.353C14.29 2.5507 14.3506 2.65021 14.4705 2.65141C14.5419 2.65241 14.6012 2.6227 14.6484 2.5615V2.14071C14.6114 2.07821 14.554 2.047 14.4762 2.047C14.3513 2.055 14.2888 2.1566 14.2888 2.353ZM15.7693 2.80831H15.5723V2.7777C15.5226 2.8134 15.4671 2.83191 15.4059 2.83321C15.3039 2.83221 15.2194 2.8028 15.1524 2.7461C15.0855 2.6894 15.052 2.60681 15.052 2.49841C15.052 2.40531 15.0829 2.32721 15.1448 2.26411C15.2066 2.20091 15.2905 2.17 15.3963 2.1713C15.455 2.1713 15.5098 2.17831 15.5608 2.19231C15.5634 2.09921 15.5162 2.04821 15.4193 2.03931C15.3364 2.03631 15.2618 2.05971 15.1955 2.10821L15.0941 1.95321C15.1859 1.88821 15.2924 1.85371 15.4135 1.84991C15.513 1.84991 15.5968 1.87831 15.665 1.93511C15.7333 1.99181 15.768 2.07441 15.7693 2.18281V2.80831ZM15.5551 2.59211V2.38171C15.499 2.36641 15.4428 2.35871 15.3867 2.35871C15.3421 2.35871 15.3051 2.37341 15.2758 2.40281C15.2465 2.43211 15.2324 2.4652 15.2337 2.5022C15.2337 2.5405 15.2487 2.57681 15.2787 2.61121C15.3086 2.64571 15.3491 2.66291 15.4001 2.66291C15.455 2.66291 15.5066 2.63931 15.5551 2.59211ZM16.6205 2.55581C16.6193 2.63741 16.5874 2.70341 16.5249 2.75381C16.4624 2.80411 16.3763 2.82991 16.2667 2.83121C16.1417 2.83021 16.0269 2.78211 15.9223 2.68781L16.0562 2.5539C16.134 2.6151 16.2042 2.64631 16.2667 2.64761C16.3113 2.64861 16.3492 2.6396 16.3805 2.6198C16.4117 2.6001 16.4267 2.57551 16.4254 2.54621C16.4267 2.51691 16.4127 2.48951 16.3833 2.46401C16.354 2.43841 16.3068 2.41291 16.2418 2.38741C16.1474 2.35561 16.0785 2.31601 16.0352 2.26881C15.9918 2.22171 15.9702 2.1668 15.9702 2.1043C15.9663 2.0419 15.9921 1.98351 16.0476 1.92931C16.1031 1.87511 16.1761 1.84801 16.2667 1.84801C16.4044 1.85101 16.5185 1.89971 16.609 1.99531L16.4809 2.12351C16.4184 2.06611 16.3483 2.03611 16.2705 2.03361C16.2386 2.03361 16.2134 2.04061 16.1949 2.05361C16.1764 2.06711 16.1665 2.08521 16.1653 2.10821C16.164 2.12861 16.1713 2.14521 16.1873 2.15791C16.2032 2.17071 16.2431 2.1891 16.3068 2.2134C16.3973 2.2414 16.4723 2.28231 16.5316 2.33581C16.5909 2.38931 16.6205 2.46271 16.6205 2.55581ZM17.5712 1.47311L17.6955 1.21111H17.9174L17.7108 1.47311H17.5712ZM18.2866 2.80831H18.0724L17.9461 2.44871H17.5464L17.4201 2.80831H17.204L17.6439 1.52671H17.8467L18.2866 2.80831ZM17.8734 2.2421L17.7472 1.88251L17.6171 2.2421H17.8734ZM18.805 2.83121C18.5499 2.83121 18.4224 2.67251 18.4224 2.35491C18.4224 2.02341 18.5512 1.85501 18.8088 1.84991C18.8853 1.85091 18.944 1.87351 18.9848 1.91691V1.85761H19.1876V2.77581C19.1787 3.02571 19.0645 3.1908 18.8452 3.2712L18.761 3.10291C18.914 3.04161 18.9886 2.93261 18.9848 2.77581C18.9313 2.81271 18.8713 2.83121 18.805 2.83121ZM18.6214 2.353C18.6226 2.5507 18.6832 2.65021 18.8031 2.65141C18.8745 2.65241 18.9338 2.6227 18.981 2.5615V2.14071C18.944 2.07821 18.8866 2.047 18.8088 2.047C18.6839 2.055 18.6214 2.1566 18.6214 2.353ZM20.1153 2.80831H19.9164V2.76051C19.8603 2.80761 19.7857 2.83121 19.6926 2.83121C19.5842 2.83121 19.5032 2.79421 19.4496 2.72031C19.3961 2.64631 19.3693 2.56021 19.3693 2.46201V1.8729H19.5663V2.45821C19.5638 2.50671 19.5797 2.55031 19.6141 2.58921C19.6486 2.62811 19.6919 2.64631 19.7442 2.64381C19.799 2.64381 19.8408 2.62781 19.8695 2.59591C19.8982 2.56411 19.9126 2.51811 19.9126 2.45821V1.8729H20.1153V2.80831ZM21.0105 2.80831H20.8135V2.7777C20.7637 2.8134 20.7083 2.83191 20.6471 2.83321C20.5451 2.83221 20.4606 2.8028 20.3936 2.7461C20.3267 2.6894 20.2932 2.60681 20.2932 2.49841C20.2932 2.40531 20.3241 2.32721 20.386 2.26411C20.4478 2.20091 20.5317 2.17 20.6375 2.1713C20.6962 2.1713 20.751 2.17831 20.802 2.19231C20.8046 2.09921 20.7574 2.04821 20.6605 2.03931C20.5776 2.03631 20.503 2.05971 20.4367 2.10821L20.3353 1.95321C20.4271 1.88821 20.5336 1.85371 20.6547 1.84991C20.7542 1.84991 20.838 1.87831 20.9062 1.93511C20.9745 1.99181 21.0092 2.07441 21.0105 2.18281V2.80831ZM20.7963 2.59211V2.38171C20.7402 2.36641 20.684 2.35871 20.6279 2.35871C20.5833 2.35871 20.5463 2.37341 20.517 2.40281C20.4877 2.43211 20.4736 2.4652 20.4749 2.5022C20.4749 2.5405 20.4899 2.57681 20.5199 2.61121C20.5498 2.64571 20.5903 2.66291 20.6413 2.66291C20.6962 2.66291 20.7478 2.63931 20.7963 2.59211ZM21.8617 2.55581C21.8605 2.63741 21.8286 2.70341 21.7661 2.75381C21.7036 2.80411 21.6175 2.82991 21.5079 2.83121C21.3829 2.83021 21.2681 2.78211 21.1635 2.68781L21.2974 2.5539C21.3752 2.6151 21.4454 2.64631 21.5079 2.64761C21.5525 2.64861 21.5904 2.6396 21.6217 2.6198C21.6529 2.6001 21.6679 2.57551 21.6666 2.54621C21.6679 2.51691 21.6539 2.48951 21.6245 2.46401C21.5952 2.43841 21.548 2.41291 21.483 2.38741C21.3886 2.35561 21.3197 2.31601 21.2764 2.26881C21.233 2.22171 21.2114 2.1668 21.2114 2.1043C21.2075 2.0419 21.2333 1.98351 21.2888 1.92931C21.3443 1.87511 21.4173 1.84801 21.5079 1.84801C21.6456 1.85101 21.7597 1.89971 21.8502 1.99531L21.7221 2.12351C21.6596 2.06611 21.5895 2.03611 21.5117 2.03361C21.4798 2.03361 21.4546 2.04061 21.4361 2.05361C21.4176 2.06711 21.4077 2.08521 21.4065 2.10821C21.4052 2.12861 21.4125 2.14521 21.4285 2.15791C21.4444 2.17071 21.4843 2.1891 21.548 2.2134C21.6385 2.2414 21.7135 2.28231 21.7728 2.33581C21.8321 2.38931 21.8617 2.46271 21.8617 2.55581Z" fill="white"/>
<path fill-rule="evenodd" clip-rule="evenodd" d="M0.206207 0.244011H25.0622V0.695107H0.206207V0.244011Z" fill="white"/>
<path fill-rule="evenodd" clip-rule="evenodd" d="M0.206207 13.5431H25.0622V13.9942H0.206207V13.5431Z" fill="white"/>
<path fill-rule="evenodd" clip-rule="evenodd" d="M0.206207 3.97761H25.0622V4.2627H0.206207V3.97761Z" fill="white"/>
<path fill-rule="evenodd" clip-rule="evenodd" d="M0.206207 7.536H25.0622V7.82111H0.206207V7.536Z" fill="white"/>
<path fill-rule="evenodd" clip-rule="evenodd" d="M3.0271 1.15731L1.4182 1.1166C1.3661 1.1126 1.254 1.14661 1.2446 1.27651L1.2542 2.89401C1.2846 3.12331 1.5253 3.05041 1.5553 2.95671L1.8972 2.21681L2.8178 3.2712L3.3717 2.72961L2.3304 1.78961L3.0896 1.45741C3.2378 1.37931 3.1875 1.15571 3.0271 1.15731Z" fill="white"/>
<path fill-rule="evenodd" clip-rule="evenodd" d="M4.9553 1.12622H6.8694C6.9474 1.12622 7.0111 1.18991 7.0111 1.26791V3.18202C7.0111 3.26002 6.9474 3.32382 6.8694 3.32382H4.9553C4.8773 3.32382 4.8136 3.26002 4.8136 3.18202V1.26791C4.8136 1.18991 4.8773 1.12622 4.9553 1.12622Z" fill="white"/>
<path fill-rule="evenodd" clip-rule="evenodd" d="M6.79101 2.61633C6.79101 2.82723 6.39761 2.99812 5.91231 2.99812C5.42711 2.99812 5.03371 2.82723 5.03371 2.61633H6.79101Z" fill="black"/>
<path fill-rule="evenodd" clip-rule="evenodd" d="M5.82881 2.61633H5.96371V1.79372H5.82881V2.61633Z" fill="black"/>
<path fill-rule="evenodd" clip-rule="evenodd" d="M5.10471 1.82564H5.23971V2.01003H5.10471V1.82564Z" fill="black"/>
<path fill-rule="evenodd" clip-rule="evenodd" d="M5.10471 2.05234H5.23971V2.20512H5.10471V2.05234Z" fill="black"/>
<path fill-rule="evenodd" clip-rule="evenodd" d="M5.10471 2.27103H5.23971V2.39822H5.10471V2.27103Z" fill="black"/>
<path fill-rule="evenodd" clip-rule="evenodd" d="M5.10471 2.44373H5.23971V2.52553H5.10471V2.44373Z" fill="black"/>
<path fill-rule="evenodd" clip-rule="evenodd" d="M5.4308 1.82564H5.5658V2.01003H5.4308V1.82564Z" fill="black"/>
<path fill-rule="evenodd" clip-rule="evenodd" d="M5.4308 2.05234H5.5658V2.20512H5.4308V2.05234Z" fill="black"/>
<path fill-rule="evenodd" clip-rule="evenodd" d="M5.4308 2.27103H5.5658V2.39822H5.4308V2.27103Z" fill="black"/>
<path fill-rule="evenodd" clip-rule="evenodd" d="M5.4308 2.44373H5.5658V2.52553H5.4308V2.44373Z" fill="black"/>
<path fill-rule="evenodd" clip-rule="evenodd" d="M6.22681 1.82564H6.36171V2.01003H6.22681V1.82564Z" fill="black"/>
<path fill-rule="evenodd" clip-rule="evenodd" d="M6.22681 2.05234H6.36171V2.20512H6.22681V2.05234Z" fill="black"/>
<path fill-rule="evenodd" clip-rule="evenodd" d="M6.22681 2.27103H6.36171V2.39822H6.22681V2.27103Z" fill="black"/>
<path fill-rule="evenodd" clip-rule="evenodd" d="M6.22681 2.44373H6.36171V2.52553H6.22681V2.44373Z" fill="black"/>
<path fill-rule="evenodd" clip-rule="evenodd" d="M6.5529 1.82564H6.68781V2.01003H6.5529V1.82564Z" fill="black"/>
<path fill-rule="evenodd" clip-rule="evenodd" d="M6.5529 2.05234H6.68781V2.20512H6.5529V2.05234Z" fill="black"/>
<path fill-rule="evenodd" clip-rule="evenodd" d="M6.5529 2.27103H6.68781V2.39822H6.5529V2.27103Z" fill="black"/>
<path fill-rule="evenodd" clip-rule="evenodd" d="M6.5529 2.44373H6.68781V2.52553H6.5529V2.44373Z" fill="black"/>
<path fill-rule="evenodd" clip-rule="evenodd" d="M5.46071 1.79372H5.58401C5.58401 1.79372 5.72531 1.53923 5.86041 1.82563C5.86041 1.82563 5.86041 1.54323 5.66061 1.61633C5.46071 1.68953 5.46071 1.79372 5.46071 1.79372Z" fill="black"/>
<path fill-rule="evenodd" clip-rule="evenodd" d="M5.1284 1.73472H5.25171C5.25171 1.73472 5.5516 1.30093 5.7906 1.71493C5.7906 1.71493 5.7729 1.34832 5.3593 1.50742C5.3593 1.50742 5.2638 1.53922 5.1284 1.73472Z" fill="black"/>
<path fill-rule="evenodd" clip-rule="evenodd" d="M6.33461 1.77822H6.21131C6.21131 1.77822 6.07001 1.52372 5.93491 1.81002C5.93491 1.81002 5.93501 1.52762 6.13481 1.60082C6.33461 1.67392 6.33461 1.77822 6.33461 1.77822Z" fill="black"/>
<path fill-rule="evenodd" clip-rule="evenodd" d="M6.6669 1.71912H6.5436C6.5436 1.71912 6.2438 1.28531 6.0047 1.69931C6.0047 1.69931 6.0225 1.33282 6.4361 1.49182C6.4361 1.49182 6.5315 1.52372 6.6669 1.71912Z" fill="black"/>
<path fill-rule="evenodd" clip-rule="evenodd" d="M9.6698 6.53831H9.4499L9.2433 5.98171H9.0003V6.53831H8.7975V5.25671H9.3045C9.409 5.25771 9.4916 5.29601 9.5522 5.37051C9.6127 5.44511 9.643 5.5271 9.643 5.6164C9.643 5.6839 9.6246 5.748 9.5876 5.8086C9.5506 5.8692 9.5028 5.91281 9.4441 5.93961L9.6698 6.53831ZM9.4422 5.62211C9.4422 5.57231 9.4272 5.5341 9.3972 5.5073C9.3673 5.4805 9.3338 5.4665 9.2968 5.4652H9.0003V5.7808H9.3045C9.3427 5.7808 9.3752 5.7668 9.402 5.7387C9.4288 5.7107 9.4422 5.67181 9.4422 5.62211ZM10.609 6.06971C10.6077 6.19851 10.5822 6.30371 10.5325 6.38531C10.4662 6.49621 10.3616 6.5549 10.2188 6.5613C10.076 6.5553 9.9714 6.49621 9.9051 6.38531C9.8554 6.30371 9.8299 6.19851 9.8286 6.06971C9.8299 5.93581 9.8554 5.82801 9.9051 5.74641C9.9727 5.63931 10.0772 5.58381 10.2188 5.58001C10.3603 5.58401 10.4649 5.63931 10.5325 5.74641C10.5822 5.82801 10.6077 5.93581 10.609 6.06971ZM10.2169 6.35851C10.2908 6.35851 10.345 6.3222 10.3795 6.2495C10.4024 6.1985 10.4139 6.1392 10.4139 6.0716C10.4139 6.0002 10.4024 5.93901 10.3795 5.88801C10.3463 5.81531 10.2921 5.77891 10.2169 5.77891C10.1442 5.77891 10.0913 5.81531 10.0581 5.88801C10.0351 5.93901 10.0237 6.0002 10.0237 6.0716C10.0237 6.1392 10.0351 6.1985 10.0581 6.2495C10.0964 6.3222 10.1493 6.35851 10.2169 6.35851ZM11.1542 6.5613C10.8991 6.5613 10.7716 6.40251 10.7716 6.08501C10.7716 5.75341 10.9004 5.58511 11.158 5.58001C11.2345 5.58101 11.2932 5.60361 11.334 5.64701V5.3371L11.5367 5.23571V6.53831H11.334V6.50581C11.2804 6.54281 11.2205 6.5613 11.1542 6.5613ZM10.9705 6.08311C10.9718 6.28071 11.0324 6.38021 11.1522 6.38151C11.2237 6.38251 11.283 6.3528 11.3301 6.2916V5.87081C11.2932 5.80831 11.2358 5.777 11.158 5.777C11.033 5.785 10.9705 5.88671 10.9705 6.08311ZM12.4836 6.06971C12.4823 6.19851 12.4568 6.30371 12.4071 6.38531C12.3408 6.49621 12.2362 6.5549 12.0934 6.5613C11.9505 6.5553 11.846 6.49621 11.7797 6.38531C11.7299 6.30371 11.7044 6.19851 11.7031 6.06971C11.7044 5.93581 11.7299 5.82801 11.7797 5.74641C11.8472 5.63931 11.9518 5.58381 12.0934 5.58001C12.2349 5.58401 12.3395 5.63931 12.4071 5.74641C12.4568 5.82801 12.4823 5.93581 12.4836 6.06971ZM12.0915 6.35851C12.1654 6.35851 12.2196 6.3222 12.254 6.2495C12.277 6.1985 12.2885 6.1392 12.2885 6.0716C12.2885 6.0002 12.277 5.93901 12.254 5.88801C12.2209 5.81531 12.1667 5.77891 12.0915 5.77891C12.0188 5.77891 11.9658 5.81531 11.9327 5.88801C11.9097 5.93901 11.8983 6.0002 11.8983 6.0716C11.8983 6.1392 11.9097 6.1985 11.9327 6.2495C11.971 6.3222 12.0239 6.35851 12.0915 6.35851ZM13.4802 5.60291L13.1167 6.53831H12.9369L12.5773 5.60291H12.7935L13.0268 6.23231L13.2525 5.60291H13.4802ZM13.8493 5.33901C13.8493 5.36831 13.8392 5.39291 13.8187 5.41261C13.7984 5.43241 13.7741 5.44231 13.746 5.44231C13.7193 5.44231 13.6954 5.43181 13.6743 5.41071C13.6533 5.38971 13.6428 5.36581 13.6428 5.33901C13.6428 5.31221 13.6533 5.2883 13.6743 5.2672C13.6954 5.2462 13.7193 5.23571 13.746 5.23571C13.7728 5.23571 13.7968 5.2462 13.8178 5.2672C13.8388 5.2883 13.8493 5.31221 13.8493 5.33901ZM13.8513 6.53831H13.6428V5.60291H13.8513V6.53831ZM14.7943 6.53831H14.5973V6.50771C14.5475 6.54341 14.4921 6.56191 14.4309 6.56321C14.3289 6.56221 14.2444 6.5329 14.1774 6.4762C14.1105 6.4194 14.077 6.33681 14.077 6.22851C14.077 6.13541 14.1079 6.0572 14.1698 5.9941C14.2316 5.931 14.3154 5.90011 14.4213 5.90141C14.48 5.90141 14.5348 5.9084 14.5858 5.9224C14.5884 5.8293 14.5412 5.7783 14.4443 5.7694C14.3614 5.7664 14.2868 5.7898 14.2204 5.8382L14.1191 5.68331C14.2109 5.61821 14.3174 5.58381 14.4385 5.58001C14.538 5.58001 14.6218 5.60841 14.69 5.66511C14.7583 5.72191 14.793 5.8044 14.7943 5.9128V6.53831ZM14.5801 6.32221V6.11181C14.524 6.09651 14.4678 6.08881 14.4117 6.08881C14.3671 6.08881 14.3301 6.1035 14.3008 6.1328C14.2715 6.1621 14.2574 6.19531 14.2587 6.23231C14.2587 6.27051 14.2737 6.3069 14.3037 6.3413C14.3336 6.3757 14.3741 6.39291 14.4251 6.39291C14.48 6.39291 14.5316 6.36931 14.5801 6.32221ZM14.2625 5.51881L14.3869 5.25671H14.6088L14.4022 5.51881H14.2625ZM15.5231 5.64501L15.4561 5.8306C15.4179 5.7923 15.379 5.77381 15.3395 5.77511C15.254 5.77711 15.2087 5.8376 15.2037 5.9549V6.53831H14.9971V5.58761H15.2017V5.6565C15.2362 5.6055 15.2859 5.58001 15.3509 5.58001C15.416 5.58101 15.4734 5.60291 15.5231 5.64501ZM15.898 5.33901C15.898 5.36831 15.8878 5.39291 15.8674 5.41261C15.847 5.43241 15.8228 5.44231 15.7947 5.44231C15.7679 5.44231 15.744 5.43181 15.723 5.41071C15.7019 5.38971 15.6914 5.36581 15.6914 5.33901C15.6914 5.31221 15.7019 5.2883 15.723 5.2672C15.744 5.2462 15.7679 5.23571 15.7947 5.23571C15.8215 5.23571 15.8454 5.2462 15.8665 5.2672C15.8875 5.2883 15.898 5.31221 15.898 5.33901ZM15.8999 6.53831H15.6914V5.60291H15.8999V6.53831ZM16.843 6.53831H16.6459V6.50771C16.5962 6.54341 16.5407 6.56191 16.4795 6.56321C16.3775 6.56221 16.293 6.5329 16.2261 6.4762C16.1591 6.4194 16.1256 6.33681 16.1256 6.22851C16.1256 6.13541 16.1566 6.0572 16.2184 5.9941C16.2803 5.931 16.3641 5.90011 16.4699 5.90141C16.5286 5.90141 16.5834 5.9084 16.6345 5.9224C16.637 5.8293 16.5898 5.7783 16.4929 5.7694C16.41 5.7664 16.3354 5.7898 16.2691 5.8382L16.1677 5.68331C16.2596 5.61821 16.366 5.58381 16.4872 5.58001C16.5866 5.58001 16.6705 5.60841 16.7387 5.66511C16.8069 5.72191 16.8417 5.8044 16.843 5.9128V6.53831ZM16.6287 6.32221V6.11181C16.5726 6.09651 16.5165 6.08881 16.4604 6.08881C16.4157 6.08881 16.3788 6.1035 16.3494 6.1328C16.3201 6.1621 16.3061 6.19531 16.3074 6.23231C16.3074 6.27051 16.3224 6.3069 16.3523 6.3413C16.3823 6.3757 16.4228 6.39291 16.4738 6.39291C16.5286 6.39291 16.5803 6.36931 16.6287 6.32221Z" fill="white"/>
<path fill-rule="evenodd" clip-rule="evenodd" d="M21.7671 4.89871L23.376 4.85791C23.4281 4.85391 23.5402 4.88791 23.5496 5.01791L23.54 6.63542C23.5096 6.86472 23.2689 6.79182 23.2389 6.69812L22.897 5.95822L21.9764 7.01261L21.4225 6.47091L22.4638 5.53102L21.7046 5.19871C21.5564 5.12061 21.6067 4.89711 21.7671 4.89871Z" fill="white"/>
<path fill-rule="evenodd" clip-rule="evenodd" d="M18.0377 4.72651H19.9517C20.0297 4.72651 20.0935 4.79031 20.0935 4.86831V6.78231C20.0935 6.86031 20.0297 6.92411 19.9517 6.92411H18.0377C17.9597 6.92411 17.8959 6.86031 17.8959 6.78231V4.86831C17.8959 4.79031 17.9597 4.72651 18.0377 4.72651Z" fill="white"/>
<path fill-rule="evenodd" clip-rule="evenodd" d="M18.1701 5.49611L18.9947 5.12372L19.8192 5.46951V5.33002L18.9947 4.95761L18.1701 5.31342V5.49611Z" fill="black"/>
<path fill-rule="evenodd" clip-rule="evenodd" d="M18.5433 6.53351H18.4494V5.91191L18.4964 5.49611C18.4964 5.49611 18.5167 5.31702 18.9955 5.34012C19.4743 5.36312 19.4834 5.49611 19.4834 5.49611L19.54 5.93571V6.53351H19.4735C19.4735 6.53351 19.5009 6.69311 19.3679 6.69311C19.2349 6.69311 19.2881 6.53351 19.2881 6.53351H18.6763C18.6763 6.53351 18.7054 6.69311 18.6057 6.69311C18.5059 6.69311 18.5167 6.58661 18.5167 6.58661L18.5433 6.53351Z" fill="black"/>
<path fill-rule="evenodd" clip-rule="evenodd" d="M19.4493 6.01552H18.5515L18.5957 5.57591H19.3861L19.4493 6.01552Z" fill="white"/>
<path fill-rule="evenodd" clip-rule="evenodd" d="M18.6489 6.16112C18.6783 6.16112 18.7021 6.18491 18.7021 6.21431C18.7021 6.24361 18.6783 6.26741 18.6489 6.26741C18.6195 6.26741 18.5957 6.24361 18.5957 6.21431C18.5957 6.18491 18.6195 6.16112 18.6489 6.16112Z" fill="white"/>
<path fill-rule="evenodd" clip-rule="evenodd" d="M19.3046 6.16112C19.334 6.16112 19.3578 6.18491 19.3578 6.21431C19.3578 6.24361 19.334 6.26741 19.3046 6.26741C19.2753 6.26741 19.2514 6.24361 19.2514 6.21431C19.2514 6.18491 19.2753 6.16112 19.3046 6.16112Z" fill="white"/>
<path fill-rule="evenodd" clip-rule="evenodd" d="M9.3116 9.90191H9.1088V9.15971L8.8123 9.90191L8.5158 9.15971V9.90191H8.3131V8.62031H8.5158L8.8123 9.33961L9.1088 8.62031H9.3116V9.90191ZM10.2259 9.90191H10.027V9.8541C9.9709 9.9013 9.8963 9.9249 9.8032 9.9249C9.6948 9.9249 9.6138 9.88791 9.5602 9.81391C9.5067 9.74001 9.4799 9.6539 9.4799 9.5557V8.96651H9.6769V9.5519C9.6744 9.6003 9.6903 9.64401 9.7247 9.68291C9.7592 9.72181 9.8025 9.74 9.8548 9.7374C9.9096 9.7374 9.95139 9.72151 9.98009 9.68961C10.0088 9.65771 10.0231 9.6118 10.0231 9.5519V8.96651H10.2259V9.90191ZM11.0637 9.64941C11.0625 9.73111 11.0306 9.797 10.9681 9.8474C10.9056 9.8978 10.8195 9.9236 10.7099 9.9249C10.5849 9.9239 10.4701 9.87581 10.3655 9.78141L10.4994 9.64751C10.5772 9.70871 10.6474 9.74 10.7099 9.7412C10.7545 9.7422 10.7924 9.73321 10.8237 9.71351C10.8549 9.69371 10.8699 9.6692 10.8686 9.6399C10.8699 9.6106 10.8559 9.58311 10.8265 9.55761C10.7972 9.53211 10.75 9.5066 10.685 9.4811C10.5906 9.4492 10.5217 9.40971 10.4784 9.36251C10.435 9.31531 10.4134 9.26051 10.4134 9.19801C10.4095 9.13551 10.4353 9.0772 10.4908 9.023C10.5463 8.9688 10.6193 8.9417 10.7099 8.9417C10.8476 8.9437 10.9617 8.99331 11.0523 9.08901L10.9241 9.21711C10.8616 9.15971 10.7915 9.1298 10.7137 9.1272C10.6818 9.1272 10.6566 9.1342 10.6381 9.1473C10.6196 9.1607 10.6097 9.17891 10.6085 9.20181C10.6072 9.22221 10.6145 9.23881 10.6305 9.25161C10.6464 9.26431 10.6863 9.28281 10.75 9.30711C10.8405 9.33511 10.9155 9.37591 10.9748 9.42941C11.0341 9.48301 11.0637 9.55631 11.0637 9.64941ZM11.957 9.5194H11.4061C11.4061 9.5793 11.4221 9.62871 11.454 9.66761C11.4858 9.70651 11.5273 9.72531 11.5783 9.72401C11.6497 9.72701 11.7045 9.6953 11.7428 9.6303L11.9245 9.7049C11.8608 9.8477 11.7466 9.9211 11.5821 9.9249C11.4661 9.9249 11.3727 9.88221 11.3019 9.79671C11.2311 9.71131 11.1957 9.58891 11.1957 9.42941C11.1957 9.29811 11.2298 9.18431 11.298 9.08801C11.3663 8.99171 11.461 8.94361 11.5821 8.94361C11.6956 8.94361 11.7865 8.98821 11.8547 9.07751C11.9229 9.16681 11.957 9.3141 11.957 9.5194ZM11.7523 9.3319C11.7536 9.2783 11.7386 9.23181 11.7074 9.19231C11.6762 9.15271 11.6344 9.133 11.5821 9.133C11.526 9.132 11.4814 9.15241 11.4482 9.19521C11.4151 9.23781 11.3997 9.2835 11.4023 9.3319H11.7523ZM12.8561 9.90191H12.6571V9.8541C12.601 9.9013 12.5264 9.9249 12.4333 9.9249C12.3249 9.9249 12.244 9.88791 12.1904 9.81391C12.1368 9.74001 12.11 9.6539 12.11 9.5557V8.96651H12.3071V9.5519C12.3045 9.6003 12.3205 9.64401 12.3549 9.68291C12.3893 9.72181 12.4327 9.74 12.485 9.7374C12.5398 9.7374 12.5815 9.72151 12.6103 9.68961C12.6389 9.65771 12.6533 9.6118 12.6533 9.5519V8.96651H12.8561V9.90191ZM13.9081 9.9249C13.6531 9.9249 13.5255 9.7661 13.5255 9.4486C13.5255 9.117 13.6543 8.94871 13.912 8.94361C13.9884 8.94461 14.0471 8.96721 14.0879 9.01061V8.70071L14.2907 8.59931V9.90191H14.0879V9.86941C14.0344 9.90641 13.9744 9.9249 13.9081 9.9249ZM13.7245 9.44671C13.7258 9.64431 13.7863 9.74381 13.9062 9.74511C13.9776 9.74611 14.0369 9.7164 14.0841 9.6552V9.23441C14.0471 9.17191 13.9897 9.1406 13.912 9.1406C13.787 9.1486 13.7245 9.25031 13.7245 9.44671ZM15.228 9.5194H14.6771C14.6771 9.5793 14.693 9.62871 14.7249 9.66761C14.7568 9.70651 14.7982 9.72531 14.8492 9.72401C14.9207 9.72701 14.9755 9.6953 15.0137 9.6303L15.1955 9.7049C15.1317 9.8477 15.0176 9.9211 14.8531 9.9249C14.737 9.9249 14.6436 9.88221 14.5728 9.79671C14.5021 9.71131 14.4667 9.58891 14.4667 9.42941C14.4667 9.29811 14.5008 9.18431 14.569 9.08801C14.6372 8.99171 14.7319 8.94361 14.8531 8.94361C14.9666 8.94361 15.0574 8.98821 15.1256 9.07751C15.1939 9.16681 15.228 9.3141 15.228 9.5194ZM15.0233 9.3319C15.0246 9.2783 15.0096 9.23181 14.9783 9.19231C14.9471 9.15271 14.9054 9.133 14.8531 9.133C14.797 9.132 14.7523 9.15241 14.7192 9.19521C14.686 9.23781 14.6707 9.2835 14.6733 9.3319H15.0233ZM16.7564 9.90191H16.5536V9.34531H16.0869V9.90191H15.8841V8.62031H16.0869V9.13871H16.5536V8.62031H16.7564V9.90191ZM17.1867 8.70261C17.1867 8.73191 17.1765 8.75651 17.1561 8.77621C17.1357 8.79601 17.1115 8.8059 17.0834 8.8059C17.0567 8.8059 17.0327 8.79541 17.0117 8.77431C16.9906 8.75331 16.9801 8.72941 16.9801 8.70261C16.9801 8.67581 16.9906 8.65191 17.0117 8.63081C17.0327 8.60981 17.0567 8.59931 17.0834 8.59931C17.1102 8.59931 17.1341 8.60981 17.1552 8.63081C17.1762 8.65191 17.1867 8.67581 17.1867 8.70261ZM17.1886 9.90191H16.9801V8.96651H17.1886V9.90191ZM18.0743 9.64941C18.073 9.73111 18.0411 9.797 17.9787 9.8474C17.9162 9.8978 17.8301 9.9236 17.7204 9.9249C17.5955 9.9239 17.4807 9.87581 17.3761 9.78141L17.51 9.64751C17.5878 9.70871 17.6579 9.74 17.7204 9.7412C17.765 9.7422 17.803 9.73321 17.8342 9.71351C17.8655 9.69371 17.8805 9.6692 17.8792 9.6399C17.8805 9.6106 17.8664 9.58311 17.8371 9.55761C17.8078 9.53211 17.7606 9.5066 17.6955 9.4811C17.6012 9.4492 17.5323 9.40971 17.489 9.36251C17.4456 9.31531 17.4239 9.26051 17.4239 9.19801C17.4201 9.13551 17.4459 9.0772 17.5014 9.023C17.5569 8.9688 17.6299 8.9417 17.7204 8.9417C17.8582 8.9437 17.9723 8.99331 18.0628 9.08901L17.9346 9.21711C17.8722 9.15971 17.802 9.1298 17.7242 9.1272C17.6924 9.1272 17.6672 9.1342 17.6487 9.1473C17.6302 9.1607 17.6203 9.17891 17.619 9.20181C17.6178 9.22221 17.6251 9.23881 17.641 9.25161C17.657 9.26431 17.6968 9.28281 17.7606 9.30711C17.8511 9.33511 17.926 9.37591 17.9854 9.42941C18.0446 9.48301 18.0743 9.55631 18.0743 9.64941ZM18.6692 9.6973L18.6137 9.9C18.5818 9.9166 18.5449 9.9249 18.5028 9.9249C18.4543 9.9249 18.4103 9.90261 18.3708 9.85801C18.3313 9.81331 18.3115 9.75341 18.3115 9.67811V9.15591H18.1757V8.96651H18.3115V8.6968L18.5085 8.59931V8.96651H18.6711V9.15211H18.5085V9.6552C18.5085 9.7062 18.5276 9.73301 18.5659 9.73551C18.5978 9.73651 18.6322 9.724 18.6692 9.6973ZM19.5606 9.43331C19.5593 9.29941 19.5338 9.19161 19.484 9.11001C19.4165 9.00291 19.3119 8.94741 19.1704 8.94361C19.0288 8.94761 18.9242 9.00291 18.8567 9.11001C18.8069 9.19161 18.7814 9.29941 18.7801 9.43331C18.7814 9.56211 18.8069 9.66731 18.8567 9.74891C18.923 9.85981 19.0275 9.9185 19.1704 9.9249C19.3132 9.9189 19.4178 9.85981 19.484 9.74891C19.5338 9.66731 19.5593 9.56211 19.5606 9.43331ZM18.9963 8.88241L19.1206 8.62031H19.3425L19.1359 8.88241H18.9963ZM19.1685 9.72211C19.1008 9.72211 19.0479 9.68581 19.0097 9.61311C18.9867 9.56211 18.9752 9.5028 18.9752 9.4352C18.9752 9.3638 18.9867 9.30261 19.0097 9.25161C19.0428 9.17891 19.0958 9.14251 19.1685 9.14251C19.2437 9.14251 19.2979 9.17891 19.331 9.25161C19.354 9.30261 19.3655 9.3638 19.3655 9.4352C19.3655 9.5028 19.354 9.56211 19.331 9.61311C19.2966 9.68581 19.2424 9.72211 19.1685 9.72211ZM20.2568 9.00861L20.1899 9.19421C20.1516 9.15591 20.1127 9.13741 20.0732 9.13871C19.9878 9.14071 19.9425 9.2012 19.9374 9.3185V9.90191H19.7308V8.95121H19.9355V9.0201C19.9699 8.9691 20.0196 8.94361 20.0847 8.94361C20.1497 8.94461 20.2071 8.96651 20.2568 9.00861ZM20.6317 8.70261C20.6317 8.73191 20.6216 8.75651 20.6011 8.77621C20.5808 8.79601 20.5565 8.8059 20.5284 8.8059C20.5017 8.8059 20.4778 8.79541 20.4567 8.77431C20.4357 8.75331 20.4252 8.72941 20.4252 8.70261C20.4252 8.67581 20.4357 8.65191 20.4567 8.63081C20.4778 8.60981 20.5017 8.59931 20.5284 8.59931C20.5552 8.59931 20.5792 8.60981 20.6002 8.63081C20.6213 8.65191 20.6317 8.67581 20.6317 8.70261ZM20.6337 9.90191H20.4252V8.96651H20.6337V9.90191ZM21.5767 9.90191H21.3797V9.87132C21.3299 9.90702 21.2745 9.92551 21.2133 9.92681C21.1113 9.92581 21.0268 9.89651 20.9598 9.83981C20.8929 9.78301 20.8594 9.70041 20.8594 9.59211C20.8594 9.49901 20.8903 9.4208 20.9522 9.3577C21.014 9.2946 21.0979 9.26371 21.2037 9.26501C21.2624 9.26501 21.3172 9.272 21.3682 9.286C21.3708 9.1929 21.3236 9.1419 21.2267 9.133C21.1438 9.13 21.0692 9.15341 21.0029 9.20181L20.9015 9.04691C20.9933 8.98181 21.0998 8.94741 21.2209 8.94361C21.3204 8.94361 21.4042 8.97201 21.4724 9.02871C21.5407 9.08551 21.5754 9.16801 21.5767 9.27641V9.90191ZM21.3625 9.68581V9.47541C21.3064 9.46011 21.2502 9.4524 21.1941 9.4524C21.1495 9.4524 21.1125 9.46711 21.0832 9.49641C21.0539 9.52571 21.0398 9.55891 21.0411 9.59591C21.0411 9.63411 21.0561 9.6705 21.0861 9.7049C21.116 9.7393 21.1565 9.75651 21.2075 9.75651C21.2624 9.75651 21.314 9.73301 21.3625 9.68581ZM9.11069 11.4047H8.8142V12.5065H8.6114V11.4047H8.3188V11.2249H9.11069V11.4047ZM10.0442 12.1239H9.4933C9.4933 12.1838 9.5092 12.2333 9.5411 12.2722C9.573 12.311 9.6144 12.3299 9.6654 12.3286C9.7369 12.3316 9.7917 12.2999 9.8299 12.2349L10.0117 12.3094C9.9479 12.4523 9.8338 12.5256 9.6693 12.5294C9.5532 12.5294 9.4598 12.4867 9.389 12.4013C9.3183 12.3158 9.2829 12.1934 9.2829 12.034C9.2829 11.9026 9.317 11.7888 9.3852 11.6926C9.4534 11.5963 9.5481 11.5482 9.6693 11.5482C9.7828 11.5482 9.8736 11.5928 9.9418 11.682C10.0101 11.7713 10.0442 11.9186 10.0442 12.1239ZM9.8395 11.9364C9.8408 11.8829 9.82579 11.8364 9.79449 11.7968C9.76329 11.7573 9.7216 11.7375 9.6693 11.7375C9.6131 11.7365 9.5685 11.757 9.5354 11.7997C9.5022 11.8424 9.4869 11.888 9.4895 11.9364H9.8395ZM10.9298 12.5065H10.7328V12.4759C10.6831 12.5116 10.6276 12.5301 10.5664 12.5314C10.4644 12.5304 10.3799 12.501 10.3129 12.4443C10.246 12.3876 10.2125 12.305 10.2125 12.1966C10.2125 12.1035 10.2434 12.0254 10.3053 11.9623C10.3671 11.8992 10.451 11.8682 10.5568 11.8695C10.6155 11.8695 10.6703 11.8765 10.7213 11.8906C10.7239 11.7974 10.6767 11.7465 10.5798 11.7375C10.4969 11.7355 10.4223 11.7579 10.356 11.8064L10.2546 11.6515C10.3464 11.5864 10.4529 11.552 10.574 11.5482C10.6735 11.5482 10.7574 11.5765 10.8256 11.6333C10.8938 11.69 10.9285 11.7726 10.9298 11.881V12.5065ZM10.7156 12.2903V12.0799C10.6595 12.0646 10.6034 12.057 10.5472 12.057C10.5026 12.057 10.4656 12.0716 10.4363 12.101C10.407 12.1303 10.3929 12.1635 10.3942 12.2004C10.3942 12.2387 10.4092 12.275 10.4392 12.3094C10.4692 12.3439 10.5096 12.3611 10.5606 12.3611C10.6155 12.3611 10.6671 12.3375 10.7156 12.2903ZM11.563 12.3018L11.5075 12.5046C11.4756 12.5212 11.4386 12.5294 11.3965 12.5294C11.3481 12.5294 11.3041 12.5071 11.2646 12.4625C11.225 12.4179 11.2053 12.3579 11.2053 12.2827V11.7605H11.0694V11.5711H11.2053V11.3014L11.4023 11.2038V11.5711H11.5649V11.7567H11.4023V12.2597C11.4023 12.3107 11.4214 12.3375 11.4597 12.3401C11.4916 12.3411 11.526 12.3286 11.563 12.3018ZM12.242 11.6132L12.1751 11.7987C12.1368 11.7605 12.0979 11.742 12.0584 11.7432C11.9729 11.7462 11.9277 11.8057 11.9226 11.9231V12.5065H11.716V11.5558H11.9207V11.6247C11.9551 11.5736 12.0048 11.5482 12.0699 11.5482C12.1349 11.5492 12.1923 11.5711 12.242 11.6132ZM13.1258 12.0378C13.1245 12.1666 13.099 12.2718 13.0492 12.3535C12.9829 12.4644 12.8784 12.5231 12.7355 12.5294C12.5927 12.5234 12.4881 12.4644 12.4218 12.3535C12.3721 12.2718 12.3466 12.1666 12.3453 12.0378C12.3466 11.9039 12.3721 11.7962 12.4218 11.7146C12.4894 11.6074 12.594 11.552 12.7355 11.5482C12.8771 11.5522 12.9817 11.6074 13.0492 11.7146C13.099 11.7962 13.1245 11.9039 13.1258 12.0378ZM12.7336 12.3267C12.8076 12.3267 12.8618 12.2903 12.8962 12.2176C12.9192 12.1666 12.9306 12.1073 12.9306 12.0397C12.9306 11.9683 12.9192 11.9071 12.8962 11.8561C12.8631 11.7834 12.8089 11.7471 12.7336 11.7471C12.6609 11.7471 12.608 11.7834 12.5749 11.8561C12.5519 11.9071 12.5404 11.9683 12.5404 12.0397C12.5404 12.1073 12.5519 12.1666 12.5749 12.2176C12.6131 12.2903 12.666 12.3267 12.7336 12.3267ZM14.7651 12.5065H14.5623V11.7643L14.2658 12.5065L13.9693 11.7643V12.5065H13.7666V11.2249H13.9693L14.2658 11.9441L14.5623 11.2249H14.7651V12.5065ZM15.6794 12.5065H15.4805V12.4587C15.4244 12.5059 15.3498 12.5294 15.2567 12.5294C15.1483 12.5294 15.0673 12.4924 15.0137 12.4185C14.9602 12.3445 14.9334 12.2585 14.9334 12.1603V11.5711H15.1304V12.1564C15.1279 12.2049 15.1438 12.2486 15.1782 12.2875C15.2127 12.3263 15.256 12.3445 15.3083 12.342C15.3631 12.342 15.4049 12.326 15.4336 12.2941C15.4623 12.2623 15.4767 12.2164 15.4767 12.1564V11.5711H15.6794V12.5065ZM15.842 11.5596H16.0409V11.6189C16.097 11.5717 16.1717 11.5482 16.2647 11.5482C16.3731 11.5482 16.4541 11.5851 16.5077 11.6591C16.5612 11.7331 16.588 11.8191 16.588 11.9173V12.5065H16.391V11.9212C16.3935 11.8727 16.3776 11.829 16.3431 11.7901C16.3087 11.7512 16.2654 11.7331 16.2131 11.7356C16.1582 11.7356 16.1165 11.7515 16.0878 11.7834C16.0591 11.8153 16.0448 11.8612 16.0448 11.9212V12.5065H15.842V11.5596ZM17.0069 11.3071C17.0069 11.3364 16.9967 11.361 16.9763 11.3808C16.9559 11.4005 16.9317 11.4104 16.9036 11.4104C16.8768 11.4104 16.8529 11.3999 16.8319 11.3789C16.8108 11.3578 16.8003 11.3339 16.8003 11.3071C16.8003 11.2803 16.8108 11.2564 16.8319 11.2354C16.8529 11.2143 16.8768 11.2038 16.9036 11.2038C16.9304 11.2038 16.9543 11.2143 16.9753 11.2354C16.9964 11.2564 17.0069 11.2803 17.0069 11.3071ZM17.0088 12.5065H16.8003V11.5711H17.0088V12.5065ZM17.2097 12.034C17.2097 11.9026 17.2345 11.7962 17.2843 11.7146C17.3506 11.6036 17.4558 11.5482 17.5999 11.5482C17.7848 11.5482 17.9034 11.6266 17.9557 11.7834L17.7663 11.86C17.7383 11.7783 17.6821 11.7382 17.598 11.7394C17.5291 11.7394 17.4794 11.7764 17.4488 11.8504C17.4271 11.9026 17.4163 11.9639 17.4163 12.034C17.4163 12.1041 17.4271 12.1653 17.4488 12.2176C17.4794 12.2916 17.5291 12.3286 17.598 12.3286C17.6821 12.3296 17.7383 12.2897 17.7663 12.2081L17.9557 12.2846C17.9034 12.4415 17.7848 12.5199 17.5999 12.5199C17.4558 12.5199 17.3506 12.4644 17.2843 12.3535C17.2345 12.2718 17.2097 12.1653 17.2097 12.034ZM18.365 11.3071C18.365 11.3364 18.3548 11.361 18.3344 11.3808C18.314 11.4005 18.2898 11.4104 18.2617 11.4104C18.2349 11.4104 18.211 11.3999 18.19 11.3789C18.1689 11.3578 18.1584 11.3339 18.1584 11.3071C18.1584 11.2803 18.1689 11.2564 18.19 11.2354C18.211 11.2143 18.2349 11.2038 18.2617 11.2038C18.2885 11.2038 18.3124 11.2143 18.3335 11.2354C18.3545 11.2564 18.365 11.2803 18.365 11.3071ZM18.3669 12.5065H18.1584V11.5711H18.3669V12.5065ZM18.979 12.5294C18.9127 12.5294 18.8528 12.5109 18.7992 12.474V12.868L18.5965 12.9694V11.5558H18.7992V11.6151C18.84 11.5717 18.8987 11.5494 18.9752 11.5482C19.2328 11.5532 19.3616 11.7216 19.3616 12.0531C19.3616 12.3707 19.2341 12.5294 18.979 12.5294ZM19.1627 12.0512C19.1627 11.8548 19.1002 11.7528 18.9752 11.7452C18.8974 11.7452 18.84 11.7764 18.8031 11.8389V12.2597C18.8502 12.3209 18.9096 12.3509 18.981 12.3496C19.1008 12.3486 19.1614 12.2489 19.1627 12.0512ZM20.276 12.5065H20.0789V12.4759C20.0292 12.5116 19.9737 12.5301 19.9125 12.5314C19.8105 12.5304 19.726 12.501 19.6591 12.4443C19.5921 12.3876 19.5586 12.305 19.5586 12.1966C19.5586 12.1035 19.5896 12.0254 19.6514 11.9623C19.7133 11.8992 19.7971 11.8682 19.9029 11.8695C19.9616 11.8695 20.0164 11.8765 20.0675 11.8906C20.07 11.7974 20.0228 11.7465 19.9259 11.7375C19.843 11.7355 19.7684 11.7579 19.7021 11.8064L19.6007 11.6515C19.6926 11.5864 19.799 11.552 19.9202 11.5482C20.0196 11.5482 20.1035 11.5765 20.1717 11.6333C20.2399 11.69 20.2747 11.7726 20.276 11.881V12.5065ZM20.0617 12.2903V12.0799C20.0056 12.0646 19.9495 12.057 19.8934 12.057C19.8487 12.057 19.8118 12.0716 19.7824 12.101C19.7531 12.1303 19.7391 12.1635 19.7404 12.2004C19.7404 12.2387 19.7554 12.275 19.7853 12.3094C19.8153 12.3439 19.8558 12.3611 19.9068 12.3611C19.9616 12.3611 20.0133 12.3375 20.0617 12.2903ZM20.7082 12.5065H20.5017V11.3071L20.7082 11.2038V12.5065Z" fill="white"/>
<path fill-rule="evenodd" clip-rule="evenodd" d="M4.9553 8.301H6.8694C6.9474 8.301 7.0111 8.3648 7.0111 8.4428V10.3569C7.0111 10.4349 6.9474 10.4986 6.8694 10.4986H4.9553C4.8773 10.4986 4.8136 10.4349 4.8136 10.3569V8.4428C4.8136 8.3648 4.8773 8.301 4.9553 8.301Z" fill="white"/>
<path fill-rule="evenodd" clip-rule="evenodd" d="M4.9553 10.8346H6.8694C6.9474 10.8346 7.0111 10.8983 7.0111 10.9763V12.8904C7.0111 12.9684 6.9474 13.0322 6.8694 13.0322H4.9553C4.8773 13.0322 4.8136 12.9684 4.8136 12.8904V10.9763C4.8136 10.8983 4.8773 10.8346 4.9553 10.8346Z" fill="white"/>
<path fill-rule="evenodd" clip-rule="evenodd" d="M5.05501 10.1976H5.29811V9.22522H5.05501V10.1976Z" fill="black"/>
<path fill-rule="evenodd" clip-rule="evenodd" d="M5.54552 10.1976H5.78872V9.22522H5.54552V10.1976Z" fill="black"/>
<path fill-rule="evenodd" clip-rule="evenodd" d="M6.0361 10.1976H6.27921V9.22522H6.0361V10.1976Z" fill="black"/>
<path fill-rule="evenodd" clip-rule="evenodd" d="M6.5267 10.1976H6.7698V9.22522H6.5267V10.1976Z" fill="black"/>
<path fill-rule="evenodd" clip-rule="evenodd" d="M5.05501 9.09491H6.76981L5.91621 8.60211L5.05501 9.09491Z" fill="black"/>
<path fill-rule="evenodd" clip-rule="evenodd" d="M3.5494 10.7172L2.4405 9.55071C2.4062 9.51141 2.3032 9.45581 2.2047 9.54071L1.0678 10.6913C0.927099 10.875 1.1488 10.9936 1.2363 10.9485L2.0013 10.6671L1.9066 12.0637L2.6813 12.0727L2.6097 10.6718L3.3814 10.9737C3.5414 11.0232 3.664 10.8295 3.5494 10.7172Z" fill="white"/>
<path fill-rule="evenodd" clip-rule="evenodd" d="M5.7348 11.1199C5.7348 11.1199 5.9721 11.2216 6.633 11.1199C6.633 11.1199 6.6499 11.8656 6.2432 12.0689C6.2432 12.0689 5.8026 11.9334 5.7348 11.1199Z" fill="black"/>
<path fill-rule="evenodd" clip-rule="evenodd" d="M5.8026 11.6622C5.8026 11.6622 5.2264 11.6283 5.1925 11.7978C5.1925 11.7978 5.2603 12.735 5.5314 12.7468C5.5314 12.7468 5.9642 12.4088 6.0377 12.0341C6.0377 12.0341 5.8026 11.8308 5.8026 11.6622Z" fill="black"/>
<path fill-rule="evenodd" clip-rule="evenodd" d="M6.00591 11.7639C6.00591 11.7639 6.32581 11.8655 6.41261 11.73C6.41261 11.73 6.29401 12.0689 6.00591 11.7639Z" fill="white"/>
<path fill-rule="evenodd" clip-rule="evenodd" d="M6.37871 11.4589C6.37871 11.4589 6.39551 11.385 6.51431 11.3572C6.63311 11.3294 6.51961 11.3572 6.51961 11.3572C6.51961 11.3572 6.55031 11.4589 6.37871 11.4589Z" fill="white"/>
<path fill-rule="evenodd" clip-rule="evenodd" d="M6.1326 11.4589C6.1326 11.4589 6.11581 11.385 5.99701 11.3572C5.87821 11.3294 5.9917 11.3572 5.9917 11.3572C5.9917 11.3572 5.961 11.4589 6.1326 11.4589Z" fill="white"/>
<path fill-rule="evenodd" clip-rule="evenodd" d="M5.49681 11.5944C5.49681 11.5944 5.38881 11.0737 5.07951 11.4018L4.97141 11.2933C4.97141 11.2933 5.53431 10.9844 5.56671 11.5944H5.49681Z" fill="black"/>
<path fill-rule="evenodd" clip-rule="evenodd" d="M6.00591 12.3349C6.00591 12.3349 6.3788 12.1706 6.3449 12.4079C6.311 12.6451 6.39551 12.7456 6.51431 12.7129C6.63311 12.6802 6.8533 12.5434 6.8533 12.5434C6.8533 12.5434 6.4635 12.6555 6.4465 12.5774C6.4296 12.4992 6.5143 12.2239 6.3787 12.2142C6.2432 12.2042 6.00591 12.3349 6.00591 12.3349Z" fill="black"/>
<path fill-rule="evenodd" clip-rule="evenodd" d="M5.362 11.9929C5.362 11.9929 5.3606 11.9028 5.4975 11.8912L5.362 11.9929Z" fill="white"/>
<path fill-rule="evenodd" clip-rule="evenodd" d="M5.80261 11.9929C5.80261 11.9929 5.80401 11.9028 5.66701 11.8912L5.80261 11.9929Z" fill="white"/>
<path fill-rule="evenodd" clip-rule="evenodd" d="M5.3634 12.341C5.3634 12.341 5.6833 12.2394 5.7701 12.3749C5.7701 12.3749 5.6514 12.036 5.3634 12.341Z" fill="white"/>
</svg>
