<svg width="365" height="197" viewBox="0 0 365 197" fill="none" xmlns="http://www.w3.org/2000/svg">
<path fill-rule="evenodd" clip-rule="evenodd" d="M182.016 184.811C178.703 184.811 176.016 187.498 176.016 190.811C176.016 194.125 178.703 196.811 182.016 196.811C185.329 196.811 188.016 194.125 188.016 190.811C188.016 187.498 185.329 184.811 182.016 184.811ZM177.216 190.811C177.216 188.161 179.365 186.011 182.016 186.011C184.666 186.011 186.816 188.161 186.816 190.811C186.816 193.462 184.666 195.611 182.016 195.611C179.365 195.611 177.216 193.462 177.216 190.811Z" fill="#FF0000"/>
<path fill-rule="evenodd" clip-rule="evenodd" d="M178.554 189.529L178.551 189.53L178.512 189.471L178.432 189.411L178.361 189.331L178.301 189.261L178.251 189.201L178.183 189.103L178.147 189.112L178.167 189.229L178.168 189.236L178.162 189.232L178.016 189.134L177.998 189.188L178.086 189.327L178.088 189.329L178.086 189.331L178.006 189.411L178.005 189.412L177.876 189.452L177.837 189.54L177.836 189.541L177.746 189.641L177.656 189.771L177.655 189.772L177.546 189.831L177.518 189.909L177.557 190.017L177.635 190.066L177.723 190.086L177.782 190.027L177.782 190.026L177.882 189.976L177.884 189.975L178.054 189.966L178.163 189.956L178.222 189.926L178.225 189.924L178.227 189.927L178.287 190.058L178.317 190.228L178.387 190.368L178.437 190.488L178.447 190.569L178.458 190.669L178.447 190.82L178.487 190.989L178.536 191.078L178.567 191.179L178.568 191.181L178.567 191.182L178.437 191.361L178.347 191.492L178.257 191.612L178.197 191.771L178.157 191.901L178.117 191.981L178.127 192.08L178.127 192.082L178.067 192.231L178.057 192.301V192.381L178.057 192.382L178.027 192.451L178.018 192.581L178.026 192.667L178.132 192.648L178.201 192.588L178.241 192.53L178.231 192.422L178.19 192.352L178.189 192.35L178.19 192.348L178.231 192.289V192.22L178.25 192.14L178.3 191.97L178.351 191.799L178.352 191.798L178.452 191.707L178.581 191.607L178.712 191.547L178.852 191.437L178.952 191.338L178.952 191.337L178.954 191.337L179.043 191.327L179.047 191.326V191.33V191.42V191.56L179.067 191.7L179.127 191.93L179.138 192.039L179.206 192.128L179.336 192.248L179.467 192.388L179.546 192.478L179.686 192.548L179.824 192.597L179.91 192.559L179.821 192.364L179.714 192.354L179.636 192.384L179.632 192.385L179.631 192.382L179.611 192.312L179.572 192.243L179.482 192.183L179.342 192.094L179.341 192.092L179.291 191.982L179.291 191.981L179.28 191.84L179.291 191.72L179.301 191.6V191.41V191.407H179.304H179.384L179.464 191.397L179.603 191.377L179.753 191.317L179.883 191.287L180.063 191.237L180.222 191.167L180.372 191.097L180.377 191.094V191.1V191.249L180.397 191.369L180.447 191.509L180.497 191.629L180.538 191.779L180.538 191.871V191.872L180.537 191.873L180.457 191.973L180.387 192.052L180.257 192.172L180.157 192.282L180.107 192.362V192.45L180.107 192.452L180.057 192.552L180.019 192.697L180.093 192.687L180.27 192.589L180.231 192.502L180.221 192.442L180.22 192.439L180.222 192.438L180.302 192.388L180.361 192.269L180.362 192.268L180.472 192.178L180.562 192.098L180.712 191.987L180.82 191.879L180.811 191.771L180.781 191.671L180.761 191.54L180.771 191.4L180.771 191.395L180.775 191.397L180.846 191.427L180.847 191.427L180.977 191.558L181.136 191.698L181.266 191.777L181.268 191.778L181.357 191.929L181.517 192.199L181.627 192.507H181.694L181.696 192.507L181.756 192.538L181.757 192.539L181.807 192.618L182.02 192.715L182.001 192.612L182.001 192.522L181.923 192.453L181.855 192.434L181.796 192.463L181.793 192.465L181.791 192.462L181.762 192.412L181.761 192.41V192.312L181.682 192.243L181.681 192.242L181.621 192.142L181.581 192.042L181.542 191.922L181.491 191.781L181.471 191.661L181.412 191.563L181.343 191.533L181.263 191.493L181.262 191.492L181.192 191.392L181.191 191.391V191.39V191.25L181.201 191.069V190.98V190.94V190.936H181.205H181.334H181.338V190.94V190.99L181.348 191.139L181.358 191.248L181.446 191.338L181.447 191.339L181.507 191.499L181.528 191.639L181.617 191.768L181.687 191.838L181.688 191.839L181.744 191.98L181.771 191.899L181.771 191.898L181.772 191.897L181.852 191.848L181.891 191.769L181.882 191.611L181.812 191.452L181.741 191.321L181.741 191.32V191.19L181.732 191.163L181.729 191.166L180.705 190.142L180.708 190.138L180.653 190.112L180.474 190.102L180.324 190.063L180.145 190.073H179.925L179.764 190.093L179.654 190.112H179.524L179.414 190.102H179.314L179.312 190.102L179.173 190.052L179.172 190.051L179.083 189.972L178.943 189.913L178.941 189.912L178.842 189.811L178.751 189.721L178.661 189.601L178.552 189.531L178.554 189.529Z" fill="black"/>
<path fill-rule="evenodd" clip-rule="evenodd" d="M184.186 192.14L184.184 192.142L183.943 191.902L183.946 191.899L183.944 191.896L183.949 191.893L184.02 191.852L184.022 191.851H184.109L184.111 191.852L184.188 191.896L184.189 191.897L184.233 191.973L184.234 191.975V192.064L184.233 192.065L184.197 192.128L184.194 192.133L184.19 192.14L184.189 192.141L184.186 192.14Z" fill="#1B1918"/>
<path fill-rule="evenodd" clip-rule="evenodd" d="M183.951 191.9L184 191.948L184.142 192.09L184.185 192.134L184.189 192.128L184.192 192.123L184.227 192.063V191.976L184.184 191.902L184.109 191.858H184.023L183.955 191.898L183.953 191.899L183.951 191.9Z" fill="black"/>
<path fill-rule="evenodd" clip-rule="evenodd" d="M184.616 192.565L184.719 192.668L184.74 192.689L184.749 192.678L184.871 192.526L184.963 192.333L185.011 192.126V191.913L184.963 191.705L184.871 191.514L184.738 191.347L184.571 191.214L184.38 191.121L184.172 191.075H183.959L183.752 191.121L183.56 191.214L183.397 191.345L183.498 191.447L183.52 191.469L183.677 191.348L183.865 191.27L184.065 191.244L184.266 191.27L184.453 191.348L184.613 191.47L184.737 191.631L184.814 191.818L184.841 192.019L184.814 192.219L184.737 192.407L184.624 192.555L184.616 192.565Z" fill="black"/>
<path fill-rule="evenodd" clip-rule="evenodd" d="M185.653 190.812V190.791V190.498H184.02V190.54V190.812H184.04H184.252H185.653Z" fill="white"/>
<path fill-rule="evenodd" clip-rule="evenodd" d="M185.562 195.206L186.411 194.358L178.47 186.417L177.621 187.265L185.562 195.206Z" fill="#FF0000" stroke="#FF0000" stroke-width="0.0027"/>
<path fill-rule="evenodd" clip-rule="evenodd" d="M184.02 190.498H185.653V190.791V190.812H184.252H184.04H184.02V190.54V190.498ZM183.713 191.061H185.837H185.991L185.99 191.041L185.987 190.888L185.837 190.891V190.887H185.833V189.637H185.837V189.634H185.86H185.991L185.99 189.614L185.987 189.461L185.837 189.463V189.46H185.833V189.311H185.68H185.66V189.439V189.461H185.657V189.464H182.176V189.461H182.172V189.311H181.999V189.4V189.946L182.544 190.491H183.65H183.836V190.494H183.839V190.769V190.815H183.836V190.818H182.889H182.872L183.114 191.061H183.355H183.526H183.713ZM184.252 189.955H184.04H184.02V189.684V189.641H185.653V189.934V189.955H184.252ZM183.839 189.637V189.912V189.958H183.836V189.962H182.176V189.958H182.172V189.637H182.176V189.634H182.415H183.597H183.836V189.637H183.839Z" fill="black"/>
</svg>
