<svg width="12" height="12" viewBox="0 0 12 12" fill="none" xmlns="http://www.w3.org/2000/svg">
<path fill-rule="evenodd" clip-rule="evenodd" d="M5.9999 1.25C8.6228 1.25 10.7499 3.3771 10.7499 6C10.7499 8.6229 8.6228 10.7499 5.9999 10.7499C3.377 10.7499 1.25 8.6229 1.25 6C1.25 3.3771 3.377 1.25 5.9999 1.25ZM11.9999 6C11.9999 2.6868 9.3131 0 5.9999 0C2.6868 0 0 2.6868 0 6C0 9.3131 2.6868 11.9999 5.9999 11.9999C9.3131 11.9999 11.9999 9.3131 11.9999 6Z" fill="#FF0000"/>
<path fill-rule="evenodd" clip-rule="evenodd" d="M7.81902 7.44342H4.31792L4.31572 7.44372L2.57092 7.44342L6.06822 9.62272L9.56612 7.44452L7.82122 7.44432L7.81902 7.44342Z" fill="black"/>
<path fill-rule="evenodd" clip-rule="evenodd" d="M3.43398 5.80859V4.11349C3.10118 4.35529 2.87697 4.47609 2.76157 4.47609C2.70657 4.47609 2.65757 4.45509 2.61507 4.41369C2.57227 4.37229 2.55127 4.32409 2.55127 4.26939C2.55127 4.20559 2.57228 4.15919 2.61398 4.12939C2.65588 4.10019 2.72987 4.06139 2.83617 4.01429C2.99517 3.94369 3.12187 3.86919 3.21687 3.79089C3.31177 3.71269 3.39567 3.62479 3.46967 3.52819C3.54287 3.43069 3.59107 3.37169 3.61317 3.34929C3.63527 3.32689 3.67777 3.31559 3.73957 3.31559C3.80877 3.31559 3.86517 3.34109 3.90657 3.39179C3.94907 3.44279 3.96977 3.51289 3.96977 3.60239V5.73549C3.96977 5.98549 3.87958 6.11019 3.69988 6.11019C3.62028 6.11019 3.55557 6.08469 3.50737 6.03369C3.45837 5.98299 3.43398 5.90789 3.43398 5.80859ZM6.89427 4.72349C6.89427 4.92789 6.88087 5.10279 6.85487 5.24939C6.82847 5.39619 6.77997 5.52909 6.70887 5.64819C6.61987 5.79449 6.50507 5.90789 6.36327 5.98719C6.22187 6.06689 6.06397 6.10629 5.89077 6.10629C5.69207 6.10629 5.51267 6.05299 5.35507 5.94579C5.19717 5.83899 5.07868 5.69159 4.99818 5.50309C4.95758 5.40019 4.92817 5.28559 4.90857 5.16089C4.88987 5.03619 4.88047 4.90129 4.88047 4.75559C4.88047 4.56789 4.89127 4.39929 4.91197 4.24899C4.93297 4.09819 4.96587 3.96899 5.01007 3.86099C5.08717 3.68209 5.19998 3.54599 5.34708 3.45249C5.49478 3.35889 5.67057 3.31189 5.87547 3.31189C6.01037 3.31189 6.13317 3.33289 6.24337 3.37419C6.35337 3.41619 6.45007 3.47659 6.53307 3.55679C6.61647 3.63699 6.68678 3.73619 6.74458 3.85389C6.84468 4.05879 6.89427 4.34879 6.89427 4.72349ZM6.35458 4.68669C6.35458 4.45959 6.34038 4.27309 6.31168 4.12879C6.28278 3.98369 6.23377 3.87429 6.16597 3.80029C6.09767 3.72659 6.00278 3.68969 5.88258 3.68969C5.70938 3.68969 5.58918 3.77249 5.52168 3.93779C5.45398 4.10269 5.42027 4.35729 5.42027 4.70139C5.42027 4.93499 5.43437 5.12629 5.46307 5.27539C5.49227 5.42479 5.54127 5.53739 5.60877 5.61389C5.67737 5.69019 5.76997 5.72839 5.88677 5.72839C6.00697 5.72839 6.10168 5.68899 6.16998 5.60939C6.23798 5.52969 6.28537 5.41599 6.31287 5.26839C6.34037 5.12009 6.35458 4.92679 6.35458 4.68669ZM8.39858 4.08689H8.45757V3.78069C8.45757 3.69849 8.45957 3.63449 8.46437 3.58799C8.46887 3.54089 8.48167 3.50069 8.50257 3.46779C8.52327 3.43259 8.55367 3.40399 8.59307 3.38249C8.63187 3.36059 8.67557 3.34989 8.72457 3.34989C8.79257 3.34989 8.85357 3.37419 8.90857 3.42239C8.94537 3.45499 8.96837 3.49439 8.97827 3.54149C8.98847 3.58799 8.99327 3.65399 8.99327 3.73989V4.08689H9.18997C9.26567 4.08689 9.32407 4.10389 9.36377 4.13759C9.40407 4.17189 9.42417 4.21589 9.42417 4.26889C9.42417 4.33749 9.39527 4.38509 9.33827 4.41259C9.28127 4.43979 9.19997 4.45339 9.09307 4.45339H8.99327V5.38849C8.99327 5.46819 8.99587 5.52969 9.00177 5.57249C9.00777 5.61499 9.02337 5.65019 9.04887 5.67679C9.07517 5.70349 9.11658 5.71679 9.17448 5.71679C9.20538 5.71679 9.24837 5.71169 9.30167 5.70089C9.35557 5.69069 9.39777 5.68499 9.42757 5.68499C9.47117 5.68499 9.51008 5.70179 9.54488 5.73469C9.58008 5.76779 9.59677 5.80859 9.59677 5.85679C9.59677 5.93899 9.54977 6.00139 9.45567 6.04449C9.36097 6.08839 9.22517 6.11019 9.04827 6.11019C8.88047 6.11019 8.75347 6.08329 8.66757 6.02999C8.58117 5.97649 8.52477 5.90269 8.49777 5.80779C8.47087 5.71369 8.45757 5.58779 8.45757 5.42989V4.45339H8.38697C8.30927 4.45339 8.25007 4.43609 8.20977 4.40099C8.16867 4.36669 8.14887 4.32219 8.14887 4.26889C8.14887 4.21589 8.17037 4.17189 8.21237 4.13759C8.25547 4.10389 8.31728 4.08689 8.39858 4.08689Z" fill="black"/>
</svg>
