<svg width="12" height="12" viewBox="0 0 12 12" fill="none" xmlns="http://www.w3.org/2000/svg">
<g clip-path="url(#clip0_2_1222)">
<path fill-rule="evenodd" clip-rule="evenodd" d="M6 1.25C8.6228 1.25 10.7499 3.3771 10.7499 6C10.7499 8.6229 8.6228 10.7499 6 10.7499C3.3771 10.7499 1.25 8.6229 1.25 6C1.25 3.3771 3.3771 1.25 6 1.25ZM11.9999 6C11.9999 2.6869 9.3131 0 6 0C2.6868 0 0 2.6869 0 6C0 9.3131 2.6868 11.9999 6 11.9999C9.3131 11.9999 11.9999 9.3131 11.9999 6Z" fill="#FF0000"/>
<path fill-rule="evenodd" clip-rule="evenodd" d="M2.37891 6.56773V8.49993C2.37891 8.64273 2.49031 8.75413 2.63321 8.75413H3.3959C3.5215 8.75413 3.62471 8.65093 3.62471 8.52533V7.86433H5.32811C5.37231 8.03003 5.68561 8.29653 5.88741 8.29653H6.03991C6.57721 8.29653 6.65651 7.86433 6.77721 7.86433H8.4297V8.57613C8.4297 8.63733 8.52111 8.72873 8.58231 8.72873H9.49751C9.57991 8.72873 9.6501 8.61823 9.6501 8.52533V6.49143C9.6501 6.43023 9.55871 6.33893 9.49751 6.33893H8.58231C8.52111 6.33893 8.4297 6.43023 8.4297 6.49143V7.20333H6.7009C6.6831 6.98873 6.32711 6.77113 6.06531 6.77113H5.96361C5.68771 6.77113 5.38351 6.99553 5.32811 7.20333H3.62471V6.59313C3.62471 6.44153 3.57281 6.33893 3.42131 6.33893H2.58231C2.45111 6.33893 2.37891 6.44473 2.37891 6.56773Z" fill="black"/>
<path fill-rule="evenodd" clip-rule="evenodd" d="M6.63346 4.927H5.41226H4.80286L6.02276 6.147L7.24286 4.9277L6.63346 4.927Z" fill="black" stroke="#1B1918" stroke-width="0.5669"/>
<path fill-rule="evenodd" clip-rule="evenodd" d="M4.83417 3.94738H5.67036C5.75396 3.94738 5.81717 3.96468 5.86087 3.99958C5.90477 4.03388 5.92657 4.08088 5.92657 4.14018C5.92657 4.19258 5.90907 4.23768 5.87477 4.27478C5.83957 4.31138 5.78746 4.32948 5.71686 4.32948H4.53737C4.45687 4.32948 4.39447 4.30738 4.34967 4.26258C4.30487 4.21758 4.28247 4.16508 4.28247 4.10418C4.28247 4.06528 4.29637 4.01398 4.32557 3.94968C4.35477 3.88528 4.38626 3.83518 4.42026 3.79798C4.56256 3.64888 4.69036 3.52108 4.80466 3.41418C4.91916 3.30788 5.00107 3.23758 5.04957 3.20418C5.13777 3.14178 5.21027 3.07858 5.26837 3.01478C5.32677 2.95188 5.37096 2.88698 5.40166 2.82058C5.43196 2.75398 5.44726 2.68878 5.44726 2.62498C5.44726 2.55588 5.43087 2.49378 5.39847 2.43908C5.36587 2.38408 5.32137 2.34218 5.26557 2.31148C5.20947 2.28118 5.14797 2.26618 5.08187 2.26618C4.94217 2.26618 4.83187 2.32828 4.75217 2.45298C4.74147 2.46888 4.72297 2.51338 4.69777 2.58558C4.67287 2.65818 4.64506 2.71428 4.61326 2.75288C4.58216 2.79168 4.53567 2.81158 4.47467 2.81158C4.42137 2.81158 4.37717 2.79338 4.34207 2.75798C4.30657 2.72258 4.28907 2.67378 4.28907 2.61168C4.28907 2.53748 4.30547 2.45948 4.33897 2.37868C4.37157 2.29738 4.42137 2.22368 4.48687 2.15758C4.55267 2.09188 4.63567 2.03858 4.73687 1.99828C4.83727 1.95778 4.95607 1.93738 5.09177 1.93738C5.25477 1.93738 5.39397 1.96338 5.50937 2.01468C5.58447 2.04958 5.65047 2.09718 5.70697 2.15758C5.76387 2.21858 5.80817 2.28828 5.83897 2.36818C5.87107 2.44728 5.88666 2.52978 5.88666 2.61508C5.88666 2.74978 5.85407 2.87138 5.78857 2.98108C5.72277 3.09078 5.65556 3.17718 5.58726 3.23928C5.51896 3.30108 5.40447 3.39918 5.24377 3.53208C5.08297 3.66508 4.97247 3.76848 4.91297 3.84168C4.88717 3.87118 4.86077 3.90658 4.83417 3.94738ZM7.12197 2.60858H7.17016V2.34218C7.17016 2.27068 7.17117 2.21488 7.17517 2.17428C7.17917 2.13318 7.18937 2.09838 7.20607 2.06968C7.22307 2.03908 7.24777 2.01418 7.28007 1.99548C7.31177 1.97678 7.34717 1.96708 7.38717 1.96708C7.44247 1.96708 7.49206 1.98838 7.53686 2.03028C7.56716 2.05868 7.58557 2.09298 7.59407 2.13378C7.60207 2.17428 7.60596 2.23188 7.60596 2.30668V2.60858H7.76617C7.82797 2.60858 7.87557 2.62328 7.90787 2.65278C7.94047 2.68258 7.95697 2.72088 7.95697 2.76678C7.95697 2.82658 7.93366 2.86828 7.88716 2.89208C7.84076 2.91588 7.77437 2.92748 7.68767 2.92748H7.60596V3.74128C7.60596 3.81078 7.60796 3.86438 7.61296 3.90148C7.61796 3.93858 7.63027 3.96898 7.65127 3.99218C7.67257 4.01538 7.70657 4.02708 7.75357 4.02708C7.77857 4.02708 7.81366 4.02278 7.85736 4.01348C7.90096 4.00438 7.93526 3.99958 7.95936 3.99958C7.99506 3.99958 8.02687 4.01398 8.05517 4.04268C8.08387 4.07158 8.09747 4.10698 8.09747 4.14898C8.09747 4.22038 8.05916 4.27478 7.98236 4.31218C7.90556 4.35048 7.79496 4.36948 7.65066 4.36948C7.51376 4.36948 7.41057 4.34618 7.34057 4.29978C7.26997 4.25298 7.22407 4.18888 7.20227 4.10638C7.18047 4.02448 7.16967 3.91478 7.16967 3.77728V2.92748H7.11187C7.04867 2.92748 7.00046 2.91248 6.96786 2.88218C6.93436 2.85208 6.91797 2.81328 6.91797 2.76678C6.91797 2.72088 6.93557 2.68258 6.97007 2.65278C7.00497 2.62328 7.05567 2.60858 7.12197 2.60858Z" fill="black"/>
</g>
<defs>
<clipPath id="clip0_2_1222">
<rect width="12" height="12" fill="white"/>
</clipPath>
</defs>
</svg>
