<svg width="12" height="12" viewBox="0 0 12 12" fill="none" xmlns="http://www.w3.org/2000/svg">
<path fill-rule="evenodd" clip-rule="evenodd" d="M5.99989 1.25C8.62279 1.25 10.7499 3.3771 10.7499 6C10.7499 8.6229 8.62279 10.7499 5.99989 10.7499C3.37699 10.7499 1.25 8.6229 1.25 6C1.25 3.3771 3.37699 1.25 5.99989 1.25ZM11.9999 6C11.9999 2.6869 9.31299 0 5.99989 0C2.68679 0 0 2.6869 0 6C0 9.3131 2.68679 11.9999 5.99989 11.9999C9.31299 11.9999 11.9999 9.3131 11.9999 6Z" fill="#FF0000"/>
<path fill-rule="evenodd" clip-rule="evenodd" d="M5.39134 6.40277C5.39134 6.59887 5.35503 6.77977 5.28283 6.94557C5.21053 7.11117 5.10994 7.25397 4.98034 7.37357C4.85104 7.49357 4.69714 7.58737 4.51834 7.65477C4.33944 7.72257 4.14184 7.75627 3.92474 7.75627C3.69684 7.75627 3.48453 7.71487 3.28863 7.63217C3.09243 7.54907 2.91673 7.43147 2.76083 7.27897C2.60463 7.12647 2.48984 6.93987 2.41554 6.71997C2.34154 6.49967 2.30444 6.23947 2.30444 5.93867C2.30444 5.47667 2.39064 5.05377 2.56384 4.67017C2.73704 4.28667 2.98534 3.96637 3.30844 3.70927C3.41874 3.62197 3.53123 3.54687 3.64523 3.48367C3.75913 3.42047 3.87824 3.36907 4.00184 3.32997C4.12544 3.29057 4.25663 3.26227 4.39553 3.24497C4.53443 3.22737 4.68754 3.21887 4.85504 3.21887V4.00327H4.78643C4.58123 4.00327 4.40434 4.02417 4.25584 4.06557C4.10724 4.10697 3.96663 4.17327 3.83343 4.26487C3.65853 4.37827 3.51594 4.50777 3.40544 4.65377C3.29514 4.80007 3.19253 4.98857 3.09753 5.21957C3.18123 5.19317 3.25804 5.17057 3.32864 5.15067C3.39894 5.13117 3.46754 5.11697 3.53384 5.10817C3.60044 5.09967 3.66794 5.09317 3.73654 5.08857C3.80514 5.08437 3.87733 5.08207 3.95333 5.08207C4.16253 5.08207 4.35473 5.11497 4.52963 5.18017C4.70453 5.24567 4.85594 5.33717 4.98344 5.45487C5.11074 5.57247 5.21053 5.71197 5.28283 5.87327C5.35503 6.03457 5.39134 6.21117 5.39134 6.40277ZM4.70654 6.41577C4.70654 6.25027 4.63223 6.11727 4.48403 6.01697C4.33573 5.91687 4.14183 5.86667 3.90203 5.86667C3.66223 5.86667 3.47033 5.91577 3.32543 6.01387C3.18123 6.11187 3.10893 6.24147 3.10893 6.40277C3.10893 6.57287 3.18123 6.70807 3.32543 6.80807C3.47033 6.90847 3.66223 6.95867 3.90203 6.95867C4.14183 6.95867 4.33573 6.90957 4.48403 6.81147C4.63223 6.71347 4.70654 6.58157 4.70654 6.41577ZM9.59063 5.46137C9.59063 5.74457 9.56114 6.02267 9.50244 6.29507C9.44324 6.56747 9.35024 6.81267 9.22244 7.03067C9.09514 7.24837 8.93073 7.42377 8.72883 7.55677C8.52733 7.68967 8.28214 7.75627 7.99304 7.75627C7.70784 7.75627 7.46354 7.69197 7.25964 7.56327C7.05614 7.43487 6.89004 7.26367 6.76054 7.05017C6.63124 6.83647 6.53624 6.59357 6.47534 6.32107C6.41444 6.04867 6.38403 5.76867 6.38403 5.48097C6.38403 5.19317 6.41553 4.91317 6.47813 4.64077C6.54083 4.36837 6.63773 4.12767 6.76933 3.91847C6.90023 3.70927 7.06693 3.54037 7.26843 3.41167C7.47003 3.28297 7.71154 3.21887 7.99304 3.21887C8.27814 3.21887 8.52163 3.28407 8.72323 3.41507C8.92503 3.54567 9.09033 3.71667 9.21983 3.92807C9.34913 4.13957 9.44324 4.37937 9.50244 4.64727C9.56114 4.91537 9.59063 5.18667 9.59063 5.46137ZM8.90574 5.48097C8.90574 5.01887 8.82613 4.65717 8.66653 4.39557C8.50663 4.13417 8.28214 4.00327 7.99304 4.00327C7.82184 4.00327 7.67724 4.04917 7.55934 4.14067C7.44134 4.23227 7.34643 4.34877 7.27413 4.49047C7.20183 4.63227 7.14943 4.78897 7.11733 4.96107C7.08473 5.13337 7.06863 5.30007 7.06863 5.46137C7.06863 5.94947 7.15054 6.32337 7.31384 6.58277C7.47734 6.84217 7.70384 6.97167 7.99304 6.97167C8.13394 6.97167 8.26034 6.93567 8.37254 6.86367C8.48454 6.79197 8.58094 6.68937 8.66084 6.55637C8.74054 6.42347 8.80144 6.26447 8.84344 6.07927C8.88504 5.89397 8.90574 5.68817 8.90574 5.46137V5.48097Z" fill="black"/>
<path fill-rule="evenodd" clip-rule="evenodd" d="M7.57324 9.52091V9.09831C7.57324 9.06581 7.56314 9.0385 7.54284 9.0164C7.52244 8.9944 7.49714 8.9834 7.46664 8.9834C7.45004 8.9834 7.43365 8.9862 7.41745 8.992C7.40135 8.9977 7.38685 9.0056 7.37385 9.0157C7.36095 9.0258 7.35034 9.0373 7.34204 9.0502C7.33404 9.0631 7.32954 9.0768 7.32954 9.0912V9.52091H7.14404V8.6155L7.32954 8.54071V8.8555C7.36834 8.8334 7.40114 8.8183 7.42784 8.8102C7.45464 8.802 7.48375 8.798 7.51515 8.798C7.54835 8.798 7.57945 8.8042 7.60855 8.8167C7.63765 8.8291 7.66325 8.8459 7.68545 8.867C7.70755 8.888 7.72485 8.9129 7.73735 8.9417C7.74985 8.9704 7.75604 9.00111 7.75604 9.03371V9.52091H7.57324Z" fill="black"/>
<path fill-rule="evenodd" clip-rule="evenodd" d="M6.91846 8.54224L6.56867 9.51884H6.37976L6.72957 8.54224H6.91846Z" fill="black"/>
<path fill-rule="evenodd" clip-rule="evenodd" d="M5.96159 9.5209V9.0983C5.96159 9.082 5.9586 9.067 5.9516 9.0531C5.9456 9.0392 5.93639 9.027 5.92529 9.0164C5.91429 9.0059 5.9016 8.9977 5.8873 8.992C5.8729 8.9862 5.8575 8.9834 5.8409 8.9834C5.8252 8.9834 5.8104 8.9865 5.7966 8.9927C5.7827 8.9989 5.77049 9.0071 5.75989 9.0171C5.74929 9.0272 5.7407 9.0387 5.7343 9.0516C5.7283 9.0646 5.72429 9.0777 5.72429 9.0912V9.5209H5.5484V9.0983C5.5484 9.0658 5.53689 9.0385 5.51379 9.0164C5.49069 8.9944 5.46299 8.9834 5.43069 8.9834C5.41409 8.9834 5.39859 8.9862 5.38429 8.992C5.36999 8.9977 5.3573 9.0056 5.3463 9.0157C5.3352 9.0258 5.32639 9.0377 5.31999 9.0516C5.31299 9.0655 5.31 9.0801 5.31 9.0955V9.5209H5.12439V8.8181H5.31V8.8555C5.3423 8.8353 5.37159 8.8212 5.39789 8.8131C5.42419 8.8049 5.45349 8.8009 5.48579 8.8009C5.55599 8.8009 5.6155 8.8282 5.6644 8.8828C5.6866 8.8665 5.7062 8.8531 5.7233 8.8425C5.7403 8.832 5.7567 8.8236 5.7724 8.8174C5.7881 8.8111 5.80399 8.8068 5.82019 8.8044C5.83629 8.802 5.85409 8.8009 5.87349 8.8009C5.90949 8.8009 5.9437 8.8068 5.976 8.8188C6.0083 8.8308 6.0369 8.8473 6.0618 8.8684C6.0867 8.8895 6.10659 8.9146 6.12129 8.9438C6.13609 8.9731 6.14349 9.0044 6.14349 9.038V9.5209H5.96159Z" fill="black"/>
<path fill-rule="evenodd" clip-rule="evenodd" d="M4.64347 9.03371L4.83177 9.52091H4.64347L4.52027 9.1961L4.41227 9.30821V9.52091H4.22668V8.6155L4.41227 8.54071V9.0179L4.60748 8.82101H4.83868L4.64347 9.03371Z" fill="black"/>
</svg>
