<svg width="12" height="12" viewBox="0 0 12 12" fill="none" xmlns="http://www.w3.org/2000/svg">
<g clip-path="url(#clip0_2_1233)">
<path fill-rule="evenodd" clip-rule="evenodd" d="M3.5147 0L0 3.5147V8.4852L3.5147 11.9999H8.4852L11.9999 8.4852V3.5147L8.4852 0H3.5147Z" fill="#FF0000"/>
<path fill-rule="evenodd" clip-rule="evenodd" d="M0.599951 3.76322L3.76315 0.600012H8.23665L11.3998 3.76322V8.23672L8.23665 11.3999H3.76315L0.599951 8.23672V3.76322ZM0.199951 3.59752V8.40242L3.59745 11.7999H8.40225L11.7998 8.40242V3.59752L8.40225 0.200012H3.59745L0.199951 3.59752Z" fill="white"/>
<path fill-rule="evenodd" clip-rule="evenodd" d="M3.22251 5.34203C3.22251 5.42283 3.21041 5.50113 3.18651 5.57703C3.16271 5.65333 3.1296 5.72503 3.0879 5.79223C3.0459 5.85913 2.99721 5.91803 2.94161 5.96883C2.88661 6.01953 2.82571 6.06013 2.76021 6.08983C2.69131 6.12273 2.6111 6.14793 2.5198 6.16583C2.4286 6.18393 2.32452 6.19273 2.20772 6.19273H1.6513V7.50013H1.17542V4.50043H2.20772C2.33052 4.50043 2.4345 4.50723 2.5198 4.52063C2.6052 4.53393 2.68541 4.55853 2.76021 4.59453C2.82571 4.62743 2.88661 4.66993 2.94161 4.72213C2.99721 4.77433 3.0459 4.83413 3.0879 4.90133C3.1296 4.96823 3.16271 5.03993 3.18651 5.11613C3.21041 5.19213 3.22251 5.26753 3.22251 5.34203ZM2.7375 5.34203C2.7375 5.27943 2.7202 5.21993 2.6859 5.16323C2.6516 5.10623 2.60882 5.06173 2.55812 5.02883C2.51612 5.00473 2.47651 4.99003 2.43931 4.98403C2.40161 4.97813 2.3455 4.97503 2.2707 4.97503H1.6513V5.70913H2.2707C2.3455 5.70913 2.40161 5.70633 2.43931 5.70033C2.47651 5.69443 2.51612 5.68083 2.55812 5.66013C2.60882 5.63323 2.6516 5.58923 2.6859 5.52803C2.7202 5.46683 2.7375 5.40473 2.7375 5.34203ZM5.4404 7.50013L5.14411 6.65853H4.20591L3.9094 7.50013H3.4023L4.4392 4.50043H4.91061L5.94781 7.50013H5.4404ZM4.6818 5.33333L4.37201 6.17493H4.97381L4.6818 5.33333ZM7.93231 7.50013L7.44761 6.19273H6.87731V7.50013H6.40162V4.50043H7.3934C7.5105 4.50043 7.61061 4.50723 7.69421 4.52063C7.77811 4.53393 7.85751 4.55853 7.93231 4.59453C7.99811 4.62743 8.05871 4.66993 8.11401 4.72213C8.16961 4.77433 8.21752 4.83413 8.25772 4.90133C8.29802 4.96823 8.32971 5.03993 8.35211 5.11613C8.37451 5.19213 8.3856 5.26753 8.3856 5.34203C8.3856 5.42283 8.37451 5.50113 8.35211 5.57703C8.32971 5.65333 8.29802 5.72503 8.25772 5.79223C8.21752 5.85913 8.16792 5.91973 8.10952 5.97333C8.05142 6.02723 7.98761 6.06883 7.91901 6.09863L8.4488 7.50013H7.93231ZM7.90961 5.34203C7.90961 5.27943 7.89321 5.21993 7.86061 5.16323C7.82771 5.10623 7.78121 5.06173 7.72141 5.02883C7.68231 5.00783 7.64662 4.99373 7.61372 4.98633C7.58052 4.97863 7.52531 4.97503 7.44761 4.97503H6.87731V5.70913H7.44761C7.52241 5.70913 7.57681 5.70633 7.61141 5.70033C7.64571 5.69443 7.68231 5.68083 7.72141 5.66013C7.78121 5.62723 7.82771 5.58163 7.86061 5.52353C7.89321 5.46543 7.90961 5.40473 7.90961 5.34203ZM8.95621 7.50013V4.50043H10.7293V4.97503H9.43182V5.70913H10.3075V6.19273H9.43182V7.01653H10.8236V7.50013H8.95621Z" fill="white"/>
</g>
<defs>
<clipPath id="clip0_2_1233">
<rect width="12" height="12" fill="white"/>
</clipPath>
</defs>
</svg>
