<svg width="19" height="27" viewBox="0 0 19 27" fill="none" xmlns="http://www.w3.org/2000/svg">
<path fill-rule="evenodd" clip-rule="evenodd" d="M12.8762 1.2C10.2262 1.2 8.07622 3.3495 8.07622 6C8.07622 8.6505 10.2262 10.7999 12.8762 10.7999C15.5272 10.7999 17.6762 8.6505 17.6762 6C17.6762 3.3495 15.5272 1.2 12.8762 1.2ZM6.87622 6C6.87622 2.6869 9.56322 0 12.8762 0C16.1892 0 18.8762 2.6869 18.8762 6C18.8762 9.3131 16.1892 11.9999 12.8762 11.9999C9.56322 11.9999 6.87622 9.3131 6.87622 6Z" fill="#FF0000"/>
<path fill-rule="evenodd" clip-rule="evenodd" d="M15.4592 6.51332L15.4282 6.47352L15.3932 6.43522L15.3542 6.40312L15.3112 6.37392L15.2662 6.35042L15.2192 6.33132L15.1692 6.31822L15.1192 6.30942L15.0672 6.30652H12.9012L12.6822 6.33152L12.4632 6.36272L12.2472 6.40122L12.0302 6.44412L11.8162 6.49442L11.6022 6.55092L11.3902 6.61292L11.1812 6.68112L10.9732 6.75522L10.7682 6.83522L10.5652 6.92102L10.3642 7.01283L10.1672 7.11053L9.97121 7.21422L9.7802 7.32242L9.5912 7.43652L9.4052 7.55503L9.22321 7.67933L9.0462 7.80993L9.0432 7.80542L9.03819 7.80772L8.97121 7.65952L8.91119 7.50942L8.85719 7.35672L8.8082 7.20092L8.7662 7.04492L8.7292 6.88612L8.6982 6.72742L8.67419 6.56702L8.6552 6.40522L8.6432 6.24352L8.63721 6.08172V5.91862L8.6432 5.75672L8.6552 5.59502L8.67419 5.43312L8.6982 5.27292L8.7292 5.11412L8.7662 4.95522L8.80721 4.79932L8.85719 4.64502L8.91119 4.49212L8.97121 4.34072L9.03819 4.19232L9.0432 4.19452L9.0462 4.19012L9.22321 4.32052L9.4052 4.44492L9.5912 4.56343L9.7802 4.67762L9.97121 4.78712L10.1672 4.88932L10.3642 4.98712L10.5652 5.07892L10.7682 5.16472L10.9732 5.24482L11.1812 5.31882L11.3902 5.38702L11.6022 5.44902L11.8152 5.50552L12.0302 5.55592L12.2472 5.59872L12.4632 5.63732L12.6822 5.66842L12.9012 5.69352H15.0672L15.1192 5.69062L15.1692 5.68332L15.2182 5.66872L15.2662 5.64952L15.3112 5.62612L15.3532 5.59712L15.3932 5.56472L15.4282 5.52792L15.4592 5.48682L15.5052 5.42602L15.5542 5.36942L15.6092 5.31722L15.6692 5.26932L15.7322 5.22762L15.7972 5.19022L15.8662 5.15892L15.9382 5.13363L16.0112 5.11422L16.0842 5.10072L16.1602 5.09322L16.2362 5.09172L16.3102 5.09772L16.3852 5.10972L16.4592 5.12742L16.5312 5.15152L16.6002 5.18122L16.6672 5.21532L16.7312 5.25723L16.7912 5.30342L16.8462 5.35402L16.8982 5.40912L16.9442 5.46902L16.9862 5.53152L17.0232 5.59872L17.0532 5.66732L17.0792 5.73872L17.0972 5.81203L17.1102 5.88632L17.1162 5.96252V6.03702L17.1102 6.11312L17.0972 6.18773L17.0792 6.26073L17.0532 6.33242L17.0242 6.40082L16.9862 6.46812L16.9442 6.53082L16.8982 6.59042L16.8462 6.64572L16.7912 6.69632L16.7312 6.74253L16.6672 6.78432L16.6002 6.81862L16.5322 6.84832L16.4602 6.87232L16.3852 6.89022L16.3112 6.90222L16.2362 6.90822L16.1602 6.90682L16.0842 6.89932L16.0112 6.88582L15.9382 6.86652L15.8662 6.84122L15.7982 6.81002L15.7322 6.77252L15.6692 6.73092L15.6102 6.68302L15.5552 6.63102L15.5052 6.57422L15.4592 6.51332Z" fill="black"/>
<path fill-rule="evenodd" clip-rule="evenodd" d="M16.2502 10.1827L17.0582 9.3751L9.50018 1.8172L8.69519 2.6248L16.2502 10.1827Z" fill="#FF0000" stroke="#FF0000" stroke-width="0.0025"/>
</svg>
