<svg width="12" height="12" viewBox="0 0 12 12" fill="none" xmlns="http://www.w3.org/2000/svg">
<g clip-path="url(#clip0_2_1335)">
<path fill-rule="evenodd" clip-rule="evenodd" d="M5.9999 1.25C8.6228 1.25 10.7499 3.3771 10.7499 6C10.7499 8.6229 8.6228 10.7499 5.9999 10.7499C3.377 10.7499 1.25 8.6229 1.25 6C1.25 3.3771 3.377 1.25 5.9999 1.25ZM11.9999 6C11.9999 2.6868 9.3131 0 5.9999 0C2.6868 0 0 2.6868 0 6C0 9.3131 2.6868 11.9999 5.9999 11.9999C9.3131 11.9999 11.9999 9.3131 11.9999 6Z" fill="#FF0000"/>
<path fill-rule="evenodd" clip-rule="evenodd" d="M2.14832 5.97449V6.0254C2.14832 6.3876 2.46582 6.7372 2.80932 6.7372H9.11432C9.50663 6.7372 9.85161 6.3965 9.85161 6.0254C9.85161 5.5486 9.49953 5.2627 9.01263 5.2627H2.93642C2.50612 5.2627 2.14832 5.55279 2.14832 5.97449Z" fill="black"/>
</g>
<defs>
<clipPath id="clip0_2_1335">
<rect width="12" height="12" fill="white"/>
</clipPath>
</defs>
</svg>
