<svg width="12" height="12" viewBox="0 0 12 12" fill="none" xmlns="http://www.w3.org/2000/svg">
<g clip-path="url(#clip0_2_1380)">
<path fill-rule="evenodd" clip-rule="evenodd" d="M5.9999 1.25C8.6228 1.25 10.7499 3.3771 10.7499 6C10.7499 8.6229 8.6228 10.7499 5.9999 10.7499C3.3771 10.7499 1.25 8.6229 1.25 6C1.25 3.3771 3.3771 1.25 5.9999 1.25ZM11.9999 6C11.9999 2.6869 9.3131 0 5.9999 0C2.6868 0 0 2.6869 0 6C0 9.3131 2.6868 11.9999 5.9999 11.9999C9.3131 11.9999 11.9999 9.3131 11.9999 6Z" fill="#FF0000"/>
<path fill-rule="evenodd" clip-rule="evenodd" d="M3.79852 2.91449L2.97412 3.70278L6.86182 7.76469L6.31742 7.94939C6.23772 7.97999 6.18752 8.05889 6.19362 8.14419C6.19962 8.22949 6.26042 8.30109 6.34352 8.32089L8.54462 8.72829C8.56102 8.73059 8.57921 8.72419 8.59271 8.71129C8.60621 8.69839 8.61342 8.68079 8.61202 8.66439L8.30312 6.44729C8.28712 6.36329 8.21822 6.29929 8.13332 6.28949C8.04842 6.27969 7.96731 6.32629 7.93321 6.40449L7.68352 6.97758L3.79852 2.91449Z" fill="black"/>
</g>
<defs>
<clipPath id="clip0_2_1380">
<rect width="12" height="12" fill="white"/>
</clipPath>
</defs>
</svg>
