<svg width="12" height="12" viewBox="0 0 12 12" fill="none" xmlns="http://www.w3.org/2000/svg">
<g clip-path="url(#clip0_2_1383)">
<path fill-rule="evenodd" clip-rule="evenodd" d="M5.9999 1.25C8.6228 1.25 10.7499 3.3771 10.7499 6C10.7499 8.6229 8.6228 10.7499 5.9999 10.7499C3.377 10.7499 1.25 8.6229 1.25 6C1.25 3.3771 3.377 1.25 5.9999 1.25ZM11.9999 6C11.9999 2.6869 9.3131 0 5.9999 0C2.6868 0 0 2.6869 0 6C0 9.3131 2.6868 11.9999 5.9999 11.9999C9.3131 11.9999 11.9999 9.3131 11.9999 6Z" fill="#FF0000"/>
<path fill-rule="evenodd" clip-rule="evenodd" d="M3.22323 4.18881L3.21032 4.17791L3.20942 4.17681L3.20142 4.16191L3.20102 4.16081L3.19812 4.14371V4.14241L3.20102 4.12571L3.20142 4.12461L3.20942 4.10961L3.21023 4.10861L3.22313 4.09671L5.09662 2.87951L5.12372 2.86541L5.15313 2.85531L5.18362 2.85111L5.21492 2.85101L5.24553 2.85711L5.27482 2.86811L5.30212 2.88341L5.32573 2.90361L5.34602 2.92691L5.36223 2.95321L5.37352 2.98271L5.37962 3.01311L5.38073 3.04461L5.37672 3.07591L5.36662 3.10551L5.15182 3.62271L5.28563 3.62651L5.42592 3.63541L5.56522 3.65131L5.70363 3.67321L5.84102 3.70111L5.97732 3.73591L6.11172 3.77571L6.24412 3.82251L6.37442 3.87431L6.50203 3.93311L6.62732 3.99671L6.74872 4.06541L6.86822 4.13991L6.98372 4.22061L7.09512 4.30521L7.20263 4.39481L7.30623 4.49041L7.40562 4.58891L7.50023 4.69231L7.58983 4.80101L7.67543 4.91231L7.75502 5.02781L7.82972 5.14621L7.89832 5.26871L7.96212 5.39311L8.02083 5.52151L8.07252 5.65191L8.11942 5.78431L8.15922 5.91861L8.19402 6.05411L8.22192 6.19231L8.24382 6.33081L8.25982 6.47011L8.26873 6.61041L8.27173 6.75071V9.17761H8.26803V9.18131H7.23602V9.17761H7.23233V6.75091L7.22932 6.63781L7.22043 6.52441L7.20453 6.41251L7.18383 6.30131L7.15593 6.19221L7.12312 6.08401L7.08452 5.97771L7.03982 5.87361L6.98922 5.77241L6.93362 5.67421L6.87323 5.57891L6.80662 5.48761L6.73613 5.39931L6.66082 5.31501L6.58033 5.23551L6.49702 5.15911L6.40873 5.08871L6.31653 5.02311L6.22223 4.96161L6.12302 4.90601L6.02173 4.85631L5.91842 4.81181L5.81222 4.77201L5.70412 4.73931L5.59482 4.71151L5.48382 4.69071L5.37172 4.67571L5.25853 4.66591L5.15202 4.66311L5.36652 5.18061L5.37652 5.20971L5.38062 5.24121L5.37973 5.27171L5.37362 5.30311L5.36252 5.33151L5.34643 5.35891L5.32602 5.38231L5.30272 5.40261L5.27533 5.41791L5.24612 5.42911L5.21563 5.43521L5.18412 5.43531L5.15372 5.43031L5.12433 5.42131L5.09682 5.40601L3.22323 4.18881Z" fill="black"/>
</g>
<defs>
<clipPath id="clip0_2_1383">
<rect width="12" height="12" fill="white"/>
</clipPath>
</defs>
</svg>
