<svg width="12" height="12" viewBox="0 0 12 12" fill="none" xmlns="http://www.w3.org/2000/svg">
<g clip-path="url(#clip0_2_1389)">
<path fill-rule="evenodd" clip-rule="evenodd" d="M5.9999 1.25C8.6228 1.25 10.7499 3.3771 10.7499 6C10.7499 8.6229 8.6228 10.7499 5.9999 10.7499C3.377 10.7499 1.25 8.6229 1.25 6C1.25 3.3771 3.377 1.25 5.9999 1.25ZM11.9999 6C11.9999 2.6869 9.313 0 5.9999 0C2.6868 0 0 2.6869 0 6C0 9.3131 2.6868 11.9999 5.9999 11.9999C9.313 11.9999 11.9999 9.3131 11.9999 6Z" fill="#FF0000"/>
<path fill-rule="evenodd" clip-rule="evenodd" d="M7.48657 9.708H6.49886V8.2232L6.49587 8.1243L6.48587 8.0264L6.47037 7.9294L6.44947 7.8324L6.42167 7.7382L6.38807 7.645L6.34856 7.5547L6.30447 7.4663L6.25446 7.3809L6.19877 7.2992L6.13827 7.2214L6.07297 7.1474L6.00287 7.0782L5.92886 7.0129L5.85107 6.9524L5.76947 6.8966L5.68497 6.8457L5.59647 6.8016L5.50626 6.7622L5.41307 6.7285L5.31797 6.7017L5.22197 6.6796L5.12487 6.6642L5.02597 6.6546L4.92796 6.6517H4.38067V6.6553L4.37767 6.6567L4.58746 7.1605L4.59547 7.188L4.59946 7.217L4.59847 7.2453L4.59347 7.2734L4.58307 7.3007L4.56907 7.326L4.55027 7.3475L4.52766 7.3664L4.50237 7.3804L4.47607 7.3907L4.44707 7.3964H4.41867L4.38966 7.3917L4.36256 7.3833L4.33687 7.369L2.53177 6.1962L2.52007 6.1863L2.51307 6.173L2.51007 6.1579L2.51307 6.1427L2.52007 6.1294L2.53177 6.1185L4.33687 4.9458L4.36237 4.9326L4.38977 4.9231L4.41856 4.9185L4.44697 4.9194L4.47607 4.925L4.50217 4.9344L4.52747 4.9494L4.55016 4.9684L4.56887 4.9897L4.58297 5.0143L4.59337 5.0413L4.59837 5.0695L4.59937 5.0988L4.59537 5.127L4.58736 5.1551L4.37756 5.6582L4.38057 5.6595V5.6631H4.99867L5.10967 5.6651L5.22086 5.6726L5.33067 5.6869L5.44067 5.7061L5.54897 5.732L5.65487 5.7636L5.75917 5.8008L5.86157 5.8439L5.96207 5.8926L6.05867 5.9472L6.15347 6.0065L6.24326 6.0706L6.33047 6.1405L6.41357 6.2141L6.49217 6.2927L6.49416 6.2902H6.49817V4.1128H6.49416L6.49316 4.1095L5.99017 4.3193L5.96187 4.3277L5.93377 4.3314H5.90447L5.87627 4.3258L5.84927 4.3146L5.82477 4.3005L5.80327 4.2817L5.78447 4.2593L5.76936 4.2338L5.76037 4.2076L5.75436 4.1785L5.75346 4.1501L5.75847 4.1213L5.76847 4.0939L5.78167 4.0685L6.95437 2.2625L6.96447 2.2514L6.97777 2.2435L6.99277 2.2417L7.00797 2.2435L7.02127 2.2514L7.03227 2.2625L8.20396 4.0684L8.21806 4.0941L8.22607 4.1213L8.23106 4.1501L8.23016 4.1787L8.22517 4.2075L8.21477 4.234L8.20077 4.2592L8.18177 4.2817L8.16027 4.3005L8.13496 4.3146L8.10777 4.3258L8.07967 4.3314H8.05137L8.02227 4.3277L7.99477 4.3192L7.49097 4.1095L7.48997 4.1128H7.48597L7.48657 9.708Z" fill="black"/>
</g>
<defs>
<clipPath id="clip0_2_1389">
<rect width="12" height="12" fill="white"/>
</clipPath>
</defs>
</svg>
