<svg width="12" height="12" viewBox="0 0 12 12" fill="none" xmlns="http://www.w3.org/2000/svg">
<path fill-rule="evenodd" clip-rule="evenodd" d="M6 1.25C8.6229 1.25 10.7499 3.3771 10.7499 6C10.7499 8.6229 8.6229 10.75 6 10.75C3.3771 10.75 1.25 8.6229 1.25 6C1.25 3.3771 3.3771 1.25 6 1.25ZM11.9999 6C11.9999 2.6869 9.3131 0 6 0C2.6869 0 0 2.6869 0 6C0 9.3131 2.6869 11.9999 6 11.9999C9.3131 11.9999 11.9999 9.3131 11.9999 6Z" fill="#FF0000"/>
<path fill-rule="evenodd" clip-rule="evenodd" d="M8.73578 5.67547V5.67887H9.33198V6.63046H8.73578V6.63397L8.73258 6.63527L8.93448 7.11917L8.94628 7.20177L8.91648 7.27857L8.85318 7.33187L8.77208 7.34717L8.69388 7.32076L6.95598 6.19227L6.93848 6.16876V6.13967L6.95598 6.11707L8.69388 4.98767L8.77198 4.96216L8.85318 4.97756L8.91648 5.02997L8.94628 5.10666L8.93448 5.18926L8.73258 5.67417L8.73578 5.67547Z" fill="black"/>
<path fill-rule="evenodd" clip-rule="evenodd" d="M3.98399 5.37714L4.28848 4.67474L4.29198 6.39674L4.02529 9.12264L4.02879 9.12304C4.01809 9.46204 4.60008 9.68724 4.71998 9.20344L5.02238 6.59114L5.16869 9.62544C5.25959 9.96064 5.69719 9.94814 5.76109 9.60664V4.72594L5.95719 5.71174L5.94588 6.35464C6.00808 6.65934 6.37738 6.66814 6.47548 6.38114L6.47298 6.35444L6.47728 6.35384C6.33588 5.03524 6.30808 4.14344 6.02798 3.89264C5.26088 3.33124 4.15208 3.60734 4.04188 3.87264L4.04369 3.87554L4.04038 3.87424L3.52249 5.14164L3.51648 6.31944L3.52918 6.44244L3.52988 6.44404C3.68568 6.66194 3.88138 6.64054 3.99198 6.39794L3.99228 6.39614L3.99208 6.39434L3.98399 5.37714ZM4.47168 2.90914C4.52998 3.27384 4.70629 3.40114 5.01059 3.44984H5.01168C5.36768 3.39314 5.49719 3.24404 5.55049 2.91014C5.49189 2.54454 5.31618 2.41884 5.01168 2.37024H5.01059C4.70669 2.41894 4.53028 2.54494 4.47168 2.90914Z" fill="black"/>
</svg>
