<svg width="12" height="12" viewBox="0 0 12 12" fill="none" xmlns="http://www.w3.org/2000/svg">
<path fill-rule="evenodd" clip-rule="evenodd" d="M6 1.25C8.6229 1.25 10.7499 3.3771 10.7499 6C10.7499 8.6229 8.6229 10.75 6 10.75C3.3771 10.75 1.25 8.6229 1.25 6C1.25 3.3771 3.3771 1.25 6 1.25ZM11.9999 6C11.9999 2.6869 9.3131 0 6 0C2.6868 0 0 2.6869 0 6C0 9.3131 2.6868 11.9999 6 11.9999C9.3131 11.9999 11.9999 9.3131 11.9999 6Z" fill="#FF0000"/>
<path fill-rule="evenodd" clip-rule="evenodd" d="M3.47694 5.80193V5.80532H2.88074V6.75692H3.47694V6.76033L3.48014 6.76173L3.27824 7.24562L3.26644 7.32812L3.29634 7.40493L3.35954 7.45822L3.44074 7.47353L3.51884 7.44712L5.25684 6.31873L5.27424 6.29512V6.26612L5.25684 6.24353L3.51884 5.11402L3.44074 5.08862L3.35954 5.10402L3.29634 5.15642L3.26644 5.23312L3.27824 5.31562L3.48014 5.80053L3.47694 5.80193Z" fill="black"/>
<path fill-rule="evenodd" clip-rule="evenodd" d="M8.22867 5.5036L7.92417 4.8012L7.92067 6.5232L8.18737 9.2491L8.18397 9.2495C8.19457 9.5884 7.61268 9.8136 7.49278 9.3298L7.19027 6.7176L7.04397 9.7519C6.95297 10.0871 6.51547 10.0746 6.45157 9.7331V4.8524L6.25547 5.8382L6.26677 6.481C6.20467 6.7858 5.83527 6.7945 5.73717 6.5076L5.73967 6.4809L5.73547 6.4802C5.87687 5.1616 5.90457 4.2699 6.18467 4.0191C6.95187 3.4577 8.06057 3.7338 8.17087 3.9991L8.16907 4.0019L8.17227 4.0007L8.69017 5.2681L8.69627 6.4458L8.68347 6.5688L8.68287 6.5704C8.52697 6.7883 8.33137 6.767 8.22067 6.5244L8.22037 6.5226L8.22057 6.5207L8.22867 5.5036ZM7.74097 3.0356C7.68267 3.4003 7.50637 3.5276 7.20217 3.5763H7.20107C6.84497 3.5196 6.71547 3.3705 6.66217 3.0366C6.72077 2.6709 6.89647 2.5452 7.20107 2.4967H7.20217C7.50597 2.5454 7.68247 2.6714 7.74097 3.0356Z" fill="black"/>
</svg>
