<svg width="12" height="12" viewBox="0 0 12 12" fill="none" xmlns="http://www.w3.org/2000/svg">
<g clip-path="url(#clip0_2_1422)">
<path fill-rule="evenodd" clip-rule="evenodd" d="M6 1.25C8.6228 1.25 10.7499 3.3771 10.7499 6C10.7499 8.6229 8.6228 10.75 6 10.75C3.3771 10.75 1.25 8.6229 1.25 6C1.25 3.3771 3.3771 1.25 6 1.25ZM11.9999 6C11.9999 2.6869 9.3131 0 6 0C2.6868 0 0 2.6869 0 6C0 9.3131 2.6868 11.9999 6 11.9999C9.3131 11.9999 11.9999 9.3131 11.9999 6Z" fill="#FF0000"/>
<path fill-rule="evenodd" clip-rule="evenodd" d="M3.53394 7.77963V8.03393C3.53394 8.09253 3.55163 8.11013 3.61013 8.11013H8.89823C8.95783 8.11013 8.99993 8.06803 8.99993 8.00853V7.80513C8.99993 7.74563 8.95783 7.70343 8.89823 7.70343H3.61013C3.55163 7.70343 3.53394 7.72113 3.53394 7.77963Z" fill="black"/>
<path fill-rule="evenodd" clip-rule="evenodd" d="M4.32202 9.1779C4.32202 9.2375 4.36422 9.2796 4.42372 9.2796H4.72882C4.78832 9.2796 4.83052 9.2375 4.83052 9.1779V8.1864H4.32202V9.1779Z" fill="black"/>
<path fill-rule="evenodd" clip-rule="evenodd" d="M3.7373 9.1779C3.7373 9.2375 3.7794 9.2796 3.839 9.2796H4.144C4.2036 9.2796 4.2457 9.2375 4.2457 9.1779V8.1864H3.7373V9.1779Z" fill="black"/>
<path fill-rule="evenodd" clip-rule="evenodd" d="M7.70331 9.2034C7.70331 9.2619 7.72101 9.2796 7.77961 9.2796H8.11011C8.16871 9.2796 8.18641 9.2619 8.18641 9.2034V8.1864H7.70331V9.2034Z" fill="black"/>
<path fill-rule="evenodd" clip-rule="evenodd" d="M8.28809 9.2034C8.28809 9.2619 8.30579 9.2796 8.36429 9.2796H8.69489C8.75339 9.2796 8.77109 9.2619 8.77109 9.2034V8.1864H8.28809V9.2034Z" fill="black"/>
<path fill-rule="evenodd" clip-rule="evenodd" d="M6.53388 3.68651H8.56768C8.62628 3.68651 8.64398 3.70412 8.64398 3.76272V5.92371C8.64398 5.98231 8.62628 6.00001 8.56768 6.00001H6.50838C6.44978 6.00001 6.43218 5.98231 6.43218 5.92371V3.78811C6.43218 3.72861 6.47428 3.68651 6.53388 3.68651ZM8.21178 6.56801C8.41058 6.56801 8.57178 6.72921 8.57178 6.92801C8.57178 7.12671 8.41058 7.28801 8.21178 7.28801C8.01298 7.28801 7.85178 7.12671 7.85178 6.92801C7.85178 6.72921 8.01298 6.56801 8.21178 6.56801ZM7.52538 3.17801C7.58398 3.17801 7.60158 3.19572 7.60158 3.25432V3.38141C7.60158 3.44001 7.58398 3.45762 7.52538 3.45762H5.00838C4.94888 3.45762 4.90668 3.41552 4.90668 3.35592V3.27971C4.90668 3.22021 4.94888 3.17801 5.00838 3.17801H7.52538ZM3.53388 3.00001C3.52058 3.05701 3.50848 3.05851 3.50848 3.12711V7.52541C3.50848 7.58491 3.55058 7.62711 3.61008 7.62711H8.92368C8.98218 7.62711 8.99988 7.60941 8.99988 7.55081V3.07631C8.99988 3.01681 8.95778 2.97461 8.89818 2.97461H3.66098C3.62088 2.97461 3.56468 2.98811 3.53388 3.00001ZM6.07618 3.76272V5.92371C6.07618 5.98231 6.05848 6.00001 5.99998 6.00001H3.94068C3.88208 6.00001 3.86438 5.98231 3.86438 5.92371V3.71191C3.89518 3.69991 3.95138 3.68651 3.99148 3.68651H5.99998C6.05848 3.68651 6.07618 3.70412 6.07618 3.76272ZM4.28778 6.57481C4.48658 6.57481 4.64778 6.73602 4.64778 6.93482C4.64778 7.13362 4.48658 7.29482 4.28778 7.29482C4.08898 7.29482 3.92778 7.13362 3.92778 6.93482C3.92778 6.73602 4.08898 6.57481 4.28778 6.57481Z" fill="black"/>
</g>
<defs>
<clipPath id="clip0_2_1422">
<rect width="12" height="12" fill="white"/>
</clipPath>
</defs>
</svg>
