<svg width="12" height="12" viewBox="0 0 12 12" fill="none" xmlns="http://www.w3.org/2000/svg">
<path fill-rule="evenodd" clip-rule="evenodd" d="M5.9999 1.25C3.377 1.25 1.25 3.3771 1.25 6C1.25 8.6229 3.377 10.75 5.9999 10.75C8.6228 10.75 10.7499 8.6229 10.7499 6C10.7499 3.3771 8.6228 1.25 5.9999 1.25ZM0 6C0 2.6869 2.6868 0 5.9999 0C9.313 0 11.9999 2.6869 11.9999 6C11.9999 9.3131 9.313 11.9999 5.9999 11.9999C2.6868 11.9999 0 9.3131 0 6Z" fill="#FF0000"/>
<path fill-rule="evenodd" clip-rule="evenodd" d="M2.47877 5.72626V5.72975H1.88257V6.68135H2.47877V6.68476L2.48176 6.68605L2.27987 7.16996L2.26816 7.25256L2.29796 7.32936L2.36117 7.38266L2.44237 7.39796L2.52047 7.37155L4.25847 6.24316L4.27586 6.21955V6.19056L4.25847 6.16796L2.52047 5.03846L2.44237 5.01306L2.36117 5.02835L2.29796 5.08076L2.26816 5.15746L2.27987 5.24005L2.48176 5.72496L2.47877 5.72626Z" fill="black"/>
<path fill-rule="evenodd" clip-rule="evenodd" d="M6.13694 3.04745H7.16895C7.57605 3.23395 7.90444 3.55454 7.92794 4.24574V4.66575C7.92794 4.76475 7.84694 4.84575 7.74794 4.84575C7.64894 4.84575 7.56794 4.76475 7.56794 4.66575V4.24574C7.56864 4.00744 7.49374 3.81455 7.34314 3.66705V4.84694H7.92794V4.99695H7.34314V5.30494C7.38354 5.27404 7.43394 5.25564 7.48844 5.25564C7.62044 5.25564 7.72845 5.36365 7.72845 5.49565V6.93564C7.72845 7.05914 7.63384 7.16164 7.51344 7.17434H7.72464V7.32425H7.24465V7.17434H7.46334C7.34304 7.16164 7.24845 7.05914 7.24845 6.93564V6.06254C7.24805 6.05824 7.24345 6.04744 7.23505 6.05504L6.79595 6.30425C6.75205 6.33385 6.75215 6.38105 6.79585 6.40165C6.79885 6.40325 7.14435 6.48634 7.24285 6.75234V7.92344C7.24285 7.96464 7.20915 7.99845 7.16785 7.99845C7.12665 7.99845 7.09284 7.96464 7.09284 7.92344V6.75234C6.80724 6.42094 6.50224 6.47364 6.26094 6.74484V8.29675C6.26094 8.36885 6.22864 8.43385 6.17784 8.47795L6.32095 8.55205V8.74735H5.72094V8.55205L5.86205 8.47614C5.81235 8.43204 5.78095 8.36795 5.78095 8.29675V6.17325C5.78095 6.06125 5.85865 5.96655 5.96285 5.94045V4.99695H5.37805V4.84694H5.96285V3.91065C5.85335 3.99495 5.81264 4.09094 5.80744 4.24574V4.63645C5.80744 4.73545 5.70085 4.84575 5.60185 4.84575C5.50285 4.84575 5.37805 4.73545 5.37805 4.63645V4.19724C5.38885 3.66464 5.81664 3.19375 6.13694 3.04745ZM6.67424 6.52735C6.77324 6.52735 6.85424 6.60835 6.85424 6.70735V9.46734C6.85424 9.56634 6.77324 9.64734 6.67424 9.64734C6.57524 9.64734 6.49424 9.56634 6.49424 9.46734V6.70735C6.49424 6.60835 6.57524 6.52735 6.67424 6.52735ZM6.64034 2.08325C6.88824 2.08325 7.09034 2.28535 7.09034 2.53325C7.09034 2.78105 6.88824 2.98324 6.64034 2.98324C6.39254 2.98324 6.19035 2.78105 6.19035 2.53325C6.19035 2.28535 6.39254 2.08325 6.64034 2.08325ZM6.28424 6.48915C6.33734 6.44385 6.39725 6.41074 6.43875 6.40014V6.30195C6.38625 6.33295 6.34044 6.37095 6.28424 6.48915Z" fill="black" stroke="#1B1918" stroke-width="0.216"/>
</svg>
