<svg width="12" height="12" viewBox="0 0 12 12" fill="none" xmlns="http://www.w3.org/2000/svg">
<g clip-path="url(#clip0_2_1439)">
<path fill-rule="evenodd" clip-rule="evenodd" d="M6 1.25C3.3771 1.25 1.25 3.3771 1.25 6C1.25 8.6229 3.3771 10.75 6 10.75C8.6229 10.75 10.7499 8.6229 10.7499 6C10.7499 3.3771 8.6229 1.25 6 1.25ZM0 6C0 2.6869 2.6869 0 6 0C9.3131 0 11.9999 2.6869 11.9999 6C11.9999 9.3131 9.3131 11.9999 6 11.9999C2.6869 11.9999 0 9.3131 0 6Z" fill="#FF0000"/>
<path fill-rule="evenodd" clip-rule="evenodd" d="M8.05849 3.92817H8.84439C9.15429 4.07027 9.40439 4.31437 9.42229 4.84067V5.16047C9.42229 5.23587 9.36069 5.29757 9.28529 5.29757C9.20989 5.29757 9.14819 5.23587 9.14819 5.16047V4.84067C9.14869 4.65917 9.09169 4.51237 8.97699 4.39997V5.29847H9.42229V5.41267H8.97699V5.64727C9.00769 5.62367 9.0461 5.60967 9.0876 5.60967C9.1881 5.60967 9.2704 5.69197 9.2704 5.79247V6.88897C9.2704 6.98307 9.19839 7.06107 9.10669 7.07077H9.26749V7.18497H8.90199V7.07077H9.0685C8.9769 7.06107 8.90489 6.98307 8.90489 6.88897V6.22407C8.90459 6.22087 8.9009 6.21257 8.8947 6.21837L8.56029 6.40817C8.52689 6.43077 8.527 6.46667 8.5602 6.48237C8.5632 6.48357 8.8257 6.54687 8.9007 6.74937V7.64117C8.9007 7.67257 8.875 7.69827 8.8436 7.69827C8.8121 7.69827 8.78639 7.67257 8.78639 7.64117V6.74937C8.56889 6.49707 8.33669 6.53727 8.15289 6.74367V7.92547C8.15289 7.98037 8.1283 8.02987 8.0896 8.06347L8.19859 8.11987V8.26857H7.7417V8.11987L7.84909 8.06207C7.81129 8.02847 7.7874 7.97967 7.7874 7.92547V6.30847C7.7874 6.22317 7.84659 6.15107 7.92589 6.13117V5.41267H7.48059V5.29847H7.92589V4.58547C7.84249 4.64967 7.81149 4.72277 7.80759 4.84067V5.13817C7.80759 5.21357 7.7264 5.29757 7.651 5.29757C7.5757 5.29757 7.48059 5.21357 7.48059 5.13817V4.80377C7.48859 4.39817 7.81459 4.03957 8.05849 3.92817ZM8.46759 6.57807C8.54299 6.57807 8.60469 6.63977 8.60469 6.71517V8.81687C8.60469 8.89227 8.54299 8.95397 8.46759 8.95397C8.39219 8.95397 8.3306 8.89227 8.3306 8.81687V6.71517C8.3306 6.63977 8.39219 6.57807 8.46759 6.57807ZM8.44189 3.19397C8.63059 3.19397 8.7845 3.34787 8.7845 3.53657C8.7845 3.72537 8.63059 3.87927 8.44189 3.87927C8.25309 3.87927 8.0992 3.72537 8.0992 3.53657C8.0992 3.34787 8.25309 3.19397 8.44189 3.19397ZM8.1707 6.54897C8.2111 6.51447 8.2567 6.48927 8.2883 6.48117V6.40647C8.2484 6.43007 8.2134 6.45897 8.1707 6.54897Z" fill="black"/>
<path fill-rule="evenodd" clip-rule="evenodd" d="M4.01479 5.44487L3.80558 4.96228L3.80358 6.14558L3.98679 8.01868L3.98478 8.01897C3.99178 8.25187 3.59218 8.40658 3.50988 8.07418L3.30208 6.27918L3.20159 8.36408C3.13919 8.59448 2.83849 8.58598 2.79459 8.35128V4.99748L2.65989 5.67487L2.66788 6.11657C2.62508 6.32597 2.37139 6.33198 2.30399 6.13488L2.30599 6.11647L2.30298 6.11607C2.40018 5.20997 2.41918 4.59717 2.61168 4.42487C3.13878 4.03907 3.90069 4.22878 3.97649 4.41108L3.97548 4.41308L3.97748 4.41227L4.33349 5.28318L4.33748 6.09238L4.32848 6.17688L4.32808 6.17798C4.22098 6.32778 4.08659 6.31317 4.01049 6.14637L4.01029 6.14518L4.01049 6.14388L4.01479 5.44487Z" fill="black"/>
<path fill-rule="evenodd" clip-rule="evenodd" d="M3.67968 3.74908C3.63968 3.99958 3.51848 4.08707 3.30938 4.12067C3.06468 4.08167 2.97498 3.97917 2.93848 3.74977C2.97868 3.49847 3.09939 3.41208 3.30869 3.37878C3.51749 3.41228 3.63948 3.49878 3.67968 3.74908Z" fill="black"/>
<path fill-rule="evenodd" clip-rule="evenodd" d="M6.05869 3.37878H5.72388V8.44568H6.05869V3.37878Z" fill="black"/>
</g>
<defs>
<clipPath id="clip0_2_1439">
<rect width="12" height="12" fill="white"/>
</clipPath>
</defs>
</svg>
