<svg width="29" height="22" viewBox="0 0 29 22" fill="none" xmlns="http://www.w3.org/2000/svg">
<path fill-rule="evenodd" clip-rule="evenodd" d="M3.53383 17.1353H8.84734C8.90594 17.1353 8.92364 17.1176 8.92364 17.059V12.5844C8.92364 12.5248 8.88144 12.4827 8.82194 12.4827H3.58464C3.54464 12.4827 3.48834 12.4961 3.45754 12.5081C3.44424 12.5651 3.43213 12.5665 3.43213 12.6352V17.0336C3.43213 17.0931 3.47433 17.1353 3.53383 17.1353ZM4.21144 16.083C4.41024 16.083 4.57144 16.2442 4.57144 16.443C4.57144 16.6418 4.41024 16.803 4.21144 16.803C4.01264 16.803 3.85144 16.6418 3.85144 16.443C3.85144 16.2442 4.01264 16.083 4.21144 16.083ZM7.77544 16.4361C7.77544 16.2373 7.93664 16.0761 8.13544 16.0761C8.33424 16.0761 8.49544 16.2373 8.49544 16.4361C8.49544 16.6349 8.33424 16.7961 8.13544 16.7961C7.93664 16.7961 7.77544 16.6349 7.77544 16.4361ZM8.49144 15.5082H6.43214C6.37354 15.5082 6.35584 15.4905 6.35584 15.4319V13.2962C6.35584 13.2367 6.39804 13.1945 6.45754 13.1945H8.49144C8.54994 13.1945 8.56764 13.2122 8.56764 13.2708V15.4319C8.56764 15.4905 8.54994 15.5082 8.49144 15.5082ZM5.92364 15.5082H3.86434C3.80574 15.5082 3.78804 15.4905 3.78804 15.4319V13.2199C3.81884 13.208 3.87513 13.1945 3.91513 13.1945H5.92364C5.98224 13.1945 5.99994 13.2122 5.99994 13.2708V15.4319C5.99994 15.4905 5.98224 15.5082 5.92364 15.5082ZM4.93214 12.9657C4.87254 12.9657 4.83043 12.9235 4.83043 12.864V12.7877C4.83043 12.7282 4.87254 12.6861 4.93214 12.6861H7.44904C7.50764 12.6861 7.52534 12.7037 7.52534 12.7623V12.8894C7.52534 12.948 7.50764 12.9657 7.44904 12.9657H4.93214Z" fill="black"/>
<path fill-rule="evenodd" clip-rule="evenodd" d="M6 10.6318C3.3495 10.6318 1.2 12.7813 1.2 15.4319C1.2 18.0824 3.3495 20.2319 6 20.2319C8.6504 20.2319 10.7999 18.0824 10.7999 15.4319C10.7999 12.7813 8.6504 10.6318 6 10.6318ZM0 15.4319C0 12.1187 2.6868 9.43182 6 9.43182C9.3131 9.43182 11.9999 12.1187 11.9999 15.4319C11.9999 18.745 9.3131 21.4318 6 21.4318C2.6868 21.4318 0 18.745 0 15.4319Z" fill="#FF0000"/>
<path fill-rule="evenodd" clip-rule="evenodd" d="M3.45752 17.2878V17.542C3.45752 17.6006 3.47521 17.6183 3.53381 17.6183H8.82192C8.88142 17.6183 8.92362 17.5761 8.92362 17.5166V17.3132C8.92362 17.2537 8.88142 17.2115 8.82192 17.2115H3.53381C3.47521 17.2115 3.45752 17.2292 3.45752 17.2878Z" fill="#040404"/>
<path fill-rule="evenodd" clip-rule="evenodd" d="M4.24561 18.686C4.24561 18.7455 4.28781 18.7877 4.34731 18.7877H4.6524C4.7119 18.7877 4.7541 18.7455 4.7541 18.686V17.6945H4.24561V18.686Z" fill="#040404"/>
<path fill-rule="evenodd" clip-rule="evenodd" d="M3.66101 18.686C3.66101 18.7455 3.70321 18.7877 3.76271 18.7877H4.06781C4.12731 18.7877 4.16951 18.7455 4.16951 18.686V17.6945H3.66101V18.686Z" fill="#040404"/>
<path fill-rule="evenodd" clip-rule="evenodd" d="M7.62708 18.7114C7.62708 18.77 7.64468 18.7877 7.70328 18.7877H8.03378C8.09238 18.7877 8.11008 18.77 8.11008 18.7114V17.6945H7.62708V18.7114Z" fill="#040404"/>
<path fill-rule="evenodd" clip-rule="evenodd" d="M8.21179 18.7114C8.21179 18.77 8.22949 18.7877 8.28809 18.7877H8.61859C8.67719 18.7877 8.69479 18.77 8.69479 18.7114V17.6945H8.21179V18.7114Z" fill="#040404"/>
<path fill-rule="evenodd" clip-rule="evenodd" d="M9.37378 19.6145L10.1814 18.8071L2.62347 11.249L1.81848 12.0566L9.37378 19.6145Z" fill="#FF0000" stroke="#FF0000" stroke-width="0.0025"/>
</svg>
