<svg width="12" height="12" viewBox="0 0 12 12" fill="none" xmlns="http://www.w3.org/2000/svg">
<g clip-path="url(#clip0_2_1451)">
<path fill-rule="evenodd" clip-rule="evenodd" d="M5.9999 0C2.6868 0 0 2.6868 0 6C0 9.3131 2.6868 11.9999 5.9999 11.9999C9.313 11.9999 11.9999 9.3131 11.9999 6C11.9999 2.6868 9.313 0 5.9999 0ZM1.2 6C1.2 3.3495 3.3494 1.2 5.9999 1.2C8.6504 1.2 10.7999 3.3495 10.7999 6C10.7999 8.6505 8.6504 10.7999 5.9999 10.7999C3.3494 10.7999 1.2 8.6505 1.2 6Z" fill="#FF0000"/>
<path fill-rule="evenodd" clip-rule="evenodd" d="M3.80992 7.50553L3.81282 7.56473L3.80992 7.62433L3.80092 7.68263L3.78602 7.74083L3.76672 7.79593L3.74132 7.84973L3.71002 7.90193L3.67572 7.94963L3.63542 7.99303L3.59072 8.03333L3.54302 8.06913L3.49222 8.09903L3.43852 8.12433L3.38342 8.14523L3.32512 8.15873L3.26702 8.16773L3.20732 8.17073L3.14762 8.16783L3.08942 8.15883L3.03142 8.14543L2.97602 8.12453L2.92232 8.09923L2.87022 8.06943L2.82232 8.03363L2.77902 7.99333L2.73882 7.95013L2.70302 7.90243L2.67302 7.85013L2.64772 7.79653L2.62822 7.74123L2.61332 7.68313L2.60432 7.62493L2.60132 7.56523L2.60422 7.50553L2.61322 7.44733L2.62812 7.38923L2.64752 7.33403L2.67282 7.28023L2.70262 7.22963L2.73852 7.18173L2.77872 7.13703L2.82192 7.09673L2.86972 7.06233L2.92192 7.03103L2.97562 7.00563L3.03082 6.98613L3.08892 6.97123L3.14712 6.96223L3.20682 6.95923L3.26652 6.96213L3.32472 6.97113L3.38292 6.98603L3.43802 7.00543L3.49182 7.03073L3.54262 7.06213L3.59022 7.09633L3.63502 7.13663L3.67542 7.18133L3.70972 7.22913L3.74102 7.27973L3.76642 7.33353L3.78592 7.38873L3.80082 7.44683L3.80992 7.50553Z" fill="black" stroke="#1B1918" stroke-width="0.216"/>
<path fill-rule="evenodd" clip-rule="evenodd" d="M5.25312 3.95813H9.80652H9.81202V3.96373V6.96473V6.97033H9.80652H8.71972L8.72512 6.97113L8.78192 6.98603L8.83842 7.00533L8.89222 7.03073L8.94312 7.06213L8.99072 7.09633L9.03412 7.13663L9.07442 7.18133L9.11022 7.22903L9.14012 7.27983L9.16542 7.33353L9.18632 7.38863L9.20132 7.44683L9.20882 7.50513L9.21182 7.56473L9.20892 7.62433L9.20142 7.68253L9.18652 7.74083L9.16562 7.79603L9.14032 7.84973L9.11052 7.90183L9.07472 7.94973L9.03442 7.99303L8.99122 8.03323L8.94352 8.06913L8.89272 8.09903L8.83902 8.12433L8.78242 8.14523L8.72562 8.15873L8.66602 8.16773L8.60632 8.17073L8.54812 8.16783L8.48852 8.15883L8.43182 8.14543L8.37502 8.12453L8.32132 8.09923L8.27062 8.06943L8.22282 8.03363L8.17812 7.99333L8.13922 7.95013L8.10342 7.90243L8.07352 7.85003L8.04812 7.79653L8.02732 7.74133L8.01232 7.68313L8.00482 7.62483L8.00182 7.56523L8.00472 7.50553L8.01222 7.44753L8.02712 7.38923L8.04802 7.33393L8.07332 7.28023L8.10312 7.22963L8.13892 7.18173L8.17762 7.13713L8.22242 7.09673L8.27022 7.06233L8.32082 7.03103L8.37462 7.00563L8.43132 6.98613L8.48782 6.97123L8.49392 6.97033H7.37882L7.38432 6.97113L7.44102 6.98603L7.49762 7.00533L7.55142 7.03073L7.60222 7.06213L7.64982 7.09633L7.69322 7.13663L7.73352 7.18133L7.76932 7.22903L7.79922 7.27983L7.82462 7.33353L7.84542 7.38863L7.85892 7.44693L7.86792 7.50503L7.87092 7.56473L7.86802 7.62433L7.85902 7.68263L7.84562 7.74063L7.82472 7.79603L7.79942 7.84973L7.76962 7.90183L7.73382 7.94973L7.69352 7.99303L7.65042 8.03323L7.60262 8.06913L7.55182 8.09903L7.49812 8.12433L7.44152 8.14523L7.38472 8.15873L7.32512 8.16773L7.26542 8.17073L7.20722 8.16783L7.14762 8.15883L7.09102 8.14543L7.03412 8.12453L6.98052 8.09923L6.92972 8.06943L6.88192 8.03363L6.83722 7.99333L6.79832 7.95013L6.76262 7.90243L6.73122 7.85023L6.70582 7.79653L6.68642 7.74123L6.67142 7.68313L6.66242 7.62493L6.66092 7.56513L6.66242 7.50573L6.67132 7.44733L6.68622 7.38923L6.70562 7.33403L6.73092 7.28023L6.76232 7.22943L6.79802 7.18173L6.83672 7.13713L6.88152 7.09673L6.92932 7.06233L6.97992 7.03103L7.03372 7.00563L7.09042 6.98613L7.14702 6.97123L7.15302 6.97033H5.25312H5.24762V6.96473V3.96373V3.95813H5.25312Z" fill="black" stroke="#1B1918" stroke-width="0.216"/>
<path fill-rule="evenodd" clip-rule="evenodd" d="M5.0118 6.96473V4.96013H5.0062V4.95453H3.8073V4.96013L3.8034 4.95613L2.9919 5.75883H2.0066V5.76433H2.0011V6.96473H2.0066V6.97033H2.5655V6.96473L2.5694 6.96863L2.6196 6.91843L2.6751 6.87323L2.7339 6.83203L2.7955 6.79533L2.859 6.76433L2.9263 6.73793L2.9942 6.71733L3.0643 6.70413L3.135 6.69533L3.2069 6.69233L3.2792 6.69533L3.3498 6.70413L3.4185 6.71733L3.4878 6.73793L3.5551 6.76433L3.6182 6.79503L3.6799 6.83183L3.739 6.87323L3.7931 6.91843L3.8448 6.96873L3.8487 6.96473V6.97033H5.0062V6.96473H5.0118ZM4.7331 5.75883H3.366L3.81 5.16963H4.7331V5.75883Z" fill="black"/>
</g>
<defs>
<clipPath id="clip0_2_1451">
<rect width="12" height="12" fill="white"/>
</clipPath>
</defs>
</svg>
