<svg width="12" height="12" viewBox="0 0 12 12" fill="none" xmlns="http://www.w3.org/2000/svg">
<g clip-path="url(#clip0_2_1237)">
<path fill-rule="evenodd" clip-rule="evenodd" d="M5.40355 9.83297L6.58785 9.83987L6.61976 4.08737L7.15925 4.33897C7.24075 4.37317 7.33525 4.35078 7.39235 4.28388C7.44935 4.21688 7.45576 4.12097 7.40796 4.04717L6.05985 2.18167C6.04935 2.16827 6.03116 2.16007 6.01166 2.15997C5.99226 2.15987 5.97416 2.16767 5.96346 2.18077L4.59316 4.03067C4.54456 4.10377 4.54966 4.19987 4.60596 4.26747C4.66226 4.33507 4.75645 4.35857 4.83835 4.32537L5.43836 4.08157L5.40355 9.83297Z" fill="black"/>
<path fill-rule="evenodd" clip-rule="evenodd" d="M6 0C2.6868 0 0 2.6868 0 6C0 9.3131 2.6868 11.9999 6 11.9999C9.3131 11.9999 11.9999 9.3131 11.9999 6C11.9999 2.6868 9.3131 0 6 0ZM9.7915 8.943L3.057 2.2084C3.8698 1.5765 4.8909 1.2 6 1.2C8.6505 1.2 10.7999 3.3495 10.7999 6C10.7999 7.109 10.4234 8.1301 9.7915 8.943ZM2.2084 3.057L8.943 9.7915C8.1302 10.4235 7.109 10.7999 6 10.7999C3.3495 10.7999 1.2 8.6505 1.2 6C1.2 4.8909 1.5765 3.8697 2.2084 3.057Z" fill="#FF0000"/>
</g>
<defs>
<clipPath id="clip0_2_1237">
<rect width="12" height="12" fill="white"/>
</clipPath>
</defs>
</svg>
