<svg width="12" height="12" viewBox="0 0 12 12" fill="none" xmlns="http://www.w3.org/2000/svg">
<g clip-path="url(#clip0_2_1445)">
<path fill-rule="evenodd" clip-rule="evenodd" d="M7.65401 6.05846C7.72621 6.05346 7.74661 6.01156 7.79091 5.96916C7.83121 5.93076 7.86631 5.89936 7.89811 5.85376C7.94081 5.82486 7.96621 5.79096 7.99251 5.75406C8.02701 5.71196 8.07521 5.66736 8.11361 5.62556C8.18301 5.55026 8.19201 5.52126 8.25971 5.51626C8.29291 5.54936 8.29111 5.55566 8.31761 5.60936C8.35871 5.69256 8.33451 5.65366 8.40621 5.68456C8.40571 5.74926 8.40191 5.76986 8.42571 5.82136C8.46221 5.90696 8.54841 6.00126 8.52091 6.10626C8.50711 6.15736 8.35611 6.27836 8.30201 6.32426L8.09861 6.50366C8.07281 6.53056 8.08851 6.51016 8.06991 6.54136C8.03351 6.55176 7.89181 6.67166 7.88571 6.78966C7.87871 6.92296 7.95041 7.01966 8.00101 7.11776C8.10401 7.31746 8.20821 7.50546 8.30821 7.70326C8.35871 7.80306 8.39871 7.91887 8.55731 7.86997C8.65221 7.84077 8.76021 7.74056 8.71371 7.61046C8.69571 7.56006 8.42741 7.05046 8.40831 7.03066C8.36701 6.88866 8.36221 6.84076 8.46141 6.75256C8.53261 6.68906 8.58911 6.64126 8.65971 6.58256C8.85011 6.42456 8.83181 6.47266 8.99101 6.82166C9.06641 6.98696 9.40371 7.76606 9.45531 7.84526C9.55901 8.00406 9.89001 7.86746 9.80231 7.61106L9.33331 6.57826C9.25131 6.39796 9.17991 6.27416 9.11111 6.08246C9.06841 5.98426 9.08651 5.69436 9.03491 5.61076C9.03861 5.47216 8.96991 4.96996 8.92001 4.86606C8.82761 4.67356 8.54691 4.58326 8.32161 4.71406C8.25621 4.75206 8.16821 4.88086 8.11391 4.94576L7.71661 5.42676C7.56131 5.62956 7.69021 5.57256 7.58561 5.61806C7.52541 5.64426 7.56691 5.60906 7.52051 5.66016C7.46131 5.71496 7.37151 5.81556 7.41691 5.94316C7.43431 5.99216 7.46761 6.02496 7.51241 6.04636C7.55371 6.06606 7.61751 6.09396 7.65401 6.05846ZM8.29391 3.92746C7.85411 4.03796 8.02651 4.68466 8.46131 4.57076C8.86261 4.46566 8.72851 3.81826 8.29391 3.92746Z" fill="black"/>
<path fill-rule="evenodd" clip-rule="evenodd" d="M6 1.25C8.6229 1.25 10.7499 3.3771 10.7499 6C10.7499 8.6228 8.6229 10.7499 6 10.7499C3.3771 10.7499 1.25 8.6228 1.25 6C1.25 3.3771 3.3771 1.25 6 1.25ZM11.9999 6C11.9999 2.6868 9.3131 0 6 0C2.6869 0 0 2.6868 0 6C0 9.3131 2.6869 11.9999 6 11.9999C9.3131 11.9999 11.9999 9.3131 11.9999 6Z" fill="#FF0000"/>
<path fill-rule="evenodd" clip-rule="evenodd" d="M2.94932 6.4128C2.94162 6.3802 2.92362 6.3655 2.95462 6.3559L2.92362 6.35939L2.89642 6.41199L2.94932 6.4128Z" fill="black"/>
<path fill-rule="evenodd" clip-rule="evenodd" d="M3.6503 6.2628C3.7838 6.1127 3.9784 6.0182 4.195 6.0182C4.3537 6.0182 4.5005 6.0689 4.6202 6.1551L3.6503 6.2628ZM5.1395 6.4421L5.7605 6.3731L6.397 6.8876L6.471 7.4949H6.6254L6.5683 7.0261L6.5417 6.8074L6.479 6.2933L7.31 6.2009V5.8563L4.9618 6.1171C4.7798 5.8958 4.5039 5.7547 4.195 5.7547C3.8075 5.7547 3.4718 5.9769 3.3085 6.3008L2.0307 6.4427V6.7874L3.2068 6.6568C3.2042 6.6864 3.2028 6.7165 3.2028 6.7469C3.2028 7.2948 3.647 7.739 4.195 7.739C4.743 7.739 5.1872 7.2948 5.1872 6.7469C5.1872 6.6405 5.1704 6.5381 5.1395 6.4421ZM5.9749 6.3493L6.3266 6.3102L6.3704 6.6689L5.9749 6.3493ZM4.0034 6.5683C3.9597 6.6151 3.9331 6.6778 3.9331 6.7469C3.9331 6.8915 4.0503 7.0088 4.195 7.0088C4.3397 7.0088 4.4569 6.8915 4.4569 6.7469C4.4569 6.657 4.4117 6.5778 4.3428 6.5306L4.87 6.472C4.9046 6.5568 4.9236 6.6496 4.9236 6.7469C4.9236 7.1493 4.5974 7.4755 4.195 7.4755C3.7926 7.4755 3.4663 7.1493 3.4663 6.7469C3.4663 6.706 3.4697 6.6659 3.4762 6.6268L4.0034 6.5683Z" fill="black"/>
<path fill-rule="evenodd" clip-rule="evenodd" d="M2.09668 2.94529L2.94538 2.09668L9.90328 9.05458L9.05458 9.90328L2.09668 2.94529Z" fill="#FF0000"/>
</g>
<defs>
<clipPath id="clip0_2_1445">
<rect width="12" height="12" fill="white"/>
</clipPath>
</defs>
</svg>
