<svg width="12" height="12" viewBox="0 0 12 12" fill="none" xmlns="http://www.w3.org/2000/svg">
<path fill-rule="evenodd" clip-rule="evenodd" d="M3.19659 4.83986H3.19409V9.14386H4.23719V5.66386V5.10116C4.23609 5.09246 4.23559 5.08366 4.23559 5.07466C4.23559 5.06566 4.23609 5.05676 4.23719 5.04806C4.25029 4.93806 4.34419 4.85086 4.46189 4.83986C4.47019 4.83906 4.47868 4.83866 4.48728 4.83866C4.49578 4.83866 4.50429 4.83906 4.51259 4.83986H5.11829H8.08058L7.82929 5.35606C7.77169 5.50646 8.00649 5.61976 8.14019 5.51156L9.53009 4.46336C9.57709 4.43076 9.64258 4.33386 9.53858 4.24216L8.13769 3.18576C7.91459 3.05536 7.77479 3.26406 7.83019 3.34566L8.08239 3.86186H4.23879H4.23719H4.07609C3.59579 3.89946 3.21549 4.26726 3.19409 4.72246V4.80316C3.19469 4.81546 3.19559 4.82766 3.19659 4.83986Z" fill="black"/>
<path fill-rule="evenodd" clip-rule="evenodd" d="M5.9999 1.2C8.6504 1.2 10.7999 3.3495 10.7999 6C10.7999 7.1198 10.4162 8.1502 9.7731 8.9668L3.0331 2.2268C3.8497 1.5837 4.8801 1.2 5.9999 1.2ZM8.9655 9.7742C8.149 10.4166 7.1192 10.7999 5.9999 10.7999C3.3494 10.7999 1.2 8.6505 1.2 6C1.2 4.8802 1.5837 3.8498 2.2267 3.0332L8.9655 9.7742ZM11.9999 6C11.9999 2.6868 9.3131 0 5.9999 0C2.6868 0 0 2.6868 0 6C0 9.3131 2.6868 11.9999 5.9999 11.9999C9.3131 11.9999 11.9999 9.3131 11.9999 6Z" fill="#FF0000"/>
</svg>
