<svg width="12" height="12" viewBox="0 0 12 12" fill="none" xmlns="http://www.w3.org/2000/svg">
<path fill-rule="evenodd" clip-rule="evenodd" d="M4.34702 9.49464L5.47792 7.75214L5.49073 7.72744L5.49982 7.70113L5.50432 7.67404L5.50342 7.64594L5.49802 7.61884L5.48892 7.59254L5.47452 7.56814L5.45722 7.54733L5.43552 7.52923L5.41192 7.51464L5.38582 7.50473L5.35862 7.49934L5.33032 7.49844L5.30342 7.50204L5.27622 7.51114L4.76692 7.72274L4.76562 7.71953H4.76212V4.33213L4.76492 4.24234L4.77422 4.15154L4.78802 4.06264L4.80932 3.97453L4.83532 3.88743L4.86682 3.80314L4.90482 3.72063L4.94742 3.64093L4.99462 3.56403L5.04742 3.48994L5.10492 3.42043L5.16703 3.35373L5.23282 3.29164L5.30323 3.23414L5.37642 3.18224L5.45322 3.13404L5.53302 3.09143L5.61542 3.05434L5.70062 3.02193L5.78682 2.99593L5.87582 2.97564L5.96472 2.96074L6.05462 2.95153L6.14542 2.94873L6.23532 2.95144L6.32612 2.96074L6.41502 2.97554L6.50302 2.99593L6.59012 3.02184L6.67452 3.05434L6.75692 3.09134L6.83662 3.13393L6.91362 3.18214L6.98772 3.23404L7.05722 3.29144L7.12392 3.35353L7.18512 3.42034L7.24252 3.48974L7.29542 3.56394L7.34352 3.64074L7.38622 3.72044L7.42322 3.80294L7.45562 3.88724L7.48162 3.97433L7.50202 4.06234L7.51682 4.15123L7.52612 4.24213L7.52892 4.33203V9.51474H8.43432V4.33224L8.43062 4.21684L8.42222 4.10033L8.40752 3.98614L8.38722 3.87163L8.36052 3.75904L8.32912 3.64743L8.29122 3.53753L8.24882 3.42964L8.19992 3.32434L8.14642 3.22194L8.08732 3.12134L8.02362 3.02444L7.95532 2.93124L7.88152 2.84174L7.80402 2.75494L7.72192 2.67284L7.63592 2.59524L7.54652 2.52234L7.45242 2.45314L7.35552 2.38944L7.25582 2.33044L7.15342 2.27683L7.04802 2.22884L6.94022 2.18553L6.83042 2.14763L6.71872 2.11624L6.60612 2.09044L6.49172 2.06913L6.37732 2.05444L6.26102 2.04613L6.14562 2.04333L6.02932 2.04613L5.91382 2.05444L5.79862 2.06913L5.68512 2.09044L5.57152 2.11624L5.45992 2.14763L5.35102 2.18544L5.24302 2.22884L5.13782 2.27683L5.03442 2.33034L4.93482 2.38944L4.83792 2.45304L4.74472 2.52224L4.65512 2.59524L4.56842 2.67264L4.48712 2.75484L4.40862 2.84174L4.33582 2.93113L4.26752 3.02434L4.20282 3.12134L4.14472 3.22184L4.09032 3.32423L4.04222 3.42964L3.99892 3.53744L3.96202 3.64724L3.92972 3.75893L3.90382 3.87154L3.88352 3.98614L3.86882 4.10033L3.85952 4.21663L3.85682 4.33213V7.71953H3.85332L3.85202 7.72274L3.34292 7.51114L3.31552 7.50204L3.28852 7.49844L3.26032 7.49934L3.23312 7.50473L3.20702 7.51464L3.18342 7.52923L3.16172 7.54733L3.14442 7.56814L3.12992 7.59264L3.12002 7.61874L3.11552 7.64594L3.11462 7.67404L3.11912 7.70113L3.12822 7.72744L3.14102 7.75214L4.27192 9.49474L4.28152 9.50524L4.29532 9.51214L4.30892 9.51474L4.32362 9.51214L4.33652 9.50524L4.34702 9.49464Z" fill="black"/>
<path fill-rule="evenodd" clip-rule="evenodd" d="M5.9999 0C2.6868 0 0 2.6868 0 6C0 9.3131 2.6868 11.9999 5.9999 11.9999C9.3131 11.9999 11.9999 9.3131 11.9999 6C11.9999 2.6868 9.3131 0 5.9999 0ZM9.7915 8.943L3.0569 2.2084C3.8698 1.5765 4.8909 1.2 5.9999 1.2C8.6504 1.2 10.7999 3.3495 10.7999 6C10.7999 7.109 10.4234 8.1301 9.7915 8.943ZM2.2084 3.057L8.9429 9.7915C8.1302 10.4235 7.109 10.7999 5.9999 10.7999C3.3494 10.7999 1.2 8.6505 1.2 6C1.2 4.8909 1.5764 3.8697 2.2084 3.057Z" fill="#FF0000"/>
</svg>
