<svg width="26" height="38" viewBox="0 0 26 38" fill="none" xmlns="http://www.w3.org/2000/svg">
<path fill-rule="evenodd" clip-rule="evenodd" d="M6 21.5508C2.6869 21.5508 0 24.2376 0 27.5508C0 30.8639 2.6869 33.5507 6 33.5507C9.3126 33.5507 11.9996 30.8639 11.9996 27.5508C11.9996 24.2376 9.3126 21.5508 6 21.5508ZM1.2 27.5508C1.2 24.9003 3.3495 22.7508 6 22.7508C8.6506 22.7508 10.7996 24.9003 10.7996 27.5508C10.7996 30.2013 8.6506 32.3507 6 32.3507C3.3495 32.3507 1.2 30.2013 1.2 27.5508Z" fill="#FF0000"/>
<path fill-rule="evenodd" clip-rule="evenodd" d="M7.99016 31.1161L6.85926 29.3318L6.84646 29.3065L6.83746 29.2796L6.83286 29.2518L6.83385 29.2231L6.83926 29.1953L6.84826 29.1684L6.86275 29.1434L6.87996 29.122L6.90166 29.1035L6.92535 29.0886L6.95145 29.0785L6.97855 29.0729L7.00686 29.072L7.03376 29.0756L7.06106 29.085L7.57026 29.3017L7.57166 29.2984H7.57506V25.8297L7.57236 25.7378L7.56306 25.6448L7.54916 25.5537L7.52785 25.4636L7.50196 25.3744L7.47036 25.2881L7.43246 25.2036L7.38985 25.122L7.34256 25.0433L7.28976 24.9673L7.23225 24.8962L7.17026 24.8279L7.10445 24.7643L7.03406 24.7054L6.96085 24.6523L6.88396 24.6029L6.80426 24.5593L6.72176 24.5213L6.63656 24.4882L6.55035 24.4615L6.46136 24.4407L6.37246 24.4255L6.28265 24.416L6.19176 24.4131L6.10196 24.4159L6.01105 24.4255L5.92216 24.4406L5.83416 24.4615L5.74706 24.4881L5.66266 24.5213L5.58025 24.5592L5.50056 24.6028L5.42366 24.6522L5.34956 24.7053L5.27996 24.7641L5.21326 24.8277L5.15205 24.896L5.09466 24.9671L5.04185 25.0431L4.99366 25.1218L4.95106 25.2034L4.91396 25.2878L4.88155 25.3742L4.85556 25.4634L4.83516 25.5535L4.82036 25.6445L4.81106 25.7375L4.80826 25.8296V31.1367H3.90295V25.8298L3.90665 25.7116L3.91496 25.5924L3.92966 25.4754L3.94996 25.3582L3.97676 25.2429L4.00806 25.1286L4.04596 25.0161L4.08836 24.9055L4.13736 24.7978L4.19086 24.6929L4.24986 24.5899L4.31356 24.4907L4.38186 24.3952L4.45566 24.3035L4.53326 24.2147L4.61536 24.1306L4.70135 24.0511L4.79066 23.9766L4.88486 23.9057L4.98166 23.8405L5.08136 23.78L5.18375 23.7252L5.28915 23.676L5.39706 23.6316L5.50686 23.5929L5.61845 23.5607L5.73106 23.5343L5.84556 23.5125L5.95996 23.4974L6.07626 23.4889L6.19166 23.4861L6.30785 23.4889L6.42345 23.4974L6.53856 23.5125L6.65216 23.5342L6.76566 23.5607L6.87726 23.5928L6.98626 23.6315L7.09415 23.676L7.19936 23.7251L7.30276 23.7799L7.40246 23.8404L7.49936 23.9056L7.59256 23.9764L7.68206 24.0511L7.76886 24.1305L7.85006 24.2146L7.92866 24.3036L8.00136 24.3951L8.06956 24.4906L8.13456 24.5899L8.19256 24.6928L8.24656 24.7977L8.29456 24.9055L8.33855 25.0159L8.37556 25.1284L8.40755 25.2427L8.43356 25.358L8.45356 25.4754L8.46856 25.5924L8.47755 25.7115L8.48056 25.8298V29.2984H8.48356L8.48456 29.3017L8.99356 29.085L9.02055 29.0756L9.04755 29.072L9.07656 29.0729L9.10355 29.0785L9.12955 29.0886L9.15256 29.1035L9.17456 29.122L9.19156 29.1434L9.20656 29.1685L9.21656 29.1952L9.22156 29.223L9.22256 29.2518L9.21756 29.2796L9.20856 29.3065L9.19556 29.3318L8.06456 31.1162L8.05456 31.1269L8.04056 31.134L8.02716 31.1366L8.01256 31.134L7.99966 31.1269L7.99016 31.1161Z" fill="black"/>
<path fill-rule="evenodd" clip-rule="evenodd" d="M9.5466 31.9457L10.3946 31.0971L2.4537 23.1559L1.6051 24.0044L9.5466 31.9457Z" fill="#FF0000" stroke="#FF0000" stroke-width="0.0027"/>
</svg>
