<svg width="12" height="12" viewBox="0 0 12 12" fill="none" xmlns="http://www.w3.org/2000/svg">
<g clip-path="url(#clip0_2_1265)">
<path fill-rule="evenodd" clip-rule="evenodd" d="M5.70275 5.59637L5.51336 4.68637H5.36655V4.60907H2.55935V4.65977H2.38065L2.17785 5.62837L1.88965 5.83117L2.12446 6.65837H1.89495V6.81047V7.01597H2.21515V7.11737V7.22147V7.32287L2.21816 7.42427V7.50957V7.51227V7.51757V7.52027V7.52297V7.52827L2.22315 7.54697L2.23655 7.56567L2.24985 7.57637L2.26856 7.58437V7.58697H2.48466H2.48766H2.49065V7.58437L2.50666 7.57637L2.52265 7.56567L2.53336 7.54967L2.54136 7.53097V7.52567H2.54435V7.52027V7.50957V7.21077V7.20277V7.02397L2.54735 7.01597H3.49996L3.55605 7.09067L3.62806 7.20007H3.63875V7.20277H4.31115L4.40725 7.05867L4.43656 7.01597L5.39185 7.01867L5.39486 7.02667V7.20537V7.21337V7.51227V7.52297V7.52827H5.39785V7.53367L5.40586 7.55227L5.41656 7.56827L5.43255 7.57897L5.44855 7.58697V7.58967H5.45156H5.45455H5.67075V7.58697L5.68935 7.57897L5.70536 7.56567L5.71605 7.54697L5.72106 7.52567V7.52297L5.72405 7.51227V7.50697V7.42687V7.32547V7.22147V7.11737V7.01597H6.04165V7.01327H6.04465V6.80777V6.66107H5.81525L6.05005 5.83387L5.71116 5.59637L5.70815 5.59907V5.59637H5.70275ZM5.31325 4.83317L5.47335 5.59637H4.97436L4.97135 5.59367H2.41765L2.57516 4.83317H5.31325Z" fill="black"/>
<path fill-rule="evenodd" clip-rule="evenodd" d="M10.047 5.61509L9.85489 4.70509H9.70819V4.62769H6.901V4.67839H6.7249L6.51939 5.64979L6.2312 5.84989L6.46599 6.67709H6.2392V6.82919H6.23619L6.2392 7.03469L6.5567 7.03729V7.13869L6.55969 7.24009V7.34149V7.44289V7.52829V7.53099V7.53629V7.53899V7.54169V7.54699L6.56769 7.56569L6.5784 7.58439L6.59439 7.59499L6.6104 7.60299V7.60569H6.8266H6.82959H6.8326H6.8356L6.85159 7.59769L6.8676 7.58439L6.8783 7.56829L6.8833 7.54969L6.88629 7.54429V7.53899V7.52829V7.22949V7.22149V7.04269L6.8893 7.03729L7.842 7.03469L7.89799 7.10939L7.97 7.21879H7.9807V7.22149H8.65579L8.74919 7.07739L8.78119 7.03469L9.73389 7.03729L9.73689 7.04529V7.22409V7.23209V7.53099L9.7399 7.54169V7.54699V7.55229L9.74789 7.57099L9.75859 7.58699L9.7746 7.59769L9.79059 7.60569V7.60839H9.79359H9.7966H10.0128L10.0158 7.60569L10.0318 7.59769L10.0478 7.58439L10.0584 7.56569L10.0634 7.54429L10.0664 7.54169V7.53899V7.53369V7.53099V7.52829V7.44559V7.34419V7.24009V7.13869V7.03469H10.3866V6.82649V6.67979H10.1571L10.3919 5.85259L10.053 5.61509H10.047ZM9.6548 4.85189L9.8149 5.61509H9.31589L9.3129 5.61239H6.7592L6.9193 4.85189H9.6548Z" fill="black"/>
<path fill-rule="evenodd" clip-rule="evenodd" d="M1.2 6C1.2 3.349 3.34899 1.2 5.99989 1.2C8.65089 1.2 10.7999 3.349 10.7999 6C10.7999 8.6509 8.65089 10.7999 5.99989 10.7999C3.34899 10.7999 1.2 8.6509 1.2 6ZM11.9999 6C11.9999 2.6863 9.31359 0 5.99989 0C2.68619 0 0 2.6863 0 6C0 9.3136 2.68619 11.9999 5.99989 11.9999C9.31359 11.9999 11.9999 9.3136 11.9999 6Z" fill="#FF0000"/>
<path fill-rule="evenodd" clip-rule="evenodd" d="M1.96936 2.81812L2.81805 1.96942L10.0306 9.18192L9.18185 10.0305L1.96936 2.81812Z" fill="#FF0000"/>
</g>
<defs>
<clipPath id="clip0_2_1265">
<rect width="12" height="12" fill="white"/>
</clipPath>
</defs>
</svg>
