<svg width="25" height="39" viewBox="0 0 25 39" fill="none" xmlns="http://www.w3.org/2000/svg">
<path fill-rule="evenodd" clip-rule="evenodd" d="M6 13.7504C2.6868 13.7504 0 16.4372 0 19.7504C0 23.0635 2.6868 25.7503 6 25.7503C9.3131 25.7503 11.9999 23.0635 11.9999 19.7504C11.9999 16.4372 9.3131 13.7504 6 13.7504ZM1.2 19.7504C1.2 17.0999 3.3495 14.9504 6 14.9504C8.6504 14.9504 10.7999 17.0999 10.7999 19.7504C10.7999 22.4009 8.6504 24.5503 6 24.5503C3.3495 24.5503 1.2 22.4009 1.2 19.7504Z" fill="#FF0000"/>
<path fill-rule="evenodd" clip-rule="evenodd" d="M5.44043 18.6452L7.04663 20.321C7.78663 19.9195 8.59654 19.2537 8.59654 18.0962C8.77974 18.1399 9.02233 18.3562 9.16023 18.3562H9.18834C9.29644 18.3562 9.38564 18.2729 9.38564 18.1829V18.0962C9.38564 17.9699 8.84123 17.1211 8.74353 16.9632C8.65173 16.8148 8.14733 15.9003 8.03293 15.9003C7.91643 15.9003 7.40453 16.8074 7.31923 16.9599C7.22023 17.1369 6.68033 17.9369 6.68033 18.0673V18.154C6.68033 18.2514 6.73013 18.3562 6.82123 18.3562H6.93393C6.97863 18.3562 7.34423 18.1261 7.46933 18.0962V18.2407C7.46933 18.703 6.63503 19.3419 6.28583 19.4253V15.9003H5.44043V18.6452Z" fill="black"/>
<path fill-rule="evenodd" clip-rule="evenodd" d="M6.2274 20.9919L4.9875 19.6628C4.2876 20.0425 3.52209 21.1933 3.52209 22.321V23.4767H4.62109V22.4366C4.62109 21.7791 5.0052 21.0483 5.382 20.7896V23.5056H6.2274V20.9919Z" fill="black"/>
<path fill-rule="evenodd" clip-rule="evenodd" d="M9.32791 24.2576L10.1967 23.4298L2.45021 15.2986L1.5813 16.1263L9.32791 24.2576Z" fill="#FF0000" stroke="#FF0000" stroke-width="0.0027"/>
</svg>
