<svg width="381" height="196" viewBox="0 0 381 196" fill="none" xmlns="http://www.w3.org/2000/svg">
<path fill-rule="evenodd" clip-rule="evenodd" d="M190.81 183.962C187.497 183.962 184.81 186.649 184.81 189.962C184.81 193.275 187.497 195.962 190.81 195.962C194.123 195.962 196.81 193.275 196.81 189.962C196.81 186.649 194.123 183.962 190.81 183.962ZM186.01 189.962C186.01 187.311 188.16 185.162 190.81 185.162C193.461 185.162 195.61 187.311 195.61 189.962C195.61 192.612 193.461 194.762 190.81 194.762C188.16 194.762 186.01 192.612 186.01 189.962Z" fill="#FF0000"/>
<path fill-rule="evenodd" clip-rule="evenodd" d="M192.945 187.409C192.973 187.41 192.994 187.423 193.009 187.45L193.689 189.098C193.706 189.142 193.698 189.167 193.655 189.166C191.76 189.166 189.864 189.166 187.968 189.166C187.925 189.167 187.917 189.142 187.934 189.098L188.614 187.45C188.629 187.423 188.651 187.41 188.679 187.409C190.101 187.409 191.523 187.409 192.945 187.409ZM187.685 189.306H193.936C194.028 189.306 194.103 189.381 194.103 189.474V191.045H187.559C187.536 191.045 187.517 191.026 187.517 191.003V189.474C187.517 189.381 187.592 189.306 187.685 189.306ZM192.924 191.567H193.845V192.379C193.845 192.454 193.783 192.515 193.708 192.515H193.061C192.986 192.515 192.924 192.454 192.924 192.379V191.567ZM187.81 191.567H188.731V192.379C188.731 192.454 188.669 192.515 188.594 192.515H187.947C187.872 192.515 187.81 192.454 187.81 192.379V191.567ZM187.33 191.133H194.29V191.436C194.29 191.479 194.255 191.514 194.212 191.514H187.408C187.365 191.514 187.33 191.479 187.33 191.436V191.133ZM192.67 190.715H193.75C193.783 190.715 193.81 190.688 193.81 190.655V190.175C193.81 190.142 193.783 190.115 193.75 190.115H192.67C192.637 190.115 192.61 190.142 192.61 190.175V190.655C192.61 190.688 192.637 190.715 192.67 190.715ZM187.87 190.715H188.95C188.983 190.715 189.01 190.688 189.01 190.655V190.175C189.01 190.142 188.983 190.115 188.95 190.115H187.87C187.837 190.115 187.81 190.142 187.81 190.175V190.655C187.81 190.688 187.837 190.715 187.87 190.715ZM193.273 188.913C193.293 188.912 193.303 188.896 193.298 188.877L192.842 187.732C192.836 187.721 192.827 187.715 192.813 187.715C191.479 187.715 190.145 187.715 188.81 187.715C188.796 187.715 188.787 187.721 188.782 187.732L188.326 188.877C188.32 188.896 188.33 188.912 188.351 188.913C189.991 188.913 191.632 188.913 193.273 188.913Z" fill="black" stroke="#1B1918" stroke-width="0.216"/>
<path fill-rule="evenodd" clip-rule="evenodd" d="M194.356 194.357L195.205 193.508L187.264 185.567L186.415 186.416L194.356 194.357Z" fill="#FF0000" stroke="#FF0000" stroke-width="0.0027"/>
</svg>
