<svg width="2591" height="2590" viewBox="0 0 2591 2590" fill="none" xmlns="http://www.w3.org/2000/svg">
<path fill-rule="evenodd" clip-rule="evenodd" d="M5.9999 1.2C3.3494 1.2 1.2 3.3495 1.2 6C1.2 8.6505 3.3494 10.7999 5.9999 10.7999C8.6504 10.7999 10.7999 8.6505 10.7999 6C10.7999 3.3495 8.6504 1.2 5.9999 1.2ZM0 6C0 2.6869 2.6868 0 5.9999 0C9.3131 0 11.9999 2.6869 11.9999 6C11.9999 9.3131 9.3131 11.9999 5.9999 11.9999C2.6868 11.9999 0 9.3131 0 6Z" fill="#FF0000"/>
<path fill-rule="evenodd" clip-rule="evenodd" d="M8.41255 4.92757L8.41205 4.93097L8.12945 4.88667L7.84335 4.88477L7.55995 4.92637L7.55945 4.92297H7.55595V4.30217L7.01555 4.78317L7.01325 4.78057L7.01385 4.78397L6.88445 4.80897L6.88305 4.80887L6.75545 4.78027L6.75425 4.77967L6.64885 4.70207L6.64785 4.70097L6.58225 4.58727L6.58185 4.58587L6.56885 4.45467L6.56905 4.45327L6.60875 4.32847L6.61205 4.32957L6.60975 4.32697L8.01095 3.08107L8.01325 3.08357L8.01185 3.08047L8.13475 3.02227L8.13665 3.02197L8.27165 3.04047L8.27265 3.04057L8.27345 3.04127L8.37595 3.12997L8.37675 3.13067L8.41585 3.26197L8.41605 4.92757H8.41255Z" fill="black"/>
<path fill-rule="evenodd" clip-rule="evenodd" d="M6.06722 7.29951L6.00502 6.94681L6.00692 6.58381L6.07632 6.22741L6.20862 5.89031L6.40112 5.58201L6.64412 5.31601L6.24192 4.33301H2.78392L2.63502 4.35691L2.50112 4.42571L2.39562 4.53311L2.32852 4.66711L2.30652 4.81661L2.33232 4.96471L2.98762 6.87971L3.21322 6.86511L3.43962 6.90301L3.65112 6.99201L3.83752 7.12731L3.98682 7.29951H6.06722Z" fill="black"/>
<path fill-rule="evenodd" clip-rule="evenodd" d="M7.99544 2.1687C8.21344 2.1687 8.38974 2.345 8.38974 2.5627C8.38974 2.7807 8.21344 2.957 7.99544 2.957C7.77774 2.957 7.60144 2.7807 7.60144 2.5627C7.60144 2.345 7.77774 2.1687 7.99544 2.1687Z" fill="black"/>
<path fill-rule="evenodd" clip-rule="evenodd" d="M3.91584 7.86491C3.91584 7.44821 3.57794 7.11041 3.16124 7.11041C2.74454 7.11041 2.40674 7.44821 2.40674 7.86491C2.40674 8.28161 2.74454 8.61951 3.16124 8.61951C3.57794 8.61951 3.91584 8.28161 3.91584 7.86491ZM3.16124 7.63081C3.29054 7.63081 3.39544 7.73561 3.39544 7.86491C3.39544 7.99421 3.29054 8.09911 3.16124 8.09911C3.03194 8.09911 2.92714 7.99421 2.92714 7.86491C2.92714 7.73561 3.03194 7.63081 3.16124 7.63081Z" fill="black"/>
<path fill-rule="evenodd" clip-rule="evenodd" d="M9.01217 6.77542C9.01217 6.20262 8.54777 5.73822 7.97497 5.73822C7.40217 5.73822 6.93787 6.20262 6.93787 6.77542C6.93787 7.34822 7.40217 7.81262 7.97497 7.81262C8.54777 7.81262 9.01217 7.34822 9.01217 6.77542Z" fill="black"/>
<path fill-rule="evenodd" clip-rule="evenodd" d="M7.97484 5.57948C8.63534 5.57948 9.17074 6.11488 9.17074 6.77538C9.17074 7.43588 8.63534 7.97128 7.97484 7.97128C7.31434 7.97128 6.77894 7.43588 6.77894 6.77538C6.77894 6.11488 7.31434 5.57948 7.97484 5.57948ZM9.79514 6.77538C9.79514 5.77008 8.98024 4.95508 7.97484 4.95508C6.96954 4.95508 6.15454 5.77008 6.15454 6.77538C6.15454 7.78068 6.96954 8.59568 7.97484 8.59568C8.98024 8.59568 9.79514 7.78068 9.79514 6.77538Z" fill="black"/>
<path fill-rule="evenodd" clip-rule="evenodd" d="M9.37378 10.1827L10.1814 9.3751L2.62348 1.8172L1.81848 2.6248L9.37378 10.1827Z" fill="#FF0000" stroke="#FF0000" stroke-width="0.0025"/>
</svg>
