<svg width="12" height="12" viewBox="0 0 12 12" fill="none" xmlns="http://www.w3.org/2000/svg">
<path fill-rule="evenodd" clip-rule="evenodd" d="M6 1.25C8.6229 1.25 10.75 3.3771 10.75 6C10.75 8.6229 8.6229 10.7499 6 10.7499C3.3771 10.7499 1.25 8.6229 1.25 6C1.25 3.3771 3.3771 1.25 6 1.25ZM11.9999 6C11.9999 2.6868 9.3131 0 6 0C2.6869 0 0 2.6868 0 6C0 9.3131 2.6869 11.9999 6 11.9999C9.3131 11.9999 11.9999 9.3131 11.9999 6Z" fill="#FF0000"/>
<path fill-rule="evenodd" clip-rule="evenodd" d="M6.80588 10.0957H5.26688L5.26588 10.0955L4.49878 10.0957L6.03628 8.55566L7.57398 10.0949L6.80688 10.0951L6.80588 10.0957Z" fill="black"/>
<path fill-rule="evenodd" clip-rule="evenodd" d="M6.78886 1.89526H5.26736L5.26636 1.89546L4.50806 1.89526L6.02796 3.43527L7.54806 1.89616L6.78976 1.89596L6.78886 1.89526Z" fill="black"/>
<path fill-rule="evenodd" clip-rule="evenodd" d="M3.55088 6.32056C3.55088 6.42486 3.52988 6.52096 3.48848 6.60966C3.44658 6.69836 3.38988 6.77576 3.31788 6.84236C3.24588 6.90876 3.16048 6.96086 3.06218 6.99826C2.96348 7.03596 2.85638 7.05496 2.74068 7.05496C2.61488 7.05496 2.49298 7.03236 2.37528 6.98666C2.25738 6.94136 2.15278 6.87216 2.06128 6.77916C2.03518 6.75476 2.01138 6.73096 1.98978 6.70776C1.96858 6.68446 1.93968 6.64846 1.90308 6.59976L2.19528 6.36046C2.26678 6.46226 2.34928 6.53596 2.44368 6.58136C2.53828 6.62696 2.64428 6.64966 2.76198 6.64966C2.88778 6.64966 2.98988 6.62076 3.06808 6.56316C3.14638 6.50566 3.18518 6.42906 3.18518 6.33386C3.18518 6.28086 3.17068 6.22646 3.14098 6.17116C3.11178 6.11586 3.07378 6.07366 3.02698 6.04476C2.99868 6.02946 2.96808 6.01776 2.93548 6.00986C2.90308 6.00216 2.86658 5.99826 2.82578 5.99826H2.72538V5.59966H2.81358C2.89068 5.59966 2.95528 5.57926 3.00718 5.53816C3.05908 5.49706 3.08478 5.44576 3.08478 5.38366C3.08478 5.31736 3.05248 5.26126 2.98728 5.21586C2.92238 5.17056 2.83508 5.14786 2.72538 5.14786C2.64008 5.14786 2.55898 5.16656 2.48188 5.20426C2.40448 5.24196 2.33568 5.29606 2.27468 5.36696L2.00368 5.09456C2.20868 4.86436 2.45638 4.74896 2.74698 4.74896C2.84818 4.74896 2.94278 4.76456 3.03008 4.79546C3.11738 4.82666 3.19258 4.87036 3.25548 4.92676C3.31808 4.98346 3.36768 5.04976 3.40288 5.12626C3.43858 5.20256 3.45648 5.28506 3.45648 5.37376C3.45648 5.44916 3.44428 5.51716 3.41988 5.57816C3.39548 5.63906 3.35268 5.71136 3.29208 5.79556C3.34278 5.84436 3.38418 5.88936 3.41678 5.93016C3.44908 5.97126 3.47568 6.01156 3.49588 6.05156C3.51628 6.09146 3.53048 6.13286 3.53868 6.17596C3.54658 6.21936 3.55088 6.26756 3.55088 6.32056ZM4.15068 6.91216C4.15068 6.98296 4.13758 7.05046 4.11128 7.11476C4.08458 7.17886 4.04638 7.23446 3.99528 7.28096L3.87968 7.21766C3.90208 7.19336 3.92248 7.16666 3.94058 7.13806C3.95908 7.10916 3.97238 7.08136 3.98028 7.05496H3.95908C3.90628 7.05496 3.86208 7.03596 3.82638 6.99826C3.79098 6.96086 3.77308 6.91636 3.77308 6.86566C3.77308 6.80786 3.78868 6.75766 3.82018 6.71426C3.85188 6.67116 3.89298 6.64966 3.94368 6.64966C4.00468 6.64966 4.05428 6.67286 4.09278 6.71936C4.13138 6.76586 4.15068 6.83016 4.15068 6.91216ZM6.20658 5.88886C6.20658 6.03256 6.19078 6.17396 6.15928 6.31236C6.12778 6.45066 6.07818 6.57536 6.01018 6.68616C5.94218 6.79676 5.85428 6.88606 5.74658 6.95356C5.63908 7.02096 5.50818 7.05496 5.35368 7.05496C5.20148 7.05496 5.07108 7.02216 4.96248 6.95696C4.85398 6.89146 4.76488 6.80466 4.69578 6.69616C4.62718 6.58756 4.57618 6.46396 4.54358 6.32566C4.51118 6.18726 4.49508 6.04476 4.49508 5.89876C4.49508 5.75246 4.51178 5.61016 4.54528 5.47186C4.57868 5.33326 4.63028 5.21076 4.70058 5.10446C4.77058 4.99816 4.85928 4.91256 4.96708 4.84706C5.07478 4.78186 5.20368 4.74896 5.35368 4.74896C5.50618 4.74896 5.63598 4.78216 5.74348 4.84876C5.85118 4.91516 5.93958 5.00216 6.00848 5.10956C6.07768 5.21696 6.12778 5.33886 6.15928 5.47496C6.19078 5.61126 6.20658 5.74906 6.20658 5.88886ZM5.84098 5.89876C5.84098 5.66376 5.79848 5.48006 5.71308 5.34716C5.62778 5.21416 5.50818 5.14786 5.35368 5.14786C5.26238 5.14786 5.18528 5.17106 5.12238 5.21756C5.05948 5.26406 5.00868 5.32326 4.97018 5.39526C4.93158 5.46726 4.90358 5.54696 4.88628 5.63456C4.86898 5.72216 4.86048 5.80666 4.86048 5.88886C4.86048 6.13686 4.90408 6.32676 4.99138 6.45856C5.07868 6.59036 5.19948 6.65616 5.35368 6.65616C5.42878 6.65616 5.49658 6.63806 5.55608 6.60146C5.61618 6.56486 5.66748 6.51276 5.70998 6.44526C5.75248 6.37776 5.78538 6.29676 5.80748 6.20266C5.82988 6.10846 5.84098 6.00386 5.84098 5.88886V5.89876ZM9.10928 7.01506V6.04476C9.10928 5.95406 9.08578 5.88206 9.03898 5.82896C8.99248 5.77576 8.92928 5.74906 8.85048 5.74906C8.81398 5.74906 8.77988 5.75696 8.74848 5.77236C8.71698 5.78786 8.68948 5.80836 8.66598 5.83386C8.64268 5.85936 8.62428 5.88936 8.61128 5.92366C8.59818 5.95796 8.59138 5.99396 8.59138 6.03166V7.01506H8.24108V6.04476C8.24108 6.00276 8.23408 5.96336 8.21978 5.92676C8.20588 5.89026 8.18638 5.85876 8.16228 5.83216C8.13758 5.80576 8.10868 5.78506 8.07518 5.77066C8.04178 5.75646 8.00658 5.74906 7.97008 5.74906C7.89918 5.74906 7.84078 5.77686 7.79488 5.83216C7.74928 5.88766 7.72658 5.95626 7.72658 6.03816V7.01506H7.36118V5.39016H7.72658V5.52316C7.76938 5.47666 7.82208 5.43646 7.88498 5.40186C7.94768 5.36756 8.01678 5.35056 8.09198 5.35056C8.24418 5.35056 8.37318 5.41576 8.47888 5.54636C8.52138 5.50866 8.56108 5.47726 8.59768 5.45176C8.63398 5.42616 8.67018 5.40636 8.70568 5.39186C8.74138 5.37776 8.77708 5.36696 8.81398 5.36046C8.85048 5.35396 8.88908 5.35056 8.92928 5.35056C9.00868 5.35056 9.08128 5.36446 9.14728 5.39186C9.21308 5.41966 9.27058 5.45796 9.31938 5.50666C9.36808 5.55546 9.40638 5.61356 9.43358 5.68106C9.46108 5.74846 9.47468 5.82106 9.47468 5.89876V7.01506H9.10928Z" fill="black"/>
</svg>
