<svg width="12" height="12" viewBox="0 0 12 12" fill="none" xmlns="http://www.w3.org/2000/svg">
<g clip-path="url(#clip0_2_1227)">
<path fill-rule="evenodd" clip-rule="evenodd" d="M5.9999 1.25C8.6228 1.25 10.7499 3.3771 10.7499 6C10.7499 8.6229 8.6228 10.7499 5.9999 10.7499C3.377 10.7499 1.25 8.6229 1.25 6C1.25 3.3771 3.377 1.25 5.9999 1.25ZM11.9999 6C11.9999 2.6868 9.313 0 5.9999 0C2.6868 0 0 2.6868 0 6C0 9.3131 2.6868 11.9999 5.9999 11.9999C9.313 11.9999 11.9999 9.3131 11.9999 6Z" fill="#FF0000"/>
<path fill-rule="evenodd" clip-rule="evenodd" d="M10.095 5.22909L10.094 6.75049L10.0938 6.75149L10.0934 7.50979L8.55457 5.98869L10.095 4.46979L10.0946 5.22809L10.095 5.22909Z" fill="black"/>
<path fill-rule="evenodd" clip-rule="evenodd" d="M1.84983 5.22728L1.86393 6.74878L1.87112 7.50798L3.39693 5.97378L1.84363 4.46808L1.85063 5.22638L1.84983 5.22728Z" fill="black"/>
<path fill-rule="evenodd" clip-rule="evenodd" d="M4.26481 5.87363V4.27933C3.96811 4.50673 3.76821 4.62063 3.66531 4.62063C3.61631 4.62063 3.57231 4.60083 3.53461 4.56203C3.49641 4.52283 3.47791 4.47753 3.47791 4.42593C3.47791 4.36613 3.49641 4.32243 3.53351 4.29443C3.57121 4.26693 3.63701 4.23033 3.73161 4.18613C3.87341 4.11953 3.98651 4.04953 4.07101 3.97603C4.15601 3.90233 4.23081 3.81993 4.29661 3.72893C4.36181 3.63733 4.40491 3.58173 4.42471 3.56083C4.44431 3.53983 4.48201 3.52903 4.53731 3.52903C4.59881 3.52903 4.6489 3.55283 4.6861 3.60073C4.7238 3.64863 4.74251 3.71443 4.74251 3.79893V5.80503C4.74251 6.03993 4.66231 6.15733 4.50181 6.15733C4.43071 6.15733 4.3731 6.13353 4.33 6.08563C4.2864 6.03773 4.26481 5.96713 4.26481 5.87363ZM5.9566 6.16103C5.8795 6.16103 5.81281 6.13693 5.75671 6.08963C5.70121 6.04253 5.67281 5.97593 5.67281 5.89113C5.67281 5.81743 5.70031 5.75513 5.75561 5.70493C5.81001 5.65473 5.87521 5.62953 5.94951 5.62953C6.00561 5.62953 6.05661 5.64453 6.10201 5.67483C6.14761 5.70553 6.18331 5.75023 6.20911 5.80893C6.23491 5.86823 6.24741 5.94133 6.24741 6.02753C6.24741 6.14343 6.22301 6.25203 6.17371 6.35293C6.12471 6.45413 6.06481 6.53373 5.99431 6.59303C5.92371 6.65223 5.8596 6.68143 5.8026 6.68143C5.7664 6.68143 5.7369 6.66953 5.7142 6.64573C5.6915 6.62163 5.68021 6.59413 5.68021 6.56243C5.68021 6.51453 5.70401 6.47563 5.75191 6.44643C5.88821 6.37053 5.9566 6.27523 5.9566 6.16103ZM6.75031 4.19693C6.75031 4.08013 6.782 3.97013 6.8458 3.86633C6.9093 3.76293 7.00281 3.68043 7.12611 3.61803C7.24921 3.55653 7.39341 3.52533 7.55871 3.52533C7.69761 3.52533 7.8195 3.54323 7.9249 3.57983C8.0301 3.61583 8.1177 3.66593 8.1883 3.72943C8.2583 3.79353 8.31039 3.86523 8.34389 3.94493C8.37789 4.02513 8.39461 4.11013 8.39461 4.20033C8.39461 4.31483 8.3654 4.41713 8.3062 4.50673C8.2475 4.59653 8.1588 4.67023 8.0423 4.72753C8.1415 4.76613 8.22401 4.81683 8.28951 4.87923C8.35521 4.94183 8.40481 5.01443 8.43771 5.09633C8.47121 5.17883 8.4882 5.27033 8.4882 5.37043C8.4882 5.51753 8.45219 5.65103 8.38099 5.77073C8.30959 5.89033 8.20501 5.98443 8.06721 6.05193C7.92921 6.11963 7.7662 6.15363 7.5797 6.15363C7.3858 6.15363 7.2194 6.11963 7.0816 6.05193C6.9436 5.98443 6.8393 5.89113 6.7693 5.77263C6.6992 5.65423 6.66411 5.52123 6.66411 5.37383C6.66411 5.05973 6.81231 4.84433 7.11001 4.72753C6.86991 4.61583 6.75031 4.43873 6.75031 4.19693ZM8.0069 5.35653C8.0069 5.26553 7.98841 5.18623 7.95071 5.11843C7.91361 5.05013 7.86091 4.99823 7.79311 4.96223C7.72571 4.92563 7.64971 4.90783 7.56521 4.90783C7.44621 4.90783 7.347 4.94723 7.2662 5.02683C7.1854 5.10653 7.1451 5.21763 7.1451 5.36023C7.1451 5.45183 7.1644 5.53203 7.2021 5.60143C7.2404 5.67093 7.2917 5.72473 7.3569 5.76303C7.4224 5.80073 7.4952 5.81973 7.576 5.81973C7.6579 5.81973 7.73101 5.80073 7.79681 5.76193C7.86201 5.72333 7.91361 5.66893 7.95071 5.59893C7.98841 5.52833 8.0069 5.44813 8.0069 5.35653ZM7.56891 3.85933C7.45921 3.85933 7.37079 3.89333 7.30389 3.96223C7.23669 4.03053 7.20321 4.11833 7.20321 4.22613C7.20321 4.32563 7.23731 4.40863 7.30611 4.47443C7.37501 4.54103 7.464 4.57393 7.5723 4.57393C7.6276 4.57393 7.67721 4.56483 7.72201 4.54753C7.76701 4.53023 7.8059 4.50563 7.8376 4.47443C7.8699 4.44353 7.89491 4.40693 7.91251 4.36383C7.92981 4.32133 7.93851 4.27403 7.93851 4.22273C7.93851 4.15383 7.92321 4.09143 7.89211 4.03643C7.86141 3.98143 7.8178 3.93833 7.7617 3.90663C7.7058 3.87483 7.64121 3.85933 7.56891 3.85933Z" fill="black"/>
<path fill-rule="evenodd" clip-rule="evenodd" d="M6.33131 8.52001V9.15611C6.33131 9.25671 6.30831 9.33211 6.26301 9.38231C6.21731 9.43251 6.15701 9.45771 6.08271 9.45771C6.01041 9.45771 5.95171 9.43251 5.90701 9.38231C5.86191 9.33211 5.83921 9.25671 5.83921 9.15611V8.39361C5.83921 8.27281 5.83521 8.17951 5.82671 8.11291C5.81871 8.04661 5.79671 7.99161 5.76011 7.94911C5.72381 7.90661 5.66691 7.88501 5.58781 7.88501C5.43101 7.88501 5.32811 7.93891 5.27851 8.04661C5.22891 8.15371 5.20371 8.30791 5.20371 8.50921V9.15611C5.20371 9.25531 5.18101 9.33071 5.13621 9.38171C5.09111 9.43251 5.03191 9.45771 4.95901 9.45771C4.88651 9.45771 4.82721 9.43251 4.78131 9.38171C4.73511 9.33071 4.71191 9.25531 4.71191 9.15611V7.78691C4.71191 7.69711 4.73281 7.62821 4.77391 7.58141C4.81531 7.53491 4.86981 7.51141 4.93751 7.51141C5.00331 7.51141 5.05771 7.53381 5.10131 7.57751C5.14501 7.62111 5.16711 7.68151 5.16711 7.75861V7.80421C5.24991 7.70471 5.3389 7.63191 5.4336 7.58511C5.528 7.53831 5.6334 7.51511 5.7488 7.51511C5.8698 7.51511 5.9727 7.53921 6.0595 7.58681C6.1462 7.63471 6.21731 7.70731 6.27321 7.80421C6.35401 7.70621 6.44071 7.63361 6.53281 7.58621C6.62501 7.53921 6.72731 7.51511 6.83981 7.51511C6.97081 7.51511 7.0833 7.54091 7.178 7.59221C7.2724 7.64381 7.34381 7.71751 7.39031 7.81331C7.43111 7.89951 7.45151 8.03581 7.45151 8.22121V9.15611C7.45151 9.25671 7.4286 9.33211 7.3832 9.38231C7.3376 9.43251 7.27721 9.45771 7.20301 9.45771C7.13071 9.45771 7.07141 9.43251 7.02521 9.38171C6.97931 9.33071 6.95611 9.25531 6.95611 9.15611V8.35101C6.95611 8.24811 6.95211 8.16621 6.94271 8.10411C6.93371 8.04231 6.91041 7.99021 6.87161 7.94791C6.83331 7.90601 6.77461 7.88501 6.69611 7.88501C6.63291 7.88501 6.57281 7.90341 6.51611 7.94111C6.45971 7.97831 6.41551 8.02871 6.38371 8.09191C6.34861 8.17221 6.33131 8.31531 6.33131 8.52001Z" fill="black"/>
</g>
<defs>
<clipPath id="clip0_2_1227">
<rect width="12" height="12" fill="white"/>
</clipPath>
</defs>
</svg>
