<svg width="12" height="12" viewBox="0 0 12 12" fill="none" xmlns="http://www.w3.org/2000/svg">
<path fill-rule="evenodd" clip-rule="evenodd" d="M6 1.25C8.6229 1.25 10.7499 3.3771 10.7499 6C10.7499 8.6229 8.6229 10.7499 6 10.7499C3.3771 10.7499 1.25 8.6229 1.25 6C1.25 3.3771 3.3771 1.25 6 1.25ZM11.9999 6C11.9999 2.6869 9.3131 0 6 0C2.6869 0 0 2.6869 0 6C0 9.3131 2.6869 11.9999 6 11.9999C9.3131 11.9999 11.9999 9.3131 11.9999 6Z" fill="#FF0000"/>
<path fill-rule="evenodd" clip-rule="evenodd" d="M4.96338 3.02383V5.54073C4.96338 5.61833 4.98789 5.64333 5.01429 5.69333H6.46338C6.37648 5.82313 6.20919 5.88183 6.20919 6.15093V6.25263C6.20919 6.52023 6.48198 6.76113 6.74308 6.76113H6.79389C7.04349 6.76113 7.32778 6.50453 7.32778 6.27803V6.20183C7.32778 5.87183 7.19118 5.86893 7.07358 5.69333H7.81089C7.67019 5.81553 7.53118 5.93963 7.53118 6.20183C7.53118 6.46663 7.79108 6.76113 8.03968 6.76113H8.06508C8.39488 6.76113 8.67528 6.51163 8.67528 6.20183C8.67528 5.95303 8.52889 5.80913 8.39559 5.69333H9.10749C9.13389 5.64333 9.15828 5.61833 9.15828 5.54073V3.02383C9.15828 2.94163 9.06598 2.89673 8.98038 2.89673H5.14138C5.05568 2.89673 4.96338 2.94163 4.96338 3.02383Z" fill="#020202"/>
<path fill-rule="evenodd" clip-rule="evenodd" d="M2.09058 4.62549V5.59159C2.09058 5.65109 2.13278 5.69329 2.19228 5.69329H2.57358C2.61318 5.54489 2.92768 5.41359 3.13288 5.41359H3.20919C3.50039 5.41359 3.73178 5.69329 3.79398 5.69329H4.70919C4.76869 5.69329 4.81089 5.65109 4.81089 5.59159V3.88819C4.81089 3.82959 4.79318 3.81189 4.73458 3.81189H3.87018C3.72578 3.81189 3.31099 4.25659 3.20289 4.36489C3.02809 4.54019 3.07978 4.52409 2.75158 4.52379C2.54818 4.52359 2.34478 4.52379 2.14138 4.52379" fill="#020202"/>
<path fill-rule="evenodd" clip-rule="evenodd" d="M2.57361 6.20174C2.57361 6.48744 2.84201 6.76104 3.13291 6.76104C3.46761 6.76104 3.71772 6.50784 3.71772 6.17624C3.71772 5.89764 3.44521 5.61694 3.18381 5.61694C2.84661 5.61694 2.57361 5.87234 2.57361 6.20174Z" fill="#020202"/>
<path fill-rule="evenodd" clip-rule="evenodd" d="M3.43836 8.79027L3.43775 7.95527L3.43746 7.53857L2.55225 8.37287L3.43825 9.20697L3.43836 8.79027Z" fill="black"/>
<path fill-rule="evenodd" clip-rule="evenodd" d="M4.12965 9.0146V8.0457C3.96405 8.1838 3.85244 8.253 3.79484 8.253C3.76764 8.253 3.74294 8.241 3.72224 8.2172C3.70104 8.1937 3.69055 8.1662 3.69055 8.1347C3.69055 8.0985 3.70105 8.0718 3.72145 8.0548C3.74245 8.0381 3.77925 8.016 3.83195 7.989C3.91135 7.9485 3.97424 7.906 4.02134 7.8612C4.06894 7.8164 4.11064 7.7662 4.14744 7.711C4.18404 7.6554 4.20785 7.6217 4.21925 7.6089C4.22995 7.5962 4.25094 7.5896 4.28184 7.5896C4.31614 7.5896 4.34424 7.6041 4.36494 7.6333C4.38584 7.6622 4.39634 7.7025 4.39634 7.7535V8.973C4.39634 9.1158 4.35155 9.187 4.26205 9.187C4.22235 9.187 4.19024 9.1725 4.16624 9.1433C4.14184 9.1144 4.12965 9.0713 4.12965 9.0146ZM5.85194 8.3944C5.85194 8.5112 5.84594 8.6113 5.83244 8.6949C5.81934 8.7791 5.79524 8.855 5.75984 8.9231C5.71564 9.0067 5.65835 9.0713 5.58775 9.117C5.51745 9.1623 5.43865 9.185 5.35255 9.185C5.25355 9.185 5.16454 9.1544 5.08604 9.0931C5.00754 9.0322 4.94825 8.9477 4.90805 8.84C4.88795 8.781 4.87344 8.7156 4.86384 8.6444C4.85484 8.573 4.84965 8.4959 4.84965 8.4128C4.84965 8.3054 4.85465 8.209 4.86525 8.1231C4.87575 8.037 4.89214 7.9633 4.91424 7.9012C4.95254 7.7991 5.00894 7.7212 5.08204 7.6679C5.15544 7.6143 5.24285 7.5874 5.34515 7.5874C5.41205 7.5874 5.47295 7.5993 5.52795 7.6231C5.58265 7.6469 5.63084 7.6815 5.67224 7.7274C5.71364 7.7733 5.74875 7.83 5.77745 7.8972C5.82735 8.0143 5.85194 8.1804 5.85194 8.3944ZM5.58354 8.3734C5.58354 8.2436 5.57654 8.137 5.56224 8.0545C5.54754 7.9715 5.52344 7.9088 5.48944 7.8666C5.45534 7.8246 5.40834 7.8034 5.34854 7.8034C5.26234 7.8034 5.20255 7.8507 5.16885 7.9454C5.13505 8.0395 5.11834 8.1849 5.11834 8.3816C5.11834 8.5152 5.12535 8.6249 5.13995 8.7099C5.15405 8.7952 5.17844 8.8599 5.21214 8.9035C5.24624 8.9469 5.29245 8.9687 5.35055 8.9687C5.41035 8.9687 5.45735 8.9463 5.49165 8.901C5.52515 8.8553 5.54924 8.7901 5.56254 8.7059C5.57644 8.6212 5.58354 8.5106 5.58354 8.3734ZM7.47424 8.6172V9.0039C7.47424 9.0648 7.46144 9.1107 7.43624 9.1413C7.41074 9.1717 7.37674 9.187 7.33534 9.187C7.29504 9.187 7.26224 9.1717 7.23724 9.1413C7.21234 9.1107 7.19955 9.0648 7.19955 9.0039V8.5404C7.19955 8.467 7.19755 8.4103 7.19255 8.3697C7.18855 8.3295 7.17584 8.296 7.15574 8.2702C7.13504 8.2442 7.10354 8.2311 7.05934 8.2311C6.97174 8.2311 6.91425 8.264 6.88675 8.3295C6.85865 8.3944 6.84474 8.4882 6.84474 8.6107V9.0039C6.84474 9.0642 6.83225 9.1099 6.80705 9.1408C6.78185 9.1717 6.74894 9.187 6.70814 9.187C6.66754 9.187 6.63444 9.1717 6.60864 9.1408C6.58314 9.1099 6.57034 9.0642 6.57034 9.0039V8.1716C6.57034 8.1169 6.58195 8.0752 6.60495 8.0469C6.62795 8.0185 6.65825 8.0044 6.69595 8.0044C6.73305 8.0044 6.76315 8.0177 6.78775 8.0443C6.81215 8.0707 6.82434 8.1075 6.82434 8.1543V8.1821C6.87054 8.1217 6.92014 8.0772 6.97314 8.0489C7.02584 8.0205 7.08485 8.0063 7.14915 8.0063C7.21665 8.0063 7.27394 8.0211 7.32234 8.05C7.37084 8.0792 7.41084 8.1231 7.44174 8.1821C7.48704 8.1226 7.53555 8.0783 7.58685 8.0497C7.63845 8.0211 7.69544 8.0063 7.75834 8.0063C7.83144 8.0063 7.89444 8.0219 7.94714 8.0534C7.99984 8.0846 8.03954 8.1294 8.06564 8.1875C8.08834 8.2399 8.09965 8.323 8.09965 8.4355V9.0039C8.09965 9.0648 8.08694 9.1107 8.06164 9.1413C8.03614 9.1717 8.00274 9.187 7.96104 9.187C7.92054 9.187 7.88764 9.1717 7.86184 9.1408C7.83634 9.1099 7.82324 9.0642 7.82324 9.0039V8.5146C7.82324 8.4519 7.82124 8.4021 7.81524 8.3644C7.81024 8.3269 7.79734 8.2952 7.77584 8.2694C7.75394 8.2439 7.72135 8.2311 7.67775 8.2311C7.64235 8.2311 7.60884 8.2425 7.57714 8.2654C7.54564 8.2878 7.52094 8.3184 7.50344 8.357C7.48354 8.4057 7.47424 8.4928 7.47424 8.6172Z" fill="black"/>
<path fill-rule="evenodd" clip-rule="evenodd" d="M8.474 8.77039L8.4747 7.95089L8.47499 7.54199L9.3602 8.36079L8.4742 9.17929L8.474 8.77039Z" fill="black"/>
<path fill-rule="evenodd" clip-rule="evenodd" d="M3.79398 5.69329H4.70919C4.76869 5.69329 4.81089 5.65109 4.81089 5.59159V3.88819C4.81089 3.82959 4.79318 3.81189 4.73458 3.81189H3.87018C3.72578 3.81189 3.31099 4.25659 3.20289 4.36489C3.02809 4.54019 3.07978 4.52409 2.75158 4.52379C2.54818 4.52359 2.34478 4.52379 2.14138 4.52379C2.11068 4.56969 2.09058 4.56849 2.09058 4.62549V5.59159C2.09058 5.65109 2.13278 5.69329 2.19228 5.69329H2.57358C2.61318 5.54489 2.92769 5.41359 3.13299 5.41359H3.20919C3.50039 5.41359 3.73178 5.69329 3.79398 5.69329ZM4.55668 4.54919H3.48888C3.50718 4.48059 3.79828 4.04079 3.87018 4.04079H4.63288V4.47299C4.63288 4.53149 4.61528 4.54919 4.55668 4.54919Z" fill="black"/>
</svg>
