<svg width="12" height="12" viewBox="0 0 12 12" fill="none" xmlns="http://www.w3.org/2000/svg">
<g clip-path="url(#clip0_2_1338)">
<path fill-rule="evenodd" clip-rule="evenodd" d="M3.82177 7.0641C3.69367 7.1787 3.99477 7.1533 3.99477 7.1533C4.04477 7.167 4.02637 7.1839 4.04377 7.3024C4.09177 7.6293 4.19547 8.0809 4.30797 8.3712C4.30527 8.3736 4.30017 8.3727 4.29887 8.3771L4.27157 8.39461C4.25927 8.40271 4.25397 8.4032 4.23737 8.419L4.25067 8.4635C4.32547 8.5269 4.32787 8.4416 4.37997 8.5429C4.50247 8.7814 4.54107 8.9236 4.75777 9.1595L4.94407 9.2856C4.99197 9.3178 5.04467 9.33911 5.06827 9.39051C5.05327 9.41841 5.06087 9.4131 5.00617 9.4351C5.00347 9.4362 4.99777 9.4368 4.99377 9.4384C5.13607 9.4748 5.22907 9.46081 5.35287 9.47961C5.32857 9.55141 5.35827 9.5029 5.29757 9.5498C5.43537 9.4948 5.28087 9.48851 5.49727 9.50101C5.31297 9.42471 5.20197 9.513 5.18717 9.3809C5.30757 9.3377 5.55417 9.46751 5.64377 9.41991C5.70827 9.38561 5.81927 9.3986 5.86347 9.4149L5.84757 9.4442C5.83347 9.462 5.82557 9.45981 5.81147 9.48611C5.83527 9.55371 5.86087 9.5499 5.89967 9.5515L6.00687 9.5526C6.18197 9.5046 6.18097 9.5737 6.19367 9.6146C6.19477 9.612 6.19487 9.6062 6.19487 9.6062L6.19617 9.59751C6.19617 9.59751 6.19727 9.5901 6.19767 9.5879L6.20857 9.5423C6.22947 9.544 6.29987 9.57661 6.33617 9.51691C6.37517 9.45281 6.29437 9.4533 6.29767 9.4148C6.35487 9.3938 6.45797 9.40221 6.53247 9.40541C6.49737 9.50941 6.57677 9.3089 6.49967 9.458C6.48857 9.4794 6.48397 9.4422 6.48367 9.5158C6.54287 9.3997 6.53947 9.4628 6.56337 9.4085C6.33557 9.3478 6.27007 9.438 6.20857 9.4415C6.18557 9.4125 6.19397 9.47081 6.19157 9.39051C6.23337 9.34071 6.25387 9.326 6.34677 9.3152C6.20197 9.1918 6.20877 9.27121 5.98147 8.98101C5.90547 8.88401 5.78617 8.6664 5.74037 8.5273C5.80387 8.5288 5.78807 8.5373 5.81397 8.5427L5.86487 8.5363C5.97527 8.5194 5.86377 8.5734 6.00367 8.5739C5.96327 8.4967 6.00037 8.4967 5.96967 8.4391C5.95117 8.4658 5.97297 8.42301 5.96677 8.45991L5.95807 8.504C5.88887 8.5285 5.78227 8.5155 5.69897 8.5143C5.60217 8.5128 5.49067 8.5493 5.46757 8.4668C5.50927 8.4073 5.58597 8.4376 5.66707 8.437C5.74857 8.4364 5.84117 8.4276 5.92187 8.4396C5.92457 8.4363 5.92817 8.4265 5.92957 8.4293C5.93397 8.438 5.93257 8.4077 5.98567 8.3855L6.03687 8.4661C6.06747 8.5509 6.07247 8.52531 6.01317 8.56121C6.15497 8.54511 6.19507 8.5316 6.21287 8.4668L6.17527 8.45901C6.13747 8.44901 6.18667 8.47901 6.13537 8.44551C6.14217 8.38421 6.17047 8.3655 6.19267 8.3054C6.24017 8.2561 6.27717 8.1742 6.31557 8.111C6.33337 8.0819 6.35587 8.0316 6.39277 8.0485C6.44297 8.0714 6.39977 8.1138 6.38437 8.1625C6.45827 8.0972 6.44167 8.1718 6.52987 8.0396C6.60447 7.9279 6.57417 7.98421 6.59197 7.84241L6.56897 7.87131C6.52227 7.93281 6.53197 7.9326 6.48347 7.9359C6.44497 7.8636 6.58467 7.7169 6.62157 7.6183L6.59617 7.65871C6.58347 7.64501 6.58557 7.6487 6.57317 7.6268C6.48647 7.4735 6.38307 6.7876 6.37207 6.6262L6.30527 6.6683C6.30767 6.6695 6.31327 6.67 6.31327 6.67C6.41477 6.7013 6.36167 6.8048 6.26347 6.8814C6.18767 6.9404 6.11067 7.0459 5.99567 6.9537C6.04027 6.882 6.27887 6.9017 6.29047 6.6967C6.21407 6.7301 6.26477 6.7486 6.18107 6.7413C6.16607 6.6761 6.17697 6.6875 6.21097 6.6537L6.41467 6.4897C6.37987 6.4753 6.36787 6.50571 6.35667 6.44371C6.32767 6.28301 6.33187 5.5964 6.38277 5.5214C6.31947 5.4893 6.34327 5.4699 6.26957 5.4434C6.20867 5.5676 6.06017 5.4293 6.01477 5.3957C5.89517 5.3071 5.86477 5.2647 5.93687 5.1551C5.87177 5.1236 5.85817 5.07591 5.74727 5.01221C5.77597 5.04611 5.77267 5.0252 5.79027 5.0711C5.67687 5.1246 5.55797 5.12311 5.42487 5.08911C5.44237 5.14491 5.38557 5.8713 5.38647 6.03L5.42117 6.769C5.43357 6.9029 5.46737 6.926 5.37407 6.9729C5.32217 6.5763 5.30467 5.57841 5.36467 5.13861L5.41117 5.0594C5.37597 5.0244 5.37817 5.03631 5.37837 4.97351L5.19757 4.9745L5.14457 6.0139C5.14447 6.3716 5.17487 6.7026 5.20627 7.0525L5.17547 7.0356C5.15237 7.0344 5.17047 6.9911 5.15847 7.0526C5.03637 7.0511 5.11557 7.0056 4.95087 7.0037C4.91547 7.0033 4.86257 7.0001 4.83007 7.01C4.74067 7.0373 4.84327 7.0453 4.72737 7.0524C4.70527 7.0265 4.70977 7.0485 4.71157 6.9984C4.69757 7.0237 4.70077 7.03371 4.66367 7.05041C4.55327 6.84761 4.60167 5.26831 4.65947 4.97351L4.50447 4.97391L4.47547 5.0312C4.46517 5.0499 4.45067 5.0724 4.43477 5.0838C4.40217 5.1072 4.03967 5.17731 4.04057 4.97351C4.01577 4.99371 4.00577 4.974 3.99677 5.0786C3.96827 5.4058 3.95017 5.6611 3.95027 5.9981C3.95027 6.3688 3.97707 6.68981 4.00867 7.05141C3.94907 7.05291 3.86207 7.0445 3.82177 7.0641Z" fill="#111111"/>
<path fill-rule="evenodd" clip-rule="evenodd" d="M6.87218 2.91892C6.84228 2.96042 6.57318 3.01681 6.36338 3.47091C6.34958 3.50081 6.35078 3.50561 6.33548 3.52411C6.30288 3.56371 6.34188 3.53761 6.28928 3.56131L6.27498 3.64102C6.25418 3.65182 6.29598 3.68311 6.23988 3.63831L6.35668 3.84342C6.35978 3.84832 6.37258 3.86761 6.37638 3.87301C6.39118 3.89371 6.38958 3.89051 6.39878 3.90111L6.37528 3.82992C6.51688 3.81842 6.52878 3.86802 6.58348 3.95072C6.64538 4.04452 6.63278 4.00931 6.66618 4.10561L6.68648 4.15601C6.72608 4.05441 6.83648 3.91391 6.92368 3.86211C6.99428 3.82021 7.00448 3.83701 7.01558 3.83851L7.03998 3.84802C7.02608 3.92362 6.98158 3.88971 6.90708 3.95691C6.75658 4.09291 6.71138 4.26832 6.68468 4.29202C6.64268 4.32942 6.66598 4.27851 6.64278 4.29401C6.67498 4.34171 6.73668 4.41331 6.72358 4.47231C6.71968 4.47431 6.71398 4.47602 6.71128 4.47632C6.59948 4.49102 6.74348 4.49882 6.67738 4.47822C6.63838 4.46602 6.55808 4.29861 6.53998 4.26201C6.42928 4.35321 6.35948 4.22971 6.31168 4.15921C6.26118 4.08491 6.20548 4.02901 6.24988 3.93791C6.26018 3.91681 6.26258 3.91951 6.27018 3.90851C6.29788 3.86851 6.27098 3.91921 6.29038 3.87991C6.26278 3.83671 6.22248 3.77701 6.20748 3.73321L6.15968 3.78222C6.20778 3.78472 6.18468 3.77841 6.20538 3.80021C6.04588 4.21321 5.95798 4.99482 5.92468 5.05372L5.98568 5.10412L6.01328 5.07071C6.11968 4.99051 6.45058 5.23692 6.33598 5.36532C6.25468 5.32182 6.29588 5.16802 6.01528 5.11992C6.05838 5.17762 6.06788 5.13961 6.06418 5.21771C6.00718 5.24541 6.02188 5.22611 5.97078 5.19861C6.00058 5.38851 6.22718 5.41261 6.26958 5.44341C6.25348 5.42181 6.26218 5.43242 6.24008 5.40912C6.18188 5.34792 6.17408 5.36521 6.17578 5.29751C6.28228 5.29371 6.36928 5.44211 6.46448 5.48951C6.44958 5.38411 6.50178 4.98661 6.54188 4.89711C6.60758 4.75021 6.75048 4.58991 6.91508 4.76611C7.11318 4.97821 7.17398 5.45091 7.19058 5.79291C7.21008 6.19701 7.18458 6.62071 7.06748 6.98501C7.01918 7.13541 6.93238 7.34281 6.78078 7.34921C6.61238 7.35631 6.50808 7.07952 6.49588 6.99312C6.49488 6.98572 6.49178 6.98421 6.48888 6.98031C6.49608 7.13661 6.55098 7.31941 6.58868 7.46341C6.64618 7.49201 6.56378 7.48141 6.61048 7.45601C6.66178 7.42801 6.57118 7.42581 6.62108 7.44751C6.62988 7.46921 6.65098 7.50731 6.65068 7.52701C6.64968 7.59221 6.62178 7.49181 6.62158 7.61831C6.68788 7.55841 6.62368 7.54722 6.71828 7.55842C6.74088 7.61172 6.66988 7.70672 6.64078 7.75012C6.67018 7.75782 6.61288 7.76731 6.65488 7.74611L6.68748 7.72571C6.70608 7.81511 6.78448 7.93911 6.83138 8.00321C6.96418 8.18431 7.02648 8.09032 7.03998 8.19602C6.89308 8.26802 6.68478 7.88751 6.65448 7.84451C6.68598 7.98731 6.63988 8.00112 6.57528 8.10082C6.54968 8.14042 6.53578 8.17081 6.49268 8.19471C6.44788 8.21971 6.37698 8.24111 6.38438 8.16251L6.23998 8.38622C6.24348 8.38772 6.24738 8.38522 6.24788 8.38762C6.25658 8.42772 6.25198 8.35522 6.27788 8.41152C6.29588 8.45052 6.28998 8.47421 6.28768 8.51511C6.33308 8.50181 6.33908 8.57171 6.40968 8.69541C6.55128 8.94361 6.64078 9.01911 6.88178 9.13781C6.95468 9.06251 6.94738 9.05671 7.02418 9.01251C7.02758 9.01061 7.03218 9.00802 7.03528 9.00612L7.05798 8.99231C7.05688 8.89881 7.02988 8.76231 7.06868 8.69301C7.16288 8.70691 7.13308 8.79551 7.13118 8.88081C7.12598 9.10581 7.16658 9.11681 7.10068 9.16931C7.03478 9.22191 6.98968 9.19412 6.93798 9.19462C6.87078 9.19522 6.91228 9.24311 6.81328 9.31141L6.95708 9.26032L6.97308 9.33951C7.03348 9.28871 7.02288 9.31221 7.07108 9.30161C7.22368 9.26811 7.13328 9.15122 7.15158 9.04762C7.18058 9.08172 7.20418 9.08071 7.22688 9.12071C7.25728 9.17441 7.23788 9.19891 7.25448 9.24621C7.26878 9.02311 7.31248 9.18132 7.54118 8.84342C7.58798 8.77412 7.62348 8.71091 7.66418 8.63191L7.74968 8.46282C7.77398 8.41532 7.77378 8.49461 7.76098 8.39871C7.75758 8.40191 7.75318 8.40261 7.75178 8.40921L7.53168 8.81891C7.49148 8.88051 7.32368 9.08961 7.26428 9.10631C7.21368 9.12061 7.20198 9.08691 7.25758 9.03961C7.35748 8.95471 7.32998 8.98821 7.42718 8.87291C7.58828 8.68181 7.71878 8.34511 7.79768 8.09631C7.83628 7.97451 7.85598 8.01752 7.82788 7.92732C7.80218 7.97422 7.80128 7.99152 7.72218 7.95812C7.67048 7.93632 7.66358 7.90801 7.63238 7.85531C7.57108 7.75181 7.52018 7.73081 7.56348 7.59391C7.52118 7.64381 7.54308 7.74462 7.41448 7.95302C7.35628 8.04742 7.25758 8.18762 7.12918 8.19922C7.13768 8.08012 7.15458 8.16261 7.25918 8.05201C7.38698 7.91691 7.48638 7.66851 7.53678 7.48671L7.57508 7.47931C7.54738 7.42561 7.52688 7.40711 7.52738 7.33281L7.58498 7.33811C7.56628 7.31451 7.56578 7.30782 7.57868 7.25202C7.63188 7.02222 7.65448 6.75531 7.67168 6.67901C7.68798 6.60621 7.62808 6.59551 7.72168 6.61001L7.66438 6.57731C7.69488 6.49451 7.68478 6.56772 7.70298 6.50292C7.73358 6.39422 7.71578 5.76641 7.70828 5.61461C7.70288 5.50671 7.69308 5.54432 7.75018 5.50332C7.78958 5.55552 7.77898 5.66261 7.78178 5.72711L7.77098 6.50781L7.72168 6.53431L7.84798 6.57382C7.80098 6.54372 7.79338 6.56422 7.81098 6.51822C7.84458 6.43032 8.02658 6.48832 8.06468 6.49502L8.05738 5.63022C8.05738 5.56122 8.04918 5.57121 8.09008 5.53731C7.96258 5.55561 7.87308 5.61841 7.80078 5.50441C7.86918 5.44071 7.85728 5.51492 7.98638 5.48422C8.09098 5.45942 8.05858 5.42851 8.11878 5.37811C8.05058 5.39171 8.04938 5.42402 7.99558 5.37702C8.00998 5.30532 8.01698 5.34191 8.07638 5.29731C7.84408 5.24681 7.87938 5.36512 7.76408 5.39282C7.76328 5.21432 7.96918 5.17951 8.10928 5.23691C8.09388 5.05831 8.07298 4.87861 8.04428 4.70401C8.03098 4.62291 8.01768 4.54412 8.00028 4.46002C7.97158 4.32062 7.99318 4.31641 7.98598 4.19941C7.94508 4.33451 8.00648 4.23261 7.89168 4.41641C7.87218 4.44771 7.85418 4.48632 7.82458 4.50842C7.77358 4.54662 7.73978 4.53111 7.73978 4.53111C7.70778 4.52641 7.71388 4.52522 7.70098 4.51692C7.74588 4.41182 7.85188 4.46832 7.89438 4.19642C7.90218 4.14632 7.87718 4.16961 7.91788 4.14541C7.96368 4.11811 7.92878 4.15971 7.95838 4.15061C7.90328 4.09831 7.92618 4.12121 7.94358 4.03811C7.89848 4.10951 7.89198 4.23771 7.80778 4.23871C7.77688 4.17951 7.83098 4.08251 7.86128 4.02321C7.85948 4.02211 7.85528 4.02101 7.85478 4.02301C7.85418 4.02511 7.84818 4.04172 7.82148 4.00522L7.73478 3.75581C7.63338 3.47471 7.49838 3.18161 7.25908 3.00361C7.19578 2.95661 7.22238 2.98691 7.21638 2.94121L7.14508 2.99331C7.14508 2.89921 7.18348 2.86192 7.15578 2.80882C7.13858 2.77582 7.08108 2.74652 7.05268 2.70392C7.05268 2.70392 7.05298 2.70731 7.05298 2.70961C7.05308 2.71201 7.05328 2.71531 7.05328 2.71531C7.05518 2.76621 7.07688 2.71291 7.05268 2.74321L6.98588 2.70331L6.95718 2.76721L6.85818 2.74581C6.86878 2.77641 6.87548 2.79711 6.89188 2.81611C6.96248 2.89801 6.89188 2.78272 7.13128 2.87552L7.13228 3.27561C7.12408 3.33991 7.12688 3.34052 7.07728 3.34472C7.02218 3.28482 7.05758 3.11822 7.05798 3.02292C6.95418 3.01922 6.93668 2.94832 6.87218 2.91892Z" fill="#111111"/>
<path fill-rule="evenodd" clip-rule="evenodd" d="M5.87516 2.60971C5.90086 2.58591 5.94296 2.58991 5.98556 2.58991C5.96316 2.76311 5.87356 2.74621 5.60766 2.72661C5.42456 2.71301 5.18406 2.98231 5.09106 3.11001C5.00656 3.22601 4.99696 3.26861 4.93856 3.37011C4.90596 3.42681 4.93466 3.37751 4.91846 3.40201C4.91346 3.40301 4.90716 3.40411 4.90336 3.40441L4.87576 3.40681L4.83766 3.40141C4.89786 3.40211 4.93016 3.44521 4.93756 3.51251C4.82276 3.51011 4.89056 3.46701 4.72786 3.46381C4.57526 3.46081 4.62056 3.47291 4.52986 3.52731C4.60346 3.52931 4.58516 3.51231 4.62116 3.56131C4.59936 3.60171 4.63306 3.58691 4.56526 3.60691L4.28146 3.64201C4.26316 3.67991 4.26526 3.60801 4.28966 3.65231C4.31556 3.69921 4.26956 3.76631 4.23156 3.89401C4.16266 4.12561 4.02716 4.66951 4.02986 4.87801C3.96316 4.88381 3.86906 4.87061 3.82056 4.89821C3.87886 4.90051 3.93646 4.90061 3.99486 4.90021C4.04836 4.89971 4.12566 4.88761 4.16986 4.91841L4.17736 4.89351C4.19006 4.87171 4.18106 4.85461 4.23366 4.84821C4.26346 4.89681 4.23726 4.97831 4.22406 5.03191C4.30226 5.03181 4.34756 5.04021 4.40996 5.01401C4.39416 4.93501 4.44546 5.05181 4.39696 4.99251C4.32596 4.90561 4.35726 5.01171 4.34406 4.90981C4.41986 4.88861 4.79346 4.88211 4.84846 4.91831C4.84396 5.03271 4.71886 4.93211 4.78976 5.00921C4.83306 5.05631 5.06226 5.02091 5.07896 5.01401C5.06306 4.93501 5.11446 5.05181 5.06596 4.99251C4.99466 4.90551 5.02606 5.01211 5.01296 4.90981C5.09046 4.88801 5.45836 4.88171 5.51736 4.91831C5.51266 5.03181 5.38856 4.93271 5.45646 5.01111C5.48016 5.03841 5.46106 5.02341 5.50446 5.03081C5.56196 5.04061 5.70826 5.03151 5.74726 5.01221C5.71656 4.95621 5.70526 4.99661 5.69096 4.91511C5.71376 4.90211 5.69606 4.90171 5.73046 4.90281C5.77516 4.90441 5.73476 4.89251 5.77766 4.91941C5.71966 4.83301 5.73806 4.83761 5.60346 4.83751C5.42986 4.83751 5.50156 4.88071 5.37286 4.88221C5.40996 4.74071 5.50706 4.75931 5.65206 4.76341C5.78396 4.76721 5.87226 4.83801 5.81036 4.96181L5.88326 5.01051C5.88616 5.01241 5.89106 5.01591 5.89526 5.01801C5.90806 4.68231 6.05076 4.06611 6.15966 3.78221L5.94696 3.73431C5.98226 3.79031 5.93706 3.85351 5.90316 3.97281C5.84396 4.18061 5.77926 4.43281 5.74696 4.64581C5.73416 4.72991 5.74996 4.74951 5.68296 4.75901L5.67236 4.73421C5.66016 4.67371 5.68666 4.57481 5.70246 4.48811C5.73226 4.32441 5.83486 3.79671 5.93046 3.72271C5.85466 3.69781 5.83636 3.69331 5.82646 3.60601C5.90926 3.60731 5.88126 3.61091 5.93946 3.64571C5.95996 3.57991 5.94646 3.63801 5.96376 3.60451C5.98266 3.56781 5.96506 3.61871 5.98176 3.55851C5.99946 3.49491 5.98216 3.50481 6.02186 3.46891C5.88336 3.45401 5.88886 3.58871 5.83276 3.46791C5.81256 3.52921 5.83456 3.51211 5.75086 3.51251C5.80796 3.25401 6.20576 2.69731 6.45906 2.73661C6.28996 2.83771 6.24676 2.83951 6.10956 3.01661C6.02406 3.12701 5.92686 3.27371 5.86986 3.42221C5.96546 3.38741 6.00646 3.38681 6.11086 3.41991C6.22906 3.45731 6.26296 3.44791 6.28926 3.56131C6.34186 3.53761 6.30286 3.56371 6.33546 3.52411C6.35076 3.50561 6.34956 3.50081 6.36336 3.47091C6.57316 3.01681 6.84226 2.96041 6.87216 2.91891C6.83216 2.84951 6.73226 2.78481 6.82646 2.72261C6.43506 2.55501 6.80906 2.72201 6.39946 2.72111C6.27246 2.72081 6.20876 2.71531 6.18836 2.60261C6.30756 2.60501 6.27946 2.68061 6.54846 2.63871C6.54446 2.63721 6.53816 2.63211 6.53586 2.63611L6.49516 2.63151C6.47976 2.63101 6.44936 2.63291 6.43216 2.63331C6.38236 2.63431 6.35306 2.63451 6.30416 2.62641V2.59191L5.87516 2.60971Z" fill="#111111"/>
<path fill-rule="evenodd" clip-rule="evenodd" d="M4.71159 6.99843C4.78269 6.93713 4.76459 6.93273 4.88069 6.92983C4.83839 6.40123 4.81789 5.73903 4.87129 5.20043C4.87949 5.11763 4.86349 5.13233 4.91859 5.11813C4.95749 5.13703 4.95159 5.08703 4.94609 5.19193C4.93029 5.49183 4.90319 5.62543 4.90259 5.99813C4.90209 6.31693 4.94439 6.62973 4.94659 6.92983C5.04149 6.92973 5.06309 6.93973 5.12859 6.96763C5.06579 6.35183 5.06069 5.68623 5.12959 5.07243C4.98849 5.12573 4.82969 5.14243 4.71159 5.04053C4.71299 5.24433 4.65969 5.65423 4.65979 6.01403C4.65979 6.41533 4.70819 6.71963 4.71159 6.99843Z" fill="black"/>
<path fill-rule="evenodd" clip-rule="evenodd" d="M4.83766 3.40137L4.87576 3.40677L4.90336 3.40437C4.90716 3.40407 4.91346 3.40297 4.91846 3.40197C4.93466 3.37747 4.90596 3.42677 4.93856 3.37007C4.99696 3.26857 5.00656 3.22597 5.09106 3.10997C5.18406 2.98227 5.42456 2.71297 5.60766 2.72657C5.87356 2.74617 5.96316 2.76307 5.98556 2.58987C5.94296 2.58987 5.90086 2.58587 5.87516 2.60967C5.79986 2.64347 5.72866 2.63237 5.64486 2.62967L5.67466 2.59667C5.71676 2.50977 5.63216 2.52357 5.62096 2.48157C5.69406 2.46037 5.78406 2.46197 5.85816 2.47757C5.86306 2.51747 5.85406 2.44597 5.85466 2.49467C5.85486 2.50887 5.84586 2.49087 5.85816 2.51587L6.30416 2.51407L6.30486 2.48197C6.30486 2.48197 6.30376 2.47787 6.30416 2.47587L6.52716 2.47027C6.53166 2.51637 6.52296 2.44887 6.52356 2.49467C6.52376 2.50687 6.51566 2.49247 6.52716 2.51677L6.60986 2.52937C6.52516 2.44397 6.55276 2.44767 6.39926 2.44867C6.30766 2.44917 6.33736 2.44227 6.26716 2.47427C6.24786 2.48307 6.23776 2.51917 6.18386 2.45427C6.18196 2.45207 6.17946 2.44657 6.17666 2.44317C6.15916 2.51957 6.10556 2.49087 6.01746 2.49087C5.97046 2.47197 5.98806 2.48247 5.97796 2.41467C5.97526 2.41857 5.97276 2.42067 5.97196 2.42747L5.95376 2.49077C5.83216 2.48007 5.95636 2.44877 5.73026 2.44857C5.53196 2.44837 5.65136 2.49097 5.55106 2.52117C5.46786 2.45937 5.56636 2.55787 5.52936 2.49037L5.51286 2.45517C5.51156 2.45237 5.51036 2.44647 5.50766 2.44297C5.49136 2.60617 5.45916 2.50797 5.33636 2.54467C5.21456 2.58117 5.12266 2.55577 4.98336 2.59407C5.02496 2.62867 5.03596 2.61167 5.06426 2.65347C5.02876 2.69697 4.87576 2.79667 4.82646 2.82917C4.71206 2.90457 4.78406 2.86277 4.71266 2.92687C4.53806 3.08357 4.36716 3.51097 4.34446 3.52887C4.31186 3.55467 4.34806 3.52727 4.31226 3.54377L4.49556 3.51627C4.54016 3.34657 4.64956 3.40357 4.83766 3.40137Z" fill="black"/>
<path fill-rule="evenodd" clip-rule="evenodd" d="M7.72166 6.61003C7.62806 6.59553 7.68796 6.60623 7.67166 6.67903C7.65446 6.75533 7.63186 7.02223 7.57866 7.25203C7.56576 7.30783 7.56626 7.31453 7.58496 7.33813C7.60866 7.37943 7.62576 7.41273 7.64706 7.45693C7.67656 7.51813 7.64436 7.46123 7.68006 7.51863L7.72216 7.57873L7.70626 7.51203C7.86046 7.48803 7.99996 7.73123 7.95666 7.88003L7.97236 7.85993C8.02226 7.76143 7.95206 7.81273 7.99696 7.60963C8.04866 7.37573 8.07756 7.12433 8.10256 6.88783C8.11136 6.80523 8.10736 6.79243 8.16886 6.77993C8.10406 6.73003 8.01016 6.73713 7.99866 6.65383L8.09426 6.63523C8.06996 6.57073 8.07716 6.57723 8.00526 6.55623C7.94876 6.53973 7.90706 6.54263 7.85856 6.55413C7.87426 6.62163 7.89916 6.56633 7.91256 6.65723C7.84896 6.67053 7.78386 6.63403 7.72166 6.61003Z" fill="black"/>
<path fill-rule="evenodd" clip-rule="evenodd" d="M4.25073 8.46352C4.32683 8.48972 4.34483 8.48252 4.43053 8.49262L4.56753 8.50632C4.68583 8.48632 4.47553 8.54232 4.59523 8.49762C4.59953 8.49602 4.60453 8.49212 4.60793 8.49062C4.61133 8.48902 4.61653 8.48592 4.62023 8.48272C4.59933 8.40502 4.61003 8.45532 4.53093 8.41992C4.59913 8.40382 4.66393 8.33122 4.71853 8.41172C4.73083 8.42992 4.73253 8.44452 4.74083 8.46982C4.77603 8.57662 4.78273 8.55452 4.80713 8.56552C4.82843 8.55212 4.82973 8.55962 4.82723 8.52532L4.82533 8.52032L4.82303 8.51552C4.87563 8.51592 5.26423 8.52902 5.28983 8.50202C5.32563 8.46412 5.27973 8.41402 5.25193 8.38922C5.30283 8.37942 5.38323 8.37332 5.44353 8.37802C5.56763 8.38762 5.46813 8.42392 5.61193 8.42642C5.57683 8.27582 5.42633 8.28612 5.23483 8.31192C5.22923 8.22202 5.12543 7.91892 5.09633 7.79542L5.01533 7.39702C5.01433 7.38982 5.00533 7.32962 5.00533 7.32962C4.97963 7.26112 5.02823 7.29472 4.95043 7.28502C4.92533 7.32032 4.92463 7.29942 4.94923 7.43232L5.17233 8.31102C5.18003 8.33172 5.20943 8.35352 5.14153 8.44022H5.03543L4.76543 7.36002C4.74763 7.24562 4.75823 7.28492 4.71103 7.20692C4.68113 7.15762 4.71803 7.18592 4.66703 7.15552C4.68873 7.36472 4.73183 7.57982 4.77543 7.78262C4.81873 7.98402 4.92273 8.28632 4.93893 8.37022C4.88733 8.32852 4.84763 8.30442 4.74383 8.30352C4.64453 8.30272 4.58963 8.31152 4.51723 8.34262C4.49513 8.18772 4.33353 7.75652 4.28523 7.39432C4.28423 7.38672 4.27543 7.32692 4.27543 7.32692C4.24923 7.26102 4.30163 7.29502 4.21783 7.28502C4.18923 7.33312 4.23343 7.51092 4.24603 7.57902L4.38663 8.15522C4.42433 8.27742 4.43383 8.33562 4.49713 8.42332C4.44163 8.41862 4.39503 8.41012 4.34253 8.40482C4.25503 8.39592 4.25153 8.38522 4.25073 8.46352Z" fill="#FDFDFD"/>
<path fill-rule="evenodd" clip-rule="evenodd" d="M5.93953 3.64571C5.88133 3.61091 5.90933 3.60731 5.82653 3.60601C5.83643 3.69331 5.85473 3.69781 5.93053 3.72271C5.83493 3.79671 5.73233 4.32441 5.70253 4.48811C5.68673 4.57481 5.66023 4.67371 5.67243 4.73421L5.68303 4.75901C5.75003 4.74951 5.73423 4.72991 5.74703 4.64581C5.77933 4.43281 5.84403 4.18061 5.90323 3.97281C5.93713 3.85351 5.98233 3.79031 5.94703 3.73431L6.15973 3.78221L6.20753 3.73321C6.22253 3.77701 6.26283 3.83671 6.29043 3.87991C6.27103 3.91921 6.29793 3.86851 6.27023 3.90851C6.26263 3.91951 6.26023 3.91681 6.24993 3.93791C6.20553 4.02901 6.26123 4.08491 6.31173 4.15921C6.35953 4.22971 6.42933 4.35321 6.54003 4.26201C6.55813 4.29861 6.63843 4.46601 6.67743 4.47821C6.74353 4.49881 6.59953 4.49101 6.71133 4.47631C6.71403 4.47601 6.71973 4.47431 6.72363 4.47231C6.73673 4.41331 6.67503 4.34171 6.64283 4.29401C6.66603 4.27851 6.64273 4.32941 6.68473 4.29201C6.71143 4.26831 6.75663 4.09291 6.90713 3.95691C6.98163 3.88971 7.02613 3.92361 7.04003 3.84801L7.01563 3.83851C7.00453 3.83701 6.99433 3.82021 6.92373 3.86211C6.83653 3.91391 6.72613 4.05441 6.68653 4.15601L6.66623 4.10561C6.63283 4.00931 6.64543 4.04451 6.58353 3.95071C6.52883 3.86801 6.51693 3.81841 6.37533 3.82991L6.39883 3.90111C6.38963 3.89051 6.39123 3.89371 6.37643 3.87301C6.37263 3.86761 6.35983 3.84831 6.35673 3.84341L6.23993 3.63831C6.20463 3.59401 6.22343 3.59011 6.16673 3.56921C6.14423 3.58361 6.12383 3.57441 6.13883 3.62971C6.14263 3.64341 6.16693 3.68381 6.17543 3.71181L5.93953 3.64571Z" fill="#FDFDFD"/>
<path fill-rule="evenodd" clip-rule="evenodd" d="M4.80133 3.54538C4.81793 3.66848 4.82743 3.55097 4.85843 3.61727C4.88853 3.68177 4.63943 3.65718 4.63313 3.65628C4.53433 3.64178 4.49983 3.51277 4.39703 3.86737C4.36223 3.98727 4.19073 4.61788 4.21043 4.73468C4.21103 4.73818 4.21323 4.74408 4.21383 4.74688C4.21443 4.74978 4.21593 4.75518 4.21783 4.75898C4.30193 4.74888 4.27173 4.70988 4.31323 4.50288C4.33363 4.40128 4.35563 4.30218 4.37993 4.20198L4.50063 3.79567C4.53793 3.68627 4.52373 3.73277 4.48953 3.65147C4.55143 3.72787 4.58153 3.74098 4.72783 3.73928C4.77343 3.73878 4.83193 3.73577 4.86853 3.71817C4.89343 3.70627 4.89643 3.70077 4.91313 3.68357L4.94683 3.64487C4.94903 3.64237 4.95263 3.63777 4.95593 3.63457L4.78203 4.23717C4.75573 4.35077 4.64763 4.80798 4.67973 4.87838C4.70373 4.85248 4.67843 4.88217 4.69773 4.85117C4.78603 4.70907 4.74783 4.78137 4.78633 4.57627L4.94883 3.91037C4.97873 3.81017 5.03203 3.69298 5.04913 3.59948H5.14153C5.18123 3.65618 5.15883 3.67797 5.21363 3.71217C5.23173 3.72337 5.58933 3.81698 5.60763 3.60598C5.52063 3.60828 5.49613 3.69017 5.30083 3.65787C5.24483 3.63877 5.27543 3.65417 5.28433 3.61547L5.29763 3.53167C5.21733 3.52117 4.85693 3.51288 4.80133 3.54538Z" fill="#FDFDFD"/>
<path fill-rule="evenodd" clip-rule="evenodd" d="M5.52266 9.39052C5.58266 9.43462 5.74936 9.37482 5.83866 9.39652C5.88416 9.40762 5.88296 9.42061 5.89126 9.42491C5.90166 9.43031 5.88557 9.45962 5.94737 9.43542C5.99087 9.41842 5.95557 9.45181 5.98027 9.39171C5.99597 9.47701 5.96356 9.41772 6.01746 9.44152H6.14486C6.19996 9.41422 6.16077 9.44612 6.19157 9.39052C6.20967 9.32232 6.19746 9.35512 6.23826 9.31732C5.82156 9.19222 5.67296 8.66012 5.58646 8.60802C5.54356 8.65682 5.52927 8.64782 5.64607 8.83882C5.91167 9.27322 6.01857 9.22062 6.19807 9.34392C5.81407 9.37402 5.48006 8.92351 5.38876 8.64831C5.53006 8.64831 5.58436 8.65462 5.61306 8.52722L5.50806 8.53532C5.50196 8.55262 5.55976 8.54742 5.48636 8.56692C5.35726 8.60122 5.20666 8.52762 5.15846 8.52732C5.17036 8.58442 5.18456 8.60932 5.23206 8.63072C5.33036 8.67512 5.28476 8.60641 5.33806 8.71731C5.40656 8.86021 5.52826 9.04602 5.63806 9.14882C5.74816 9.25202 5.82226 9.27632 5.86146 9.31422C5.70996 9.32062 5.69116 9.32522 5.55426 9.21692C5.34856 9.05392 5.24216 8.86101 5.12886 8.62261C5.08486 8.52991 5.11506 8.52862 5.01086 8.52722C5.07166 8.75612 5.34446 9.19032 5.62566 9.30232C5.59706 9.33152 5.56956 9.33472 5.52266 9.39052Z" fill="#FDFDFD"/>
<path fill-rule="evenodd" clip-rule="evenodd" d="M5.74733 5.01223C5.85823 5.07593 5.87183 5.12362 5.93693 5.15512C5.86483 5.26472 5.89523 5.30712 6.01483 5.39572C6.06023 5.42932 6.20872 5.56762 6.26962 5.44342C6.22722 5.41262 6.00062 5.38852 5.97082 5.19862C6.02192 5.22612 6.00722 5.24542 6.06422 5.21772C6.06792 5.13962 6.05843 5.17763 6.01533 5.11993C6.29593 5.16803 6.25472 5.32183 6.33602 5.36533C6.45062 5.23693 6.11972 4.99052 6.01332 5.07072L5.98572 5.10413L5.92472 5.05373C5.95802 4.99483 6.04592 4.21322 6.20542 3.80022C6.18472 3.77842 6.20782 3.78473 6.15972 3.78223C6.05082 4.06613 5.90812 4.68232 5.89532 5.01802C5.89112 5.01592 5.88623 5.01242 5.88333 5.01052L5.81042 4.96183C5.87232 4.83803 5.78402 4.76722 5.65212 4.76342C5.50712 4.75932 5.41002 4.74072 5.37292 4.88222C5.50162 4.88072 5.42992 4.83752 5.60352 4.83752C5.73812 4.83762 5.71972 4.83303 5.77772 4.91943C5.73482 4.89253 5.77524 4.90442 5.73054 4.90282C5.69614 4.90172 5.71382 4.90212 5.69102 4.91512C5.70532 4.99662 5.71663 4.95623 5.74733 5.01223Z" fill="#FDFDFD"/>
<path fill-rule="evenodd" clip-rule="evenodd" d="M4.71097 7.20688C4.76497 7.25738 4.82137 7.27648 4.93457 7.27628C5.08507 7.27598 5.07247 7.27358 5.15637 7.19468C5.18867 7.40058 5.21827 7.58698 5.26357 7.78868L5.37387 8.20289C5.40127 8.29739 5.37927 8.29388 5.47807 8.29468C5.43217 8.10958 5.36987 7.93828 5.32607 7.74018C5.28337 7.54748 5.25997 7.32099 5.21157 7.13949L5.37827 7.13958C5.37667 7.28308 5.48327 7.27698 5.61977 7.27618C5.76537 7.27538 5.83037 7.24629 5.82837 7.09609C5.75437 7.13039 5.76857 7.12518 5.73297 7.19158C5.66397 7.18988 5.50057 7.22118 5.45877 7.17548C5.38717 7.09688 5.50317 7.19618 5.51737 7.08648C5.46077 7.05078 5.08917 7.05388 5.01317 7.07588C5.02507 7.18098 5.06377 7.10458 5.07897 7.17988C5.02997 7.20108 4.96697 7.19378 4.90177 7.19548C4.75747 7.19918 4.83017 7.16648 4.72737 7.15328C4.70587 7.18418 4.71127 7.12108 4.71097 7.20688Z" fill="#FDFDFD"/>
<path fill-rule="evenodd" clip-rule="evenodd" d="M6.81326 9.31144C6.77336 9.27084 6.78176 9.22794 6.83066 9.18644L6.79816 9.16793C6.52386 9.02573 6.27566 8.66634 6.28766 8.51514C6.22826 8.58734 6.17826 8.61563 6.06116 8.63003C6.15216 8.66253 6.10196 8.64434 6.21706 8.84014C6.30316 8.98654 6.42016 9.14424 6.56436 9.24174C6.60456 9.26894 6.63986 9.28374 6.69146 9.30724C6.75746 9.33744 6.75426 9.35364 6.81326 9.31144Z" fill="black"/>
<path fill-rule="evenodd" clip-rule="evenodd" d="M6.19269 8.30541C6.17749 8.19601 6.22449 8.29991 6.18929 8.18541C6.08629 7.85021 6.05059 7.72221 5.99169 7.36261C5.97619 7.26781 5.96209 7.08421 5.93789 7.00531C5.86449 7.03501 5.90059 7.11561 5.92929 7.29851C5.96609 7.53241 6.07299 8.09471 6.16949 8.25861L5.92249 8.31011C5.99069 8.25851 5.96379 8.29761 5.89629 8.06241C5.82849 7.82631 5.77889 7.61492 5.74239 7.37232C5.72829 7.27852 5.74459 7.27981 5.65759 7.29041C5.68379 7.46761 5.71469 7.64502 5.75759 7.82052L5.87849 8.25522C5.91299 8.32822 5.88129 8.27691 5.91579 8.30531L5.85739 8.35421C5.81829 8.39911 5.83739 8.36601 5.82219 8.42661C5.84909 8.42601 6.17089 8.32891 6.19269 8.30541Z" fill="#FDFDFD"/>
<path fill-rule="evenodd" clip-rule="evenodd" d="M4.34403 7.06927C4.35623 7.18107 4.39493 7.10457 4.41003 7.17997C4.27383 7.23807 4.08153 7.15487 4.03613 7.15327C4.06443 7.29627 4.16003 7.27537 4.31333 7.27547C4.36463 7.27547 4.39653 7.26477 4.44083 7.25197C4.44703 7.50687 4.56993 7.94597 4.64713 8.21307C4.67353 8.30417 4.65773 8.29317 4.74983 8.29477C4.64493 7.94047 4.59433 7.77237 4.52953 7.40537L4.48383 7.20947C4.48023 7.19867 4.48313 7.17427 4.48103 7.14157C4.67303 7.13497 4.83633 7.18257 4.84843 7.08547C4.78093 7.04457 4.44353 7.06787 4.34403 7.06927Z" fill="#FDFDFD"/>
<path fill-rule="evenodd" clip-rule="evenodd" d="M5.16284 3.51232C5.26754 3.51212 5.20114 3.51032 5.25404 3.48492C5.39194 3.41862 5.56014 3.51032 5.58754 3.51252L5.60824 3.45382C5.64474 3.34632 5.78664 3.12302 5.84694 3.04032C5.89594 2.97302 5.96044 2.91122 6.02504 2.85222C6.10314 2.78092 6.18214 2.77302 6.25534 2.71832C5.96344 2.69822 5.52384 3.30802 5.57264 3.41912L5.39964 3.38412C5.51444 3.11412 5.69274 2.87782 5.95254 2.74822L6.01334 2.70972C5.75064 2.75032 5.63574 2.90692 5.51884 3.04652C5.26144 3.35382 5.42414 3.34622 5.25134 3.40152C5.18854 3.42152 5.16634 3.43822 5.16284 3.51232Z" fill="#FDFDFD"/>
<path fill-rule="evenodd" clip-rule="evenodd" d="M6.81325 9.3114C6.91225 9.2431 6.87074 9.1952 6.93794 9.1946C6.98964 9.1941 7.03474 9.2219 7.10064 9.1693C7.16654 9.1168 7.12595 9.1058 7.13115 8.8808C7.13305 8.7955 7.16285 8.7069 7.06865 8.693C7.02985 8.7623 7.05685 8.8988 7.05795 8.9923L7.03524 9.0061C7.03214 9.008 7.02755 9.0106 7.02415 9.0125C6.94735 9.0567 6.95464 9.0625 6.88174 9.1378C6.64074 9.0191 6.55124 8.9436 6.40964 8.6954C6.33904 8.5717 6.33305 8.5018 6.28765 8.5151C6.27565 8.6663 6.52385 9.0257 6.79815 9.1679L6.83064 9.1864C6.78174 9.2279 6.77335 9.2708 6.81325 9.3114Z" fill="#FDFDFD"/>
<path fill-rule="evenodd" clip-rule="evenodd" d="M5.16079 4.84413L5.12268 4.80763C5.05828 4.75283 5.00948 4.76303 4.91838 4.76343C4.78188 4.76413 4.73088 4.76333 4.70398 4.88223C4.86508 4.88043 4.73039 4.81863 4.99849 4.83823C5.10749 4.84613 5.05088 4.86863 5.11358 4.87643C5.22178 4.88973 5.09148 4.85033 5.18648 4.87073C5.19068 4.87163 5.17808 4.87763 5.22428 4.88223C5.26908 4.46613 5.38128 4.13023 5.48558 3.74933C5.38768 3.75203 5.40078 3.75383 5.33878 3.96563C5.31258 4.05533 5.28788 4.15133 5.26708 4.24453C5.22548 4.43073 5.17909 4.65043 5.16079 4.84413Z" fill="#FDFDFD"/>
<path fill-rule="evenodd" clip-rule="evenodd" d="M6.62271 9.40337L6.70811 9.36288C6.72531 9.35338 6.73341 9.34807 6.74121 9.34267C6.66661 9.35617 6.72541 9.35147 6.68751 9.36037L6.63161 9.36167C6.63881 9.33807 6.63391 9.35587 6.68741 9.33287C6.32381 9.25817 6.02971 8.70797 6.05141 8.64297C5.92761 8.65137 5.90521 8.64658 5.84241 8.57428C5.90311 8.76438 6.04741 8.96347 6.14591 9.08707C6.21391 9.17257 6.27111 9.20427 6.37341 9.27417C6.46611 9.33747 6.42371 9.29927 6.53491 9.32107C6.57921 9.32977 6.60061 9.34257 6.61561 9.37447L6.62161 9.39667C6.62161 9.39667 6.62151 9.40147 6.62271 9.40337Z" fill="black"/>
<path fill-rule="evenodd" clip-rule="evenodd" d="M5.93945 3.6457L6.01945 3.6526C6.05205 3.4812 6.11055 3.5343 6.03145 3.4837C6.18525 3.4983 6.19015 3.5115 6.23985 3.6383C6.29595 3.6831 6.25415 3.6518 6.27495 3.641L6.28925 3.5613C6.26295 3.4479 6.22905 3.4573 6.11085 3.4199C6.00645 3.3868 5.96545 3.3874 5.86985 3.4222C5.92685 3.2737 6.02405 3.12699 6.10955 3.01659C6.24675 2.83949 6.28995 2.8377 6.45905 2.7366C6.20575 2.6973 5.80795 3.25399 5.75085 3.51249C5.83455 3.51209 5.81255 3.5292 5.83275 3.4679C5.88885 3.5887 5.88335 3.454 6.02185 3.4689C5.98215 3.5048 5.99945 3.4949 5.98175 3.5585C5.96505 3.6187 5.98265 3.5678 5.96375 3.6045C5.94645 3.638 5.95995 3.5799 5.93945 3.6457Z" fill="#FDFDFD"/>
<path fill-rule="evenodd" clip-rule="evenodd" d="M4.44615 4.7876C4.31155 4.7501 4.07136 4.7189 4.03516 4.8822C4.17146 4.8807 4.08256 4.83829 4.24926 4.83759C4.48256 4.83659 4.33696 4.8762 4.47266 4.8822C4.47436 4.8792 4.47505 4.8698 4.47535 4.8721L4.59285 4.3343C4.64015 4.1294 4.71205 3.9355 4.75515 3.7524C4.64025 3.7447 4.64715 3.8382 4.61595 3.9433C4.58925 4.0334 4.56986 4.116 4.54726 4.2077C4.51526 4.3375 4.43775 4.6646 4.44615 4.7876Z" fill="#FDFDFD"/>
<path fill-rule="evenodd" clip-rule="evenodd" d="M6.62165 7.61826C6.58475 7.71686 6.44505 7.86356 6.48355 7.93586C6.53205 7.93256 6.52235 7.93277 6.56905 7.87127L6.59205 7.84237C6.57425 7.98417 6.60455 7.92786 6.52995 8.03956C6.44175 8.17176 6.45835 8.09716 6.38445 8.16246C6.37705 8.24106 6.44795 8.21966 6.49275 8.19466C6.53585 8.17076 6.54975 8.14037 6.57535 8.10077C6.63995 8.00107 6.68605 7.98726 6.65455 7.84446C6.68485 7.88746 6.89315 8.26796 7.04005 8.19596C7.02655 8.09026 6.96425 8.18426 6.83145 8.00316C6.78455 7.93906 6.70615 7.81506 6.68755 7.72566L6.65495 7.74606C6.61295 7.76726 6.67025 7.75776 6.64085 7.75006C6.66995 7.70666 6.74095 7.61166 6.71835 7.55836C6.62375 7.54716 6.68795 7.55836 6.62165 7.61826Z" fill="#FDFDFD"/>
<path fill-rule="evenodd" clip-rule="evenodd" d="M7.18984 3.38613C7.18984 3.47513 7.19944 3.51783 7.17164 3.58043C7.09314 3.56283 7.15974 3.52763 7.06874 3.51683C7.04224 3.58203 7.05134 3.67043 7.04894 3.75253C7.04614 3.84513 7.01014 3.94203 7.10474 3.95733C7.13824 3.89023 7.12064 3.75953 7.12814 3.67283C7.13184 3.67033 7.13824 3.66343 7.14034 3.66703C7.14234 3.67053 7.14954 3.66263 7.15234 3.66133C7.25764 3.61393 7.26904 3.59843 7.26534 3.45013C7.26174 3.30183 7.27524 3.23873 7.14084 3.20453C7.14514 3.32803 7.18984 3.26293 7.18984 3.38613Z" fill="#FDFDFD"/>
<path fill-rule="evenodd" clip-rule="evenodd" d="M5.81053 6.98558L5.78322 6.96558C5.77342 6.95908 5.77803 6.95788 5.75363 6.94698C5.69213 6.91958 5.60862 6.93028 5.53972 6.93038C5.42472 6.93028 5.39462 6.95548 5.37292 7.05258C5.53832 7.04978 5.37132 6.96848 5.76332 7.01918C5.71232 7.08078 5.67572 7.04468 5.70222 7.14378C5.76752 7.13688 5.77412 7.12218 5.81282 7.08408C5.92402 6.97448 6.07053 6.91218 6.06523 6.81148C6.00363 6.80868 5.96432 6.84768 5.92742 6.87988L5.81053 6.98558Z" fill="#FDFDFD"/>
<path fill-rule="evenodd" clip-rule="evenodd" d="M5.52274 9.39053C5.53504 9.35143 5.53854 9.35143 5.55894 9.32893C5.14764 9.25533 4.98904 8.76773 4.88674 8.64313L4.82874 8.66033C4.86254 8.82493 5.16954 9.27033 5.46754 9.32903L5.44004 9.33823C5.36624 9.37103 5.39674 9.33803 5.37944 9.38103C5.44014 9.39863 5.48644 9.40923 5.52274 9.39053Z" fill="#FDFDFD"/>
<path fill-rule="evenodd" clip-rule="evenodd" d="M5.02051 3.51139L5.09381 3.51259C5.16401 3.35939 5.24831 3.18519 5.34401 3.06319C5.46701 2.90649 5.52021 2.83849 5.72871 2.73639C5.45911 2.69749 5.08771 3.26819 5.02051 3.51139Z" fill="#FDFDFD"/>
<path fill-rule="evenodd" clip-rule="evenodd" d="M7.624 4.46922C7.5892 4.53052 7.5199 4.62622 7.5338 4.70382C7.6145 4.71232 7.5943 4.68302 7.6585 4.56622C7.6889 4.51102 7.7543 4.43923 7.7217 4.37413C7.6528 4.37323 7.6888 4.38123 7.6727 4.38873L7.6568 4.39843C7.6207 4.41813 7.67 4.41242 7.6399 4.40762C7.6005 4.33812 7.6584 4.27863 7.6948 4.21953C7.7654 4.10483 7.7963 4.18703 7.8215 4.07003C7.6747 4.06533 7.6587 4.14232 7.6003 4.23602C7.5765 4.27412 7.5443 4.31983 7.5454 4.37383C7.5462 4.41793 7.5567 4.44313 7.5938 4.46103L7.624 4.46922Z" fill="#FDFDFD"/>
<path fill-rule="evenodd" clip-rule="evenodd" d="M6.06531 3.39258C6.13571 3.41808 6.11611 3.39279 6.21101 3.22999C6.25651 3.15209 6.29701 3.08578 6.35131 3.01938C6.42251 2.93208 6.51831 2.83059 6.62081 2.77849C6.64251 2.76749 6.65721 2.76218 6.67461 2.75368C6.68911 2.74648 6.69571 2.74358 6.70891 2.73538C6.73141 2.72158 6.73151 2.72138 6.74491 2.70978C6.44481 2.75058 6.16201 3.10228 6.07201 3.33138L6.06531 3.39258Z" fill="#FDFDFD"/>
<path fill-rule="evenodd" clip-rule="evenodd" d="M7.72214 7.57867C7.73564 7.63177 7.74294 7.60778 7.72764 7.65958C7.66374 7.68278 7.70274 7.66478 7.66634 7.64788C7.60854 7.62108 7.67794 7.62437 7.63894 7.63557C7.60104 7.70867 7.71124 7.87137 7.78534 7.89677C7.78714 7.89357 7.78824 7.88397 7.78844 7.88607L7.79444 7.85368C7.79734 7.82818 7.79004 7.83218 7.79914 7.79778C7.92334 7.80238 7.87464 7.92468 7.99134 8.11538L7.97974 8.03108L8.01624 8.02317C8.01624 8.02317 8.02174 8.02357 8.02424 8.02277C7.97654 8.00757 7.94074 8.03198 7.90034 7.87198C7.89294 7.84268 7.86574 7.59057 7.72214 7.57867Z" fill="black"/>
<path fill-rule="evenodd" clip-rule="evenodd" d="M5.09813 9.24933C4.97693 9.10593 4.88703 9.09313 4.73103 8.79713C4.64463 8.63333 4.69013 8.65413 4.58093 8.65573C4.64313 8.82733 4.78333 9.01943 4.90983 9.14453C4.96333 9.19753 4.99503 9.25003 5.09813 9.24933Z" fill="#FDFDFD"/>
<path fill-rule="evenodd" clip-rule="evenodd" d="M6.39885 3.90106L6.41675 3.98406C6.33475 3.99986 6.37335 3.99326 6.32025 3.94256C6.30345 4.06626 6.40956 4.20566 6.50136 4.21726C6.47446 4.15656 6.45745 4.16606 6.47445 4.10086C6.57755 4.10836 6.48006 4.08607 6.56056 4.14417C6.60076 4.17317 6.54355 4.15857 6.57795 4.15257C6.61065 4.07577 6.49065 3.90486 6.39885 3.90106Z" fill="black"/>
<path fill-rule="evenodd" clip-rule="evenodd" d="M3.82179 7.06412L3.80859 7.13592L4.13739 7.14182C4.20419 7.12642 4.1687 7.14302 4.1965 7.08332C4.1882 7.17872 4.13609 7.17081 4.23369 7.18421L4.2415 7.08872C4.2301 7.00712 4.24239 7.03402 4.20189 7.01422C4.19789 7.01582 4.19339 7.01662 4.19189 7.02222C4.19049 7.02762 4.1845 7.02862 4.1825 7.03042C4.1509 7.05822 4.18679 7.06732 4.04309 7.06352C3.96989 7.06152 3.89509 7.06062 3.82179 7.06412Z" fill="#FDFDFD"/>
<path fill-rule="evenodd" clip-rule="evenodd" d="M6.91785 3.37018C6.91755 3.51768 6.90255 3.62858 7.03995 3.65898C7.03385 3.50338 6.99635 3.65579 6.99425 3.43389C6.99275 3.27299 7.03475 3.32179 7.03995 3.20459C6.94995 3.22719 6.91805 3.26128 6.91785 3.37018Z" fill="#FDFDFD"/>
<path fill-rule="evenodd" clip-rule="evenodd" d="M6.27228 8.13073C6.29108 8.12273 6.28917 8.15563 6.31137 8.09393C6.33647 8.02373 6.27088 8.07572 6.36948 7.92762C6.39068 7.89582 6.40847 7.86032 6.43987 7.83842C6.49877 7.79732 6.50037 7.84662 6.52397 7.75312C6.39777 7.73472 6.35747 7.80783 6.30857 7.88123C6.25797 7.95733 6.19058 8.02583 6.27228 8.13073Z" fill="#FDFDFD"/>
<path fill-rule="evenodd" clip-rule="evenodd" d="M7.18977 8.5464C7.18977 8.8653 7.14227 8.6687 7.14097 8.8341C7.25397 8.809 7.26097 8.7326 7.26437 8.6102C7.26837 8.4686 7.26777 8.408 7.14087 8.3797C7.14387 8.5349 7.18987 8.4139 7.18977 8.5464Z" fill="#FDFDFD"/>
<path fill-rule="evenodd" clip-rule="evenodd" d="M5.92192 6.85969C6.04542 6.82059 5.88512 6.83579 6.06282 6.69659C6.22852 6.56669 6.16442 6.66379 6.27122 6.59159C6.19222 6.49869 6.11642 6.56689 6.03912 6.62489C5.95852 6.68529 5.84772 6.75269 5.92192 6.85969Z" fill="#FDFDFD"/>
<path fill-rule="evenodd" clip-rule="evenodd" d="M5.93945 3.6457L6.17535 3.7118C6.16685 3.6838 6.14255 3.6434 6.13875 3.6297C6.12375 3.5744 6.14415 3.5836 6.16665 3.5692C6.22335 3.5901 6.20455 3.594 6.23985 3.6383C6.19015 3.5115 6.18525 3.4983 6.03145 3.4837C6.11055 3.5343 6.05205 3.4812 6.01945 3.6526L5.93945 3.6457Z" fill="black"/>
<path fill-rule="evenodd" clip-rule="evenodd" d="M6 1.25C8.6229 1.25 10.7499 3.3771 10.7499 6C10.7499 8.6229 8.6229 10.7499 6 10.7499C3.3771 10.7499 1.25 8.6229 1.25 6C1.25 3.3771 3.3771 1.25 6 1.25ZM11.9999 6C11.9999 2.6869 9.3131 0 6 0C2.6869 0 0 2.6869 0 6C0 9.3131 2.6869 11.9999 6 11.9999C9.3131 11.9999 11.9999 9.3131 11.9999 6Z" fill="#FF0000"/>
</g>
<defs>
<clipPath id="clip0_2_1338">
<rect width="12" height="12" fill="white"/>
</clipPath>
</defs>
</svg>
