<svg width="12" height="12" viewBox="0 0 12 12" fill="none" xmlns="http://www.w3.org/2000/svg">
<path fill-rule="evenodd" clip-rule="evenodd" d="M6 1.25C8.6229 1.25 10.7499 3.3771 10.7499 6C10.7499 8.6229 8.6229 10.7499 6 10.7499C3.3771 10.7499 1.25 8.6229 1.25 6C1.25 3.3771 3.3771 1.25 6 1.25ZM11.9999 6C11.9999 2.6868 9.3131 0 6 0C2.6868 0 0 2.6868 0 6C0 9.3131 2.6868 11.9999 6 11.9999C9.3131 11.9999 11.9999 9.3131 11.9999 6Z" fill="#FF0000"/>
<path fill-rule="evenodd" clip-rule="evenodd" d="M1.98526 6.14836H1.98096V5.20275H1.98526V5.19846H2.56906L2.37216 4.72666L2.36396 4.69866L2.36035 4.67045V4.64246L2.36616 4.61396L2.37665 4.58696L2.39065 4.56236L2.40956 4.54096L2.43176 4.52226L2.45656 4.50796L2.48345 4.49746L2.51166 4.49256L2.53976 4.49146L2.56925 4.49606L2.59635 4.50546L2.62105 4.51826L4.33586 5.63246L4.34796 5.64305L4.34876 5.64416L4.35676 5.65786L4.35736 5.65946L4.35966 5.67556V5.67676L4.35736 5.69176L4.35676 5.69326L4.34876 5.70686L4.34796 5.70796L4.33646 5.71826L2.62136 6.83276L2.59706 6.84656L2.56986 6.85496L2.54066 6.85976L2.51235 6.85986L2.48416 6.85386L2.45726 6.84466L2.43226 6.82926L2.41006 6.81186L2.39106 6.78946L2.37696 6.76476L2.36635 6.73776L2.36046 6.70966L2.36035 6.68126L2.36376 6.65325L2.37206 6.62606L2.56906 6.15255H1.98526V6.14836Z" fill="black"/>
<path fill-rule="evenodd" clip-rule="evenodd" d="M8.854 7.61084L8.8575 7.63834L8.86551 7.66464L8.87811 7.68984L8.8964 7.71164L8.9171 7.72884L8.9423 7.74144L8.96861 7.74944L8.9962 7.75294" fill="black"/>
<path fill-rule="evenodd" clip-rule="evenodd" d="M8.854 7.61086V7.04346H9.4878V7.61086" fill="black"/>
<path fill-rule="evenodd" clip-rule="evenodd" d="M9.3457 7.75294L9.3732 7.74944L9.3996 7.74144L9.4248 7.72884L9.4466 7.71164L9.4638 7.68984L9.4764 7.66464L9.4844 7.63834L9.4878 7.61084" fill="black"/>
<path fill-rule="evenodd" clip-rule="evenodd" d="M5.47766 6.83716L5.48106 6.86246L5.48906 6.88646L5.50286 6.90826L5.52006 6.92656L5.54186 6.94036L5.56586 6.94836L5.59106 6.95066" fill="black"/>
<path fill-rule="evenodd" clip-rule="evenodd" d="M5.59106 6.69727L5.56586 6.69957L5.54186 6.70877L5.52006 6.72247L5.50286 6.73967L5.48906 6.76147L5.48106 6.78556L5.47766 6.81076" fill="black"/>
<path fill-rule="evenodd" clip-rule="evenodd" d="M9.73082 6.81076L9.72741 6.78556L9.71932 6.76147L9.70562 6.73967L9.68732 6.72247L9.66662 6.70877L9.64251 6.69957L9.61731 6.69727" fill="black"/>
<path fill-rule="evenodd" clip-rule="evenodd" d="M9.61731 6.95066L9.64251 6.94836L9.66662 6.94036L9.68732 6.92656L9.70562 6.90826L9.71932 6.88646L9.72741 6.86246L9.73082 6.83716" fill="black"/>
<path fill-rule="evenodd" clip-rule="evenodd" d="M6.21228 7.75294L6.23978 7.74944L6.26618 7.74144L6.29138 7.72884L6.31198 7.71164L6.33037 7.68984L6.34297 7.66464L6.35097 7.63834L6.35327 7.61084" fill="black"/>
<path fill-rule="evenodd" clip-rule="evenodd" d="M6.35327 7.61086V7.04346H5.72058V7.61086" fill="black"/>
<path fill-rule="evenodd" clip-rule="evenodd" d="M5.72058 7.61084L5.72288 7.63834L5.73098 7.66464L5.74468 7.68984L5.76187 7.71164L5.78368 7.72884L5.80768 7.74144L5.83528 7.74944L5.86278 7.75294" fill="black"/>
<path fill-rule="evenodd" clip-rule="evenodd" d="M9.80994 6.45445L9.84314 6.35465L9.87184 6.25155L9.89354 6.14835L9.91074 6.04295L9.92224 5.93755L9.92794 5.83205V5.72545L9.92224 5.62005L9.91074 5.51465L9.89354 5.40915L9.87184 5.30605L9.84314 5.20406L9.80994 5.10315" fill="black"/>
<path fill-rule="evenodd" clip-rule="evenodd" d="M9.80995 5.10305L9.79385 5.06755L9.77325 5.03545L9.74915 5.00565L9.72165 4.97926L9.68955 4.95755L9.65525 4.93916L9.61965 4.92656L9.58185 4.91856L9.54285 4.91626" fill="black"/>
<path fill-rule="evenodd" clip-rule="evenodd" d="M9.54285 6.64115L9.58185 6.63885L9.61965 6.63075L9.65525 6.61815L9.68955 6.59985L9.72165 6.57805L9.74915 6.55175L9.77325 6.52305L9.79385 6.48985L9.80995 6.45435" fill="black"/>
<path fill-rule="evenodd" clip-rule="evenodd" d="M5.39863 5.10315L5.36542 5.20406L5.33672 5.30605L5.31382 5.40915L5.29772 5.51465L5.28632 5.62005L5.28052 5.72545V5.83205L5.28632 5.93755L5.29772 6.04295L5.31382 6.14835L5.33672 6.25155L5.36542 6.35465L5.39863 6.45445" fill="black"/>
<path fill-rule="evenodd" clip-rule="evenodd" d="M5.39856 6.45435L5.41455 6.48985L5.43405 6.52305L5.45925 6.55175L5.48675 6.57805L5.51885 6.59985L5.55325 6.61815L5.58875 6.63075L5.62666 6.63885L5.66555 6.64115" fill="black"/>
<path fill-rule="evenodd" clip-rule="evenodd" d="M5.66555 4.91626L5.62666 4.91856L5.58875 4.92656L5.55325 4.93916L5.51885 4.95755L5.48675 4.97926L5.45925 5.00565L5.43405 5.03545L5.41455 5.06755L5.39856 5.10305" fill="black"/>
<path fill-rule="evenodd" clip-rule="evenodd" d="M9.54285 4.9163L9.26785 4.87959L8.99165 4.8487L8.71425 4.8235L8.43805 4.80399L8.15955 4.78909L7.88225 4.7811L7.60375 4.77759L7.32636 4.7811L7.04905 4.78909L6.77055 4.80399L6.49315 4.8235L6.21695 4.8487L5.94075 4.87959L5.66565 4.9163" fill="black"/>
<path fill-rule="evenodd" clip-rule="evenodd" d="M9.55089 4.86016L9.27469 4.82356L8.99729 4.79256L8.71879 4.76626L8.44139 4.74676L8.16179 4.73295L7.88329 4.72386L7.60369 4.72156L7.32519 4.72386L7.04669 4.73295L6.76699 4.74676L6.48849 4.76626L6.21119 4.79256L5.93379 4.82356L5.65759 4.86016" fill="black"/>
<path fill-rule="evenodd" clip-rule="evenodd" d="M4.33264 5.75867L4.34414 5.74837L4.35214 5.73457L4.35444 5.71967L4.35214 5.70367L4.34414 5.68987L4.33264 5.67957" fill="black"/>
<path fill-rule="evenodd" clip-rule="evenodd" d="M6.35763 7.61106L6.35533 7.63856L6.34713 7.66576L6.33423 7.69166L6.33363 7.69256L6.31523 7.71426L6.29413 7.73206L6.26823 7.74526L6.24113 7.75346L6.21293 7.75706L5.86283 7.75716L5.83473 7.75356L5.80663 7.74556L5.78173 7.73256L5.75923 7.71486L5.74143 7.69246L5.72723 7.66656L5.71893 7.63946L5.71643 7.61106V7.04336V7.03906H5.72073H6.35333H6.35763V7.04336V7.61106Z" fill="black"/>
<path fill-rule="evenodd" clip-rule="evenodd" d="M5.5908 6.95489L5.5656 6.95269L5.56459 6.95249L5.54059 6.94429L5.53969 6.94379L5.51779 6.93009L5.51699 6.92939L5.49969 6.91119L5.48549 6.88869L5.477 6.86369L5.47349 6.83779L5.47339 6.81069L5.47689 6.78499L5.48509 6.76009L5.49919 6.73739L5.4998 6.73659L5.5171 6.71949L5.53969 6.70509L5.56439 6.69559L5.5656 6.69529L5.5908 6.69299H9.61729L9.643 6.69529L9.64409 6.69559L9.66809 6.70469L9.66899 6.70519L9.68969 6.71899L9.70849 6.73649L9.70919 6.73739L9.72289 6.75919L9.73139 6.78419L9.73499 6.81019V6.83719L9.73159 6.86289L9.72329 6.88779L9.70919 6.91049L9.70859 6.91129L9.69029 6.92949L9.66899 6.94379L9.66799 6.94429L9.64389 6.95249L9.64289 6.95269L9.61769 6.95489H5.5908Z" fill="black"/>
<path fill-rule="evenodd" clip-rule="evenodd" d="M8.99575 7.75706L8.96805 7.75356L8.94115 7.74556L8.91525 7.73256L8.91435 7.73206L8.89385 7.71476L8.87495 7.69256L8.87435 7.69166L8.86165 7.66646L8.85335 7.63946L8.84985 7.61126V7.04336V7.03906H8.85415H9.48785H9.49215V7.04336V7.61076L9.48875 7.63876L9.48055 7.66576L9.46765 7.69166L9.45005 7.71416L9.42755 7.73216L9.40155 7.74526L9.37455 7.75346L9.34625 7.75706H8.99575Z" fill="black"/>
<path fill-rule="evenodd" clip-rule="evenodd" d="M9.02143 3.49863L8.73833 3.47453L8.45523 3.45503L8.17213 3.44243L7.88794 3.43333L7.60373 3.43103L7.32063 3.43333L7.03643 3.44243L6.75333 3.45503L6.46903 3.47453L6.18713 3.49863" fill="black"/>
<path fill-rule="evenodd" clip-rule="evenodd" d="M9.34569 4.71803L9.05689 4.68483L8.76689 4.65733L8.47699 4.63553L8.18589 4.61953L7.89479 4.61033L7.60369 4.60803L7.31369 4.61033L7.02259 4.61953L6.73149 4.63553L6.44149 4.65733L6.15159 4.68483L5.86279 4.71803" fill="black"/>
<path fill-rule="evenodd" clip-rule="evenodd" d="M8.93655 3.66592L8.64085 3.64302L8.34515 3.62472L8.04824 3.61322L7.75265 3.60632H7.45575L7.15895 3.61322L6.86325 3.62472L6.56755 3.64302L6.27185 3.66592" fill="black"/>
<path fill-rule="evenodd" clip-rule="evenodd" d="M7.75269 3.60633L8.04829 3.61323L8.34519 3.62473L8.64089 3.64303L8.93659 3.66593L9.34569 4.71803L9.05689 4.68483L8.76689 4.65733L8.47699 4.63553L8.18589 4.61953L7.89479 4.61033L7.60369 4.60803L7.31369 4.61033L7.02259 4.61953L6.73149 4.63553L6.44149 4.65733L6.15159 4.68483L5.86279 4.71803L6.27189 3.66593L6.56759 3.64303L6.86329 3.62473L7.15899 3.61323L7.45579 3.60633H7.75269ZM8.44139 4.74673L8.71879 4.76623L8.99729 4.79253L9.27469 4.82353L9.55089 4.86013L9.02139 3.49863L8.73829 3.47453L8.45519 3.45503L8.17209 3.44243L7.88789 3.43333L7.60369 3.43103L7.32059 3.43333L7.03639 3.44243L6.75329 3.45503L6.46899 3.47453L6.18709 3.49863L5.65759 4.86013L5.93379 4.82353L6.21119 4.79253L6.48849 4.76623L6.76699 4.74673L7.04669 4.73293L7.32519 4.72383L7.60369 4.72153L7.88329 4.72383L8.16179 4.73293L8.44139 4.74673Z" fill="black"/>
<path fill-rule="evenodd" clip-rule="evenodd" d="M8.99195 4.84452L8.71455 4.81922L8.43825 4.79972L8.15975 4.78492L7.88235 4.77672L7.60385 4.77332L7.32635 4.77672L7.04895 4.78492L6.77025 4.79972L6.49285 4.81922L6.21655 4.84452L5.94025 4.87542L5.66545 4.91212L5.62645 4.91432L5.58805 4.92252L5.55205 4.93512L5.51695 4.95392L5.48455 4.97582L5.45645 5.00252L5.43085 5.03282L5.41105 5.06532L5.39475 5.10142L5.36135 5.20262L5.33265 5.30482L5.30965 5.40822L5.29345 5.51392L5.28205 5.61952L5.27625 5.72512V5.83202L5.28195 5.93762L5.29345 6.04342L5.30955 6.14902L5.33265 6.25242L5.36125 6.35582L5.39455 6.45562L5.41085 6.49162L5.43045 6.52532L5.45615 6.55472L5.48395 6.58122L5.51655 6.60342L5.55145 6.62202L5.58755 6.63492L5.62585 6.64312L5.66545 6.64542H9.54295L9.58205 6.64322L9.62045 6.63512L9.65655 6.62232L9.69165 6.60372L9.72405 6.58172L9.75215 6.55492L9.77644 6.52592L9.79754 6.49212L9.81395 6.45602L9.84725 6.35602L9.87595 6.25262L9.89775 6.14922L9.91505 6.04372L9.92645 5.93792L9.93225 5.83232V5.72542L9.92655 5.61972L9.91505 5.51412L9.89775 5.40842L9.87595 5.30512L9.84725 5.20282L9.81405 5.10182L9.79785 5.06582L9.77675 5.03322L9.75245 5.00292L9.72455 4.97622L9.69205 4.95412L9.65715 4.93542L9.62105 4.92262L9.58264 4.91442L9.54315 4.91212L9.26835 4.87542L8.99195 4.84452ZM9.00585 6.00002H9.42145V6.33242H9.00585V6.00002ZM6.20775 6.00002V6.33242H5.79225V6.00002H6.20775Z" fill="black"/>
</svg>
