<svg width="12" height="12" viewBox="0 0 12 12" fill="none" xmlns="http://www.w3.org/2000/svg">
<g clip-path="url(#clip0_2_1377)">
<path fill-rule="evenodd" clip-rule="evenodd" d="M6 1.25C8.6228 1.25 10.7499 3.3771 10.7499 6C10.7499 8.6229 8.6228 10.7499 6 10.7499C3.3771 10.7499 1.25 8.6229 1.25 6C1.25 3.3771 3.3771 1.25 6 1.25ZM11.9999 6C11.9999 2.6868 9.3131 0 6 0C2.6868 0 0 2.6868 0 6C0 9.3131 2.6868 11.9999 6 11.9999C9.3131 11.9999 11.9999 9.3131 11.9999 6Z" fill="#FF0000"/>
<path fill-rule="evenodd" clip-rule="evenodd" d="M2.24854 5.45868V6.59938L7.87115 6.59658L7.62833 7.11768C7.59543 7.19638 7.61785 7.28728 7.68365 7.34178C7.74935 7.39638 7.84314 7.40198 7.91494 7.35558L9.73054 6.04628C9.74354 6.03598 9.75154 6.01838 9.75154 5.99968C9.75154 5.98098 9.74373 5.96358 9.73083 5.95338L7.91494 4.64438C7.84314 4.59788 7.74935 4.60348 7.68365 4.65808C7.61785 4.71268 7.59543 4.80348 7.62833 4.88218L7.87004 5.45868H2.24854Z" fill="black"/>
</g>
<defs>
<clipPath id="clip0_2_1377">
<rect width="12" height="12" fill="white"/>
</clipPath>
</defs>
</svg>
