<svg width="12" height="12" viewBox="0 0 12 12" fill="none" xmlns="http://www.w3.org/2000/svg">
<g clip-path="url(#clip0_5_2210)">
<path fill-rule="evenodd" clip-rule="evenodd" d="M6.0001 1.25C3.3772 1.25 1.2501 3.3771 1.2501 6C1.2501 8.6229 3.3772 10.7499 6.0001 10.7499C8.623 10.7499 10.75 8.6229 10.75 6C10.75 3.3771 8.623 1.25 6.0001 1.25ZM0.000100136 6C0.000100136 2.6869 2.687 0 6.0001 0C9.3132 0 12 2.6869 12 6C12 9.3131 9.3132 11.9999 6.0001 11.9999C2.687 11.9999 0.000100136 9.3131 0.000100136 6Z" fill="#FF0000"/>
<path fill-rule="evenodd" clip-rule="evenodd" d="M4.51343 9.708H5.50114V8.2232L5.50413 8.1243L5.51413 8.0264L5.52963 7.9294L5.55053 7.8324L5.57833 7.7382L5.61193 7.645L5.65144 7.5547L5.69553 7.4663L5.74554 7.3809L5.80123 7.2992L5.86173 7.2214L5.92703 7.1474L5.99713 7.0782L6.07114 7.0129L6.14893 6.9524L6.23053 6.8966L6.31503 6.8457L6.40353 6.8016L6.49374 6.7622L6.58693 6.7285L6.68203 6.7017L6.77803 6.6796L6.87513 6.6642L6.97403 6.6546L7.07204 6.6517H7.61933V6.6553L7.62233 6.6567L7.41254 7.1605L7.40453 7.188L7.40054 7.217L7.40153 7.2453L7.40653 7.2734L7.41693 7.3007L7.43093 7.326L7.44973 7.3475L7.47234 7.3664L7.49763 7.3804L7.52393 7.3907L7.55293 7.3964H7.58133L7.61034 7.3917L7.63744 7.3833L7.66313 7.369L9.46823 6.1962L9.47993 6.1863L9.48693 6.173L9.48993 6.1579L9.48693 6.1427L9.47993 6.1294L9.46823 6.1185L7.66313 4.9458L7.63763 4.9326L7.61023 4.9231L7.58144 4.9185L7.55303 4.9194L7.52393 4.925L7.49783 4.9344L7.47253 4.9494L7.44984 4.9684L7.43113 4.9897L7.41703 5.0143L7.40663 5.0413L7.40163 5.0695L7.40063 5.0988L7.40463 5.127L7.41264 5.1551L7.62244 5.6582L7.61943 5.6595V5.6631H7.00133L6.89033 5.6651L6.77914 5.6726L6.66933 5.6869L6.55933 5.7061L6.45103 5.732L6.34513 5.7636L6.24083 5.8008L6.13843 5.8439L6.03793 5.8926L5.94133 5.9472L5.84653 6.0065L5.75674 6.0706L5.66953 6.1405L5.58643 6.2141L5.50783 6.2927L5.50584 6.2902H5.50183V4.1128H5.50584L5.50684 4.1095L6.00983 4.3193L6.03813 4.3277L6.06623 4.3314H6.09553L6.12373 4.3258L6.15073 4.3146L6.17523 4.3005L6.19673 4.2817L6.21553 4.2593L6.23064 4.2338L6.23963 4.2076L6.24564 4.1785L6.24654 4.1501L6.24153 4.1213L6.23153 4.0939L6.21833 4.0685L5.04563 2.2625L5.03553 2.2514L5.02223 2.2435L5.00723 2.2417L4.99203 2.2435L4.97873 2.2514L4.96773 2.2625L3.79604 4.0684L3.78194 4.0941L3.77393 4.1213L3.76894 4.1501L3.76984 4.1787L3.77483 4.2075L3.78523 4.234L3.79923 4.2592L3.81823 4.2817L3.83973 4.3005L3.86504 4.3146L3.89223 4.3258L3.92033 4.3314H3.94863L3.97773 4.3277L4.00523 4.3192L4.50903 4.1095L4.51003 4.1128H4.51403L4.51343 9.708Z" fill="black"/>
</g>
<defs>
<clipPath id="clip0_5_2210">
<rect width="12" height="12" fill="white" transform="matrix(-1 0 0 1 12 0)"/>
</clipPath>
</defs>
</svg>
