<svg width="12" height="12" viewBox="0 0 12 12" fill="none" xmlns="http://www.w3.org/2000/svg">
<g clip-path="url(#clip0_2_1386)">
<path fill-rule="evenodd" clip-rule="evenodd" d="M6 1.25C8.6229 1.25 10.75 3.3771 10.75 6C10.75 8.6229 8.6229 10.7499 6 10.7499C3.3771 10.7499 1.25 8.6229 1.25 6C1.25 3.3771 3.3771 1.25 6 1.25ZM11.9999 6C11.9999 2.6868 9.3131 0 6 0C2.6869 0 0 2.6868 0 6C0 9.3131 2.6869 11.9999 6 11.9999C9.3131 11.9999 11.9999 9.3131 11.9999 6Z" fill="#FF0000"/>
<path fill-rule="evenodd" clip-rule="evenodd" d="M8.91547 4.0808L8.92838 4.0699L8.92928 4.06881L8.93727 4.05391L8.93768 4.0528L8.94067 4.0358V4.0345L8.93768 4.0178L8.93727 4.0167L8.92928 4.00171L8.92847 4.00071L8.91557 3.9888L7.04257 2.7716L7.01547 2.7574L6.98607 2.7473L6.95557 2.7431H6.92427L6.89367 2.7492L6.86437 2.7602L6.83707 2.77551L6.81347 2.7957L6.79318 2.8189L6.77697 2.8453L6.76567 2.8747L6.75958 2.9052L6.75847 2.9367L6.76247 2.96801L6.77258 2.9976L6.98737 3.51471L6.85357 3.5186L6.71327 3.5275L6.57398 3.5434L6.43557 3.5653L6.29817 3.5932L6.16187 3.62801L6.02747 3.6678L5.89507 3.7146L5.76477 3.7663L5.63717 3.8251L5.51187 3.88881L5.39047 3.95741L5.27097 4.03201L5.15547 4.11271L5.04408 4.1972L4.93657 4.2869L4.83297 4.3824L4.73357 4.4809L4.63897 4.5844L4.54937 4.6931L4.46377 4.80441L4.38417 4.9199L4.30947 5.0383L4.24088 5.1608L4.17707 5.28521L4.11837 5.41351L4.06667 5.5439L4.01978 5.6764L3.97997 5.8107L3.94518 5.94611L3.91727 6.0843L3.89537 6.22281L3.87937 6.36221L3.87047 6.5025L3.86747 6.6428L3.86737 9.0696H3.87107V9.07341H4.90307V9.0696H4.90677V6.64291L4.90978 6.5299L4.91867 6.4164L4.93457 6.3046L4.95527 6.19341L4.98317 6.08421L5.01597 5.9761L5.05457 5.8698L5.09927 5.76561L5.14987 5.66451L5.20548 5.5662L5.26587 5.47091L5.33247 5.3796L5.40297 5.29131L5.47827 5.207L5.55877 5.1275L5.64208 5.05111L5.73037 4.98071L5.82257 4.9152L5.91687 4.8537L6.01608 4.7981L6.11737 4.74841L6.22067 4.7038L6.32687 4.6641L6.43498 4.6314L6.54427 4.6036L6.65527 4.5827L6.76737 4.56781L6.88057 4.5579L6.98707 4.5551L6.77258 5.0727L6.76257 5.1017L6.75847 5.1333L6.75937 5.1637L6.76547 5.1951L6.77657 5.22361L6.79267 5.251L6.81307 5.2744L6.83627 5.29461L6.86377 5.31001L6.89298 5.32111L6.92347 5.3273L6.95497 5.3274L6.98537 5.3224L7.01477 5.3133L7.04227 5.2981L8.91547 4.0808Z" fill="black"/>
</g>
<defs>
<clipPath id="clip0_2_1386">
<rect width="12" height="12" fill="white"/>
</clipPath>
</defs>
</svg>
