<svg width="12" height="12" viewBox="0 0 12 12" fill="none" xmlns="http://www.w3.org/2000/svg">
<g clip-path="url(#clip0_2_1395)">
<path fill-rule="evenodd" clip-rule="evenodd" d="M5.4256 9.7464L6.5663 9.75321L6.59689 4.13059L7.11659 4.3765C7.19509 4.4099 7.2861 4.3881 7.3411 4.3226C7.3961 4.2572 7.4022 4.16341 7.3562 4.09131L6.0577 2.268C6.0578 2.268 6.0577 2.2679 6.0577 2.268C6.0476 2.2549 6.02999 2.24691 6.01129 2.24671C5.99259 2.24661 5.97519 2.25431 5.96489 2.26711L4.64499 4.0752C4.59819 4.1467 4.6032 4.2405 4.6574 4.3066C4.7116 4.3727 4.8023 4.39561 4.8812 4.36321L5.45909 4.12499L5.4256 9.7464Z" fill="black"/>
<path fill-rule="evenodd" clip-rule="evenodd" d="M6 0C2.6869 0 0 2.6868 0 6C0 9.3131 2.6869 11.9999 6 11.9999C9.3131 11.9999 11.9999 9.3131 11.9999 6C11.9999 2.6868 9.3131 0 6 0ZM1.2 6C1.2 3.3495 3.3495 1.2 6 1.2C8.6505 1.2 10.7999 3.3495 10.7999 6C10.7999 8.6505 8.6505 10.7999 6 10.7999C3.3495 10.7999 1.2 8.6505 1.2 6Z" fill="#FF0000"/>
</g>
<defs>
<clipPath id="clip0_2_1395">
<rect width="12" height="12" fill="white"/>
</clipPath>
</defs>
</svg>
