<svg width="12" height="12" viewBox="0 0 12 12" fill="none" xmlns="http://www.w3.org/2000/svg">
<g clip-path="url(#clip0_2_1398)">
<path fill-rule="evenodd" clip-rule="evenodd" d="M5.99989 1.25C8.62279 1.25 10.7499 3.3771 10.7499 6C10.7499 8.6229 8.62279 10.7499 5.99989 10.7499C3.37699 10.7499 1.25 8.6229 1.25 6C1.25 3.3771 3.37699 1.25 5.99989 1.25ZM11.9999 6C11.9999 2.6868 9.31299 0 5.99989 0C2.68679 0 0 2.6868 0 6C0 9.3131 2.68679 11.9999 5.99989 11.9999C9.31299 11.9999 11.9999 9.3131 11.9999 6Z" fill="#FF0000"/>
<path fill-rule="evenodd" clip-rule="evenodd" d="M6.11942 7.58539H5.74152V8.62879" fill="black"/>
<path fill-rule="evenodd" clip-rule="evenodd" d="M8.23981 7.58539H8.61922V8.62879" fill="black"/>
<path fill-rule="evenodd" clip-rule="evenodd" d="M8.7549 8.72358L8.7529 8.72857L8.6857 8.70087L8.6837 8.69997L8.6828 8.69787L8.65509 8.63078L8.6601 8.62867H8.65509V7.68017H8.6601L8.65509 7.67807L8.6828 7.61087L8.6837 7.60877L8.6857 7.60798L8.7529 7.58017L8.7549 7.58527V7.57977H9.03799V7.58527L9.03999 7.58017L9.1071 7.60798L9.1091 7.60877L9.11 7.61087L9.1377 7.67807L9.13269 7.68017H9.1377V8.62867H9.13269L9.1377 8.63078L9.11 8.69787L9.1091 8.69997L9.1071 8.70087L9.03999 8.72857L9.03799 8.72358V8.72907H8.7549V8.72358Z" fill="black"/>
<path fill-rule="evenodd" clip-rule="evenodd" d="M5.74139 8.62867H5.73639V7.58527V7.57977H5.74139H6.1194H8.23979H8.4296H8.61929H8.6243V7.58527V8.62867H8.61929L8.6243 8.63078L8.5965 8.69787L8.5956 8.69997L8.5936 8.70087L8.5266 8.72857L8.5246 8.72358V8.72907H8.23999V8.72358L8.23799 8.72857L8.1707 8.70087L8.1687 8.69997L8.1678 8.69787L8.14009 8.63078L8.1451 8.62867H8.1391V7.73377H7.50339L7.4016 7.84588L7.40079 7.84678L7.3998 7.84718L7.2583 7.90987L7.25729 7.91037H7.103H7.10199L7.101 7.90987L6.95949 7.84718L6.9585 7.84678L6.95769 7.84588L6.8557 7.73377H6.22V8.62867H6.215L6.22 8.63078L6.1922 8.69787L6.1913 8.69997L6.1893 8.70087L6.1223 8.72857L6.1203 8.72358V8.72907H5.8358V8.72358L5.8338 8.72857L5.7681 8.70087L5.7661 8.69997L5.76529 8.69787L5.73749 8.63078L5.74139 8.62867Z" fill="black"/>
<path fill-rule="evenodd" clip-rule="evenodd" d="M5.6992 8.62867L5.7042 8.63078L5.67651 8.69787L5.67561 8.69997L5.67361 8.70087L5.6065 8.72857L5.6045 8.72358V8.72907H5.3215V8.72358L5.3195 8.72857L5.25221 8.70087L5.25021 8.69997L5.24931 8.69787L5.2217 8.63078L5.22671 8.62867H5.2207V7.68017H5.22671L5.2217 7.67807L5.24931 7.61087L5.25021 7.60877L5.25221 7.60798L5.3195 7.58017L5.3215 7.58527V7.57977H5.6045V7.58527L5.6065 7.58017L5.67361 7.60798L5.67561 7.60877L5.67651 7.61087L5.7042 7.67807L5.6992 7.68017H5.70521V8.62867H5.6992Z" fill="black"/>
<path fill-rule="evenodd" clip-rule="evenodd" d="M9.25112 7.44391L9.25611 7.44591L9.22841 7.51301L9.22751 7.51511L9.22551 7.51601L9.15831 7.54381L9.15632 7.53871V7.54421H5.20311V7.53871L5.20112 7.54381L5.13401 7.51601L5.13201 7.51511L5.13111 7.51301L5.10341 7.44591L5.10842 7.44391H5.10242V7.26001H5.10842L5.10341 7.25791L5.13111 7.19071L5.13201 7.18861L5.13401 7.18781L5.20112 7.16001L5.20311 7.16501V7.15961H9.15632V7.16501L9.15831 7.16001L9.22551 7.18781L9.22751 7.18861L9.22841 7.19071L9.25611 7.25791L9.25112 7.26001H9.25611V7.44391H9.25112Z" fill="black"/>
<path fill-rule="evenodd" clip-rule="evenodd" d="M3.2914 7.2208L4.36819 6.1772C4.40459 6.1448 4.4553 6.0483 4.3752 5.957L3.2899 4.9051C3.1171 4.7753 3.00869 4.9831 3.05159 5.0643L3.32219 5.7759L2.01819 5.6984V6.4213L3.32449 6.3436L3.05089 7.066C3.00629 7.2157 3.1878 7.3285 3.2914 7.2208Z" fill="black"/>
<path fill-rule="evenodd" clip-rule="evenodd" d="M5.05463 3.48773V6.96963H5.06062L5.05562 6.97163L5.08322 7.03873L5.08412 7.04073L5.08612 7.04163L5.15332 7.06943L5.15532 7.06443V7.06983H9.20482V7.06443L9.20682 7.06943L9.27393 7.04163L9.27592 7.04073L9.27682 7.03873L9.30443 6.97163L9.29942 6.96963H9.30443V3.48773H9.29942L9.30443 3.48563L9.27682 3.41843L9.27592 3.41633L9.27393 3.41543L9.20682 3.38773L9.20482 3.39283V3.38733H5.15532V3.39283L5.15332 3.38773L5.08612 3.41543L5.08412 3.41633L5.08322 3.41843L5.05562 3.48563L5.06062 3.48773H5.05463ZM5.38782 6.49613H5.80032V6.73613H5.38782V6.49613ZM8.63962 6.48913H9.04863V6.72913H8.63962V6.48913Z" fill="black"/>
</g>
<defs>
<clipPath id="clip0_2_1398">
<rect width="12" height="12" fill="white"/>
</clipPath>
</defs>
</svg>
