<svg width="12" height="12" viewBox="0 0 12 12" fill="none" xmlns="http://www.w3.org/2000/svg">
<g clip-path="url(#clip0_2_1408)">
<path fill-rule="evenodd" clip-rule="evenodd" d="M6 0C2.6868 0 0 2.6868 0 6C0 9.3131 2.6868 11.9999 6 11.9999C9.3131 11.9999 11.9999 9.3131 11.9999 6C11.9999 2.6868 9.3131 0 6 0ZM1.2 6C1.2 3.3495 3.3495 1.2 6 1.2C8.6504 1.2 10.7999 3.3495 10.7999 6C10.7999 8.6505 8.6504 10.7999 6 10.7999C3.3495 10.7999 1.2 8.6505 1.2 6Z" fill="#FF0000"/>
<path fill-rule="evenodd" clip-rule="evenodd" d="M8.12359 9.5406L7.04598 9.5412L7.0455 4.1509L6.55329 4.384C6.47899 4.4156 6.39309 4.3942 6.34149 4.3312C6.28989 4.2681 6.28459 4.1782 6.32839 4.1093L7.5643 2.368C7.5743 2.3556 7.59059 2.3479 7.60829 2.3479C7.62589 2.3479 7.64229 2.3553 7.65199 2.3677L8.88969 4.1078C8.93359 4.1766 8.9284 4.2665 8.8768 4.3296C8.8253 4.3927 8.73949 4.4142 8.66509 4.3827L8.12029 4.1513L8.12359 9.5406Z" fill="black"/>
<path fill-rule="evenodd" clip-rule="evenodd" d="M4.88552 2.53008L3.80791 2.52948L3.80742 7.84107L3.31522 7.61138C3.24092 7.58028 3.15512 7.60138 3.10352 7.66348C3.05192 7.72558 3.04661 7.81418 3.09041 7.88208L4.32622 9.59788C4.33622 9.61018 4.35251 9.61768 4.37021 9.61778C4.38781 9.61778 4.40432 9.61048 4.41402 9.59828L5.65161 7.88358C5.69551 7.81578 5.69031 7.72718 5.63881 7.66498C5.58731 7.60288 5.50141 7.58168 5.42711 7.61268L4.88231 7.84068L4.88552 2.53008Z" fill="black"/>
</g>
<defs>
<clipPath id="clip0_2_1408">
<rect width="12" height="12" fill="white"/>
</clipPath>
</defs>
</svg>
