<svg width="24" height="18" viewBox="0 0 24 18" fill="none" xmlns="http://www.w3.org/2000/svg">
<path fill-rule="evenodd" clip-rule="evenodd" d="M10.965 6.97325C8.31449 6.97325 6.16509 9.12275 6.16509 11.7732C6.16509 14.4237 8.31449 16.5732 10.965 16.5732C13.6155 16.5732 15.765 14.4237 15.765 11.7732C15.765 9.12275 13.6155 6.97325 10.965 6.97325ZM4.96509 11.7732C4.96509 8.46015 7.65189 5.77325 10.965 5.77325C14.2782 5.77325 16.965 8.46015 16.965 11.7732C16.965 15.0863 14.2782 17.7731 10.965 17.7731C7.65189 17.7731 4.96509 15.0863 4.96509 11.7732Z" fill="#FF0000"/>
<path fill-rule="evenodd" clip-rule="evenodd" d="M10.5033 8.845C10.8335 8.845 11.1011 8.5871 11.1011 8.2693C11.1011 7.9512 10.8335 7.6936 10.5033 7.6936C10.1733 7.6936 9.9054 7.9512 9.9054 8.2693C9.9054 8.5871 10.1733 8.845 10.5033 8.845Z" fill="black"/>
<path fill-rule="evenodd" clip-rule="evenodd" d="M8.75355 11.2381C8.60355 11.6309 9.01905 11.9099 9.20245 11.712L10.2998 10.5272L10.3996 11.1882L8.67865 14.7424C8.44805 15.3135 9.16165 15.7032 9.46435 15.1664L10.9733 11.9364L12.1473 15.0666C12.3275 15.586 13.1538 15.5215 13.0684 14.99L11.6592 11.0884L11.7963 10.2529L12.8517 11.3407C13.0909 11.5226 13.4761 11.3016 13.3654 10.9779L11.3474 8.89362L11.1479 8.90602L10.5493 9.21782L8.75355 11.2381Z" fill="black"/>
<path fill-rule="evenodd" clip-rule="evenodd" d="M14.339 15.9559L15.1466 15.1484L7.58867 7.59045L6.78357 8.39804L14.339 15.9559Z" fill="#FF0000" stroke="#FF0000" stroke-width="0.0025"/>
</svg>
