<svg width="12" height="12" viewBox="0 0 12 12" fill="none" xmlns="http://www.w3.org/2000/svg">
<g clip-path="url(#clip0_2_1417)">
<path fill-rule="evenodd" clip-rule="evenodd" d="M5.9999 1.2C8.6504 1.2 10.7999 3.3495 10.7999 6C10.7999 8.6505 8.6504 10.8 5.9999 10.8C3.3494 10.8 1.2 8.6505 1.2 6C1.2 3.3495 3.3494 1.2 5.9999 1.2ZM11.9999 6C11.9999 2.6869 9.3131 0 5.9999 0C2.6868 0 0 2.6869 0 6C0 9.3131 2.6868 11.9999 5.9999 11.9999C9.3131 11.9999 11.9999 9.3131 11.9999 6Z" fill="#FF0000"/>
<path fill-rule="evenodd" clip-rule="evenodd" d="M8.14602 3.95139L8.14322 3.94959L8.15902 3.9228L8.15962 3.9217L8.16072 3.9213L8.18772 3.91129L8.18872 3.91089L8.18982 3.9112L8.21782 3.9204L8.21682 3.9237L8.21882 3.9209L9.79762 5.15339L9.84892 5.2203L9.84952 5.22189L9.86272 5.3048L9.86252 5.3065L9.83632 5.38569L9.83542 5.38709L9.77502 5.4433L9.77352 5.4441L9.69572 5.4616L9.06842 5.43699L9.14192 5.83339L9.16732 6.2419L9.14372 6.6504L9.07192 7.0524L8.95382 7.4415L8.78922 7.8122L8.58172 8.1579L8.33562 8.47329L8.05382 8.75459L7.74022 8.99619L7.73832 8.99339L7.73652 8.9963L7.04822 8.5007L7.05002 8.4979L7.04822 8.495L7.37772 8.2594L7.67302 7.9777L7.92732 7.65479L8.13522 7.29709L8.29432 6.9124L8.39992 6.5086L8.45052 6.0919L8.44542 5.6797L7.98472 6.1332L7.91402 6.1742L7.91242 6.1747L7.83282 6.1737L7.83122 6.1732L7.76132 6.1318L7.76012 6.13059L7.71892 6.05869L7.71842 6.057L7.71582 5.9723L8.14282 3.9507L8.14602 3.95139Z" fill="black"/>
<path fill-rule="evenodd" clip-rule="evenodd" d="M5.27188 4.53862L3.39739 5.15942L3.39639 5.15612L3.39629 5.15962L3.36659 5.15872L3.36549 5.15862L3.36459 5.15782L3.34189 5.13762L3.34099 5.13682L3.34079 5.13572L3.33459 5.10532L3.33779 5.10462L3.33459 5.10422L3.55849 3.04732L3.58759 2.96822L3.58849 2.96682L3.64979 2.91342L3.65129 2.91272L3.72988 2.89702L3.73159 2.89712L3.80759 2.92382L3.80899 2.92472L3.86239 2.98652L4.15579 3.57102L4.44559 3.30672L4.76779 3.07892L5.11549 2.89632L5.48149 2.76082L5.86138 2.67412L6.24758 2.63892L6.63549 2.65472L7.01898 2.72192L7.39028 2.83902L7.74568 3.00402L7.74439 3.00722L7.74769 3.00742L7.68469 3.88252L7.68149 3.88232L7.67999 3.88542L7.32159 3.70212L6.94179 3.57432L6.54939 3.50432L6.15189 3.49232L5.75598 3.54032L5.37079 3.64612L5.00289 3.80802L4.66749 4.01852L5.27009 4.21152L5.33909 4.25602L5.34019 4.25732L5.37959 4.33092L5.37998 4.33262L5.38079 4.41642L5.38039 4.41812L5.34109 4.49192L5.33998 4.49312L5.27188 4.53862Z" fill="black"/>
<path fill-rule="evenodd" clip-rule="evenodd" d="M5.1612 7.51708L6.6088 8.91718L6.6066 8.91978L6.6094 8.91808L6.6233 8.94588L6.6238 8.94688L6.6237 8.94798L6.6195 8.97828L6.6193 8.97948L6.6184 8.98028L6.5965 9.00148L6.5943 8.99898L6.5956 9.00208L4.7929 9.82548L4.7125 9.83868L4.7109 9.83848L4.6365 9.80998L4.6351 9.80898L4.5826 9.74448L4.5819 9.74298L4.5662 9.66098L4.5663 9.65928L4.5908 9.57818L4.9248 9.01928L4.5613 8.88708L4.2137 8.70628L3.8897 8.48048L3.5946 8.21498L3.3345 7.91158L3.1121 7.57608L2.9309 7.21458L2.7942 6.83188L2.7048 6.43348L2.6629 6.02688L2.6661 6.02658L2.6647 6.02348L3.416 5.64398L3.4174 5.64708L3.4207 5.64678L3.4495 6.06568L3.5334 6.47518L3.6722 6.86878L3.8619 7.23778L4.0986 7.57458L4.3782 7.87358L4.6946 8.12748L5.036 8.32808L4.8934 7.68158L4.8958 7.59688L4.8963 7.59518L4.9366 7.52258L4.9377 7.52138L5.0069 7.47898L5.0084 7.47848L5.0879 7.47658L5.0895 7.47698L5.1612 7.51708Z" fill="black"/>
</g>
<defs>
<clipPath id="clip0_2_1417">
<rect width="12" height="12" fill="white"/>
</clipPath>
</defs>
</svg>
