<svg width="12" height="12" viewBox="0 0 12 12" fill="none" xmlns="http://www.w3.org/2000/svg">
<path fill-rule="evenodd" clip-rule="evenodd" d="M6 1.25C8.6229 1.25 10.75 3.3771 10.75 6C10.75 8.6229 8.6229 10.75 6 10.75C3.3771 10.75 1.25 8.6229 1.25 6C1.25 3.3771 3.3771 1.25 6 1.25ZM11.9999 6C11.9999 2.6869 9.3131 0 6 0C2.6869 0 0 2.6869 0 6C0 9.3131 2.6869 11.9999 6 11.9999C9.3131 11.9999 11.9999 9.3131 11.9999 6Z" fill="#FF0000"/>
<path fill-rule="evenodd" clip-rule="evenodd" d="M9.36863 5.78192V5.78542H9.96484V6.73703H9.36863V6.74042L9.36563 6.74173L9.56744 7.22562L9.57923 7.30822L9.54943 7.38502L9.48624 7.43832L9.40503 7.45362L9.32684 7.42722L7.58894 6.29882L7.57153 6.27523V6.24622L7.58894 6.22362L9.32684 5.09412L9.40503 5.06873L9.48624 5.08403L9.54943 5.13642L9.57923 5.21312L9.56744 5.29572L9.36563 5.78062L9.36863 5.78192Z" fill="black"/>
<path fill-rule="evenodd" clip-rule="evenodd" d="M5.71043 3.10299H4.67844C4.27144 3.28949 3.94303 3.61009 3.91943 4.30129V4.72129C3.91943 4.82029 4.00043 4.90129 4.09943 4.90129C4.19843 4.90129 4.27943 4.82029 4.27943 4.72129V4.30129C4.27873 4.06299 4.35373 3.8701 4.50433 3.7226V4.90249H3.91943V5.05249H4.50433V5.36049C4.46393 5.32959 4.41353 5.3112 4.35903 5.3112C4.22703 5.3112 4.11903 5.41919 4.11903 5.55119V6.9912C4.11903 7.1147 4.21363 7.21719 4.33393 7.22979H4.12283V7.3798H4.60284V7.22979H4.38413C4.50443 7.21719 4.59903 7.1147 4.59903 6.9912V6.1181C4.59933 6.1138 4.60383 6.103 4.61243 6.1106L5.05154 6.35979C5.09534 6.38939 5.09524 6.4366 5.05164 6.4572C5.04824 6.4588 4.70303 6.5419 4.60453 6.8079V7.97899C4.60453 8.02019 4.63833 8.05399 4.67953 8.05399C4.72083 8.05399 4.75453 8.02019 4.75453 7.97899V6.8079C5.04023 6.4765 5.34513 6.5292 5.58653 6.8004V8.35229C5.58653 8.42439 5.61873 8.48939 5.66963 8.53349L5.52653 8.60759V8.80289H6.12653V8.60759L5.98543 8.53169C6.03503 8.48759 6.06654 8.42339 6.06654 8.35229V6.22879C6.06654 6.11679 5.98873 6.02209 5.88453 5.99599V5.05249H6.46944V4.90249H5.88453V3.96619C5.99413 4.05049 6.03483 4.14649 6.04003 4.30129V4.69199C6.04003 4.79099 6.14653 4.90129 6.24553 4.90129C6.34453 4.90129 6.46944 4.79099 6.46944 4.69199V4.25279C6.45864 3.72019 6.03083 3.24929 5.71043 3.10299ZM5.17323 6.58289C5.07423 6.58289 4.99323 6.66389 4.99323 6.76289V9.5229C4.99323 9.6219 5.07423 9.7029 5.17323 9.7029C5.27223 9.7029 5.35323 9.6219 5.35323 9.5229V6.76289C5.35323 6.66389 5.27223 6.58289 5.17323 6.58289ZM5.20703 2.13879C4.95923 2.13879 4.75703 2.34089 4.75703 2.58879C4.75703 2.83659 4.95923 3.0388 5.20703 3.0388C5.45493 3.0388 5.65704 2.83659 5.65704 2.58879C5.65704 2.34089 5.45493 2.13879 5.20703 2.13879ZM5.56323 6.54469C5.51003 6.49929 5.45013 6.4663 5.40863 6.4557V6.35749C5.46113 6.38849 5.50703 6.42649 5.56323 6.54469Z" fill="black" stroke="#1B1918" stroke-width="0.216"/>
</svg>
