<svg width="12" height="12" viewBox="0 0 12 12" fill="none" xmlns="http://www.w3.org/2000/svg">
<g clip-path="url(#clip0_2_1433)">
<path fill-rule="evenodd" clip-rule="evenodd" d="M6 1.25C8.6228 1.25 10.7499 3.3771 10.7499 6C10.7499 8.6229 8.6228 10.75 6 10.75C3.3771 10.75 1.25 8.6229 1.25 6C1.25 3.3771 3.3771 1.25 6 1.25ZM11.9999 6C11.9999 2.6869 9.3131 0 6 0C2.6868 0 0 2.6869 0 6C0 9.3131 2.6868 11.9999 6 11.9999C9.3131 11.9999 11.9999 9.3131 11.9999 6Z" fill="#FF0000"/>
<path fill-rule="evenodd" clip-rule="evenodd" d="M3.94144 3.92817H3.15554C2.84564 4.07027 2.59554 4.31437 2.57764 4.84067V5.16047C2.57764 5.23587 2.63934 5.29757 2.71464 5.29757C2.79004 5.29757 2.85174 5.23587 2.85174 5.16047V4.84067C2.85124 4.65917 2.90834 4.51237 3.02304 4.39997V5.29847H2.57764V5.41267H3.02304V5.64727C2.99224 5.62367 2.95384 5.60967 2.91234 5.60967C2.81184 5.60967 2.72954 5.69197 2.72954 5.79247V6.88897C2.72954 6.98307 2.80163 7.06107 2.89323 7.07077H2.73244V7.18497H3.09804V7.07077H2.93143C3.02303 7.06107 3.09514 6.98307 3.09514 6.88897V6.22407C3.09534 6.22087 3.09914 6.21257 3.10524 6.21837L3.43964 6.40817C3.47304 6.43077 3.47293 6.46667 3.43973 6.48237C3.43673 6.48357 3.17433 6.54687 3.09933 6.74937V7.64117C3.09933 7.67257 3.12504 7.69827 3.15644 7.69827C3.18784 7.69827 3.21354 7.67257 3.21354 7.64117V6.74937C3.43104 6.49707 3.66324 6.53727 3.84704 6.74367V7.92547C3.84704 7.98037 3.87164 8.02987 3.91034 8.06347L3.80134 8.11987V8.26857H4.25824V8.11987L4.15084 8.06207C4.18864 8.02847 4.21254 7.97967 4.21254 7.92547V6.30847C4.21254 6.22317 4.15334 6.15107 4.07404 6.13117V5.41267H4.51944V5.29847H4.07404V4.58547C4.15744 4.64967 4.18844 4.72277 4.19234 4.84067V5.13817C4.19234 5.21357 4.27354 5.29757 4.34894 5.29757C4.42434 5.29757 4.51944 5.21357 4.51944 5.13817V4.80377C4.51144 4.39817 4.18544 4.03957 3.94144 3.92817ZM3.53234 6.57807C3.45694 6.57807 3.39524 6.63977 3.39524 6.71517V8.81687C3.39524 8.89227 3.45694 8.95397 3.53234 8.95397C3.60774 8.95397 3.66944 8.89227 3.66944 8.81687V6.71517C3.66944 6.63977 3.60774 6.57807 3.53234 6.57807ZM3.55814 3.19397C3.36934 3.19397 3.21544 3.34787 3.21544 3.53657C3.21544 3.72537 3.36934 3.87927 3.55814 3.87927C3.74684 3.87927 3.90073 3.72537 3.90073 3.53657C3.90073 3.34787 3.74684 3.19397 3.55814 3.19397ZM3.82934 6.54897C3.78884 6.51447 3.74324 6.48927 3.71164 6.48117V6.40647C3.75164 6.43007 3.78654 6.45897 3.82934 6.54897Z" fill="black"/>
<path fill-rule="evenodd" clip-rule="evenodd" d="M7.98511 5.44487L8.19431 4.96228L8.1963 6.14558L8.013 8.01868L8.01501 8.01897C8.00801 8.25187 8.40751 8.40658 8.48981 8.07418L8.69761 6.27918L8.7982 8.36408C8.8607 8.59448 9.1613 8.58598 9.2052 8.35128V4.99748L9.34001 5.67487L9.332 6.11657C9.3747 6.32597 9.6284 6.33198 9.6958 6.13488L9.6938 6.11647L9.69681 6.11607C9.59971 5.20997 9.58062 4.59717 9.38822 4.42487C8.86102 4.03907 8.0991 4.22878 8.0233 4.41108L8.02431 4.41308L8.02232 4.41227L7.66641 5.28318L7.66241 6.09238L7.6714 6.17688L7.67181 6.17798C7.77891 6.32778 7.91341 6.31317 7.98941 6.14637L7.98961 6.14518L7.9895 6.14388L7.98511 5.44487Z" fill="black"/>
<path fill-rule="evenodd" clip-rule="evenodd" d="M8.32019 3.74908C8.36029 3.99958 8.48139 4.08707 8.69049 4.12067C8.93519 4.08167 9.02489 3.97917 9.06149 3.74977C9.02119 3.49847 8.90049 3.41208 8.69119 3.37878C8.48239 3.41228 8.36039 3.49878 8.32019 3.74908Z" fill="black"/>
<path fill-rule="evenodd" clip-rule="evenodd" d="M5.94128 3.37878H6.27608V8.44568H5.94128V3.37878Z" fill="black"/>
</g>
<defs>
<clipPath id="clip0_2_1433">
<rect width="12" height="12" fill="white"/>
</clipPath>
</defs>
</svg>
