<svg width="22" height="21" viewBox="0 0 22 21" fill="none" xmlns="http://www.w3.org/2000/svg">
<path fill-rule="evenodd" clip-rule="evenodd" d="M5.99989 1.2C3.34939 1.2 1.2 3.3495 1.2 6C1.2 8.6505 3.34939 10.8 5.99989 10.8C8.65039 10.8 10.7999 8.6505 10.7999 6C10.7999 3.3495 8.65039 1.2 5.99989 1.2ZM0 6C0 2.6869 2.68679 0 5.99989 0C9.31299 0 11.9999 2.6869 11.9999 6C11.9999 9.3131 9.31299 11.9999 5.99989 11.9999C2.68679 11.9999 0 9.3131 0 6Z" fill="#FF0000"/>
<path fill-rule="evenodd" clip-rule="evenodd" d="M7.01595 4.17081C6.94045 4.10881 6.97976 4.06881 6.92606 3.97541C6.88936 4.03911 6.76736 4.0019 6.76126 3.9958C6.73196 3.939 6.73596 3.7893 6.74356 3.7206C6.75406 3.6265 6.89406 3.50381 6.98676 3.92231L7.03185 4.10191C7.03885 4.21911 7.04085 4.12921 7.01595 4.17081ZM7.76746 5.73331L7.64956 5.52691C7.62646 5.48451 7.62117 5.47711 7.63037 5.45961L7.61286 5.51151C7.67406 5.64761 7.74905 5.76541 7.80565 5.89331L7.66276 5.97551C7.48156 5.73141 7.44956 5.86881 7.33066 5.99891C7.05186 6.30391 7.15755 6.3011 7.01015 6.5387C7.07255 6.6876 7.36445 6.7534 6.91665 7.2033L6.60505 7.52151C6.52525 7.59331 6.10696 7.70141 5.96726 7.71041C5.75786 7.72381 5.43486 7.6342 5.21246 7.6192L4.75056 7.72231C4.67896 7.72231 4.72376 7.75341 4.69916 7.69461C4.65366 7.89701 4.44156 8.1248 4.32376 8.2219C3.76466 8.6827 2.84767 8.48021 2.54497 7.78801C2.16027 6.90841 2.92865 5.986 3.84145 6.1776C3.94395 6.1991 4.13425 6.2877 4.17585 6.2919C4.21915 6.2422 4.23735 6.19481 4.26035 6.13411C4.27985 6.11391 4.27146 6.12571 4.27346 6.09171C4.08646 6.00701 4.12395 5.9913 3.86225 5.9011C3.72225 5.8528 3.52685 5.7912 3.38535 5.7602C3.37735 5.6655 3.33595 5.601 3.26575 5.5853C3.30575 5.6315 3.35296 5.65361 3.36056 5.74771C3.06356 5.71301 2.89807 5.81961 2.66837 6.02761C2.62087 6.07051 2.58586 6.1091 2.54456 6.158C2.44916 6.271 2.26887 6.48271 2.14417 6.52291L2.70946 5.66441C2.69686 5.61801 2.68416 5.63751 2.69176 5.57141L2.73655 5.45681C2.67845 5.44881 2.69246 5.44451 2.66076 5.43151C2.63376 5.42041 2.62746 5.42571 2.59086 5.40441C2.43376 5.31301 2.44585 5.2519 2.37725 5.1538C2.34025 5.1011 2.30085 5.07491 2.28385 5.00991C2.44795 4.99451 2.84786 5.12761 3.03956 5.16171C3.00416 5.10581 2.93065 5.09911 2.88535 5.04341C2.96425 4.99411 3.11835 5.05181 3.21705 5.07571C3.34665 5.10711 3.43607 5.1136 3.56957 5.1277C3.91727 5.1644 3.91786 5.20211 4.16826 5.34021C4.28416 5.40411 4.30457 5.42121 4.46117 5.44621C5.18457 5.56161 5.08065 5.43111 5.46485 5.30301C5.49595 5.29111 5.51275 5.25511 5.53815 5.22591C5.56935 5.19001 5.59425 5.1667 5.62955 5.1371C5.86095 4.943 6.17375 4.92771 6.47295 4.91171C6.39765 4.92971 6.42495 4.8972 6.42255 4.8842C6.48655 4.8063 6.67935 4.81271 6.73845 4.89811L6.75556 4.9249C6.75656 4.9267 6.75957 4.931 6.76157 4.9337C7.16087 4.9869 7.00525 4.93341 7.12235 5.07021C7.15025 5.05761 7.17486 5.0445 7.20076 5.0293C7.20376 5.0274 7.23286 5.0094 7.23646 5.0064C7.26166 4.9856 7.25176 4.99921 7.25616 4.98251L7.16675 4.7079C7.13555 4.646 7.17686 4.70861 7.12066 4.66561C7.08906 4.64141 7.11866 4.6803 7.09126 4.6408L7.01987 4.5615C6.95197 4.6174 7.03415 4.60971 6.85775 4.61071C6.81395 4.51851 6.81037 4.55501 6.71817 4.58031C6.58167 4.61771 6.66466 4.48001 6.66486 4.45911C6.66546 4.40151 6.64066 4.4248 6.66086 4.3558C6.71896 4.3245 6.74615 4.3572 6.82285 4.3236C6.90525 4.2874 6.86597 4.27581 6.98337 4.27131L6.99755 4.16281C7.02865 4.19571 7.04176 4.25151 7.05046 4.29261C7.10286 4.21061 7.07026 4.2155 7.06656 4.1104C7.06356 4.0132 7.06626 3.90911 7.06656 3.81131C7.02906 3.74221 7.04885 3.81681 7.01505 3.74911C6.99035 3.69941 7.00026 3.47671 7.00016 3.41541L7.09635 3.423C7.16745 3.5808 7.05885 3.98641 7.11275 4.21001L7.25416 4.20021C7.28346 4.36221 7.23636 4.3338 7.34966 4.437C7.43036 4.5105 7.41147 4.5223 7.45537 4.5703C7.48837 4.6065 7.47135 4.59211 7.51075 4.61361C7.55425 4.57931 7.59397 4.50881 7.62337 4.46301C7.65717 4.41031 7.69077 4.3508 7.73557 4.3218C7.84167 4.3479 8.08156 4.5763 8.10166 4.6804C8.03406 4.7376 7.93607 4.75631 7.87677 4.80231C7.92137 4.81961 8.03085 4.77421 8.10695 4.76471C8.11195 4.76401 8.13777 4.76181 8.14357 4.76271C8.18917 4.76931 8.15576 4.7543 8.18316 4.7812C8.23966 4.8925 8.16955 5.27271 8.15415 5.40441L7.75245 5.33961C7.77395 5.40571 7.87226 5.5887 7.92916 5.6398C8.02836 5.7291 7.98155 5.78021 8.05515 5.90511C8.08795 5.96091 8.13405 6.06701 8.17205 6.09801C8.55115 5.96611 8.92756 5.9286 9.27146 6.1711L9.32136 6.21721C9.32336 6.21931 9.32635 6.22351 9.32935 6.22681L9.17916 6.23801C9.50496 6.39711 9.80666 6.7081 9.85076 7.1824C9.94176 8.16171 8.87095 8.7796 8.06185 8.2655C7.90895 8.1683 7.76335 8.02011 7.67365 7.84471C7.52185 7.54801 7.56067 7.48621 7.53467 7.14701L7.49376 7.30001C7.45886 7.35081 7.49976 7.31461 7.44666 7.33471C7.42406 6.77371 7.67627 6.3792 7.99347 6.1865C8.01337 6.1549 7.98545 6.1253 7.95955 6.0769C7.93845 6.0374 7.91927 6.00071 7.89777 5.95901C7.85787 5.88161 7.80496 5.81821 7.76746 5.73331ZM8.03106 6.31171L7.98676 6.3413C8.01996 6.3935 8.00416 6.3976 8.06426 6.3754C8.11496 6.3985 8.08915 6.374 8.11445 6.4369L8.19915 6.58361C8.03415 6.73641 7.93346 6.80391 7.85656 7.05021C7.72356 7.47641 7.93006 7.935 8.34586 8.1167C8.55786 8.2094 8.79866 8.2132 9.01336 8.1319C9.91216 7.7914 9.69265 6.39301 8.63245 6.43531L8.39045 6.4892C8.39045 6.4892 8.25156 6.32381 8.29766 6.24551C8.30796 6.22801 8.34656 6.1858 8.29066 6.1734C8.25156 6.1648 8.28165 6.1864 8.23775 6.1786C8.18245 6.1688 8.25945 6.16571 8.17695 6.15471C8.13675 6.17161 8.06845 6.20441 8.05285 6.24211L8.03106 6.31171ZM8.49825 7.03571C8.52145 7.08821 8.60475 7.2083 8.60755 7.2442C8.61455 7.3393 8.58195 7.4319 8.75425 7.4113C8.77745 7.4035 8.91726 7.31001 8.76326 7.18901C8.73386 7.16581 8.74666 7.18291 8.72196 7.14021L8.63915 6.96461C9.11145 6.95621 9.15286 7.48251 8.83436 7.62251C8.63626 7.70961 8.46125 7.59691 8.39635 7.48091C8.30775 7.32281 8.36315 7.09041 8.49825 7.03571ZM3.92596 6.9966L4.04175 6.8339L4.34156 6.82841C4.25116 6.65391 3.97086 6.47031 3.70046 6.44361C3.30246 6.40421 3.13845 6.60831 2.97275 6.72261C2.99815 6.73091 3.00377 6.73441 3.02797 6.74041C3.06697 6.75001 3.03846 6.74381 3.07876 6.74771C3.13736 6.75331 3.12836 6.7497 3.18666 6.7686C3.50666 6.8722 3.54645 6.81371 3.94115 6.82671C3.92815 6.87831 3.91377 6.92341 3.88207 6.95821C3.89637 6.97591 3.88806 6.96321 3.90486 6.97811C3.91186 6.98461 3.91726 6.994 3.91866 6.9902C3.91956 6.9877 3.92396 6.9942 3.92596 6.9966ZM2.74586 7.19241C2.76936 7.33531 2.73436 7.4195 2.78666 7.5788C2.82176 7.6858 2.87265 7.77381 2.93255 7.85031C3.04015 7.98791 3.22606 8.1292 3.44906 8.1688C3.96206 8.2598 4.41306 7.88651 4.46226 7.53271C4.45526 7.49771 4.46526 7.5143 4.44906 7.491C4.35606 7.4767 4.17456 7.42391 4.07446 7.42871L3.82406 7.3679L3.78236 7.44151C3.72936 7.51641 3.65025 7.5397 3.55855 7.5247C3.40885 7.5003 3.39826 7.41791 3.35956 7.28411L3.14346 7.2536C3.09876 7.2287 2.81876 7.18041 2.74586 7.19241Z" fill="black"/>
<path fill-rule="evenodd" clip-rule="evenodd" d="M9.2274 10.0012L9.99989 9.22859L2.7701 1.99878L2 2.77138L9.2274 10.0012Z" fill="#FF0000" stroke="#FF0000" stroke-width="0.0024"/>
</svg>
