<svg width="27" height="41" viewBox="0 0 27 41" fill="none" xmlns="http://www.w3.org/2000/svg">
<path fill-rule="evenodd" clip-rule="evenodd" d="M5.9999 14.5569C2.6868 14.5569 0 17.2437 0 20.5569C0 23.87 2.6868 26.5568 5.9999 26.5568C9.313 26.5568 11.9999 23.87 11.9999 20.5569C11.9999 17.2437 9.313 14.5569 5.9999 14.5569ZM1.2 20.5569C1.2 17.9064 3.3494 15.7569 5.9999 15.7569C8.6504 15.7569 10.7999 17.9064 10.7999 20.5569C10.7999 23.2074 8.6504 25.3568 5.9999 25.3568C3.3494 25.3568 1.2 23.2074 1.2 20.5569Z" fill="#FF0000"/>
<path fill-rule="evenodd" clip-rule="evenodd" d="M3.8999 23.8567H8.09991V22.7438H5.0144V20.943H7.7905V19.8301H5.0144V18.3697H7.9968V17.2568H3.8999V23.8567Z" fill="black"/>
<path fill-rule="evenodd" clip-rule="evenodd" d="M9.54628 24.9518L10.3948 24.1032L2.45358 16.162L1.60498 17.0105L9.54628 24.9518Z" fill="#FF0000" stroke="#FF0000" stroke-width="0.0027"/>
</svg>
