<svg width="16" height="17" viewBox="0 0 16 17" fill="none" xmlns="http://www.w3.org/2000/svg">
<path fill-rule="evenodd" clip-rule="evenodd" d="M7.97021 1.78418C4.65721 1.78418 1.97021 4.47098 1.97021 7.78418C1.97021 11.0973 4.65721 13.7841 7.97021 13.7841C11.2832 13.7841 13.9702 11.0973 13.9702 7.78418C13.9702 4.47098 11.2832 1.78418 7.97021 1.78418ZM3.17022 7.78418C3.17022 5.13368 5.32021 2.98418 7.97021 2.98418C10.6212 2.98418 12.7702 5.13368 12.7702 7.78418C12.7702 10.4347 10.6212 12.5841 7.97021 12.5841C5.32021 12.5841 3.17022 10.4347 3.17022 7.78418Z" fill="#FF0000"/>
<path fill-rule="evenodd" clip-rule="evenodd" d="M5.87024 11.084H10.0702V9.97114H6.98524V8.17034H9.76124V7.05743H6.98524V5.59703H9.96724V4.48413H5.87024V11.084Z" fill="black"/>
<path fill-rule="evenodd" clip-rule="evenodd" d="M11.5172 12.1791L12.3652 11.3305L4.42419 3.38928L3.5752 4.23778L11.5172 12.1791Z" fill="#FF0000" stroke="#FF0000" stroke-width="0.0027"/>
<path fill-rule="evenodd" clip-rule="evenodd" d="M4.42419 12.1791L3.5752 11.3305L11.5172 3.38928L12.3652 4.23778L4.42419 12.1791Z" fill="#FF0000" stroke="#FF0000" stroke-width="0.0027"/>
</svg>
