<svg width="25" height="40" viewBox="0 0 25 40" fill="none" xmlns="http://www.w3.org/2000/svg">
<path fill-rule="evenodd" clip-rule="evenodd" d="M4.86995 17.2359L3.93315 18.6787L3.74005 18.976L3.73905 18.9776L3.72525 19.0033L3.71715 19.0293L3.71265 19.0566L3.71355 19.0848L3.71805 19.1119L3.72805 19.1382L3.74155 19.1625L3.75975 19.1834L3.78135 19.2014L3.80505 19.216L3.83115 19.2259L3.85835 19.2313L3.88655 19.2323L3.91345 19.2287L3.93905 19.2199L3.94005 19.2195L4.42605 19.0172L4.42735 19.0204H4.43075V19.0241V20.3968V20.6276L4.43355 20.7077L4.44275 20.7879L4.45745 20.8671L4.47865 20.9445L4.50535 21.021L4.53765 21.0947L4.57445 21.1656L4.61775 21.2338L4.66565 21.2992L4.71815 21.36L4.77525 21.4172L4.83605 21.4697L4.90055 21.5176L4.96875 21.56L5.03965 21.5978L5.11335 21.63L5.18985 21.6567L5.26725 21.677L5.34645 21.6927L5.42655 21.7019L5.50335 21.7046L5.50685 21.7047H6.16435H6.27495V21.7082H6.27845V21.7116V24.3364V24.7779H6.91185H7.01554V21.7082H7.01895V21.7047H7.02245H7.22225H7.25934V21.7082H7.26274V24.3388V24.7575V24.7779H8.13975H8.28734V21.7563L8.28635 21.7284L8.28454 21.6752L8.27544 21.596L8.26064 21.5168L8.23945 21.4384L8.21364 21.3629L8.18145 21.2892L8.14365 21.2174L8.10025 21.149L8.05245 21.0847L7.99995 21.0238L7.94375 20.9667L7.88205 20.9142L7.81754 20.8663L7.74944 20.823L7.67845 20.7861L7.60474 20.7539L7.52824 20.7271L7.45065 20.7059L7.37164 20.6912L7.29154 20.682L7.21495 20.6793L7.21125 20.6792H7.01895V20.6757H7.01554V17.1974H6.27845V20.1593V20.6582H6.27495L6.27425 20.6616L6.19754 20.6449L6.12145 20.6227L6.04724 20.5939L5.97494 20.5606L5.90545 20.5216L5.83955 20.4781L5.77655 20.4298L5.71714 20.377L5.66155 20.3205L5.61145 20.2592L5.56505 20.1943L5.52334 20.1267L5.48715 20.0562L5.45565 19.9839L5.42965 19.9088L5.41015 19.8318L5.39535 19.7539L5.38695 19.6742L5.38424 19.5954V19.0204H5.38765L5.38895 19.0172L5.39665 19.0204L5.70024 19.147L5.87405 19.2195L5.88345 19.2228L5.90055 19.2287L5.92835 19.2323L5.95664 19.2313L5.98385 19.2259L6.00994 19.216L6.03345 19.2015L6.05445 19.1832L6.07254 19.1625L6.08605 19.1382L6.09605 19.1119L6.10145 19.0847V19.0565L6.09784 19.0295L6.08875 19.0032L6.07664 18.9791L6.07594 18.9775L4.94505 17.2359L4.93445 17.2245L4.92165 17.2176L4.90705 17.215L4.89245 17.2176L4.87965 17.2245L4.87335 17.2319L4.86995 17.2359Z" fill="black"/>
<path fill-rule="evenodd" clip-rule="evenodd" d="M5.9999 14.9877C2.6868 14.9877 0 17.6746 0 20.9877C0 24.3008 2.6868 26.9876 5.9999 26.9876C9.313 26.9876 11.9999 24.3008 11.9999 20.9877C11.9999 17.6746 9.313 14.9877 5.9999 14.9877ZM1.2 20.9877C1.2 18.3372 3.3494 16.1877 5.9999 16.1877C8.6504 16.1877 10.7999 18.3372 10.7999 20.9877C10.7999 23.6382 8.6504 25.7876 5.9999 25.7876C3.3494 25.7876 1.2 23.6382 1.2 20.9877Z" fill="#FF0000"/>
<path fill-rule="evenodd" clip-rule="evenodd" d="M9.54628 25.3826L10.3948 24.534L2.45358 16.5928L1.60498 17.4413L9.54628 25.3826Z" fill="#FF0000" stroke="#FF0000" stroke-width="0.0027"/>
</svg>
