<svg width="314" height="164" viewBox="0 0 314 164" fill="none" xmlns="http://www.w3.org/2000/svg">
<path fill-rule="evenodd" clip-rule="evenodd" d="M157.259 151.26C153.945 151.26 151.259 153.946 151.259 157.26C151.259 160.573 153.945 163.259 157.259 163.259C160.572 163.259 163.258 160.573 163.258 157.26C163.258 153.946 160.572 151.26 157.259 151.26ZM152.459 157.26C152.459 154.609 154.608 152.46 157.259 152.46C159.909 152.46 162.058 154.609 162.058 157.26C162.058 159.91 159.909 162.059 157.259 162.059C154.608 162.059 152.459 159.91 152.459 157.26Z" fill="#FF0000"/>
<path fill-rule="evenodd" clip-rule="evenodd" d="M161.085 155.052H156.532V158.053H161.085V155.052Z" fill="black"/>
<path fill-rule="evenodd" clip-rule="evenodd" d="M160.485 158.653L160.482 158.594L160.475 158.536L160.46 158.479L160.439 158.424L160.414 158.371L160.385 158.321L160.349 158.273L160.309 158.229L160.266 158.189L160.219 158.155L160.169 158.124L160.116 158.099L160.059 158.08L160.003 158.065L159.944 158.056L159.885 158.053L159.827 158.056L159.768 158.065L159.712 158.08L159.656 158.099L159.603 158.124L159.552 158.155L159.505 158.189L159.461 158.229L159.422 158.273L159.387 158.321L159.357 158.371L159.332 158.424L159.311 158.479L159.297 158.536L159.289 158.594L159.286 158.653L159.289 158.712L159.297 158.77L159.311 158.828L159.332 158.882L159.357 158.936L159.387 158.987L159.422 159.035L159.461 159.077L159.505 159.117L159.552 159.153L159.603 159.182L159.656 159.208L159.712 159.228L159.768 159.242L159.827 159.25L159.885 159.253L159.944 159.25L160.003 159.242L160.059 159.228L160.116 159.208L160.169 159.182L160.219 159.153L160.266 159.117L160.309 159.077L160.349 159.035L160.385 158.987L160.414 158.936L160.439 158.882L160.46 158.828L160.475 158.77L160.482 158.712L160.485 158.653Z" fill="black"/>
<path fill-rule="evenodd" clip-rule="evenodd" d="M159.144 158.653L159.141 158.594L159.132 158.536L159.119 158.479L159.098 158.424L159.073 158.371L159.044 158.321L159.008 158.273L158.968 158.229L158.925 158.189L158.878 158.155L158.828 158.124L158.775 158.099L158.718 158.08L158.662 158.065L158.603 158.056L158.544 158.053L158.486 158.056L158.427 158.065L158.371 158.08L158.315 158.099L158.262 158.124L158.211 158.155L158.164 158.189L158.12 158.229L158.081 158.273L158.046 158.321L158.015 158.371L157.99 158.424L157.97 158.479L157.956 158.536L157.947 158.594L157.945 158.653L157.947 158.712L157.956 158.77L157.97 158.828L157.99 158.882L158.015 158.936L158.046 158.987L158.081 159.035L158.12 159.077L158.164 159.117L158.211 159.153L158.262 159.182L158.315 159.208L158.371 159.228L158.427 159.242L158.486 159.25L158.544 159.253L158.603 159.25L158.662 159.242L158.718 159.228L158.775 159.208L158.828 159.182L158.878 159.153L158.925 159.117L158.968 159.077L159.008 159.035L159.044 158.987L159.073 158.936L159.098 158.882L159.119 158.828L159.132 158.77L159.141 158.712L159.144 158.653Z" fill="black"/>
<path fill-rule="evenodd" clip-rule="evenodd" d="M155.086 158.653L155.083 158.594L155.074 158.536L155.06 158.479L155.04 158.424L155.015 158.371L154.984 158.321L154.95 158.273L154.91 158.229L154.866 158.189L154.819 158.155L154.768 158.124L154.715 158.099L154.66 158.08L154.603 158.065L154.545 158.056L154.486 158.053L154.427 158.056L154.369 158.065L154.311 158.08L154.257 158.099L154.204 158.124L154.152 158.155L154.105 158.189L154.062 158.229L154.022 158.273L153.986 158.321L153.957 158.371L153.932 158.424L153.912 158.479L153.898 158.536L153.889 158.594L153.886 158.653L153.889 158.712L153.898 158.77L153.912 158.828L153.932 158.882L153.957 158.936L153.986 158.987L154.022 159.035L154.062 159.077L154.105 159.117L154.152 159.153L154.204 159.182L154.257 159.208L154.311 159.228L154.369 159.242L154.427 159.25L154.486 159.253L154.545 159.25L154.603 159.242L154.66 159.228L154.715 159.208L154.768 159.182L154.819 159.153L154.866 159.117L154.91 159.077L154.95 159.035L154.984 158.987L155.015 158.936L155.04 158.882L155.06 158.828L155.074 158.77L155.083 158.712L155.086 158.653Z" fill="black"/>
<path fill-rule="evenodd" clip-rule="evenodd" d="M155.128 158.053L155.076 158.003L155.021 157.957L154.962 157.915L154.9 157.879L154.836 157.847L154.768 157.821L154.699 157.8L154.629 157.787L154.558 157.778L154.486 157.775L154.413 157.778L154.343 157.787L154.272 157.8L154.204 157.821L154.136 157.847L154.072 157.879L154.01 157.915L153.951 157.957L153.895 158.003L153.844 158.053" fill="black"/>
<path fill-rule="evenodd" clip-rule="evenodd" d="M155.089 158.594L155.092 158.653L155.089 158.713L155.08 158.771L155.065 158.829L155.046 158.884L155.02 158.938L154.989 158.99L154.955 159.038L154.914 159.081L154.87 159.122L154.822 159.157L154.771 159.187L154.718 159.213L154.662 159.233L154.604 159.247L154.546 159.256L154.486 159.259L154.427 159.256L154.368 159.247L154.31 159.234L154.255 159.213L154.201 159.187L154.149 159.158L154.101 159.122L154.058 159.081L154.018 159.038L153.982 158.991L153.952 158.938L153.927 158.885L153.907 158.829L153.892 158.771L153.883 158.713L153.88 158.653L153.883 158.594L153.892 158.536L153.907 158.477L153.926 158.422L153.952 158.368L153.982 158.318L154.017 158.27L154.058 158.225L154.101 158.185L154.149 158.15L154.201 158.119L154.255 158.094L154.31 158.074L154.368 158.059L154.426 158.05L154.486 158.047L154.545 158.05L154.604 158.059L154.662 158.074L154.717 158.094L154.771 158.119L154.822 158.15L154.869 158.185L154.914 158.225L154.954 158.27L154.989 158.317L155.02 158.368L155.045 158.422L155.065 158.477L155.08 158.535L155.089 158.594Z" fill="black" stroke="#1B1918" stroke-width="0.216"/>
<path fill-rule="evenodd" clip-rule="evenodd" d="M156.532 155.046H161.085H161.091V155.052V158.053V158.059H161.085H159.999L160.004 158.059L160.061 158.074L160.117 158.094L160.171 158.119L160.222 158.15L160.27 158.185L160.313 158.225L160.353 158.27L160.389 158.317L160.419 158.368L160.444 158.422L160.465 158.477L160.48 158.535L160.488 158.593L160.491 158.653L160.488 158.713L160.48 158.771L160.465 158.829L160.444 158.884L160.419 158.938L160.389 158.99L160.354 159.038L160.313 159.081L160.27 159.121L160.222 159.157L160.172 159.187L160.118 159.213L160.061 159.233L160.004 159.247L159.945 159.256L159.885 159.259L159.827 159.256L159.767 159.247L159.711 159.234L159.654 159.213L159.6 159.187L159.549 159.158L159.502 159.122L159.457 159.082L159.418 159.038L159.382 158.991L159.352 158.938L159.327 158.885L159.306 158.83L159.291 158.771L159.284 158.713L159.281 158.653L159.284 158.594L159.291 158.536L159.306 158.477L159.327 158.422L159.352 158.368L159.382 158.318L159.418 158.27L159.456 158.225L159.501 158.185L159.549 158.15L159.6 158.119L159.653 158.094L159.71 158.074L159.767 158.059L159.773 158.059H158.658L158.663 158.059L158.72 158.074L158.776 158.094L158.83 158.119L158.881 158.15L158.929 158.185L158.972 158.225L159.012 158.27L159.048 158.317L159.078 158.368L159.103 158.422L159.124 158.477L159.138 158.535L159.147 158.593L159.15 158.653L159.147 158.713L159.138 158.771L159.124 158.829L159.104 158.884L159.078 158.938L159.049 158.99L159.013 159.038L158.972 159.081L158.929 159.121L158.881 159.157L158.831 159.187L158.777 159.213L158.72 159.233L158.664 159.247L158.604 159.256L158.544 159.259L158.486 159.256L158.426 159.247L158.37 159.234L158.313 159.213L158.259 159.187L158.209 159.158L158.161 159.122L158.116 159.082L158.077 159.038L158.041 158.991L158.01 158.938L157.985 158.885L157.965 158.829L157.95 158.771L157.941 158.713L157.94 158.653L157.941 158.594L157.95 158.536L157.965 158.477L157.984 158.422L158.01 158.368L158.041 158.318L158.077 158.27L158.116 158.225L158.16 158.185L158.208 158.15L158.259 158.119L158.313 158.094L158.369 158.074L158.426 158.059L158.432 158.059H156.532H156.526V158.053V155.052V155.046H156.532Z" fill="black" stroke="#1B1918" stroke-width="0.216"/>
<path fill-rule="evenodd" clip-rule="evenodd" d="M156.285 158.053V156.048H155.086L155.082 156.044L154.271 156.847H153.285V156.853H153.28V158.053H153.285V158.059H153.844V158.053L153.895 158.003L153.951 157.957L154.01 157.915L154.072 157.879L154.136 157.847L154.204 157.821L154.272 157.8L154.343 157.787L154.413 157.778L154.486 157.775L154.558 157.778L154.629 157.787L154.699 157.8L154.768 157.821L154.836 157.847L154.9 157.879L154.962 157.915L155.021 157.957L155.076 158.003L155.128 158.053H156.285ZM156.017 156.858H154.634V156.853L154.629 156.849L155.082 156.249L155.086 156.252V156.247H156.017V156.252H156.023V156.853H156.017V156.858Z" fill="black"/>
<path fill-rule="evenodd" clip-rule="evenodd" d="M160.805 161.654L161.653 160.806L153.712 152.865L152.864 153.713L160.805 161.654Z" fill="#FF0000" stroke="#FF0000" stroke-width="0.0027"/>
</svg>
