<svg width="300" height="300" viewBox="0 0 300 300" fill="none" xmlns="http://www.w3.org/2000/svg">
<g clip-path="url(#clip0_227_490)">
<rect width="300" height="300" fill="url(#paint0_linear_227_490)"/>
<path d="M83.1716 159H76.2648C74.4092 148.974 74.8489 141.892 78.1627 129C78.2878 127.637 81.5217 132.567 87.5 131C84.682 138.589 82.9065 156.931 83.1716 159Z" fill="white" stroke="white" stroke-linejoin="round"/>
<path d="M215.149 160H222.679C224.815 148.577 223.609 140.945 221.128 129C220.87 127.946 216.876 133.773 210.5 131.5C214.004 139.279 215.956 157.898 215.149 160Z" fill="white" stroke="white" stroke-linejoin="round"/>
<path d="M242 150.5C242 201.586 200.586 243 149.5 243C98.4137 243 57 201.586 57 150.5C57 99.4137 98.4137 58 149.5 58C200.586 58 242 99.4137 242 150.5ZM75.5 150.5C75.5 191.369 108.631 224.5 149.5 224.5C190.369 224.5 223.5 191.369 223.5 150.5C223.5 109.631 190.369 76.5 149.5 76.5C108.631 76.5 75.5 109.631 75.5 150.5Z" fill="white"/>
<path d="M135 212H165C165 212 162 219 169 224H131C138 217 135 212 135 212Z" fill="white"/>
<path d="M135 212C135.8 212 156 212 165 212M135 212C135 212 138 217 131 224M135 212H165M165 212C165 212 162 219 169 224M169 224C151.5 224 147 224 131 224M169 224H131" stroke="white" stroke-linejoin="round"/>
<path fill-rule="evenodd" clip-rule="evenodd" d="M91.5 131.5C137.158 113.828 162.387 114.012 207 131.5C210.116 141.837 211.376 147.848 211.5 159.5C195.465 159.468 188.087 162.195 176 172C166.94 185.609 164.362 193.721 164.5 209H135.5C135.446 207.79 135.401 206.605 135.357 205.444C134.856 192.257 134.469 182.05 122.5 172C112.369 163.494 104.701 160.605 87.5 159C88.1582 148.18 88.8933 142.146 91.5 131.5Z" fill="white" stroke="white" stroke-linejoin="round"/>
<path d="M167 150.5C167 160.165 159.165 168 149.5 168C139.835 168 132 160.165 132 150.5C132 140.835 139.835 133 149.5 133C159.165 133 167 140.835 167 150.5Z" fill="#0588DA"/>
</g>
<defs>
<linearGradient id="paint0_linear_227_490" x1="60.5" y1="-2.96533e-06" x2="200" y2="300" gradientUnits="userSpaceOnUse">
<stop stop-color="#099FF2"/>
<stop offset="1" stop-color="#0683D3"/>
</linearGradient>
<clipPath id="clip0_227_490">
<rect width="300" height="300" rx="75" fill="white"/>
</clipPath>
</defs>
</svg>
